# https://github.com/mikedh/trimesh
mtllib material.mtl

o Cube_Material.002_0
usemtl Material.002
v 0.32541061 -0.00157301 0.43428853
v 0.32541059 0.49137997 0.43428853
v -0.32541078 0.49137994 0.43428847
v -0.32541075 -0.00157304 0.43428847
v 0.32541073 0.49137997 -0.43428847
v 0.32541075 -0.00157301 -0.43428847
v -0.32541061 -0.00157304 -0.43428853
v -0.32541063 0.49137994 -0.43428853
v 0.32541073 0.49137997 -0.43428847
v -0.32541063 0.49137994 -0.43428853
v -0.32541074 0.49137994 -0.00075429
v 0.32541070 0.49137997 -0.00075425
v 0.32541070 0.49137997 0.00075429
v -0.32541074 0.49137994 0.00075425
v -0.32541078 0.49137994 0.43428847
v 0.32541059 0.49137997 0.43428853
v -0.32541061 -0.00157304 -0.43428853
v 0.32541075 -0.00157301 -0.43428847
v 0.32541061 -0.00157301 0.43428853
v -0.32541075 -0.00157304 0.43428847
v 0.32541075 -0.00157301 -0.43428847
v 0.32541073 0.49137997 -0.43428847
v 0.32541070 0.49137997 -0.00075425
v 0.32541070 0.49137997 0.00075429
v 0.32541059 0.49137997 0.43428853
v 0.32541061 -0.00157301 0.43428853
v -0.32541063 0.49137994 -0.43428853
v -0.32541061 -0.00157304 -0.43428853
v -0.32541075 -0.00157304 0.43428847
v -0.32541078 0.49137994 0.43428847
v -0.32541074 0.49137994 0.00075425
v -0.32541074 0.49137994 -0.00075429
vt 0.34024376 0.33707273
vt 0.15890737 0.33707279
vt 0.15890741 0.65658522
vt 0.34024382 0.65658516
vt 0.84109265 0.33707261
vt 0.65975624 0.33707261
vt 0.65975624 0.65658510
vt 0.84109265 0.65658504
vt 0.84109265 0.33707261
vt 0.84109265 0.65658504
vt 1.00057149 0.65658510
vt 1.00057137 0.33707267
vt -0.00057145 0.33707291
vt -0.00057133 0.65658528
vt 0.15890741 0.65658522
vt 0.15890737 0.33707279
vt 0.65975624 0.65658510
vt 0.65975624 0.33707261
vt 0.34024376 0.33707273
vt 0.34024382 0.65658516
vt 0.65975624 0.33707261
vt 0.65975612 0.15573627
vt 0.49952996 0.15508938
vt 0.49824917 0.15446103
vt 0.33803475 0.15574986
vt 0.34024376 0.33707273
vt 0.66196525 0.83790803
vt 0.65975624 0.65658510
vt 0.34024382 0.65658516
vt 0.34024388 0.83792156
vt 0.50047004 0.83856845
vt 0.50175083 0.83919674
f 1/1 2/2 3/3
f 1/1 3/3 4/4
f 5/5 6/6 7/7
f 5/5 7/7 8/8
f 9/9 10/10 11/11
f 9/9 11/11 12/12
f 13/13 14/14 15/15
f 13/13 15/15 16/16
f 17/17 18/18 19/19
f 17/17 19/19 20/20
f 22/22 26/26 21/21
f 26/26 22/22 25/25
f 25/25 22/22 23/23
f 25/25 23/23 24/24
f 30/30 28/28 29/29
f 28/28 30/30 27/27
f 27/27 30/30 31/31
f 27/27 31/31 32/32

