# https://github.com/mikedh/trimesh
v 0.25000000 0.25449509 0.14637772
v 0.27751849 0.23833071 0.12549211
v 0.28030303 0.42116176 -0.05059198
v -0.12878788 0.25449509 -0.17180410
v -0.21695823 0.23781622 0.13595256
v 0.27823890 0.23815815 -0.12089193
v 0.28030303 0.36055569 0.10092317
v -0.03597682 0.23249513 0.16404678
v -0.21969697 0.43631327 -0.02028895
v 0.26515152 0.31510115 -0.12634956
v -0.12878788 0.23934357 -0.17180410
v 0.28030303 0.26964660 0.13122620
v 0.25000000 0.23934357 0.14637772
v 0.03787879 0.25449509 0.17668075
v 0.17220540 0.23473545 -0.14326335
v -0.15909091 0.39085872 -0.09604653
v 0.28030303 0.40601024 0.05546863
v 0.28030303 0.34540418 -0.11119804
v -0.21969697 0.31510115 -0.12634956
v -0.21969697 0.23934357 -0.09604653
v 0.28216213 0.41300238 -0.03059703
v 0.03437084 0.23407250 0.16361651
v 0.14393939 0.29994963 0.14637772
v -0.21969697 0.39085872 0.08577166
v -0.15909091 0.23934357 0.16152923
v 0.26009370 0.23643889 -0.12812807
v 0.06818182 0.23934357 -0.17180410
v -0.17424242 0.40601024 -0.08089501
v 0.23619728 0.42855660 -0.00030886
v 0.26515152 0.26964660 -0.14150107
v 0.26515152 0.37570721 -0.09604653
v -0.20454545 0.29994963 -0.14150107
v 0.28030303 0.39085872 -0.08089501
v 0.28030303 0.29994963 -0.12634956
v 0.20454545 0.31510115 0.13122620
v -0.21969697 0.28479812 0.14637772
v -0.11363636 0.39085872 0.10092317
v -0.03787879 0.25449509 0.17668075
v 0.03787879 0.26964660 -0.17180410
v -0.08333333 0.39085872 -0.09604653
v -0.21969697 0.37570721 -0.09604653
v -0.08333333 0.43631327 -0.02028895
v 0.17424242 0.25449509 -0.15665259
v -0.21923547 0.28340952 -0.12379029
v -0.14393939 0.34540418 -0.12634956
v 0.05303030 0.31510115 0.14637772
v -0.21969697 0.43631327 0.02516560
v -0.17424242 0.33025266 0.13122620
v -0.14393939 0.26964660 0.16152923
v 0.14393939 0.31510115 -0.14150107
v -0.11363636 0.40601024 -0.08089501
v -0.21969697 0.42116176 -0.05059198
v 0.06818182 0.25449509 -0.17180410
v -0.15909091 0.31510115 -0.14150107
v 0.00757576 0.33025266 -0.14150107
v -0.18939394 0.36055569 -0.11119804
v 0.05303030 0.28479812 0.16152923
v 0.15909091 0.33025266 0.13122620
v -0.02272727 0.31510115 0.14637772
v -0.21969697 0.42116176 0.05546863
v -0.11363636 0.43631327 0.02516560
v -0.12878788 0.39085872 0.10092317
v -0.21969697 0.31510115 0.13122620
v -0.15909091 0.25449509 0.16152923
f 12 7 1
f 12 2 6
f 13 12 1
f 13 2 12
f 14 13 1
f 15 8 11
f 20 11 8
f 20 8 5
f 20 9 19
f 21 7 12
f 21 17 7
f 21 3 17
f 22 8 2
f 22 2 13
f 22 14 8
f 22 13 14
f 23 14 1
f 24 9 20
f 25 5 8
f 26 6 2
f 26 2 8
f 26 8 15
f 27 15 11
f 27 11 4
f 27 26 15
f 29 17 3
f 30 6 26
f 32 4 11
f 33 21 18
f 33 3 21
f 33 18 31
f 34 21 12
f 34 12 6
f 34 18 21
f 34 6 30
f 34 30 10
f 34 10 18
f 35 23 1
f 35 1 7
f 36 24 20
f 36 20 5
f 36 5 25
f 37 7 17
f 38 25 8
f 38 8 14
f 39 10 30
f 39 27 4
f 40 16 28
f 40 3 33
f 40 33 31
f 41 19 9
f 41 32 19
f 41 28 16
f 42 29 3
f 42 3 9
f 43 30 26
f 43 26 27
f 44 20 19
f 44 19 32
f 44 32 11
f 44 11 20
f 46 38 14
f 47 9 24
f 47 42 9
f 49 48 36
f 49 38 48
f 50 18 10
f 50 10 39
f 50 31 18
f 51 40 28
f 51 28 3
f 51 3 40
f 52 41 9
f 52 28 41
f 52 9 3
f 52 3 28
f 53 39 30
f 53 30 43
f 53 43 27
f 53 27 39
f 54 4 32
f 54 39 4
f 55 45 16
f 55 16 40
f 55 40 31
f 55 31 50
f 55 50 39
f 55 54 45
f 55 39 54
f 56 41 16
f 56 16 45
f 56 45 54
f 56 54 32
f 56 32 41
f 57 46 14
f 57 14 23
f 58 7 37
f 58 37 46
f 58 35 7
f 58 23 35
f 58 57 23
f 58 46 57
f 59 46 37
f 59 38 46
f 59 48 38
f 60 47 24
f 61 29 42
f 61 42 47
f 61 17 29
f 61 47 60
f 61 60 37
f 61 37 17
f 62 24 48
f 62 60 24
f 62 37 60
f 62 59 37
f 62 48 59
f 63 48 24
f 63 24 36
f 63 36 48
f 64 49 36
f 64 36 25
f 64 25 38
f 64 38 49

