# https://github.com/mikedh/trimesh
v 0.00685254 -0.09212539 0.21806242
v 0.00757576 -0.21520188 0.19183226
v 0.00757576 0.02722236 -0.11119804
v -0.20454545 0.02722236 -0.11119804
v -0.20454545 -0.10914128 0.19183226
v -0.20454545 -0.23035340 -0.09604653
v -0.12744216 0.02721746 0.20126383
v 0.00757576 0.02722236 0.19183226
v -0.03787879 -0.13944431 0.22213529
v 0.00757576 -0.23035340 -0.09604653
v -0.20454545 -0.09398976 -0.11119804
v -0.18939394 -0.23035340 0.16152923
v -0.20454545 0.02722236 0.19183226
v 0.00757576 -0.12429279 0.22213529
v 0.00757576 -0.09398976 -0.11119804
v -0.20454545 -0.21520188 0.16152923
v -0.14393939 -0.20005037 0.19183226
v 0.00649916 -0.22683087 0.16654975
v -0.17424242 -0.00308067 0.20698378
v -0.00757576 -0.13944431 0.22213529
v -0.20322531 -0.22721126 0.13727675
v -0.17424242 -0.10914128 0.20698378
v -0.15909091 -0.23035340 0.17668075
v -0.09848485 -0.21520188 0.19183226
v -0.08333333 -0.10914128 0.22213529
v -0.17424242 -0.21520188 0.17668075
v -0.14393939 -0.13944431 0.20698378
v -0.15909091 -0.18489885 0.19183226
f 6 5 4
f 8 2 3
f 8 7 1
f 8 3 4
f 10 3 2
f 11 6 4
f 11 4 3
f 11 10 6
f 12 6 10
f 13 4 5
f 13 8 4
f 13 7 8
f 14 8 1
f 14 2 8
f 15 11 3
f 15 3 10
f 15 10 11
f 16 5 6
f 18 10 2
f 19 7 13
f 19 1 7
f 19 13 5
f 20 14 9
f 20 9 2
f 20 2 14
f 21 16 6
f 21 6 12
f 21 12 16
f 22 5 16
f 22 19 5
f 23 16 12
f 23 18 2
f 23 12 10
f 23 10 18
f 24 2 9
f 24 9 17
f 24 23 2
f 24 17 23
f 25 9 14
f 25 14 1
f 25 1 19
f 25 19 22
f 26 22 16
f 26 16 23
f 27 25 22
f 27 22 17
f 27 17 9
f 27 9 25
f 28 17 22
f 28 22 26
f 28 26 23
f 28 23 17

