# https://github.com/mikedh/trimesh
v 0.23484848 -0.07883824 0.17668075
v 0.32436213 -0.21501508 0.09960471
v 0.32841044 -0.07937827 0.10598396
v 0.21969697 -0.07883824 0.10092317
v 0.21969697 -0.32126249 0.13122620
v 0.21525107 -0.07540224 0.16831442
v 0.29545455 -0.20005037 0.14637772
v 0.22017284 -0.32598862 0.11087715
v 0.29545455 -0.07883824 0.14637772
v 0.32223520 -0.07812122 0.10935515
v 0.21969697 -0.29095946 0.14637772
v 0.26515152 -0.32126249 0.13122620
v 0.21464810 -0.10712848 0.16317240
v 0.23484848 -0.10914128 0.17668075
v 0.28030303 -0.24550491 0.14637772
v 0.26554277 -0.32514823 0.10910714
v 0.21623036 -0.21257469 0.14726863
v 0.23484848 -0.21520188 0.16152923
v 0.25000000 -0.20005037 0.16152923
v 0.23484848 -0.29095946 0.14637772
f 3 2 4
f 7 2 3
f 8 4 2
f 9 6 1
f 9 7 3
f 9 1 7
f 10 3 4
f 10 4 6
f 10 9 3
f 10 6 9
f 12 5 8
f 12 11 5
f 13 6 4
f 13 11 6
f 14 1 6
f 14 6 11
f 14 7 1
f 15 12 2
f 15 2 7
f 16 12 8
f 16 8 2
f 16 2 12
f 17 13 4
f 17 4 8
f 17 8 5
f 17 5 11
f 17 11 13
f 18 14 11
f 19 18 15
f 19 14 18
f 19 15 7
f 19 7 14
f 20 18 11
f 20 11 12
f 20 12 15
f 20 15 18

