# https://github.com/mikedh/trimesh
v 0.17424242 0.14843448 0.19183226
v 0.28030303 0.05752539 0.16152923
v 0.28030303 0.23934357 0.14637772
v 0.20454545 0.19388903 -0.17180410
v 0.15909091 0.02722236 -0.12634956
v 0.28030303 0.23934357 -0.14150107
v 0.15909091 0.23934357 0.16152923
v 0.26515152 0.04237388 0.17668075
v 0.23484848 0.07267691 -0.17180410
v 0.18939394 0.19388903 0.17668075
v 0.15582707 0.02489956 0.19530983
v 0.15909091 0.23934357 -0.12634956
v 0.25000000 0.20904054 0.16152923
v 0.20200315 0.07207448 -0.16564240
v 0.26515152 0.19388903 -0.15665259
v 0.28030303 0.02722236 -0.11119804
v 0.17424242 0.23934357 0.16152923
v 0.15909091 0.14843448 0.19183226
v 0.17424242 0.04237388 0.20698378
v 0.15909091 0.19388903 -0.14150107
v 0.20454545 0.23934357 -0.15665259
v 0.21969697 0.19388903 -0.17180410
v 0.27416107 0.02754733 0.15207511
v 0.23484848 0.02722236 -0.12634956
v 0.27821346 0.06999696 -0.13589962
v 0.21969697 0.22419206 0.16152923
v 0.17424242 0.02722236 0.20698378
v 0.15909091 0.04237388 0.20698378
v 0.15909091 0.07267691 -0.14150107
v 0.23484848 0.10297994 -0.17180410
v 0.25000000 0.22419206 -0.15665259
v 0.26515152 0.02722236 0.17668075
v 0.21969697 0.23934357 -0.15665259
f 6 3 2
f 7 3 6
f 8 2 3
f 12 11 7
f 12 7 6
f 13 8 3
f 13 10 1
f 14 9 5
f 14 4 9
f 16 6 2
f 17 3 7
f 17 7 10
f 18 7 11
f 18 10 7
f 18 1 10
f 19 1 18
f 19 13 1
f 19 8 13
f 20 12 4
f 20 11 12
f 21 12 6
f 21 4 12
f 22 9 4
f 22 4 21
f 23 16 2
f 24 5 9
f 24 9 16
f 24 16 11
f 24 11 5
f 25 15 6
f 25 6 16
f 25 16 9
f 25 9 15
f 26 17 10
f 26 3 17
f 26 13 3
f 26 10 13
f 27 8 19
f 28 19 18
f 28 18 11
f 28 27 19
f 28 11 27
f 29 5 11
f 29 11 20
f 29 14 5
f 29 20 4
f 29 4 14
f 30 22 15
f 30 15 9
f 30 9 22
f 31 6 15
f 31 15 22
f 32 23 2
f 32 2 8
f 32 8 27
f 32 27 11
f 32 11 16
f 32 16 23
f 33 31 22
f 33 22 21
f 33 21 6
f 33 6 31

