# https://github.com/mikedh/trimesh
v 0.31060606 0.25449509 0.13122620
v 0.40151515 0.02722236 0.02516560
v 0.39615343 0.37807262 -0.05803431
v 0.28030303 0.22419206 -0.14150107
v 0.27416107 0.02754733 0.15207511
v 0.32575758 0.07267691 -0.12634956
v 0.28010490 0.37177528 -0.07378284
v 0.40151515 0.37570721 0.07062014
v 0.40151515 0.26964660 -0.06574350
v 0.28030303 0.02722236 -0.09604653
v 0.31060606 0.34540418 -0.11119804
v 0.28030303 0.31510115 0.11607469
v 0.27821346 0.06999696 -0.13589962
v 0.38636364 0.37570721 0.08577166
v 0.34161000 0.02743676 -0.09685896
v 0.37121212 0.28479812 -0.09604653
v 0.29545455 0.02722236 0.16152923
v 0.35606061 0.36055569 -0.09604653
v 0.28030303 0.34540418 -0.11119804
v 0.27323926 0.03884103 0.15215116
v 0.29545455 0.22419206 -0.14150107
v 0.28258711 0.36576594 0.07639585
v 0.31060606 0.31510115 0.11607469
v 0.39396566 0.02753212 0.00604179
v 0.37121212 0.26964660 -0.09604653
v 0.37121212 0.02722236 0.08577166
v 0.37121212 0.19388903 0.10092317
v 0.29545455 0.04237388 0.16152923
v 0.38019604 0.37704544 -0.06881748
v 0.32575758 0.22419206 -0.12634956
v 0.29545455 0.26964660 0.13122620
v 0.40151515 0.26964660 0.07062014
v 0.37121212 0.23934357 0.10092317
v 0.28030303 0.26964660 0.13122620
v 0.40151515 0.17873751 0.05546863
v 0.38636364 0.19388903 0.08577166
f 9 8 2
f 9 3 8
f 14 8 3
f 14 3 7
f 15 6 9
f 15 2 10
f 15 13 6
f 15 10 13
f 16 3 9
f 17 10 2
f 17 5 10
f 18 3 16
f 19 11 4
f 19 18 11
f 19 7 18
f 19 4 13
f 20 12 7
f 20 5 17
f 20 7 19
f 20 19 13
f 20 13 10
f 20 10 5
f 21 13 4
f 21 6 13
f 21 4 11
f 21 11 18
f 22 14 7
f 22 7 12
f 22 12 14
f 23 14 12
f 24 15 9
f 24 9 2
f 24 2 15
f 25 16 9
f 25 9 6
f 25 6 16
f 26 17 2
f 28 14 1
f 28 20 17
f 28 17 27
f 29 18 7
f 29 7 3
f 29 3 18
f 30 16 6
f 30 6 21
f 30 21 18
f 30 18 16
f 31 23 12
f 31 1 14
f 31 14 23
f 31 28 1
f 32 2 8
f 32 8 27
f 33 28 27
f 33 14 28
f 33 27 8
f 33 8 14
f 34 31 12
f 34 12 20
f 34 20 28
f 34 28 31
f 35 32 26
f 35 26 2
f 35 2 32
f 36 32 27
f 36 26 32
f 36 27 17
f 36 17 26

