# https://github.com/mikedh/trimesh
v 0.21960005 -0.21512843 0.14597902
v 0.26515152 -0.36671703 0.10092317
v 0.26515152 -0.21520188 0.01001408
v 0.00757576 -0.21520188 0.01001408
v 0.00757576 -0.39702006 0.07062014
v 0.26515152 -0.21520188 0.10092317
v 0.14393939 -0.29095946 0.14637772
v 0.26598701 -0.43918888 0.00629681
v 0.26515152 -0.35156552 0.11607469
v 0.00757576 -0.21520188 0.10092317
v 0.20454545 -0.41217158 0.07062014
v 0.00728204 -0.40892070 0.00827751
v 0.08494359 -0.42077654 -0.00024132
v 0.21969697 -0.29095946 0.14637772
v 0.08333333 -0.38186855 0.10092317
v 0.14609760 -0.21795408 0.15404954
v 0.00757576 -0.30611097 0.10092317
v 0.26515152 -0.44247461 0.02516560
v 0.21969697 -0.39702006 0.08577166
v 0.00657199 -0.37075885 0.07983703
v 0.22177673 -0.43521563 -0.00027372
v 0.08333333 -0.39702006 0.08577166
v 0.08333333 -0.42732309 0.02516560
v 0.12878788 -0.38186855 0.10092317
v 0.00757576 -0.41217158 0.04031711
v 0.21969697 -0.44247461 0.02516560
v 0.12878788 -0.42732309 0.04031711
v 0.18939394 -0.41217158 0.07062014
f 1 3 4
f 6 3 1
f 8 3 6
f 9 6 1
f 9 8 6
f 9 2 8
f 10 1 4
f 13 4 3
f 13 12 4
f 14 9 1
f 14 7 9
f 15 9 7
f 16 1 10
f 16 14 1
f 16 7 14
f 17 16 10
f 17 7 16
f 17 15 7
f 18 8 2
f 19 2 9
f 19 18 2
f 19 11 18
f 20 10 4
f 20 4 12
f 20 17 10
f 20 5 15
f 20 15 17
f 21 13 3
f 21 3 8
f 22 15 5
f 22 19 15
f 22 11 19
f 23 12 13
f 24 19 9
f 24 9 15
f 24 15 19
f 25 20 12
f 25 5 20
f 25 12 23
f 26 21 8
f 26 8 18
f 26 18 11
f 26 23 13
f 26 13 21
f 27 26 22
f 27 22 5
f 27 5 25
f 27 25 23
f 27 23 26
f 28 26 11
f 28 11 22
f 28 22 26

