# https://github.com/mikedh/trimesh
v 0.23484848 0.02722236 -0.11119804
v 0.23484848 -0.21520188 -0.11119804
v 0.21969697 -0.06368673 -0.20210713
v -0.02272727 0.01207085 -0.24756168
v -0.20454545 -0.15459582 -0.09604653
v 0.00757576 -0.27580794 -0.17180410
v 0.20454545 0.02722236 -0.20210713
v 0.23484848 -0.07883824 -0.18695562
v 0.00757576 -0.09398976 -0.09604653
v -0.12878788 0.02722236 -0.11119804
v 0.20454545 -0.20005037 -0.17180410
v -0.20454545 -0.23035340 -0.15665259
v -0.09848485 -0.27580794 -0.11119804
v 0.06818182 -0.00308067 -0.24756168
v 0.23484848 0.02722236 -0.18695562
v 0.00757576 -0.23035340 -0.09604653
v -0.08333333 0.02722236 -0.23241016
v -0.12878788 -0.09398976 -0.09604653
v 0.23176095 -0.21286190 -0.14395110
v 0.23484848 -0.15459582 -0.17180410
v -0.09848485 -0.18489885 -0.20210713
v 0.00757576 -0.27580794 -0.11119804
v -0.09848485 -0.27580794 -0.17180410
v -0.20454545 -0.23035340 -0.09604653
v 0.14393939 -0.01823218 -0.23241016
v 0.03787879 0.02722236 -0.24756168
v 0.12878788 -0.07883824 -0.23241016
v 0.21969697 -0.01823218 -0.20210713
v -0.20454545 -0.15459582 -0.17180410
v 0.17424242 -0.21520188 -0.17180410
v 0.21969697 -0.18489885 -0.17180410
v -0.02272727 -0.03338370 -0.24756168
v -0.15909091 -0.26065643 -0.11119804
v -0.14393939 -0.21520188 -0.18695562
v 0.15909091 0.02722236 -0.21725865
v -0.00757576 0.02722236 -0.24756168
v 0.00757576 -0.09398976 -0.23241016
v 0.14393939 -0.06368673 -0.23241016
v -0.12516315 0.02609488 -0.20259658
v 0.14393939 -0.20005037 -0.18695562
v 0.06818182 -0.03338370 -0.24756168
v -0.15909091 -0.26065643 -0.15665259
v -0.15909091 -0.24550491 -0.17180410
v -0.17424242 -0.16974734 -0.18695562
v -0.12878788 -0.10914128 -0.21725865
v 0.02272727 -0.13944431 -0.21725865
v -0.02272727 -0.09398976 -0.23241016
v -0.20454545 -0.16974734 -0.17180410
v -0.15909091 -0.20005037 -0.18695562
v -0.06818182 -0.07883824 -0.23241016
v -0.12878788 -0.16974734 -0.20210713
v -0.08333333 -0.06368673 -0.23241016
v -0.17424242 -0.23035340 -0.17180410
v -0.06818182 -0.13944431 -0.21725865
f 8 1 2
f 9 2 1
f 10 1 7
f 10 9 1
f 15 7 1
f 15 1 8
f 15 8 3
f 16 9 5
f 16 2 9
f 17 10 7
f 18 10 5
f 18 5 9
f 18 9 10
f 19 2 6
f 20 3 8
f 20 8 2
f 20 2 19
f 22 13 6
f 22 6 2
f 22 16 13
f 22 2 16
f 23 6 13
f 24 5 12
f 24 16 5
f 24 13 16
f 26 14 4
f 26 17 7
f 28 15 3
f 28 7 15
f 28 25 7
f 28 3 25
f 29 12 5
f 29 5 10
f 30 19 6
f 30 11 19
f 31 3 20
f 31 11 27
f 31 20 19
f 31 19 11
f 32 4 14
f 32 17 4
f 33 23 13
f 33 24 12
f 33 13 24
f 34 21 23
f 35 26 7
f 35 7 25
f 35 25 14
f 35 14 26
f 36 26 4
f 36 4 17
f 36 17 26
f 37 6 23
f 38 14 25
f 38 25 3
f 38 31 27
f 38 3 31
f 39 29 10
f 39 10 17
f 39 17 29
f 40 27 11
f 40 11 30
f 40 30 6
f 40 6 27
f 41 32 14
f 41 37 32
f 41 27 37
f 41 38 27
f 41 14 38
f 42 33 12
f 42 23 33
f 43 34 23
f 43 42 12
f 43 23 42
f 45 29 17
f 46 37 27
f 46 27 6
f 46 6 37
f 47 32 37
f 47 37 23
f 48 12 29
f 48 45 44
f 48 29 45
f 49 48 44
f 49 34 43
f 49 45 34
f 49 44 45
f 50 32 47
f 51 45 21
f 51 21 34
f 51 34 45
f 52 45 17
f 52 17 32
f 52 50 45
f 52 32 50
f 53 49 43
f 53 43 12
f 53 12 48
f 53 48 49
f 54 50 47
f 54 21 45
f 54 45 50
f 54 47 23
f 54 23 21

