# https://github.com/mikedh/trimesh
v 0.00757576 -0.23035340 0.10092317
v 0.08494359 -0.42077654 -0.00024132
v 0.00757576 -0.23035340 -0.06574350
v -0.23484848 -0.23035340 -0.06574350
v -0.23484848 -0.38186855 0.08577166
v 0.08333333 -0.41217158 -0.05059198
v 0.00832222 -0.32965302 0.11270563
v -0.23484848 -0.23035340 0.10092317
v 0.00757576 -0.32126249 -0.06574350
v -0.23484848 -0.42732309 -0.02028895
v 0.08333333 -0.32126249 0.01001408
v 0.00757576 -0.39702006 0.07062014
v -0.23756852 -0.42421327 -0.00024937
v -0.15909460 -0.30581188 0.11562821
v -0.23484848 -0.32126249 -0.06574350
v 0.08333333 -0.42732309 -0.02028895
v 0.08333333 -0.32126249 -0.05059198
v -0.15909091 -0.33641400 0.11607469
v -0.23484848 -0.32126249 0.11607469
v -0.06818182 -0.42732309 0.02516560
v -0.15909091 -0.39702006 -0.05059198
v -0.23484848 -0.41217158 -0.03544047
v -0.21969697 -0.33641400 0.11607469
v -0.08333333 -0.39702006 0.07062014
v -0.00757576 -0.42732309 0.02516560
v -0.06818182 -0.41217158 -0.05059198
f 1 3 4
f 8 1 4
f 9 4 3
f 9 3 6
f 11 7 2
f 11 1 7
f 11 3 1
f 12 2 7
f 13 8 4
f 14 7 1
f 14 1 8
f 15 9 6
f 15 4 9
f 15 13 4
f 16 10 6
f 16 6 2
f 17 11 2
f 17 2 6
f 17 6 3
f 17 3 11
f 18 12 7
f 18 5 12
f 18 7 14
f 19 13 5
f 19 8 13
f 19 18 14
f 19 14 8
f 20 5 13
f 20 13 10
f 20 10 16
f 22 10 13
f 22 13 15
f 22 15 21
f 23 19 5
f 23 5 18
f 23 18 19
f 24 20 12
f 24 12 5
f 24 5 20
f 25 2 12
f 25 12 20
f 25 20 16
f 25 16 2
f 26 21 15
f 26 15 6
f 26 22 21
f 26 6 10
f 26 10 22

