# https://github.com/mikedh/trimesh
v -0.21969697 0.31510115 0.13122620
v -0.21945846 0.26916678 0.12943576
v -0.21823227 0.26672673 -0.13063748
v -0.25000000 0.28479812 -0.14150107
v -0.34090909 0.33025266 0.10092317
v -0.21969697 0.45146479 -0.00513744
v -0.26515152 0.29994963 0.13122620
v -0.33638520 0.26727771 -0.08546203
v -0.21969697 0.37570721 -0.09604653
v -0.34090909 0.45146479 0.02516560
v -0.21969697 0.42116176 0.05546863
v -0.31060606 0.26964660 0.11607469
v -0.29545455 0.39085872 0.08577166
v -0.25920874 0.26642725 0.11870910
v -0.25000000 0.26964660 -0.14150107
v -0.21969697 0.42116176 -0.05059198
v -0.21969697 0.28479812 -0.14150107
v -0.34090909 0.33025266 -0.09604653
v -0.21969697 0.39085872 0.08577166
v -0.21969697 0.45146479 0.01001408
v -0.31060606 0.29994963 0.11607469
v -0.33441441 0.27052397 0.08764932
v -0.23484848 0.31510115 0.13122620
v -0.34090909 0.37570721 0.08577166
v -0.34090909 0.45146479 -0.02028895
v -0.34090909 0.42116176 -0.06574350
v -0.26515152 0.43631327 0.04031711
v -0.28030303 0.45146479 -0.02028895
v -0.26515152 0.37570721 -0.09604653
v -0.32575758 0.36055569 -0.09604653
v -0.28030303 0.42116176 -0.06574350
v -0.32575758 0.45146479 0.02516560
v -0.23484848 0.43631327 -0.03544047
v -0.26515152 0.31510115 -0.12634956
v -0.34090909 0.39085872 -0.08089501
f 7 2 1
f 12 2 7
f 14 8 3
f 14 3 2
f 14 2 12
f 15 3 8
f 16 6 3
f 16 3 9
f 17 9 3
f 17 15 4
f 17 3 15
f 18 8 5
f 18 5 10
f 18 15 8
f 18 4 15
f 19 1 2
f 19 2 3
f 19 3 11
f 19 13 1
f 19 11 13
f 20 11 3
f 20 3 6
f 20 6 10
f 21 12 7
f 21 7 5
f 21 5 12
f 22 12 5
f 22 5 8
f 22 14 12
f 22 8 14
f 23 7 1
f 23 1 13
f 24 5 7
f 24 23 13
f 24 7 23
f 24 13 10
f 24 10 5
f 25 10 6
f 25 18 10
f 26 18 25
f 27 11 20
f 27 13 11
f 27 10 13
f 28 25 6
f 28 26 25
f 29 26 9
f 30 4 18
f 31 16 9
f 31 9 26
f 31 26 28
f 32 27 20
f 32 20 10
f 32 10 27
f 33 28 6
f 33 6 16
f 33 31 28
f 33 16 31
f 34 26 29
f 34 4 30
f 34 29 9
f 34 17 4
f 34 9 17
f 35 30 18
f 35 18 26
f 35 34 30
f 35 26 34

