# https://github.com/mikedh/trimesh
v -0.21969697 0.19388903 0.16152923
v -0.21673867 0.02698009 0.17020017
v -0.21560673 0.14512360 -0.15773631
v -0.23484848 0.14843448 -0.17180410
v -0.31060606 0.16358600 0.13122620
v -0.21885508 0.02691831 -0.17022617
v -0.21823227 0.26672673 -0.13063748
v -0.21444064 0.08651540 0.16378630
v -0.25000000 0.04237388 0.17668075
v -0.31387450 0.02674859 -0.11708976
v -0.31060606 0.26964660 0.11607469
v -0.21969697 0.26964660 0.14637772
v -0.23484848 0.08782842 0.17668075
v -0.25000000 0.02722236 -0.17180410
v -0.31060606 0.23934357 -0.12634956
v -0.30514863 0.02790586 0.12198069
v -0.25000000 0.17873751 0.16152923
v -0.25000000 0.26964660 -0.14150107
v -0.25000000 0.02722236 0.17668075
v -0.31060606 0.16358600 -0.12634956
v -0.25000000 0.07267691 -0.17180410
v -0.29545455 0.23934357 0.13122620
v -0.23484848 0.19388903 0.16152923
v -0.29545455 0.26964660 -0.12634956
v -0.28030303 0.02722236 0.16152923
v -0.28030303 0.05752539 0.16152923
v -0.23484848 0.26964660 0.14637772
v -0.30531949 0.26687834 -0.09882912
v -0.26515152 0.25449509 -0.14150107
v -0.29545455 0.11813145 0.14637772
v -0.28030303 0.26964660 0.13122620
v -0.28030303 0.22419206 -0.14150107
f 6 4 3
f 7 3 4
f 8 1 2
f 8 3 7
f 8 6 3
f 8 2 6
f 10 6 2
f 11 10 5
f 12 8 7
f 12 1 8
f 13 2 1
f 14 4 6
f 14 6 10
f 15 10 11
f 16 5 10
f 17 9 13
f 18 12 7
f 18 11 12
f 18 7 4
f 19 13 9
f 19 2 13
f 20 15 14
f 20 14 10
f 20 10 15
f 21 15 4
f 21 4 14
f 21 14 15
f 22 11 5
f 23 17 13
f 23 13 1
f 23 1 12
f 24 11 18
f 25 19 9
f 25 5 16
f 25 16 10
f 25 10 2
f 25 2 19
f 26 9 17
f 26 17 22
f 26 25 9
f 26 5 25
f 27 12 11
f 27 23 12
f 27 17 23
f 28 24 15
f 28 15 11
f 28 11 24
f 29 24 18
f 29 18 4
f 29 15 24
f 30 26 22
f 30 22 5
f 30 5 26
f 31 22 17
f 31 17 27
f 31 27 11
f 31 11 22
f 32 29 4
f 32 4 15
f 32 15 29

