# https://github.com/mikedh/trimesh
v 0.11363636 -0.07883824 0.22213529
v 0.21969697 -0.23035340 0.16152923
v 0.21969697 -0.07883824 0.13122620
v 0.00757576 -0.07883824 0.13122620
v 0.00699363 -0.21329722 0.17120283
v 0.12878788 -0.21520188 0.13122620
v 0.02044360 -0.07295122 0.22442608
v 0.20454545 -0.07883824 0.19183226
v 0.02272727 -0.09398976 0.23728681
v 0.21897926 -0.22980948 0.14342528
v 0.00757576 -0.21520188 0.13122620
v 0.21525107 -0.07540224 0.16831442
v 0.00757576 -0.09398976 0.23728681
v 0.14393939 -0.12429279 0.20698378
v 0.08333333 -0.20005037 0.19183226
v 0.22296974 -0.21768218 0.14468942
v 0.00606597 -0.19511049 0.17762490
v 0.15772442 -0.24376233 0.14152023
v 0.21969697 -0.15459582 0.17668075
v 0.00934321 -0.07544428 0.22463252
v 0.15909091 -0.09398976 0.20698378
v 0.09848485 -0.10914128 0.22213529
v 0.15909091 -0.24550491 0.16152923
v 0.17424242 -0.15459582 0.19183226
v 0.20454545 -0.09398976 0.19183226
v 0.12878788 -0.18489885 0.19183226
v 0.11363636 -0.09398976 0.22213529
v 0.12932161 -0.24625894 0.14845460
f 6 4 3
f 8 7 1
f 9 1 7
f 10 6 3
f 11 4 6
f 12 3 4
f 12 4 7
f 12 7 8
f 13 9 7
f 15 13 5
f 15 9 13
f 16 10 3
f 16 2 10
f 17 11 5
f 17 4 11
f 17 13 4
f 17 5 13
f 18 11 6
f 18 6 10
f 19 12 8
f 19 2 16
f 19 16 3
f 19 3 12
f 20 13 7
f 20 7 4
f 20 4 13
f 21 8 1
f 22 2 14
f 23 18 10
f 23 10 2
f 23 2 15
f 23 15 5
f 24 14 2
f 24 2 19
f 24 21 14
f 24 19 21
f 25 21 19
f 25 19 8
f 25 8 21
f 26 15 2
f 26 2 22
f 26 22 9
f 26 9 15
f 27 1 9
f 27 9 22
f 27 21 1
f 27 22 14
f 27 14 21
f 28 23 5
f 28 5 11
f 28 11 18
f 28 18 23

