# https://github.com/mikedh/trimesh
v -0.15909091 -0.32126249 -0.03544047
v -0.15891111 -0.38799614 -0.03068770
v -0.15710653 -0.22837764 -0.15286493
v -0.18939394 -0.23035340 -0.15665259
v -0.23761831 -0.39080590 -0.02981897
v -0.15909091 -0.36671703 -0.09604653
v -0.23484848 -0.23035340 -0.06574350
v -0.15909091 -0.39702006 -0.05059198
v -0.15909091 -0.26065643 -0.15665259
v -0.23484848 -0.36671703 -0.09604653
v -0.15909091 -0.23035340 -0.06574350
v -0.23351887 -0.22793462 -0.13214461
v -0.23484848 -0.32126249 -0.03544047
v -0.15909091 -0.38186855 -0.08089501
v -0.23484848 -0.26065643 -0.14150107
v -0.23484848 -0.39702006 -0.05059198
v -0.17424242 -0.26065643 -0.15665259
v -0.23484848 -0.33641400 -0.11119804
v -0.23484848 -0.38186855 -0.08089501
v -0.18939394 -0.24550491 -0.15665259
f 1 2 3
f 5 2 1
f 8 3 2
f 8 2 5
f 9 4 3
f 9 3 6
f 10 9 6
f 11 7 1
f 11 1 3
f 12 3 4
f 12 11 3
f 12 7 11
f 13 7 5
f 13 5 1
f 13 1 7
f 14 6 3
f 14 3 8
f 14 10 6
f 15 12 4
f 15 5 7
f 15 7 12
f 16 8 5
f 16 14 8
f 17 4 9
f 17 9 10
f 18 10 5
f 18 5 15
f 18 17 10
f 18 15 17
f 19 16 5
f 19 5 10
f 19 10 14
f 19 14 16
f 20 17 15
f 20 15 4
f 20 4 17

