# https://github.com/mikedh/trimesh
v 0.44696970 0.43631327 0.05546863
v 0.50757576 0.43631327 0.01001408
v 0.44696970 0.49691933 -0.00513744
v 0.40151515 0.42116176 -0.06574350
v 0.41666667 0.26964660 0.04031711
v 0.46212121 0.45146479 -0.05059198
v 0.40151515 0.43631327 0.05546863
v 0.49242424 0.48176782 0.02516560
v 0.41666667 0.28479812 0.05546863
v 0.41666667 0.45146479 -0.05059198
v 0.41666667 0.29994963 -0.06574350
v 0.39295229 0.28894507 0.05020444
v 0.44696970 0.40601024 0.05546863
v 0.43181818 0.46661630 0.04031711
v 0.49940730 0.49550491 -0.00027511
v 0.46212121 0.31510115 0.01001408
v 0.40151515 0.48176782 -0.00513744
v 0.43181818 0.42116176 -0.06574350
v 0.49242424 0.42116176 -0.02028895
v 0.39554688 0.27097870 0.03651898
v 0.49242424 0.45146479 0.02516560
v 0.44696970 0.33025266 0.04031711
v 0.46212121 0.46661630 0.04031711
v 0.44696970 0.49691933 0.01001408
v 0.44696970 0.28479812 0.01001408
v 0.41666667 0.46661630 -0.03544047
v 0.40151515 0.48176782 0.01001408
v 0.39508130 0.29985953 -0.05696573
v 0.46212121 0.40601024 -0.05059198
v 0.46212121 0.33025266 -0.02028895
v 0.50757576 0.43631327 -0.00513744
v 0.41666667 0.26964660 -0.03544047
v 0.49242424 0.39085872 0.01001408
v 0.43181818 0.39085872 -0.06574350
v 0.46212121 0.36055569 -0.03544047
v 0.44696970 0.28479812 -0.00513744
v 0.39818490 0.27016648 -0.03340843
v 0.43181818 0.26964660 -0.02028895
v 0.49242424 0.39085872 -0.00513744
v 0.44696970 0.31510115 -0.03544047
v 0.46212121 0.31510115 -0.00513744
v 0.43181818 0.28479812 -0.03544047
f 9 1 7
f 10 6 4
f 10 3 6
f 12 9 7
f 13 8 1
f 13 1 9
f 14 7 1
f 15 6 3
f 15 8 2
f 17 10 4
f 18 11 4
f 18 4 6
f 20 5 9
f 20 9 12
f 21 13 2
f 21 2 8
f 21 8 13
f 22 13 9
f 22 2 13
f 22 9 16
f 23 14 1
f 23 1 8
f 24 3 17
f 24 15 3
f 24 8 15
f 24 23 8
f 24 14 23
f 25 16 9
f 25 9 5
f 26 17 3
f 26 3 10
f 26 10 17
f 27 7 14
f 27 24 17
f 27 14 24
f 27 17 12
f 27 12 7
f 28 17 4
f 28 12 17
f 28 20 12
f 28 4 11
f 29 18 6
f 31 15 2
f 31 6 15
f 31 29 6
f 31 19 29
f 33 22 16
f 33 2 22
f 33 31 2
f 34 29 11
f 34 11 18
f 34 18 29
f 35 29 19
f 35 11 29
f 35 19 31
f 36 16 25
f 37 32 5
f 37 5 20
f 37 20 28
f 37 28 11
f 37 11 32
f 38 25 5
f 38 5 32
f 38 36 25
f 39 31 33
f 39 35 31
f 39 33 16
f 40 11 35
f 40 39 30
f 40 35 39
f 41 36 30
f 41 30 39
f 41 39 16
f 41 16 36
f 42 11 40
f 42 38 32
f 42 32 11
f 42 36 38
f 42 40 30
f 42 30 36

