# https://github.com/mikedh/trimesh
v -0.02272727 0.07267691 0.23728681
v 0.00757576 -0.09398976 0.23728681
v 0.00757576 0.02722236 0.19183226
v -0.13081986 0.02722976 0.20046916
v -0.11363636 -0.09398976 0.22213529
v -0.02272727 0.07267691 0.19183226
v 0.00604357 0.02494717 0.22939781
v -0.05303030 -0.06368673 0.23728681
v -0.11363636 0.02722236 0.22213529
v 0.00757576 -0.09398976 0.19183226
v -0.08577344 0.07658906 0.20589590
v -0.00757576 -0.09398976 0.23728681
v -0.05303030 0.02722236 0.23728681
v -0.12987987 -0.09608668 0.19965054
v -0.03787879 0.07267691 0.23728681
v -0.03787879 -0.07883824 0.23728681
f 6 1 3
f 7 1 2
f 7 2 3
f 7 3 1
f 8 2 1
f 9 4 5
f 9 5 8
f 10 3 2
f 10 6 3
f 11 6 4
f 11 1 6
f 11 4 9
f 12 2 8
f 13 9 8
f 13 8 1
f 14 10 2
f 14 5 4
f 14 4 6
f 14 6 10
f 14 12 5
f 14 2 12
f 15 11 9
f 15 1 11
f 15 13 1
f 15 9 13
f 16 12 8
f 16 8 5
f 16 5 12

