# https://github.com/mikedh/trimesh
v -0.20418011 0.02705504 0.17584096
v -0.20454545 -0.21520188 0.16152923
v -0.20454545 0.02722236 0.01001408
v -0.40076404 0.02729884 0.00960869
v -0.37121212 -0.15459582 0.10092317
v -0.25000000 0.02722236 0.17668075
v -0.20322531 -0.22721126 0.13727675
v -0.38636364 0.02722236 0.07062014
v -0.23484848 -0.10914128 0.17668075
v -0.20454545 -0.12429279 0.17668075
v -0.43181818 -0.23035340 0.04031711
v -0.32575758 0.02722236 0.13122620
v -0.28030303 -0.06368673 0.16152923
v -0.29545455 -0.23035340 0.13122620
v -0.21969697 -0.12429279 0.17668075
v -0.42453748 -0.17234669 -0.00022610
v -0.41666667 -0.03338370 0.02516560
v -0.38636364 -0.09398976 0.08577166
v -0.25000000 -0.03338370 0.17668075
v -0.28030303 0.02722236 0.16152923
v -0.21969697 -0.21520188 0.16152923
v -0.35606061 -0.23035340 0.10092317
v -0.20454545 -0.23035340 0.01001408
v -0.25000000 -0.23035340 0.14637772
v -0.29545455 -0.13944431 0.14637772
v -0.41169748 -0.03594325 -0.00023145
v -0.43181818 -0.21520188 0.04031711
v -0.40151515 0.02722236 0.04031711
v -0.37121212 -0.10914128 0.10092317
v -0.41666667 -0.23035340 0.05546863
v -0.43171581 -0.23036967 0.00997013
v -0.34090909 -0.20005037 0.11607469
v -0.43181818 -0.16974734 0.02516560
v -0.32575758 -0.12429279 0.13122620
f 6 1 3
f 6 3 4
f 7 3 1
f 10 7 1
f 10 2 7
f 10 1 6
f 10 6 9
f 12 4 8
f 15 10 9
f 15 2 10
f 18 11 5
f 18 12 8
f 19 13 9
f 19 9 6
f 19 6 13
f 20 13 6
f 20 5 13
f 20 6 4
f 20 4 12
f 21 9 14
f 21 15 9
f 21 2 15
f 23 3 7
f 24 7 2
f 24 21 14
f 24 2 21
f 24 23 7
f 25 14 9
f 25 9 13
f 26 4 3
f 26 23 16
f 26 3 23
f 26 17 4
f 27 18 8
f 27 11 18
f 28 8 4
f 28 4 17
f 28 27 8
f 28 17 27
f 29 18 5
f 29 12 18
f 29 20 12
f 29 5 20
f 30 22 5
f 30 5 11
f 31 16 23
f 31 14 22
f 31 30 11
f 31 22 30
f 31 24 14
f 31 23 24
f 32 22 14
f 32 14 25
f 32 5 22
f 32 25 13
f 33 26 16
f 33 17 26
f 33 16 31
f 33 27 17
f 33 31 11
f 33 11 27
f 34 32 13
f 34 13 5
f 34 5 32

