# https://github.com/mikedh/trimesh
v -0.20454545 0.02722236 -0.08089501
v -0.12878788 -0.15459582 -0.09604653
v -0.12878788 0.02722236 -0.11119804
v -0.14393939 0.02722236 -0.21725865
v -0.31060606 -0.23035340 -0.12634956
v -0.12516315 0.02609488 -0.20259658
v -0.25000000 0.16358600 -0.11119804
v -0.12878788 -0.09398976 -0.09604653
v -0.31060606 -0.23035340 -0.08089501
v -0.12878788 -0.15459582 -0.20210713
v -0.31060606 0.11813145 -0.14150107
v -0.24886223 0.16346680 -0.13939078
v -0.20454545 -0.23035340 -0.08089501
v -0.31060606 0.02722236 -0.08089501
v -0.18939394 -0.10914128 -0.20210713
v -0.12878788 -0.09398976 -0.21725865
v -0.31060606 0.16358600 -0.12634956
v -0.20377880 -0.22895872 -0.13610613
v -0.30883532 0.16288711 -0.10771754
v -0.15909091 -0.15459582 -0.20210713
v -0.26515152 0.01207085 -0.17180410
v -0.14393939 -0.09398976 -0.21725865
v -0.28030303 0.16358600 -0.14150107
v -0.28030303 -0.23035340 -0.14150107
v -0.18939394 0.02722236 -0.20210713
v -0.31060606 -0.12429279 -0.14150107
v -0.26515152 0.14843448 -0.15665259
v -0.20454545 -0.21520188 -0.15665259
v -0.28030303 0.10297994 -0.15665259
v -0.29545455 -0.01823218 -0.15665259
v -0.29545455 -0.18489885 -0.14150107
v -0.29545455 0.14843448 -0.14150107
v -0.21969697 -0.21520188 -0.15665259
v -0.26515152 -0.00308067 -0.17180410
v -0.28030303 -0.12429279 -0.15665259
v -0.29545455 0.01207085 -0.15665259
f 7 1 3
f 8 1 2
f 8 3 1
f 8 6 3
f 8 2 6
f 10 6 2
f 11 5 9
f 12 6 4
f 12 7 3
f 12 3 6
f 13 9 5
f 13 2 1
f 13 1 9
f 13 10 2
f 14 9 1
f 14 11 9
f 16 4 6
f 16 6 10
f 17 11 14
f 18 10 13
f 19 14 1
f 19 1 7
f 19 17 14
f 19 7 17
f 20 16 10
f 22 15 4
f 22 4 16
f 22 20 15
f 22 16 20
f 23 17 7
f 23 7 12
f 24 18 13
f 24 13 5
f 24 15 20
f 25 4 15
f 25 15 21
f 26 5 11
f 27 23 12
f 27 12 4
f 27 17 23
f 27 4 25
f 28 20 10
f 28 10 18
f 28 18 24
f 29 25 21
f 29 21 11
f 29 27 25
f 29 11 27
f 30 26 11
f 31 24 5
f 31 5 26
f 31 15 24
f 32 27 11
f 32 11 17
f 32 17 27
f 33 28 24
f 33 24 20
f 33 20 28
f 34 30 21
f 34 21 15
f 34 15 30
f 35 30 15
f 35 26 30
f 35 31 26
f 35 15 31
f 36 30 11
f 36 11 21
f 36 21 30

