# https://github.com/mikedh/trimesh
v 0.41666667 0.04237388 0.01001408
v 0.42434063 -0.21581904 -0.00026291
v 0.37121212 0.02722236 -0.09604653
v 0.25000000 0.01207085 -0.18695562
v 0.23484848 -0.21520188 0.01001408
v 0.32575758 -0.21520188 -0.12634956
v 0.23393921 0.02660511 -0.16907642
v 0.43181818 -0.09398976 -0.00513744
v 0.43181818 -0.09398976 0.01001408
v 0.32575758 -0.04853521 -0.14150107
v 0.23176095 -0.21286190 -0.14395110
v 0.40468365 -0.21619288 -0.02952336
v 0.28030303 0.02722236 -0.17180410
v 0.23484848 0.02722236 0.01001408
v 0.41666667 0.04237388 -0.00513744
v 0.28030303 -0.06368673 -0.17180410
v 0.37121212 -0.13944431 -0.09604653
v 0.26515152 -0.21520188 -0.15665259
v 0.23484848 -0.06368673 -0.18695562
v 0.32575758 0.02722236 -0.14150107
v 0.22936503 0.01118331 -0.17409102
v 0.40141933 0.04236373 -0.00025627
v 0.34090909 -0.12429279 -0.12634956
v 0.41666667 -0.20005037 -0.03544047
v 0.29545455 -0.13944431 -0.15665259
v 0.25000000 -0.06368673 -0.18695562
v 0.39343210 0.04166889 0.00585375
v 0.35606061 -0.13944431 -0.11119804
f 9 5 2
f 9 1 5
f 9 8 1
f 9 2 8
f 12 2 5
f 13 4 7
f 14 5 1
f 15 8 3
f 15 1 8
f 15 13 7
f 16 13 10
f 16 4 13
f 18 5 11
f 18 12 5
f 18 6 12
f 19 18 11
f 20 10 13
f 20 15 3
f 20 13 15
f 21 11 5
f 21 5 14
f 21 14 7
f 21 19 11
f 21 7 4
f 21 4 19
f 22 1 15
f 22 15 7
f 23 10 20
f 24 12 6
f 24 6 17
f 24 2 12
f 24 8 2
f 24 17 3
f 24 3 8
f 25 6 18
f 25 23 6
f 25 16 10
f 25 10 23
f 26 19 4
f 26 4 16
f 26 16 25
f 26 25 18
f 26 18 19
f 27 14 1
f 27 1 22
f 27 22 7
f 27 7 14
f 28 17 6
f 28 6 23
f 28 3 17
f 28 23 20
f 28 20 3

