# https://github.com/mikedh/trimesh
v -0.23489665 -0.23046803 0.13155823
v -0.23484848 -0.38186855 0.08577166
v -0.23351887 -0.22793462 -0.13214461
v -0.26515152 -0.23035340 -0.14150107
v -0.50757576 -0.47277764 0.01001408
v -0.40151515 -0.21520188 0.07062014
v -0.23268256 -0.27067400 0.11768310
v -0.38636364 -0.39702006 0.08577166
v -0.25000000 -0.44247461 -0.02028895
v -0.38496349 -0.21561677 0.05405458
v -0.44696970 -0.23035340 -0.02028895
v -0.23484848 -0.32126249 0.11607469
v -0.23484848 -0.44247461 -0.00513744
v -0.37121212 -0.47277764 0.04031711
v -0.44696970 -0.35156552 0.05546863
v -0.32575758 -0.23035340 0.11607469
v -0.37121212 -0.44247461 -0.06574350
v -0.31060606 -0.23035340 -0.12634956
v -0.44696970 -0.23035340 0.02516560
v -0.37121212 -0.23035340 -0.09604653
v -0.35606061 -0.39702006 0.08577166
v -0.28030303 -0.27580794 0.13122620
v -0.23484848 -0.44247461 0.01001408
v -0.23283611 -0.24055754 -0.12783440
v -0.47727273 -0.50308067 0.01001408
v -0.49242424 -0.47277764 0.02516560
v -0.38636364 -0.24550491 0.08577166
v -0.40151515 -0.39702006 -0.08089501
v -0.50757576 -0.42732309 -0.00513744
v -0.44696970 -0.27580794 0.04031711
v -0.31060606 -0.44247461 0.05546863
v -0.26515152 -0.32126249 0.11607469
v -0.32575758 -0.30611097 0.11607469
v -0.23484848 -0.36671703 -0.09604653
v -0.43181818 -0.44247461 0.05546863
v -0.34090909 -0.48792915 -0.00513744
v -0.50757576 -0.42732309 0.01001408
v -0.44696970 -0.41217158 0.05546863
v -0.35606061 -0.23035340 0.10092317
v -0.34090909 -0.32126249 -0.11119804
v -0.49242424 -0.48792915 -0.02028895
v -0.46212121 -0.26065643 0.01001408
v -0.43181818 -0.24550491 -0.05059198
v -0.26515152 -0.41217158 0.07062014
v -0.34090909 -0.48792915 0.01001408
v -0.23484848 -0.38186855 -0.08089501
v -0.23484848 -0.33641400 -0.11119804
v -0.38636364 -0.47277764 0.04031711
v -0.49242424 -0.44247461 0.02516560
v -0.41666667 -0.41217158 0.07062014
v -0.31060606 -0.26065643 -0.12634956
v -0.50757576 -0.47277764 -0.00513744
v -0.43181818 -0.32126249 -0.06574350
v -0.41666667 -0.42732309 -0.06574350
v -0.43181818 -0.50308067 -0.00513744
v -0.46212121 -0.26065643 -0.00513744
v -0.49242424 -0.39702006 -0.02028895
v -0.43181818 -0.50308067 0.01001408
v -0.31060606 -0.44247461 -0.05059198
v -0.26515152 -0.24550491 -0.14150107
v -0.35606061 -0.44247461 -0.06574350
v -0.37121212 -0.36671703 -0.09604653
v -0.47727273 -0.45762612 -0.03544047
v -0.46212121 -0.47277764 -0.03544047
f 10 6 1
f 10 1 3
f 12 7 1
f 12 2 7
f 16 1 6
f 18 10 3
f 18 3 4
f 19 6 11
f 20 11 6
f 20 6 10
f 20 10 18
f 21 12 8
f 21 2 12
f 21 8 14
f 22 12 1
f 22 1 16
f 23 13 7
f 23 7 2
f 24 7 13
f 24 3 1
f 24 1 7
f 26 5 25
f 27 6 15
f 27 15 8
f 30 15 6
f 30 6 19
f 31 21 14
f 32 22 8
f 32 8 12
f 32 12 22
f 33 22 16
f 33 8 22
f 35 26 25
f 35 8 26
f 36 9 13
f 36 13 23
f 37 5 26
f 37 15 30
f 37 29 5
f 37 30 19
f 38 8 15
f 38 15 26
f 39 16 6
f 39 6 27
f 39 27 8
f 39 33 16
f 39 8 33
f 40 20 18
f 41 25 5
f 42 19 11
f 42 37 19
f 42 29 37
f 43 11 20
f 44 2 21
f 44 21 31
f 44 31 23
f 44 23 2
f 45 31 14
f 45 23 31
f 45 36 23
f 46 34 24
f 46 24 13
f 46 13 9
f 47 3 24
f 47 24 34
f 48 35 25
f 48 25 14
f 48 14 8
f 48 8 35
f 49 37 26
f 49 26 15
f 49 15 37
f 50 38 26
f 50 26 8
f 50 8 38
f 51 40 18
f 51 18 4
f 52 41 5
f 52 5 29
f 53 20 40
f 53 43 20
f 54 28 17
f 55 25 41
f 55 36 45
f 56 42 11
f 56 29 42
f 57 11 43
f 57 56 11
f 57 29 56
f 57 43 53
f 58 45 14
f 58 14 25
f 58 55 45
f 58 25 55
f 59 34 46
f 59 46 9
f 59 9 36
f 60 4 3
f 60 3 47
f 60 51 4
f 60 40 51
f 61 47 34
f 61 17 47
f 61 34 59
f 61 59 36
f 61 36 55
f 62 47 17
f 62 17 28
f 62 60 47
f 62 40 60
f 62 53 40
f 62 28 53
f 63 53 28
f 63 57 53
f 63 29 57
f 63 52 29
f 63 41 52
f 63 28 54
f 64 54 17
f 64 63 54
f 64 41 63
f 64 55 41
f 64 61 55
f 64 17 61

