# https://github.com/mikedh/trimesh
v 0.34012969 0.07277791 -0.09484180
v 0.34161000 0.02743676 -0.09685896
v 0.28030303 0.04237388 -0.17180410
v -0.06818182 0.05752539 -0.23241016
v -0.21969697 0.02722236 -0.09604653
v 0.20454545 0.23934357 -0.15665259
v 0.31060606 0.07267691 -0.14150107
v 0.08333333 0.02722236 -0.23241016
v -0.21969697 0.28479812 -0.09604653
v 0.28030303 0.02722236 -0.17180410
v -0.18939394 0.02722236 -0.20210713
v 0.17424242 0.16358600 -0.18695562
v 0.15909091 0.23934357 -0.09604653
v -0.02272727 0.23934357 -0.18695562
v 0.14393939 0.04237388 -0.21725865
v -0.21273922 0.02470949 -0.17391484
v -0.06818182 0.02722236 -0.23241016
v 0.20454545 0.19388903 -0.17180410
v -0.14393939 0.28479812 -0.09604653
v 0.20579712 0.24270283 -0.13598358
v -0.21969697 0.28479812 -0.14150107
v 0.03787879 0.19388903 -0.20210713
v 0.14393939 0.02722236 -0.21725865
v 0.08333333 0.04237388 -0.23241016
v 0.33440379 0.02523246 -0.10365765
v 0.02272727 0.23934357 -0.18695562
v -0.14323410 0.28339211 -0.13626994
v -0.21969697 0.05752539 -0.18695562
v -0.12878788 0.20904054 -0.18695562
v -0.00757576 0.08782842 -0.23241016
v 0.18939394 0.20904054 -0.17180410
v 0.03787879 0.14843448 -0.21725865
v -0.09848485 0.22419206 -0.18695562
v -0.18939394 0.14843448 -0.18695562
v 0.03787879 0.08782842 -0.23241016
v -0.02272727 0.19388903 -0.20210713
v -0.20454545 0.25449509 -0.15665259
v -0.17424242 0.26964660 -0.15665259
v -0.18939394 0.05752539 -0.20210713
v -0.12878788 0.14843448 -0.20210713
v 0.00757576 0.14843448 -0.21725865
v -0.21969697 0.16358600 -0.17180410
v -0.12878788 0.07267691 -0.21725865
v -0.21969697 0.23934357 -0.15665259
v -0.15909091 0.11813145 -0.20210713
f 5 2 1
f 7 1 2
f 7 6 1
f 9 5 1
f 10 7 2
f 10 3 7
f 15 3 10
f 15 12 3
f 17 11 4
f 17 4 8
f 17 16 11
f 17 8 16
f 18 3 12
f 18 7 3
f 18 6 7
f 19 9 1
f 19 1 13
f 20 13 1
f 20 1 6
f 20 19 13
f 21 9 19
f 21 5 9
f 23 15 10
f 23 8 15
f 24 15 8
f 24 12 15
f 24 8 4
f 25 10 2
f 25 2 5
f 25 5 16
f 25 23 10
f 25 16 8
f 25 8 23
f 26 22 14
f 27 20 6
f 27 26 21
f 27 6 26
f 27 21 19
f 27 19 20
f 28 11 16
f 28 16 5
f 28 5 21
f 30 4 29
f 30 24 4
f 31 18 12
f 31 6 18
f 31 26 6
f 31 22 26
f 32 31 12
f 32 22 31
f 33 30 29
f 35 32 12
f 35 12 24
f 35 24 30
f 35 30 32
f 36 14 22
f 36 22 32
f 36 33 14
f 36 30 33
f 37 33 29
f 38 14 33
f 38 26 14
f 38 21 26
f 38 37 21
f 38 33 37
f 39 11 28
f 39 4 11
f 40 29 4
f 41 36 32
f 41 32 30
f 41 30 36
f 42 28 21
f 42 39 28
f 42 34 39
f 43 4 39
f 43 40 4
f 44 34 42
f 44 37 29
f 44 29 34
f 44 42 21
f 44 21 37
f 45 43 39
f 45 39 34
f 45 40 43
f 45 34 29
f 45 29 40

