# https://github.com/mikedh/trimesh
v 0.05303030 0.04237388 0.23728681
v 0.15582707 0.02489956 0.19530983
v 0.15909091 0.23934357 0.16152923
v -0.21969697 0.23934357 -0.09604653
v -0.21969697 0.02722236 -0.09604653
v -0.18939394 0.23934357 0.16152923
v 0.15909091 0.05752539 0.20698378
v -0.20454545 0.02722236 0.19183226
v 0.15909091 0.02722236 -0.09604653
v -0.02272727 0.22419206 0.19183226
v 0.05303030 0.02722236 0.23728681
v 0.14393939 0.16358600 0.19183226
v 0.10976141 0.02446465 0.20827557
v -0.11363636 0.07267691 0.22213529
v -0.21969697 0.20904054 0.16152923
v 0.15909091 0.23934357 -0.09604653
v 0.06818182 0.23934357 0.17668075
v 0.11363636 0.04237388 0.22213529
v 0.15909091 0.14843448 0.19183226
v 0.03787879 0.17873751 0.20698378
v -0.21673867 0.02698009 0.17020017
v -0.11363636 0.02722236 0.22213529
v -0.12878788 0.23934357 0.17668075
v -0.02272727 0.07267691 0.23728681
v -0.21695823 0.23781622 0.13595256
v -0.14393939 0.11813145 0.20698378
v 0.14393939 0.08782842 0.20698378
v 0.02272727 0.22419206 0.19183226
v 0.14393939 0.20904054 0.17668075
v -0.21969697 0.14843448 0.17668075
v -0.02030902 0.02637798 0.22485214
v 0.00757576 0.07267691 0.23728681
v -0.00757576 0.17873751 0.20698378
v -0.14393939 0.17873751 0.19183226
v -0.09848485 0.08782842 0.22213529
v -0.20454545 0.07267691 0.19183226
v -0.08333333 0.20904054 0.19183226
v -0.15909091 0.08782842 0.20698378
f 6 3 4
f 9 7 2
f 9 3 7
f 9 5 4
f 13 2 11
f 13 9 2
f 13 5 9
f 15 4 5
f 16 9 4
f 16 4 3
f 16 3 9
f 17 3 6
f 18 1 11
f 18 11 2
f 18 2 7
f 19 7 3
f 19 3 12
f 19 12 1
f 20 1 12
f 21 13 8
f 21 5 13
f 22 8 13
f 23 17 6
f 23 10 17
f 24 11 1
f 24 22 11
f 24 14 22
f 25 15 6
f 25 6 4
f 25 4 15
f 27 18 7
f 27 7 19
f 27 19 1
f 27 1 18
f 28 17 10
f 28 10 20
f 28 3 17
f 29 20 12
f 29 12 3
f 29 28 20
f 29 3 28
f 30 15 5
f 30 5 21
f 30 21 8
f 30 26 15
f 31 22 13
f 31 13 11
f 31 11 22
f 32 24 1
f 32 1 20
f 32 20 24
f 33 24 20
f 33 20 10
f 34 6 15
f 34 15 26
f 34 23 6
f 35 26 14
f 35 14 24
f 35 34 26
f 35 24 34
f 36 30 8
f 37 33 10
f 37 10 23
f 37 24 33
f 37 34 24
f 37 23 34
f 38 14 26
f 38 26 30
f 38 30 36
f 38 36 8
f 38 22 14
f 38 8 22

