# https://github.com/mikedh/trimesh
v -0.31060606 0.25449509 0.11607469
v -0.30672537 0.16205439 0.10844715
v -0.30531949 0.26687834 -0.09882912
v -0.37121212 0.39085872 -0.08089501
v -0.49242424 0.45146479 0.01001408
v -0.34090909 0.46661630 0.01001408
v -0.30917046 0.27202008 0.09634964
v -0.35606061 0.16358600 0.10092317
v -0.34090909 0.16358600 -0.11119804
v -0.34090909 0.42116176 -0.06574350
v -0.41666667 0.43631327 0.05546863
v -0.32575758 0.16358600 0.11607469
v -0.47727273 0.46661630 -0.02028895
v -0.32575758 0.26964660 -0.11119804
v -0.43181818 0.16358600 -0.00513744
v -0.30883532 0.16288711 -0.10771754
v -0.34090909 0.46661630 -0.00513744
v -0.49242424 0.49691933 0.01001408
v -0.34090909 0.37570721 0.08577166
v -0.32575758 0.25449509 0.11607469
v -0.34090909 0.23934357 -0.11119804
v -0.40151515 0.42116176 -0.06574350
v -0.34090909 0.39085872 -0.08089501
v -0.43181818 0.16358600 0.01001408
v -0.38636364 0.22419206 -0.08089501
v -0.49242424 0.45146479 -0.00513744
v -0.38636364 0.16358600 -0.06574350
v -0.38636364 0.43631327 0.05546863
v -0.46212121 0.49691933 0.01001408
v -0.40151515 0.37570721 0.07062014
v -0.35606061 0.37570721 0.08577166
v -0.43181818 0.43631327 -0.05059198
v -0.37121212 0.16358600 0.08577166
v -0.47727273 0.43631327 -0.02028895
v -0.49242424 0.49691933 -0.00513744
v -0.40151515 0.17873751 -0.05059198
v -0.35606061 0.23934357 0.10092317
v -0.37121212 0.36055569 0.08577166
v -0.46212121 0.49691933 -0.00513744
f 7 1 2
f 7 2 3
f 7 6 1
f 7 3 6
f 12 8 2
f 12 2 1
f 16 3 2
f 16 2 15
f 16 14 3
f 16 9 14
f 17 6 3
f 17 3 10
f 18 5 8
f 19 1 6
f 20 8 12
f 20 12 1
f 20 1 19
f 21 14 9
f 21 4 14
f 22 10 4
f 22 4 21
f 23 10 3
f 23 3 14
f 23 14 4
f 23 4 10
f 24 5 15
f 24 15 2
f 26 15 5
f 26 5 18
f 27 16 15
f 27 9 16
f 27 25 9
f 28 18 11
f 28 19 6
f 28 11 19
f 29 6 17
f 29 28 6
f 29 18 28
f 30 11 18
f 31 20 19
f 31 19 11
f 32 22 21
f 32 21 9
f 33 8 5
f 33 5 24
f 33 24 2
f 33 2 8
f 34 26 13
f 34 27 26
f 34 25 27
f 34 9 25
f 34 32 9
f 34 13 32
f 35 26 18
f 35 13 26
f 35 32 13
f 35 18 29
f 35 10 22
f 35 22 32
f 36 27 15
f 36 15 26
f 36 26 27
f 37 8 20
f 37 20 30
f 37 30 18
f 37 18 8
f 38 30 20
f 38 20 31
f 38 31 11
f 38 11 30
f 39 35 29
f 39 29 17
f 39 17 10
f 39 10 35

