# https://github.com/mikedh/trimesh
v 0.26515152 -0.21520188 0.01001408
v 0.26515152 -0.45762612 0.01001408
v 0.25000000 -0.21520188 -0.15665259
v -0.15909091 -0.26065643 -0.15665259
v -0.15910234 -0.37845024 -0.04883317
v 0.25000000 -0.36671703 -0.11119804
v -0.15909091 -0.23035340 -0.06574350
v 0.26515152 -0.29095946 -0.14150107
v 0.00757576 -0.32126249 0.01001408
v -0.12878788 -0.36671703 -0.11119804
v 0.00757576 -0.21520188 0.01001408
v 0.00749927 -0.21495162 -0.17108434
v 0.26794231 -0.44548821 -0.00026025
v 0.26379539 -0.21417410 -0.13592227
v 0.00757576 -0.30611097 -0.15665259
v 0.09848485 -0.44247461 0.01001408
v -0.15909091 -0.36671703 -0.09604653
v 0.26515152 -0.42732309 -0.06574350
v -0.15909091 -0.32126249 -0.05059198
v -0.15909091 -0.23035340 -0.11119804
v 0.15909091 -0.21520188 -0.17180410
v 0.25000000 -0.30611097 -0.14150107
v 0.00757576 -0.26065643 -0.17180410
v -0.09848485 -0.30611097 -0.15665259
v -0.06818182 -0.35156552 -0.12634956
v -0.14393939 -0.29095946 -0.15665259
v -0.15909091 -0.38186855 -0.08089501
v 0.25000000 -0.45762612 -0.00513744
v 0.26515152 -0.33641400 -0.12634956
v 0.15909091 -0.23035340 -0.17180410
v 0.08333333 -0.26065643 -0.17180410
v -0.11363636 -0.35156552 -0.12634956
v -0.15909091 -0.27580794 -0.15665259
v -0.14393939 -0.33641400 -0.12634956
v -0.09848485 -0.39702006 -0.06574350
v 0.25000000 -0.45762612 0.01001408
v 0.14393939 -0.29095946 -0.15665259
v 0.25000000 -0.23035340 -0.15665259
v 0.20454545 -0.27580794 -0.15665259
v 0.23484848 -0.42732309 -0.06574350
v 0.09848485 -0.44247461 -0.00513744
v -0.08333333 -0.38186855 -0.09604653
v 0.12878788 -0.24550491 -0.17180410
v 0.23484848 -0.44247461 -0.03544047
f 9 2 1
f 11 9 1
f 11 5 9
f 12 7 11
f 13 8 1
f 13 1 2
f 14 8 3
f 14 1 8
f 14 12 11
f 14 11 1
f 16 9 5
f 16 2 9
f 18 13 2
f 19 11 7
f 19 7 5
f 19 5 11
f 20 12 4
f 20 7 12
f 20 4 5
f 20 5 7
f 21 14 3
f 21 12 14
f 23 4 12
f 23 12 21
f 24 23 15
f 25 15 6
f 25 24 15
f 25 6 18
f 26 23 24
f 27 5 17
f 27 17 10
f 28 18 2
f 29 18 6
f 29 8 13
f 29 13 18
f 29 22 8
f 29 6 15
f 30 21 3
f 30 23 21
f 31 15 23
f 31 23 30
f 32 24 25
f 32 26 24
f 32 10 26
f 32 25 18
f 33 26 17
f 33 4 23
f 33 23 26
f 33 17 5
f 33 5 4
f 34 26 10
f 34 10 17
f 34 17 26
f 35 16 5
f 35 5 27
f 36 28 2
f 36 2 16
f 36 16 28
f 37 29 15
f 37 22 29
f 37 15 31
f 38 30 3
f 38 3 8
f 38 8 22
f 39 37 31
f 39 22 37
f 39 38 22
f 39 30 38
f 40 32 18
f 40 10 32
f 40 18 28
f 41 35 28
f 41 28 16
f 41 16 35
f 42 35 27
f 42 27 10
f 42 40 35
f 42 10 40
f 43 39 31
f 43 31 30
f 43 30 39
f 44 40 28
f 44 28 35
f 44 35 40

