# https://github.com/mikedh/trimesh
v 0.41666667 0.42116176 0.07062014
v 0.41666667 0.39085872 0.07062014
v 0.40151515 0.37570721 -0.08089501
v 0.28030303 0.39085872 -0.08089501
v 0.23406053 0.40317588 0.03639940
v 0.40151515 0.46661630 -0.02028895
v 0.41655306 0.41911393 0.05063669
v 0.29545455 0.39085872 0.08577166
v 0.40151515 0.42116176 -0.06574350
v 0.23484848 0.43631327 -0.02028895
v 0.35606061 0.39085872 0.08577166
v 0.28131109 0.37237400 0.06800406
v 0.40151515 0.39085872 -0.08089501
v 0.35606061 0.45146479 -0.03544047
v 0.23497584 0.40421855 -0.03447555
v 0.23484848 0.43631327 0.02516560
v 0.28010490 0.37177528 -0.07378284
v 0.29517780 0.37071860 0.07400083
v 0.38636364 0.42116176 -0.06574350
v 0.37121212 0.46661630 -0.02028895
v 0.28030303 0.43631327 -0.03544047
v 0.23484848 0.42116176 -0.03544047
v 0.23265076 0.41325630 0.02939002
v 0.38636364 0.46661630 0.02516560
v 0.40151515 0.37570721 0.07062014
v 0.35575547 0.37020690 0.07279345
v 0.35606061 0.46661630 0.01001408
v 0.37121212 0.43631327 0.05546863
v 0.40151515 0.46661630 0.02516560
v 0.35606061 0.46661630 -0.00513744
v 0.37121212 0.42116176 0.07062014
f 7 1 2
f 7 2 3
f 7 6 1
f 9 6 7
f 11 2 1
f 11 1 8
f 12 8 5
f 13 3 4
f 13 4 9
f 13 9 7
f 13 7 3
f 14 6 9
f 16 5 8
f 17 4 3
f 17 15 4
f 17 12 5
f 17 5 15
f 18 11 8
f 18 8 12
f 18 12 17
f 19 14 9
f 19 9 4
f 19 4 14
f 20 6 14
f 21 14 4
f 21 20 14
f 21 10 20
f 22 4 15
f 22 21 4
f 22 10 21
f 23 16 10
f 23 5 16
f 23 10 22
f 23 22 15
f 23 15 5
f 24 6 20
f 25 2 11
f 25 3 2
f 26 18 17
f 26 17 3
f 26 3 25
f 26 25 11
f 26 11 18
f 27 10 16
f 27 24 20
f 27 16 24
f 28 24 16
f 28 16 8
f 29 1 6
f 29 6 24
f 29 28 1
f 29 24 28
f 30 27 20
f 30 20 10
f 30 10 27
f 31 28 8
f 31 8 1
f 31 1 28

