# https://github.com/mikedh/trimesh
v 0.26596688 -0.21581981 0.13458035
v 0.50757576 -0.48792915 0.01001408
v 0.43181818 -0.21520188 -0.02028895
v 0.26379539 -0.21417410 -0.13592227
v 0.26515152 -0.45762612 0.01001408
v 0.49242424 -0.42732309 -0.03544047
v 0.37845932 -0.19948530 -0.04303378
v 0.41666667 -0.26065643 0.07062014
v 0.26515152 -0.35156552 0.11607469
v 0.50757576 -0.41217158 0.01001408
v 0.40151515 -0.23035340 -0.08089501
v 0.32575758 -0.42732309 -0.08089501
v 0.37121212 -0.21520188 0.08577166
v 0.43181818 -0.44247461 0.07062014
v 0.26166678 -0.30303743 0.11762023
v 0.50757576 -0.41217158 -0.00513744
v 0.44696970 -0.24550491 0.01001408
v 0.29545455 -0.24550491 -0.14150107
v 0.40151515 -0.20005037 -0.05059198
v 0.26515152 -0.41217158 -0.08089501
v 0.44696970 -0.44247461 -0.06574350
v 0.38636364 -0.48792915 -0.00513744
v 0.38600734 -0.20002490 -0.03509977
v 0.37121212 -0.23035340 0.10092317
v 0.47727273 -0.39702006 0.04031711
v 0.31060606 -0.27580794 0.13122620
v 0.32575758 -0.45762612 0.04031711
v 0.41666667 -0.21520188 -0.05059198
v 0.50757576 -0.48792915 -0.00513744
v 0.41666667 -0.23035340 0.05546863
v 0.44696970 -0.24550491 -0.00513744
v 0.49242424 -0.36671703 0.01001408
v 0.29545455 -0.21520188 -0.14150107
v 0.41666667 -0.21520188 0.04031711
v 0.26515152 -0.33641400 -0.12634956
v 0.26515152 -0.42732309 -0.06574350
v 0.44696970 -0.42732309 -0.06574350
v 0.38636364 -0.45762612 -0.05059198
v 0.30168665 -0.21555409 0.11906492
v 0.43181818 -0.35156552 0.07062014
v 0.47727273 -0.45762612 0.04031711
v 0.28030303 -0.30611097 0.13122620
v 0.32575758 -0.41217158 0.08577166
v 0.28030303 -0.45762612 0.02516560
v 0.38636364 -0.48792915 0.01001408
v 0.49242424 -0.36671703 -0.00513744
v 0.49242424 -0.44247461 -0.03544047
v 0.26515152 -0.27580794 -0.14150107
v 0.32575758 -0.21520188 -0.12634956
v 0.38636364 -0.42732309 -0.08089501
v 0.29545455 -0.47277764 -0.00513744
v 0.32575758 -0.47277764 -0.02028895
v 0.44696970 -0.45762612 -0.05059198
v 0.31060606 -0.35156552 0.11607469
v 0.40151515 -0.44247461 0.07062014
v 0.29545455 -0.47277764 0.01001408
v 0.28030303 -0.27580794 -0.14150107
v 0.38636364 -0.21520188 -0.08089501
v 0.35606061 -0.23035340 -0.11119804
v 0.34090909 -0.44247461 -0.06574350
v 0.28030303 -0.33641400 -0.12634956
f 7 4 1
f 15 9 1
f 15 1 4
f 15 5 9
f 16 10 2
f 19 4 7
f 20 15 4
f 23 7 1
f 23 19 7
f 25 10 8
f 25 2 10
f 26 24 1
f 26 14 24
f 28 19 3
f 28 11 19
f 28 16 6
f 28 6 11
f 29 16 2
f 29 6 16
f 29 2 22
f 30 8 10
f 30 24 8
f 30 13 24
f 31 3 17
f 32 10 16
f 32 31 17
f 32 30 10
f 32 17 30
f 33 21 18
f 33 4 19
f 34 3 19
f 34 13 30
f 34 30 17
f 34 17 3
f 34 23 13
f 34 19 23
f 35 12 20
f 35 20 4
f 36 5 15
f 36 15 20
f 36 20 12
f 37 11 6
f 37 6 21
f 37 21 33
f 38 12 21
f 38 29 22
f 39 23 1
f 39 13 23
f 39 24 13
f 39 1 24
f 40 24 14
f 40 14 25
f 40 25 8
f 40 8 24
f 41 25 14
f 41 14 2
f 41 2 25
f 42 26 1
f 42 1 9
f 44 9 5
f 44 43 9
f 44 27 43
f 45 22 2
f 45 2 14
f 46 28 3
f 46 16 28
f 46 3 31
f 46 32 16
f 46 31 32
f 47 29 21
f 47 21 6
f 47 6 29
f 48 33 18
f 48 4 33
f 48 35 4
f 49 33 19
f 49 37 33
f 50 21 12
f 50 12 35
f 51 5 36
f 51 22 45
f 52 51 36
f 52 22 51
f 52 38 22
f 53 38 21
f 53 21 29
f 53 29 38
f 54 42 9
f 54 14 26
f 54 26 42
f 54 43 14
f 54 9 43
f 55 43 27
f 55 14 43
f 55 45 14
f 55 27 45
f 56 45 27
f 56 27 44
f 56 51 45
f 56 44 5
f 56 5 51
f 57 48 18
f 57 18 21
f 57 35 48
f 58 49 19
f 58 19 11
f 58 11 49
f 59 49 11
f 59 11 37
f 59 37 49
f 60 52 36
f 60 36 12
f 60 12 38
f 60 38 52
f 61 50 35
f 61 35 57
f 61 57 21
f 61 21 50

