# https://github.com/mikedh/trimesh
v 0.12878788 -0.21520188 0.17668075
v 0.14393939 -0.35156552 0.11607469
v 0.14393939 -0.21520188 0.10092317
v -0.23484848 -0.23035340 0.10092317
v -0.09848485 -0.29095946 0.16152923
v -0.00671769 -0.37292346 0.07803264
v 0.00699363 -0.21329722 0.17120283
v 0.14609760 -0.21795408 0.15404954
v 0.08333333 -0.29095946 0.16152923
v 0.14361074 -0.35426701 0.08966656
v -0.15909091 -0.30611097 0.08577166
v -0.00757576 -0.38186855 0.10092317
v 0.00757576 -0.21520188 0.10092317
v -0.12878788 -0.24550491 0.17668075
v 0.14393939 -0.26065643 0.16152923
v 0.14393939 -0.30611097 0.08577166
v -0.23484848 -0.29095946 0.13122620
v -0.05303030 -0.32126249 0.14637772
v 0.08333333 -0.38186855 0.10092317
v -0.24873057 -0.23012370 0.12796113
v 0.00757576 -0.26065643 0.17668075
v 0.14393939 -0.24550491 0.16152923
v 0.14393939 -0.30611097 0.14637772
v 0.12878788 -0.23035340 0.17668075
v 0.08385398 -0.37466226 0.08239457
v -0.15915334 -0.36165688 0.07821807
v -0.20454545 -0.30611097 0.13122620
v 0.12878788 -0.33641400 0.13122620
v -0.25000000 -0.23035340 0.14637772
v -0.23525608 -0.30707710 0.10347177
v -0.02272727 -0.26065643 0.17668075
v 0.12878788 -0.27580794 0.16152923
v 0.08333333 -0.24550491 0.17668075
v -0.12878788 -0.33641400 0.13122620
v -0.15909091 -0.36671703 0.10092317
v -0.12786020 -0.22512662 0.16359034
v -0.25000000 -0.24550491 0.14637772
v -0.24910309 -0.24337015 0.12504301
v -0.09848485 -0.32126249 0.14637772
f 7 1 3
f 8 3 1
f 10 8 2
f 13 7 3
f 13 11 4
f 13 3 11
f 14 1 7
f 16 3 8
f 16 8 10
f 16 11 3
f 18 9 5
f 19 10 2
f 19 18 12
f 20 13 4
f 20 7 13
f 21 1 14
f 21 5 9
f 22 15 8
f 22 8 1
f 22 1 15
f 23 2 8
f 23 8 15
f 24 15 1
f 24 1 21
f 25 16 10
f 25 6 16
f 25 10 19
f 25 19 12
f 25 12 6
f 26 16 6
f 26 11 16
f 26 6 12
f 26 4 11
f 27 5 14
f 27 14 17
f 28 19 2
f 28 9 18
f 28 18 19
f 28 23 9
f 28 2 23
f 29 7 20
f 30 4 26
f 31 21 14
f 31 14 5
f 31 5 21
f 32 24 9
f 32 9 23
f 32 23 15
f 32 15 24
f 33 24 21
f 33 21 9
f 33 9 24
f 35 27 17
f 35 34 27
f 35 26 12
f 35 12 34
f 35 30 26
f 35 17 30
f 36 29 14
f 36 14 7
f 36 7 29
f 37 17 14
f 37 14 29
f 37 30 17
f 38 20 4
f 38 4 30
f 38 30 37
f 38 37 29
f 38 29 20
f 39 18 5
f 39 5 27
f 39 27 34
f 39 34 12
f 39 12 18

