# https://github.com/mikedh/trimesh
v -0.31060606 0.16358600 0.01001408
v -0.31060606 -0.23035340 0.01001408
v -0.30409330 0.14586400 -0.11354833
v -0.32575758 0.14843448 -0.12634956
v -0.44696970 -0.18489885 0.01001408
v -0.30878236 -0.23015955 -0.10677302
v -0.30883532 0.16288711 -0.10771754
v -0.41666667 0.16358600 -0.02028895
v -0.30431351 -0.18271691 -0.11311260
v -0.37121212 -0.23035340 -0.09604653
v -0.41316650 0.16529728 -0.00025699
v -0.34090909 0.16358600 -0.11119804
v -0.32575758 -0.18489885 -0.12634956
v -0.44696970 -0.21520188 -0.02028895
v -0.34090909 -0.23035340 -0.11119804
v -0.37121212 -0.03338370 -0.09604653
v -0.37121212 0.16358600 -0.08089501
v -0.35606061 -0.10914128 -0.11119804
v -0.44696970 -0.18489885 -0.00513744
v -0.44110834 -0.23033536 -0.00019974
v -0.38636364 -0.03338370 -0.08089501
v -0.35606061 -0.15459582 -0.11119804
v -0.44696970 -0.23035340 -0.02028895
f 1 2 3
f 5 2 1
f 7 1 3
f 7 3 4
f 9 3 2
f 9 2 6
f 11 8 5
f 11 5 1
f 12 7 4
f 12 11 1
f 12 1 7
f 13 4 3
f 13 3 9
f 13 9 6
f 15 6 2
f 15 2 10
f 15 13 6
f 15 10 13
f 16 12 4
f 17 8 11
f 17 11 12
f 17 12 16
f 17 14 8
f 18 4 13
f 18 16 4
f 18 14 16
f 19 14 5
f 19 5 8
f 19 8 14
f 20 2 5
f 21 17 16
f 21 16 14
f 21 14 17
f 22 18 13
f 22 13 10
f 22 14 18
f 23 10 2
f 23 2 20
f 23 22 10
f 23 14 22
f 23 20 5
f 23 5 14

