# https://github.com/mikedh/trimesh
v 0.03787879 -0.00308067 0.25243832
v 0.40151515 -0.07883824 0.05546863
v 0.40151515 0.02722236 0.02516560
v 0.00757576 0.02722236 0.01001408
v 0.00757576 -0.07883824 0.01001408
v 0.06818182 0.02722236 0.23728681
v 0.08333333 -0.07883824 0.23728681
v 0.00604357 0.02494717 0.22939781
v 0.40129254 -0.07886058 0.00990738
v 0.39396566 0.02753212 0.00604179
v 0.29545455 0.02722236 0.16152923
v 0.02272727 -0.00308067 0.25243832
v 0.37121212 0.01207085 0.10092317
v 0.37121212 0.02722236 0.08577166
v 0.28030303 -0.07883824 0.16152923
v 0.21969697 -0.01823218 0.20698378
v 0.02272727 -0.04853521 0.25243832
v 0.40151515 -0.06368673 0.05546863
v 0.35606061 -0.07883824 0.11607469
v 0.18939394 0.02722236 0.20698378
v 0.05303030 -0.04853521 0.25243832
v 0.23484848 -0.06368673 0.19183226
v 0.00934321 -0.07544428 0.22463252
v 0.34090909 0.01207085 0.13122620
v 0.29545455 -0.03338370 0.16152923
v 0.37121212 -0.07883824 0.10092317
v 0.23484848 0.02722236 0.19183226
v 0.11363636 -0.01823218 0.23728681
v 0.21969697 -0.03338370 0.20698378
v 0.21969697 -0.07883824 0.19183226
v 0.34090909 -0.03338370 0.13122620
v 0.15909091 -0.00308067 0.22213529
v 0.05303030 -0.01823218 0.25243832
v 0.15909091 -0.04853521 0.22213529
v 0.11363636 -0.03338370 0.23728681
f 8 4 5
f 8 6 4
f 9 3 2
f 9 7 5
f 10 4 6
f 10 3 9
f 10 9 5
f 10 5 4
f 12 1 6
f 12 6 8
f 14 3 10
f 14 10 11
f 14 13 3
f 14 11 13
f 17 1 12
f 17 12 8
f 18 13 2
f 18 2 3
f 18 3 13
f 19 15 9
f 20 10 6
f 21 17 7
f 21 1 17
f 23 5 7
f 23 7 17
f 23 17 8
f 23 8 5
f 24 19 13
f 24 13 11
f 25 11 16
f 25 15 19
f 25 24 11
f 26 2 13
f 26 13 19
f 26 19 9
f 26 9 2
f 27 20 16
f 27 16 11
f 27 11 10
f 27 10 20
f 29 16 28
f 29 25 16
f 29 22 15
f 29 15 25
f 30 15 22
f 30 7 9
f 30 9 15
f 30 22 29
f 31 25 19
f 31 19 24
f 31 24 25
f 32 28 16
f 32 16 20
f 32 20 6
f 33 1 21
f 33 21 28
f 33 6 1
f 33 32 6
f 33 28 32
f 34 29 21
f 34 21 7
f 34 30 29
f 34 7 30
f 35 29 28
f 35 28 21
f 35 21 29

