# https://github.com/mikedh/trimesh
v -0.32575758 0.11813145 0.13122620
v -0.30514863 0.02790586 0.12198069
v -0.31060606 0.16358600 0.01001408
v -0.39939352 0.16464416 0.00844142
v -0.41666667 0.02722236 0.02516560
v -0.34090909 0.16358600 0.11607469
v -0.30672537 0.16205439 0.10844715
v -0.32575758 0.02722236 0.13122620
v -0.31060606 0.02722236 0.01001408
v -0.40151515 0.16358600 0.04031711
v -0.30436619 0.11566874 0.11896167
v -0.37121212 0.14843448 0.08577166
v -0.40994767 0.02952029 -0.00024227
v -0.37121212 0.16358600 0.08577166
v -0.41666667 0.05752539 0.02516560
v -0.35606061 0.02722236 0.10092317
v -0.40976593 0.05740393 0.00075242
f 6 3 4
f 7 6 1
f 7 3 6
f 8 2 1
f 9 8 5
f 9 2 8
f 11 7 1
f 11 1 2
f 11 3 7
f 11 9 3
f 11 2 9
f 13 9 5
f 13 3 9
f 14 6 4
f 14 4 10
f 14 5 12
f 14 1 6
f 15 10 4
f 15 14 10
f 15 5 14
f 15 13 5
f 16 12 5
f 16 5 8
f 16 8 1
f 16 14 12
f 16 1 14
f 17 4 3
f 17 3 13
f 17 15 4
f 17 13 15

