# https://github.com/mikedh/trimesh
v 0.41666667 0.26964660 0.04031711
v 0.41666667 0.08782842 0.01001408
v 0.43181818 0.20904054 -0.00513744
v 0.35606061 0.22419206 -0.11119804
v 0.35606061 0.02722236 0.01001408
v 0.35606061 0.02722236 -0.11119804
v 0.40151515 0.26964660 -0.06574350
v 0.43181818 0.20904054 0.01001408
v 0.41666667 0.25449509 0.04031711
v 0.34090909 0.26964660 -0.05059198
v 0.40151515 0.02722236 -0.03544047
v 0.42406363 0.27204679 -0.00025558
v 0.39396566 0.02753212 0.00604179
v 0.39554688 0.27097870 0.03651898
v 0.33440379 0.02523246 -0.10365765
v 0.37121212 0.26964660 -0.09604653
v 0.41666667 0.08782842 -0.00513744
v 0.37121212 0.05752539 -0.09604653
v 0.39374567 0.25569595 0.03551489
v 0.35606061 0.16358600 0.01001408
v 0.34090909 0.16358600 -0.05059198
v 0.33405823 0.22352506 -0.09999580
v 0.40151515 0.25449509 -0.06574350
v 0.37121212 0.26964660 0.01001408
v 0.34090909 0.02722236 -0.06574350
v 0.33808279 0.26815620 -0.08942294
f 7 6 4
f 8 2 3
f 9 8 1
f 9 2 8
f 12 3 7
f 12 8 3
f 12 1 8
f 13 9 5
f 13 2 9
f 13 11 2
f 14 9 1
f 14 12 10
f 14 1 12
f 15 6 11
f 15 13 5
f 15 11 13
f 15 4 6
f 16 7 4
f 16 12 7
f 16 10 12
f 17 11 3
f 17 3 2
f 17 2 11
f 18 3 11
f 18 11 6
f 19 5 9
f 19 9 14
f 20 10 5
f 20 19 14
f 20 5 19
f 21 5 10
f 22 4 15
f 22 21 10
f 22 15 21
f 23 7 3
f 23 3 18
f 23 18 6
f 23 6 7
f 24 20 14
f 24 14 10
f 24 10 20
f 25 21 15
f 25 15 5
f 25 5 21
f 26 16 4
f 26 4 22
f 26 22 10
f 26 10 16

