# https://github.com/mikedh/trimesh
v 0.21969697 -0.07883824 0.13122620
v 0.41666667 -0.21520188 0.04031711
v 0.41365053 -0.08002785 0.00029007
v 0.00757576 -0.07883824 0.01001408
v 0.00757576 -0.21520188 0.13122620
v 0.00757576 -0.21520188 0.01001408
v 0.33414965 -0.07746228 0.10317991
v 0.22296974 -0.21768218 0.14468942
v 0.00757576 -0.07883824 0.13122620
v 0.41444263 -0.21543897 0.00896381
v 0.41666667 -0.07883824 0.02516560
v 0.37121212 -0.07883824 0.10092317
v 0.34090909 -0.20005037 0.11607469
v 0.40151515 -0.07883824 0.05546863
v 0.33158351 -0.21395355 0.09211207
v 0.37121212 -0.12429279 0.10092317
v 0.41666667 -0.20005037 0.04031711
f 6 4 3
f 6 5 4
f 8 5 6
f 9 4 5
f 9 7 4
f 9 1 7
f 9 8 1
f 9 5 8
f 10 6 3
f 10 8 6
f 10 2 8
f 11 3 4
f 11 4 7
f 11 10 3
f 11 2 10
f 12 7 1
f 12 1 8
f 13 12 8
f 14 11 7
f 14 7 12
f 15 13 8
f 15 8 2
f 15 2 13
f 16 13 2
f 16 2 12
f 16 12 13
f 17 14 12
f 17 12 2
f 17 2 11
f 17 11 14

