# https://github.com/mikedh/trimesh
v 0.08225956 0.03449731 -0.09848484
v 0.08381718 0.04761266 -0.15871589
v 0.06710804 0.09510338 -0.09848484
v -0.03895257 0.09510338 -0.11363636
v -0.03895257 0.03449731 -0.11363636
v 0.08225956 0.06480034 -0.15909090
v 0.02548321 0.03017254 -0.15829229
v -0.03895257 0.03449731 -0.09848484
v 0.06710804 0.09510338 -0.11363636
v 0.08225956 0.07995186 -0.11363636
v 0.02165349 0.04964883 -0.15909090
v -0.03055908 0.08332065 -0.09696154
v 0.07283578 0.06891447 -0.09697614
v 0.05195652 0.06480034 -0.15909090
f 7 2 1
f 8 4 5
f 8 7 1
f 8 5 7
f 9 6 4
f 9 4 3
f 10 1 2
f 10 2 6
f 10 9 3
f 10 6 9
f 11 6 2
f 11 2 7
f 11 7 5
f 11 5 4
f 12 3 4
f 12 4 8
f 13 10 3
f 13 1 10
f 13 3 12
f 13 12 8
f 13 8 1
f 14 11 4
f 14 4 6
f 14 6 11

