# https://github.com/mikedh/trimesh
v -0.11471014 -0.05641178 0.18939395
v -0.09955863 -0.04126026 0.12878789
v -0.10815459 0.05287548 0.21435827
v -0.12986166 0.06480034 0.21969698
v -0.20561923 -0.02610875 0.08333334
v -0.11416906 -0.03687602 0.21862500
v -0.16016469 -0.05641178 0.11363637
v -0.12986166 0.03449731 0.08333334
v -0.14501317 -0.04126026 0.21969698
v -0.09955863 -0.04126026 0.14393940
v -0.12986166 -0.05641178 0.11363637
v -0.08601890 0.04510292 0.13208560
v -0.20561923 0.03449731 0.08333334
v -0.14501317 -0.05641178 0.17424243
v -0.11471014 -0.05641178 0.14393940
v -0.12986166 -0.02610875 0.08333334
v -0.12986166 0.04964883 0.09848486
v -0.16016469 0.03449731 0.20454546
v -0.12986166 -0.05641178 0.18939395
v -0.17531620 -0.04126026 0.15909092
v -0.09955863 -0.02610875 0.11363637
v -0.12986166 0.06480034 0.18939395
v -0.19046772 0.04964883 0.12878789
v -0.16016469 -0.05641178 0.14393940
v -0.16016469 -0.02610875 0.20454546
v -0.09955863 0.03449731 0.11363637
v -0.16016469 0.04964883 0.18939395
v -0.20561923 0.00419428 0.11363637
v -0.19046772 0.04964883 0.09848486
v -0.20561923 -0.02610875 0.09848486
v -0.20561923 0.01934580 0.11363637
v -0.20561923 0.03449731 0.09848486
v -0.19046772 0.03449731 0.14393940
f 6 3 4
f 9 1 6
f 9 6 4
f 10 6 1
f 10 1 2
f 11 1 7
f 11 7 5
f 12 10 2
f 12 3 6
f 12 6 10
f 12 4 3
f 13 8 5
f 14 7 1
f 15 11 2
f 15 2 1
f 15 1 11
f 16 2 11
f 16 11 5
f 16 5 8
f 17 12 8
f 17 8 13
f 18 9 4
f 19 14 1
f 19 1 9
f 19 9 14
f 20 14 9
f 21 12 2
f 21 2 16
f 21 16 8
f 22 4 12
f 22 12 17
f 23 4 22
f 24 5 7
f 24 7 14
f 24 14 20
f 25 20 9
f 25 9 18
f 26 21 8
f 26 8 12
f 26 12 21
f 27 23 18
f 27 18 4
f 27 4 23
f 28 13 5
f 28 25 18
f 29 23 22
f 29 22 17
f 29 17 13
f 29 13 23
f 30 24 20
f 30 5 24
f 30 28 5
f 30 20 25
f 30 25 28
f 31 13 28
f 31 28 18
f 32 31 23
f 32 23 13
f 32 13 31
f 33 31 18
f 33 18 23
f 33 23 31

