# https://github.com/mikedh/trimesh
v -0.06925560 -0.08671481 0.14393940
v -0.04140268 -0.06676631 -0.15950232
v -0.04015151 0.07531462 0.14487332
v -0.08440711 0.07995186 0.14393940
v -0.11471014 -0.01095723 -0.15909090
v -0.10744271 -0.02239358 0.14841799
v -0.03587919 -0.07435698 0.14140401
v -0.09955863 -0.07156329 -0.15909090
v -0.03895257 0.06480034 -0.15909090
v -0.11471014 0.03449731 0.05303031
v -0.05410408 -0.10186632 -0.05303030
v -0.11471014 -0.02610875 0.06818183
v -0.11471014 0.01934580 -0.15909090
v -0.03274625 -0.08940219 -0.05276775
v -0.05410408 0.09510338 -0.03787878
v -0.09955863 0.06480034 0.14393940
v -0.05410408 -0.10186632 0.02272728
v -0.05410408 -0.08671481 -0.15909090
v -0.11471014 -0.02610875 -0.12878787
v -0.11471014 0.00419428 0.06818183
v -0.09955863 -0.07156329 0.12878789
v -0.06925560 0.06480034 -0.15909090
v -0.03568751 -0.08249197 -0.10365433
v -0.03280967 0.08167574 -0.03995675
v -0.05410408 0.09510338 -0.02272727
v -0.11471014 0.03449731 -0.11363636
v -0.08440711 -0.08671481 -0.00757575
v -0.03394109 -0.08942395 0.02143500
v -0.06925560 -0.08671481 -0.15909090
v -0.08440711 -0.08671481 0.12878789
v -0.06925560 0.07995186 -0.11363636
v -0.03878797 0.07596617 -0.09967226
v -0.03371816 0.08237627 -0.02311123
v -0.09955863 0.04964883 -0.12878787
v -0.08440711 0.07995186 0.08333334
v -0.08440711 0.06480034 -0.12878787
v -0.09955863 0.06480034 0.05303031
f 6 1 3
f 6 3 4
f 7 3 1
f 8 5 2
f 12 10 5
f 13 2 5
f 13 5 10
f 16 10 6
f 16 6 4
f 17 7 1
f 17 11 14
f 18 14 11
f 19 12 5
f 19 5 8
f 19 8 12
f 20 12 6
f 20 6 10
f 20 10 12
f 21 12 8
f 21 1 6
f 21 6 12
f 22 9 2
f 22 2 13
f 23 2 9
f 23 9 14
f 23 18 2
f 23 14 18
f 24 14 9
f 24 3 7
f 25 15 4
f 25 4 3
f 26 13 10
f 26 10 16
f 27 8 11
f 27 11 17
f 27 21 8
f 28 17 14
f 28 7 17
f 28 24 7
f 28 14 24
f 29 18 11
f 29 11 8
f 29 8 2
f 29 2 18
f 30 17 1
f 30 1 21
f 30 27 17
f 30 21 27
f 31 15 9
f 31 9 22
f 32 24 9
f 32 9 15
f 32 15 24
f 33 24 15
f 33 15 25
f 33 25 3
f 33 3 24
f 34 22 13
f 34 13 26
f 35 4 15
f 35 15 31
f 35 16 4
f 36 31 22
f 36 22 34
f 37 34 26
f 37 26 16
f 37 16 35
f 37 36 34
f 37 35 31
f 37 31 36

