# https://github.com/mikedh/trimesh
v 0.00650198 -0.01095723 0.21969698
v 0.00650198 -0.01095723 0.14393940
v 0.01391485 0.07370322 0.14186179
v -0.08440711 0.07995186 0.21969698
v -0.11471014 -0.01095723 0.21969698
v 0.00326341 0.06930175 0.21904649
v -0.10826303 -0.01384985 0.14071795
v -0.11471014 0.06480034 0.15909092
v -0.11298617 0.03988258 0.14777571
v -0.10815459 0.05287548 0.21435827
v -0.08440711 0.07995186 0.14393940
f 1 2 3
f 5 1 4
f 6 1 3
f 6 3 4
f 6 4 1
f 7 2 1
f 7 1 5
f 7 3 2
f 9 7 5
f 9 5 8
f 10 8 5
f 10 5 4
f 10 4 8
f 11 8 4
f 11 4 3
f 11 9 8
f 11 3 7
f 11 7 9

