# https://github.com/mikedh/trimesh
v 0.05195652 0.03449731 0.08333334
v 0.05195652 0.03449731 0.05303031
v 0.05050496 0.09257895 0.05254932
v -0.02380105 0.09510338 0.06818183
v -0.03895257 0.03449731 0.05303031
v 0.04858944 0.08864678 0.08217519
v -0.03895257 0.03449731 0.08333334
v -0.02380105 0.09510338 0.05303031
v -0.00864954 0.09510338 0.08333334
v -0.03895257 0.07995186 0.05303031
v -0.03994795 0.06618187 0.08704093
f 1 2 3
f 5 2 1
f 5 3 2
f 6 1 3
f 7 5 1
f 9 6 3
f 9 8 4
f 9 3 8
f 10 4 8
f 10 8 3
f 10 3 5
f 11 9 4
f 11 7 1
f 11 1 6
f 11 6 9
f 11 4 10
f 11 10 5
f 11 5 7

