# https://github.com/mikedh/trimesh
v 0.05195652 -0.10186632 -0.17424242
v 0.12771410 -0.02610875 -0.23484848
v 0.12771410 -0.04126026 -0.15909090
v 0.08225956 0.06480034 -0.15909090
v 0.00650198 -0.02610875 -0.24999999
v 0.12771410 0.04964883 -0.18939393
v 0.01184848 -0.07923613 -0.15824937
v 0.06710804 -0.10186632 -0.23484848
v 0.12771410 0.03449731 -0.15909090
v 0.06710804 0.06480034 -0.23484848
v 0.06710804 -0.08671481 -0.15909090
v -0.00218810 0.02745553 -0.15838996
v 0.12771410 -0.04126026 -0.21969696
v 0.08225956 -0.08671481 -0.17424242
v 0.03680501 -0.05641178 -0.24999999
v 0.02165349 -0.10186632 -0.23484848
v 0.06759782 0.04986001 -0.15729510
v 0.09741107 0.06480034 -0.23484848
v 0.02165349 -0.10186632 -0.17424242
v 0.09741107 -0.07156329 -0.15909090
v -0.00656632 0.01960226 -0.19990154
v 0.02165349 0.04964883 -0.15909090
v 0.11256259 -0.05641178 -0.23484848
v 0.06710804 -0.10186632 -0.20454545
v 0.02165349 -0.07156329 -0.24999999
v 0.09741107 0.06480034 -0.20454545
v 0.12301597 0.04414290 -0.23885896
v 0.00650198 -0.07156329 -0.24999999
v 0.02165349 0.03449731 -0.23484848
v 0.02165349 0.04964883 -0.20454545
v 0.02165349 0.00419428 -0.24999999
v -0.00296315 0.02695182 -0.17306513
v 0.03680501 0.04964883 -0.23484848
f 6 3 2
f 9 6 4
f 9 3 6
f 13 2 3
f 16 8 1
f 17 3 9
f 17 12 7
f 17 9 4
f 18 10 4
f 19 11 7
f 19 1 11
f 19 16 1
f 20 7 11
f 20 17 7
f 20 3 17
f 20 11 1
f 20 1 14
f 21 7 12
f 22 4 10
f 22 17 4
f 22 12 17
f 23 2 13
f 23 15 2
f 23 8 15
f 23 14 8
f 23 20 14
f 23 13 3
f 23 3 20
f 24 14 1
f 24 1 8
f 24 8 14
f 25 15 8
f 25 8 16
f 25 5 15
f 26 18 4
f 26 4 6
f 26 6 18
f 27 18 6
f 27 6 2
f 27 2 15
f 28 19 7
f 28 16 19
f 28 7 21
f 28 21 5
f 28 25 16
f 28 5 25
f 29 5 21
f 30 29 21
f 30 22 10
f 31 27 15
f 31 15 5
f 31 10 18
f 31 18 27
f 31 5 29
f 32 30 21
f 32 21 12
f 32 12 22
f 32 22 30
f 33 30 10
f 33 29 30
f 33 31 29
f 33 10 31

