# https://github.com/mikedh/trimesh
v 0.00650198 -0.10186632 0.40151516
v 0.02165349 -0.10186632 0.37121213
v 0.02165349 0.04964883 0.50757577
v -0.03895257 0.11025489 0.43181819
v -0.08440711 -0.01095723 0.34090910
v 0.02165349 0.07995186 0.34090910
v 0.02165349 -0.05641178 0.49242425
v -0.03895257 -0.08671481 0.34090910
v 0.02165349 0.11025489 0.44696971
v -0.03895257 0.09510338 0.35606061
v 0.02165349 -0.07156329 0.47727274
v -0.06925560 -0.01095723 0.49242425
v -0.00864954 -0.10186632 0.37121213
v 0.01605897 -0.07770422 0.34224710
v -0.03895257 0.09510338 0.47727274
v -0.03895257 0.07995186 0.34090910
v -0.08440711 0.07995186 0.40151516
v 0.02165349 0.11025489 0.37121213
v 0.02165349 -0.10186632 0.38636364
v -0.02380105 -0.04126026 0.50757577
v -0.08440711 -0.02610875 0.43181819
v -0.02380105 0.11025489 0.44696971
v 0.02165349 0.09510338 0.47727274
v -0.03895257 0.03449731 0.50757577
v -0.03895257 0.11025489 0.40151516
v -0.08440711 0.07995186 0.43181819
v -0.06925560 0.04964883 0.34090910
v 0.02165349 -0.02610875 0.50757577
v -0.03895257 -0.07156329 0.47727274
v -0.05410408 -0.07156329 0.34090910
v 0.00650198 0.07995186 0.49242425
v -0.03895257 -0.02610875 0.50757577
v -0.05410408 0.09510338 0.37121213
v -0.02380105 0.11025489 0.37121213
v -0.06925560 0.03449731 0.49242425
v -0.08440711 -0.01095723 0.46212122
v -0.08440711 0.00419428 0.34090910
v 0.00650198 -0.04126026 0.50757577
v -0.00864954 -0.10186632 0.40151516
v -0.08440711 -0.02610875 0.41666668
v -0.05410408 -0.07156329 0.41666668
v -0.02380105 0.04964883 0.50757577
v -0.05410408 -0.04126026 0.49242425
v -0.06925560 0.07995186 0.37121213
v -0.05410408 0.06480034 0.49242425
v -0.08440711 0.04964883 0.46212122
v -0.08440711 0.06480034 0.38636364
v -0.06925560 -0.04126026 0.46212122
v -0.03895257 -0.08671481 0.38636364
v -0.02380105 0.07995186 0.49242425
v -0.03895257 -0.05641178 0.49242425
v -0.06925560 0.06480034 0.47727274
f 6 3 2
f 7 2 3
f 8 5 6
f 9 3 6
f 11 2 7
f 13 8 2
f 13 2 1
f 14 8 6
f 14 6 2
f 14 2 8
f 16 10 6
f 16 6 5
f 18 9 6
f 18 6 10
f 18 4 9
f 19 11 1
f 19 1 2
f 19 2 11
f 21 17 5
f 22 15 9
f 22 9 4
f 22 4 15
f 23 3 9
f 23 9 15
f 24 20 3
f 25 17 4
f 25 4 18
f 26 15 4
f 26 4 17
f 26 17 21
f 27 16 5
f 28 7 3
f 28 3 20
f 29 1 11
f 29 11 7
f 30 5 8
f 31 23 15
f 31 3 23
f 32 24 12
f 32 20 24
f 33 17 25
f 33 10 16
f 33 16 27
f 34 25 18
f 34 18 10
f 34 33 25
f 34 10 33
f 35 12 24
f 36 26 21
f 36 12 35
f 37 27 5
f 37 5 17
f 38 28 20
f 38 20 7
f 38 7 28
f 39 13 1
f 39 1 29
f 39 8 13
f 40 30 21
f 40 21 5
f 40 5 30
f 41 21 30
f 41 30 8
f 42 24 3
f 42 3 31
f 43 20 32
f 43 32 12
f 43 12 36
f 44 33 27
f 44 17 33
f 45 35 24
f 45 24 42
f 46 36 35
f 46 26 36
f 47 37 17
f 47 27 37
f 47 44 27
f 47 17 44
f 48 41 29
f 48 21 41
f 48 29 43
f 48 43 36
f 48 36 21
f 49 39 29
f 49 29 41
f 49 41 8
f 49 8 39
f 50 42 31
f 50 31 15
f 50 45 42
f 50 15 45
f 51 43 29
f 51 20 43
f 51 29 7
f 51 7 20
f 52 45 15
f 52 15 26
f 52 26 46
f 52 46 35
f 52 35 45

