# https://github.com/mikedh/trimesh
v 0.20347168 -0.04126026 0.12878789
v 0.22923773 -0.03801163 0.00518030
v 0.20347168 0.03449731 0.12878789
v 0.12567440 0.03343285 0.14375347
v 0.12771410 -0.04126026 0.11363637
v 0.17316865 0.01934580 0.02272728
v 0.20347168 -0.01095723 0.14393940
v 0.18832016 -0.04126026 0.00757576
v 0.23377471 0.00419428 0.00757576
v 0.17316865 0.03449731 0.05303031
v 0.11324068 0.01652899 0.06604017
v 0.20347168 0.01934580 0.14393940
v 0.13174964 -0.03533111 0.14739654
v 0.23377471 -0.04126026 0.05303031
v 0.17316865 0.00419428 0.00757576
v 0.12771410 0.03449731 0.08333334
v 0.21862319 0.01934580 0.02272728
v 0.11923703 -0.00259463 0.06785403
v 0.18832016 -0.04126026 0.14393940
v 0.23377471 0.00419428 0.05303031
v 0.17316865 -0.02610875 0.00757576
v 0.14286562 0.03449731 0.06818183
v 0.20347168 0.03449731 0.06818183
v 0.14286562 -0.04126026 0.08333334
v 0.18832016 0.03449731 0.05303031
f 8 1 5
f 12 3 4
f 13 11 5
f 13 4 11
f 13 12 4
f 13 7 12
f 14 8 2
f 14 1 8
f 14 2 9
f 14 7 1
f 14 12 7
f 15 6 9
f 15 11 6
f 15 9 2
f 16 4 3
f 16 3 10
f 16 11 4
f 17 9 6
f 17 6 10
f 17 3 9
f 18 5 11
f 19 13 5
f 19 5 1
f 19 1 7
f 19 7 13
f 20 14 9
f 20 9 3
f 20 3 12
f 20 12 14
f 21 11 15
f 21 18 11
f 21 15 2
f 21 2 8
f 22 16 10
f 22 10 6
f 22 6 11
f 22 11 16
f 23 10 3
f 23 3 17
f 24 21 8
f 24 8 5
f 24 5 18
f 24 18 21
f 25 23 17
f 25 17 10
f 25 10 23

