# https://github.com/mikedh/trimesh
v 0.01184848 -0.07923613 -0.15824937
v 0.00976501 -0.07043048 -0.21916978
v 0.00650198 0.04964883 -0.15909090
v -0.06925560 0.06480034 -0.15909090
v -0.09955863 -0.07156329 -0.23484848
v -0.02380105 0.06480034 -0.15909090
v 0.01277761 -0.07917879 -0.18908375
v -0.09955863 -0.07156329 -0.15909090
v -0.03895257 0.06480034 -0.23484848
v 0.00650198 0.03449731 -0.21969696
v -0.03895257 -0.08671481 -0.23484848
v -0.11471014 0.01934580 -0.15909090
v -0.02380105 0.06480034 -0.20454545
v 0.00650198 0.04964883 -0.17424242
v -0.00864954 0.04964883 -0.23484848
v -0.08440711 -0.08671481 -0.15909090
v -0.11471014 -0.01095723 -0.15909090
v -0.11471014 0.03449731 -0.23484848
v -0.00864954 -0.07156329 -0.23484848
v -0.08440711 -0.08671481 -0.23484848
v -0.11471014 -0.01095723 -0.23484848
v -0.09955863 0.06480034 -0.21969696
v -0.11471014 0.03449731 -0.17424242
v -0.09955863 0.06480034 -0.23484848
f 6 1 3
f 6 4 1
f 7 3 1
f 9 4 6
f 10 7 2
f 11 2 7
f 11 5 9
f 11 7 1
f 12 1 4
f 13 9 6
f 13 6 3
f 14 3 7
f 14 7 10
f 14 13 3
f 15 10 2
f 15 9 13
f 15 14 10
f 15 13 14
f 15 11 9
f 16 8 5
f 16 11 1
f 16 1 8
f 17 8 1
f 17 1 12
f 17 5 8
f 18 9 5
f 18 17 12
f 19 15 2
f 19 2 11
f 19 11 15
f 20 16 5
f 20 5 11
f 20 11 16
f 21 18 5
f 21 5 17
f 21 17 18
f 22 4 9
f 23 22 18
f 23 18 12
f 23 12 4
f 23 4 22
f 24 22 9
f 24 9 18
f 24 18 22

