# https://github.com/mikedh/trimesh
v 0.21862319 -0.08671481 -0.05303030
v 0.24892622 -0.07156329 -0.08333333
v 0.24892622 -0.04126026 0.00757576
v 0.18832016 0.00419428 -0.00757575
v 0.18832016 -0.02610875 -0.09848484
v 0.18832016 -0.04126026 0.00757576
v 0.24892622 -0.07156329 -0.02272727
v 0.20347168 -0.07156329 -0.09848484
v 0.24892622 -0.01095723 -0.06818181
v 0.19528699 -0.00348945 0.01422537
v 0.20347168 -0.07156329 -0.00757575
v 0.23377471 -0.04126026 -0.09848484
v 0.21862319 -0.08671481 -0.06818181
v 0.18832016 -0.05641178 -0.09848484
v 0.18832016 -0.01095723 -0.08333333
v 0.23377471 -0.05641178 0.00757576
v 0.23377471 0.00419428 0.00757576
v 0.23377471 -0.07156329 -0.00757575
v 0.21862319 -0.07156329 -0.09848484
v 0.24892622 -0.02610875 -0.08333333
v 0.20347168 -0.08671481 -0.05303030
v 0.23377471 -0.01095723 -0.08333333
v 0.20347168 -0.05641178 0.00757576
v 0.24892622 -0.01095723 0.00757576
v 0.23377471 -0.05641178 -0.09848484
v 0.18832016 -0.05641178 -0.06818181
v 0.20347168 -0.08671481 -0.06818181
v 0.21862319 -0.02610875 -0.09848484
v 0.20347168 0.00419428 -0.02272727
v 0.23377471 0.00419428 -0.02272727
f 6 4 5
f 7 1 2
f 7 2 3
f 9 3 2
f 10 4 6
f 12 8 5
f 13 2 1
f 14 6 5
f 14 5 8
f 15 5 4
f 16 3 10
f 16 7 3
f 17 4 10
f 18 11 1
f 18 1 7
f 18 16 11
f 18 7 16
f 19 8 12
f 19 13 8
f 19 2 13
f 20 9 2
f 20 2 12
f 21 11 6
f 21 1 11
f 21 13 1
f 22 5 15
f 22 9 20
f 23 16 10
f 23 10 6
f 23 6 11
f 23 11 16
f 24 17 10
f 24 10 3
f 24 3 9
f 24 9 17
f 25 19 12
f 25 12 2
f 25 2 19
f 26 21 6
f 26 6 14
f 26 14 21
f 27 21 14
f 27 14 8
f 27 8 13
f 27 13 21
f 28 12 5
f 28 5 22
f 28 22 20
f 28 20 12
f 29 22 15
f 29 15 4
f 29 4 17
f 30 17 9
f 30 9 22
f 30 29 17
f 30 22 29

