# https://github.com/mikedh/trimesh
v 0.05195652 -0.07156329 0.23484849
v 0.06572002 -0.05014110 0.21793563
v 0.06447138 0.05571684 0.26181895
v -0.08440711 0.07995186 0.25000001
v -0.13386036 -0.01980746 0.21549130
v 0.06710804 0.07995186 0.21969698
v -0.11471014 -0.04126026 0.26515152
v 0.06710804 -0.05641178 0.26515152
v -0.03895257 -0.07156329 0.21969698
v 0.06710804 0.07995186 0.25000001
v -0.08440711 0.07995186 0.21969698
v -0.13361179 0.02821347 0.21363435
v -0.09955863 0.06480034 0.26515152
v 0.05195652 -0.07156329 0.21969698
v -0.05410408 -0.05641178 0.26515152
v -0.12394224 -0.03301213 0.21633520
v -0.10815459 0.05287548 0.21435827
v -0.14501317 0.01934580 0.25000001
v -0.11471014 0.06480034 0.23484849
v -0.05410408 0.07995186 0.26515152
v -0.03895257 -0.07156329 0.23484849
v -0.12986166 -0.04126026 0.25000001
v -0.14501317 -0.02610875 0.23484849
v -0.12986166 0.03449731 0.26515152
v -0.14501317 0.03449731 0.23484849
v -0.02380105 0.07995186 0.26515152
v -0.08440711 -0.05641178 0.25000001
v -0.12986166 -0.02610875 0.26515152
v -0.14501317 -0.01095723 0.25000001
f 8 2 6
f 10 6 4
f 10 8 6
f 10 3 8
f 11 4 6
f 12 2 5
f 13 7 8
f 14 8 1
f 14 2 8
f 14 1 9
f 15 8 7
f 15 1 8
f 16 5 2
f 16 14 9
f 16 2 14
f 17 6 2
f 17 2 12
f 17 11 6
f 19 13 4
f 19 4 11
f 19 17 12
f 19 11 17
f 20 10 4
f 20 4 13
f 20 13 8
f 21 9 1
f 21 1 15
f 22 16 9
f 23 12 5
f 23 5 16
f 23 16 22
f 24 7 13
f 24 13 19
f 25 19 12
f 25 24 19
f 25 18 24
f 25 23 18
f 25 12 23
f 26 3 10
f 26 10 20
f 26 20 8
f 26 8 3
f 27 21 15
f 27 15 7
f 27 7 22
f 27 22 9
f 27 9 21
f 28 22 7
f 28 24 18
f 28 7 24
f 29 28 18
f 29 18 23
f 29 23 22
f 29 22 28

