# https://github.com/mikedh/trimesh
v 0.06710804 -0.01095723 0.21969698
v 0.06710804 -0.01095723 0.14393940
v 0.06710804 0.07995186 0.21969698
v 0.02165349 0.09510338 0.15909092
v 0.00650198 -0.01095723 0.21969698
v 0.04858944 0.08864678 0.08217519
v 0.00326341 0.06930175 0.21904649
v 0.06710804 0.03449731 0.14393940
v 0.05195652 0.09510338 0.15909092
v 0.00650198 0.03449731 0.08333334
v 0.05195652 0.03449731 0.08333334
v 0.00650198 0.09510338 0.14393940
v 0.00650198 -0.01095723 0.14393940
v 0.00920105 0.08428093 0.08265434
f 1 2 3
f 5 2 1
f 5 1 3
f 7 5 3
f 7 3 4
f 8 6 3
f 8 3 2
f 9 4 3
f 9 3 6
f 11 8 2
f 11 6 8
f 11 10 6
f 11 2 10
f 12 9 6
f 12 4 9
f 12 10 7
f 12 7 4
f 13 5 7
f 13 7 10
f 13 10 2
f 13 2 5
f 14 12 6
f 14 6 10
f 14 10 12

