# https://github.com/mikedh/trimesh
v -0.12105083 -0.06661389 -0.48651591
v -0.08440711 -0.02610875 -0.50757575
v -0.06925560 0.03449731 -0.41666666
v -0.11471014 0.11025489 -0.46212121
v -0.17531620 0.01934580 -0.50757575
v -0.06925560 0.09510338 -0.49242424
v -0.09955863 -0.05641178 -0.47727272
v -0.16016469 -0.07156329 -0.50757575
v -0.12986166 0.07995186 -0.41666666
v -0.06925560 0.03449731 -0.47727272
v -0.06925560 0.09510338 -0.41666666
v -0.12986166 0.11025489 -0.50757575
v -0.09955863 -0.05641178 -0.50757575
v -0.08440711 -0.02610875 -0.47727272
v -0.16016469 -0.07156329 -0.47727272
v -0.06925560 0.04964883 -0.49242424
v -0.08440711 0.11025489 -0.50757575
v -0.11471014 0.09510338 -0.41666666
v -0.12986166 0.11025489 -0.47727272
v -0.11972396 -0.06690905 -0.49055378
v -0.08440711 0.01934580 -0.41666666
v -0.17531620 -0.05641178 -0.47727272
v -0.08440711 0.11025489 -0.46212121
v -0.12986166 0.09510338 -0.43181818
v -0.12986166 -0.07156329 -0.50757575
v -0.17531620 0.01934580 -0.47727272
v -0.17531620 -0.05641178 -0.50757575
v -0.12986166 0.03449731 -0.41666666
v -0.14501317 0.07995186 -0.46212121
v -0.11471014 0.01934580 -0.41666666
f 8 5 2
f 10 6 3
f 10 3 2
f 11 3 6
f 11 9 3
f 12 2 5
f 13 2 7
f 13 8 2
f 14 7 2
f 14 2 3
f 14 3 7
f 15 1 7
f 16 10 2
f 16 2 6
f 16 6 10
f 17 11 6
f 17 12 4
f 17 6 2
f 17 2 12
f 18 11 4
f 18 9 11
f 19 4 12
f 19 18 4
f 19 12 5
f 20 13 7
f 20 7 1
f 21 15 7
f 21 7 3
f 21 3 9
f 22 8 15
f 23 17 4
f 23 4 11
f 23 11 17
f 24 9 18
f 24 18 19
f 25 8 13
f 25 13 20
f 25 15 8
f 25 20 1
f 25 1 15
f 26 22 9
f 26 5 22
f 26 9 24
f 26 19 5
f 27 22 5
f 27 5 8
f 27 8 22
f 28 21 9
f 28 9 22
f 29 26 24
f 29 24 19
f 29 19 26
f 30 15 21
f 30 21 28
f 30 28 22
f 30 22 15

