# https://github.com/mikedh/trimesh
v 0.03680501 -0.08671481 0.38636364
v 0.08225956 0.00419428 0.35606061
v 0.06710804 -0.04126026 0.47727274
v 0.03680501 0.11025489 0.41666668
v 0.01798013 -0.03785837 0.31426588
v 0.08225956 0.06480034 0.44696971
v 0.01343062 0.00397977 0.49515429
v 0.05195652 -0.07156329 0.32575758
v 0.03680501 0.07995186 0.34090910
v 0.08225956 -0.02610875 0.44696971
v 0.03680501 -0.07156329 0.46212122
v 0.01139471 -0.08238653 0.38241775
v 0.02165349 0.09510338 0.35606061
v 0.03680501 0.06480034 0.49242425
v 0.03680501 -0.04126026 0.31060607
v 0.08225956 0.03449731 0.35606061
v 0.08225956 -0.01095723 0.46212122
v 0.08225956 -0.02610875 0.43181819
v 0.05195652 -0.07156329 0.41666668
v 0.03680501 -0.04126026 0.49242425
v 0.01346500 -0.03898669 0.48467153
v 0.03680501 -0.08671481 0.32575758
v 0.02165349 0.06480034 0.49242425
v 0.02055519 0.09658781 0.40295201
v 0.01433495 -0.07751673 0.33051332
v 0.02165349 0.07995186 0.34090910
v 0.05195652 0.09510338 0.37121213
v 0.05195652 0.07995186 0.47727274
v 0.05195652 0.06480034 0.34090910
v 0.03680501 0.03449731 0.50757577
v 0.05195652 -0.05641178 0.47727274
v 0.02098559 -0.06427960 0.45817711
v 0.03680501 0.00419428 0.50757577
v 0.03680501 -0.07156329 0.31060607
v 0.02015833 0.06760243 0.46915255
v 0.02303929 0.09651064 0.41322109
v 0.03680501 0.11025489 0.40151516
v 0.03680501 0.09510338 0.35606061
v 0.08225956 0.06480034 0.41666668
v 0.05195652 0.09510338 0.44696971
v 0.06710804 0.01934580 0.34090910
v 0.02165349 0.03449731 0.50757577
v 0.06710804 0.06480034 0.47727274
v 0.05195652 -0.02610875 0.49242425
v 0.02165349 -0.07156329 0.31060607
v 0.08225956 0.03449731 0.46212122
f 10 2 6
f 12 1 11
f 16 6 2
f 16 2 15
f 17 10 6
f 17 3 10
f 18 10 8
f 18 8 2
f 18 2 10
f 19 10 3
f 19 1 8
f 19 8 10
f 19 11 1
f 21 7 12
f 21 11 20
f 22 8 1
f 22 1 12
f 24 13 12
f 24 12 7
f 25 22 12
f 26 13 9
f 26 5 25
f 26 25 12
f 26 12 13
f 26 15 5
f 26 9 15
f 28 23 14
f 28 4 23
f 29 15 9
f 29 27 16
f 29 9 27
f 30 14 23
f 30 28 14
f 31 19 3
f 31 11 19
f 31 20 11
f 31 3 20
f 32 21 12
f 32 12 11
f 32 11 21
f 33 21 20
f 33 17 30
f 34 8 22
f 34 15 2
f 34 2 8
f 35 24 7
f 35 7 23
f 35 23 24
f 36 24 23
f 36 23 4
f 36 4 24
f 37 24 4
f 37 13 24
f 37 4 6
f 38 27 9
f 38 9 13
f 38 37 27
f 38 13 37
f 39 6 16
f 39 16 27
f 39 37 6
f 39 27 37
f 40 28 6
f 40 6 4
f 40 4 28
f 41 29 16
f 41 16 15
f 41 15 29
f 42 30 23
f 42 23 7
f 42 33 30
f 42 7 21
f 42 21 33
f 43 6 28
f 43 28 30
f 44 33 20
f 44 20 3
f 44 3 17
f 44 17 33
f 45 5 15
f 45 15 34
f 45 25 5
f 45 34 22
f 45 22 25
f 46 17 6
f 46 6 43
f 46 43 30
f 46 30 17

