# https://github.com/mikedh/trimesh
v -0.05410408 -0.01095723 -0.28030303
v -0.03895257 0.01934580 -0.32575757
v -0.03895257 0.07995186 -0.28030303
v -0.09955863 0.09510338 -0.29545454
v -0.12986166 0.03449731 -0.41666666
v -0.11471014 0.07995186 -0.28030303
v -0.03895257 0.00419428 -0.28030303
v -0.08440711 0.01934580 -0.41666666
v -0.09955863 -0.01095723 -0.28030303
v -0.12986166 0.07995186 -0.41666666
v -0.03895257 0.00419428 -0.29545454
v -0.06925560 0.09510338 -0.41666666
v -0.12986166 0.03449731 -0.31060605
v -0.05410408 -0.01095723 -0.29545454
v -0.11471014 0.01934580 -0.41666666
v -0.11471014 0.09510338 -0.34090909
v -0.03895257 0.06480034 -0.34090909
v -0.06925560 0.03449731 -0.41666666
v -0.06925560 0.09510338 -0.29545454
v -0.11471014 0.00419428 -0.34090909
v -0.12986166 0.06480034 -0.31060605
v -0.09955863 -0.01095723 -0.29545454
v -0.11471014 0.09510338 -0.41666666
v -0.03895257 0.07995186 -0.32575757
v -0.05410408 0.03449731 -0.38636363
v -0.12986166 0.07995186 -0.38636363
v -0.05410408 0.07995186 -0.38636363
v -0.03895257 0.03449731 -0.34090909
f 6 1 3
f 6 3 4
f 7 2 3
f 7 3 1
f 9 1 6
f 10 8 5
f 11 7 1
f 11 2 7
f 11 8 2
f 12 8 10
f 13 9 6
f 13 10 5
f 14 1 9
f 14 11 1
f 14 8 11
f 15 5 8
f 15 8 14
f 16 6 4
f 16 4 12
f 17 3 2
f 18 2 8
f 18 8 12
f 19 12 4
f 19 4 3
f 19 3 12
f 20 13 5
f 20 9 13
f 20 5 15
f 21 13 6
f 21 10 13
f 21 6 16
f 22 15 14
f 22 14 9
f 22 20 15
f 22 9 20
f 23 16 12
f 23 12 10
f 23 10 16
f 24 12 3
f 24 3 17
f 25 2 18
f 25 18 12
f 26 21 16
f 26 16 10
f 26 10 21
f 27 24 17
f 27 12 24
f 27 25 12
f 27 17 25
f 28 25 17
f 28 17 2
f 28 2 25

