# https://github.com/mikedh/trimesh
v 0.05195652 0.03449731 0.05303031
v 0.05195652 0.03449731 -0.09848484
v 0.05050496 0.09257895 0.05254932
v 0.00650198 0.11025489 0.02272728
v 0.00650198 0.03449731 0.05303031
v 0.03680501 0.11025489 -0.09848484
v 0.00826743 0.08798907 0.05161224
v 0.04879273 0.09014901 -0.09566062
v 0.03680501 0.11025489 0.02272728
v 0.00641989 0.03907608 -0.10538424
v 0.00650198 0.11025489 -0.09848484
f 1 2 3
f 5 2 1
f 5 1 3
f 7 5 3
f 7 3 4
f 7 4 5
f 8 6 3
f 8 3 2
f 8 2 6
f 9 6 4
f 9 4 3
f 9 3 6
f 10 5 4
f 10 6 2
f 10 2 5
f 11 10 4
f 11 4 6
f 11 6 10

