# https://github.com/mikedh/trimesh
v 0.18832016 -0.08671481 -0.47727272
v 0.21862319 -0.05641178 -0.50757575
v 0.17316865 0.06480034 -0.41666666
v 0.12771410 0.09510338 -0.44696969
v 0.12771410 -0.01095723 -0.50757575
v 0.18832016 0.07995186 -0.50757575
v 0.11256259 0.01934580 -0.41666666
v 0.21862319 -0.02610875 -0.46212121
v 0.15801713 -0.08671481 -0.50757575
v 0.17316865 0.09510338 -0.46212121
v 0.12771410 0.09510338 -0.50757575
v 0.12121161 0.07125250 -0.41122628
v 0.21862319 -0.05641178 -0.47727272
v 0.17316865 0.01934580 -0.41666666
v 0.21862319 0.01934580 -0.49242424
v 0.18832016 -0.08671481 -0.50757575
v 0.14286562 -0.07156329 -0.50757575
v 0.15801713 -0.08671481 -0.47727272
v 0.15801713 0.09510338 -0.44696969
v 0.17316865 0.09510338 -0.50757575
v 0.11256259 0.07995186 -0.47727272
v 0.20347168 -0.05641178 -0.46212121
v 0.21862319 0.00419428 -0.50757575
v 0.18832016 0.07995186 -0.46212121
v 0.21862319 0.00419428 -0.46212121
v 0.11256259 0.01934580 -0.47727272
v 0.14286562 -0.07156329 -0.47727272
v 0.17316865 0.07995186 -0.43181818
v 0.21862319 0.01934580 -0.47727272
f 6 2 5
f 9 5 2
f 11 6 5
f 11 4 10
f 13 1 2
f 13 2 8
f 14 7 1
f 14 8 3
f 14 12 7
f 14 3 12
f 15 8 2
f 16 9 2
f 16 2 1
f 16 1 9
f 17 5 9
f 18 9 1
f 18 1 7
f 18 17 9
f 19 10 4
f 19 4 12
f 20 11 10
f 20 10 6
f 20 6 11
f 21 11 5
f 21 7 12
f 21 12 4
f 21 4 11
f 22 13 8
f 22 1 13
f 22 14 1
f 22 8 14
f 23 15 2
f 23 2 6
f 23 6 15
f 24 15 6
f 24 6 10
f 25 3 8
f 25 8 15
f 25 24 3
f 26 17 7
f 26 5 17
f 26 21 5
f 26 7 21
f 27 18 7
f 27 7 17
f 27 17 18
f 28 10 19
f 28 24 10
f 28 3 24
f 28 19 12
f 28 12 3
f 29 25 15
f 29 15 24
f 29 24 25

