# https://github.com/mikedh/trimesh
v 0.09741107 -0.08671481 0.11363637
v 0.12771410 -0.04126026 -0.15909090
v 0.13174964 -0.03533111 0.14739654
v 0.08074496 0.05837936 0.14495564
v 0.08174742 -0.05580949 -0.15931597
v 0.12771410 0.04964883 0.11363637
v 0.07440768 -0.06205707 0.14236494
v 0.12771410 -0.07156329 -0.11363636
v 0.08157363 0.04813191 -0.15874498
v 0.12771410 0.03449731 -0.15909090
v 0.11256259 0.06480034 0.14393940
v 0.09741107 -0.07156329 0.14393940
v 0.08225956 -0.08671481 -0.11363636
v 0.12771410 -0.07156329 0.02272728
v 0.07451473 0.07419437 0.02310748
v 0.12118483 0.04096683 0.14654340
v 0.11256259 0.06480034 -0.06818181
v 0.11256259 -0.07156329 0.12878789
v 0.07392638 -0.07579772 0.11093988
v 0.11256259 -0.08671481 -0.11363636
v 0.09741107 0.07995186 0.02272728
v 0.07454032 0.07213729 -0.00585418
v 0.09741107 0.06480034 -0.11363636
v 0.11256259 -0.08671481 0.02272728
v 0.11256259 -0.05641178 -0.15909090
v 0.09741107 0.07995186 -0.00757575
f 7 3 4
f 8 2 3
f 10 6 3
f 10 3 2
f 10 2 5
f 10 5 9
f 12 7 1
f 12 3 7
f 14 8 3
f 15 7 4
f 16 11 4
f 16 4 3
f 16 3 6
f 16 6 11
f 17 11 6
f 17 6 10
f 18 12 1
f 18 3 12
f 18 14 3
f 19 5 13
f 19 7 15
f 19 13 1
f 19 1 7
f 20 1 13
f 20 8 14
f 21 15 4
f 21 4 11
f 21 11 17
f 22 9 5
f 22 19 15
f 22 5 19
f 23 17 10
f 23 10 9
f 23 9 22
f 24 18 1
f 24 14 18
f 24 20 14
f 24 1 20
f 25 20 13
f 25 13 5
f 25 5 2
f 25 2 8
f 25 8 20
f 26 22 15
f 26 15 21
f 26 23 22
f 26 21 17
f 26 17 23

