# https://github.com/mikedh/trimesh
v 0.00650198 -0.10186632 0.11363637
v 0.00492470 -0.07258994 -0.15919537
v 0.01391485 0.07370322 0.14186179
v -0.00864954 0.09510338 0.11363637
v -0.03895257 -0.10186632 -0.11363636
v 0.00664426 0.09416884 -0.09790665
v -0.03927297 -0.07288142 0.14406945
v 0.00641688 -0.09585329 -0.10232340
v 0.00650198 0.04964883 -0.15909090
v 0.01225826 0.08195003 0.11097935
v -0.04255742 0.04702970 -0.16052488
v 0.00584457 -0.07736602 0.14473505
v -0.04015151 0.07531462 0.14487332
v -0.03895257 -0.10186632 0.09848486
v -0.03895257 0.06480034 -0.14393939
v -0.04140268 -0.06676631 -0.15950232
v -0.02380105 -0.10186632 0.11363637
v -0.00864954 0.06480034 -0.14393939
v -0.03895257 0.09510338 0.02272728
v -0.03055908 0.08332065 -0.09696154
f 8 3 1
f 8 5 2
f 8 1 5
f 9 6 3
f 9 8 2
f 9 3 8
f 10 6 4
f 10 4 3
f 10 3 6
f 11 9 2
f 12 1 3
f 13 3 4
f 13 11 7
f 13 12 3
f 13 7 12
f 14 5 1
f 15 9 11
f 16 11 2
f 16 2 5
f 16 5 14
f 16 14 7
f 16 7 11
f 17 12 7
f 17 1 12
f 17 14 1
f 17 7 14
f 18 15 6
f 18 6 9
f 18 9 15
f 19 15 11
f 19 11 13
f 19 13 4
f 19 4 6
f 20 19 6
f 20 6 15
f 20 15 19

