# https://github.com/mikedh/trimesh
v 0.12771410 -0.02610875 -0.23484848
v 0.15181629 0.02682162 -0.41763390
v 0.15801713 0.06480034 -0.28030303
v 0.09741107 0.07995186 -0.26515151
v 0.03396882 -0.02430037 -0.23740296
v 0.14934132 0.07128567 -0.42060412
v 0.14286562 0.03449731 -0.21969696
v 0.15801713 0.00419428 -0.28030303
v 0.11256259 -0.01095723 -0.32575757
v 0.15801713 0.07995186 -0.32575757
v 0.09741107 0.07995186 -0.38636363
v 0.12771410 0.06480034 -0.23484848
v 0.12421697 0.00468060 -0.21803982
v 0.15801713 0.00419428 -0.35606060
v 0.14286562 0.00419428 -0.21969696
v 0.15801713 0.01934580 -0.26515151
v 0.11256259 0.01934580 -0.41666666
v 0.08225956 -0.02610875 -0.26515151
v 0.03680501 0.03449731 -0.24999999
v 0.14286562 0.06480034 -0.24999999
v 0.14286562 0.07995186 -0.28030303
v 0.03593455 -0.02573317 -0.23463236
v 0.14286562 -0.01095723 -0.32575757
v 0.14286562 -0.01095723 -0.24999999
v 0.15801713 0.03449731 -0.26515151
v 0.09741107 0.06480034 -0.40151515
v 0.08225956 0.07995186 -0.32575757
v 0.08225956 0.06480034 -0.23484848
v 0.12771410 0.07995186 -0.26515151
v 0.04408875 0.02939262 -0.23091441
v 0.12771410 -0.02610875 -0.26515151
v 0.12121161 0.07125250 -0.41122628
v 0.09741107 0.03449731 -0.40151515
v 0.06710804 0.06480034 -0.31060605
v 0.06710804 0.06480034 -0.24999999
v 0.05729972 0.04053702 -0.23155785
v 0.08225956 0.07995186 -0.29545454
f 10 2 6
f 10 3 8
f 11 10 6
f 11 4 10
f 14 8 1
f 14 10 8
f 14 2 10
f 15 13 1
f 15 7 13
f 16 8 3
f 16 15 8
f 16 7 15
f 17 6 2
f 18 17 9
f 20 12 7
f 20 7 3
f 21 10 4
f 21 12 20
f 21 20 3
f 21 3 10
f 22 1 13
f 22 18 1
f 22 5 17
f 22 17 18
f 23 9 17
f 23 17 2
f 23 2 14
f 23 18 9
f 24 15 1
f 24 1 8
f 24 8 15
f 25 16 3
f 25 3 7
f 25 7 16
f 27 4 11
f 28 12 4
f 28 7 12
f 29 21 4
f 29 4 12
f 29 12 21
f 30 19 5
f 30 5 22
f 30 22 13
f 30 13 7
f 31 1 18
f 31 18 23
f 31 23 14
f 31 14 1
f 32 26 11
f 32 11 6
f 32 6 17
f 32 17 26
f 33 26 17
f 33 17 5
f 33 5 19
f 33 19 26
f 34 27 11
f 34 26 19
f 34 11 26
f 35 30 28
f 35 19 30
f 35 34 19
f 35 27 34
f 35 28 4
f 36 30 7
f 36 7 28
f 36 28 30
f 37 35 4
f 37 4 27
f 37 27 35

