# https://github.com/mikedh/trimesh
v 0.05195652 -0.10186632 0.12878789
v 0.08225956 -0.08671481 -0.11363636
v 0.08225956 0.03449731 0.14393940
v 0.00650198 0.03449731 0.14393940
v 0.00492470 -0.07258994 -0.15919537
v 0.08225956 -0.08671481 0.14393940
v 0.00641688 -0.09585329 -0.10232340
v 0.08381718 0.04761266 -0.15871589
v 0.00584457 -0.07736602 0.14473505
v 0.08225956 -0.10186632 -0.00757575
v 0.06710804 -0.10186632 -0.11363636
v 0.07565437 -0.06117338 -0.16238052
v -0.00218810 0.02745553 -0.15838996
v 0.02165349 -0.10186632 0.12878789
v 0.08225956 -0.10186632 0.03787879
v 0.00650198 -0.10186632 0.11363637
f 8 3 6
f 8 4 3
f 9 6 3
f 9 3 4
f 10 2 8
f 11 7 5
f 11 2 10
f 11 10 1
f 12 8 2
f 12 11 5
f 12 2 11
f 13 4 8
f 13 9 4
f 13 5 7
f 13 12 5
f 13 8 12
f 14 1 6
f 14 6 9
f 14 11 1
f 15 6 1
f 15 1 10
f 15 10 8
f 15 8 6
f 16 13 7
f 16 9 13
f 16 14 9
f 16 7 11
f 16 11 14

