# https://github.com/mikedh/trimesh
v -0.02570653 -0.02801151 -0.22987095
v -0.00864954 -0.01095723 -0.24999999
v -0.03895257 0.06480034 -0.23484848
v -0.09955863 0.07995186 -0.24999999
v -0.09955863 -0.01095723 -0.28030303
v -0.06129831 0.06876896 -0.28272138
v -0.09449058 -0.02832919 -0.22804552
v -0.01942538 0.02843887 -0.23383024
v -0.05410408 -0.02610875 -0.26515151
v -0.05410408 0.07995186 -0.24999999
v -0.10474412 0.05924902 -0.28404494
v -0.02967701 0.04180833 -0.23226460
v -0.11471014 0.04964883 -0.23484848
v -0.01658625 -0.00860442 -0.23091124
v -0.00864954 0.03449731 -0.24999999
v -0.03895257 -0.02610875 -0.24999999
v -0.08440711 -0.02610875 -0.26515151
v -0.03895257 0.00419428 -0.28030303
v -0.09446787 0.07108137 -0.28333140
v -0.09955863 0.06480034 -0.23484848
v -0.11471014 0.06480034 -0.24999999
v -0.11471014 0.00419428 -0.23484848
v -0.09955863 -0.02610875 -0.24999999
v -0.05410408 -0.01095723 -0.28030303
v -0.04985714 0.05788758 -0.28143769
v -0.10357359 0.01180145 -0.28072849
f 9 1 7
f 10 4 3
f 12 7 1
f 12 8 3
f 14 1 2
f 14 12 1
f 14 8 12
f 15 3 8
f 15 10 3
f 15 6 10
f 15 14 2
f 15 8 14
f 16 9 2
f 16 2 1
f 16 1 9
f 17 9 7
f 17 5 9
f 18 15 2
f 18 11 6
f 19 10 6
f 19 4 10
f 19 6 11
f 20 3 4
f 20 4 13
f 20 12 3
f 20 13 7
f 20 7 12
f 21 13 4
f 21 19 11
f 21 4 19
f 22 7 13
f 22 13 21
f 23 17 7
f 23 5 17
f 23 22 5
f 23 7 22
f 24 18 2
f 24 2 9
f 24 9 5
f 24 5 11
f 24 11 18
f 25 18 6
f 25 6 15
f 25 15 18
f 26 22 21
f 26 21 11
f 26 11 5
f 26 5 22

