# https://github.com/mikedh/trimesh
v 0.12771410 -0.05641178 0.23484849
v 0.18832016 -0.04126026 0.14393940
v 0.12771410 0.03449731 0.28030304
v 0.06710804 0.06480034 0.28030304
v 0.07151962 -0.06364894 0.14525108
v 0.15801713 0.04964883 0.14393940
v 0.06710804 -0.04126026 0.29545455
v 0.15801713 -0.02610875 0.23484849
v 0.15801713 -0.05641178 0.15909092
v 0.18832016 0.03449731 0.15909092
v 0.06696240 0.06472452 0.14393038
v 0.08225956 0.03449731 0.31060607
v 0.06710804 -0.05641178 0.25000001
v 0.18832016 -0.04126026 0.15909092
v 0.09741107 -0.04126026 0.29545455
v 0.14286562 -0.05641178 0.14393940
v 0.15801713 -0.05641178 0.18939395
v 0.18004749 0.02498706 0.13851062
v 0.15801713 0.01934580 0.23484849
v 0.11256259 0.06480034 0.21969698
v 0.06084344 0.02830491 0.30176057
v 0.09741107 0.04964883 0.29545455
v 0.08225956 -0.05641178 0.25000001
v 0.18832016 0.00419428 0.17424243
v 0.14286562 -0.04126026 0.25000001
v 0.08225956 -0.01095723 0.31060607
v 0.14286562 -0.05641178 0.21969698
v 0.11256259 0.06480034 0.14393940
v 0.15801713 0.04964883 0.17424243
v 0.06110509 -0.00661042 0.30102994
v 0.11256259 0.03449731 0.29545455
v 0.08225956 0.06480034 0.28030304
v 0.11256259 0.04964883 0.28030304
v 0.17316865 -0.02610875 0.20454546
v 0.18832016 0.01934580 0.17424243
v 0.12771410 -0.02610875 0.28030304
v 0.14286562 0.04964883 0.21969698
v 0.11256259 -0.02610875 0.29545455
f 14 2 10
f 14 9 2
f 15 7 13
f 16 9 5
f 16 2 9
f 17 5 9
f 17 9 14
f 18 10 2
f 18 6 10
f 18 2 16
f 18 16 5
f 18 5 11
f 19 10 3
f 19 3 8
f 21 4 11
f 21 12 4
f 22 4 12
f 23 13 5
f 23 5 1
f 23 15 13
f 23 1 15
f 24 14 10
f 24 19 8
f 25 17 14
f 25 14 8
f 26 7 15
f 26 12 21
f 27 1 5
f 27 5 17
f 27 17 25
f 27 25 15
f 27 15 1
f 28 18 11
f 28 6 18
f 28 20 6
f 28 11 4
f 28 4 20
f 29 10 6
f 29 6 20
f 30 13 7
f 30 26 21
f 30 7 26
f 30 5 13
f 30 21 11
f 30 11 5
f 31 22 12
f 31 3 22
f 31 12 26
f 32 20 4
f 32 4 22
f 33 22 3
f 33 3 10
f 33 32 22
f 33 20 32
f 34 24 8
f 34 8 14
f 34 14 24
f 35 24 10
f 35 10 19
f 35 19 24
f 36 25 8
f 36 8 3
f 36 3 31
f 37 33 10
f 37 10 29
f 37 29 20
f 37 20 33
f 38 36 31
f 38 31 26
f 38 26 15
f 38 15 25
f 38 25 36

