# https://github.com/mikedh/trimesh
v 0.05050869 -0.08426918 -0.10305857
v 0.06710804 -0.08671481 -0.15909090
v 0.06186978 -0.06461098 -0.14717282
v -0.00781162 -0.07134806 -0.10624069
v -0.00864954 -0.08671481 -0.15909090
v 0.04918327 -0.06627192 -0.11430857
v 0.06710804 -0.08671481 -0.14393939
v -0.00815809 -0.08577945 -0.10509425
v 0.06430633 -0.06803784 -0.16030400
v 0.00299796 -0.06814683 -0.15815271
f 6 1 3
f 6 4 1
f 7 3 1
f 7 5 2
f 8 1 4
f 8 4 5
f 8 7 1
f 8 5 7
f 9 2 5
f 9 7 2
f 9 3 7
f 10 5 4
f 10 9 5
f 10 3 9
f 10 6 3
f 10 4 6

