# https://github.com/mikedh/trimesh
v -0.20561923 -0.07156329 0.02272728
v -0.12986166 -0.01095723 0.06818183
v -0.20561923 -0.02610875 0.08333334
v -0.20561923 0.03449731 0.08333334
v -0.17531620 0.00419428 0.00757576
v -0.13894605 -0.00569871 0.08970785
v -0.23592226 -0.05641178 0.03787879
v -0.17531620 -0.04126026 0.00757576
v -0.14501317 0.03449731 0.06818183
v -0.15083595 0.02533211 0.09019965
v -0.17531620 -0.04126026 0.06818183
v -0.22077075 -0.02610875 0.06818183
v -0.23592226 0.00419428 0.00757576
v -0.16016469 -0.02610875 0.02272728
v -0.14501317 -0.02610875 0.05303031
v -0.12986166 0.01934580 0.06818183
v -0.20561923 -0.04126026 0.06818183
v -0.21191189 -0.06414614 -0.00387468
v -0.22077075 0.01934580 0.02272728
v -0.22077075 0.01934580 0.06818183
v -0.16016469 0.00419428 0.02272728
v -0.14142606 0.01295680 0.08913392
v -0.22077075 -0.07156329 0.02272728
v -0.23097306 -0.05048911 0.00996029
v -0.17531620 0.01934580 0.02272728
v -0.20561923 0.03449731 0.05303031
v -0.23592226 -0.01095723 0.03787879
v -0.21968323 -0.06429384 -0.00224366
v -0.16016469 0.03449731 0.05303031
v -0.23592226 0.00419428 0.02272728
f 10 4 3
f 10 3 6
f 10 9 4
f 11 2 6
f 11 6 3
f 12 7 3
f 12 3 4
f 14 8 5
f 15 1 8
f 15 11 1
f 15 2 11
f 15 14 2
f 15 8 14
f 16 2 14
f 16 6 2
f 16 9 10
f 17 1 11
f 17 11 3
f 17 3 7
f 18 13 5
f 18 5 8
f 18 8 1
f 19 5 13
f 19 13 4
f 20 12 4
f 20 4 13
f 20 7 12
f 21 16 14
f 21 14 5
f 21 9 16
f 22 16 10
f 22 10 6
f 22 6 16
f 23 17 7
f 23 1 17
f 23 18 1
f 24 7 13
f 25 5 19
f 25 21 5
f 25 9 21
f 26 19 4
f 26 4 9
f 26 25 19
f 27 13 7
f 27 7 20
f 28 24 13
f 28 13 18
f 28 18 23
f 28 23 7
f 28 7 24
f 29 26 9
f 29 9 25
f 29 25 26
f 30 27 20
f 30 20 13
f 30 13 27

