# https://github.com/mikedh/trimesh
v 0.06710804 0.03449731 0.18939395
v 0.08225956 0.03449731 -0.09848484
v 0.08225956 0.07995186 0.14393940
v 0.05195652 0.09510338 0.14393940
v 0.05195652 0.03449731 -0.09848484
v 0.06710804 0.09510338 -0.09848484
v 0.05068584 0.07301293 0.18843137
v 0.08225956 0.03449731 0.14393940
v 0.08225956 0.09510338 -0.00757575
v 0.04879273 0.09014901 -0.09566062
v 0.05846564 0.06999512 0.18756045
v 0.05195652 0.03449731 0.18939395
v 0.06710804 0.09510338 0.14393940
v 0.08225956 0.09510338 0.03787879
f 5 2 1
f 6 2 5
f 8 1 2
f 8 2 3
f 8 3 1
f 9 3 2
f 9 2 6
f 9 6 4
f 10 6 5
f 10 4 6
f 10 7 4
f 11 7 1
f 11 1 3
f 12 5 1
f 12 1 7
f 12 10 5
f 12 7 10
f 13 9 4
f 13 11 3
f 13 4 7
f 13 7 11
f 14 13 3
f 14 3 9
f 14 9 13

