# https://github.com/mikedh/trimesh
v 0.03680501 -0.08671481 0.18939395
v 0.08116695 -0.05526348 0.14368071
v 0.06710804 -0.01095723 0.21969698
v -0.11471014 -0.01095723 0.21969698
v -0.03738248 -0.07807485 0.12648279
v 0.06710804 -0.01095723 0.14393940
v 0.06710804 -0.07156329 0.21969698
v 0.06710804 -0.08671481 0.14393940
v -0.06925560 -0.07156329 0.20454546
v -0.10826303 -0.01384985 0.14071795
v 0.05050997 -0.08205347 0.12711882
v 0.08225956 -0.07156329 0.18939395
v -0.05410408 -0.08671481 0.14393940
v 0.06710804 -0.08671481 0.15909092
v -0.05410408 -0.07156329 0.21969698
v -0.11471014 -0.05641178 0.17424243
v 0.07813852 -0.05186424 0.18881132
v -0.11842746 -0.03598943 0.14522472
v -0.03895257 -0.08671481 0.17424243
v -0.11416906 -0.03687602 0.21862500
v -0.05410408 -0.08671481 0.15909092
v -0.00864954 -0.08671481 0.18939395
v -0.11471014 -0.05641178 0.18939395
f 6 3 2
f 6 4 3
f 7 3 4
f 10 6 5
f 10 4 6
f 11 6 2
f 11 5 6
f 11 2 8
f 12 3 7
f 12 8 2
f 13 8 1
f 13 11 8
f 13 5 11
f 14 7 1
f 14 1 8
f 14 12 7
f 14 8 12
f 15 7 4
f 15 1 7
f 17 12 2
f 17 2 3
f 17 3 12
f 18 10 5
f 18 5 13
f 18 13 16
f 18 4 10
f 19 13 1
f 20 15 4
f 20 4 18
f 21 16 13
f 21 13 19
f 21 19 15
f 21 15 9
f 22 19 1
f 22 1 15
f 22 15 19
f 23 20 18
f 23 18 16
f 23 9 15
f 23 15 20
f 23 21 9
f 23 16 21

