# https://github.com/mikedh/trimesh
v -0.19046772 -0.11701784 -0.03787878
v -0.19046772 -0.08671481 -0.09848484
v -0.19046772 0.00419428 -0.00757575
v -0.23592226 0.00419428 0.00757576
v -0.25107378 -0.08671481 -0.08333333
v -0.19046772 -0.07156329 0.00757576
v -0.23592226 -0.10186632 -0.08333333
v -0.23592226 -0.02610875 -0.08333333
v -0.19527735 -0.00512531 0.01600112
v -0.25107378 -0.07156329 -0.00757575
v -0.22077075 -0.08671481 -0.09848484
v -0.19046772 -0.10186632 -0.08333333
v -0.20561923 -0.02610875 -0.08333333
v -0.25107378 -0.02610875 -0.05303030
v -0.23592226 0.00419428 -0.00757575
v -0.23592226 -0.07156329 0.00757576
v -0.22077075 -0.11701784 -0.03787878
v -0.22077075 -0.05641178 -0.09848484
v -0.19046772 -0.11701784 -0.05303030
v -0.19046772 -0.04126026 -0.08333333
v -0.25107378 -0.05641178 -0.08333333
v -0.25107378 -0.02610875 -0.00757575
v -0.20561923 -0.08671481 0.00757576
v -0.25107378 -0.08671481 -0.02272727
v -0.19046772 -0.05641178 -0.09848484
v -0.22077075 -0.11701784 -0.05303030
v -0.22077075 -0.08671481 0.00757576
f 1 2 3
f 6 1 3
f 9 6 3
f 9 3 4
f 11 7 5
f 11 2 7
f 12 7 2
f 12 2 1
f 13 8 3
f 14 5 10
f 15 4 3
f 15 3 8
f 15 14 4
f 15 8 14
f 16 9 4
f 16 4 10
f 18 2 11
f 18 8 13
f 18 11 5
f 19 12 1
f 19 7 12
f 19 1 17
f 20 13 3
f 20 3 2
f 21 14 8
f 21 5 14
f 21 18 5
f 21 8 18
f 22 14 10
f 22 10 4
f 22 4 14
f 23 6 9
f 23 1 6
f 23 17 1
f 24 16 10
f 24 10 5
f 24 5 7
f 24 7 17
f 25 18 13
f 25 2 18
f 25 20 2
f 25 13 20
f 26 19 17
f 26 17 7
f 26 7 19
f 27 23 9
f 27 9 16
f 27 17 23
f 27 24 17
f 27 16 24

