# https://github.com/mikedh/trimesh
v 0.06027526 0.04267517 0.45504503
v 0.06189281 0.04844072 0.44590904
v 0.06710804 0.07995186 0.46212122
v -0.05410408 0.09510338 0.46212122
v -0.06799460 0.04950529 0.44637123
v 0.03237163 0.08590826 0.44358817
v -0.06176261 0.04885700 0.45756261
v 0.06710804 0.07995186 0.44696971
v 0.03680501 0.09510338 0.46212122
v -0.05410408 0.09510338 0.44696971
v -0.06925560 0.07995186 0.46212122
v -0.06925560 0.07995186 0.44696971
f 1 2 3
f 5 2 1
f 6 2 5
f 7 1 3
f 7 5 1
f 8 3 2
f 8 2 6
f 9 4 3
f 9 8 6
f 9 3 8
f 10 9 6
f 10 4 9
f 11 7 3
f 11 3 4
f 11 5 7
f 11 4 10
f 12 10 6
f 12 6 5
f 12 11 10
f 12 5 11

