# https://github.com/mikedh/trimesh
v 0.02165349 -0.08671481 0.31060607
v 0.06426145 -0.03422102 0.26194405
v 0.02871889 0.05542612 0.34912509
v -0.08440711 0.06480034 0.28030304
v -0.10924134 -0.02153143 0.25957333
v 0.06447138 0.05571684 0.26181895
v 0.04443946 -0.03946521 0.34372675
v -0.02134448 -0.04288835 0.26017831
v -0.04105876 -0.05136793 0.34624128
v 0.06710804 0.06480034 0.29545455
v -0.08440711 0.06480034 0.26515152
v 0.06710804 -0.04126026 0.29545455
v 0.03528447 -0.04294606 0.25890686
v -0.02380105 -0.08671481 0.31060607
v -0.04819019 0.04477978 0.34728513
v 0.01605897 -0.07770422 0.34224710
v -0.03475640 0.05704439 0.34700132
v 0.05195652 0.04964883 0.34090910
v -0.10609609 0.02882809 0.26096017
v -0.09554200 -0.02949130 0.25922781
v -0.03895257 -0.08671481 0.34090910
v -0.11471014 -0.02610875 0.28030304
v 0.06710804 0.04964883 0.31060607
v -0.11471014 0.03449731 0.28030304
v -0.09955863 -0.04126026 0.28030304
v 0.06710804 -0.02610875 0.31060607
v -0.03895257 -0.08671481 0.32575758
f 9 7 3
f 11 10 6
f 11 4 10
f 12 1 2
f 12 2 6
f 12 6 10
f 13 2 1
f 13 6 2
f 14 13 1
f 14 8 13
f 15 9 3
f 16 7 9
f 16 12 7
f 16 1 12
f 17 10 4
f 17 3 10
f 17 15 3
f 17 4 15
f 18 10 3
f 18 3 7
f 19 11 6
f 20 13 8
f 20 5 19
f 20 19 6
f 20 6 13
f 20 8 14
f 21 16 9
f 21 14 1
f 21 1 16
f 22 9 15
f 22 21 9
f 23 12 10
f 23 10 18
f 24 4 11
f 24 11 19
f 24 19 5
f 24 5 22
f 24 22 15
f 24 15 4
f 25 22 5
f 25 5 20
f 25 20 14
f 25 21 22
f 26 23 18
f 26 18 7
f 26 7 12
f 26 12 23
f 27 25 14
f 27 14 21
f 27 21 25

