# https://github.com/mikedh/trimesh
v 0.34196042 -0.15520366 -0.00757576
v 0.38440227 -0.15027293 -0.09992119
v 0.11468769 -0.01884002 -0.08333333
v -0.20349413 -0.01884002 -0.08333333
v -0.23379716 -0.15520366 -0.06818182
v 0.11628307 -0.01698550 -0.11006498
v -0.20349413 -0.07944609 0.03787879
v 0.34196042 -0.09459760 0.00757576
v 0.19044527 -0.17035518 -0.05303030
v -0.23690567 -0.03711090 -0.11051523
v 0.14314478 -0.15203189 0.05177787
v 0.38741496 -0.14005215 -0.03787879
v 0.28135436 -0.09459760 0.03787879
v 0.17529375 -0.03399154 -0.08333333
v 0.02377860 -0.15520366 -0.11363636
v 0.38741496 -0.15520366 -0.05303030
v -0.20349413 -0.01884002 -0.09848485
v -0.27925170 -0.09459760 0.03787879
v 0.16613254 -0.15547034 0.04945933
v 0.35711193 -0.12490063 0.00757576
v 0.38741496 -0.10974912 -0.05303030
v 0.32680890 -0.09459760 0.02272727
v 0.00862708 -0.07944609 0.03787879
v 0.12983921 -0.17035518 -0.05303030
v -0.26524274 -0.13433624 -0.09779626
v 0.00862708 -0.10974912 -0.11363636
v 0.35418158 -0.09918353 -0.10508823
v -0.23379716 -0.03399154 -0.08333333
v -0.21864564 -0.03399154 -0.05303030
v 0.14499072 -0.12490063 0.05303030
v -0.23379716 -0.15520366 -0.00757576
v 0.37226345 -0.14005215 -0.00757576
v 0.32680890 -0.12490063 0.02272727
v 0.37226345 -0.10974912 -0.00757576
v 0.35711193 -0.09459760 -0.08333333
v 0.38741496 -0.12490063 -0.09848485
v -0.27925170 -0.07944609 -0.03787879
v 0.08526286 -0.14626684 -0.11371039
v -0.27925170 -0.07944609 0.00757576
v -0.27925170 -0.10974912 0.03787879
v 0.17529375 -0.12490063 0.05303030
v -0.26469363 -0.13603837 -0.03892697
v 0.34196042 -0.14005215 0.00757576
v 0.28135436 -0.10974912 0.03787879
v 0.38741496 -0.10974912 -0.03787879
v 0.35711193 -0.10974912 0.00757576
v 0.17552356 -0.03414456 -0.09986103
v -0.26300201 -0.06226923 -0.09417400
v 0.08438466 -0.10974912 -0.11363636
v -0.27956718 -0.11703572 0.00259052
v -0.27925170 -0.12490063 0.02272727
f 6 4 3
f 14 6 3
f 14 3 8
f 15 2 9
f 16 9 2
f 16 1 9
f 17 4 6
f 17 6 10
f 19 9 1
f 21 12 16
f 22 8 3
f 22 3 13
f 23 13 3
f 24 15 9
f 24 5 15
f 24 9 19
f 25 15 5
f 25 10 15
f 26 15 10
f 26 10 6
f 28 17 10
f 28 4 17
f 29 18 7
f 29 4 28
f 29 3 4
f 29 23 3
f 29 7 23
f 30 7 18
f 30 23 7
f 31 19 11
f 31 24 19
f 31 5 24
f 32 16 12
f 32 1 16
f 33 32 20
f 33 22 13
f 33 20 22
f 34 20 32
f 34 32 12
f 34 8 22
f 35 14 8
f 35 21 27
f 36 21 16
f 36 16 2
f 36 27 21
f 36 2 27
f 38 27 2
f 38 2 15
f 38 15 26
f 39 29 28
f 39 18 29
f 40 30 18
f 40 11 30
f 41 13 23
f 41 23 30
f 41 30 11
f 41 11 19
f 42 25 5
f 42 5 31
f 43 33 19
f 43 19 1
f 43 1 32
f 43 32 33
f 44 33 13
f 44 19 33
f 44 41 19
f 44 13 41
f 45 8 34
f 45 35 8
f 45 21 35
f 45 34 12
f 45 12 21
f 46 34 22
f 46 22 20
f 46 20 34
f 47 35 27
f 47 27 6
f 47 6 14
f 47 14 35
f 48 10 25
f 48 25 37
f 48 28 10
f 48 39 28
f 48 37 39
f 49 38 26
f 49 26 6
f 49 6 27
f 49 27 38
f 50 39 37
f 50 18 39
f 50 40 18
f 50 37 25
f 51 31 11
f 51 11 40
f 51 40 50
f 51 42 31
f 51 50 25
f 51 25 42

