# https://github.com/mikedh/trimesh
v 0.40256648 -0.17035518 -0.11363636
v 0.41771799 -0.17035518 -0.43181818
v 0.40974503 -0.10411354 -0.26944726
v 0.17697829 -0.09765628 -0.05027433
v 0.05408163 -0.17035518 -0.12878788
v 0.36165660 -0.11233163 -0.10296738
v 0.41771799 -0.12490063 -0.26515152
v 0.37226345 -0.20065821 -0.31060606
v 0.17530720 -0.15419254 -0.05248982
v 0.12983921 -0.10974912 -0.44696970
v 0.40256648 -0.14005215 -0.09848485
v 0.22087790 -0.09884019 -0.04977582
v 0.41771799 -0.15520366 -0.32575758
v 0.41771799 -0.12490063 -0.44696970
v 0.40256648 -0.20065821 -0.31060606
v 0.11468769 -0.17035518 -0.11363636
v 0.05408163 -0.10974912 -0.11363636
v 0.12957310 -0.18128482 -0.44912178
v 0.23589077 -0.10974659 -0.49225866
v 0.40256648 -0.15520366 -0.09848485
v 0.41771799 -0.14005215 -0.28030303
v 0.41771799 -0.17035518 -0.41666667
v 0.05572848 -0.14270740 -0.11382412
v 0.05408163 -0.10974912 -0.18939394
v 0.23589981 -0.20065821 -0.37121212
v 0.37226345 -0.10974912 -0.49242424
v 0.22113171 -0.14580502 -0.05312597
v 0.05560037 -0.16486988 -0.18981652
v 0.25105133 -0.20065821 -0.35606061
v 0.12983921 -0.18550669 -0.25000000
v 0.40256648 -0.20065821 -0.46212121
v 0.39698583 -0.11014514 -0.47226169
v 0.23589981 -0.20065821 -0.44696970
v 0.23589981 -0.18550669 -0.49242424
v 0.40256648 -0.15520366 -0.49242424
v 0.40597143 -0.11043056 -0.42297863
v 0.26620284 -0.20065821 -0.46212121
v 0.41771799 -0.14005215 -0.44696970
v 0.40256648 -0.18550669 -0.47727273
v 0.40256648 -0.14005215 -0.49242424
v 0.32680890 -0.18550669 -0.49242424
v 0.37226345 -0.17035518 -0.49242424
f 11 3 6
f 11 7 3
f 12 6 3
f 12 3 4
f 12 11 6
f 12 4 9
f 13 2 7
f 14 7 2
f 14 3 7
f 15 1 8
f 16 8 1
f 16 5 8
f 16 9 5
f 16 1 9
f 17 9 4
f 19 10 4
f 19 18 10
f 20 7 11
f 20 11 12
f 21 13 7
f 21 1 13
f 21 20 1
f 21 7 20
f 22 13 1
f 22 1 15
f 22 15 2
f 22 2 13
f 23 17 5
f 23 5 9
f 23 9 17
f 24 5 17
f 24 10 18
f 24 17 4
f 24 4 10
f 25 15 8
f 26 19 4
f 26 4 3
f 27 20 12
f 27 12 9
f 27 9 1
f 27 1 20
f 28 24 18
f 28 18 5
f 28 5 24
f 29 25 8
f 30 5 18
f 30 25 29
f 30 29 8
f 30 8 5
f 31 2 15
f 31 15 25
f 32 26 3
f 33 30 18
f 33 25 30
f 33 31 25
f 34 18 19
f 34 19 26
f 34 33 18
f 35 34 26
f 36 32 3
f 36 3 14
f 36 14 32
f 37 34 31
f 37 31 33
f 37 33 34
f 38 35 14
f 38 14 2
f 38 2 35
f 39 35 2
f 39 2 31
f 40 32 14
f 40 14 35
f 40 35 26
f 40 26 32
f 41 39 31
f 41 31 34
f 41 34 35
f 42 41 35
f 42 35 39
f 42 39 41

