# https://github.com/mikedh/trimesh
v -0.05197898 -0.03399154 0.46212121
v -0.05081173 -0.02702620 0.49088721
v -0.33985776 -0.03399154 0.02272727
v -0.11258504 0.05691755 0.46212121
v -0.05197898 0.05691755 0.46212121
v -0.15803958 -0.03399154 0.40151515
v -0.05197898 0.05691755 0.49242424
v -0.29440322 0.04176604 0.02272727
v -0.08228201 -0.03399154 0.49242424
v -0.24894867 0.05691755 0.23484848
v -0.23379716 -0.04914305 0.25000000
v -0.32819772 -0.02869488 0.00223501
v -0.12773655 -0.03399154 0.44696970
v -0.08228201 0.05691755 0.49242424
v -0.15803958 0.04176604 0.40151515
v -0.33985776 0.02661452 0.02272727
v -0.24894867 0.05691755 0.12878788
v -0.21864564 -0.04914305 0.25000000
v -0.24894867 -0.04914305 0.23484848
v -0.29440322 0.01146301 0.02272727
v -0.20349413 -0.03399154 0.32575758
v -0.18834261 0.05691755 0.34090909
v -0.12773655 0.04176604 0.44696970
v -0.32694553 0.02610304 0.00190771
v -0.32470625 0.04176604 0.05303030
v -0.21864564 -0.04914305 0.20454545
v -0.20349413 -0.00368851 0.32575758
v -0.27925170 0.05691755 0.12878788
v -0.32371690 0.03967046 0.00720937
v -0.23379716 -0.04914305 0.18939394
v -0.27925170 0.05691755 0.14393939
v -0.24894867 -0.04914305 0.18939394
f 5 2 1
f 7 5 4
f 7 2 5
f 8 5 1
f 9 2 7
f 9 1 2
f 10 4 5
f 14 9 7
f 14 7 4
f 14 13 9
f 15 6 13
f 16 3 10
f 16 12 3
f 17 10 5
f 17 5 8
f 18 1 9
f 18 9 11
f 19 10 3
f 19 18 11
f 19 13 6
f 19 11 9
f 19 9 13
f 20 8 1
f 20 1 12
f 21 6 15
f 21 19 6
f 21 10 19
f 22 15 4
f 22 4 10
f 22 10 15
f 23 15 13
f 23 4 15
f 23 14 4
f 23 13 14
f 24 12 16
f 24 20 12
f 24 8 20
f 25 16 10
f 26 12 1
f 26 1 18
f 26 18 19
f 27 21 15
f 27 15 10
f 27 10 21
f 28 10 17
f 29 24 16
f 29 16 25
f 29 8 24
f 29 25 28
f 29 28 17
f 29 17 8
f 30 3 12
f 30 12 26
f 30 26 19
f 31 28 25
f 31 25 10
f 31 10 28
f 32 30 19
f 32 19 3
f 32 3 30

