# https://github.com/mikedh/trimesh
v -0.37016079 -0.12490063 -0.35606061
v -0.37016079 -0.12490063 -0.41666667
v -0.38531231 0.19328119 -0.47727273
v -0.41085650 0.18871118 -0.44583771
v -0.44591837 -0.12490063 -0.41666667
v -0.37894367 0.07259921 -0.28451360
v -0.40249347 -0.12512479 -0.48546158
v -0.38512834 0.19012294 -0.44653743
v -0.44591837 -0.12490063 -0.35606061
v -0.37016079 0.02661452 -0.41666667
v -0.38531231 0.17812967 -0.49242424
v -0.41561534 0.19328119 -0.47727273
v -0.40046383 0.07206907 -0.28030303
v -0.37016079 0.02661452 -0.35606061
v -0.38610254 0.08813627 -0.48166800
v -0.43076686 0.07206907 -0.32575758
v -0.43076686 -0.04914305 -0.49242424
v -0.41087053 -0.06740868 -0.31043039
v -0.37659792 0.04221815 -0.28545277
v -0.43076686 0.01146301 -0.32575758
v -0.44591837 0.04176604 -0.44696970
v -0.41561534 0.17812967 -0.49242424
v -0.41984546 -0.12491359 -0.48270650
v -0.40046383 0.04176604 -0.28030303
v -0.38531231 -0.06429457 -0.31060606
v -0.44591837 0.04176604 -0.38636364
v -0.44591837 -0.10974912 -0.44696970
v -0.38275597 -0.01974221 -0.29600819
v -0.44591837 -0.07944609 -0.35606061
v -0.40046383 -0.01884002 -0.29545455
f 7 2 1
f 9 7 1
f 9 5 7
f 10 1 2
f 11 10 2
f 11 3 10
f 12 8 3
f 12 4 8
f 12 3 11
f 13 8 4
f 13 6 8
f 14 1 10
f 14 8 6
f 14 10 3
f 14 3 8
f 15 11 2
f 15 2 7
f 15 7 11
f 16 4 12
f 16 13 4
f 17 11 7
f 18 9 1
f 19 14 6
f 19 1 14
f 20 16 9
f 20 13 16
f 21 5 9
f 22 12 11
f 22 11 17
f 22 21 12
f 22 17 21
f 23 17 7
f 23 7 5
f 24 9 18
f 24 20 9
f 24 13 20
f 24 19 6
f 24 6 13
f 25 18 1
f 26 16 12
f 26 12 21
f 26 21 9
f 27 21 17
f 27 5 21
f 27 23 5
f 27 17 23
f 28 25 1
f 28 1 19
f 28 19 24
f 28 18 25
f 29 26 9
f 29 9 16
f 29 16 26
f 30 28 24
f 30 24 18
f 30 18 28

