# https://github.com/mikedh/trimesh
v 0.05408163 0.13267513 -0.44696970
v 0.05396146 0.13133314 -0.48779078
v 0.05414870 0.18933936 -0.44435079
v -0.38512834 0.19012294 -0.44653743
v -0.38531231 0.13267513 -0.44696970
v -0.12773655 0.17812967 -0.49242424
v 0.05424227 0.18267587 -0.45390418
v -0.27925170 0.19328119 -0.47727273
v -0.38458506 0.13224163 -0.48465644
v 0.05408163 0.16297816 -0.49242424
v -0.38531231 0.17812967 -0.49242424
v -0.38531231 0.19328119 -0.47727273
f 5 2 1
f 5 1 3
f 5 3 4
f 7 3 1
f 8 4 3
f 8 3 6
f 9 2 5
f 10 6 3
f 10 3 7
f 10 7 1
f 10 1 2
f 11 8 6
f 11 6 10
f 11 10 2
f 11 2 9
f 11 9 5
f 12 4 8
f 12 8 11
f 12 11 5
f 12 5 4

