# https://github.com/mikedh/trimesh
v -0.20349413 -0.01884002 -0.23484848
v -0.20330106 -0.01990454 -0.48611612
v -0.20349413 0.19328119 -0.29545455
v -0.41561534 0.19328119 -0.29545455
v -0.40258467 -0.01884160 -0.48452576
v -0.26410019 0.20843270 -0.43181818
v -0.20343534 0.15735528 -0.23641848
v -0.36595107 -0.02000790 -0.23549134
v -0.20330542 0.18360979 -0.44348613
v -0.26410019 0.20843270 -0.37121212
v -0.41085650 0.18871118 -0.44583771
v -0.24894867 0.17812967 -0.25000000
v -0.43076686 0.07206907 -0.37121212
v -0.38531231 0.08722058 -0.23484848
v -0.24894867 0.20843270 -0.41666667
v -0.35500928 0.20843270 -0.41666667
v -0.26410019 0.11752361 -0.50757576
v -0.20349413 0.17812967 -0.25000000
v -0.38531231 -0.01884002 -0.25000000
v -0.43076686 0.14782664 -0.44696970
v -0.35635755 0.14985868 -0.23847154
v -0.24894867 0.20843270 -0.38636364
v -0.29440322 0.20843270 -0.37121212
v -0.35500928 0.20843270 -0.43181818
v -0.20351873 0.13237101 -0.48994329
v -0.29440322 0.07206907 -0.50757576
v -0.42190467 0.03860194 -0.37396570
v -0.40046383 -0.01884002 -0.41666667
v -0.41561534 0.11752361 -0.28030303
v -0.42498229 0.04091693 -0.44132619
v -0.43076686 0.14782664 -0.41666667
v -0.38387098 0.11830122 -0.23525815
v -0.32470625 0.20843270 -0.38636364
v -0.29440322 0.11752361 -0.50757576
v -0.26410019 0.08722058 -0.50757576
v -0.41561534 0.07206907 -0.29545455
v -0.43076686 0.13267513 -0.40151515
v -0.41034232 0.17348034 -0.28115730
v -0.38458506 0.13224163 -0.48465644
v -0.27925170 0.07206907 -0.50757576
v -0.40201406 0.08741802 -0.48396537
f 7 1 2
f 8 5 2
f 8 2 1
f 9 7 2
f 9 3 7
f 10 4 3
f 12 3 4
f 14 8 1
f 14 1 7
f 15 9 6
f 15 3 9
f 15 6 10
f 16 10 6
f 18 12 7
f 18 7 3
f 18 3 12
f 19 8 14
f 20 4 11
f 21 7 12
f 21 12 4
f 22 15 10
f 22 10 3
f 22 3 15
f 23 4 10
f 23 10 16
f 24 11 4
f 24 4 16
f 24 16 6
f 24 6 17
f 25 17 6
f 25 6 9
f 25 9 2
f 26 2 5
f 27 19 13
f 28 5 8
f 28 8 19
f 28 19 27
f 29 19 14
f 29 4 13
f 30 20 5
f 30 13 20
f 30 27 13
f 30 28 27
f 30 5 28
f 31 20 13
f 31 4 20
f 32 14 7
f 32 7 21
f 32 29 14
f 33 23 16
f 33 16 4
f 33 4 23
f 34 24 17
f 34 11 24
f 34 17 26
f 34 26 5
f 35 25 2
f 35 17 25
f 35 26 17
f 36 29 13
f 36 13 19
f 36 19 29
f 37 31 13
f 37 13 4
f 37 4 31
f 38 32 21
f 38 21 4
f 38 4 29
f 38 29 32
f 39 20 11
f 39 11 34
f 40 35 2
f 40 2 26
f 40 26 35
f 41 39 34
f 41 34 5
f 41 5 20
f 41 20 39

