# https://github.com/mikedh/trimesh
v 0.32680890 -0.09459760 -0.02272727
v 0.35711193 -0.04914305 -0.08333333
v 0.34196042 0.04176604 0.00757576
v 0.22444361 0.06166919 -0.06593811
v 0.17529375 -0.10974912 -0.09848485
v 0.31583393 0.05798335 -0.09772015
v 0.34196042 -0.03399154 -0.00757576
v 0.32646418 -0.09486339 -0.09896356
v 0.17697829 -0.09765628 -0.05027433
v 0.34196042 0.05691755 -0.05303030
v 0.17531399 0.01151417 -0.09877404
v 0.34196042 -0.04914305 -0.02272727
v 0.34196042 0.02661452 0.00757576
v 0.22074830 -0.10974912 -0.09848485
v 0.35305554 -0.04136440 -0.10190551
v 0.28135436 -0.09459760 -0.00757576
v 0.30977518 0.03982637 0.01304885
v 0.34196042 0.05691755 -0.02272727
v 0.22074830 0.05691755 -0.09848485
v 0.17529375 0.01146301 -0.08333333
v 0.30768805 -0.02776595 0.01213829
v 0.30418927 -0.09476241 -0.01395687
v 0.32680890 0.05691755 -0.00757576
v 0.17158392 -0.09016409 -0.06112091
v 0.30215516 0.05601095 -0.01519802
f 8 2 1
f 12 7 1
f 12 1 2
f 12 2 7
f 13 7 2
f 13 2 3
f 14 8 1
f 15 2 8
f 15 10 2
f 15 6 10
f 15 5 11
f 15 14 5
f 15 8 14
f 16 9 5
f 16 5 14
f 17 13 3
f 18 3 2
f 18 2 10
f 18 10 6
f 18 6 4
f 19 11 4
f 19 4 6
f 19 15 11
f 19 6 15
f 20 4 11
f 20 17 4
f 20 9 17
f 21 1 7
f 21 7 13
f 21 13 17
f 21 17 9
f 21 9 16
f 22 16 14
f 22 14 1
f 22 21 16
f 22 1 21
f 23 17 3
f 23 3 18
f 23 18 4
f 24 20 11
f 24 11 5
f 24 5 9
f 24 9 20
f 25 23 4
f 25 4 17
f 25 17 23

