# https://github.com/mikedh/trimesh
v -0.27925170 -0.15520366 -0.03787879
v -0.24675882 -0.06815009 -0.08539926
v -0.24859603 0.07858153 0.00795263
v -0.37016079 0.14782664 -0.05303030
v -0.36191920 -0.09523561 -0.09647575
v -0.24958283 0.13436436 -0.09796234
v -0.32211262 -0.02838438 0.01285207
v -0.26469363 -0.13603837 -0.03892697
v -0.29440322 -0.15520366 -0.09848485
v -0.23420983 0.12671799 -0.05518657
v -0.37101496 0.13699056 -0.09957116
v -0.33985776 0.10237210 0.00757576
v -0.35500928 -0.09459760 -0.02272727
v -0.23379716 0.08722058 -0.03787879
v -0.26410019 -0.15520366 -0.06818182
v -0.26524274 -0.13433624 -0.09779626
v -0.24951312 -0.06204519 -0.09577235
v -0.24894867 0.14782664 -0.06818182
v -0.38531231 0.08722058 -0.02272727
v -0.30955473 -0.15520366 -0.09848485
v -0.26410019 -0.15520366 -0.05303030
v -0.23471827 0.12192546 -0.04329520
v -0.23379716 0.08722058 -0.05303030
v -0.24894867 0.13267513 -0.02272727
v -0.38531231 0.07206907 -0.06818182
v -0.38531231 0.11752361 -0.02272727
v -0.37016079 0.08722058 -0.00757576
v -0.37815564 0.08962686 -0.09894081
v -0.31059523 -0.14272649 -0.04099152
v -0.27925170 0.14782664 -0.05303030
v -0.37016079 0.13267513 -0.02272727
v -0.24900736 0.09364920 -0.00030327
v -0.37016079 0.11752361 -0.00757576
f 8 7 1
f 8 3 7
f 11 6 9
f 12 7 3
f 13 1 7
f 14 3 8
f 15 1 9
f 16 9 6
f 16 15 9
f 16 2 15
f 17 6 10
f 17 16 6
f 17 2 16
f 18 10 6
f 18 11 4
f 18 6 11
f 19 5 13
f 20 11 9
f 20 13 5
f 20 9 1
f 21 14 8
f 21 2 14
f 21 15 2
f 21 8 1
f 21 1 15
f 22 14 10
f 22 3 14
f 23 14 2
f 23 10 14
f 23 17 10
f 23 2 17
f 24 3 22
f 24 22 10
f 24 10 18
f 25 5 19
f 26 4 11
f 26 25 19
f 27 19 13
f 27 13 7
f 27 7 12
f 27 26 19
f 28 20 5
f 28 11 20
f 28 5 25
f 28 26 11
f 28 25 26
f 29 20 1
f 29 1 13
f 29 13 20
f 30 24 18
f 30 18 4
f 30 4 24
f 31 24 4
f 31 4 26
f 32 24 12
f 32 12 3
f 32 3 24
f 33 27 12
f 33 26 27
f 33 31 26
f 33 12 24
f 33 24 31

