# https://github.com/mikedh/trimesh
v -0.34650297 0.05949591 -0.10224015
v -0.29440322 0.07206907 -0.23484848
v -0.29479404 0.13892041 -0.15940826
v -0.41561534 0.16297816 -0.12878788
v -0.39372439 0.12050944 -0.28465339
v -0.37016079 0.14782664 -0.05303030
v -0.29440322 0.07206907 -0.15909091
v -0.36130215 0.07418112 -0.23571551
v -0.41561534 0.11752361 -0.06818182
v -0.29438346 0.14774246 -0.23486877
v -0.37049667 0.10384208 -0.03692285
v -0.41561534 0.14782664 -0.28030303
v -0.41561534 0.14782664 -0.06818182
v -0.38531231 0.07206907 -0.14393939
v -0.35526511 0.16048124 -0.28088000
v -0.37016079 0.17812967 -0.26515152
v -0.40046383 0.10237210 -0.03787879
v -0.36675327 0.12268483 -0.04540616
v -0.38531231 0.14782664 -0.05303030
v -0.40185545 0.12168408 -0.26048009
v -0.35500928 0.11752361 -0.28030303
v -0.37283042 0.16404375 -0.28477028
v -0.40046383 0.17812967 -0.21969697
v -0.40046383 0.13267513 -0.03787879
v -0.41034232 0.17348034 -0.28115730
v -0.38531231 0.16297816 -0.12878788
v -0.41561534 0.17812967 -0.21969697
v -0.38531231 0.17812967 -0.23484848
f 7 1 2
f 8 5 2
f 8 2 1
f 10 7 2
f 10 3 7
f 11 1 7
f 11 7 3
f 12 9 4
f 13 4 9
f 14 8 1
f 14 9 12
f 15 10 2
f 16 6 3
f 16 3 10
f 16 10 15
f 17 1 11
f 17 14 1
f 17 9 14
f 17 13 9
f 18 11 3
f 18 3 6
f 18 6 11
f 19 6 4
f 19 4 13
f 20 5 8
f 20 8 14
f 20 14 12
f 20 12 5
f 21 15 2
f 21 2 5
f 22 16 15
f 22 21 5
f 22 15 21
f 24 19 13
f 24 13 17
f 24 17 11
f 24 11 6
f 24 6 19
f 25 22 5
f 25 5 12
f 25 16 22
f 26 23 4
f 26 4 6
f 26 6 16
f 27 23 16
f 27 16 25
f 27 4 23
f 27 25 12
f 27 12 4
f 28 26 16
f 28 16 23
f 28 23 26

