# https://github.com/mikedh/trimesh
v 0.11468769 -0.20065821 -0.41666667
v 0.38755150 -0.11011313 -0.47406989
v 0.39501926 -0.06295550 -0.42869366
v -0.20349413 -0.06429457 -0.46212121
v -0.20349413 -0.17035518 -0.50757576
v 0.20559678 -0.06429457 -0.50757576
v -0.12773655 -0.06429457 -0.41666667
v 0.38741496 -0.10974912 -0.41666667
v 0.23589981 -0.18550669 -0.49242424
v 0.38803364 -0.06569602 -0.46849473
v -0.14288807 -0.06429457 -0.50757576
v -0.20381899 -0.18133112 -0.46254667
v 0.23626762 -0.18187945 -0.44743221
v 0.37226345 -0.10974912 -0.49242424
v 0.23589981 -0.14005215 -0.50757576
v -0.20374519 -0.06442109 -0.49044676
v -0.02175114 -0.19054551 -0.41675296
v -0.06713049 -0.20065821 -0.46212121
v -0.12773655 -0.10974912 -0.41666667
v 0.37226345 -0.09459760 -0.49242424
v 0.17529375 -0.15520366 -0.50757576
v -0.20349413 -0.10974912 -0.50757576
v -0.20422541 -0.17691240 -0.48169226
v 0.11468769 -0.20065821 -0.44696970
v 0.23589981 -0.07944609 -0.50757576
v -0.08228201 -0.17035518 -0.50757576
v 0.03893011 -0.20065821 -0.46212121
f 7 3 4
f 8 2 3
f 8 7 1
f 8 3 7
f 9 2 8
f 10 6 3
f 10 3 2
f 11 4 3
f 11 3 6
f 11 6 5
f 13 9 8
f 13 8 1
f 13 1 9
f 14 2 9
f 15 5 6
f 15 14 9
f 16 4 11
f 18 17 12
f 18 1 17
f 18 5 9
f 19 7 4
f 19 4 12
f 19 12 17
f 19 17 1
f 19 1 7
f 20 10 2
f 20 2 14
f 20 6 10
f 20 14 15
f 21 15 9
f 21 5 15
f 22 16 11
f 22 11 5
f 23 12 4
f 23 4 16
f 23 18 12
f 23 5 18
f 23 22 5
f 23 16 22
f 24 9 1
f 24 1 18
f 25 20 15
f 25 15 6
f 25 6 20
f 26 21 9
f 26 9 5
f 26 5 21
f 27 24 18
f 27 18 9
f 27 9 24

