# https://github.com/mikedh/trimesh
v 0.06923314 0.10237210 0.29545455
v 0.17440498 0.12429885 -0.04109029
v 0.16014224 0.16297816 0.11363636
v -0.02167595 0.16297816 0.32575758
v -0.00652443 0.10237210 0.31060606
v 0.14499072 0.16297816 -0.00757576
v 0.05408163 0.16297816 0.31060606
v 0.17529375 0.11752361 0.06818182
v 0.11468769 0.10237210 0.12878788
v 0.03893011 0.10237210 0.32575758
v 0.17529375 0.16297816 -0.00757576
v 0.12983921 0.11752361 -0.03787879
v 0.08438466 0.14782664 0.28030303
v 0.12983921 0.10237210 0.17424242
v 0.12983921 0.10237210 0.12878788
v -0.00652443 0.10237210 0.32575758
v 0.03893011 0.16297816 0.32575758
v 0.12983921 0.14782664 -0.03787879
v 0.17571142 0.13910178 -0.03510326
v 0.17529375 0.16297816 0.06818182
v -0.02675447 0.11990230 0.30531746
v 0.09953617 0.10237210 0.14393939
v 0.11468769 0.16297816 0.20454545
v 0.09953617 0.11752361 0.25000000
v 0.16014224 0.11752361 0.11363636
v -0.02167595 0.16297816 0.29545455
v 0.08438466 0.13267513 0.28030303
v 0.11468769 0.14782664 0.21969697
v 0.11468769 0.13267513 0.21969697
f 6 4 3
f 7 3 4
f 9 1 5
f 10 5 1
f 10 1 7
f 11 6 3
f 13 7 1
f 14 1 9
f 15 2 8
f 15 14 9
f 15 8 14
f 15 12 2
f 15 9 12
f 16 10 4
f 16 5 10
f 17 10 7
f 17 7 4
f 17 4 10
f 18 6 11
f 18 2 12
f 19 8 2
f 19 18 11
f 19 2 18
f 20 11 3
f 20 3 8
f 20 19 11
f 20 8 19
f 21 12 5
f 21 18 12
f 21 16 4
f 21 5 16
f 22 12 9
f 22 9 5
f 22 5 12
f 23 3 7
f 23 7 13
f 24 1 14
f 25 14 8
f 25 8 3
f 25 24 14
f 26 4 6
f 26 6 18
f 26 21 4
f 26 18 21
f 27 13 1
f 27 1 24
f 28 13 27
f 28 23 13
f 28 3 23
f 28 25 3
f 29 24 25
f 29 25 28
f 29 28 27
f 29 27 24

