# https://github.com/mikedh/trimesh
v -0.29440322 -0.15520366 -0.02272727
v -0.25026506 -0.13353438 -0.03934197
v -0.27925170 -0.12490063 0.02272727
v -0.33985776 -0.09459760 0.02272727
v -0.41717648 -0.09959591 -0.23737206
v -0.25692215 -0.08377059 -0.03627091
v -0.40046383 -0.14005215 -0.00757576
v -0.24894867 -0.14005215 -0.00757576
v -0.35414791 -0.15053707 -0.23530902
v -0.24837259 -0.10234258 0.00767484
v -0.43076686 -0.09459760 -0.20454545
v -0.37016079 -0.14005215 0.00757576
v -0.27925170 -0.14005215 0.00757576
v -0.43076686 -0.17035518 -0.11363636
v -0.30955473 -0.15520366 -0.12878788
v -0.30955473 -0.09459760 -0.15909091
v -0.27803405 -0.10180092 0.01988513
v -0.37016079 -0.09459760 -0.03787879
v -0.33985776 -0.12490063 0.02272727
v -0.38531231 -0.10974912 0.00757576
v -0.43076686 -0.12490063 -0.06818182
v -0.42093968 -0.16528784 -0.23551304
v -0.37016079 -0.15520366 -0.02272727
v -0.40046383 -0.17035518 -0.11363636
v -0.30962312 -0.13641839 -0.15946133
v -0.35500928 -0.09459760 -0.23484848
v -0.40046383 -0.09459760 -0.11363636
v -0.38531231 -0.12490063 0.00757576
v -0.40046383 -0.10974912 -0.00757576
v -0.43076686 -0.15520366 -0.06818182
v -0.40791188 -0.16055087 -0.23597577
v -0.41561534 -0.14005215 -0.02272727
v -0.41561534 -0.15520366 -0.05303030
v -0.41561534 -0.12490063 -0.02272727
f 10 3 8
f 10 8 2
f 10 2 6
f 13 8 3
f 13 1 8
f 13 12 1
f 13 3 12
f 15 8 1
f 15 9 2
f 15 2 8
f 16 6 2
f 17 10 6
f 17 6 4
f 17 4 3
f 17 3 10
f 18 4 6
f 19 12 3
f 19 3 4
f 20 19 4
f 21 11 14
f 22 14 11
f 22 11 5
f 22 9 15
f 23 12 7
f 23 14 1
f 23 1 12
f 24 15 1
f 24 1 14
f 24 22 15
f 24 14 22
f 25 16 2
f 25 2 9
f 25 9 16
f 26 16 9
f 26 9 5
f 26 5 11
f 26 11 6
f 26 6 16
f 27 18 6
f 27 6 11
f 28 20 7
f 28 7 12
f 28 12 19
f 28 19 20
f 29 20 4
f 29 4 18
f 29 18 27
f 29 27 11
f 29 11 21
f 29 7 20
f 30 21 14
f 31 22 5
f 31 5 9
f 31 9 22
f 32 7 29
f 32 30 7
f 32 21 30
f 33 23 7
f 33 7 30
f 33 30 14
f 33 14 23
f 34 32 29
f 34 29 21
f 34 21 32

