# https://github.com/mikedh/trimesh
v 0.41455187 0.08686897 -0.35592866
v 0.40795619 0.08552267 -0.41322929
v 0.41771799 0.20843270 -0.44696970
v 0.12983921 0.20843270 -0.35606061
v 0.12983921 0.08722058 -0.35606061
v 0.40256648 0.20843270 -0.35606061
v 0.41771799 0.17812967 -0.44696970
v 0.05408163 0.16297816 -0.49242424
v 0.41771799 0.19328119 -0.35606061
v 0.05414870 0.18933936 -0.44435079
v 0.38741496 0.14782664 -0.49242424
v 0.12982752 0.08720392 -0.49191861
v 0.41771799 0.20843270 -0.37121212
v 0.05408163 0.13267513 -0.44696970
v 0.12983921 0.20843270 -0.44696970
v 0.38741496 0.19328119 -0.47727273
v 0.38389353 0.08797025 -0.47813731
v 0.05396146 0.13133314 -0.48779078
v 0.20559678 0.17812967 -0.49242424
v 0.29650587 0.20843270 -0.46212121
v 0.32680890 0.16297816 -0.49242424
v 0.17529375 0.17812967 -0.49242424
v 0.38741496 0.20843270 -0.46212121
v 0.20559678 0.19328119 -0.47727273
f 5 2 1
f 5 1 4
f 6 3 4
f 6 4 1
f 7 1 2
f 9 6 1
f 9 7 3
f 9 1 7
f 10 5 4
f 11 3 7
f 12 2 5
f 12 8 11
f 13 9 3
f 13 3 6
f 13 6 9
f 14 5 10
f 15 10 4
f 15 4 3
f 15 8 10
f 16 3 11
f 17 11 7
f 17 7 2
f 17 12 11
f 17 2 12
f 18 14 10
f 18 10 8
f 18 8 12
f 18 12 5
f 18 5 14
f 19 11 8
f 20 15 3
f 21 19 16
f 21 16 11
f 21 11 19
f 22 19 8
f 22 8 15
f 22 16 19
f 23 20 3
f 23 3 16
f 23 16 20
f 24 22 15
f 24 15 20
f 24 20 16
f 24 16 22

