# https://github.com/mikedh/trimesh
v 0.19044527 -0.06429457 -0.41666667
v 0.19039469 -0.06454786 -0.49077687
v 0.12983921 0.20843270 -0.44696970
v -0.20337535 0.18983278 -0.41620136
v -0.20374519 -0.06442109 -0.49044676
v 0.12942914 0.19789378 -0.41525794
v 0.18975759 0.00015033 -0.48305162
v -0.12773655 -0.06429457 -0.41666667
v -0.18834261 0.11752361 -0.50757576
v -0.08228201 0.20843270 -0.41666667
v 0.19044527 -0.00368851 -0.41666667
v -0.20349413 -0.06429457 -0.44696970
v -0.20351873 0.13237101 -0.48994329
v 0.12983921 0.10237210 -0.50757576
v -0.20349413 0.13267513 -0.41666667
v -0.05197898 0.20843270 -0.44696970
v -0.02167595 0.11752361 -0.50757576
v -0.14288807 -0.06429457 -0.50757576
v -0.20330542 0.18360979 -0.44348613
v -0.08228201 0.20843270 -0.43181818
v 0.16014224 -0.06429457 -0.50757576
v -0.18834261 0.04176604 -0.50757576
v 0.16014224 -0.04914305 -0.50757576
f 8 5 2
f 8 2 1
f 8 6 4
f 8 1 6
f 10 6 3
f 10 4 6
f 11 1 2
f 11 2 7
f 11 6 1
f 11 7 3
f 11 3 6
f 12 5 8
f 13 9 5
f 14 3 7
f 14 7 2
f 15 12 8
f 15 8 4
f 15 5 12
f 15 13 5
f 15 4 13
f 16 10 3
f 16 3 9
f 17 14 9
f 17 9 3
f 17 3 14
f 18 2 5
f 18 9 14
f 19 13 4
f 19 16 9
f 19 9 13
f 20 4 10
f 20 10 16
f 20 19 4
f 20 16 19
f 21 18 14
f 21 2 18
f 22 18 5
f 22 5 9
f 22 9 18
f 23 21 14
f 23 14 2
f 23 2 21

