# https://github.com/mikedh/trimesh
v 0.11468769 -0.20065821 -0.35606061
v 0.12786382 -0.17965284 -0.41724806
v 0.12983921 0.20843270 -0.35606061
v -0.06713049 0.20843270 -0.35606061
v -0.08228201 -0.10974912 -0.41666667
v 0.12721707 -0.17663130 -0.35656888
v 0.00884101 -0.19036443 -0.41746313
v -0.08228201 -0.10974912 -0.35606061
v 0.12942914 0.19789378 -0.41525794
v 0.11468769 -0.20065821 -0.41666667
v -0.08228201 0.20843270 -0.41666667
v 0.02377860 -0.20065821 -0.35606061
v 0.00862708 -0.20065821 -0.37121212
v -0.08015369 0.18582792 -0.35659709
v -0.08228201 0.20843270 -0.38636364
f 1 3 4
f 6 1 2
f 6 2 3
f 6 3 1
f 8 1 4
f 9 3 2
f 10 7 2
f 10 2 1
f 11 5 8
f 11 4 3
f 11 3 9
f 11 7 5
f 11 9 2
f 11 2 7
f 12 1 8
f 12 10 1
f 13 8 5
f 13 5 7
f 13 12 8
f 13 7 10
f 13 10 12
f 14 8 4
f 15 11 8
f 15 8 14
f 15 14 4
f 15 4 11

