# https://github.com/mikedh/trimesh
v -0.03682746 -0.15520366 0.29545455
v -0.03887135 -0.14711385 0.31442659
v -0.20349413 -0.17035518 0.05303030
v -0.08228201 -0.10974912 0.29545455
v -0.15724271 -0.11945945 -0.09776339
v -0.08228201 -0.15520366 0.29545455
v -0.03782697 -0.11408881 0.31258678
v -0.15803958 -0.17035518 -0.02272727
v -0.20364977 -0.10822025 0.00698713
v -0.06713049 -0.15520366 0.31060606
v -0.15803958 -0.12490063 0.15909091
v -0.15803958 -0.15520366 -0.05303030
v -0.12773655 -0.17035518 0.15909091
v -0.20505249 -0.12780059 -0.10072508
v -0.20349413 -0.10974912 -0.09848485
v -0.06713049 -0.10974912 0.31060606
v -0.14288807 -0.14005215 0.18939394
v -0.21864564 -0.12490063 0.02272727
v -0.12773655 -0.17035518 0.14393939
v -0.15803958 -0.17035518 0.15909091
v -0.17319110 -0.14005215 -0.09848485
v -0.20349413 -0.17035518 -0.02272727
v -0.15845254 -0.11973266 -0.09918501
v -0.15803958 -0.10974912 0.14393939
v -0.14288807 -0.15520366 0.18939394
v -0.20349413 -0.15520366 0.06818182
v -0.21864564 -0.15520366 0.02272727
v -0.18834261 -0.15520366 -0.06818182
v -0.20349413 -0.12490063 0.06818182
v -0.18834261 -0.17035518 0.09848485
v -0.20349413 -0.15520366 -0.06818182
f 7 2 1
f 7 1 5
f 10 4 6
f 10 1 2
f 12 5 1
f 12 1 8
f 13 3 8
f 13 1 10
f 15 7 5
f 16 4 10
f 16 7 15
f 16 15 9
f 16 9 4
f 16 10 2
f 16 2 7
f 17 6 4
f 17 4 11
f 18 15 14
f 18 9 15
f 19 13 8
f 19 8 1
f 19 1 13
f 20 13 10
f 20 10 6
f 20 3 13
f 20 17 11
f 21 5 12
f 21 12 8
f 22 8 3
f 23 15 5
f 23 14 15
f 23 21 14
f 23 5 21
f 24 4 9
f 25 20 6
f 25 6 17
f 25 17 20
f 26 20 11
f 27 18 14
f 27 22 3
f 27 26 18
f 27 3 26
f 28 21 8
f 28 8 22
f 29 11 4
f 29 4 24
f 29 26 11
f 29 18 26
f 29 24 9
f 29 9 18
f 30 26 3
f 30 3 20
f 30 20 26
f 31 27 14
f 31 22 27
f 31 28 22
f 31 14 21
f 31 21 28

