# https://github.com/mikedh/trimesh
v -0.08228201 -0.10974912 -0.23484848
v -0.08228201 -0.10974912 -0.41666667
v -0.08192702 0.19128772 -0.41677946
v -0.20340091 0.18818290 -0.35698162
v -0.20349413 -0.10974912 -0.41666667
v -0.08228201 0.08722058 -0.23484848
v -0.08015369 0.18582792 -0.35659709
v -0.20349413 -0.10974912 -0.23484848
v -0.20337535 0.18983278 -0.41620136
v -0.20349413 0.08722058 -0.23484848
v -0.20349413 -0.00368851 -0.41666667
f 5 2 1
f 5 3 2
f 7 1 2
f 7 2 3
f 7 6 1
f 7 3 4
f 7 4 6
f 8 5 1
f 8 1 6
f 9 4 3
f 10 5 8
f 10 8 6
f 10 6 4
f 11 9 3
f 11 3 5
f 11 5 10
f 11 10 4
f 11 4 9

