# https://github.com/mikedh/trimesh
v 0.36165660 -0.11233163 -0.10296738
v 0.38508147 -0.10953431 -0.23572227
v 0.32834791 0.13702596 -0.16003102
v -0.34024230 0.13535069 -0.09871614
v -0.41497781 -0.09483207 -0.23496687
v 0.28144513 0.13128955 -0.09842210
v 0.38741496 -0.06429457 -0.15909091
v 0.00862708 -0.10974912 -0.23484848
v -0.36191920 -0.09523561 -0.09647575
v 0.00463369 0.16467477 -0.23758967
v 0.37226345 -0.07944609 -0.09848485
v 0.37694705 0.00751976 -0.22537029
v -0.41561534 -0.07944609 -0.17424242
v 0.34980804 -0.02224391 -0.09331350
v 0.00862708 -0.10974912 -0.09848485
v 0.38362870 -0.06550426 -0.23771999
v -0.29118836 0.14928323 -0.23814937
v 0.00862708 0.17812967 -0.20454545
v 0.37226345 -0.03399154 -0.12878788
v 0.38741496 -0.10974912 -0.15909091
v 0.37226345 -0.00368851 -0.15909091
v 0.32785939 0.14094962 -0.23672729
v -0.36874704 0.07369755 -0.09801657
v -0.41561534 -0.09459760 -0.17424242
v -0.15803958 0.14782664 -0.09848485
v 0.31583393 0.05798335 -0.09772015
v -0.36130215 0.07418112 -0.23571551
v 0.26620284 0.16297816 -0.21969697
v -0.14288807 0.17812967 -0.20454545
v -0.41561534 -0.06429457 -0.23484848
v -0.38531231 -0.07944609 -0.11363636
v -0.05197898 0.17812967 -0.18939394
v -0.34025499 0.14002603 -0.15878148
v 0.26620284 0.16297816 -0.23484848
v -0.12773655 0.17812967 -0.18939394
v -0.13942650 0.16410830 -0.23782558
v -0.41561534 -0.06429457 -0.20454545
v -0.38531231 -0.09459760 -0.11363636
v -0.29440322 0.16297816 -0.21969697
f 8 5 2
f 8 2 1
f 15 8 1
f 15 1 11
f 15 14 9
f 15 11 14
f 15 5 8
f 16 2 5
f 16 12 7
f 16 7 2
f 17 16 5
f 17 10 16
f 19 11 7
f 19 14 11
f 19 3 14
f 20 11 1
f 20 1 2
f 20 2 7
f 20 7 11
f 21 12 3
f 21 7 12
f 21 19 7
f 21 3 19
f 22 3 12
f 22 16 10
f 22 12 16
f 23 14 4
f 23 9 14
f 24 15 9
f 24 5 15
f 25 14 6
f 25 4 14
f 26 14 3
f 26 3 6
f 26 6 14
f 28 18 6
f 28 6 3
f 28 3 22
f 29 18 10
f 30 24 13
f 30 5 24
f 30 27 17
f 30 17 5
f 31 23 13
f 31 13 24
f 32 25 6
f 32 6 18
f 32 18 29
f 33 23 4
f 33 30 23
f 33 27 30
f 34 28 22
f 34 22 10
f 34 10 18
f 34 18 28
f 35 4 25
f 35 32 29
f 35 25 32
f 36 29 10
f 36 10 17
f 37 30 13
f 37 13 23
f 37 23 30
f 38 31 24
f 38 24 9
f 38 9 23
f 38 23 31
f 39 17 27
f 39 27 33
f 39 36 17
f 39 29 36
f 39 33 4
f 39 35 29
f 39 4 35

