# https://github.com/mikedh/trimesh
v 0.33387323 -0.01819146 -0.03462189
v 0.41771799 0.14782664 -0.23484848
v 0.38741496 0.13267513 -0.02272727
v 0.29650587 0.14782664 -0.05303030
v 0.28135436 0.05691755 -0.23484848
v 0.41771799 0.17812967 -0.21969697
v 0.27961350 0.09928802 0.00674576
v 0.41771799 0.13267513 -0.11363636
v 0.37694705 0.00751976 -0.22537029
v 0.35711193 0.14782664 -0.05303030
v 0.28135436 0.14782664 -0.15909091
v 0.32785939 0.14094962 -0.23672729
v 0.34196042 0.10237210 0.00757576
v 0.28135436 0.13267513 -0.00757576
v 0.28135436 0.05691755 -0.02272727
v 0.35711193 -0.00368851 -0.03787879
v 0.41771799 0.16297816 -0.14393939
v 0.32680890 0.01146301 -0.23484848
v 0.41771799 0.13267513 -0.20454545
v 0.38741496 0.17812967 -0.21969697
v 0.28135436 0.08722058 -0.23484848
v 0.31165739 0.08722058 0.00757576
v 0.28135436 0.14782664 -0.08333333
v 0.34196042 0.13267513 -0.00757576
v 0.34196042 0.11752361 0.00757576
v 0.32680890 -0.01884002 -0.15909091
v 0.32757553 -0.01882498 -0.03653335
v 0.40256648 0.11752361 -0.05303030
v 0.35711193 -0.01884002 -0.06818182
v 0.37226345 0.10237210 -0.00757576
v 0.38741496 0.17812967 -0.23484848
v 0.28159681 0.11003755 0.00344553
v 0.40256648 0.13267513 -0.05303030
v 0.35704715 -0.01886811 -0.15910629
v 0.37226345 0.11752361 -0.00757576
v 0.38741496 0.10237210 -0.02272727
v 0.41771799 0.17812967 -0.23484848
v 0.41771799 0.14782664 -0.11363636
f 8 2 6
f 10 6 4
f 14 10 4
f 15 7 5
f 16 13 1
f 17 8 6
f 17 10 3
f 17 6 10
f 18 2 9
f 18 12 2
f 18 5 12
f 19 9 2
f 19 2 8
f 19 8 9
f 20 4 6
f 21 5 7
f 21 7 11
f 21 12 5
f 21 11 12
f 22 7 1
f 22 1 13
f 23 11 7
f 23 7 14
f 23 14 4
f 23 20 11
f 23 4 20
f 24 3 10
f 24 10 14
f 25 24 14
f 25 3 24
f 25 22 13
f 25 7 22
f 26 15 5
f 26 5 18
f 26 18 9
f 27 1 7
f 27 7 15
f 27 15 26
f 29 9 8
f 29 28 16
f 29 8 28
f 29 16 1
f 29 1 27
f 30 13 16
f 30 25 13
f 31 12 11
f 31 11 20
f 31 20 6
f 32 25 14
f 32 14 7
f 32 7 25
f 33 17 3
f 33 3 28
f 33 28 8
f 34 26 9
f 34 9 29
f 34 29 27
f 34 27 26
f 35 30 3
f 35 3 25
f 35 25 30
f 36 28 3
f 36 3 30
f 36 30 16
f 36 16 28
f 37 2 12
f 37 12 31
f 37 31 6
f 37 6 2
f 38 33 8
f 38 8 17
f 38 17 33

