# https://github.com/mikedh/trimesh
v 0.34196042 -0.10974912 -0.35606061
v 0.33956156 -0.11153495 -0.48160315
v 0.34127737 0.08709455 -0.48313798
v 0.12983921 0.08722058 -0.35606061
v 0.12983921 -0.10974912 -0.35606061
v 0.34196042 0.08722058 -0.35606061
v 0.12982752 0.08720392 -0.49191861
v 0.29603498 -0.11013878 -0.48769808
v 0.12949841 -0.00084500 -0.48530508
v 0.12983921 -0.10974912 -0.41666667
v 0.19039469 -0.06454786 -0.49077687
f 1 2 3
f 5 2 1
f 5 1 4
f 6 1 3
f 6 4 1
f 7 6 3
f 7 4 6
f 8 7 3
f 8 3 2
f 9 5 4
f 9 4 7
f 10 8 2
f 10 2 5
f 10 5 9
f 11 9 7
f 11 7 8
f 11 10 9
f 11 8 10

