# https://github.com/mikedh/trimesh
v 0.16014224 -0.18550669 0.09848485
v 0.20559678 -0.17035518 -0.05303030
v 0.08438466 -0.10974912 0.26515152
v -0.05197898 -0.10974912 0.32575758
v 0.12983921 -0.18550669 -0.03787879
v 0.14499072 -0.12490063 0.05303030
v 0.03893011 -0.15520366 0.32575758
v 0.20559678 -0.15520366 -0.00757576
v 0.17529375 -0.18550669 -0.02272727
v 0.08438466 -0.10974912 0.18939394
v 0.13944532 -0.15978046 -0.04020811
v 0.06923314 -0.15520366 0.29545455
v 0.03893011 -0.10974912 0.32575758
v -0.05197898 -0.15520366 0.32575758
v 0.20559678 -0.17035518 -0.00757576
v 0.16014224 -0.14005215 0.11363636
v 0.20279308 -0.15027343 -0.05290295
v 0.16014224 -0.18550669 -0.03787879
v 0.16014224 -0.12490063 0.09848485
v -0.04845051 -0.11358188 0.30727009
v 0.06923314 -0.17035518 0.26515152
v 0.06923314 -0.10974912 0.29545455
v 0.12983921 -0.18550669 0.06818182
v 0.17529375 -0.18550669 0.06818182
v 0.19044527 -0.17035518 0.03787879
v 0.19044527 -0.17035518 -0.05303030
v 0.09953617 -0.10974912 0.21969697
v 0.12983921 -0.12490063 0.06818182
v -0.04902620 -0.14778238 0.30761886
v 0.09953617 -0.17035518 0.23484848
v 0.05408163 -0.17035518 0.26515152
v 0.19044527 -0.15520366 0.03787879
v 0.16014224 -0.17035518 0.11363636
v 0.19015782 -0.15406121 -0.05260729
v 0.09953617 -0.10974912 0.18939394
v 0.14499072 -0.18550669 0.09848485
f 9 1 5
f 10 6 4
f 10 4 3
f 13 3 4
f 13 4 7
f 13 7 12
f 14 7 4
f 15 2 8
f 15 9 2
f 17 8 2
f 17 11 6
f 18 9 5
f 18 5 2
f 18 2 9
f 19 3 16
f 19 16 8
f 19 17 6
f 19 8 17
f 20 11 5
f 21 12 7
f 21 7 14
f 22 13 12
f 22 3 13
f 22 16 3
f 22 12 16
f 23 14 5
f 23 5 1
f 24 1 9
f 24 9 15
f 25 15 8
f 25 24 15
f 26 17 2
f 26 2 5
f 26 5 11
f 27 10 3
f 27 3 19
f 28 20 4
f 28 4 6
f 28 6 11
f 28 11 20
f 29 14 4
f 29 4 20
f 29 20 5
f 29 5 14
f 30 21 1
f 30 12 21
f 31 21 14
f 31 14 23
f 31 1 21
f 32 25 8
f 32 8 16
f 32 16 25
f 33 25 16
f 33 24 25
f 33 16 12
f 33 12 30
f 33 30 1
f 33 1 24
f 34 26 11
f 34 11 17
f 34 17 26
f 35 27 19
f 35 19 6
f 35 6 10
f 35 10 27
f 36 31 23
f 36 23 1
f 36 1 31

