# https://github.com/mikedh/trimesh
v 0.41182623 0.08560911 -0.28221463
v 0.41455187 0.08686897 -0.35592866
v 0.41771799 0.19328119 -0.29545455
v -0.20349413 0.19328119 -0.29545455
v -0.20349413 0.08722058 -0.35606061
v -0.18834261 0.17812967 -0.23484848
v 0.41771799 0.17812967 -0.28030303
v 0.05408163 0.20843270 -0.35606061
v -0.00652443 0.20843270 -0.34090909
v -0.20349413 0.08722058 -0.23484848
v 0.41771799 0.19328119 -0.35606061
v 0.35711193 0.16297816 -0.23484848
v 0.40256648 0.19328119 -0.28030303
v -0.12773655 0.19328119 -0.28030303
v -0.20340091 0.18818290 -0.35698162
v -0.20343534 0.15735528 -0.23641848
v 0.35849192 0.08623004 -0.23410978
v 0.05408163 0.20843270 -0.34090909
v 0.12983921 0.17812967 -0.23484848
v -0.00652443 0.20843270 -0.35606061
v -0.20349413 0.17812967 -0.25000000
f 5 2 1
f 7 1 2
f 10 5 1
f 10 4 5
f 11 7 2
f 11 3 7
f 11 8 3
f 13 12 7
f 13 7 3
f 14 9 4
f 14 4 6
f 14 13 9
f 14 6 13
f 15 5 4
f 15 8 11
f 15 11 2
f 15 2 5
f 16 10 6
f 17 6 10
f 17 10 1
f 17 1 7
f 17 7 12
f 18 13 3
f 18 3 8
f 18 8 9
f 18 9 13
f 19 13 6
f 19 12 13
f 19 17 12
f 19 6 17
f 20 9 8
f 20 8 15
f 20 15 4
f 20 4 9
f 21 16 6
f 21 6 4
f 21 4 10
f 21 10 16

