# https://github.com/mikedh/trimesh
v 0.12983921 -0.18550669 -0.21969697
v 0.12721707 -0.17663130 -0.35656888
v 0.12983921 -0.10974912 -0.18939394
v -0.30955473 -0.09459760 -0.09848485
v -0.43076686 -0.18550669 -0.26515152
v -0.12773655 -0.10974912 -0.44696970
v 0.00912650 -0.13471427 -0.09914343
v 0.12983921 -0.10974912 -0.35606061
v -0.12773655 -0.20065821 -0.44696970
v -0.43302374 -0.10795161 -0.35651121
v 0.05572848 -0.14270740 -0.11382412
v 0.00862708 -0.09459760 -0.09848485
v -0.30967962 -0.13846615 -0.09825233
v 0.09953617 -0.20065821 -0.35606061
v -0.02167595 -0.10974912 -0.44696970
v -0.41906775 -0.10918823 -0.23661353
v -0.35500928 -0.09459760 -0.23484848
v -0.42113587 -0.18095366 -0.35668146
v -0.44591837 -0.12490063 -0.35606061
v 0.12789217 -0.16304521 -0.19023661
v 0.05408163 -0.10974912 -0.11363636
v 0.05408163 -0.17035518 -0.12878788
v -0.02172563 -0.18698008 -0.44311502
v 0.06923314 -0.18550669 -0.18939394
v -0.09743352 -0.20065821 -0.34090909
v 0.00862708 -0.09459760 -0.23484848
v -0.42093968 -0.16528784 -0.23551304
v -0.35500928 -0.09459760 -0.15909091
v -0.44591837 -0.10974912 -0.32575758
v 0.09953617 -0.18550669 -0.18939394
v 0.03893011 -0.17035518 -0.12878788
v -0.12773655 -0.20065821 -0.35606061
v -0.44591837 -0.12490063 -0.32575758
v 0.09953617 -0.20065821 -0.34090909
f 8 1 2
f 8 3 1
f 12 3 8
f 12 7 11
f 13 12 4
f 13 7 12
f 14 2 1
f 15 8 2
f 15 9 6
f 17 6 10
f 17 4 12
f 17 15 6
f 18 9 5
f 19 10 6
f 19 6 9
f 19 9 18
f 19 18 5
f 20 1 3
f 20 3 11
f 21 12 11
f 21 11 3
f 21 3 12
f 22 11 7
f 22 7 13
f 22 20 11
f 23 14 9
f 23 2 14
f 23 15 2
f 23 9 15
f 25 9 14
f 25 24 5
f 26 12 8
f 26 8 15
f 26 17 12
f 26 15 17
f 27 13 4
f 27 4 16
f 27 16 5
f 27 5 13
f 28 16 4
f 28 4 17
f 29 10 19
f 29 16 28
f 29 28 17
f 29 17 10
f 29 5 16
f 30 1 20
f 30 20 22
f 30 22 24
f 30 24 25
f 31 22 13
f 31 13 5
f 31 24 22
f 31 5 24
f 32 25 5
f 32 5 9
f 32 9 25
f 33 29 19
f 33 19 5
f 33 5 29
f 34 14 1
f 34 1 30
f 34 30 25
f 34 25 14

