# https://github.com/mikedh/trimesh
v -0.12747257 -0.18442795 -0.41669399
v -0.12762203 -0.18061911 -0.46082984
v -0.12773655 0.13267513 -0.41666667
v -0.20349413 0.13267513 -0.41666667
v -0.20381899 -0.18133112 -0.46254667
v -0.20404370 -0.17746983 -0.41659011
v -0.12773655 0.13267513 -0.44696970
v -0.20349413 0.13267513 -0.44696970
v -0.12773655 -0.00368851 -0.46212121
v -0.20349413 -0.06429457 -0.46212121
v -0.15803958 -0.00368851 -0.46212121
f 5 2 1
f 6 1 3
f 6 3 4
f 6 5 1
f 7 1 2
f 7 3 1
f 7 4 3
f 8 6 4
f 8 5 6
f 8 4 7
f 9 7 2
f 9 2 5
f 9 8 7
f 10 5 8
f 11 9 5
f 11 5 10
f 11 10 8
f 11 8 9

