# https://github.com/mikedh/trimesh
v 0.11468769 -0.03399154 0.43181818
v 0.20559678 -0.03399154 0.28030303
v 0.17529375 0.05691755 0.34090909
v -0.05197898 0.04176604 0.50757576
v -0.05470590 -0.02755183 0.48333612
v 0.17529375 0.05691755 0.26515152
v 0.05408163 0.04176604 0.49242424
v 0.17529375 -0.03399154 0.34090909
v -0.05197898 -0.03399154 0.50757576
v 0.20559678 0.05691755 0.28030303
v 0.06923314 0.05691755 0.41666667
v -0.05452356 0.04062927 0.48297579
v 0.18649005 -0.02526422 0.26979024
v 0.11468769 0.04176604 0.43181818
v 0.02377860 -0.03399154 0.50757576
v 0.09953617 0.05691755 0.43181818
v 0.16014224 0.05691755 0.28030303
v 0.19903685 -0.02509692 0.26166367
v 0.05408163 -0.03399154 0.49242424
v 0.02377860 0.04176604 0.50757576
v 0.14499072 0.05691755 0.38636364
v 0.06923314 0.05691755 0.43181818
v 0.19990824 0.04341386 0.26256194
f 8 1 2
f 8 2 3
f 8 3 1
f 9 5 2
f 9 2 1
f 9 4 5
f 10 6 3
f 10 3 2
f 11 3 6
f 12 6 5
f 12 5 4
f 12 4 11
f 13 2 5
f 13 5 6
f 14 7 1
f 14 1 3
f 15 9 1
f 15 4 9
f 16 3 11
f 16 7 14
f 17 12 11
f 17 11 6
f 17 6 12
f 18 2 13
f 18 13 6
f 19 15 1
f 19 1 7
f 19 7 15
f 20 15 7
f 20 4 15
f 20 16 4
f 20 7 16
f 21 16 14
f 21 14 3
f 21 3 16
f 22 16 11
f 22 11 4
f 22 4 16
f 23 10 2
f 23 2 18
f 23 18 6
f 23 6 10

