# https://github.com/mikedh/trimesh
v 0.41771799 -0.17035518 -0.37121212
v 0.43286951 -0.12490063 -0.38636364
v 0.44802102 -0.03399154 -0.23484848
v 0.38741496 0.17812967 -0.23484848
v 0.34127737 0.08709455 -0.48313798
v 0.40256648 0.19328119 -0.47727273
v 0.35711193 -0.10974912 -0.23484848
v 0.43286951 -0.10974912 -0.29545455
v 0.38755150 -0.11011313 -0.47406989
v 0.43286951 0.04176604 -0.40151515
v 0.41771799 0.17812967 -0.23484848
v 0.35711193 0.16297816 -0.23484848
v 0.38741496 0.05691755 -0.20454545
v 0.43286951 -0.12490063 -0.35606061
v 0.40256648 -0.10974912 -0.23484848
v 0.41771799 -0.17035518 -0.41666667
v 0.34196042 -0.17035518 -0.41666667
v 0.40256648 0.07206907 -0.49242424
v 0.44802102 -0.04914305 -0.26515152
v 0.38739200 0.19298166 -0.44683106
v 0.44802102 0.04176604 -0.26515152
v 0.37226345 0.01146301 -0.20454545
v 0.41771799 0.02661452 -0.21969697
v 0.34112894 -0.17724778 -0.35447218
v 0.41771799 -0.10974912 -0.25000000
v 0.34033659 -0.06613220 -0.46903912
v 0.34196042 0.02661452 -0.49242424
v 0.39698583 -0.11014514 -0.47226169
v 0.40256648 0.14782664 -0.49242424
v 0.43286951 -0.10974912 -0.40151515
v 0.37226345 0.17812967 -0.25000000
v 0.38741496 0.19328119 -0.47727273
v 0.43286951 0.07206907 -0.37121212
v 0.41771799 0.17812967 -0.28030303
v 0.44802102 0.04176604 -0.25000000
v 0.36340286 0.05450920 -0.21389119
v 0.38741496 -0.06429457 -0.21969697
v 0.38741496 0.01146301 -0.20454545
v 0.44802102 -0.01884002 -0.23484848
v 0.40256648 -0.17035518 -0.35606061
v 0.34196042 0.08722058 -0.35606061
v 0.43286951 -0.09459760 -0.26515152
v 0.41771799 -0.09459760 -0.23484848
v 0.35711193 0.02661452 -0.49242424
v 0.38741496 0.14782664 -0.49242424
v 0.35790368 0.15940212 -0.28247075
v 0.36961572 -0.06436281 -0.22006058
f 13 4 12
f 13 11 4
f 14 8 1
f 14 1 2
f 16 2 1
f 17 9 16
f 19 14 2
f 19 3 8
f 19 8 14
f 20 11 6
f 20 4 11
f 21 19 10
f 21 3 19
f 23 11 13
f 24 15 7
f 24 7 12
f 24 17 16
f 24 16 1
f 25 15 1
f 25 1 8
f 26 9 17
f 26 17 24
f 27 26 5
f 27 9 26
f 28 16 9
f 28 9 18
f 29 6 10
f 29 10 18
f 29 18 27
f 30 18 10
f 30 2 16
f 30 28 18
f 30 16 28
f 30 19 2
f 30 10 19
f 31 12 4
f 31 4 20
f 32 20 6
f 32 31 20
f 32 12 31
f 32 6 29
f 33 21 10
f 33 10 6
f 33 6 21
f 34 21 6
f 34 6 11
f 34 11 21
f 35 21 11
f 35 3 21
f 36 22 13
f 36 13 12
f 36 12 7
f 36 7 22
f 37 7 15
f 38 13 22
f 38 23 13
f 38 3 23
f 38 22 37
f 39 23 3
f 39 11 23
f 39 35 11
f 39 3 35
f 40 24 1
f 40 1 15
f 40 15 24
f 41 24 12
f 41 12 5
f 41 26 24
f 41 5 26
f 42 25 8
f 42 8 3
f 43 15 25
f 43 37 15
f 43 38 37
f 43 3 38
f 43 42 3
f 43 25 42
f 44 27 18
f 44 18 9
f 44 9 27
f 45 29 27
f 45 27 5
f 45 32 29
f 45 5 32
f 46 32 5
f 46 5 12
f 46 12 32
f 47 37 22
f 47 22 7
f 47 7 37

