# https://github.com/mikedh/trimesh
v 0.22074830 -0.03399154 0.26515152
v 0.32680890 -0.03399154 0.03787879
v 0.29650587 0.05691755 0.11363636
v 0.17529375 0.05691755 0.26515152
v 0.17529375 -0.03399154 0.25000000
v 0.29650587 0.05691755 0.00757576
v 0.22074830 0.05691755 0.26515152
v 0.28135436 -0.01884002 0.14393939
v 0.18649005 -0.02526422 0.26979024
v 0.32680890 0.04176604 0.03787879
v 0.17529375 0.05691755 0.25000000
v 0.30768805 -0.02776595 0.01213829
v 0.26620284 -0.03399154 0.17424242
v 0.29650587 0.02661452 0.11363636
v 0.31165739 0.05691755 0.00757576
v 0.31165739 0.05691755 0.06818182
v 0.31916619 -0.02792549 0.00423482
v 0.32159454 0.03962388 0.00554835
f 5 2 1
f 6 4 3
f 7 3 4
f 9 5 1
f 9 4 5
f 9 7 4
f 9 1 7
f 10 3 2
f 11 6 5
f 11 5 4
f 11 4 6
f 12 2 5
f 12 5 6
f 13 1 2
f 13 2 8
f 13 7 1
f 13 3 7
f 14 8 2
f 14 2 3
f 14 13 8
f 14 3 13
f 15 6 3
f 16 15 3
f 16 3 10
f 16 10 15
f 17 12 6
f 17 2 12
f 18 17 6
f 18 6 15
f 18 15 10
f 18 10 2
f 18 2 17

