# https://github.com/mikedh/trimesh
v -0.03682746 0.11752361 0.32575758
v -0.01707498 0.11928770 0.31244109
v -0.02167595 0.16297816 0.32575758
v -0.06713049 0.16297816 0.29545455
v -0.16647960 0.12903870 0.04824512
v -0.03682746 0.16297816 0.32575758
v -0.14288807 0.11752361 0.05303030
v -0.17319110 0.13267513 0.09848485
v -0.15196951 0.15614533 0.05197237
v -0.06713049 0.11752361 0.29545455
v -0.17319110 0.11752361 0.08333333
v -0.17319110 0.16297816 0.09848485
v -0.02167595 0.16297816 0.29545455
v -0.11258504 0.16297816 0.21969697
v -0.16829141 0.15748829 0.05160800
v -0.11258504 0.13267513 0.21969697
f 1 2 3
f 6 1 3
f 6 3 4
f 6 4 1
f 7 2 1
f 9 7 5
f 10 1 4
f 10 7 1
f 11 5 7
f 11 10 8
f 11 7 10
f 12 4 3
f 12 11 8
f 13 3 2
f 13 2 7
f 13 7 9
f 13 12 3
f 13 9 12
f 14 10 4
f 14 12 8
f 14 4 12
f 15 12 9
f 15 9 5
f 15 5 11
f 15 11 12
f 16 14 8
f 16 8 10
f 16 10 14

