# https://github.com/mikedh/trimesh
v -0.24894867 -0.20065821 -0.37121212
v -0.20349413 -0.15520366 -0.50757576
v -0.20349413 -0.01884002 -0.35606061
v -0.37016079 -0.01884002 -0.35606061
v -0.43076686 -0.20065821 -0.47727273
v -0.20330106 -0.01990454 -0.48611612
v -0.43076686 -0.20065821 -0.35606061
v -0.20363419 -0.17579548 -0.35649571
v -0.26410019 -0.20065821 -0.47727273
v -0.40258467 -0.01884160 -0.48452576
v -0.40046383 -0.21580972 -0.43181818
v -0.40046383 -0.20065821 -0.35606061
v -0.43076686 -0.18550669 -0.49242424
v -0.20422541 -0.17691240 -0.48169226
v -0.42758103 -0.12265152 -0.35615562
v -0.24894867 -0.04914305 -0.50757576
v -0.41561534 -0.21580972 -0.43181818
v -0.24894867 -0.20065821 -0.46212121
v -0.40046383 -0.21580972 -0.46212121
v -0.40046383 -0.01884002 -0.41666667
v -0.20349413 -0.06429457 -0.50757576
v -0.35500928 -0.10974912 -0.50757576
v -0.41561534 -0.21580972 -0.46212121
v -0.21864564 -0.04914305 -0.50757576
v -0.32470625 -0.07944609 -0.50757576
v -0.33985776 -0.15520366 -0.50757576
v -0.35500928 -0.14005215 -0.50757576
f 7 3 4
f 8 6 3
f 8 2 6
f 10 3 6
f 12 1 8
f 12 11 1
f 12 7 11
f 12 8 3
f 12 3 7
f 13 9 5
f 13 2 9
f 13 5 7
f 14 8 1
f 14 9 2
f 14 2 8
f 15 7 4
f 15 13 7
f 15 10 13
f 16 10 6
f 17 11 7
f 17 7 5
f 18 1 11
f 18 14 1
f 18 9 14
f 19 5 9
f 19 18 11
f 19 9 18
f 19 11 17
f 20 15 4
f 20 10 15
f 20 4 3
f 20 3 10
f 21 6 2
f 21 2 16
f 22 13 10
f 22 16 2
f 23 19 17
f 23 17 5
f 23 5 19
f 24 21 16
f 24 16 6
f 24 6 21
f 25 22 10
f 25 10 16
f 25 16 22
f 26 22 2
f 26 2 13
f 27 26 13
f 27 13 22
f 27 22 26

