# https://github.com/mikedh/trimesh
v -0.20349413 -0.10974912 -0.23484848
v -0.20349413 -0.10974912 -0.35606061
v -0.20349413 -0.01884002 -0.35606061
v -0.38531231 -0.01884002 -0.23484848
v -0.44591837 -0.10974912 -0.32575758
v -0.20349413 -0.01884002 -0.23484848
v -0.41906775 -0.10918823 -0.23661353
v -0.44591837 -0.07944609 -0.35606061
v -0.43076686 -0.07944609 -0.23484848
v -0.43302374 -0.10795161 -0.35651121
v -0.38531231 -0.01884002 -0.35606061
v -0.40046383 -0.01884002 -0.26515152
v -0.44591837 -0.07944609 -0.34090909
v -0.39370513 -0.01891262 -0.31598948
v -0.44591837 -0.09459760 -0.32575758
v -0.43076686 -0.06429457 -0.28030303
f 1 2 3
f 5 2 1
f 6 1 3
f 6 3 4
f 6 4 1
f 7 5 1
f 9 7 1
f 9 1 4
f 9 5 7
f 10 3 2
f 10 2 5
f 10 5 8
f 11 4 3
f 11 10 8
f 11 3 10
f 12 9 4
f 12 4 11
f 13 8 5
f 13 12 8
f 14 12 11
f 14 11 8
f 14 8 12
f 15 13 5
f 15 5 9
f 15 9 13
f 16 13 9
f 16 9 12
f 16 12 13

