# https://github.com/mikedh/trimesh
v 0.22074830 0.01146301 -0.06818182
v 0.28135436 0.05691755 -0.09848485
v 0.29650587 0.11752361 0.02272727
v -0.18834261 0.16297816 0.05303030
v -0.24961045 0.02849556 -0.10684205
v 0.28144513 0.13128955 -0.09842210
v -0.29440322 0.07206907 0.02272727
v 0.29650587 0.08722058 0.02272727
v 0.00614347 0.00279467 -0.10743930
v 0.19044527 0.14782664 0.03787879
v -0.18834261 0.14782664 -0.09848485
v 0.28321163 0.05501579 -0.05637097
v 0.22074830 0.07206907 0.02272727
v 0.29618487 0.11028189 0.00311149
v 0.22080522 0.01144683 -0.08984024
v -0.20349413 -0.00368851 -0.08333333
v -0.14288807 0.16297816 -0.05303030
v 0.28135436 0.13267513 -0.00757576
v -0.24894867 0.14782664 -0.06818182
v -0.18834261 0.11752361 0.05303030
v 0.00862708 -0.00368851 -0.08333333
v -0.24894867 0.02661452 -0.08333333
v -0.20349413 -0.00368851 -0.09848485
v -0.09743352 -0.00368851 -0.06818182
v 0.20559678 0.14782664 -0.06818182
v -0.29440322 0.08722058 0.02272727
v -0.20349413 0.16297816 -0.05303030
v -0.24958283 0.13436436 -0.09796234
v -0.16213149 0.12934436 0.05467191
v -0.17319110 0.01146301 -0.05303030
v -0.03682746 -0.00368851 -0.06818182
v 0.20559678 0.14782664 -0.00757576
v -0.29403575 0.08648303 0.00543081
v -0.20349413 0.16297816 0.00757576
v 0.19044527 0.11752361 0.03787879
v -0.29267576 0.08161680 0.00334122
f 9 6 2
f 9 5 6
f 10 8 3
f 11 6 5
f 12 8 1
f 12 2 8
f 13 1 8
f 14 6 3
f 14 3 8
f 14 8 2
f 14 2 6
f 15 9 2
f 15 12 1
f 15 2 12
f 17 4 10
f 18 10 3
f 18 3 6
f 20 4 7
f 20 7 13
f 21 15 1
f 21 9 15
f 22 16 7
f 22 7 5
f 23 5 9
f 23 21 16
f 23 9 21
f 23 22 5
f 23 16 22
f 24 13 7
f 24 16 21
f 25 6 11
f 25 11 17
f 25 18 6
f 26 7 4
f 26 4 19
f 27 17 11
f 27 11 19
f 27 4 17
f 28 19 11
f 28 11 5
f 29 10 4
f 29 4 20
f 30 24 7
f 30 7 16
f 30 16 24
f 31 24 21
f 31 21 1
f 31 1 13
f 31 13 24
f 32 25 17
f 32 17 10
f 32 10 18
f 32 18 25
f 33 7 26
f 33 28 5
f 33 26 19
f 33 19 28
f 34 27 19
f 34 19 4
f 34 4 27
f 35 8 10
f 35 10 29
f 35 13 8
f 35 29 20
f 35 20 13
f 36 33 5
f 36 5 7
f 36 7 33

