# https://github.com/mikedh/trimesh
mtllib material.mtl
usemtl Material020
v -0.04549032 -0.16961131 -0.25031844
v -0.04195675 -0.19434629 -0.25031844
v -0.04195675 -0.18021201 -0.32452339
v -0.08082601 -0.15901060 -0.32452339
v -0.10202742 -0.20141343 -0.25031844
v -0.05609103 -0.15547703 -0.29625484
v -0.04195675 -0.18021201 -0.25385201
v -0.09240547 -0.16458149 -0.24985876
v -0.05255746 -0.22261484 -0.32452339
v -0.04549032 -0.16961131 -0.32452339
v -0.04195675 -0.18727915 -0.25031844
v -0.04195675 -0.17667844 -0.28565413
v -0.08542848 -0.22041423 -0.25011069
v -0.05962460 -0.15194346 -0.27505343
v -0.09849385 -0.18021201 -0.32098982
v -0.04195675 -0.20494700 -0.32452339
v -0.08960758 -0.21725128 -0.32546360
v -0.04902389 -0.16254417 -0.29978841
v -0.06315816 -0.15547703 -0.31745625
v -0.05177864 -0.16412693 -0.25022062
v -0.04195675 -0.17667844 -0.31745625
v -0.05255746 -0.21908127 -0.25031844
v -0.07729244 -0.15194346 -0.27505343
v -0.09849385 -0.16607774 -0.26091915
v -0.04902389 -0.21908127 -0.32452339
v -0.05255746 -0.16254417 -0.32452339
v -0.09849385 -0.18374558 -0.32452339
v -0.08082601 -0.22614841 -0.26091915
v -0.06315816 -0.15194346 -0.28918770
v -0.04549032 -0.20494700 -0.25031844
v -0.07729244 -0.15547703 -0.31392268
v -0.09142672 -0.16607774 -0.31392268
v -0.09849385 -0.16607774 -0.25031844
v -0.10202742 -0.17314488 -0.26445272
v -0.05255746 -0.22261484 -0.32098982
v -0.04549032 -0.21201413 -0.31745625
v -0.05609103 -0.15901060 -0.32098982
v -0.05255746 -0.15901060 -0.30332198
v -0.09496028 -0.17314488 -0.32452339
v -0.09849385 -0.20141343 -0.32452339
v -0.08789315 -0.22261484 -0.32452339
v -0.06315816 -0.22614841 -0.25031844
v -0.05962460 -0.15194346 -0.27858699
v -0.04195675 -0.20494700 -0.32098982
v -0.07375887 -0.15547703 -0.31745625
v -0.08435958 -0.15547703 -0.28565413
v -0.07375887 -0.15194346 -0.28918770
v -0.10202742 -0.17314488 -0.25031844
v -0.10202742 -0.18374558 -0.29272127
v -0.04902389 -0.21908127 -0.32098982
v -0.09496028 -0.16961131 -0.30685555
v -0.09849385 -0.17667844 -0.31392268
v -0.07729244 -0.22614841 -0.27505343
v -0.09849385 -0.21201413 -0.25385201
v -0.08082601 -0.22614841 -0.25031844
v -0.05609103 -0.22261484 -0.25031844
v -0.07729244 -0.15194346 -0.28212056
v -0.08435958 -0.15547703 -0.27505343
v -0.09496028 -0.16254417 -0.26445272
v -0.08435958 -0.15901060 -0.31038911
v -0.10202742 -0.19434629 -0.28565413
v -0.10202742 -0.18021201 -0.28918770
v -0.06669173 -0.22614841 -0.27151986
v -0.10202742 -0.20141343 -0.26091915
f 7 2 3
f 11 7 1
f 11 2 7
f 12 7 3
f 12 1 7
f 12 10 1
f 13 8 5
f 16 3 2
f 17 3 16
f 17 10 3
f 18 1 10
f 18 14 1
f 18 6 14
f 20 11 1
f 20 8 2
f 20 2 11
f 20 1 14
f 21 12 3
f 21 3 10
f 21 10 12
f 22 8 13
f 23 20 14
f 23 8 20
f 25 17 16
f 25 9 17
f 26 17 4
f 26 10 17
f 29 6 19
f 29 23 14
f 30 2 8
f 30 8 22
f 33 8 23
f 34 33 24
f 35 9 25
f 36 25 16
f 36 30 22
f 37 26 4
f 37 4 19
f 37 19 6
f 38 18 10
f 38 10 26
f 38 6 18
f 38 37 6
f 38 26 37
f 39 27 15
f 39 4 17
f 39 17 27
f 39 32 4
f 40 27 17
f 41 17 9
f 41 40 17
f 42 9 35
f 43 29 14
f 43 14 6
f 43 6 29
f 44 16 2
f 44 2 30
f 44 36 16
f 44 30 36
f 45 19 4
f 45 4 31
f 45 29 19
f 46 31 4
f 47 23 29
f 47 45 31
f 47 29 45
f 48 5 8
f 48 8 33
f 48 34 5
f 48 33 34
f 49 15 27
f 49 27 40
f 49 5 34
f 50 35 25
f 50 22 35
f 50 36 22
f 50 25 36
f 51 39 24
f 51 24 32
f 51 32 39
f 52 34 24
f 52 24 39
f 52 39 15
f 53 41 9
f 53 28 41
f 53 42 28
f 54 40 41
f 54 13 5
f 55 42 13
f 55 28 42
f 55 13 54
f 55 54 41
f 55 41 28
f 56 42 35
f 56 35 22
f 56 22 13
f 56 13 42
f 57 46 23
f 57 31 46
f 57 47 31
f 57 23 47
f 58 33 23
f 58 23 46
f 59 24 33
f 59 58 46
f 59 33 58
f 59 46 32
f 59 32 24
f 60 46 4
f 60 4 32
f 60 32 46
f 61 49 40
f 61 5 49
f 62 49 34
f 62 34 52
f 62 52 15
f 62 15 49
f 63 53 9
f 63 9 42
f 63 42 53
f 64 54 5
f 64 40 54
f 64 61 40
f 64 5 61

