# https://github.com/mikedh/trimesh
mtllib material.mtl
usemtl Material047
v 0.00397965 0.49823322 -0.17964706
v 0.02849430 0.45059470 -0.19612539
v 0.02871463 0.48763251 -0.21498275
v -0.02075534 0.48056537 -0.21851632
v -0.04195675 0.44169611 -0.17964706
v 0.02164749 0.46643110 -0.21851632
v -0.01015463 0.50176678 -0.20084848
v 0.02822741 0.49340148 -0.19722644
v 0.00389114 0.43527798 -0.17916009
v 0.02871463 0.46289753 -0.21498275
v 0.02164749 0.48409894 -0.21851632
v -0.03842318 0.45229682 -0.20791562
v -0.04195675 0.48409894 -0.18671420
v 0.02871463 0.49469965 -0.20791562
v -0.00334620 0.43342906 -0.17789605
v 0.02518106 0.48056537 -0.21851632
v -0.00308749 0.43109541 -0.18318063
v 0.01811392 0.49823322 -0.20791562
v -0.01722177 0.46643110 -0.21851632
v 0.01458035 0.45936396 -0.21498275
v -0.03842318 0.48056537 -0.17964706
v -0.02428891 0.49469965 -0.17964706
v -0.04549032 0.46643110 -0.20791562
v -0.04195675 0.48763251 -0.20438205
v 0.02871463 0.44876325 -0.20084848
v 0.02518106 0.46996466 -0.21851632
v -0.02782247 0.43109541 -0.18318063
v 0.02164749 0.49116608 -0.21498275
v 0.01104678 0.50176678 -0.19731491
v -0.01015463 0.43816254 -0.19378134
v -0.02782247 0.45936396 -0.21498275
v -0.04549032 0.46643110 -0.18318063
v -0.02730291 0.43379245 -0.17813141
v -0.01015463 0.50176678 -0.18671420
v -0.01015463 0.49823322 -0.17964706
v -0.04549032 0.45583039 -0.20438205
v -0.03135604 0.49116608 -0.21144919
v -0.03842318 0.49116608 -0.19378134
v 0.00397965 0.43462897 -0.18671420
v 0.02164749 0.45583039 -0.21144919
v -0.01368820 0.49116608 -0.21498275
v 0.02518106 0.49469965 -0.21144919
v 0.01104678 0.50176678 -0.20084848
v 0.00397965 0.50176678 -0.18671420
v 0.02518106 0.49823322 -0.20438205
v -0.03135604 0.43816254 -0.19378134
v -0.03842318 0.45936396 -0.21144919
v -0.03488961 0.46643110 -0.21498275
v -0.04195675 0.48056537 -0.18318063
v -0.04195675 0.47349823 -0.17964706
v -0.04549032 0.48056537 -0.19378134
v -0.03354832 0.43698173 -0.17856423
v -0.04549032 0.45229682 -0.18318063
v -0.04195675 0.47703180 -0.21144919
v -0.03488961 0.49116608 -0.18671420
v -0.02428891 0.49823322 -0.19024777
v -0.01368820 0.48409894 -0.21851632
v -0.01368820 0.49823322 -0.20791562
v -0.03842318 0.43816254 -0.19024777
v -0.03488961 0.45583039 -0.21144919
v -0.04195675 0.46643110 -0.21144919
v -0.04195675 0.45583039 -0.20791562
v -0.02075534 0.46996466 -0.21851632
v -0.04549032 0.48056537 -0.20438205
f 8 1 2
f 9 2 1
f 11 6 4
f 14 8 2
f 14 10 3
f 15 9 1
f 16 3 10
f 16 11 3
f 16 6 11
f 17 9 15
f 19 4 6
f 20 6 10
f 20 19 6
f 22 13 21
f 25 14 2
f 25 10 14
f 25 2 9
f 26 16 10
f 26 10 6
f 26 6 16
f 27 17 15
f 28 3 11
f 30 17 27
f 31 19 20
f 31 20 30
f 33 22 21
f 33 15 22
f 33 27 15
f 34 29 7
f 35 22 15
f 35 15 1
f 35 34 22
f 35 1 34
f 36 32 23
f 39 25 9
f 39 9 17
f 39 17 30
f 40 20 10
f 40 10 25
f 40 30 20
f 40 39 30
f 40 25 39
f 41 28 11
f 41 18 28
f 42 28 18
f 42 14 3
f 42 3 28
f 43 18 7
f 43 7 29
f 44 1 8
f 44 34 1
f 44 29 34
f 45 8 14
f 45 43 29
f 45 18 43
f 45 42 18
f 45 14 42
f 45 44 8
f 45 29 44
f 46 30 27
f 46 31 30
f 46 12 31
f 48 19 31
f 48 31 47
f 49 21 13
f 50 32 5
f 50 49 32
f 50 21 49
f 50 33 21
f 51 23 32
f 51 38 24
f 51 13 38
f 51 49 13
f 51 32 49
f 52 5 27
f 52 27 33
f 52 50 5
f 52 33 50
f 53 36 5
f 53 5 32
f 53 32 36
f 54 24 37
f 54 37 4
f 54 4 48
f 55 38 13
f 55 13 22
f 56 22 34
f 56 34 7
f 56 7 37
f 56 37 24
f 56 24 38
f 56 55 22
f 56 38 55
f 57 41 11
f 57 11 4
f 57 4 37
f 57 37 41
f 58 41 37
f 58 37 7
f 58 7 18
f 58 18 41
f 59 36 12
f 59 12 46
f 59 5 36
f 59 46 27
f 59 27 5
f 60 47 31
f 60 31 12
f 60 12 47
f 61 48 47
f 61 54 48
f 61 23 54
f 62 47 12
f 62 12 36
f 62 61 47
f 62 36 23
f 62 23 61
f 63 48 4
f 63 4 19
f 63 19 48
f 64 51 24
f 64 23 51
f 64 54 23
f 64 24 54

