# https://github.com/mikedh/trimesh
mtllib material.mtl
usemtl Material121
v 0.09585244 0.15194346 0.05003491
v 0.10214677 0.11982347 0.04994878
v 0.09585244 0.12720848 0.00056495
v 0.06405032 0.12720848 -0.03477074
v 0.06405032 0.12014134 0.05003491
v 0.08525173 0.12014134 -0.02063646
v 0.07465102 0.15194346 -0.01710289
v 0.10291957 0.12720848 0.02176636
v 0.10291957 0.13074205 0.05003491
v 0.06358701 0.11956678 -0.03373731
v 0.06405032 0.15194346 0.05003491
v 0.07465102 0.12367491 -0.03123717
v 0.08770032 0.15282058 0.00102306
v 0.10291957 0.12014134 0.01823279
v 0.10291957 0.13074205 0.02883350
v 0.06615714 0.11896387 -0.03292028
v 0.06382660 0.15205415 -0.02392916
v 0.08525173 0.12367491 -0.02063646
v 0.09938601 0.13074205 0.01116566
v 0.09938601 0.12014134 0.00763209
v 0.09231887 0.15194346 0.01116566
v 0.07465102 0.12014134 -0.03123717
v 0.06758389 0.12720848 -0.03477074
v 0.06540528 0.15245579 -0.02259719
v 0.09231887 0.12720848 -0.00650219
v 0.10291957 0.12367491 0.01823279
v 0.09585244 0.15194346 0.04650134
v 0.09938601 0.13780919 0.02176636
v 0.09938601 0.13427562 0.01469922
v 0.09938601 0.12367491 0.00763209
v 0.09585244 0.14840989 0.02883350
f 9 5 2
f 9 1 5
f 11 5 1
f 11 10 5
f 13 11 1
f 14 9 2
f 14 8 9
f 15 9 8
f 15 1 9
f 16 2 5
f 16 5 10
f 16 14 2
f 17 4 10
f 17 10 11
f 18 12 7
f 18 6 12
f 18 7 13
f 18 3 6
f 19 3 13
f 20 6 3
f 20 16 6
f 20 14 16
f 21 19 13
f 22 12 6
f 22 6 16
f 22 16 10
f 23 4 17
f 23 12 22
f 23 22 10
f 23 10 4
f 23 17 7
f 23 7 12
f 24 13 7
f 24 7 17
f 24 17 11
f 24 11 13
f 25 18 13
f 25 13 3
f 25 3 18
f 26 19 8
f 26 8 14
f 26 14 20
f 27 21 13
f 27 13 1
f 27 1 15
f 28 15 8
f 29 8 19
f 29 19 21
f 29 28 8
f 29 21 28
f 30 26 20
f 30 20 3
f 30 3 19
f 30 19 26
f 31 27 15
f 31 15 28
f 31 28 21
f 31 21 27

