# https://github.com/mikedh/trimesh
mtllib material.mtl
usemtl Material030
v 0.06758389 0.00353357 0.11010559
v 0.06758389 -0.12014134 0.11010559
v 0.06758389 -0.12014134 0.00409852
v -0.11460002 0.00375616 0.00436918
v -0.12322883 -0.07420495 0.11010559
v 0.06758389 0.00353357 0.00409852
v -0.11616170 0.00353357 0.10657202
v -0.12391344 -0.12127241 0.00485037
v -0.12676240 -0.11660777 0.00409852
v -0.11616170 0.00000000 0.11010559
v -0.12057112 -0.12021406 0.10974406
v -0.11969527 -0.02826855 0.00409852
v -0.12322883 -0.00353357 0.07476990
v -0.11113893 0.00343321 0.10958403
v -0.12676240 -0.12014134 0.09243774
v -0.11969527 0.00353357 0.09597131
v -0.12322883 0.00353357 0.04650134
v -0.12322883 -0.03180212 0.09597131
v -0.11637998 0.00374754 0.01201922
v -0.12322883 -0.02826855 0.02176636
v -0.12676240 -0.09187279 0.06770276
v -0.12322883 0.00353357 0.06416919
v -0.12676240 -0.11660777 0.09243774
v -0.12322883 -0.02120141 0.08890417
v -0.11969527 -0.02826855 0.11010559
v -0.12676240 -0.09540636 0.05003491
v -0.12322883 0.00000000 0.07123633
v -0.12322883 -0.06007067 0.10657202
v -0.12676240 -0.10600707 0.08537060
v -0.12676240 -0.09187279 0.06063562
v -0.12676240 -0.10954064 0.01469922
v -0.12322883 -0.04946996 0.10303845
v -0.12676240 -0.09540636 0.07476990
v -0.12676240 -0.11307420 0.00763209
f 1 2 3
f 5 2 1
f 6 1 3
f 6 4 1
f 8 3 2
f 9 6 3
f 9 3 8
f 10 5 1
f 11 8 2
f 11 2 5
f 12 4 6
f 12 6 9
f 14 10 1
f 14 1 7
f 14 7 10
f 15 9 8
f 15 8 11
f 15 11 5
f 16 10 7
f 19 4 12
f 19 16 7
f 19 7 1
f 19 1 4
f 20 12 9
f 20 9 17
f 20 19 12
f 20 17 19
f 21 9 15
f 22 19 17
f 22 16 19
f 22 17 21
f 23 15 5
f 23 21 15
f 24 18 16
f 24 16 13
f 24 23 18
f 25 5 10
f 25 10 16
f 25 16 18
f 26 9 21
f 27 13 16
f 27 16 22
f 28 23 5
f 28 5 25
f 29 24 13
f 29 23 24
f 29 13 27
f 29 21 23
f 30 26 21
f 30 21 17
f 30 17 26
f 31 26 17
f 31 9 26
f 32 18 23
f 32 23 28
f 32 28 25
f 32 25 18
f 33 29 27
f 33 21 29
f 33 27 22
f 33 22 21
f 34 31 17
f 34 17 9
f 34 9 31

