# https://github.com/mikedh/trimesh
mtllib material.mtl
usemtl Material015
v -0.04590768 -0.18373068 -0.20082028
v -0.04549032 -0.20494700 -0.20084848
v -0.04195675 -0.18727915 -0.25031844
v -0.10120797 -0.18373163 -0.25026452
v -0.10909456 -0.20141343 -0.20084848
v -0.07375887 -0.16254417 -0.22204989
v -0.04195675 -0.18727915 -0.21498275
v -0.08435958 -0.22968198 -0.20084848
v -0.04593329 -0.18384101 -0.25035407
v -0.10556099 -0.16254417 -0.20084848
v -0.04195675 -0.19434629 -0.22558346
v -0.05962460 -0.22614841 -0.20084848
v -0.09849385 -0.21201413 -0.25031844
v -0.07375887 -0.16254417 -0.20084848
v -0.10202742 -0.16254417 -0.22204989
v -0.10909456 -0.18021201 -0.21498275
v -0.04195675 -0.19081272 -0.21498275
v -0.05255746 -0.21908127 -0.25031844
v -0.10202742 -0.21554770 -0.20791562
v -0.10202742 -0.20141343 -0.25031844
v -0.10909456 -0.16961131 -0.20084848
v -0.10556099 -0.18374558 -0.24325131
v -0.04549032 -0.20494700 -0.25031844
v -0.05255746 -0.21908127 -0.20084848
v -0.06315816 -0.22614841 -0.25031844
v -0.09142672 -0.22261484 -0.23971774
v -0.10202742 -0.21554770 -0.20084848
v -0.10556099 -0.20848057 -0.20791562
v -0.10202742 -0.20494700 -0.24678487
v -0.10556099 -0.16254417 -0.20791562
v -0.10556099 -0.19434629 -0.23971774
v -0.10909456 -0.16961131 -0.20438205
v -0.04195675 -0.19434629 -0.25031844
v -0.05962460 -0.22614841 -0.23265060
v -0.09496028 -0.21908127 -0.23971774
v -0.09142672 -0.22614841 -0.20791562
v -0.08435958 -0.22614841 -0.25031844
v -0.10909456 -0.20141343 -0.20438205
v -0.10202742 -0.20848057 -0.23618417
v -0.10556099 -0.16961131 -0.22204989
v -0.10556099 -0.18727915 -0.24325131
v -0.05609103 -0.22261484 -0.25031844
v -0.06669173 -0.22968198 -0.20084848
v -0.09849385 -0.21908127 -0.21498275
v -0.09142672 -0.22614841 -0.20084848
v -0.07022530 -0.22968198 -0.22558346
v -0.08789315 -0.22614841 -0.23265060
v -0.10556099 -0.20141343 -0.22911703
v -0.10909456 -0.19081272 -0.21498275
v -0.09496028 -0.22261484 -0.21498275
v -0.08082601 -0.22968198 -0.22204989
v -0.06669173 -0.22968198 -0.21498275
v -0.08435958 -0.22968198 -0.20791562
v -0.07375887 -0.22968198 -0.22558346
f 7 1 2
f 7 3 1
f 9 6 1
f 9 1 3
f 9 4 6
f 11 3 7
f 14 10 1
f 14 1 6
f 14 6 10
f 15 10 6
f 15 6 4
f 17 11 7
f 17 7 2
f 17 2 11
f 20 4 9
f 20 9 13
f 21 16 5
f 21 5 1
f 21 1 10
f 22 15 4
f 22 4 20
f 23 11 2
f 23 2 18
f 23 18 9
f 24 18 2
f 24 2 1
f 24 1 12
f 27 5 19
f 27 1 5
f 28 19 5
f 29 20 13
f 30 21 10
f 30 10 15
f 31 20 29
f 32 22 16
f 32 16 21
f 32 21 30
f 33 3 11
f 33 11 23
f 33 23 9
f 33 9 3
f 35 19 13
f 35 13 26
f 37 26 13
f 37 13 9
f 37 9 25
f 38 28 5
f 38 5 16
f 39 29 13
f 39 38 29
f 39 28 38
f 39 13 19
f 39 19 28
f 40 30 15
f 40 15 22
f 40 32 30
f 40 22 32
f 41 22 20
f 41 20 31
f 41 16 22
f 42 34 25
f 42 12 34
f 42 24 12
f 42 18 24
f 42 25 9
f 42 9 18
f 43 34 12
f 43 12 1
f 43 1 8
f 44 19 35
f 45 36 8
f 45 8 1
f 45 1 27
f 46 37 25
f 46 43 8
f 47 26 37
f 48 38 31
f 48 31 29
f 48 29 38
f 49 38 16
f 49 16 41
f 49 41 31
f 49 31 38
f 50 19 44
f 50 27 19
f 50 45 27
f 50 36 45
f 50 47 36
f 50 26 47
f 50 44 35
f 50 35 26
f 51 46 8
f 52 46 25
f 52 25 34
f 52 34 43
f 52 43 46
f 53 8 36
f 53 36 47
f 53 51 8
f 53 47 37
f 53 37 51
f 54 51 37
f 54 37 46
f 54 46 51

