# https://github.com/mikedh/trimesh
mtllib material.mtl
usemtl Material045
v -0.02428891 -0.15547703 -0.09484141
v -0.02419507 -0.24704847 -0.09449193
v -0.02428891 -0.19434629 -0.13017710
v -0.05609103 -0.15547703 -0.14431138
v -0.05612892 -0.23198944 -0.09436813
v -0.02428891 -0.15901060 -0.11604282
v -0.03386714 -0.24538895 -0.09270481
v -0.05609103 -0.15547703 -0.09484141
v -0.05783608 -0.22434739 -0.14422303
v -0.04549032 -0.15547703 -0.14431138
v -0.02384666 -0.24557776 -0.09570802
v -0.03488961 -0.24734982 -0.09837498
v -0.02428891 -0.18374558 -0.13017710
v -0.02428891 -0.15547703 -0.11250926
v -0.05255746 -0.22614841 -0.14431138
v -0.05609103 -0.23321555 -0.10190855
v -0.03842318 -0.17667844 -0.14431138
v -0.02428891 -0.24028269 -0.10544212
v -0.03842318 -0.19787986 -0.14431138
v -0.02428891 -0.22261484 -0.11604282
v -0.04549032 -0.21554770 -0.14431138
f 7 2 1
f 8 1 4
f 8 7 1
f 8 5 7
f 9 8 4
f 9 5 8
f 10 4 1
f 11 1 2
f 12 7 5
f 12 2 7
f 13 10 6
f 13 11 3
f 13 6 11
f 14 10 1
f 14 6 10
f 14 11 6
f 14 1 11
f 15 9 4
f 15 4 10
f 15 12 9
f 15 2 12
f 16 12 5
f 16 5 9
f 16 9 12
f 17 13 3
f 17 10 13
f 17 15 10
f 18 11 2
f 18 2 15
f 19 17 3
f 19 15 17
f 20 3 11
f 20 11 18
f 21 19 3
f 21 3 20
f 21 15 19
f 21 20 18
f 21 18 15

