# https://github.com/mikedh/trimesh
mtllib material.mtl
usemtl Material113
v 0.06758389 0.28975265 -0.03123717
v 0.06758389 0.22968198 -0.03123717
v 0.06758389 0.22968198 -0.06657286
v -0.12460644 0.28964781 -0.06668457
v -0.12322883 0.24381625 -0.03123717
v 0.06758389 0.28975265 -0.06657286
v -0.12220815 0.28974573 -0.03131101
v -0.11969527 0.22968198 -0.06657286
v -0.12676240 0.28268551 -0.03830431
v -0.12676240 0.28975265 -0.04183788
v -0.11712056 0.23010403 -0.03131872
v -0.12676240 0.26501767 -0.06657286
v -0.12322883 0.24381625 -0.05950572
v -0.12676240 0.26501767 -0.05597215
v -0.12676240 0.27915194 -0.03830431
v -0.12676240 0.27561838 -0.04183788
f 1 2 3
f 5 2 1
f 6 1 3
f 6 3 4
f 7 5 1
f 8 3 2
f 8 4 3
f 9 5 7
f 10 6 4
f 10 9 7
f 10 7 1
f 10 1 6
f 11 8 2
f 11 2 5
f 11 5 8
f 12 4 8
f 12 10 4
f 12 9 10
f 13 12 8
f 13 8 5
f 13 5 12
f 14 12 5
f 14 9 12
f 15 5 9
f 15 9 14
f 16 15 14
f 16 14 5
f 16 5 15

