# https://github.com/mikedh/trimesh
mtllib material.mtl
usemtl Material122
v 0.06405032 -0.18727915 0.31151901
v 0.07465102 -0.18727915 0.29385117
v 0.03578177 -0.13780919 0.26558262
v -0.04743305 -0.14351925 0.26000759
v -0.08417181 -0.19090666 0.26200144
v -0.02428891 -0.16607774 0.31151901
v 0.05698318 -0.14840989 0.26558262
v 0.06196077 -0.19320476 0.31019840
v 0.02871463 -0.16961131 0.31151901
v -0.01722177 -0.13780919 0.27264975
v -0.06669173 -0.18727915 0.31151901
v 0.07465102 -0.16607774 0.26558262
v 0.05527947 -0.15036171 0.25993325
v 0.07465102 -0.19081272 0.26204905
v 0.07258279 -0.19315552 0.29260316
v 0.04284890 -0.17314488 0.31151901
v -0.04086003 -0.13930966 0.26064167
v 0.00751321 -0.13780919 0.27618332
v -0.07375887 -0.16607774 0.26558262
v -0.06501123 -0.19245296 0.31064628
v 0.03518736 -0.13927913 0.26024303
v 0.07465102 -0.16607774 0.26204905
v -0.08155588 -0.18524506 0.26127143
v -0.08176372 -0.19260667 0.27163614
v -0.04195675 -0.13780919 0.26558262
v 0.02871463 -0.13780919 0.26911619
v 0.00044608 -0.13780919 0.27618332
v 0.01104678 -0.16607774 0.31151901
v -0.07375887 -0.16607774 0.26204905
v -0.07476647 -0.19260357 0.28935635
v -0.08435958 -0.18374558 0.26911619
v -0.03135604 -0.13780919 0.26911619
v -0.03842318 -0.16961131 0.31151901
v -0.04902389 -0.14134276 0.26558262
v -0.06155779 -0.15686337 0.26063833
v -0.07729244 -0.18727915 0.29031760
v -0.08435958 -0.18727915 0.27264975
v -0.08082601 -0.17667844 0.26204905
v -0.06315816 -0.15901060 0.27264975
v -0.04549032 -0.14134276 0.26911619
v -0.08082601 -0.17667844 0.26558262
v -0.06315816 -0.18374558 0.31151901
v -0.05255746 -0.17667844 0.31151901
f 9 6 1
f 11 1 6
f 12 7 1
f 12 1 2
f 14 12 2
f 15 2 1
f 15 1 8
f 15 14 2
f 16 7 3
f 16 9 1
f 16 1 7
f 18 3 10
f 18 9 16
f 20 8 1
f 20 1 11
f 21 3 7
f 21 7 13
f 21 13 4
f 21 4 17
f 22 13 7
f 22 7 12
f 22 14 13
f 22 12 14
f 23 4 13
f 23 14 5
f 23 13 14
f 24 5 14
f 24 14 15
f 24 15 8
f 25 10 3
f 25 21 17
f 25 3 21
f 26 18 16
f 26 16 3
f 26 3 18
f 27 18 10
f 27 10 6
f 27 6 18
f 28 18 6
f 28 6 9
f 28 9 18
f 30 24 8
f 30 8 20
f 32 25 6
f 32 6 10
f 32 10 25
f 33 11 6
f 33 6 25
f 34 25 17
f 34 17 4
f 34 4 29
f 34 29 19
f 35 29 4
f 35 4 23
f 36 30 20
f 36 20 11
f 36 11 19
f 36 19 31
f 37 31 5
f 37 5 24
f 37 36 31
f 37 24 30
f 37 30 36
f 38 19 29
f 38 23 5
f 38 5 31
f 38 35 23
f 38 29 35
f 39 34 19
f 39 19 11
f 40 33 25
f 40 25 34
f 41 38 31
f 41 31 19
f 41 19 38
f 42 39 11
f 42 34 39
f 42 40 34
f 42 11 33
f 43 42 33
f 43 33 40
f 43 40 42

