# https://github.com/mikedh/trimesh
mtllib material.mtl
usemtl Material091
v 0.08525173 0.22968198 0.12070629
v 0.09585244 0.17667844 0.09950488
v 0.10849807 0.22973804 0.04974795
v 0.00397965 0.22968198 0.05003491
v 0.00397965 0.17667844 0.12070629
v 0.00397965 0.17667844 0.05003491
v 0.00397965 0.22968198 0.12070629
v 0.10645314 0.22968198 0.07476990
v 0.08372996 0.17656326 0.11989015
v 0.09431983 0.17746344 0.04976843
v 0.09938601 0.22261484 0.09597131
v 0.10998671 0.20848057 0.05356848
v 0.09231887 0.17667844 0.11010559
v 0.09651987 0.18168004 0.04953656
v 0.09938601 0.22968198 0.09243774
v 0.10645314 0.21201413 0.07476990
v 0.10998671 0.22968198 0.06063562
v 0.08878530 0.22614841 0.11717272
v 0.10998671 0.20848057 0.05003491
v 0.10645314 0.19434629 0.05003491
v 0.10645314 0.20141343 0.06770276
v 0.09585244 0.18727915 0.10303845
v 0.10998671 0.21554770 0.06063562
v 0.09585244 0.22614841 0.10303845
v 0.09938601 0.18021201 0.06063562
v 0.10645314 0.19434629 0.05356848
v 0.09938601 0.21201413 0.09597131
f 6 5 4
f 7 1 3
f 7 3 4
f 7 5 1
f 7 4 5
f 9 1 5
f 9 6 2
f 9 5 6
f 10 2 6
f 13 9 2
f 14 10 6
f 14 6 4
f 14 4 3
f 15 11 8
f 15 8 3
f 15 3 1
f 16 8 11
f 17 3 8
f 17 8 16
f 18 1 9
f 18 9 13
f 18 15 1
f 19 14 3
f 19 17 12
f 19 3 17
f 20 10 14
f 20 14 19
f 20 19 12
f 21 16 2
f 22 13 2
f 22 2 16
f 22 18 13
f 23 17 16
f 23 12 17
f 23 21 12
f 23 16 21
f 24 11 15
f 24 15 18
f 24 22 11
f 24 18 22
f 25 2 10
f 25 10 20
f 26 20 12
f 26 12 21
f 26 21 2
f 26 25 20
f 26 2 25
f 27 22 16
f 27 16 11
f 27 11 22

