# https://github.com/mikedh/trimesh
mtllib material.mtl
usemtl Material077
v 0.01458035 0.40636042 0.03943421
v 0.02871463 0.38869258 0.03943421
v 0.02164749 0.41342756 -0.03123717
v -0.01368820 0.42049470 -0.03123717
v -0.02300423 0.38456474 0.03949002
v 0.01104678 0.42402827 -0.02770360
v 0.02164749 0.40282685 0.03590064
v 0.02643024 0.38429354 0.03950818
v -0.01368820 0.40636042 0.03943421
v -0.02282247 0.38465886 -0.03142545
v 0.01104678 0.42402827 -0.03123717
v 0.02518106 0.39575972 0.03943421
v 0.01811392 0.40636042 0.03590064
v 0.01811392 0.41696113 -0.02063646
v 0.02605555 0.38434565 -0.03156666
v -0.02428891 0.39222615 0.03943421
v -0.00308749 0.42402827 -0.02063646
v 0.00751321 0.40989399 0.03943421
v 0.02164749 0.41342756 -0.02417003
v 0.01458035 0.42049470 -0.02063646
v 0.02871463 0.39222615 -0.03123717
v -0.00499551 0.42117642 -0.03208553
v -0.02075534 0.39929329 0.03943421
v -0.02428891 0.39575972 -0.03123717
v -0.00662106 0.42402827 -0.02417003
v -0.00308749 0.40989399 0.03943421
v 0.00397965 0.42402827 -0.02063646
v 0.01104678 0.40989399 0.03590064
v 0.02518106 0.40636042 -0.03123717
v -0.01722177 0.40636042 0.02529993
v -0.02075534 0.40636042 -0.01356933
v -0.02075534 0.40636042 -0.03123717
v -0.01368820 0.42049470 -0.02770360
v -0.01015463 0.40989399 0.03236707
v 0.01458035 0.40989399 0.02883350
v 0.02518106 0.40636042 -0.02417003
v -0.02075534 0.40282685 0.01823279
v -0.02428891 0.39575972 -0.02770360
v -0.01015463 0.42049470 -0.01710289
v -0.00662106 0.41342756 0.02176636
v 0.02871463 0.39222615 -0.00650219
v -0.01722177 0.41342756 -0.01710289
f 11 6 3
f 12 7 1
f 12 8 2
f 12 1 8
f 13 1 7
f 14 3 6
f 14 13 7
f 15 2 8
f 15 8 5
f 15 5 10
f 16 10 5
f 17 6 11
f 18 8 1
f 18 1 13
f 19 12 2
f 19 7 12
f 19 14 7
f 19 3 14
f 20 14 6
f 20 6 13
f 20 13 14
f 21 2 15
f 22 11 3
f 22 4 11
f 22 15 10
f 23 16 5
f 23 5 9
f 24 10 16
f 24 22 10
f 25 17 11
f 25 11 4
f 26 18 17
f 26 9 5
f 26 5 8
f 26 8 18
f 27 18 6
f 27 6 17
f 27 17 18
f 28 18 13
f 28 6 18
f 29 21 15
f 29 3 19
f 29 22 3
f 29 15 22
f 30 23 9
f 32 4 22
f 32 22 24
f 32 31 4
f 32 24 31
f 33 25 4
f 33 30 9
f 33 23 30
f 33 4 31
f 34 25 9
f 34 9 26
f 35 28 13
f 35 13 6
f 35 6 28
f 36 29 19
f 36 19 2
f 36 21 29
f 37 31 16
f 37 16 23
f 37 23 33
f 38 31 24
f 38 24 16
f 38 16 31
f 39 33 9
f 39 9 25
f 39 25 33
f 40 34 26
f 40 26 17
f 40 17 25
f 40 25 34
f 41 36 2
f 41 2 21
f 41 21 36
f 42 37 33
f 42 33 31
f 42 31 37

