# https://github.com/mikedh/trimesh
mtllib material.mtl
usemtl Material075
v 0.06051675 -0.14840989 0.26204905
v 0.10291957 -0.19081272 0.21611265
v 0.08760332 -0.13850555 0.20826426
v -0.08948817 -0.13924862 0.20737546
v -0.08501736 -0.19225145 0.26131996
v 0.10177531 -0.19110039 0.20848813
v -0.04902389 -0.13780919 0.26204905
v 0.08525173 -0.16961131 0.25144834
v 0.10291957 -0.16607774 0.21257908
v 0.10003485 -0.16672506 0.20777318
v -0.10242482 -0.19045849 0.20778027
v 0.08754846 -0.19113502 0.25117446
v 0.04638247 -0.13780919 0.26204905
v -0.09142672 -0.13780919 0.21257908
v -0.08789315 -0.18727915 0.26204905
v 0.08171816 -0.13780919 0.23024693
v 0.09003978 -0.14236924 0.20800876
v -0.10556099 -0.19081272 0.21257908
v 0.09231887 -0.18727915 0.24791477
v 0.07465102 -0.16254417 0.26204905
v -0.07375887 -0.14134276 0.24438120
v 0.05698318 -0.13780919 0.25498191
v 0.08878530 -0.13780919 0.21611265
v 0.09660952 -0.15672753 0.20778250
v -0.10202742 -0.15901060 0.21257908
v 0.09938601 -0.16254417 0.21964622
v 0.09231887 -0.19081272 0.24791477
v 0.10291957 -0.17314488 0.21611265
v 0.07465102 -0.19081272 0.26204905
v 0.08171816 -0.14840989 0.24084764
v 0.08878530 -0.18021201 0.25144834
v -0.07375887 -0.16254417 0.26204905
v -0.07022530 -0.13780919 0.24438120
v -0.08435958 -0.14487633 0.23378050
v 0.05698318 -0.14487633 0.26204905
v 0.09231887 -0.14134276 0.21611265
v 0.09938601 -0.15547703 0.21257908
v -0.10556099 -0.17667844 0.21257908
v -0.09496028 -0.14134276 0.20904551
v 0.09938601 -0.16961131 0.22317979
v 0.09585244 -0.16254417 0.22671336
v -0.05962460 -0.14487633 0.26204905
v -0.08435958 -0.14134276 0.23024693
v -0.08435958 -0.18021201 0.26204905
v -0.09496028 -0.14840989 0.21964622
v 0.08878530 -0.15901060 0.23731407
v -0.10556099 -0.17667844 0.20904551
v 0.09231887 -0.14487633 0.21964622
v -0.07022530 -0.14487633 0.25144834
v -0.05962460 -0.13780919 0.25498191
v -0.08082601 -0.13780919 0.23024693
v -0.09849385 -0.14840989 0.21257908
v -0.09496028 -0.14134276 0.21257908
v -0.09849385 -0.14840989 0.20904551
v -0.09934384 -0.16013558 0.20768821
v -0.08789315 -0.13780919 0.21964622
f 9 2 6
f 10 9 6
f 11 10 6
f 11 4 10
f 12 6 2
f 12 5 6
f 13 7 1
f 14 3 4
f 14 7 13
f 15 1 7
f 16 14 13
f 17 4 3
f 18 11 6
f 18 6 5
f 18 5 15
f 20 1 15
f 22 16 13
f 23 3 14
f 23 14 16
f 24 10 4
f 24 4 17
f 27 12 2
f 27 2 19
f 28 19 2
f 28 2 9
f 28 9 26
f 29 5 12
f 29 12 27
f 29 20 15
f 29 15 5
f 30 20 8
f 30 16 1
f 30 1 20
f 31 8 20
f 31 19 26
f 31 27 19
f 31 29 27
f 31 20 29
f 32 15 7
f 33 7 14
f 34 32 21
f 35 22 13
f 35 13 1
f 35 1 16
f 35 16 22
f 36 17 3
f 36 3 23
f 36 23 16
f 36 16 30
f 37 24 17
f 37 9 10
f 37 10 24
f 37 17 36
f 37 36 26
f 37 26 9
f 38 18 15
f 38 15 25
f 39 14 4
f 40 28 26
f 40 26 19
f 40 19 28
f 41 31 26
f 41 8 31
f 42 32 7
f 42 33 21
f 43 21 33
f 43 34 21
f 44 34 15
f 44 15 32
f 44 32 34
f 45 15 34
f 46 30 8
f 46 8 41
f 47 11 18
f 47 18 38
f 47 38 25
f 48 41 26
f 48 26 36
f 48 46 41
f 48 36 30
f 48 30 46
f 49 42 21
f 49 21 32
f 49 32 42
f 50 42 7
f 50 7 33
f 50 33 42
f 51 43 33
f 51 33 14
f 52 25 15
f 52 15 45
f 53 52 45
f 53 14 39
f 53 39 52
f 53 45 34
f 53 34 43
f 54 47 25
f 54 39 4
f 54 52 39
f 54 25 52
f 55 4 11
f 55 11 47
f 55 54 4
f 55 47 54
f 56 51 14
f 56 14 53
f 56 53 43
f 56 43 51

