# https://github.com/mikedh/trimesh
mtllib material.mtl
usemtl Material124
v 0.05833323 0.31978295 0.11192925
v 0.06051675 0.22968198 0.11363916
v 0.06051675 0.22968198 0.03943421
v -0.10032439 0.32062488 0.03877999
v -0.08789315 0.24381625 0.11363916
v 0.06051675 0.32155477 0.03943421
v -0.06669173 0.32155477 0.11363916
v -0.11262813 0.22968198 0.04650134
v -0.10944449 0.28954657 0.03835173
v -0.10202742 0.32155477 0.05003491
v -0.08525990 0.22932030 0.11242032
v -0.11003206 0.22988546 0.03911334
v -0.10556099 0.28975265 0.06416919
v -0.10909456 0.31095406 0.03943421
v -0.10202742 0.22968198 0.08537060
v -0.11262813 0.28975265 0.04296778
v -0.08082601 0.29328622 0.11363916
v -0.10556099 0.31802120 0.03943421
v -0.10202742 0.30742050 0.06416919
v -0.09142672 0.22968198 0.11010559
v -0.10909456 0.22968198 0.06416919
v -0.10909456 0.24028269 0.06416919
v -0.08435958 0.27208481 0.11363916
v -0.10909456 0.31095406 0.04296778
v -0.10202742 0.30035336 0.06770276
v -0.07729244 0.31448763 0.10657202
v -0.10202742 0.23321555 0.08537060
v -0.10556099 0.27561838 0.06770276
v -0.11262813 0.26855124 0.04650134
v -0.08435958 0.28268551 0.11010559
v -0.09142672 0.23321555 0.11010559
v -0.10556099 0.31802120 0.04296778
v -0.10556099 0.30388693 0.05710205
v -0.08082601 0.30035336 0.11010559
v -0.07022530 0.31802120 0.11363916
v -0.10556099 0.24028269 0.07476990
v -0.10202742 0.27915194 0.07476990
v -0.08082601 0.31095406 0.10303845
v -0.08082601 0.32155477 0.09243774
v -0.07729244 0.30388693 0.11363916
v -0.09849385 0.30742050 0.07123633
v -0.07022530 0.32155477 0.11010559
v -0.07729244 0.31802120 0.10303845
f 6 1 2
f 6 2 3
f 7 5 2
f 7 2 1
f 7 1 6
f 9 6 3
f 9 4 6
f 10 7 6
f 10 6 4
f 11 8 3
f 11 3 2
f 11 2 5
f 12 9 3
f 12 3 8
f 14 4 9
f 16 12 8
f 16 9 12
f 16 14 9
f 17 5 7
f 18 10 4
f 18 4 14
f 20 15 11
f 20 11 5
f 21 8 11
f 21 11 15
f 22 21 15
f 22 8 21
f 23 5 17
f 24 18 14
f 24 19 10
f 24 14 16
f 24 16 13
f 25 19 13
f 25 13 17
f 26 10 19
f 27 15 20
f 27 22 15
f 28 13 16
f 28 16 22
f 29 22 16
f 29 16 8
f 29 8 22
f 30 23 17
f 30 17 13
f 30 13 23
f 31 20 5
f 31 5 23
f 31 13 28
f 31 28 27
f 31 27 20
f 32 24 10
f 32 10 18
f 32 18 24
f 33 24 13
f 33 13 19
f 33 19 24
f 35 17 7
f 36 28 22
f 36 22 27
f 36 27 28
f 37 31 23
f 37 23 13
f 37 13 31
f 38 34 26
f 38 26 19
f 39 7 10
f 39 10 26
f 40 34 17
f 40 17 35
f 40 35 26
f 40 26 34
f 41 38 19
f 41 34 38
f 41 17 34
f 41 25 17
f 41 19 25
f 42 35 7
f 42 7 39
f 42 26 35
f 43 42 39
f 43 39 26
f 43 26 42

