# https://github.com/mikedh/trimesh
mtllib material.mtl
usemtl Material062
v -0.05255746 -0.24734982 0.11010559
v -0.05255746 -0.29681979 0.11010559
v -0.05171785 -0.29554941 0.00426463
v -0.10817696 -0.24671088 0.00425924
v -0.09849385 -0.25088339 0.11010559
v -0.05609103 -0.31095406 0.06770276
v -0.05255746 -0.24734982 0.00409852
v -0.05083856 -0.30879498 0.06801061
v -0.06779314 -0.29530031 0.11061637
v -0.09601398 -0.24613983 0.10986665
v -0.09849385 -0.26501767 0.00409852
v -0.05250086 -0.31090246 0.08891257
v -0.11020151 -0.24563624 0.06335900
v -0.06315816 -0.29328622 0.00409852
v -0.10909456 -0.25441696 0.00409852
v -0.07729244 -0.28975265 0.11010559
v -0.11028378 -0.24563294 0.01492814
v -0.05962460 -0.29681979 0.01116566
v -0.09496028 -0.26855124 0.00763209
v -0.10909456 -0.25795053 0.04650134
v -0.09496028 -0.25795053 0.11010559
v -0.11262813 -0.25088339 0.01469922
v -0.07375887 -0.29328622 0.05710205
v -0.11262813 -0.25088339 0.06416919
v -0.05962460 -0.30742050 0.06416919
v -0.10909456 -0.25795053 0.05710205
f 8 1 2
f 8 7 1
f 8 3 7
f 8 6 3
f 9 2 1
f 9 1 5
f 10 5 1
f 12 8 2
f 12 6 8
f 12 2 9
f 13 5 10
f 13 10 1
f 14 11 7
f 14 7 3
f 15 4 7
f 15 7 11
f 16 12 9
f 16 6 12
f 17 7 4
f 17 13 1
f 17 1 7
f 18 14 3
f 18 3 6
f 18 6 14
f 19 14 6
f 19 11 14
f 20 15 11
f 21 16 9
f 21 9 5
f 22 17 4
f 22 4 15
f 22 15 20
f 23 20 11
f 24 5 13
f 24 22 20
f 24 13 17
f 24 17 22
f 24 21 5
f 24 16 21
f 25 23 11
f 25 20 23
f 25 6 16
f 25 19 6
f 25 11 19
f 26 24 20
f 26 16 24
f 26 25 16
f 26 20 25

