# https://github.com/mikedh/trimesh
mtllib material.mtl
usemtl Material014
v 0.11676232 0.22973705 -0.02417920
v 0.12058742 0.22614841 -0.03123717
v 0.11520586 0.23026039 -0.06278445
v -0.05609103 0.22968198 -0.06303929
v -0.05715739 0.15105260 -0.02648981
v -0.05609103 0.22968198 -0.02417003
v 0.12058742 0.22968198 -0.03123717
v 0.06540528 0.15245579 -0.02259719
v 0.06758389 0.18021201 -0.06303929
v 0.11731265 0.23055741 -0.04510339
v 0.11705385 0.21554770 -0.02417003
v 0.12058742 0.22614841 -0.04537145
v -0.05617986 0.18529654 -0.06230223
v 0.11705385 0.22261484 -0.06303929
v 0.01811392 0.15194346 -0.04183788
v 0.05344961 0.18021201 -0.06303929
v 0.09231887 0.18727915 -0.06303929
v 0.11352028 0.20494700 -0.03830431
v 0.05698318 0.15194346 -0.03830431
v -0.04902389 0.15194346 -0.03830431
v 0.01104678 0.15547703 -0.04537145
v 0.11705385 0.21908127 -0.05597215
v 0.09938601 0.18021201 -0.04183788
v 0.01811392 0.15547703 -0.04537145
v 0.06758389 0.15194346 -0.02770360
v -0.04066072 0.15144616 -0.03899928
v 0.08171816 0.18374558 -0.06303929
v 0.11705385 0.21554770 -0.04537145
v 0.10645314 0.20141343 -0.06303929
v 0.09585244 0.16961131 -0.02417003
v 0.09585244 0.16961131 -0.02770360
v 0.10291957 0.19434629 -0.05950572
v 0.11352028 0.21201413 -0.05950572
v 0.11352028 0.20494700 -0.02417003
v 0.10998671 0.20141343 -0.04890502
v 0.10998671 0.20494700 -0.05950572
f 6 4 5
f 8 6 5
f 8 1 6
f 10 6 1
f 10 3 4
f 10 4 6
f 10 7 3
f 10 1 7
f 11 7 1
f 11 2 7
f 11 1 8
f 12 7 2
f 12 3 7
f 13 5 4
f 14 9 4
f 14 4 3
f 14 3 12
f 16 13 4
f 16 4 9
f 17 9 14
f 18 12 2
f 20 5 13
f 21 13 16
f 21 16 9
f 22 14 12
f 24 19 15
f 24 9 19
f 24 21 9
f 24 15 21
f 25 8 5
f 25 5 19
f 25 19 17
f 26 19 5
f 26 15 19
f 26 5 20
f 26 21 15
f 26 20 13
f 26 13 21
f 27 19 9
f 27 9 17
f 27 17 19
f 28 22 12
f 28 12 18
f 29 17 14
f 30 8 25
f 31 25 17
f 31 17 23
f 31 30 25
f 31 18 30
f 32 29 23
f 32 23 17
f 32 17 29
f 33 29 14
f 33 14 22
f 33 28 18
f 33 22 28
f 34 30 18
f 34 11 8
f 34 8 30
f 34 18 2
f 34 2 11
f 35 31 23
f 35 18 31
f 35 33 18
f 36 23 29
f 36 29 33
f 36 35 23
f 36 33 35

