# https://github.com/mikedh/trimesh
mtllib material.mtl
usemtl Material066
v -0.06669173 0.39222615 -0.29272127
v -0.05962460 0.33568905 -0.29272127
v -0.06315816 0.37455830 -0.33159053
v -0.10909456 0.38869258 -0.33159053
v -0.11969527 0.35689046 -0.29272127
v -0.08435958 0.32862191 -0.33159053
v -0.08082601 0.39222615 -0.33159053
v -0.05962460 0.38515901 -0.29272127
v -0.06495516 0.38643387 -0.29219567
v -0.11262813 0.38515901 -0.29272127
v -0.06315816 0.33922262 -0.33159053
v -0.12005088 0.37312218 -0.33193844
v -0.08789315 0.33215548 -0.29272127
v -0.07022530 0.38869258 -0.32805696
v -0.09849385 0.39222615 -0.33159053
v -0.05962460 0.35689046 -0.31745625
v -0.09712330 0.38925127 -0.29263291
v -0.11969527 0.37455830 -0.29272127
v -0.07375887 0.32862191 -0.33159053
v -0.07375887 0.38869258 -0.33159053
v -0.12322883 0.34982332 -0.33159053
v -0.12322883 0.37455830 -0.31745625
v -0.10909456 0.34275618 -0.29272127
v -0.07022530 0.33215548 -0.29272127
v -0.06669173 0.39222615 -0.30332198
v -0.06315816 0.38869258 -0.30685555
v -0.10909456 0.38869258 -0.31745625
v -0.05962460 0.37455830 -0.31038911
v -0.05962460 0.34628975 -0.31392268
v -0.11616170 0.38162544 -0.29272127
v -0.05962460 0.33568905 -0.29625484
v -0.07375887 0.32862191 -0.32805696
v -0.06669173 0.38162544 -0.33159053
v -0.10556099 0.33568905 -0.33159053
v -0.12322883 0.36042403 -0.30332198
v -0.11616170 0.34982332 -0.29272127
v -0.07729244 0.39222615 -0.32805696
v -0.05962460 0.38515901 -0.29978841
v -0.05962460 0.36749117 -0.31392268
v -0.05962460 0.35335689 -0.31745625
v -0.11969527 0.37809187 -0.29978841
v -0.08435958 0.32862191 -0.32805696
v -0.06669173 0.38515901 -0.32805696
v -0.11616170 0.34275618 -0.33159053
v -0.10556099 0.33568905 -0.32805696
v -0.11969527 0.35335689 -0.29625484
v -0.12322883 0.36749117 -0.30332198
v -0.11969527 0.34628975 -0.32098982
v -0.06315816 0.38162544 -0.32098982
v -0.12322883 0.35335689 -0.31745625
v -0.12322883 0.37102473 -0.30685555
v -0.11616170 0.34275618 -0.32805696
v -0.12322883 0.34982332 -0.32805696
f 9 8 1
f 9 2 8
f 12 3 11
f 15 1 7
f 15 12 4
f 15 7 12
f 16 8 2
f 16 11 3
f 17 10 9
f 17 9 1
f 17 1 15
f 18 5 9
f 19 12 11
f 19 6 12
f 20 12 7
f 22 4 12
f 22 12 21
f 23 13 9
f 24 2 9
f 24 9 13
f 25 7 1
f 25 1 8
f 26 25 8
f 26 14 25
f 27 15 4
f 27 17 15
f 27 10 17
f 28 8 16
f 29 16 2
f 30 18 9
f 30 9 10
f 31 19 11
f 31 2 19
f 31 29 2
f 31 11 29
f 32 6 19
f 32 24 13
f 32 19 2
f 32 2 24
f 33 3 12
f 33 12 20
f 33 20 14
f 34 12 6
f 35 22 21
f 35 5 18
f 36 23 9
f 36 9 5
f 37 25 14
f 37 7 25
f 37 20 7
f 37 14 20
f 38 26 8
f 38 28 3
f 38 8 28
f 39 28 16
f 39 16 3
f 39 3 28
f 40 29 11
f 40 11 16
f 40 16 29
f 41 18 30
f 41 30 10
f 41 10 27
f 41 27 4
f 41 4 22
f 42 32 13
f 42 6 32
f 42 34 6
f 43 3 33
f 43 33 14
f 43 14 26
f 44 21 12
f 44 12 34
f 45 13 23
f 45 44 34
f 45 42 13
f 45 34 42
f 46 5 35
f 46 36 5
f 47 35 18
f 47 22 35
f 48 23 36
f 48 36 46
f 49 38 3
f 49 3 43
f 49 43 26
f 49 26 38
f 50 46 35
f 50 35 21
f 51 41 22
f 51 22 47
f 51 47 18
f 51 18 41
f 52 45 23
f 52 23 48
f 52 44 45
f 52 21 44
f 53 48 46
f 53 46 50
f 53 50 21
f 53 52 48
f 53 21 52

