# https://github.com/mikedh/trimesh
mtllib material.mtl
usemtl Material038
v 0.06405032 0.30742050 0.12423986
v 0.11352028 0.23321555 0.04650134
v 0.10291957 0.32155477 0.04650134
v 0.06051675 0.32155477 0.03943421
v 0.06051675 0.22968198 0.03943421
v 0.10704664 0.30684630 0.03830376
v 0.06405032 0.32155477 0.11363916
v 0.09231887 0.24028269 0.10657202
v 0.05833323 0.31978295 0.11192925
v 0.10998671 0.29681979 0.05003491
v 0.10034785 0.32030359 0.03833786
v 0.11039076 0.22991737 0.03881065
v 0.07465102 0.31095406 0.11010559
v 0.06051675 0.22968198 0.11363916
v 0.06051675 0.31448763 0.12070629
v 0.10998671 0.30742050 0.04296778
v 0.10645314 0.24028269 0.07476990
v 0.11025030 0.28261112 0.03841456
v 0.08878530 0.22968198 0.11363916
v 0.06405032 0.31448763 0.12070629
v 0.07465102 0.32155477 0.09950488
v 0.08171816 0.28268551 0.11363916
v 0.05982773 0.30349269 0.12361264
v 0.09585244 0.30742050 0.07476990
v 0.11352028 0.28268551 0.04296778
v 0.10291957 0.28621908 0.07123633
v 0.10645314 0.22968198 0.07476990
v 0.07111745 0.30742050 0.11717272
v 0.06758389 0.31802120 0.11363916
v 0.08878530 0.23674912 0.11363916
v 0.05889000 0.30648972 0.12275900
v 0.10645314 0.30742050 0.05356848
v 0.08525173 0.30035336 0.09950488
v 0.08525173 0.31448763 0.08890417
v 0.10998671 0.30388693 0.04650134
v 0.11352028 0.22968198 0.04296778
v 0.11352028 0.24381625 0.04650134
v 0.10998671 0.28621908 0.05356848
v 0.09938601 0.23674912 0.09243774
v 0.08878530 0.28621908 0.09950488
v 0.07818459 0.29681979 0.11363916
v 0.10645314 0.31448763 0.04650134
v 0.10645314 0.29328622 0.06063562
v 0.08878530 0.31095406 0.08537060
v 0.08878530 0.32155477 0.07476990
v 0.10998671 0.22968198 0.06063562
v 0.10998671 0.24734982 0.06063562
v 0.09585244 0.24028269 0.09950488
v 0.09938601 0.22968198 0.09243774
v 0.09585244 0.27561838 0.08890417
v 0.08525173 0.29328622 0.10303845
v 0.08525173 0.31802120 0.08537060
f 7 3 4
f 9 4 5
f 9 7 4
f 11 4 3
f 11 6 5
f 11 5 4
f 14 9 5
f 15 7 9
f 16 11 3
f 16 6 11
f 18 12 5
f 18 5 6
f 19 1 14
f 19 14 5
f 20 15 1
f 20 7 15
f 21 3 7
f 23 14 1
f 25 18 6
f 25 6 16
f 27 2 17
f 27 19 5
f 28 20 1
f 28 13 20
f 29 20 13
f 29 13 21
f 29 21 7
f 29 7 20
f 30 19 8
f 30 8 22
f 30 22 1
f 30 1 19
f 31 23 1
f 31 1 15
f 31 15 9
f 31 9 14
f 31 14 23
f 33 32 24
f 33 26 32
f 34 21 13
f 34 13 33
f 35 25 16
f 35 10 25
f 35 32 10
f 35 16 32
f 36 25 2
f 36 12 18
f 36 18 25
f 36 27 5
f 36 5 12
f 37 17 2
f 37 2 25
f 38 25 10
f 38 17 25
f 39 17 26
f 39 27 17
f 40 22 8
f 41 28 1
f 41 1 22
f 41 33 13
f 41 13 28
f 42 32 16
f 42 16 3
f 42 34 32
f 42 3 34
f 43 32 26
f 43 10 32
f 43 38 10
f 43 26 17
f 43 17 38
f 44 34 33
f 44 33 24
f 44 24 32
f 44 32 34
f 45 34 3
f 45 3 21
f 46 36 2
f 46 2 27
f 46 27 36
f 47 37 25
f 47 25 17
f 47 17 37
f 48 39 26
f 48 8 39
f 49 19 27
f 49 27 39
f 49 39 8
f 49 8 19
f 50 40 8
f 50 26 40
f 50 48 26
f 50 8 48
f 51 22 40
f 51 41 22
f 51 33 41
f 51 40 26
f 51 26 33
f 52 45 21
f 52 21 34
f 52 34 45

