# https://github.com/mikedh/trimesh
mtllib material.mtl
usemtl Material120
v 0.06382660 0.15205415 -0.02392916
v 0.06405032 0.12014134 -0.02417003
v 0.05344961 0.12367491 -0.04183788
v -0.04549032 0.15194346 -0.04183788
v -0.05609103 0.12014134 -0.02417003
v 0.05130515 0.15300447 -0.03599538
v 0.06405032 0.12367491 -0.03830431
v -0.05715739 0.15105260 -0.02648981
v 0.05287850 0.11860191 -0.03892257
v -0.05609103 0.12014134 -0.04183788
v 0.04284890 0.13780919 -0.04183788
v 0.06224404 0.15283715 -0.02575879
v 0.06405032 0.12014134 -0.03830431
v -0.05609103 0.15194346 -0.03477074
v 0.01023226 0.15392778 -0.03954185
v -0.05609103 0.12367491 -0.04183788
v -0.04902389 0.14487633 -0.04183788
f 5 2 1
f 7 1 2
f 7 3 6
f 8 5 1
f 9 2 5
f 10 4 3
f 10 9 5
f 10 3 9
f 10 5 8
f 11 6 3
f 11 3 4
f 12 7 6
f 12 1 7
f 12 8 1
f 13 7 2
f 13 2 9
f 13 9 3
f 13 3 7
f 15 11 4
f 15 6 11
f 15 4 14
f 15 12 6
f 15 14 8
f 15 8 12
f 16 10 8
f 16 8 14
f 16 4 10
f 17 16 14
f 17 14 4
f 17 4 16

