# https://github.com/mikedh/trimesh
mtllib material.mtl
usemtl Material052
v 0.08878530 0.17667844 0.12070629
v 0.10291957 0.12014134 0.08890417
v 0.09431983 0.17746344 0.04976843
v 0.00397965 0.17667844 0.05003491
v 0.00397965 0.12014134 0.12070629
v 0.10214677 0.11982347 0.04994878
v 0.00397965 0.17667844 0.12070629
v 0.09585244 0.17667844 0.09950488
v 0.08972542 0.11969285 0.11976736
v 0.09968669 0.12587873 0.04967457
v 0.00397965 0.12014134 0.05003491
v 0.09938601 0.12720848 0.10303845
v 0.10291957 0.13074205 0.06063562
v 0.09231887 0.13074205 0.12070629
v 0.09636152 0.11959630 0.10190662
v 0.10291957 0.12367491 0.08890417
v 0.09585244 0.12014134 0.11363916
v 0.09585244 0.12720848 0.11363916
v 0.10291957 0.13074205 0.07123633
v 0.10291957 0.12720848 0.08183703
f 7 1 3
f 7 3 4
f 7 5 1
f 7 4 5
f 8 3 1
f 10 4 3
f 10 3 6
f 11 5 4
f 11 10 6
f 11 4 10
f 12 8 1
f 13 6 3
f 13 3 8
f 13 2 6
f 14 1 5
f 14 5 9
f 15 6 2
f 15 11 6
f 15 9 5
f 15 5 11
f 16 12 2
f 16 8 12
f 16 2 13
f 17 2 12
f 17 15 2
f 17 9 15
f 17 14 9
f 18 12 1
f 18 1 14
f 18 17 12
f 18 14 17
f 19 16 13
f 19 13 8
f 20 19 8
f 20 8 16
f 20 16 19

