# https://github.com/mikedh/trimesh
mtllib material.mtl
usemtl Material026
v 0.10998671 0.38869258 -0.29272127
v 0.12058742 0.35689046 -0.29272127
v 0.12058742 0.38162544 -0.34925837
v 0.07818459 0.38515901 -0.34925837
v 0.06718517 0.34733725 -0.29216468
v 0.09938601 0.39222615 -0.34219123
v 0.12058742 0.37809187 -0.29625484
v 0.11202681 0.34908303 -0.29201710
v 0.07111745 0.38869258 -0.29272127
v 0.07718393 0.32357001 -0.34980955
v 0.10998671 0.38869258 -0.34925837
v 0.12058742 0.37455830 -0.29272127
v 0.12765456 0.36749117 -0.33865766
v 0.11705385 0.38515901 -0.32452339
v 0.06758389 0.35689046 -0.33865766
v 0.08525173 0.39222615 -0.33159053
v 0.07080619 0.38033462 -0.29220203
v 0.08171816 0.33215548 -0.29272127
v 0.10291957 0.39222615 -0.33865766
v 0.08525173 0.38869258 -0.34925837
v 0.08789592 0.32392886 -0.35082878
v 0.11705385 0.38162544 -0.29272127
v 0.12058742 0.38162544 -0.32805696
v 0.12412099 0.36042403 -0.31392268
v 0.11705385 0.38515901 -0.34925837
v 0.07111745 0.37455830 -0.34572480
v 0.06405032 0.37102473 -0.29272127
v 0.07111745 0.32508834 -0.34925837
v 0.07818459 0.38869258 -0.33512410
v 0.10291957 0.39222615 -0.29272127
v 0.07957885 0.38934044 -0.29240614
v 0.06988615 0.34171774 -0.29196827
v 0.09231887 0.39222615 -0.34219123
v 0.12765456 0.34628975 -0.34925837
v 0.08878530 0.32155477 -0.34572480
v 0.12412099 0.37455830 -0.32452339
v 0.12412099 0.36749117 -0.31392268
v 0.12455718 0.36624539 -0.34952735
v 0.07111745 0.38515901 -0.31392268
v 0.06405032 0.37102473 -0.29625484
v 0.07465102 0.32155477 -0.34572480
v 0.07111745 0.37102473 -0.34925837
v 0.07818459 0.39222615 -0.31038911
v 0.08171816 0.38869258 -0.34572480
v 0.06405032 0.34628975 -0.30332198
v 0.12765456 0.35689046 -0.33865766
v 0.11705385 0.34982332 -0.29272127
v 0.11352028 0.33215548 -0.34925837
v 0.07465102 0.38515901 -0.33512410
v 0.07465102 0.38869258 -0.31745625
v 0.06758389 0.36749117 -0.32805696
v 0.06758389 0.37809187 -0.31038911
v 0.06758389 0.38162544 -0.29978841
v 0.07465102 0.33215548 -0.29272127
v 0.08878530 0.39222615 -0.33865766
v 0.06405032 0.36042403 -0.30685555
v 0.06758389 0.34628975 -0.33865766
v 0.12765456 0.34628975 -0.34572480
v 0.10291957 0.33922262 -0.29272127
v 0.07465102 0.38162544 -0.34572480
v 0.07111745 0.38869258 -0.29625484
v 0.07111745 0.32508834 -0.34572480
v 0.06758389 0.34275618 -0.33512410
v 0.06405032 0.34982332 -0.30685555
f 12 8 2
f 13 7 12
f 19 11 6
f 19 6 16
f 20 6 11
f 21 20 11
f 21 4 20
f 22 12 7
f 22 1 8
f 22 8 12
f 22 14 1
f 22 7 14
f 23 14 7
f 23 3 14
f 24 12 2
f 25 14 3
f 25 19 14
f 25 11 19
f 25 21 11
f 27 17 9
f 27 5 17
f 28 21 10
f 30 19 16
f 30 1 14
f 30 14 19
f 31 17 8
f 31 8 1
f 31 1 30
f 31 30 9
f 31 9 17
f 32 17 5
f 32 8 17
f 32 18 8
f 33 16 6
f 33 6 20
f 36 23 7
f 36 7 13
f 36 13 3
f 36 3 23
f 37 24 13
f 37 13 12
f 37 12 24
f 38 25 3
f 38 21 25
f 38 34 21
f 38 3 13
f 38 13 34
f 41 28 10
f 41 35 18
f 41 10 21
f 41 21 35
f 42 28 15
f 42 15 26
f 42 26 4
f 42 4 21
f 42 21 28
f 43 16 29
f 43 30 16
f 43 9 30
f 44 20 4
f 44 4 29
f 44 29 16
f 45 32 5
f 45 5 27
f 45 27 40
f 46 34 13
f 46 13 24
f 46 24 2
f 47 2 8
f 48 35 21
f 48 21 34
f 49 26 39
f 49 29 4
f 50 49 39
f 50 29 49
f 50 43 29
f 51 40 26
f 51 26 15
f 51 15 40
f 52 39 26
f 52 26 40
f 53 40 27
f 53 27 9
f 53 52 40
f 53 39 52
f 54 32 45
f 54 41 18
f 54 18 32
f 55 44 16
f 55 16 33
f 55 33 20
f 55 20 44
f 56 45 40
f 56 40 15
f 57 15 28
f 57 56 15
f 58 46 2
f 58 34 46
f 58 2 47
f 58 48 34
f 58 47 48
f 59 47 8
f 59 8 18
f 59 48 47
f 59 18 35
f 59 35 48
f 60 49 4
f 60 4 26
f 60 26 49
f 61 50 39
f 61 9 43
f 61 43 50
f 61 53 9
f 61 39 53
f 62 28 41
f 62 41 54
f 62 54 45
f 62 45 28
f 63 57 28
f 63 28 45
f 64 45 56
f 64 56 57
f 64 63 45
f 64 57 63

