# https://github.com/mikedh/trimesh
mtllib material.mtl
usemtl Material004
v 0.00751321 -0.13427562 0.27264975
v 0.08878530 -0.13427562 0.21257908
v 0.05344961 -0.06713781 0.21257908
v -0.06201469 -0.08536972 0.20735931
v -0.08749930 -0.13810328 0.20878768
v 0.05506163 -0.07172172 0.20665780
v -0.01015463 -0.08127208 0.23378050
v 0.05698318 -0.13427562 0.25144834
v -0.05962460 -0.13427562 0.25144834
v 0.05698318 -0.07067138 0.21257908
v 0.05241156 -0.06809800 0.20686806
v 0.08643638 -0.13565949 0.20749294
v 0.00397965 -0.08127208 0.23378050
v -0.05609103 -0.08127208 0.21611265
v 0.03931533 -0.13427562 0.26204905
v -0.04736668 -0.14007650 0.25638884
v -0.03842318 -0.13074205 0.26204905
v 0.07818459 -0.13427562 0.23024693
v 0.04638247 -0.13427562 0.25851548
v -0.04195675 -0.08127208 0.22317979
v -0.08789315 -0.13074205 0.21257908
v -0.05897083 -0.08163808 0.20810678
v -0.07022530 -0.13780919 0.24084764
v 0.00685932 -0.13984131 0.27043472
v 0.08631746 -0.13951736 0.21120203
v -0.01722177 -0.13427562 0.26911619
v -0.04902389 -0.13427562 0.25851548
v 0.08525173 -0.13427562 0.21964622
v 0.04991604 -0.06713781 0.21257908
v -0.03488961 -0.12367491 0.25851548
v -0.06315816 -0.08480565 0.21257908
v -0.08789315 -0.13074205 0.20904551
v -0.05962460 -0.13780919 0.25144834
v -0.08789315 -0.13780919 0.21611265
v 0.03829635 -0.13984427 0.25964538
v 0.08760332 -0.13850555 0.20826426
v 0.00397965 -0.13427562 0.27264975
v -0.01707640 -0.13963646 0.26728408
v -0.04195675 -0.13427562 0.26204905
v 0.08525173 -0.13780919 0.21964622
v -0.05962460 -0.08127208 0.21257908
v 0.04944285 -0.06757551 0.20805293
v -0.07022530 -0.13427562 0.24084764
v -0.08082601 -0.13780919 0.22671336
v 0.05531074 -0.13964552 0.24957875
v 0.07591338 -0.13974543 0.22844192
v 0.00353604 -0.13936787 0.27098142
v -0.03135604 -0.13427562 0.26558262
v -0.04086003 -0.13930966 0.26064167
v -0.08082601 -0.13427562 0.22671336
v 0.04512812 -0.13986869 0.25610750
v -0.03072612 -0.13970346 0.26358765
v -0.08789315 -0.13427562 0.21611265
f 10 2 6
f 11 6 4
f 11 10 6
f 11 3 10
f 12 5 4
f 12 4 6
f 12 6 2
f 13 7 1
f 13 1 3
f 13 3 7
f 15 3 1
f 18 10 8
f 19 10 3
f 19 8 10
f 19 3 15
f 22 11 4
f 24 15 1
f 25 16 5
f 27 17 14
f 27 14 9
f 28 2 10
f 28 10 18
f 29 20 7
f 29 7 3
f 29 14 20
f 30 7 20
f 30 26 7
f 30 17 26
f 30 20 14
f 30 14 17
f 31 22 4
f 31 9 14
f 32 4 5
f 32 31 4
f 32 21 31
f 33 23 16
f 33 9 23
f 33 27 9
f 34 5 16
f 34 32 5
f 34 21 32
f 35 19 15
f 35 15 24
f 36 25 5
f 36 5 12
f 36 12 2
f 37 1 7
f 37 7 26
f 38 16 24
f 39 17 27
f 40 2 28
f 40 36 2
f 40 25 36
f 40 28 18
f 41 14 29
f 41 31 14
f 41 22 31
f 42 29 3
f 42 3 11
f 42 11 22
f 42 41 29
f 42 22 41
f 43 23 9
f 43 9 31
f 44 34 16
f 44 16 23
f 44 23 43
f 45 8 19
f 45 18 8
f 46 16 25
f 46 25 40
f 46 40 18
f 46 18 45
f 47 24 1
f 47 1 37
f 47 38 24
f 47 37 26
f 47 26 38
f 48 26 17
f 48 17 39
f 48 38 26
f 49 48 39
f 49 33 16
f 49 39 27
f 49 27 33
f 50 43 31
f 50 44 43
f 50 34 44
f 51 45 19
f 51 19 35
f 51 46 45
f 51 16 46
f 51 35 24
f 51 24 16
f 52 49 16
f 52 16 38
f 52 38 48
f 52 48 49
f 53 50 31
f 53 31 21
f 53 21 34
f 53 34 50

