# https://github.com/mikedh/trimesh
mtllib material.mtl
usemtl Material018
v 0.01811392 0.42049470 -0.03123717
v 0.03578177 0.34275618 -0.03123717
v 0.02871463 0.42402827 -0.10544212
v 0.00391129 0.44976199 -0.10684739
v 0.00397965 0.34275618 -0.03123717
v 0.01811392 0.44522968 -0.10190855
v 0.02871463 0.39222615 -0.03123717
v 0.03573028 0.35207019 -0.03113626
v 0.00397965 0.42756184 -0.03477074
v 0.03464238 0.34077315 -0.10420441
v 0.02518106 0.43462897 -0.10190855
v 0.01811392 0.44522968 -0.10544212
v 0.02518106 0.40636042 -0.03123717
v 0.02871463 0.42402827 -0.09837498
v 0.00392008 0.42253506 -0.03168439
v 0.00751321 0.45229682 -0.10190855
v 0.01212844 0.34057825 -0.07911888
v 0.03802014 0.34516303 -0.10523778
v 0.02518106 0.43462897 -0.10544212
v 0.02518106 0.40989399 -0.03830431
v 0.01458035 0.42402827 -0.03123717
v 0.00397965 0.45229682 -0.10190855
v 0.00751321 0.45229682 -0.10544212
v 0.01458035 0.44876325 -0.10544212
v 0.00397965 0.39222615 -0.10544212
v 0.03705654 0.35022279 -0.06968740
v 0.03615401 0.34255492 -0.10534536
v 0.02164749 0.41696113 -0.03830431
v 0.00751321 0.42756184 -0.03477074
v 0.01458035 0.44876325 -0.10190855
v 0.00401863 0.34183592 -0.06987056
f 8 5 2
f 11 6 1
f 12 6 11
f 13 8 7
f 13 1 8
f 14 7 8
f 14 3 11
f 15 9 4
f 15 4 5
f 17 10 2
f 17 2 5
f 18 3 14
f 18 4 3
f 19 3 4
f 19 4 12
f 19 12 11
f 19 11 3
f 20 1 13
f 20 14 11
f 20 13 7
f 20 7 14
f 21 15 5
f 21 9 15
f 21 1 6
f 21 8 1
f 21 5 8
f 22 4 9
f 22 9 16
f 23 22 16
f 23 4 22
f 24 6 12
f 24 23 16
f 24 12 4
f 24 4 23
f 25 5 4
f 25 10 17
f 26 8 2
f 26 2 18
f 26 18 14
f 26 14 8
f 27 18 2
f 27 2 10
f 27 10 25
f 27 25 4
f 27 4 18
f 28 20 11
f 28 11 1
f 28 1 20
f 29 21 16
f 29 16 9
f 29 9 21
f 30 21 6
f 30 6 24
f 30 24 16
f 30 16 21
f 31 25 17
f 31 17 5
f 31 5 25

