# https://github.com/mikedh/trimesh
mtllib material.mtl
usemtl Material071
v 0.07111745 -0.07420495 -0.04183788
v 0.07111745 -0.11307420 -0.04183788
v 0.05698318 -0.07773852 -0.09484141
v -0.05609103 -0.07420495 -0.09484141
v -0.11262813 -0.10954064 -0.04183788
v 0.05698318 -0.07420495 -0.09484141
v 0.06942522 -0.11441113 -0.07851980
v -0.09653951 -0.07407565 -0.04065035
v 0.06897569 -0.07419295 -0.07839253
v 0.06758389 -0.11307420 -0.08424070
v -0.11001461 -0.11415039 -0.04126598
v -0.08789315 -0.07420495 -0.06303929
v -0.05255746 -0.11307420 -0.09484141
v -0.07375887 -0.07420495 -0.08070713
v -0.09849385 -0.07420495 -0.04537145
v 0.05344961 -0.11307420 -0.09484141
v -0.10699601 -0.11427683 -0.05529871
v 0.06051675 -0.09893993 -0.09130784
v -0.11262813 -0.11307420 -0.04537145
v -0.10909456 -0.10954064 -0.05597215
v -0.05609103 -0.08833922 -0.09484141
v -0.06315816 -0.11307420 -0.08777427
v -0.09496028 -0.07420495 -0.05243858
v -0.11262813 -0.10954064 -0.04537145
f 6 3 4
f 7 1 2
f 8 2 1
f 8 6 4
f 9 1 7
f 9 8 1
f 9 6 8
f 10 3 6
f 10 9 7
f 10 6 9
f 11 7 2
f 11 8 5
f 11 2 8
f 13 4 3
f 14 12 8
f 14 8 4
f 15 5 8
f 16 13 3
f 16 10 7
f 16 7 13
f 17 13 7
f 17 7 11
f 18 16 3
f 18 3 10
f 18 10 16
f 19 17 11
f 19 11 5
f 20 12 14
f 20 14 4
f 20 17 19
f 21 20 4
f 21 4 13
f 22 13 17
f 22 17 20
f 22 21 13
f 22 20 21
f 23 20 15
f 23 12 20
f 23 15 8
f 23 8 12
f 24 20 19
f 24 19 5
f 24 5 15
f 24 15 20

