# https://github.com/mikedh/trimesh
mtllib material.mtl
usemtl Material005
v 0.12058742 0.38162544 -0.34925837
v 0.14532240 0.31802120 -0.39166120
v 0.13118813 0.36042403 -0.40226191
v 0.08878530 0.34628975 -0.41286261
v 0.08171816 0.28975265 -0.36692622
v 0.13472170 0.30742050 -0.40932904
v 0.09585244 0.37809187 -0.39519477
v 0.14178883 0.34628975 -0.38812763
v 0.12765456 0.34628975 -0.34925837
v 0.14178883 0.33922262 -0.40579547
v 0.07818459 0.29681979 -0.40579547
v 0.12765456 0.28975265 -0.38459406
v 0.11705385 0.38162544 -0.37752692
v 0.11352028 0.36749117 -0.40579547
v 0.07111745 0.37102473 -0.34925837
v 0.13472170 0.36042403 -0.39519477
v 0.12765456 0.37102473 -0.34925837
v 0.14532240 0.31802120 -0.40226191
v 0.12412099 0.33215548 -0.41286261
v 0.12412099 0.28975265 -0.40226191
v 0.10645314 0.28975265 -0.36692622
v 0.13472170 0.30388693 -0.38106049
v 0.08525173 0.38869258 -0.34925837
v 0.08878530 0.36042403 -0.40932904
v 0.12058742 0.35689046 -0.40932904
v 0.12058742 0.37102473 -0.39872834
v 0.07818459 0.31802120 -0.34925837
v 0.12058742 0.38162544 -0.36692622
v 0.13472170 0.35689046 -0.40226191
v 0.14178883 0.34628975 -0.39872834
v 0.13472170 0.36042403 -0.37399335
v 0.13118813 0.36042403 -0.35632551
v 0.13825526 0.31448763 -0.40932904
v 0.13825526 0.30035336 -0.39166120
v 0.14532240 0.33568905 -0.39872834
v 0.08878530 0.31095406 -0.41286261
v 0.10645314 0.28621908 -0.37045978
v 0.14178883 0.31095406 -0.38812763
v 0.12412099 0.29681979 -0.37399335
v 0.10645314 0.38869258 -0.36339265
v 0.07818459 0.36749117 -0.39166120
v 0.09938601 0.36749117 -0.40579547
v 0.13118813 0.35689046 -0.40579547
v 0.13472170 0.34275618 -0.40932904
v 0.10998671 0.34628975 -0.41286261
v 0.10998671 0.36042403 -0.40932904
v 0.12412099 0.37102473 -0.39519477
v 0.11352028 0.37809187 -0.39166120
v 0.09585244 0.32155477 -0.34925837
v 0.09938601 0.29328622 -0.36339265
v 0.06405032 0.31095406 -0.39519477
v 0.13825526 0.35335689 -0.39872834
v 0.13118813 0.35335689 -0.35632551
v 0.14532240 0.33215548 -0.39166120
v 0.13825526 0.30388693 -0.40579547
v 0.12412099 0.31802120 -0.41286261
v 0.14532240 0.31448763 -0.39872834
v 0.13118813 0.29328622 -0.40226191
v 0.13118813 0.29328622 -0.38459406
v 0.14532240 0.33215548 -0.40226191
v 0.06758389 0.32862191 -0.40579547
v 0.12412099 0.29328622 -0.40579547
v 0.12058742 0.28621908 -0.39519477
v 0.14178883 0.30742050 -0.39166120
f 15 9 1
f 17 1 9
f 17 16 1
f 23 15 1
f 27 9 15
f 28 1 16
f 29 3 16
f 30 16 8
f 31 17 8
f 31 8 16
f 31 16 17
f 32 17 9
f 33 10 18
f 35 2 18
f 35 30 8
f 36 4 19
f 37 21 5
f 38 2 9
f 38 9 22
f 39 37 12
f 39 21 37
f 39 22 9
f 39 9 21
f 40 7 23
f 40 28 13
f 40 23 1
f 40 1 28
f 41 23 7
f 41 15 23
f 41 7 24
f 42 24 7
f 42 7 14
f 42 14 24
f 43 25 14
f 43 3 29
f 43 29 10
f 43 26 3
f 43 14 26
f 44 19 25
f 44 33 19
f 44 10 33
f 44 43 10
f 44 25 43
f 45 25 19
f 45 19 4
f 45 4 24
f 46 24 14
f 46 14 25
f 46 45 24
f 46 25 45
f 47 16 3
f 47 3 26
f 47 28 16
f 47 13 28
f 48 26 14
f 48 14 7
f 48 47 26
f 48 13 47
f 48 40 13
f 48 7 40
f 49 21 9
f 49 9 27
f 50 27 5
f 50 5 21
f 50 49 27
f 50 21 49
f 51 27 15
f 51 11 5
f 51 5 27
f 52 29 16
f 52 16 30
f 52 30 10
f 52 10 29
f 53 32 9
f 53 9 2
f 53 2 32
f 54 32 2
f 54 8 17
f 54 17 32
f 54 35 8
f 54 2 35
f 55 33 18
f 55 6 33
f 56 33 6
f 56 19 33
f 56 36 19
f 56 6 36
f 57 18 2
f 57 55 18
f 57 34 55
f 58 55 34
f 59 58 34
f 59 12 58
f 59 39 12
f 59 22 39
f 60 35 18
f 60 18 10
f 60 10 30
f 60 30 35
f 61 36 11
f 61 4 36
f 61 11 51
f 61 24 4
f 61 41 24
f 61 51 15
f 61 15 41
f 62 20 11
f 62 11 36
f 62 36 6
f 62 58 20
f 62 6 55
f 62 55 58
f 63 12 37
f 63 58 12
f 63 20 58
f 63 11 20
f 63 37 5
f 63 5 11
f 64 2 38
f 64 57 2
f 64 34 57
f 64 38 22
f 64 59 34
f 64 22 59

