# https://github.com/mikedh/trimesh
mtllib material.mtl
usemtl Material007
v -0.04542656 0.34965849 0.03943880
v -0.01369462 0.34265236 -0.06655971
v -0.07022530 0.36042403 -0.10544212
v -0.10909456 0.34628975 -0.10544212
v -0.09014861 0.34079710 0.01067892
v -0.03619032 0.34115611 -0.10529794
v -0.01368820 0.34628975 -0.06657286
v -0.04549032 0.34275618 0.03943421
v -0.08435958 0.35335689 -0.01003576
v -0.03488961 0.34628975 -0.10544212
v -0.10739002 0.34088736 -0.08438206
v -0.05255746 0.35689046 -0.09837498
v -0.07375887 0.34628975 0.03943421
v -0.01372178 0.34221346 -0.07003768
v -0.07022530 0.35689046 -0.05243858
v -0.09142672 0.35689046 -0.09130784
v -0.09849385 0.34628975 -0.01003576
v -0.10821792 0.34179418 -0.10551630
v -0.07022530 0.36042403 -0.10190855
v -0.05255746 0.35689046 -0.10544212
v -0.07342052 0.34150437 0.03923217
v -0.05962460 0.34982332 0.03943421
v -0.01368820 0.34628975 -0.07010643
v -0.09142672 0.35689046 -0.10544212
v -0.09142672 0.34628975 0.01116566
v -0.10071751 0.34097183 -0.02788096
v -0.10556099 0.34628975 -0.05243858
v -0.09849385 0.34982332 -0.03477074
v -0.10909456 0.34628975 -0.08424070
v -0.07729244 0.36042403 -0.10190855
v -0.07729244 0.34982332 0.01823279
v -0.07729244 0.35335689 -0.00650219
v -0.04549032 0.35335689 -0.10544212
v -0.10556099 0.34982332 -0.08777427
v -0.10556099 0.34982332 -0.10544212
v -0.09142672 0.34982332 -0.00650219
v -0.09726239 0.34098279 -0.01030012
v -0.08435958 0.34628975 0.02529993
v -0.10202742 0.34628975 -0.02770360
v -0.10389758 0.34107561 -0.05269244
v -0.09142672 0.35335689 -0.03830431
v -0.08789315 0.35689046 -0.07717357
v -0.07729244 0.36042403 -0.10544212
v -0.06315816 0.34982332 0.03590064
v -0.07729244 0.35689046 -0.05243858
v -0.09849385 0.35335689 -0.08424070
v -0.09496028 0.34982332 -0.01710289
v -0.08337974 0.34116227 0.02478470
v -0.08789315 0.35335689 -0.02063646
f 7 1 2
f 8 2 1
f 11 6 5
f 12 1 7
f 13 8 1
f 14 2 8
f 14 6 10
f 18 10 6
f 18 6 11
f 19 12 3
f 19 1 12
f 19 15 1
f 20 3 12
f 20 18 3
f 20 12 7
f 21 8 13
f 21 14 8
f 21 5 6
f 21 6 14
f 22 13 1
f 22 1 15
f 23 14 10
f 23 7 2
f 23 2 14
f 23 20 7
f 26 11 5
f 29 18 11
f 29 4 18
f 29 11 27
f 30 15 19
f 30 19 3
f 30 24 16
f 32 22 15
f 32 9 22
f 33 23 10
f 33 20 23
f 33 10 18
f 33 18 20
f 34 4 29
f 34 29 27
f 34 27 28
f 35 24 18
f 35 18 4
f 35 4 34
f 36 25 9
f 37 25 17
f 37 5 25
f 37 26 5
f 38 21 13
f 38 13 31
f 38 31 9
f 38 9 25
f 39 27 26
f 39 28 27
f 39 17 28
f 39 37 17
f 39 26 37
f 40 27 11
f 40 11 26
f 40 26 27
f 42 30 16
f 43 30 3
f 43 24 30
f 43 3 18
f 43 18 24
f 44 22 9
f 44 9 31
f 44 31 13
f 44 13 22
f 45 30 9
f 45 9 32
f 45 32 15
f 45 15 30
f 46 34 28
f 46 16 24
f 46 35 34
f 46 24 35
f 46 41 16
f 46 28 41
f 47 28 17
f 47 17 25
f 47 25 36
f 48 38 25
f 48 25 5
f 48 5 21
f 48 21 38
f 49 16 41
f 49 42 16
f 49 9 30
f 49 30 42
f 49 41 28
f 49 28 47
f 49 47 36
f 49 36 9

