# https://github.com/mikedh/trimesh
mtllib material.mtl
usemtl Material089
v 0.09231887 0.33568905 0.03943421
v 0.11705385 0.22968198 0.02176636
v 0.11352028 0.33568905 -0.03123717
v -0.10556099 0.34275618 -0.03123717
v -0.11003206 0.22988546 0.03911334
v -0.11712056 0.23010403 -0.03131872
v 0.10291957 0.34275618 -0.00650219
v 0.11352028 0.30388693 0.03590064
v -0.09496028 0.33568905 0.03943421
v 0.12058742 0.22968198 -0.03123717
v 0.12081277 0.30993010 -0.03176306
v -0.12322883 0.30742050 -0.01710289
v 0.10645314 0.34275618 -0.03123717
v 0.10998671 0.32508834 0.02176636
v 0.11039076 0.22991737 0.03881065
v 0.11352028 0.29681979 0.03943421
v -0.08082601 0.34275618 0.03943421
v -0.11969527 0.22968198 -0.00296862
v -0.12000118 0.30987576 -0.03172772
v 0.12412099 0.26501767 -0.01003576
v -0.11262813 0.33215548 -0.00650219
v -0.11262813 0.30035336 0.03943421
v 0.10998671 0.33922262 -0.02417003
v 0.09938601 0.33568905 0.02529993
v 0.10291957 0.32508834 0.03943421
v 0.12412099 0.31095406 -0.02417003
v -0.11616170 0.22968198 0.02883350
v 0.11705385 0.23674912 0.02883350
v -0.09849385 0.34275618 0.00763209
v 0.08171816 0.34275618 0.03943421
v -0.12322883 0.24734982 -0.03123717
v -0.11262813 0.33568905 -0.03123717
v 0.12058742 0.23321555 -0.00650219
v -0.11616170 0.31448763 0.01469922
v 0.10645314 0.34275618 -0.02417003
v 0.11352028 0.33215548 -0.01003576
v 0.10998671 0.32862191 0.01469922
v 0.10998671 0.31802120 0.03236707
v 0.10998671 0.31095406 0.03943421
v 0.12058742 0.32155477 -0.03123717
v 0.12058742 0.30035336 0.00763209
v 0.12412099 0.25088339 -0.03123717
v -0.11616170 0.23321555 0.03236707
v -0.08789315 0.34275618 0.03236707
v -0.10202742 0.33568905 0.02176636
v -0.10556099 0.34275618 -0.02063646
v 0.09585244 0.34275618 0.01116566
v -0.12322883 0.31095406 -0.02417003
v 0.12058742 0.22968198 -0.01710289
v 0.12058742 0.24734982 0.00763209
v -0.11616170 0.30388693 0.02529993
v -0.10556099 0.32508834 0.03590064
v 0.11352028 0.33568905 -0.02770360
v 0.11705385 0.31802120 0.00763209
v 0.10998671 0.33568905 -0.00650219
v 0.10645314 0.32862191 0.02529993
v 0.12058742 0.32155477 -0.02063646
v 0.11705385 0.30035336 0.02529993
v 0.12412099 0.29328622 -0.01003576
v 0.12412099 0.25088339 -0.02417003
v -0.12322883 0.26501767 -0.00650219
v -0.09849385 0.33922262 0.02176636
v -0.10202742 0.33922262 0.01116566
v -0.11262813 0.33568905 -0.02417003
f 11 10 6
f 13 4 7
f 13 11 4
f 13 3 11
f 16 1 9
f 16 5 15
f 17 7 4
f 17 9 1
f 18 10 2
f 18 6 10
f 19 11 6
f 19 4 11
f 22 16 9
f 22 5 16
f 25 1 16
f 27 15 5
f 27 2 15
f 27 18 2
f 28 16 15
f 28 15 2
f 29 17 4
f 30 17 1
f 30 7 17
f 30 1 24
f 31 6 18
f 31 19 6
f 32 4 19
f 35 13 7
f 35 3 13
f 39 25 16
f 39 16 8
f 39 38 25
f 39 8 38
f 40 11 3
f 42 26 20
f 42 10 11
f 42 40 26
f 42 11 40
f 43 27 5
f 43 5 22
f 43 18 27
f 44 9 17
f 44 17 29
f 46 29 4
f 46 4 32
f 47 30 24
f 47 24 7
f 47 7 30
f 48 31 12
f 48 19 31
f 48 32 19
f 48 34 21
f 48 12 34
f 49 33 2
f 49 2 10
f 49 10 42
f 50 33 20
f 50 20 28
f 50 28 2
f 50 2 33
f 51 34 12
f 51 22 34
f 51 43 22
f 52 34 22
f 52 22 9
f 52 9 45
f 52 45 21
f 52 21 34
f 53 23 36
f 53 35 23
f 53 3 35
f 53 40 3
f 54 14 38
f 54 38 8
f 54 41 26
f 54 37 14
f 54 36 37
f 55 36 23
f 55 37 36
f 55 7 37
f 55 35 7
f 55 23 35
f 56 14 37
f 56 38 14
f 56 25 38
f 56 24 1
f 56 1 25
f 56 37 7
f 56 7 24
f 57 26 40
f 57 54 26
f 57 36 54
f 57 53 36
f 57 40 53
f 58 8 16
f 58 16 28
f 58 28 41
f 58 54 8
f 58 41 54
f 59 20 26
f 59 26 41
f 59 41 28
f 59 28 20
f 60 42 20
f 60 20 33
f 60 49 42
f 60 33 49
f 61 31 18
f 61 18 43
f 61 12 31
f 61 51 12
f 61 43 51
f 62 44 29
f 62 9 44
f 62 45 9
f 63 46 21
f 63 29 46
f 63 62 29
f 63 21 45
f 63 45 62
f 64 46 32
f 64 21 46
f 64 48 21
f 64 32 48

