# https://github.com/mikedh/trimesh
mtllib material.mtl
usemtl Material003
v 0.11352028 -0.15547703 -0.14431138
v 0.11352028 -0.21201413 -0.14431138
v 0.10998671 -0.19434629 -0.22204989
v 0.05698318 -0.14840989 -0.22204989
v 0.04991604 -0.15547703 -0.14431138
v 0.06051675 -0.22614841 -0.20084848
v 0.10291957 -0.15901060 -0.22204989
v 0.11705385 -0.18374558 -0.17257993
v 0.09676530 -0.14712172 -0.14359469
v 0.09938601 -0.22261484 -0.20084848
v 0.05139347 -0.20434506 -0.22210088
v 0.06051675 -0.22614841 -0.16904636
v 0.11705385 -0.16607774 -0.14431138
v 0.11705385 -0.20141343 -0.15491208
v 0.10998671 -0.17314488 -0.21498275
v 0.09550914 -0.22543175 -0.14423143
v 0.06405032 -0.13780919 -0.14431138
v 0.09231887 -0.14134276 -0.15137851
v 0.10998671 -0.21201413 -0.17964706
v 0.08525173 -0.22968198 -0.20084848
v 0.04962968 -0.20005190 -0.22214364
v 0.04638247 -0.20141343 -0.17611350
v 0.11377095 -0.20068438 -0.14396614
v 0.11705385 -0.19081272 -0.16904636
v 0.10998671 -0.18021201 -0.22204989
v 0.11705385 -0.16961131 -0.16197922
v 0.05045552 -0.16975824 -0.14426842
v 0.10291957 -0.22614841 -0.14431138
v 0.05344961 -0.14487633 -0.15137851
v 0.05344961 -0.14487633 -0.14431138
v 0.09231887 -0.14134276 -0.14431138
v 0.09585244 -0.14840989 -0.19378134
v 0.07818459 -0.14487633 -0.22204989
v 0.10645314 -0.20494700 -0.22204989
v 0.11352028 -0.21201413 -0.15491208
v 0.06758389 -0.22968198 -0.20084848
v 0.04638247 -0.16961131 -0.22204989
v 0.05698318 -0.22261484 -0.20084848
v 0.11705385 -0.19787986 -0.16197922
v 0.11352028 -0.19081272 -0.19731491
v 0.11705385 -0.18021201 -0.17257993
v 0.11705385 -0.16607774 -0.15137851
v 0.10645314 -0.15901060 -0.20438205
v 0.04991604 -0.20848057 -0.16904636
v 0.04638247 -0.19787986 -0.16904636
v 0.10998671 -0.21908127 -0.14431138
v 0.08878530 -0.22968198 -0.19378134
v 0.09231887 -0.22968198 -0.16904636
v 0.05698318 -0.14487633 -0.19024777
v 0.08088058 -0.14116069 -0.14392430
v 0.10998671 -0.15194346 -0.14431138
v 0.08171816 -0.13780919 -0.15137851
v 0.06405032 -0.14487633 -0.22204989
v 0.08878530 -0.14487633 -0.19378134
v 0.08878530 -0.14840989 -0.21851632
v 0.10645314 -0.21201413 -0.20084848
v 0.11352028 -0.20494700 -0.17611350
v 0.10291957 -0.22261484 -0.17964706
v 0.04991604 -0.15547703 -0.20084848
v 0.11352028 -0.16961131 -0.18671420
v 0.10998671 -0.15194346 -0.14784494
v 0.05344961 -0.21554770 -0.16904636
v 0.04638247 -0.17314488 -0.16904636
v 0.10291957 -0.22614841 -0.15137851
f 13 1 9
f 14 13 2
f 14 8 13
f 23 13 9
f 23 2 13
f 23 9 16
f 24 8 14
f 25 7 15
f 25 21 7
f 25 3 21
f 26 13 8
f 27 16 9
f 27 9 5
f 27 12 16
f 28 23 16
f 30 5 9
f 30 29 5
f 30 17 29
f 33 7 21
f 34 10 20
f 34 21 3
f 34 11 21
f 35 14 2
f 36 6 11
f 36 34 20
f 36 11 34
f 36 12 6
f 37 4 21
f 37 21 22
f 38 11 6
f 38 6 12
f 38 22 21
f 38 21 11
f 39 24 14
f 40 8 24
f 40 3 25
f 40 39 3
f 40 24 39
f 41 26 8
f 41 40 25
f 41 8 40
f 42 1 13
f 42 13 26
f 43 15 7
f 44 22 38
f 45 27 5
f 45 44 27
f 45 22 44
f 45 37 22
f 46 2 23
f 46 23 28
f 46 35 2
f 47 20 10
f 47 36 20
f 48 28 16
f 48 16 12
f 48 12 36
f 48 36 47
f 49 29 17
f 49 4 29
f 50 30 9
f 50 17 30
f 50 31 17
f 50 9 31
f 51 31 9
f 51 9 1
f 51 18 31
f 52 31 18
f 52 17 31
f 53 52 33
f 53 17 52
f 53 49 17
f 53 4 49
f 53 33 21
f 53 21 4
f 54 18 32
f 54 52 18
f 54 33 52
f 55 32 7
f 55 7 33
f 55 54 32
f 55 33 54
f 56 34 19
f 56 10 34
f 57 34 3
f 57 14 35
f 57 35 19
f 57 19 34
f 57 39 14
f 57 3 39
f 58 19 35
f 58 56 19
f 58 10 56
f 58 35 46
f 59 29 4
f 59 4 37
f 59 37 5
f 59 5 29
f 60 15 43
f 60 26 41
f 60 41 25
f 60 25 15
f 60 42 26
f 60 43 1
f 60 1 42
f 61 43 7
f 61 7 32
f 61 32 18
f 61 18 51
f 61 51 1
f 61 1 43
f 62 12 27
f 62 27 44
f 62 44 38
f 62 38 12
f 63 45 5
f 63 5 37
f 63 37 45
f 64 48 47
f 64 28 48
f 64 47 10
f 64 10 58
f 64 58 46
f 64 46 28

