# https://github.com/mikedh/trimesh
mtllib material.mtl
usemtl Material059
v -0.06669173 0.36042403 -0.14077781
v -0.03842318 0.36042403 -0.19378134
v -0.06669173 0.39929329 -0.20791562
v -0.10556099 0.39222615 -0.21498275
v -0.11322370 0.35705533 -0.21483753
v -0.08082601 0.36749117 -0.14431138
v -0.05255746 0.38515901 -0.20438205
v -0.05060792 0.35466191 -0.17013380
v -0.04220598 0.35687584 -0.21496703
v -0.07375887 0.36749117 -0.14431138
v -0.09142672 0.39929329 -0.20791562
v -0.09756463 0.35513018 -0.14479241
v -0.04902389 0.36042403 -0.16904636
v -0.05962460 0.39222615 -0.20438205
v -0.06806885 0.39683753 -0.21609355
v -0.04902389 0.38515901 -0.21498275
v -0.04122032 0.35511493 -0.19439658
v -0.08435958 0.36395760 -0.14077781
v -0.06402345 0.35504847 -0.14434355
v -0.10408674 0.35465593 -0.15577989
v -0.04195675 0.36042403 -0.18318063
v -0.06315816 0.36042403 -0.14431138
v -0.04472599 0.36965477 -0.21565187
v -0.11616170 0.36395760 -0.21498275
v -0.09496028 0.39929329 -0.21498275
v -0.04902389 0.38515901 -0.21144919
v -0.05962460 0.39575972 -0.21498275
v -0.03842318 0.36042403 -0.21144919
v -0.07022530 0.36395760 -0.14077781
v -0.09438199 0.35579497 -0.14107718
v -0.09496028 0.36042403 -0.14077781
v -0.04418260 0.35552160 -0.18375163
v -0.06694213 0.35635743 -0.14078712
v -0.11262813 0.37809187 -0.21498275
v -0.11616170 0.35689046 -0.19378134
v -0.10202742 0.39222615 -0.20438205
v -0.04195675 0.37102473 -0.20791562
v -0.05962460 0.39575972 -0.21144919
v -0.09496028 0.38869258 -0.19024777
v -0.09849385 0.36042403 -0.14431138
v -0.11616170 0.36042403 -0.19378134
v -0.10556099 0.39222615 -0.21144919
v -0.09496028 0.39929329 -0.21144919
v -0.04549032 0.37809187 -0.20791562
v -0.09142672 0.39575972 -0.20084848
v -0.10556099 0.36042403 -0.15491208
v -0.09849385 0.38869258 -0.19378134
v -0.11616170 0.36395760 -0.20791562
v -0.11262813 0.37809187 -0.20791562
v -0.10202742 0.37809187 -0.17964706
v -0.10556099 0.38515901 -0.19731491
v -0.11262813 0.35689046 -0.17257993
v -0.11262813 0.36042403 -0.17257993
v -0.10909456 0.37455830 -0.18671420
v -0.10909456 0.38515901 -0.20791562
f 10 3 6
f 11 6 3
f 17 5 9
f 18 10 6
f 19 8 13
f 20 19 12
f 20 8 19
f 20 17 8
f 20 5 17
f 21 7 13
f 21 13 8
f 22 13 7
f 22 7 14
f 22 19 13
f 23 9 5
f 23 15 16
f 24 23 5
f 24 15 23
f 25 11 3
f 25 3 15
f 25 15 4
f 26 7 21
f 26 14 7
f 27 16 15
f 27 15 3
f 27 26 16
f 28 17 9
f 28 2 17
f 28 9 23
f 28 23 16
f 29 18 1
f 29 10 18
f 29 1 22
f 29 3 10
f 29 22 14
f 29 14 3
f 30 12 19
f 31 18 6
f 31 1 18
f 32 17 2
f 32 2 21
f 32 21 8
f 32 8 17
f 33 22 1
f 33 19 22
f 33 30 19
f 33 31 30
f 33 1 31
f 34 4 15
f 34 15 24
f 35 24 5
f 35 5 20
f 37 28 16
f 37 2 28
f 38 27 3
f 38 3 14
f 38 14 26
f 38 26 27
f 39 31 6
f 39 11 36
f 40 12 30
f 40 30 31
f 40 31 39
f 41 24 35
f 42 25 4
f 42 4 34
f 43 36 11
f 43 11 25
f 43 42 36
f 43 25 42
f 44 2 37
f 44 26 21
f 44 21 2
f 44 37 16
f 44 16 26
f 45 39 6
f 45 6 11
f 45 11 39
f 46 20 12
f 46 12 40
f 47 40 39
f 47 39 36
f 47 36 40
f 48 34 24
f 48 24 41
f 49 42 34
f 49 48 41
f 49 34 48
f 50 46 40
f 50 40 36
f 51 36 42
f 51 50 36
f 51 46 50
f 52 41 35
f 52 35 20
f 52 20 46
f 53 52 46
f 53 49 41
f 53 41 52
f 54 53 46
f 54 46 51
f 54 51 42
f 54 49 53
f 55 54 42
f 55 42 49
f 55 49 54

