# https://github.com/mikedh/trimesh
mtllib material.mtl
usemtl Material119
v 0.07465102 -0.24734982 0.31505258
v 0.07465102 -0.36042403 0.31505258
v 0.07465102 -0.34275618 0.21257908
v -0.07022530 -0.24734982 0.21257908
v -0.07022530 -0.24734982 0.31505258
v -0.06669173 -0.37102473 0.21611265
v 0.07465102 -0.24734982 0.21257908
v 0.06405032 -0.37102473 0.21611265
v -0.06315816 -0.37102473 0.21257908
v -0.07022530 -0.37102473 0.23024693
v 0.07111745 -0.36749117 0.23378050
v -0.07022530 -0.36042403 0.21257908
v 0.06051675 -0.37102473 0.21257908
v -0.06923618 -0.37011441 0.31491112
v 0.07111745 -0.36042403 0.21964622
v 0.07465102 -0.35689046 0.23024693
v 0.06603207 -0.37039245 0.31505378
v -0.06669173 -0.36749117 0.21257908
v -0.07022530 -0.36749117 0.21964622
v 0.06758389 -0.36042403 0.21257908
v 0.06758389 -0.37102473 0.22317979
v 0.07465102 -0.36042403 0.30445187
v 0.07465102 -0.35335689 0.22317979
v 0.07111745 -0.36749117 0.31505258
v 0.06405032 -0.36749117 0.21257908
v 0.07111745 -0.35689046 0.21611265
f 1 2 3
f 5 1 4
f 7 1 3
f 7 3 4
f 7 4 1
f 9 4 3
f 9 8 6
f 10 5 4
f 10 6 8
f 12 4 9
f 12 10 4
f 13 9 3
f 13 8 9
f 14 5 10
f 16 3 2
f 17 5 14
f 17 2 1
f 17 1 5
f 17 14 10
f 18 12 9
f 18 9 6
f 19 6 10
f 19 10 12
f 19 18 6
f 19 12 18
f 20 13 3
f 21 17 10
f 21 10 8
f 22 16 2
f 22 2 11
f 22 11 16
f 23 15 3
f 23 3 16
f 23 16 11
f 23 21 15
f 23 11 21
f 24 11 2
f 24 2 17
f 24 21 11
f 24 17 21
f 25 8 13
f 25 13 20
f 25 20 15
f 25 21 8
f 25 15 21
f 26 20 3
f 26 3 15
f 26 15 20

