# https://github.com/mikedh/trimesh
mtllib material.mtl
usemtl Material024
v 0.00397965 0.21554770 0.18431053
v 0.09231887 0.12014134 0.12423986
v 0.08089402 0.22954249 0.12024119
v -0.08175498 0.22932881 0.11934482
v -0.07729244 0.12014134 0.14897484
v 0.08919298 0.12311748 0.11959228
v -0.01368820 0.22968198 0.18077696
v 0.06405032 0.21554770 0.15250841
v 0.01104678 0.12014134 0.18431053
v 0.08224852 0.22564010 0.11901145
v -0.08926167 0.11981606 0.11976291
v -0.08435958 0.22968198 0.12423986
v 0.04638247 0.22968198 0.16310912
v -0.02428891 0.12014134 0.18077696
v 0.06405032 0.12014134 0.15957555
v 0.09231887 0.12367491 0.12423986
v 0.08171816 0.22261484 0.13130700
v -0.08838592 0.12675162 0.11938132
v 0.08972542 0.11969285 0.11976736
v -0.05962460 0.22968198 0.15604198
v -0.09142672 0.12720848 0.12423986
v 0.00751321 0.22968198 0.18077696
v 0.08171816 0.22968198 0.12777343
v -0.01242231 0.11996244 0.18123334
v -0.01368820 0.16607774 0.18431053
v 0.04991604 0.21554770 0.16310912
v 0.08525173 0.12014134 0.13837414
v 0.05698318 0.22968198 0.15604198
v 0.03578177 0.12014134 0.17724339
v -0.07375887 0.22968198 0.14190771
v -0.04902389 0.12367491 0.17017626
v -0.09142672 0.12014134 0.12423986
v -0.08435958 0.21554770 0.12777343
v 0.02871463 0.22261484 0.17370983
v 0.08525173 0.22614841 0.12423986
v -0.04902389 0.12014134 0.17017626
v -0.01015463 0.21201413 0.18431053
v 0.06051675 0.20848057 0.15604198
v 0.07465102 0.21201413 0.14190771
v 0.07465102 0.13427562 0.14897484
v 0.07465102 0.22968198 0.13837414
v 0.06405032 0.12367491 0.15957555
v 0.01104678 0.16961131 0.18431053
v -0.06669173 0.20494700 0.15250841
v -0.02428891 0.12367491 0.18077696
v -0.08435958 0.12014134 0.13837414
v -0.08082601 0.22968198 0.13130700
v -0.07729244 0.12720848 0.14897484
v 0.01811392 0.22968198 0.17724339
v 0.03931533 0.20848057 0.17017626
v 0.08878530 0.13427562 0.13130700
v -0.00308749 0.21554770 0.18431053
v -0.02075534 0.19434629 0.18077696
v 0.08525173 0.12720848 0.13837414
v 0.07111745 0.21554770 0.14544128
v 0.02518106 0.20848057 0.17724339
v -0.06315816 0.20494700 0.15604198
v -0.08789315 0.13074205 0.13130700
v -0.07729244 0.21908127 0.13837414
v -0.08435958 0.12367491 0.13837414
v 0.03578177 0.22261484 0.17017626
v 0.04638247 0.19434629 0.16664269
v -0.03842318 0.22614841 0.17017626
v 0.07818459 0.13427562 0.14544128
f 10 4 3
f 12 3 4
f 13 12 7
f 18 10 6
f 18 11 4
f 18 4 10
f 19 16 2
f 19 6 10
f 19 10 16
f 19 18 6
f 19 11 18
f 20 7 12
f 21 12 4
f 21 4 11
f 22 13 7
f 22 7 1
f 23 3 12
f 23 12 13
f 24 11 19
f 24 9 14
f 25 14 9
f 25 9 1
f 27 2 16
f 27 19 2
f 27 15 19
f 28 13 26
f 28 23 13
f 29 19 15
f 29 24 19
f 29 9 24
f 30 20 12
f 32 21 11
f 33 12 21
f 35 10 3
f 35 3 23
f 35 16 10
f 36 24 14
f 36 5 11
f 36 11 24
f 36 31 5
f 36 14 31
f 37 25 1
f 38 28 26
f 38 8 28
f 40 15 27
f 41 28 8
f 41 23 28
f 41 35 23
f 41 17 35
f 42 29 15
f 42 38 26
f 42 8 38
f 42 40 8
f 42 15 40
f 43 1 9
f 43 9 29
f 44 20 30
f 45 31 14
f 45 14 25
f 46 32 11
f 46 11 5
f 46 21 32
f 47 30 12
f 47 12 33
f 48 44 30
f 48 5 31
f 48 46 5
f 49 22 1
f 49 13 22
f 51 16 35
f 51 35 17
f 52 37 1
f 52 1 7
f 52 7 37
f 53 25 37
f 53 45 25
f 53 31 45
f 54 17 39
f 54 51 17
f 54 27 16
f 54 16 51
f 54 40 27
f 55 8 40
f 55 41 8
f 55 39 17
f 55 17 41
f 55 54 39
f 56 1 43
f 56 49 1
f 56 34 49
f 56 43 29
f 56 29 50
f 57 20 44
f 57 48 31
f 57 44 48
f 58 33 21
f 59 47 33
f 59 30 47
f 59 48 30
f 60 46 48
f 60 33 58
f 60 58 21
f 60 21 46
f 60 59 33
f 60 48 59
f 61 56 50
f 61 34 56
f 61 49 34
f 61 13 49
f 61 50 26
f 61 26 13
f 62 42 26
f 62 26 50
f 62 50 29
f 62 29 42
f 63 53 37
f 63 37 7
f 63 7 20
f 63 20 57
f 63 57 31
f 63 31 53
f 64 55 40
f 64 40 54
f 64 54 55

