# https://github.com/mikedh/trimesh
mtllib material.mtl
usemtl Material127
v 0.00398934 0.34265663 -0.06655175
v 0.00397965 0.22968198 -0.06657286
v 0.00397965 0.25088339 -0.10544212
v -0.11262813 0.34275618 -0.10544212
v -0.12676240 0.26855124 -0.06657286
v 0.00378567 0.32597727 -0.10311513
v -0.11503580 0.23001771 -0.06641417
v -0.10909456 0.34275618 -0.06657286
v 0.00397965 0.33568905 -0.09837498
v -0.03135604 0.34275618 -0.10544212
v -0.10909456 0.22968198 -0.10544212
v -0.12676240 0.31095406 -0.06657286
v 0.00397965 0.34275618 -0.08070713
v -0.01722177 0.22968198 -0.10544212
v -0.11616170 0.22968198 -0.08777427
v -0.12676240 0.28268551 -0.10544212
v -0.11969527 0.33215548 -0.07010643
v 0.00397965 0.33922262 -0.09130784
v 0.00397965 0.22968198 -0.09484141
v -0.11969527 0.23321555 -0.06657286
v -0.12322883 0.32508834 -0.10544212
v -0.11616170 0.24028269 -0.10544212
v -0.12322883 0.32508834 -0.06657286
v -0.11262813 0.34275618 -0.08070713
v 0.00397965 0.24028269 -0.10190855
v -0.12322883 0.24734982 -0.06657286
v -0.12676240 0.30742050 -0.10544212
v -0.11969527 0.33215548 -0.10544212
v -0.11262813 0.23321555 -0.10544212
v -0.12322883 0.26148410 -0.10190855
v -0.11616170 0.33568905 -0.06657286
v 0.00044608 0.23674912 -0.10190855
v -0.12676240 0.26855124 -0.08070713
v -0.12676240 0.31095406 -0.09837498
v -0.11262813 0.22968198 -0.09837498
v -0.11969527 0.24028269 -0.08777427
v -0.12322883 0.26501767 -0.10544212
v -0.12322883 0.24734982 -0.07364000
v -0.12676240 0.27915194 -0.10190855
v -0.11969527 0.23321555 -0.07364000
f 7 2 1
f 8 7 1
f 9 1 3
f 9 3 6
f 10 6 3
f 10 3 4
f 10 9 6
f 10 4 8
f 11 4 3
f 12 5 7
f 13 10 8
f 13 8 1
f 14 11 3
f 14 2 11
f 15 11 2
f 15 2 7
f 16 4 11
f 16 5 12
f 18 9 10
f 18 10 13
f 18 13 1
f 18 1 9
f 19 2 14
f 19 1 2
f 20 15 7
f 21 4 16
f 22 16 11
f 23 12 7
f 23 21 12
f 23 17 21
f 24 8 4
f 24 4 17
f 25 14 3
f 25 3 1
f 25 1 19
f 26 20 7
f 26 7 5
f 27 21 16
f 27 16 12
f 28 21 17
f 28 17 4
f 28 4 21
f 29 22 11
f 29 15 22
f 31 17 23
f 31 24 17
f 31 8 24
f 31 23 7
f 31 7 8
f 32 25 19
f 32 19 14
f 32 14 25
f 33 26 5
f 33 5 16
f 34 27 12
f 34 12 21
f 34 21 27
f 35 29 11
f 35 11 15
f 35 15 29
f 36 30 22
f 36 22 15
f 37 30 16
f 37 16 22
f 37 22 30
f 38 26 33
f 38 30 36
f 38 20 26
f 39 33 16
f 39 16 30
f 39 38 33
f 39 30 38
f 40 36 15
f 40 15 20
f 40 38 36
f 40 20 38

