# https://github.com/mikedh/trimesh
mtllib material.mtl
usemtl Material080
v 0.01811392 0.03180212 0.19491124
v 0.10645314 0.00353357 0.13484057
v 0.09938601 0.06360424 0.13130700
v -0.09568414 0.06318354 0.12652182
v -0.10556099 0.00353357 0.13484057
v 0.10554711 0.00341167 0.12735989
v -0.01368820 0.06360424 0.19137767
v 0.07818459 0.00706714 0.17017626
v 0.10645314 0.02120141 0.13130700
v 0.09699869 0.06324381 0.12678219
v -0.10374959 0.00331389 0.12720519
v 0.06051675 0.06360424 0.17017626
v -0.09849385 0.06360424 0.13130700
v -0.04549032 0.00353357 0.19137767
v 0.09585244 0.01060071 0.15250841
v 0.10355065 0.02076371 0.12645439
v 0.10291957 0.04593640 0.13130700
v 0.02164749 0.06360424 0.18784410
v 0.04284890 0.01060071 0.19137767
v -0.10556099 0.01766785 0.12777343
v -0.02428891 0.00706714 0.19844481
v 0.04117280 0.00287199 0.18847823
v -0.07375887 0.00353357 0.17370983
v 0.09585244 0.00353357 0.15250841
v 0.10291957 0.00706714 0.14190771
v 0.08878530 0.06360424 0.14897484
v 0.09985135 0.04543368 0.12646882
v 0.00397965 0.06360424 0.19137767
v 0.05698318 0.00706714 0.18431053
v 0.02518106 0.04240283 0.19137767
v 0.03578177 0.06007067 0.18431053
v -0.10556099 0.01766785 0.13130700
v -0.03488961 0.01060071 0.19491124
v 0.02164749 0.00353357 0.19844481
v -0.09142672 0.00353357 0.15604198
v -0.06669173 0.06360424 0.16664269
v 0.07818459 0.00353357 0.17017626
v 0.10645314 0.01060071 0.13484057
v 0.09938601 0.06007067 0.13484057
v 0.10291957 0.00353357 0.14190771
v 0.07818459 0.05653710 0.15957555
v 0.08878530 0.01413428 0.15957555
v -0.01015463 0.02826855 0.19844481
v 0.06758389 0.06007067 0.16664269
v 0.04638247 0.05300353 0.18077696
v 0.03224820 0.06360424 0.18431053
v 0.03578177 0.02473498 0.19137767
v 0.02518106 0.06007067 0.18784410
v -0.10202742 0.00706714 0.14190771
v -0.10202742 0.04240283 0.13130700
v -0.01368820 0.04593640 0.19491124
v -0.02428891 0.00353357 0.19844481
v 0.05698318 0.00353357 0.18431053
v -0.10202742 0.00353357 0.14190771
v -0.05962460 0.00706714 0.18431053
v -0.08435958 0.04946996 0.15604198
v 0.09585244 0.06360424 0.13837414
v 0.08171816 0.01060071 0.16664269
v 0.09231887 0.01413428 0.15604198
v -0.00308749 0.04946996 0.19491124
v 0.05344961 0.01766785 0.18431053
v 0.07111745 0.06360424 0.16310912
v 0.03931533 0.05300353 0.18431053
v 0.04991604 0.06007067 0.17724339
f 9 2 6
f 12 3 7
f 13 7 3
f 13 10 4
f 13 3 10
f 16 11 4
f 16 6 11
f 16 9 6
f 17 10 3
f 17 9 16
f 18 12 7
f 20 11 5
f 20 13 4
f 20 4 11
f 22 11 6
f 23 22 14
f 23 11 22
f 25 15 24
f 26 3 12
f 27 16 4
f 27 4 10
f 27 17 16
f 27 10 17
f 28 18 7
f 28 1 18
f 30 18 1
f 32 20 5
f 33 14 21
f 35 11 23
f 36 7 13
f 37 22 24
f 37 8 29
f 38 25 2
f 38 2 9
f 38 9 17
f 39 15 25
f 39 26 15
f 39 17 3
f 39 38 17
f 39 25 38
f 40 25 24
f 40 2 25
f 40 6 2
f 40 24 22
f 40 22 6
f 43 21 34
f 44 29 8
f 44 8 41
f 46 31 12
f 46 12 18
f 46 18 31
f 47 31 30
f 47 19 31
f 47 34 19
f 47 30 1
f 47 1 34
f 48 31 18
f 48 18 30
f 48 30 31
f 49 32 5
f 50 13 20
f 50 20 32
f 50 49 13
f 50 32 49
f 51 33 21
f 51 7 33
f 51 21 43
f 52 34 21
f 52 21 14
f 52 14 22
f 52 22 34
f 53 29 19
f 53 19 34
f 53 34 22
f 53 37 29
f 53 22 37
f 54 5 11
f 54 11 35
f 54 49 5
f 54 35 49
f 55 23 14
f 55 14 33
f 55 33 7
f 55 7 36
f 56 35 23
f 56 55 36
f 56 23 55
f 56 36 13
f 56 49 35
f 56 13 49
f 57 39 3
f 57 3 26
f 57 26 39
f 58 41 8
f 58 26 41
f 58 42 26
f 59 15 26
f 59 26 42
f 59 42 58
f 59 58 8
f 59 24 15
f 59 37 24
f 59 8 37
f 60 28 7
f 60 51 43
f 60 7 51
f 60 1 28
f 60 43 34
f 60 34 1
f 61 44 12
f 61 29 44
f 61 45 19
f 61 19 29
f 62 44 41
f 62 41 26
f 62 26 12
f 62 12 44
f 63 45 31
f 63 31 19
f 63 19 45
f 64 12 31
f 64 31 45
f 64 61 12
f 64 45 61

