# https://github.com/mikedh/trimesh
mtllib material.mtl
usemtl Material086
v -0.05255746 -0.14840989 -0.20084848
v -0.05017255 -0.16286072 -0.20077651
v -0.05343799 -0.16307852 -0.27500745
v -0.08082601 -0.15194346 -0.27505343
v -0.10099297 -0.16336280 -0.20064224
v -0.05962460 -0.15194346 -0.27505343
v -0.04902389 -0.15901060 -0.25031844
v -0.09931449 -0.16115752 -0.20030761
v -0.05177864 -0.16412693 -0.25022062
v -0.08699485 -0.16345488 -0.27491731
v -0.08789315 -0.15901060 -0.27505343
v -0.06315816 -0.14487633 -0.22558346
v -0.04902389 -0.15547703 -0.20084848
v -0.05255746 -0.15547703 -0.26798629
v -0.09972775 -0.16436670 -0.21099162
v -0.08957667 -0.16438823 -0.26416712
v -0.09849385 -0.15194346 -0.20438205
v -0.06315816 -0.14840989 -0.25738558
v -0.05609103 -0.14487633 -0.20438205
v -0.04902389 -0.15547703 -0.21498275
v -0.05255746 -0.14840989 -0.20791562
v -0.10202742 -0.15901060 -0.21144919
v -0.09142672 -0.15901060 -0.26445272
v -0.08435958 -0.14487633 -0.20791562
v -0.08435958 -0.14487633 -0.20084848
v -0.09849385 -0.15194346 -0.20084848
v -0.07729244 -0.14487633 -0.22558346
v -0.05962460 -0.14487633 -0.21851632
v -0.05609103 -0.15194346 -0.26091915
v -0.08789315 -0.15547703 -0.26798629
v -0.09142672 -0.14840989 -0.21144919
v -0.05609103 -0.14487633 -0.20084848
v -0.07375887 -0.14840989 -0.25738558
v -0.08082601 -0.14487633 -0.21851632
v -0.09496028 -0.15194346 -0.22204989
v -0.08789315 -0.14840989 -0.22558346
v -0.07729244 -0.14840989 -0.25385201
v -0.08789315 -0.15194346 -0.25031844
f 8 5 2
f 8 2 1
f 9 7 2
f 9 3 7
f 11 6 3
f 11 4 6
f 11 3 10
f 13 1 2
f 13 2 7
f 14 7 3
f 14 3 6
f 15 9 2
f 15 2 5
f 16 10 3
f 16 3 9
f 16 9 15
f 18 6 4
f 20 13 7
f 20 1 13
f 21 7 14
f 21 20 7
f 21 1 20
f 21 19 1
f 21 14 19
f 22 16 15
f 22 15 5
f 23 11 10
f 23 10 16
f 23 16 22
f 24 19 12
f 25 19 24
f 26 5 8
f 26 8 25
f 26 22 5
f 26 17 22
f 27 12 18
f 27 24 12
f 28 18 12
f 28 12 19
f 28 6 18
f 29 19 14
f 29 14 6
f 29 28 19
f 29 6 28
f 30 4 11
f 30 11 23
f 31 25 24
f 31 26 25
f 31 17 26
f 32 25 8
f 32 8 1
f 32 1 19
f 32 19 25
f 33 27 18
f 33 18 4
f 34 24 27
f 35 30 23
f 35 17 31
f 35 23 22
f 35 22 17
f 36 31 24
f 36 35 31
f 36 34 4
f 36 24 34
f 37 33 4
f 37 27 33
f 37 34 27
f 37 4 34
f 38 4 30
f 38 30 35
f 38 36 4
f 38 35 36

