# https://github.com/mikedh/trimesh
mtllib material.mtl
usemtl Material088
v 0.12153903 -0.12020689 0.10968534
v 0.12765456 -0.20848057 0.07476990
v 0.12765456 -0.12014134 0.00409852
v -0.13029597 -0.12720848 0.00409852
v -0.10202742 -0.24381625 0.11010559
v 0.10766887 -0.24589092 0.00447161
v -0.12676240 -0.12014134 0.09243774
v 0.13472170 -0.16254417 0.02529993
v 0.10291957 -0.24734982 0.11010559
v -0.11262813 -0.24734982 0.00409852
v 0.12765456 -0.12014134 0.09243774
v -0.12391344 -0.12127241 0.00485037
v -0.12057112 -0.12021406 0.10974406
v 0.13472170 -0.19081272 0.00409852
v 0.12058742 -0.19787986 0.11010559
v 0.12058742 -0.23674912 0.05003491
v -0.13029597 -0.20494700 0.05710205
v -0.10202742 -0.24734982 0.10303845
v 0.11352028 -0.24734982 0.01116566
v 0.13118813 -0.12367491 0.03590064
v 0.13118813 -0.18727915 0.06770276
v -0.13029597 -0.12367491 0.01116566
v 0.13472170 -0.15901060 0.00409852
v 0.11705385 -0.24028269 0.00409852
v 0.10998671 -0.23321555 0.11010559
v 0.12412099 -0.16254417 0.11010559
v 0.13118813 -0.20848057 0.03236707
v -0.13382954 -0.19081272 0.00409852
v -0.12322883 -0.18021201 0.11010559
v -0.09601398 -0.24613983 0.10986665
v -0.11969527 -0.24028269 0.06416919
v 0.11352028 -0.24734982 0.06770276
v 0.13118813 -0.14134276 0.06770276
v 0.13472170 -0.18727915 0.02529993
v 0.13472170 -0.15547703 0.01469922
v 0.13118813 -0.13074205 0.00409852
v 0.12058742 -0.23674912 0.03236707
v 0.11705385 -0.21908127 0.10303845
v 0.12765456 -0.12367491 0.09597131
v 0.12412099 -0.18727915 0.10303845
v 0.12412099 -0.22614841 0.06063562
v 0.13118813 -0.20141343 0.05003491
v 0.12765456 -0.21908127 0.00409852
v -0.13382954 -0.15901060 0.00409852
v -0.12676240 -0.13074205 0.09597131
v -0.11616170 -0.24734982 0.04296778
v -0.13029597 -0.21201413 0.00409852
v -0.12322883 -0.22614841 0.07476990
v 0.13118813 -0.16607774 0.07123633
v 0.13472170 -0.19081272 0.02176636
v 0.13118813 -0.12367491 0.03236707
v 0.13472170 -0.15547703 0.01116566
v 0.11705385 -0.21201413 0.11010559
v 0.12765456 -0.19081272 0.08537060
v 0.12765456 -0.21908127 0.04296778
v 0.12058742 -0.23321555 0.06770276
v 0.13118813 -0.19081272 0.06416919
v 0.13118813 -0.20494700 0.04296778
v 0.13118813 -0.20848057 0.00409852
v -0.13029597 -0.12720848 0.05710205
v -0.13382954 -0.16961131 0.02529993
v -0.13029597 -0.18727915 0.07123633
v -0.11262813 -0.24734982 0.07123633
v -0.12676240 -0.22261484 0.05710205
f 10 4 3
f 11 7 1
f 11 3 7
f 12 7 3
f 12 3 4
f 13 1 7
f 14 10 3
f 15 5 9
f 18 10 9
f 19 10 6
f 19 9 10
f 20 3 11
f 22 12 4
f 22 7 12
f 23 14 3
f 23 8 14
f 24 6 10
f 24 10 14
f 24 19 6
f 25 15 9
f 26 1 13
f 26 5 15
f 28 4 10
f 29 26 13
f 29 5 26
f 30 18 9
f 30 9 5
f 30 5 18
f 31 18 5
f 32 19 16
f 32 9 19
f 33 20 11
f 34 14 8
f 35 8 23
f 35 33 8
f 35 20 33
f 36 23 3
f 37 16 19
f 37 19 24
f 39 11 1
f 39 1 26
f 39 33 11
f 40 26 15
f 40 15 2
f 43 24 14
f 43 37 24
f 43 16 37
f 44 22 4
f 44 4 28
f 45 29 13
f 45 13 7
f 46 10 18
f 47 17 28
f 47 46 31
f 47 28 10
f 47 10 46
f 48 31 5
f 48 5 29
f 49 8 33
f 49 34 8
f 49 21 34
f 49 33 39
f 49 39 26
f 49 26 21
f 50 27 14
f 50 14 34
f 51 36 3
f 51 3 20
f 51 20 35
f 52 35 23
f 52 23 36
f 52 51 35
f 52 36 51
f 53 38 2
f 53 2 15
f 53 15 25
f 53 25 38
f 54 40 2
f 54 2 21
f 54 21 26
f 54 26 40
f 55 27 2
f 55 2 41
f 55 41 16
f 55 43 27
f 55 16 43
f 56 32 16
f 56 16 41
f 56 25 9
f 56 9 32
f 56 38 25
f 56 41 2
f 56 2 38
f 57 21 2
f 57 2 42
f 57 42 50
f 57 50 34
f 57 34 21
f 58 42 2
f 58 2 27
f 58 50 42
f 58 27 50
f 59 43 14
f 59 14 27
f 59 27 43
f 60 7 22
f 60 22 44
f 60 45 7
f 61 44 28
f 61 28 17
f 61 60 44
f 62 29 45
f 62 48 29
f 62 17 48
f 62 61 17
f 62 45 60
f 62 60 61
f 63 46 18
f 63 18 31
f 63 31 46
f 64 47 31
f 64 17 47
f 64 48 17
f 64 31 48

