# https://github.com/mikedh/trimesh
mtllib material.mtl
usemtl Material013
v 0.08878530 -0.22614841 -0.33159053
v 0.12765456 -0.27208481 -0.38812763
v 0.11705385 -0.22261484 -0.40226191
v 0.04284890 -0.22261484 -0.40932904
v 0.06405032 -0.29328622 -0.37752692
v 0.09231887 -0.29328622 -0.40932904
v 0.08733067 -0.22075599 -0.33254898
v 0.11352028 -0.22261484 -0.36692622
v 0.10291957 -0.28621908 -0.37045978
v 0.12058742 -0.27208481 -0.40932904
v 0.03578177 -0.25795053 -0.40579547
v 0.10645314 -0.22261484 -0.40932904
v 0.12412099 -0.26148410 -0.37399335
v 0.09231887 -0.22261484 -0.33512410
v 0.10069880 -0.22118921 -0.35112398
v 0.06405032 -0.23674912 -0.33159053
v 0.10645314 -0.29328622 -0.38812763
v 0.12765456 -0.24734982 -0.40226191
v 0.06405032 -0.29328622 -0.40579547
v 0.06051675 -0.28621908 -0.40932904
v 0.12058742 -0.27915194 -0.37752692
v 0.12412099 -0.25441696 -0.37399335
v 0.09231887 -0.22614841 -0.33512410
v 0.11705385 -0.22261484 -0.37752692
v 0.11352028 -0.22261484 -0.40579547
v 0.07465102 -0.23674912 -0.33159053
v 0.07465102 -0.28621908 -0.36692622
v 0.03578177 -0.25795053 -0.37045978
v 0.04638247 -0.22261484 -0.33159053
v 0.11352028 -0.28621908 -0.40579547
v 0.09585244 -0.29681979 -0.38106049
v 0.12765456 -0.26855124 -0.40226191
v 0.06051675 -0.29328622 -0.38459406
v 0.03931533 -0.25441696 -0.40932904
v 0.06051675 -0.28975265 -0.40579547
v 0.07465102 -0.29328622 -0.40932904
v 0.12412099 -0.27208481 -0.37752692
v 0.11705385 -0.27208481 -0.37045978
v 0.12765456 -0.25088339 -0.38106049
v 0.12058742 -0.22614841 -0.38812763
v 0.12412099 -0.24381625 -0.40579547
v 0.08525173 -0.22968198 -0.33159053
v 0.06405032 -0.28268551 -0.36692622
v 0.08878530 -0.28621908 -0.36692622
v 0.03224820 -0.22261484 -0.39519477
v 0.09585244 -0.29681979 -0.39872834
v 0.11352028 -0.28268551 -0.40932904
v 0.07465102 -0.29328622 -0.37399335
v 0.11352028 -0.28621908 -0.37752692
v 0.12058742 -0.27915194 -0.40579547
v 0.03224820 -0.25795053 -0.39519477
v 0.06051675 -0.28975265 -0.37752692
v 0.07111745 -0.29681979 -0.38459406
v 0.03578177 -0.22261484 -0.40579547
v 0.06051675 -0.29328622 -0.39872834
v 0.06405032 -0.28975265 -0.40932904
v 0.12412099 -0.27561838 -0.38106049
v 0.12058742 -0.26148410 -0.37045978
v 0.12765456 -0.26501767 -0.38106049
v 0.12412099 -0.23674912 -0.40226191
v 0.12765456 -0.24381625 -0.38812763
v 0.12058742 -0.25088339 -0.40932904
v 0.09938601 -0.28268551 -0.36692622
v 0.11352028 -0.28268551 -0.37399335
f 10 6 4
f 12 10 4
f 14 7 1
f 15 14 8
f 15 7 14
f 15 12 4
f 15 4 7
f 20 4 6
f 22 14 13
f 22 8 14
f 23 14 1
f 23 1 13
f 23 13 14
f 24 15 8
f 24 3 15
f 25 15 3
f 25 12 15
f 26 1 16
f 27 26 16
f 29 16 1
f 29 1 7
f 32 18 2
f 34 20 11
f 34 4 20
f 35 20 19
f 35 11 20
f 36 20 6
f 38 21 37
f 38 37 13
f 39 22 13
f 39 2 18
f 39 8 22
f 40 3 24
f 41 12 25
f 41 32 10
f 41 18 32
f 42 1 26
f 43 27 16
f 43 5 27
f 43 16 29
f 43 29 28
f 44 26 27
f 44 31 9
f 45 28 29
f 45 29 7
f 46 30 17
f 46 6 30
f 46 17 31
f 46 36 6
f 46 19 36
f 47 30 6
f 47 6 10
f 48 27 5
f 48 44 27
f 48 31 44
f 49 9 31
f 49 31 17
f 49 30 2
f 49 17 30
f 50 10 32
f 50 47 10
f 50 30 47
f 50 32 2
f 50 2 30
f 51 33 28
f 51 45 11
f 51 28 45
f 52 33 5
f 52 28 33
f 52 43 28
f 52 5 43
f 53 5 33
f 53 48 5
f 53 31 48
f 53 46 31
f 53 19 46
f 54 34 11
f 54 4 34
f 54 11 45
f 54 45 7
f 54 7 4
f 55 35 19
f 55 33 51
f 55 51 11
f 55 11 35
f 55 53 33
f 55 19 53
f 56 36 19
f 56 19 20
f 56 20 36
f 57 37 21
f 57 2 37
f 57 49 2
f 57 21 49
f 58 38 13
f 58 13 1
f 58 1 38
f 59 37 2
f 59 2 39
f 59 39 13
f 59 13 37
f 60 3 40
f 60 18 41
f 60 41 25
f 60 25 3
f 61 39 18
f 61 60 40
f 61 18 60
f 61 40 24
f 61 24 8
f 61 8 39
f 62 41 10
f 62 10 12
f 62 12 41
f 63 42 26
f 63 9 42
f 63 44 9
f 63 26 44
f 64 38 1
f 64 1 42
f 64 42 9
f 64 9 49
f 64 49 21
f 64 21 38

