# https://github.com/mikedh/trimesh
mtllib material.mtl
usemtl Material076
v 0.10998671 0.38869258 -0.21498275
v 0.11352028 0.38869258 -0.22911703
v 0.09231887 0.40636042 -0.22911703
v 0.07465102 0.39222615 -0.29272127
v 0.05264431 0.38354160 -0.23822354
v 0.10998671 0.38869258 -0.29272127
v 0.10291957 0.39929329 -0.22204989
v 0.10817343 0.38386473 -0.21535281
v 0.04991604 0.38869258 -0.21498275
v 0.08878530 0.40282685 -0.25738558
v 0.07435445 0.38540471 -0.29277399
v 0.10998671 0.39222615 -0.22204989
v 0.10291957 0.39929329 -0.25031844
v 0.11087055 0.38387739 -0.25729290
v 0.05344961 0.39575972 -0.23618417
v 0.07111745 0.40282685 -0.21498275
v 0.05184565 0.38388516 -0.21508885
v 0.10291957 0.39222615 -0.29272127
v 0.04991604 0.38869258 -0.23971774
v 0.09938601 0.40282685 -0.22558346
v 0.11352028 0.38869258 -0.25738558
v 0.11040026 0.38393145 -0.22958432
v 0.10930974 0.38445739 -0.29272768
v 0.06758389 0.40636042 -0.23618417
v 0.09938601 0.39929329 -0.21498275
v 0.09585244 0.39575972 -0.28212056
v 0.09585244 0.40282685 -0.25385201
v 0.09938601 0.40282685 -0.23618417
v 0.10998671 0.39222615 -0.26091915
v 0.07818459 0.40282685 -0.25738558
v 0.05698318 0.39929329 -0.23618417
v 0.06051675 0.40282685 -0.22558346
v 0.07465102 0.40636042 -0.22204989
v 0.08525173 0.40636042 -0.24325131
v 0.09231887 0.40636042 -0.23265060
v 0.08171816 0.39575972 -0.28212056
v 0.05698318 0.39575972 -0.21498275
v 0.06051675 0.40282685 -0.23265060
v 0.05344961 0.39575972 -0.22911703
v 0.08525173 0.40636042 -0.22204989
v 0.06758389 0.40636042 -0.22558346
v 0.07818459 0.40636042 -0.24325131
v 0.08878530 0.40636042 -0.23971774
v 0.05698318 0.39929329 -0.22558346
v 0.08878530 0.40282685 -0.21498275
f 8 2 1
f 12 1 2
f 14 8 5
f 16 9 1
f 17 8 1
f 17 1 9
f 17 5 8
f 18 11 4
f 18 6 11
f 19 11 5
f 19 4 11
f 19 15 4
f 19 9 15
f 19 17 9
f 19 5 17
f 20 7 12
f 21 2 14
f 21 12 2
f 22 14 2
f 22 2 8
f 22 8 14
f 23 11 6
f 23 21 14
f 23 6 21
f 23 14 5
f 23 5 11
f 25 16 1
f 25 7 20
f 25 20 3
f 25 12 7
f 25 1 12
f 26 18 4
f 26 10 18
f 27 13 6
f 27 6 18
f 27 18 10
f 28 3 20
f 28 13 27
f 28 20 12
f 29 21 6
f 29 6 13
f 29 13 28
f 29 28 12
f 29 12 21
f 30 4 24
f 30 10 26
f 31 4 15
f 32 31 15
f 33 3 24
f 34 24 3
f 34 10 30
f 34 27 10
f 35 28 27
f 35 3 28
f 35 34 3
f 36 30 26
f 36 26 4
f 36 4 30
f 37 32 9
f 37 9 16
f 37 16 32
f 38 32 24
f 38 31 32
f 38 24 4
f 38 4 31
f 39 32 15
f 39 15 9
f 40 25 3
f 40 3 33
f 40 33 16
f 41 32 16
f 41 16 33
f 41 33 24
f 41 24 32
f 42 34 30
f 42 30 24
f 42 24 34
f 43 35 27
f 43 27 34
f 43 34 35
f 44 39 9
f 44 9 32
f 44 32 39
f 45 40 16
f 45 16 25
f 45 25 40

