# https://github.com/mikedh/trimesh
mtllib material.mtl
usemtl Material081
v 0.00397965 0.24028269 0.18077696
v 0.08525173 0.22968198 0.12070629
v 0.03224820 0.32155477 0.14897484
v -0.06107487 0.31993506 0.11207905
v -0.08525990 0.22932030 0.11242032
v 0.05833323 0.31978295 0.11192925
v -0.02075534 0.32155477 0.15604198
v 0.06051675 0.24028269 0.15250841
v -0.01015463 0.22968198 0.18077696
v 0.06051675 0.32155477 0.11717272
v -0.08486463 0.23279323 0.11223696
v 0.08466420 0.22959893 0.11334869
v 0.00751321 0.31095406 0.16310912
v 0.03578177 0.28621908 0.15957555
v -0.01015463 0.28621908 0.17017626
v 0.04638247 0.22968198 0.16310912
v 0.06758389 0.28975265 0.13130700
v -0.06315816 0.32155477 0.11717272
v -0.07506045 0.29585541 0.11203866
v 0.07880176 0.26817222 0.11204569
v 0.00397965 0.32155477 0.15957555
v 0.01458035 0.29328622 0.16664269
v -0.01015463 0.25441696 0.17724339
v 0.00397965 0.25795053 0.17724339
v 0.00751321 0.22968198 0.18077696
v 0.04991604 0.24381625 0.15957555
v 0.07465102 0.22968198 0.13837414
v 0.05698318 0.31095406 0.13130700
v 0.05344961 0.27915194 0.14897484
v -0.07022530 0.31448763 0.11363916
v -0.07022530 0.23321555 0.14544128
v 0.07465102 0.30035336 0.11363916
v 0.07581474 0.28561929 0.11197882
v 0.01811392 0.32155477 0.15604198
v -0.00662106 0.30035336 0.16664269
v 0.02164749 0.24734982 0.17370983
v -0.00308749 0.24028269 0.18077696
v -0.04549032 0.26501767 0.15957555
v 0.01104678 0.29681979 0.16664269
v 0.05698318 0.23321555 0.15604198
v 0.06758389 0.25441696 0.14190771
v 0.08171816 0.26855124 0.11717272
v 0.04991604 0.32155477 0.13130700
v 0.04638247 0.29681979 0.14897484
v 0.04991604 0.26148410 0.15604198
v -0.08082601 0.28268551 0.11717272
v -0.05962460 0.22968198 0.15604198
v 0.07465102 0.30035336 0.11717272
v 0.08525173 0.24734982 0.11363916
v 0.01104678 0.31802120 0.15957555
v 0.02871463 0.31095406 0.15604198
v -0.00662106 0.32155477 0.15957555
v -0.01368820 0.29681979 0.16664269
v 0.02164749 0.28268551 0.16664269
v 0.00751321 0.23321555 0.18077696
v 0.03578177 0.25088339 0.16664269
v -0.01015463 0.23321555 0.18077696
v -0.00308749 0.25795053 0.17724339
v -0.05255746 0.29681979 0.14544128
v 0.00397965 0.30035336 0.16664269
v 0.04638247 0.23321555 0.16310912
v 0.05698318 0.22968198 0.15604198
v 0.07111745 0.23674912 0.14190771
v 0.05698318 0.26855124 0.14897484
f 10 6 4
f 10 7 3
f 12 5 11
f 16 5 12
f 18 10 4
f 18 7 10
f 19 4 6
f 20 12 11
f 21 3 7
f 25 1 9
f 25 9 5
f 25 5 16
f 27 12 2
f 30 18 4
f 30 4 19
f 32 6 10
f 33 19 6
f 33 6 32
f 33 20 11
f 33 11 19
f 34 3 21
f 35 13 21
f 37 9 1
f 37 1 24
f 39 24 22
f 39 34 13
f 40 8 26
f 40 27 8
f 42 27 2
f 42 17 41
f 43 10 3
f 43 3 28
f 44 28 3
f 44 17 28
f 44 29 17
f 44 14 29
f 45 26 8
f 45 29 14
f 46 19 11
f 46 11 5
f 46 5 31
f 46 30 19
f 47 31 5
f 47 5 9
f 48 28 17
f 48 42 32
f 48 17 42
f 48 32 10
f 48 43 28
f 48 10 43
f 49 33 32
f 49 20 33
f 49 32 42
f 49 12 20
f 49 42 2
f 49 2 12
f 50 34 21
f 50 21 13
f 50 13 34
f 51 3 34
f 51 44 3
f 51 14 44
f 51 39 22
f 51 34 39
f 52 35 21
f 52 21 7
f 53 15 35
f 53 7 38
f 53 38 23
f 53 23 15
f 53 52 7
f 53 35 52
f 54 22 24
f 54 24 1
f 54 1 36
f 54 51 22
f 54 14 51
f 55 36 1
f 55 1 25
f 55 25 16
f 56 54 36
f 56 14 54
f 56 45 14
f 56 26 45
f 57 37 23
f 57 9 37
f 57 23 38
f 57 47 9
f 57 38 47
f 58 37 24
f 58 24 15
f 58 15 23
f 58 23 37
f 59 38 7
f 59 7 18
f 59 18 30
f 59 30 46
f 59 46 31
f 59 47 38
f 59 31 47
f 60 24 39
f 60 35 15
f 60 15 24
f 60 39 13
f 60 13 35
f 61 40 26
f 61 16 40
f 61 26 56
f 61 56 36
f 61 55 16
f 61 36 55
f 62 40 16
f 62 27 40
f 62 16 12
f 62 12 27
f 63 41 8
f 63 8 27
f 63 42 41
f 63 27 42
f 64 8 41
f 64 45 8
f 64 29 45
f 64 41 17
f 64 17 29

