# https://github.com/mikedh/trimesh
mtllib material.mtl
usemtl Material049
v 0.10695346 -0.19927897 0.31128351
v 0.10645314 -0.24734982 0.31151901
v 0.10291957 -0.24381625 0.20904551
v -0.10189722 -0.19079801 0.20899299
v -0.12322883 -0.21554770 0.31151901
v 0.10177531 -0.19110039 0.20848813
v 0.11060817 -0.24787619 0.23917543
v 0.06758389 -0.19081272 0.31151901
v -0.13286246 -0.24849673 0.23185763
v -0.09933954 -0.24689523 0.20844892
v 0.11113611 -0.20650111 0.26310992
v -0.10909456 -0.19434629 0.30798544
v 0.10291957 -0.19081272 0.21611265
v -0.13029597 -0.20848057 0.25851548
v -0.12322883 -0.24734982 0.31151901
v 0.09730048 -0.24692320 0.20881688
v -0.13382954 -0.24381625 0.23024693
v 0.10998671 -0.24734982 0.26204905
v -0.07022530 -0.19081272 0.31151901
v 0.08171816 -0.19081272 0.28678403
v 0.10998671 -0.22968198 0.24084764
v -0.11969527 -0.19434629 0.27618332
v -0.13736311 -0.24734982 0.25851548
v -0.13029597 -0.21201413 0.24791477
v -0.11616170 -0.19787986 0.31151901
v 0.07818459 -0.19081272 0.29385117
v 0.08878530 -0.19081272 0.26558262
v 0.10998671 -0.24028269 0.23731407
v -0.12676240 -0.20141343 0.26558262
v -0.09142672 -0.19081272 0.25851548
v -0.12676240 -0.24734982 0.30091831
v -0.13029597 -0.20848057 0.27264975
v -0.13736311 -0.24028269 0.23731407
v -0.11616170 -0.19434629 0.30091831
v -0.12322883 -0.19787986 0.26911619
v -0.12676240 -0.20494700 0.25498191
v -0.12676240 -0.23674912 0.30091831
v -0.13556315 -0.24812070 0.23898408
v -0.13736311 -0.24381625 0.25851548
v -0.11969527 -0.20141343 0.31151901
v -0.12322883 -0.19787986 0.28678403
v -0.08435958 -0.19081272 0.27971689
v -0.10202742 -0.19081272 0.21964622
v -0.13029597 -0.21201413 0.27618332
v -0.13736311 -0.24028269 0.25498191
v -0.12676240 -0.20848057 0.29031760
v -0.11969527 -0.19434629 0.29031760
v -0.12676240 -0.20141343 0.27971689
v -0.07729244 -0.19081272 0.29738474
v -0.12322883 -0.20141343 0.29738474
f 7 3 6
f 8 5 2
f 8 2 1
f 9 7 2
f 10 4 6
f 11 1 2
f 13 6 4
f 13 1 11
f 15 9 2
f 15 2 5
f 16 10 6
f 16 6 3
f 16 3 7
f 16 7 9
f 16 9 10
f 17 10 9
f 17 4 10
f 18 11 2
f 18 2 7
f 18 7 11
f 19 8 4
f 19 5 8
f 21 13 11
f 21 11 7
f 21 6 13
f 25 19 12
f 25 5 19
f 26 8 1
f 26 1 20
f 26 20 4
f 26 4 8
f 27 20 1
f 27 1 13
f 27 13 4
f 27 4 20
f 28 21 7
f 28 7 6
f 28 6 21
f 29 24 14
f 31 15 5
f 31 9 15
f 32 29 14
f 33 14 24
f 33 32 14
f 33 24 4
f 33 4 17
f 34 25 12
f 34 12 19
f 35 22 4
f 35 4 29
f 36 29 4
f 36 4 24
f 36 24 29
f 37 31 5
f 37 23 31
f 38 31 23
f 38 9 31
f 38 23 33
f 38 33 17
f 38 17 9
f 39 37 5
f 39 23 37
f 39 33 23
f 40 5 25
f 41 35 29
f 41 22 35
f 42 4 30
f 43 30 4
f 43 4 22
f 44 39 5
f 44 32 39
f 45 39 32
f 45 32 33
f 45 33 39
f 46 5 40
f 46 44 5
f 46 32 44
f 47 22 41
f 47 43 22
f 47 30 43
f 47 42 30
f 47 34 42
f 47 41 40
f 47 40 25
f 47 25 34
f 48 41 29
f 48 29 32
f 49 42 34
f 49 34 19
f 49 19 4
f 49 4 42
f 50 40 41
f 50 41 48
f 50 46 40
f 50 48 32
f 50 32 46

