# https://github.com/mikedh/trimesh
mtllib material.mtl
usemtl Material028
v -0.03488961 0.34628975 -0.10544212
v -0.02428891 0.28268551 -0.10544212
v -0.04195675 0.35689046 -0.17964706
v -0.11054088 0.35599022 -0.18012493
v -0.12676240 0.28621908 -0.10544212
v -0.10556099 0.28268551 -0.17964706
v -0.08082601 0.36042403 -0.10544212
v -0.02428891 0.33568905 -0.11604282
v -0.02634471 0.33316009 -0.10521424
v -0.03842318 0.28975265 -0.17964706
v -0.11969527 0.31448763 -0.17257993
v -0.12262799 0.28278490 -0.10536540
v -0.05255746 0.35689046 -0.10544212
v -0.07022530 0.36395760 -0.14077781
v -0.11616170 0.33922262 -0.10544212
v -0.04195675 0.35689046 -0.17611350
v -0.03842318 0.28268551 -0.17257993
v -0.02428891 0.28621908 -0.13724424
v -0.04121413 0.34845592 -0.18030414
v -0.11969527 0.28268551 -0.14784494
v -0.11616170 0.30742050 -0.17964706
v -0.04549032 0.35335689 -0.10544212
v -0.06669173 0.36042403 -0.10544212
v -0.08082601 0.36395760 -0.13724424
v -0.10202742 0.35335689 -0.10544212
v -0.11987564 0.32058703 -0.10530977
v -0.12322883 0.32155477 -0.15137851
v -0.07022530 0.36395760 -0.13724424
v -0.04498527 0.28376187 -0.17876643
v -0.03135604 0.28621908 -0.15844565
v -0.02428891 0.28268551 -0.13371067
v -0.11287472 0.34887322 -0.18009329
v -0.03488961 0.33568905 -0.17257993
v -0.12322883 0.29328622 -0.14077781
v -0.12322883 0.28268551 -0.13017710
v -0.11969527 0.30742050 -0.16904636
v -0.11262813 0.28268551 -0.16904636
v -0.07729244 0.36395760 -0.13371067
v -0.11262813 0.35689046 -0.16904636
v -0.12676240 0.30388693 -0.10544212
v -0.03135604 0.28268551 -0.15491208
v -0.11262813 0.29681979 -0.17964706
v -0.11969527 0.33568905 -0.17257993
v -0.03488961 0.30742050 -0.17257993
v -0.02428891 0.30742050 -0.13724424
v -0.12322883 0.31095406 -0.15137851
v -0.12676240 0.28621908 -0.10897569
v -0.11969527 0.28621908 -0.15137851
v -0.07375887 0.36395760 -0.13371067
v -0.09496028 0.35689046 -0.10544212
v -0.11969527 0.33215548 -0.10544212
v -0.11616170 0.30035336 -0.17611350
v -0.11616170 0.34982332 -0.16904636
v -0.02428891 0.31448763 -0.13371067
v -0.12322883 0.30388693 -0.14784494
v -0.12676240 0.29681979 -0.11250926
v -0.08789315 0.36042403 -0.11957639
v -0.02428891 0.32862191 -0.12310996
v -0.12676240 0.30388693 -0.11250926
v -0.09496028 0.36042403 -0.13724424
f 9 8 1
f 9 2 8
f 12 2 9
f 14 3 4
f 16 8 3
f 16 1 8
f 16 3 14
f 17 2 6
f 18 8 2
f 19 10 6
f 19 4 3
f 20 6 2
f 22 13 9
f 22 9 1
f 22 16 13
f 22 1 16
f 23 7 9
f 23 9 13
f 24 14 4
f 26 5 12
f 26 12 9
f 26 25 15
f 28 16 14
f 28 13 16
f 28 23 13
f 28 14 24
f 29 17 6
f 29 6 10
f 29 10 17
f 30 17 10
f 31 18 2
f 31 2 17
f 31 30 18
f 32 19 6
f 32 4 19
f 33 10 19
f 33 19 3
f 33 3 8
f 35 12 5
f 35 20 2
f 35 2 12
f 36 11 21
f 37 6 20
f 38 24 7
f 38 7 23
f 38 28 24
f 39 15 25
f 39 24 4
f 40 5 26
f 41 31 17
f 41 17 30
f 41 30 31
f 42 32 6
f 42 21 32
f 42 6 37
f 43 32 21
f 43 21 11
f 43 11 27
f 43 4 32
f 44 30 10
f 44 10 33
f 44 33 18
f 44 18 30
f 45 8 18
f 45 18 33
f 46 27 11
f 46 11 36
f 47 35 5
f 47 34 35
f 47 5 40
f 48 34 36
f 48 35 34
f 48 20 35
f 48 37 20
f 49 38 23
f 49 23 28
f 49 28 38
f 50 39 25
f 50 9 7
f 50 26 9
f 50 25 26
f 51 40 26
f 51 26 15
f 51 27 40
f 51 15 39
f 52 42 37
f 52 21 42
f 52 37 48
f 52 48 36
f 52 36 21
f 53 39 4
f 53 4 43
f 53 51 39
f 53 43 27
f 53 27 51
f 54 45 33
f 54 8 45
f 55 46 36
f 55 36 34
f 55 47 46
f 55 34 47
f 56 27 46
f 56 46 47
f 56 47 40
f 57 50 7
f 57 7 24
f 58 54 33
f 58 33 8
f 58 8 54
f 59 56 40
f 59 40 27
f 59 27 56
f 60 57 24
f 60 24 39
f 60 39 50
f 60 50 57

