# https://github.com/mikedh/trimesh
mtllib material.mtl
usemtl Material100
v 0.03578177 0.37102473 0.09950488
v 0.03266767 0.36607219 0.09904788
v 0.03578177 0.37102473 0.03943421
v -0.01722177 0.40282685 0.03943421
v -0.03135604 0.37455830 0.09950488
v 0.01458035 0.40636042 0.04650134
v -0.03070594 0.36706118 0.09937382
v 0.02518106 0.39575972 0.05356848
v 0.01458035 0.40636042 0.03943421
v 0.01104678 0.38869258 0.09950488
v -0.02991183 0.36664573 0.03949837
v 0.02518106 0.38869258 0.08890417
v 0.03578177 0.37455830 0.05710205
v -0.00861062 0.40358278 0.03891247
v -0.01015463 0.40636042 0.04650134
v 0.02518106 0.39575972 0.03943421
v 0.03289355 0.36648620 0.03971774
v -0.03135604 0.37455830 0.04650134
v 0.02164749 0.39929329 0.05710205
v 0.03224820 0.38162544 0.08183703
v 0.02164749 0.38515901 0.09950488
v 0.00751321 0.39929329 0.07830347
v -0.02782247 0.38515901 0.03943421
v -0.02428891 0.38869258 0.08183703
v 0.03224820 0.38162544 0.03943421
v 0.02164749 0.39222615 0.08537060
v 0.03224820 0.37809187 0.09597131
v 0.02871463 0.38869258 0.07123633
v 0.03578177 0.37455830 0.07830347
v 0.00751321 0.40636042 0.05356848
v -0.02075534 0.39929329 0.03943421
v -0.03135604 0.37809187 0.06416919
v -0.01722177 0.40282685 0.04650134
v -0.00662106 0.39575972 0.08537060
v 0.01458035 0.40282685 0.06063562
v 0.01811392 0.39222615 0.08890417
v 0.02518106 0.38515901 0.09597131
v 0.02518106 0.39222615 0.07476990
v -0.03135604 0.37809187 0.08890417
v -0.01368820 0.40282685 0.05710205
v -0.02428891 0.39222615 0.06416919
v -0.00308749 0.40282685 0.06770276
v -0.02075534 0.38515901 0.09950488
v 0.01104678 0.40282685 0.06416919
v 0.01104678 0.39222615 0.09243774
v 0.01811392 0.38869258 0.09597131
v -0.02782247 0.38162544 0.09243774
v -0.02075534 0.39929329 0.04296778
v -0.02782247 0.38515901 0.07830347
v -0.00308749 0.40636042 0.05356848
v -0.00308749 0.39929329 0.07830347
v 0.00397965 0.40282685 0.06770276
v -0.01015463 0.38869258 0.09950488
v -0.01722177 0.39575972 0.07476990
v -0.02428891 0.38515901 0.09243774
v -0.01368820 0.39222615 0.08890417
v -0.01722177 0.39222615 0.08537060
f 1 2 3
f 7 2 1
f 7 1 5
f 9 6 8
f 10 5 1
f 11 2 7
f 13 1 3
f 14 3 11
f 15 6 9
f 15 14 4
f 15 9 14
f 16 9 8
f 16 14 9
f 17 11 3
f 17 3 2
f 17 2 11
f 18 11 7
f 18 7 5
f 19 8 6
f 21 10 1
f 23 14 11
f 23 11 18
f 25 3 14
f 25 14 16
f 25 13 3
f 26 19 6
f 27 1 20
f 27 21 1
f 28 27 20
f 28 8 19
f 28 16 8
f 28 25 16
f 28 13 25
f 29 20 1
f 29 1 13
f 29 28 20
f 29 13 28
f 30 6 15
f 31 4 14
f 31 14 23
f 32 23 18
f 32 18 5
f 33 15 4
f 33 4 31
f 35 26 6
f 36 21 12
f 36 12 26
f 36 26 35
f 37 27 12
f 37 12 21
f 37 21 27
f 38 28 19
f 38 12 27
f 38 27 28
f 38 26 12
f 38 19 26
f 39 32 5
f 40 33 24
f 40 15 33
f 41 24 33
f 41 32 39
f 41 31 23
f 41 23 32
f 43 5 10
f 44 30 22
f 44 36 35
f 44 22 36
f 44 35 6
f 44 6 30
f 45 36 22
f 45 10 36
f 46 36 10
f 46 10 21
f 46 21 36
f 47 39 5
f 47 24 39
f 48 41 33
f 48 33 31
f 48 31 41
f 49 41 39
f 49 39 24
f 49 24 41
f 50 42 30
f 50 30 15
f 50 15 40
f 50 40 42
f 51 22 42
f 51 45 22
f 52 42 22
f 52 22 30
f 52 30 42
f 53 43 10
f 53 10 45
f 53 51 34
f 53 45 51
f 54 40 24
f 55 24 47
f 55 47 5
f 55 5 43
f 56 53 34
f 56 43 53
f 56 34 51
f 56 51 42
f 56 42 40
f 57 43 56
f 57 54 24
f 57 55 43
f 57 24 55
f 57 56 40
f 57 40 54

