# https://github.com/mikedh/trimesh
mtllib material.mtl
usemtl Material073
v 0.02164749 -0.08127208 0.23024693
v 0.04991604 -0.08480565 0.21964622
v 0.00044608 -0.03180212 0.21257908
v -0.04079278 -0.05028939 0.20694341
v -0.05897083 -0.08163808 0.20810678
v 0.04892036 -0.06452524 0.20695693
v -0.01722177 -0.07773852 0.23024693
v 0.03224820 -0.04593640 0.21257908
v 0.00394519 -0.08487504 0.23009650
v 0.00006748 -0.03253900 0.20725299
v -0.05838473 -0.07843263 0.20726520
v 0.05152898 -0.08391859 0.21137675
v 0.00397965 -0.07067138 0.23024693
v -0.03842318 -0.04593640 0.21257908
v 0.04284890 -0.06360424 0.21611265
v 0.00397965 -0.08480565 0.20904551
v 0.02164749 -0.08480565 0.23024693
v -0.03842318 -0.08127208 0.22317979
v 0.02120223 -0.03962567 0.20729675
v -0.05472588 -0.07143563 0.20708532
v 0.04991604 -0.06360424 0.21257908
v -0.01368820 -0.03886926 0.21611265
v 0.02164749 -0.04593640 0.21611265
v -0.05962460 -0.07773852 0.21257908
v -0.01322867 -0.03234332 0.20766671
v 0.04991604 -0.08127208 0.21964622
v -0.05962460 -0.08127208 0.21257908
v -0.02428891 -0.07067138 0.22671336
v 0.03184359 -0.04656719 0.20742860
v 0.02164749 -0.03886926 0.21257908
v -0.00308749 -0.03886926 0.21611265
v -0.00308749 -0.07067138 0.23024693
v 0.00751321 -0.06360424 0.22671336
v 0.03578177 -0.05653710 0.21611265
v -0.05609103 -0.07067138 0.21257908
v -0.02735359 -0.03970195 0.20721389
v -0.01368820 -0.03180212 0.21257908
v -0.03842318 -0.07773852 0.22317979
v -0.02428891 -0.05300353 0.21964622
v -0.01722177 -0.06713781 0.22671336
v 0.02518106 -0.05653710 0.21964622
v -0.04195675 -0.04946996 0.21257908
v -0.03747908 -0.04660103 0.20734051
v -0.02782247 -0.03886926 0.21257908
v -0.05255746 -0.07420495 0.21611265
v -0.04549032 -0.07420495 0.21964622
f 10 6 4
f 13 7 1
f 16 9 5
f 16 2 9
f 16 12 2
f 16 5 11
f 16 11 6
f 16 6 12
f 17 9 2
f 17 2 1
f 17 1 7
f 17 7 9
f 18 9 7
f 19 6 10
f 20 4 6
f 20 6 11
f 21 12 6
f 21 8 15
f 24 11 5
f 25 3 10
f 26 15 1
f 26 1 2
f 26 21 15
f 26 2 12
f 26 12 21
f 27 5 9
f 27 9 18
f 27 24 5
f 29 6 19
f 29 21 6
f 29 8 21
f 30 19 10
f 30 10 3
f 30 29 19
f 30 8 29
f 30 23 8
f 30 3 23
f 31 22 13
f 31 13 3
f 31 3 22
f 32 7 13
f 32 13 22
f 32 28 7
f 33 23 3
f 33 3 13
f 33 13 1
f 34 15 8
f 34 8 23
f 34 1 15
f 35 20 11
f 35 11 24
f 35 4 20
f 36 25 10
f 36 10 4
f 37 22 3
f 37 3 25
f 38 18 7
f 38 7 28
f 39 28 22
f 39 14 28
f 40 32 22
f 40 22 28
f 40 28 32
f 41 33 1
f 41 23 33
f 41 34 23
f 41 1 34
f 42 4 35
f 42 28 14
f 43 36 4
f 43 14 36
f 43 42 14
f 43 4 42
f 44 22 37
f 44 39 22
f 44 14 39
f 44 36 14
f 44 37 25
f 44 25 36
f 45 35 24
f 45 18 38
f 45 27 18
f 45 24 27
f 45 42 35
f 46 38 28
f 46 28 42
f 46 45 38
f 46 42 45

