# https://github.com/mikedh/trimesh
mtllib material.mtl
usemtl Material083
v -0.06315816 -0.26855124 0.39985824
v -0.05901769 -0.30718846 0.39189100
v -0.05962460 -0.24734982 0.31505258
v -0.11851702 -0.24730270 0.31464489
v -0.10909456 -0.28621908 0.35745541
v -0.06669173 -0.24734982 0.39632467
v -0.05890941 -0.24781691 0.39429313
v -0.06669173 -0.30742050 0.39279110
v -0.05962460 -0.30742050 0.31505258
v -0.08082601 -0.25441696 0.38925753
v -0.05832121 -0.27197007 0.39686866
v -0.06315816 -0.30035336 0.39632467
v -0.11969527 -0.30742050 0.31505258
v -0.12029924 -0.29297458 0.31366759
v -0.07022530 -0.25795053 0.39632467
v -0.09496028 -0.28268551 0.37512325
v -0.09849385 -0.24734982 0.37158969
v -0.05839463 -0.26873660 0.39682182
v -0.05803277 -0.29992869 0.39390270
v -0.11262813 -0.30035336 0.33978756
v -0.12322883 -0.29328622 0.31858615
v -0.07022530 -0.27208481 0.39632467
v -0.10556099 -0.28975265 0.36098898
v -0.08435958 -0.24734982 0.38572396
v -0.11262813 -0.24734982 0.34332113
v -0.10556099 -0.28268551 0.36452255
v -0.06315816 -0.27208481 0.39985824
v -0.07729244 -0.30742050 0.38219039
v -0.12322883 -0.28975265 0.31858615
v -0.11969527 -0.30035336 0.32565329
v -0.08082601 -0.26855124 0.38925753
v -0.07022530 -0.29681979 0.39279110
v -0.11262813 -0.29681979 0.34332113
v -0.10556099 -0.26855124 0.36452255
v -0.11969527 -0.30742050 0.31858615
v -0.10556099 -0.29681979 0.35392184
v -0.11969527 -0.24734982 0.32211972
v -0.11969527 -0.29328622 0.32918686
v -0.08435958 -0.27561838 0.38572396
v -0.11616170 -0.29681979 0.33625400
v -0.10909456 -0.27561838 0.35745541
v -0.10202742 -0.25441696 0.36805612
v -0.11969527 -0.28621908 0.32918686
v -0.08789315 -0.27915194 0.38219039
v -0.10909456 -0.25441696 0.35392184
v -0.11262813 -0.26855124 0.34685470
f 6 3 4
f 7 6 1
f 7 3 6
f 9 2 8
f 12 8 2
f 13 9 8
f 14 4 3
f 14 3 9
f 14 9 13
f 15 1 6
f 15 6 10
f 18 7 1
f 18 1 11
f 18 11 3
f 18 3 7
f 19 2 9
f 19 9 3
f 19 3 11
f 19 12 2
f 21 14 13
f 22 1 15
f 22 15 10
f 24 17 10
f 24 10 6
f 24 6 4
f 24 4 17
f 25 17 4
f 26 5 23
f 26 8 16
f 27 19 11
f 27 11 1
f 27 12 19
f 27 22 12
f 27 1 22
f 28 13 8
f 28 26 23
f 28 8 26
f 29 4 14
f 29 14 21
f 31 22 10
f 31 10 17
f 31 17 26
f 32 8 12
f 32 12 22
f 32 22 31
f 32 16 8
f 33 23 5
f 33 30 20
f 34 5 26
f 34 26 17
f 35 28 20
f 35 13 28
f 35 20 30
f 35 30 21
f 35 21 13
f 36 28 23
f 36 20 28
f 36 33 20
f 36 23 33
f 37 25 4
f 37 4 29
f 38 29 21
f 38 21 30
f 39 32 31
f 39 31 26
f 40 33 5
f 40 30 33
f 40 38 30
f 40 5 38
f 41 5 34
f 41 38 5
f 42 34 17
f 42 17 25
f 43 37 29
f 43 25 37
f 43 29 38
f 43 38 41
f 44 16 32
f 44 32 39
f 44 39 26
f 44 26 16
f 45 41 34
f 45 25 41
f 45 42 25
f 45 34 42
f 46 43 41
f 46 41 25
f 46 25 43

