# https://github.com/mikedh/trimesh
mtllib material.mtl
usemtl Material048
v -0.07022530 -0.30742050 0.31505258
v -0.06923618 -0.37011441 0.31491112
v -0.06812707 -0.35250697 0.21360374
v -0.08166922 -0.30706238 0.21362343
v -0.08640581 -0.30694288 0.31514855
v -0.08789315 -0.32862191 0.24084764
v -0.07022530 -0.30742050 0.21257908
v -0.08101192 -0.33833820 0.31569624
v -0.08819040 -0.30652918 0.25781969
v -0.07375887 -0.36749117 0.24438120
v -0.08082601 -0.33215548 0.21257908
v -0.08450091 -0.31376157 0.31544833
v -0.08082601 -0.35689046 0.31505258
v -0.09142672 -0.31448763 0.25498191
v -0.06886543 -0.36696861 0.24461225
v -0.09142672 -0.31095406 0.23378050
v -0.07375887 -0.35689046 0.21611265
v -0.07375887 -0.35335689 0.21257908
v -0.08435958 -0.31802120 0.21257908
v -0.08082601 -0.35689046 0.31151901
v -0.07375887 -0.37102473 0.31505258
v -0.06898268 -0.37061659 0.29045361
v -0.08435958 -0.33215548 0.22671336
v -0.09142672 -0.31448763 0.24084764
v -0.09142672 -0.30742050 0.23378050
v -0.07375887 -0.36042403 0.22317979
v -0.06828971 -0.35597660 0.21655520
v -0.07375887 -0.37102473 0.29031760
v -0.08789315 -0.32508834 0.23378050
v -0.08082601 -0.33568905 0.21611265
v -0.08789315 -0.30742050 0.21964622
v -0.09142672 -0.31095406 0.25851548
v -0.08082601 -0.34275618 0.22671336
v -0.06867768 -0.35976583 0.22337647
v -0.08789315 -0.31095406 0.21964622
f 1 2 3
f 7 1 3
f 8 2 1
f 9 5 1
f 9 7 4
f 9 1 7
f 12 8 1
f 12 1 5
f 12 5 8
f 13 8 5
f 14 13 5
f 14 6 13
f 18 11 7
f 18 7 3
f 19 4 7
f 19 7 11
f 20 13 6
f 20 6 10
f 21 2 8
f 21 8 13
f 21 13 20
f 22 3 2
f 22 2 21
f 22 10 15
f 23 19 11
f 24 16 6
f 24 6 14
f 24 14 16
f 25 5 9
f 25 16 14
f 26 10 6
f 26 15 10
f 27 18 3
f 27 17 18
f 27 22 15
f 27 3 22
f 28 21 20
f 28 20 10
f 28 22 21
f 28 10 22
f 29 23 6
f 29 6 16
f 29 16 23
f 30 23 11
f 30 18 17
f 30 11 18
f 31 25 9
f 31 9 4
f 31 4 19
f 31 16 25
f 32 25 14
f 32 14 5
f 32 5 25
f 33 17 26
f 33 30 17
f 33 23 30
f 33 26 6
f 33 6 23
f 34 26 17
f 34 17 27
f 34 27 15
f 34 15 26
f 35 31 19
f 35 16 31
f 35 23 16
f 35 19 23

