# https://github.com/mikedh/trimesh
mtllib material.mtl
usemtl Material064
v 0.00044608 -0.24734982 0.16310912
v 0.00024373 -0.35422112 0.16376417
v 0.00004488 -0.34666998 0.11015328
v -0.09601398 -0.24613983 0.10986665
v -0.09849385 -0.25441696 0.16310912
v 0.00044608 -0.24734982 0.11010559
v -0.03781949 -0.34677235 0.16440811
v -0.09654858 -0.24668718 0.16327284
v -0.01015463 -0.34982332 0.11010559
v 0.00044608 -0.35689046 0.15957555
v -0.03031591 -0.35036829 0.16432311
v -0.06315816 -0.31802120 0.12777343
v -0.09849385 -0.25088339 0.11010559
v -0.01722177 -0.35689046 0.16310912
v -0.04902389 -0.33922262 0.16310912
v -0.08082601 -0.28975265 0.13130700
v -0.04902389 -0.32862191 0.11010559
v -0.01722177 -0.35689046 0.15957555
v -0.03135604 -0.35335689 0.15957555
v -0.08082601 -0.28975265 0.16310912
v -0.07375887 -0.29681979 0.11363916
v -0.08789315 -0.27561838 0.13484057
v -0.07022530 -0.30035336 0.11010559
v -0.03135604 -0.34275618 0.11010559
v -0.04195675 -0.34628975 0.15250841
v -0.03842318 -0.34982332 0.15604198
v -0.07729244 -0.29681979 0.14897484
v -0.07375887 -0.30035336 0.12423986
v -0.09849385 -0.25441696 0.15957555
v -0.08082601 -0.28268551 0.11010559
v -0.06315816 -0.31448763 0.11717272
v -0.02428891 -0.34628975 0.11010559
v -0.04902389 -0.33922262 0.15604198
v -0.05255746 -0.32862191 0.12423986
v -0.04195675 -0.33568905 0.11010559
v -0.07729244 -0.29681979 0.14190771
v -0.07022530 -0.30388693 0.11717272
v -0.07022530 -0.30742050 0.13130700
v -0.09142672 -0.26855124 0.14190771
v -0.06315816 -0.31095406 0.11010559
v -0.04549032 -0.34275618 0.15250841
f 6 4 1
f 8 1 4
f 8 7 1
f 8 5 7
f 9 6 3
f 9 4 6
f 10 6 1
f 10 1 2
f 10 3 6
f 10 9 3
f 11 2 1
f 11 1 7
f 13 8 4
f 13 5 8
f 14 10 2
f 14 2 11
f 18 9 10
f 18 10 14
f 19 14 11
f 19 11 7
f 19 18 14
f 19 9 18
f 20 15 7
f 20 7 5
f 20 5 16
f 22 13 16
f 26 19 7
f 26 7 15
f 27 20 16
f 27 12 15
f 27 15 20
f 28 16 13
f 28 13 21
f 29 5 13
f 29 22 16
f 29 16 5
f 30 13 4
f 30 4 23
f 30 23 21
f 30 21 13
f 31 17 12
f 32 9 19
f 32 26 24
f 32 19 26
f 32 24 4
f 32 4 9
f 33 15 12
f 33 26 15
f 33 25 26
f 34 12 17
f 35 26 25
f 35 24 26
f 35 17 4
f 35 4 24
f 35 34 17
f 35 25 34
f 36 27 16
f 36 12 27
f 37 28 21
f 37 12 28
f 37 31 12
f 37 21 23
f 37 23 31
f 38 28 12
f 38 16 28
f 38 36 16
f 38 12 36
f 39 29 13
f 39 13 22
f 39 22 29
f 40 31 23
f 40 17 31
f 40 23 4
f 40 4 17
f 41 33 12
f 41 25 33
f 41 34 25
f 41 12 34

