# https://github.com/mikedh/trimesh
mtllib material.mtl
usemtl Material037
v -0.05609103 0.22968198 0.05003491
v -0.05609103 0.15194346 0.05003491
v -0.05609103 0.22968198 -0.06303929
v -0.11548498 0.22988377 -0.06294391
v -0.11262813 0.22261484 0.04650134
v -0.05962460 0.15194346 -0.03123717
v -0.11651783 0.23071893 -0.05569236
v -0.05483699 0.15145924 -0.02938704
v -0.10909456 0.20141343 0.05003491
v -0.08435958 0.18374558 -0.06303929
v -0.11262813 0.22968198 0.04650134
v -0.09298129 0.15156833 0.05018437
v -0.11969527 0.22261484 -0.02063646
v -0.11616170 0.21908127 -0.06303929
v -0.05617986 0.18529654 -0.06230223
v -0.10774611 0.22976958 0.04977837
v -0.09496028 0.15194346 0.01116566
v -0.11616170 0.21908127 0.02529993
v -0.11969527 0.22968198 -0.01003576
v -0.11969527 0.22614841 -0.05597215
v -0.08082601 0.15194346 -0.01710289
v -0.10556099 0.18021201 0.02176636
v -0.11262813 0.21201413 0.03943421
v -0.11616170 0.22614841 0.02883350
v -0.11616170 0.22968198 0.02883350
v -0.11969527 0.22614841 -0.01003576
v -0.11616170 0.21201413 -0.04183788
v -0.06669173 0.15194346 -0.02770360
v -0.10202742 0.19434629 -0.05950572
v -0.09849385 0.15901060 0.02176636
v -0.11262813 0.20141343 0.01469922
v -0.10909456 0.19434629 0.03590064
v -0.11969527 0.22261484 -0.04537145
v -0.11616170 0.21554770 -0.05597215
v -0.10909456 0.20494700 -0.06303929
v -0.09496028 0.18727915 -0.05950572
v -0.09849385 0.15901060 0.01469922
v -0.11616170 0.21554770 0.01469922
v -0.11262813 0.20848057 0.03590064
v -0.11262813 0.20141343 -0.03123717
v -0.10202742 0.19081272 -0.05243858
v -0.11262813 0.20848057 -0.05597215
v -0.09142672 0.18727915 -0.06303929
v -0.11262813 0.20494700 0.02883350
f 7 1 3
f 7 3 4
f 8 1 2
f 8 3 1
f 11 5 9
f 12 8 2
f 12 2 1
f 12 1 9
f 14 4 3
f 14 3 10
f 15 8 6
f 15 6 10
f 15 10 3
f 15 3 8
f 16 1 7
f 16 7 11
f 16 11 9
f 16 9 1
f 17 8 12
f 20 7 4
f 20 4 14
f 20 19 7
f 20 13 19
f 21 8 17
f 23 9 5
f 23 5 18
f 24 18 5
f 24 5 11
f 25 11 7
f 25 7 19
f 25 24 11
f 25 19 24
f 26 19 13
f 26 24 19
f 26 18 24
f 27 22 13
f 28 6 8
f 28 8 21
f 28 21 10
f 28 10 6
f 29 21 17
f 30 17 12
f 31 13 22
f 32 12 9
f 32 31 22
f 32 30 12
f 32 22 30
f 33 27 13
f 33 13 20
f 34 20 14
f 34 33 20
f 34 27 33
f 35 14 10
f 36 21 29
f 37 17 30
f 37 30 22
f 37 22 27
f 38 13 31
f 38 26 13
f 38 18 26
f 39 32 9
f 39 23 18
f 39 9 23
f 40 34 17
f 40 27 34
f 40 37 27
f 40 17 37
f 41 35 29
f 41 29 17
f 41 17 35
f 42 35 17
f 42 17 34
f 42 34 14
f 42 14 35
f 43 10 21
f 43 21 36
f 43 35 10
f 43 36 29
f 43 29 35
f 44 38 31
f 44 31 32
f 44 32 39
f 44 39 18
f 44 18 38

