# https://github.com/mikedh/trimesh
mtllib material.mtl
usemtl Material051
v 0.10998671 -0.24734982 0.31505258
v 0.11053739 -0.30869197 0.31435755
v 0.10998671 -0.26855124 0.23378050
v 0.07465102 -0.24734982 0.21257908
v 0.07400082 -0.34607325 0.31512831
v 0.11060817 -0.24787619 0.23917543
v 0.07818459 -0.34628975 0.31505258
v 0.07465102 -0.24734982 0.31505258
v 0.09772707 -0.24674081 0.21276786
v 0.11219412 -0.29599289 0.24988366
v 0.07292719 -0.33867678 0.22007558
v 0.09938601 -0.25441696 0.21257908
v 0.11092982 -0.25839722 0.23712639
v 0.07818459 -0.34628975 0.24791477
v 0.07818459 -0.33215548 0.21257908
v 0.07330402 -0.34582476 0.24805150
v 0.11141645 -0.31387793 0.27641864
v 0.10998671 -0.28621908 0.24084764
v 0.07304610 -0.33176820 0.21306755
v 0.07818459 -0.34275618 0.22671336
v 0.10998671 -0.31448763 0.30798544
v 0.07818459 -0.33922262 0.21964622
v 0.07338815 -0.34239013 0.22693049
v 0.11164661 -0.30651488 0.25925829
v 0.11131767 -0.31026286 0.26576393
f 7 2 1
f 7 1 5
f 8 5 1
f 9 1 6
f 9 8 1
f 9 4 8
f 10 6 1
f 10 1 2
f 11 5 8
f 12 9 6
f 12 4 9
f 13 10 3
f 13 6 10
f 13 12 6
f 13 3 12
f 14 7 5
f 15 4 12
f 16 14 5
f 16 5 11
f 17 7 14
f 17 10 2
f 18 3 10
f 18 10 15
f 18 15 12
f 18 12 3
f 19 4 15
f 19 11 8
f 19 8 4
f 20 17 14
f 21 17 2
f 21 2 7
f 21 7 17
f 22 19 15
f 22 11 19
f 22 15 10
f 23 16 11
f 23 22 20
f 23 11 22
f 23 20 14
f 23 14 16
f 24 22 10
f 24 10 17
f 24 20 22
f 25 24 17
f 25 17 20
f 25 20 24

