# https://github.com/mikedh/trimesh
mtllib material.mtl
usemtl Material111
v 0.11352028 0.33568905 -0.03123717
v 0.12765456 0.28975265 -0.03830431
v 0.10998671 0.34275618 -0.06657286
v -0.10909456 0.34275618 -0.06657286
v -0.12220815 0.28974573 -0.03131101
v -0.12460644 0.28964781 -0.06668457
v 0.10645314 0.34275618 -0.03123717
v 0.12412099 0.32155477 -0.06657286
v 0.12340901 0.28975014 -0.03130650
v -0.12322883 0.32155477 -0.04890502
v 0.11352028 0.33922262 -0.05243858
v -0.12322883 0.31448763 -0.03123717
v 0.12412099 0.31448763 -0.03123717
v 0.12419218 0.30681332 -0.06667249
v 0.12557433 0.28968517 -0.06663117
v -0.12676240 0.31095406 -0.06657286
v 0.10998671 0.34275618 -0.05243858
v 0.11705385 0.33568905 -0.06657286
v -0.10556099 0.34275618 -0.03123717
v 0.12058742 0.32862191 -0.04890502
v 0.12765456 0.30742050 -0.05243858
v -0.11616170 0.33568905 -0.06657286
v -0.12676240 0.30742050 -0.05243858
v -0.11616170 0.33215548 -0.03477074
v 0.12412099 0.32155477 -0.05243858
v 0.12058742 0.32508834 -0.03477074
v 0.11705385 0.33568905 -0.05950572
v 0.12765456 0.29681979 -0.03830431
v -0.11262813 0.33922262 -0.04890502
v -0.12322883 0.31802120 -0.03830431
v -0.12676240 0.31095406 -0.06303929
v -0.12676240 0.28975265 -0.04183788
v -0.11969527 0.32508834 -0.03123717
v -0.11969527 0.32862191 -0.04537145
v 0.11705385 0.33215548 -0.03830431
v 0.12765456 0.30388693 -0.04537145
v -0.10909456 0.34275618 -0.04890502
v -0.11262813 0.33568905 -0.03123717
v -0.12676240 0.29681979 -0.04183788
v -0.11616170 0.33568905 -0.05597215
f 7 3 4
f 9 5 6
f 11 7 1
f 12 1 7
f 12 5 9
f 13 9 2
f 13 12 9
f 13 1 12
f 14 6 4
f 14 4 3
f 15 9 6
f 15 2 9
f 15 6 14
f 15 14 8
f 17 11 3
f 17 3 7
f 17 7 11
f 18 3 11
f 18 14 3
f 18 8 14
f 19 12 7
f 19 7 4
f 20 8 18
f 21 15 8
f 21 2 15
f 22 16 10
f 22 4 6
f 22 6 16
f 25 8 20
f 25 21 8
f 25 13 21
f 26 1 13
f 26 25 20
f 26 13 25
f 27 20 18
f 27 18 11
f 28 13 2
f 28 2 21
f 29 4 22
f 30 23 12
f 30 10 23
f 31 23 10
f 31 10 16
f 31 16 23
f 32 5 12
f 32 6 5
f 32 23 16
f 32 16 6
f 33 12 19
f 33 30 12
f 33 10 30
f 34 22 10
f 34 33 24
f 34 10 33
f 35 26 20
f 35 1 26
f 35 20 27
f 35 27 11
f 35 11 1
f 36 28 21
f 36 21 13
f 36 13 28
f 37 29 19
f 37 19 4
f 37 4 29
f 38 29 24
f 38 19 29
f 38 33 19
f 38 24 33
f 39 32 12
f 39 12 23
f 39 23 32
f 40 29 22
f 40 22 34
f 40 34 24
f 40 24 29

