# https://github.com/mikedh/trimesh
mtllib material.mtl
usemtl Material008
v -0.05609103 -0.15547703 -0.09484141
v -0.05612892 -0.23198944 -0.09436813
v -0.05609103 -0.19434629 -0.14431138
v -0.11262813 -0.15547703 -0.14431138
v -0.12322883 -0.15901060 -0.09484141
v -0.10556099 -0.22968198 -0.11604282
v -0.05609103 -0.15547703 -0.14431138
v -0.05609103 -0.23321555 -0.10544212
v -0.11732007 -0.15666326 -0.09443019
v -0.11969527 -0.19081272 -0.14431138
v -0.11262813 -0.22614841 -0.09484141
v -0.07022530 -0.23674912 -0.11604282
v -0.06055086 -0.23362108 -0.09416794
v -0.11969527 -0.15547703 -0.10897569
v -0.11262813 -0.22261484 -0.11604282
v -0.12322883 -0.20141343 -0.09484141
v -0.05609103 -0.22968198 -0.11604282
v -0.11482609 -0.19403022 -0.14416266
v -0.08789315 -0.24028269 -0.10544212
v -0.08630991 -0.23731944 -0.09440054
v -0.07022530 -0.24028269 -0.09484141
v -0.11969527 -0.17314488 -0.14431138
v -0.11969527 -0.19434629 -0.14077781
v -0.11262813 -0.22614841 -0.10190855
v -0.12322883 -0.17314488 -0.11957639
v -0.06669173 -0.23674912 -0.11250926
v -0.09142672 -0.23674912 -0.11604282
v -0.10909456 -0.22968198 -0.09484141
v -0.11969527 -0.21201413 -0.09484141
v -0.05962460 -0.23674912 -0.10190855
v -0.08082601 -0.24028269 -0.11250926
v -0.11969527 -0.16961131 -0.14077781
v -0.12322883 -0.18727915 -0.11957639
v -0.10909456 -0.22968198 -0.09837498
v -0.11616170 -0.21908127 -0.10544212
v -0.05962460 -0.23321555 -0.11250926
v -0.07375887 -0.24028269 -0.10544212
v -0.08435958 -0.24028269 -0.11250926
v -0.12322883 -0.15901060 -0.09837498
v -0.11616170 -0.15901060 -0.14077781
v -0.12322883 -0.19787986 -0.10544212
v -0.10202742 -0.23321555 -0.10544212
v -0.11616170 -0.21554770 -0.11604282
v -0.07022530 -0.24028269 -0.09837498
v -0.12322883 -0.16607774 -0.11250926
v -0.11616170 -0.16254417 -0.14431138
v -0.11969527 -0.20848057 -0.10897569
v -0.12322883 -0.20141343 -0.09837498
v -0.11969527 -0.21201413 -0.09837498
f 7 1 3
f 7 3 4
f 7 4 1
f 8 1 2
f 8 3 1
f 10 4 3
f 13 2 1
f 13 1 9
f 14 9 1
f 14 1 4
f 14 5 9
f 16 9 5
f 17 12 3
f 17 3 8
f 18 10 3
f 18 6 10
f 20 13 9
f 21 2 13
f 21 20 19
f 21 13 20
f 22 4 10
f 23 10 6
f 23 6 15
f 24 15 6
f 25 16 5
f 25 22 10
f 26 12 17
f 27 18 3
f 27 3 12
f 27 6 18
f 27 19 6
f 28 20 11
f 28 19 20
f 28 11 24
f 29 11 20
f 29 24 11
f 29 20 9
f 29 9 16
f 30 8 2
f 30 2 21
f 30 17 8
f 31 21 19
f 31 12 26
f 31 27 12
f 32 22 25
f 33 10 23
f 33 25 10
f 33 16 25
f 34 28 24
f 34 24 6
f 34 19 28
f 35 15 24
f 36 30 26
f 36 26 17
f 36 17 30
f 37 21 31
f 37 31 26
f 37 26 30
f 38 31 19
f 38 19 27
f 38 27 31
f 39 5 14
f 39 25 5
f 40 14 4
f 40 22 32
f 40 39 14
f 41 33 23
f 41 16 33
f 42 34 6
f 42 6 19
f 42 19 34
f 43 23 15
f 43 15 35
f 44 37 30
f 44 30 21
f 44 21 37
f 45 32 25
f 45 25 39
f 45 40 32
f 45 39 40
f 46 40 4
f 46 4 22
f 46 22 40
f 47 23 43
f 47 43 35
f 48 41 23
f 48 23 47
f 48 16 41
f 48 29 16
f 49 47 35
f 49 48 47
f 49 29 48
f 49 35 24
f 49 24 29

