# https://github.com/mikedh/trimesh
mtllib material.mtl
usemtl Material070
v 0.11352028 0.38162544 -0.21498275
v 0.11352028 0.32862191 -0.21498275
v 0.11705385 0.38162544 -0.25738558
v 0.05698318 0.38515901 -0.25738558
v 0.04284890 0.32862191 -0.21498275
v 0.11352028 0.38515901 -0.21851632
v 0.11705385 0.34982332 -0.21498275
v 0.05539877 0.30864164 -0.21279739
v 0.04638247 0.38162544 -0.21498275
v 0.11087055 0.38387739 -0.25729290
v 0.11705385 0.34982332 -0.25738558
v 0.11705385 0.36749117 -0.21498275
v 0.08104267 0.29894520 -0.21324407
v 0.05698318 0.33215548 -0.25738558
v 0.04284890 0.37102473 -0.23265060
v 0.04638247 0.38515901 -0.22204989
v 0.05184565 0.38388516 -0.21508885
v 0.04284890 0.37455830 -0.21498275
v 0.11705385 0.37809187 -0.22911703
v 0.11352028 0.33568905 -0.25738558
v 0.05344961 0.30742050 -0.21851632
v 0.04638247 0.34982332 -0.24678487
v 0.04638247 0.38162544 -0.23971774
v 0.10817343 0.38386473 -0.21535281
v 0.04284890 0.37455830 -0.22558346
v 0.11705385 0.38162544 -0.24325131
v 0.11705385 0.37455830 -0.22204989
v 0.11352028 0.32862191 -0.23265060
v 0.07465102 0.31802120 -0.25738558
v 0.04638247 0.32862191 -0.23265060
v 0.06758389 0.29681979 -0.21851632
v 0.04284890 0.34275618 -0.23265060
v 0.05344961 0.37809187 -0.25738558
v 0.04638247 0.38515901 -0.23265060
v 0.04638247 0.36749117 -0.24678487
v 0.09231887 0.30035336 -0.21851632
v 0.06758389 0.31802120 -0.25385201
v 0.04638247 0.32155477 -0.22204989
v 0.05344961 0.32508834 -0.24325131
v 0.04991604 0.33922262 -0.25031844
v 0.06829441 0.29861273 -0.21304666
v 0.04284890 0.32862191 -0.21851632
v 0.04991604 0.38515901 -0.24325131
v 0.04638247 0.37809187 -0.24325131
v 0.04991604 0.37102473 -0.25385201
v 0.10291957 0.31095406 -0.21498275
v 0.08525173 0.32155477 -0.25738558
v 0.08171816 0.29681979 -0.21851632
v 0.07111745 0.31802120 -0.25738558
v 0.06051675 0.30035336 -0.21851632
v 0.04991604 0.32508834 -0.23618417
v 0.05698318 0.32862191 -0.25385201
v 0.04638247 0.33568905 -0.23971774
v 0.04991604 0.34628975 -0.25385201
v 0.10998671 0.32155477 -0.21851632
v 0.10998671 0.32155477 -0.21498275
v 0.09231887 0.30035336 -0.21498275
v 0.10291957 0.31095406 -0.21851632
v 0.08878530 0.30035336 -0.22204989
v 0.06158450 0.30190091 -0.21303186
v 0.06758389 0.31095406 -0.24325131
v 0.05344961 0.33922262 -0.25738558
v 0.08171816 0.31802120 -0.25385201
v 0.09231887 0.31095406 -0.23618417
f 9 8 1
f 10 6 3
f 10 3 4
f 10 4 6
f 11 7 2
f 11 3 7
f 11 4 3
f 12 6 1
f 12 7 3
f 13 2 7
f 13 7 12
f 13 12 1
f 13 1 8
f 14 4 11
f 16 6 4
f 17 9 1
f 17 16 9
f 17 6 16
f 18 5 8
f 18 8 9
f 18 15 5
f 18 9 16
f 19 12 3
f 20 14 11
f 21 8 5
f 24 17 1
f 24 1 6
f 24 6 17
f 25 18 16
f 25 15 18
f 25 23 15
f 26 19 3
f 26 3 6
f 26 6 19
f 27 19 6
f 27 6 12
f 27 12 19
f 28 20 11
f 28 11 2
f 29 14 20
f 32 5 15
f 32 15 22
f 33 4 14
f 34 16 4
f 34 25 16
f 34 23 25
f 35 22 15
f 38 21 5
f 41 13 8
f 42 5 32
f 42 38 5
f 42 30 38
f 43 34 4
f 43 23 34
f 43 4 33
f 44 35 15
f 44 15 23
f 44 43 33
f 44 23 43
f 45 22 35
f 45 44 33
f 45 35 44
f 47 29 20
f 48 31 29
f 48 41 31
f 48 13 41
f 49 14 29
f 49 29 31
f 50 21 37
f 51 39 21
f 51 38 30
f 51 21 38
f 52 37 21
f 52 21 39
f 52 39 14
f 52 49 37
f 52 14 49
f 53 32 22
f 53 22 40
f 53 42 32
f 53 30 42
f 53 51 30
f 53 40 39
f 53 39 51
f 54 40 22
f 54 22 45
f 54 45 33
f 55 28 2
f 56 2 13
f 56 13 46
f 56 55 2
f 56 46 55
f 57 46 13
f 57 36 46
f 57 48 36
f 57 13 48
f 58 46 36
f 58 36 20
f 58 20 28
f 58 55 46
f 58 28 55
f 59 48 29
f 59 36 48
f 59 20 36
f 60 50 31
f 60 31 41
f 60 41 8
f 60 8 21
f 60 21 50
f 61 49 31
f 61 31 50
f 61 50 37
f 61 37 49
f 62 40 54
f 62 14 39
f 62 39 40
f 62 54 33
f 62 33 14
f 63 59 29
f 63 29 47
f 63 47 59
f 64 59 47
f 64 47 20
f 64 20 59

