# https://github.com/mikedh/trimesh
mtllib material.mtl
usemtl Material085
v 0.09640314 -0.24636222 0.16315284
v 0.09938601 -0.25088339 0.16310912
v 0.09852028 -0.24676930 0.10995159
v 0.05344961 -0.24734982 0.11010559
v 0.05335112 -0.32147756 0.16312230
v 0.05472008 -0.31978068 0.16341187
v 0.05344961 -0.24734982 0.16310912
v 0.05698318 -0.31448763 0.11010559
v 0.05143105 -0.31973405 0.12182319
v 0.09692068 -0.24923025 0.10966704
v 0.07465102 -0.30388693 0.14190771
v 0.05261521 -0.31377815 0.11032419
v 0.06758389 -0.31095406 0.16310912
v 0.05698318 -0.32155477 0.12070629
v 0.09585244 -0.25795053 0.11010559
v 0.05167718 -0.31627113 0.11424545
v 0.08171816 -0.29328622 0.16310912
v 0.06758389 -0.30742050 0.11717272
v 0.06758389 -0.30388693 0.11010559
v 0.05698318 -0.31802120 0.11363916
v 0.07465102 -0.30388693 0.14544128
v 0.09231887 -0.26855124 0.14544128
v 0.08171816 -0.29328622 0.15957555
v 0.07111745 -0.30742050 0.13130700
v 0.06405032 -0.31095406 0.11363916
v 0.09231887 -0.26855124 0.16310912
v 0.08525173 -0.28268551 0.13484057
v 0.07818459 -0.29681979 0.13837414
v 0.06405032 -0.31448763 0.12423986
f 1 2 3
f 1 3 4
f 6 2 1
f 7 1 4
f 7 6 1
f 7 5 6
f 9 7 4
f 9 5 7
f 10 8 4
f 10 4 3
f 12 4 8
f 13 6 5
f 14 13 5
f 14 5 9
f 15 3 2
f 15 10 3
f 16 9 4
f 16 4 12
f 16 14 9
f 17 6 13
f 19 8 10
f 19 10 15
f 19 15 18
f 20 16 12
f 20 12 8
f 20 14 16
f 20 8 19
f 21 17 13
f 21 11 17
f 21 13 14
f 22 15 2
f 23 17 11
f 23 22 17
f 23 15 22
f 24 18 15
f 25 19 18
f 25 20 19
f 25 14 20
f 26 22 2
f 26 17 22
f 26 2 6
f 26 6 17
f 27 15 23
f 28 24 15
f 28 11 24
f 28 15 27
f 28 27 23
f 28 23 11
f 29 14 25
f 29 24 11
f 29 21 14
f 29 11 21
f 29 25 18
f 29 18 24

