# https://github.com/mikedh/trimesh
mtllib material.mtl
usemtl Material060
v 0.09231887 0.11660777 0.12777343
v 0.12058742 0.00353357 0.09597131
v 0.08878530 0.12014134 -0.01710289
v -0.02075534 0.01413428 -0.09837498
v -0.10909456 0.00353357 0.12423986
v 0.09938601 0.00353357 -0.04537145
v 0.10998671 0.10954064 0.05356848
v 0.10998671 0.00353357 0.12777343
v -0.10556099 0.12014134 0.07123633
v 0.04638247 0.02826855 -0.08777427
v -0.07375887 0.00353357 -0.07364000
v -0.10374959 0.00331389 0.12720519
v 0.11705385 0.07420495 0.07476990
v 0.10645314 0.12014134 0.05710205
v 0.11352028 0.05300353 -0.00650219
v -0.05609103 0.12014134 -0.04183788
v 0.04991604 0.00353357 -0.09130784
v 0.08171816 0.05300353 -0.05597215
v -0.11969527 0.01060071 0.00409852
v -0.11969527 0.00353357 0.00763209
v -0.10556099 0.02826855 0.12777343
v 0.11352028 0.05300353 0.10303845
v 0.10645314 0.12014134 0.02883350
v 0.10645314 0.11307420 0.08183703
v 0.09231887 0.12014134 0.12423986
v 0.12412099 0.01413428 0.05710205
v -0.05962460 0.04593640 -0.07364000
v 0.01458035 0.07067138 -0.07717357
v 0.02518106 0.01060071 -0.09837498
v -0.02782247 0.00353357 -0.09837498
v 0.07111745 0.11660777 -0.03830431
v 0.05698318 0.02120141 -0.08424070
v 0.10291957 0.05300353 -0.03123717
v -0.11969527 0.03886926 0.07830347
v -0.10202742 0.08127208 -0.02063646
v -0.11629777 0.00331996 0.09161740
v -0.10556099 0.00353357 -0.03477074
v -0.09142672 0.11660777 0.12777343
v 0.11705385 0.01766785 0.10657202
v 0.10645314 0.03533569 0.12777343
v 0.09938601 0.12014134 0.00409852
v 0.12058742 0.04240283 0.02883350
v 0.10998671 0.10954064 0.06063562
v 0.09938601 0.11660777 0.11010559
v 0.12412099 0.01060071 0.07476990
v -0.02782247 0.04240283 -0.08777427
v 0.04638247 0.01413428 -0.09130784
v 0.03224820 0.04240283 -0.08777427
v 0.02871463 0.00353357 -0.09837498
v -0.05255746 0.01060071 -0.08777427
v 0.08171816 0.11307420 -0.03123717
v 0.03224820 0.11660777 -0.04890502
v 0.06405032 0.06007067 -0.06657286
v 0.07465102 0.00706714 -0.07364000
v 0.11352028 0.02120141 -0.01710289
v -0.11969527 0.05300353 0.02176636
v -0.11616170 0.01413428 0.10657202
v -0.08789315 0.05653710 -0.04890502
v -0.10202742 0.12014134 0.00763209
v -0.11262813 0.00353357 0.11717272
v -0.11969527 0.01413428 0.09243774
v -0.11262813 0.00353357 -0.02063646
v -0.11262813 0.07420495 0.08890417
v -0.09142672 0.12014134 0.12423986
f 12 6 2
f 12 2 8
f 14 3 9
f 16 9 3
f 21 12 8
f 21 8 1
f 21 5 12
f 23 14 7
f 23 3 14
f 25 14 9
f 30 4 29
f 34 19 20
f 36 11 30
f 36 17 6
f 36 6 12
f 37 11 36
f 38 21 1
f 38 1 25
f 39 8 2
f 39 13 22
f 40 22 1
f 40 1 8
f 40 39 22
f 40 8 39
f 41 23 15
f 41 3 23
f 41 33 3
f 41 15 33
f 42 23 7
f 42 7 13
f 42 15 23
f 42 13 26
f 43 24 13
f 43 13 7
f 43 7 14
f 43 14 24
f 44 22 13
f 44 13 24
f 44 1 22
f 44 25 1
f 44 24 14
f 44 14 25
f 45 26 13
f 45 2 6
f 45 6 26
f 45 39 2
f 45 13 39
f 46 27 16
f 46 16 28
f 47 29 10
f 47 32 17
f 47 10 32
f 48 10 29
f 48 29 4
f 48 46 28
f 48 4 46
f 49 30 29
f 49 36 30
f 49 17 36
f 49 47 17
f 49 29 47
f 50 30 11
f 50 11 27
f 50 27 46
f 50 46 4
f 50 4 30
f 51 31 3
f 51 18 31
f 51 33 18
f 51 3 33
f 52 28 16
f 52 16 3
f 52 3 31
f 52 48 28
f 52 31 48
f 53 31 18
f 53 18 32
f 53 32 10
f 53 48 31
f 53 10 48
f 54 32 18
f 54 6 17
f 54 17 32
f 54 33 6
f 54 18 33
f 55 33 15
f 55 6 33
f 55 15 42
f 55 42 26
f 55 26 6
f 56 34 9
f 56 19 34
f 57 21 38
f 58 27 11
f 58 37 35
f 58 11 37
f 58 35 16
f 58 16 27
f 59 9 16
f 59 16 35
f 59 56 9
f 59 35 56
f 60 36 12
f 60 12 5
f 60 5 21
f 60 21 57
f 61 34 20
f 61 20 36
f 61 60 57
f 61 36 60
f 62 20 19
f 62 35 37
f 62 56 35
f 62 19 56
f 62 37 36
f 62 36 20
f 63 38 9
f 63 9 34
f 63 57 38
f 63 61 57
f 63 34 61
f 64 38 25
f 64 25 9
f 64 9 38

