# https://github.com/mikedh/trimesh
mtllib material.mtl
usemtl Material082
v -0.06487055 0.39671113 -0.25629012
v -0.04902389 0.34982332 -0.25738558
v -0.05962460 0.38515901 -0.29272127
v -0.11262813 0.38515901 -0.29272127
v -0.11616170 0.34982332 -0.25738558
v -0.08082601 0.32862191 -0.28918770
v -0.07729244 0.39575972 -0.29272127
v -0.05255746 0.38869258 -0.25738558
v -0.06782228 0.32419954 -0.25633696
v -0.10556099 0.39222615 -0.25738558
v -0.05962460 0.33568905 -0.29272127
v -0.11616170 0.34982332 -0.29272127
v -0.06315816 0.39929329 -0.26445272
v -0.04902389 0.37809187 -0.25738558
v -0.05572523 0.33656657 -0.25641191
v -0.08363424 0.39973531 -0.25635247
v -0.09142672 0.32508834 -0.25738558
v -0.11616170 0.37809187 -0.25738558
v -0.05609103 0.37809187 -0.28918770
v -0.06669173 0.32155477 -0.26091915
v -0.08789315 0.33215548 -0.29272127
v -0.06315816 0.39222615 -0.28918770
v -0.07022530 0.40282685 -0.26091915
v -0.05609103 0.32508834 -0.26091915
v -0.09496028 0.39929329 -0.26445272
v -0.10556099 0.33568905 -0.25738558
v -0.11262813 0.38515901 -0.25738558
v -0.11969527 0.37102473 -0.27151986
v -0.05609103 0.34982332 -0.28918770
v -0.04902389 0.37809187 -0.26091915
v -0.06669173 0.33215548 -0.29272127
v -0.08435958 0.32155477 -0.26091915
v -0.06669173 0.39222615 -0.29272127
v -0.05609103 0.39222615 -0.26798629
v -0.07128149 0.39998902 -0.25632713
v -0.06669173 0.39575972 -0.28212056
v -0.05255746 0.33568905 -0.26091915
v -0.05609103 0.32508834 -0.25738558
v -0.10202742 0.39222615 -0.29272127
v -0.10556099 0.39222615 -0.26445272
v -0.09496028 0.39929329 -0.25738558
v -0.08435958 0.40282685 -0.26091915
v -0.11262813 0.34275618 -0.25738558
v -0.11262813 0.34275618 -0.28212056
v -0.11969527 0.37455830 -0.29272127
v -0.11969527 0.35689046 -0.27151986
v -0.11969527 0.36749117 -0.26798629
v -0.04902389 0.34982332 -0.26091915
v -0.07729244 0.32862191 -0.28918770
v -0.06315816 0.33215548 -0.28918770
v -0.07022530 0.32155477 -0.26445272
v -0.08435958 0.32862191 -0.28565413
v -0.08435958 0.32155477 -0.25738558
v -0.05962460 0.39222615 -0.28212056
v -0.05255746 0.38869258 -0.26445272
v -0.08789315 0.39575972 -0.29272127
v -0.09142672 0.32508834 -0.26091915
v -0.10909456 0.34275618 -0.29272127
v -0.11616170 0.38162544 -0.28918770
v -0.11969527 0.37455830 -0.27858699
v -0.11969527 0.35689046 -0.29272127
v -0.11969527 0.36042403 -0.26798629
v -0.07375887 0.32155477 -0.26445272
v -0.05962460 0.39575972 -0.26798629
f 7 3 4
f 11 4 3
f 12 4 11
f 14 8 1
f 15 1 9
f 15 14 1
f 15 2 14
f 16 9 1
f 16 5 9
f 18 5 16
f 19 11 3
f 21 12 11
f 23 1 8
f 23 8 13
f 26 17 9
f 27 10 4
f 27 18 16
f 27 16 10
f 29 11 19
f 30 14 2
f 30 29 19
f 30 8 14
f 31 24 20
f 31 21 11
f 31 6 21
f 33 22 3
f 33 3 7
f 34 13 8
f 35 16 1
f 35 1 23
f 36 7 23
f 36 33 7
f 36 22 33
f 36 23 13
f 36 13 22
f 37 24 11
f 38 2 15
f 38 15 9
f 38 9 20
f 38 20 24
f 38 37 2
f 38 24 37
f 39 7 4
f 40 4 10
f 40 10 25
f 40 39 4
f 40 25 39
f 41 25 10
f 41 10 16
f 42 23 7
f 42 39 25
f 42 25 41
f 42 41 16
f 42 35 23
f 42 16 35
f 43 26 9
f 43 9 5
f 43 5 12
f 44 43 12
f 44 26 43
f 45 4 12
f 46 12 5
f 46 28 45
f 47 5 18
f 47 18 28
f 47 28 46
f 48 30 2
f 48 29 30
f 48 2 37
f 48 37 11
f 48 11 29
f 49 6 31
f 50 31 11
f 50 11 24
f 50 24 31
f 51 20 32
f 51 6 49
f 51 49 31
f 51 31 20
f 52 32 21
f 52 21 6
f 52 6 32
f 53 32 20
f 53 20 9
f 53 9 17
f 53 17 32
f 54 22 13
f 54 3 22
f 55 34 8
f 55 8 30
f 55 30 19
f 55 54 34
f 55 19 3
f 55 3 54
f 56 42 7
f 56 7 39
f 56 39 42
f 57 17 26
f 57 26 44
f 57 32 17
f 58 44 12
f 58 12 21
f 58 57 44
f 58 21 32
f 58 32 57
f 59 27 4
f 59 4 45
f 60 45 28
f 60 28 18
f 60 59 45
f 60 18 27
f 60 27 59
f 61 46 45
f 61 45 12
f 61 12 46
f 62 47 46
f 62 46 5
f 62 5 47
f 63 51 32
f 63 32 6
f 63 6 51
f 64 54 13
f 64 13 34
f 64 34 54

