# https://github.com/mikedh/trimesh
mtllib material.mtl
usemtl Material011
v 0.10469142 -0.20415985 -0.20059911
v 0.10645314 -0.20848057 -0.21144919
v 0.09231887 -0.16254417 -0.29978841
v 0.04638247 -0.16961131 -0.30332198
v 0.05698318 -0.22261484 -0.20084848
v 0.08171816 -0.22261484 -0.30332198
v 0.07111745 -0.14487633 -0.22204989
v 0.10645314 -0.16961131 -0.22204989
v 0.08525173 -0.22968198 -0.20084848
v 0.10291957 -0.19434629 -0.30332198
v 0.04991604 -0.21554770 -0.30332198
v 0.06051675 -0.15547703 -0.30332198
v 0.05174274 -0.20408605 -0.20088733
v 0.09231887 -0.15194346 -0.22204989
v 0.09938601 -0.22261484 -0.20084848
v 0.10339696 -0.20711505 -0.20041588
v 0.10645314 -0.19434629 -0.26091915
v 0.10291957 -0.18021201 -0.30332198
v 0.06758389 -0.22968198 -0.22204989
v 0.08171816 -0.15547703 -0.29978841
v 0.04991604 -0.15901060 -0.24325131
v 0.04638247 -0.20494700 -0.22911703
v 0.08525173 -0.14840989 -0.22204989
v 0.09938601 -0.15901060 -0.23971774
v 0.08525173 -0.22614841 -0.25385201
v 0.09938601 -0.20848057 -0.27858699
v 0.06758389 -0.22968198 -0.20084848
v 0.04991604 -0.20848057 -0.20084848
v 0.10645314 -0.20141343 -0.23971774
v 0.10645314 -0.18021201 -0.25738558
v 0.06051675 -0.22614841 -0.22558346
v 0.06405032 -0.22261484 -0.30332198
v 0.07465102 -0.15194346 -0.28565413
v 0.08525173 -0.15901060 -0.30332198
v 0.05344961 -0.15901060 -0.29272127
v 0.04991604 -0.15901060 -0.22204989
v 0.04991604 -0.21201413 -0.21851632
v 0.04284890 -0.19434629 -0.30332198
v 0.07465102 -0.14487633 -0.22204989
v 0.08525173 -0.14840989 -0.23265060
v 0.10291957 -0.16254417 -0.23265060
v 0.09231887 -0.22614841 -0.21144919
v 0.08878530 -0.21908127 -0.30332198
v 0.07818459 -0.22968198 -0.22911703
v 0.10291957 -0.20141343 -0.27858699
v 0.10291957 -0.21201413 -0.22911703
v 0.10645314 -0.16961131 -0.22911703
v 0.10645314 -0.18374558 -0.26091915
v 0.06051675 -0.22614841 -0.20084848
v 0.05344961 -0.21908127 -0.29272127
v 0.07818459 -0.15547703 -0.30332198
v 0.06405032 -0.15194346 -0.28212056
v 0.09938601 -0.17314488 -0.30332198
v 0.06051675 -0.14840989 -0.23971774
v 0.06236136 -0.15075138 -0.22180957
v 0.04284890 -0.18727915 -0.23971774
v 0.04991604 -0.21554770 -0.28918770
v 0.07465102 -0.14487633 -0.22558346
v 0.08171816 -0.14840989 -0.24325131
v 0.09231887 -0.15194346 -0.22911703
v 0.08525173 -0.22968198 -0.20791562
v 0.09585244 -0.22261484 -0.22911703
v 0.09585244 -0.20848057 -0.30332198
v 0.08171816 -0.22968198 -0.22558346
f 8 1 2
f 10 6 4
f 11 4 6
f 12 10 4
f 13 1 7
f 14 1 8
f 15 2 1
f 16 1 13
f 16 15 1
f 16 9 15
f 17 8 2
f 18 17 10
f 18 10 12
f 23 1 14
f 27 9 16
f 27 19 9
f 28 16 13
f 28 5 16
f 29 17 2
f 29 10 17
f 30 8 17
f 31 5 11
f 31 19 27
f 32 11 6
f 34 18 12
f 34 20 3
f 35 12 4
f 35 4 21
f 36 28 13
f 36 21 4
f 37 28 22
f 37 5 28
f 38 4 11
f 38 11 22
f 39 7 1
f 39 1 23
f 40 23 14
f 40 39 23
f 41 24 14
f 41 14 8
f 43 25 6
f 43 6 10
f 44 32 6
f 44 19 32
f 44 9 19
f 45 29 2
f 45 10 29
f 46 2 15
f 46 15 26
f 46 45 2
f 46 26 45
f 47 30 18
f 47 8 30
f 47 41 8
f 47 18 41
f 48 30 17
f 48 17 18
f 48 18 30
f 49 31 27
f 49 5 31
f 49 27 16
f 49 16 5
f 50 31 11
f 50 11 32
f 50 32 19
f 50 19 31
f 51 33 20
f 51 12 33
f 51 34 12
f 51 20 34
f 52 33 12
f 53 34 3
f 53 18 34
f 53 41 18
f 53 3 24
f 53 24 41
f 54 35 21
f 54 7 52
f 54 52 12
f 54 12 35
f 54 21 36
f 55 36 13
f 55 13 7
f 55 54 36
f 55 7 54
f 56 22 28
f 56 28 36
f 56 38 22
f 56 36 4
f 56 4 38
f 57 37 22
f 57 22 11
f 57 11 5
f 57 5 37
f 58 7 39
f 58 52 7
f 58 33 52
f 58 39 40
f 59 40 20
f 59 20 33
f 59 58 40
f 59 33 58
f 60 40 14
f 60 14 24
f 60 24 3
f 60 3 20
f 60 20 40
f 61 25 42
f 61 9 44
f 61 42 15
f 61 15 9
f 62 42 25
f 62 25 43
f 62 15 42
f 62 43 26
f 62 26 15
f 63 43 10
f 63 26 43
f 63 45 26
f 63 10 45
f 64 44 6
f 64 6 25
f 64 61 44
f 64 25 61

