# https://github.com/mikedh/trimesh
mtllib material.mtl
usemtl Material103
v 0.11705385 0.00353357 0.11010559
v 0.12412099 -0.08480565 0.11010559
v 0.12058742 -0.02120141 0.01116566
v 0.06758389 0.00353357 0.00409852
v 0.06758389 -0.08480565 0.11010559
v 0.11413744 0.00393488 0.00463787
v 0.12412099 0.00353357 0.07830347
v 0.06758389 0.00353357 0.11010559
v 0.06758389 -0.08480565 0.00409852
v 0.12412099 -0.01413428 0.09243774
v 0.12412099 -0.06007067 0.03236707
v 0.12058742 0.00353357 0.02176636
v 0.11705385 -0.08127208 0.00409852
v 0.12058742 0.00353357 0.09597131
v 0.12058742 -0.02120141 0.11010559
v 0.12412099 0.00353357 0.05356848
v 0.12058742 -0.04240283 0.01116566
v 0.12412099 -0.08480565 0.05710205
v 0.12058742 -0.00706714 0.10303845
v 0.12412099 -0.04946996 0.10303845
v 0.12412099 -0.03533569 0.02883350
v 0.12412099 -0.04946996 0.02883350
v 0.12058742 -0.08480565 0.02529993
v 0.12412099 -0.08127208 0.11010559
v 0.12412099 -0.03533569 0.09950488
v 0.12412099 0.00000000 0.05003491
v 0.12412099 -0.07420495 0.04296778
v 0.11245110 -0.08479253 0.00442798
v 0.12412099 -0.02826855 0.03236707
v 0.12412099 -0.06713781 0.03590064
f 5 2 1
f 8 5 1
f 8 4 5
f 8 6 4
f 8 1 6
f 9 2 5
f 9 5 4
f 10 2 7
f 11 7 2
f 12 3 6
f 13 6 3
f 13 9 4
f 13 4 6
f 14 10 7
f 14 7 6
f 14 6 1
f 15 1 2
f 16 12 6
f 16 6 7
f 16 7 11
f 17 13 3
f 18 11 2
f 18 2 9
f 19 14 1
f 19 10 14
f 19 15 10
f 19 1 15
f 20 2 10
f 21 16 11
f 21 3 12
f 21 17 3
f 22 11 13
f 22 13 17
f 22 21 11
f 22 17 21
f 23 18 9
f 24 20 15
f 24 15 2
f 24 2 20
f 25 20 10
f 25 10 15
f 25 15 20
f 26 12 16
f 26 16 21
f 27 11 18
f 27 18 23
f 28 23 9
f 28 9 13
f 28 13 23
f 29 26 21
f 29 21 12
f 29 12 26
f 30 27 23
f 30 11 27
f 30 23 13
f 30 13 11

