# https://github.com/mikedh/trimesh
mtllib material.mtl
usemtl Material044
v -0.02428891 0.28268551 -0.10544212
v -0.01722177 0.23674912 -0.10897569
v -0.04902389 0.28268551 -0.19378134
v -0.07729244 0.27915194 -0.20084848
v -0.11969527 0.25441696 -0.10544212
v -0.05962460 0.20494700 -0.11250926
v -0.12262799 0.28278490 -0.10536540
v -0.03842318 0.28268551 -0.17257993
v -0.05328305 0.20730921 -0.10393736
v -0.04902389 0.24028269 -0.15491208
v -0.09849385 0.22614841 -0.12310996
v -0.07692934 0.28453144 -0.19912758
v -0.11262813 0.27915194 -0.16551279
v -0.02714685 0.28377167 -0.12910104
v -0.04549032 0.27561838 -0.18671420
v -0.01901005 0.23742118 -0.10348913
v -0.12002859 0.26946232 -0.10485238
v -0.03842318 0.21201413 -0.10897569
v -0.09142672 0.21201413 -0.10544212
v -0.07375887 0.24028269 -0.16197922
v -0.06315816 0.27915194 -0.20084848
v -0.12322883 0.27915194 -0.12664353
v -0.10909456 0.22968198 -0.10897569
v -0.09496028 0.25795053 -0.16904636
v -0.09849385 0.28268551 -0.18671420
v -0.01737224 0.24740218 -0.10528164
v -0.06386603 0.28451823 -0.19905255
v -0.03842318 0.27915194 -0.17257993
v -0.02075534 0.22968198 -0.10897569
v -0.05255746 0.20494700 -0.10897569
v -0.03966733 0.21405021 -0.10385408
v -0.10909456 0.22968198 -0.10544212
v -0.05962460 0.22968198 -0.14784494
v -0.08082601 0.20494700 -0.10897569
v -0.04902389 0.27915194 -0.19378134
v -0.11616170 0.24381625 -0.10897569
v -0.12322883 0.26855124 -0.11250926
v -0.11969527 0.28268551 -0.14431138
v -0.10202742 0.24028269 -0.13724424
v -0.09142672 0.21201413 -0.10897569
v -0.08789315 0.25795053 -0.17611350
v -0.08789315 0.28268551 -0.19731491
v -0.09849385 0.27915194 -0.18671420
v -0.04195675 0.25088339 -0.15844565
v -0.04195675 0.22261484 -0.12664353
v -0.02267225 0.23153190 -0.10371601
v -0.11616170 0.24381625 -0.10544212
v -0.07375887 0.21908127 -0.13371067
v -0.05609103 0.22261484 -0.13724424
v -0.05962460 0.24381625 -0.16551279
v -0.08082601 0.20494700 -0.10544212
v -0.11262813 0.27561838 -0.16197922
v -0.12322883 0.28268551 -0.12664353
v -0.11969527 0.25441696 -0.10897569
v -0.11262813 0.28268551 -0.16551279
v -0.10202742 0.22968198 -0.12310996
v -0.09142672 0.22968198 -0.13724424
v -0.08082601 0.25441696 -0.17611350
v -0.08789315 0.27915194 -0.19731491
v -0.04195675 0.26148410 -0.16904636
v -0.04549032 0.24381625 -0.15491208
v -0.05962460 0.21908127 -0.13371067
v -0.07022530 0.20494700 -0.11250926
v -0.04549032 0.22261484 -0.13017710
f 14 2 8
f 14 12 7
f 14 7 1
f 16 1 7
f 17 7 5
f 17 16 7
f 17 9 16
f 21 4 12
f 21 20 4
f 26 14 1
f 26 2 14
f 26 16 2
f 26 1 16
f 27 14 8
f 27 8 3
f 27 12 14
f 27 21 12
f 27 3 21
f 28 8 2
f 28 2 15
f 28 3 8
f 29 15 2
f 29 2 16
f 31 16 9
f 31 30 18
f 31 9 30
f 31 18 29
f 32 23 19
f 32 19 9
f 32 9 17
f 34 6 30
f 35 21 3
f 35 15 10
f 35 28 15
f 35 3 28
f 36 23 32
f 37 5 7
f 40 23 11
f 40 19 23
f 40 34 19
f 42 25 12
f 42 12 4
f 43 13 25
f 43 25 42
f 45 29 18
f 46 31 29
f 46 29 16
f 46 16 31
f 47 32 17
f 47 17 5
f 47 36 32
f 47 5 36
f 48 20 33
f 50 49 33
f 50 10 49
f 50 35 10
f 50 21 35
f 50 33 20
f 50 20 21
f 51 34 30
f 51 30 9
f 51 9 19
f 51 19 34
f 52 23 36
f 52 39 23
f 52 24 39
f 52 43 24
f 52 13 43
f 52 38 13
f 52 36 22
f 52 22 38
f 53 37 7
f 53 22 37
f 53 38 22
f 53 7 12
f 53 12 38
f 54 36 5
f 54 5 37
f 54 37 22
f 54 22 36
f 55 25 13
f 55 13 38
f 55 38 12
f 55 12 25
f 56 39 11
f 56 11 23
f 56 23 39
f 57 39 24
f 57 11 39
f 57 24 41
f 57 40 11
f 57 34 40
f 57 48 34
f 57 20 48
f 58 4 20
f 58 57 41
f 58 20 57
f 59 42 4
f 59 43 42
f 59 41 24
f 59 24 43
f 59 58 41
f 59 4 58
f 60 15 29
f 60 29 44
f 60 10 15
f 61 44 29
f 61 29 45
f 61 45 10
f 61 60 44
f 61 10 60
f 62 48 33
f 62 6 48
f 62 33 49
f 62 49 30
f 62 30 6
f 63 48 6
f 63 6 34
f 63 34 48
f 64 49 10
f 64 10 45
f 64 45 18
f 64 18 30
f 64 30 49

