# https://github.com/mikedh/trimesh
mtllib material.mtl
usemtl Material109
v -0.05609103 -0.19434629 -0.11604282
v -0.05609103 -0.22968198 -0.11604282
v -0.05609103 -0.19434629 -0.14431138
v -0.11482609 -0.19403022 -0.14416266
v -0.11804319 -0.19392888 -0.11582559
v -0.08789315 -0.23321555 -0.14431138
v -0.11639257 -0.20058028 -0.11560783
v -0.05783608 -0.22434739 -0.14422303
v -0.11616170 -0.20494700 -0.14431138
v -0.09142672 -0.23674912 -0.11604282
v -0.06669173 -0.23321555 -0.14431138
v -0.05609103 -0.22968198 -0.12664353
v -0.11969527 -0.20141343 -0.12310996
v -0.11315473 -0.21067505 -0.11563032
v -0.10909456 -0.22261484 -0.13724424
v -0.08789315 -0.23674912 -0.13017710
v -0.07375887 -0.23674912 -0.11604282
v -0.11969527 -0.19434629 -0.13371067
v -0.10909456 -0.22614841 -0.11604282
v -0.11262813 -0.21554770 -0.14431138
v -0.09849385 -0.22968198 -0.14431138
v -0.06315816 -0.23321555 -0.11604282
v -0.07729244 -0.23674912 -0.12664353
v -0.11969527 -0.19787986 -0.13371067
v -0.11616170 -0.21201413 -0.12664353
v -0.11262813 -0.21908127 -0.13017710
v -0.09142672 -0.23321555 -0.14077781
v -0.10202742 -0.22968198 -0.13371067
v -0.06315816 -0.23321555 -0.13017710
v -0.08082601 -0.23674912 -0.13017710
v -0.07375887 -0.23674912 -0.11957639
v -0.11616170 -0.20848057 -0.13724424
v -0.10909456 -0.22614841 -0.11957639
v -0.10556099 -0.22614841 -0.13724424
v -0.09142672 -0.23674912 -0.11957639
f 1 2 3
f 5 1 3
f 5 3 4
f 7 1 5
f 9 4 3
f 9 3 6
f 11 6 3
f 11 3 8
f 12 8 3
f 12 3 2
f 12 11 8
f 13 7 5
f 14 2 1
f 14 1 7
f 16 6 11
f 17 10 16
f 17 14 10
f 18 13 5
f 18 5 4
f 18 4 9
f 19 14 7
f 19 7 13
f 19 10 14
f 20 9 6
f 21 20 6
f 21 15 20
f 22 12 2
f 22 2 14
f 22 14 17
f 23 17 16
f 24 18 9
f 24 13 18
f 25 19 13
f 26 20 15
f 26 25 20
f 26 19 25
f 27 21 6
f 27 6 16
f 27 16 21
f 28 21 16
f 29 22 17
f 29 11 12
f 29 12 22
f 30 23 16
f 30 16 11
f 30 11 23
f 31 23 11
f 31 17 23
f 31 29 17
f 31 11 29
f 32 24 9
f 32 9 20
f 32 20 25
f 32 25 13
f 32 13 24
f 33 26 15
f 33 19 26
f 33 10 19
f 34 15 21
f 34 21 28
f 34 33 15
f 34 28 33
f 35 28 16
f 35 16 10
f 35 33 28
f 35 10 33

