# https://github.com/mikedh/trimesh
mtllib material.mtl
usemtl Material023
v 0.11705385 0.38162544 -0.25738558
v 0.12058742 0.36395760 -0.26091915
v 0.12058742 0.37455830 -0.29272127
v 0.06758389 0.38515901 -0.29272127
v 0.05698318 0.33215548 -0.25738558
v 0.11705385 0.38162544 -0.29272127
v 0.12058742 0.37102473 -0.26445272
v 0.10645314 0.33215548 -0.25738558
v 0.05698318 0.38162544 -0.25738558
v 0.07465102 0.33215548 -0.29272127
v 0.11111695 0.38270071 -0.29273867
v 0.12058742 0.36749117 -0.26091915
v 0.12058742 0.37455830 -0.27505343
v 0.11705385 0.34982332 -0.25738558
v 0.05641015 0.37023703 -0.25606989
v 0.07111745 0.39222615 -0.27151986
v 0.06405032 0.34275618 -0.29272127
v 0.08171816 0.32155477 -0.26091915
v 0.10998671 0.34275618 -0.29272127
v 0.12058742 0.35689046 -0.29272127
v 0.07271035 0.32282818 -0.25657666
v 0.06237628 0.38397885 -0.25654803
v 0.06758389 0.38869258 -0.28212056
v 0.07111745 0.38869258 -0.29272127
v 0.11087055 0.38387739 -0.25729290
v 0.07111745 0.39222615 -0.27858699
v 0.06758389 0.33568905 -0.28918770
v 0.05344961 0.34275618 -0.26445272
v 0.09585244 0.33568905 -0.29272127
v 0.12058742 0.35689046 -0.27151986
v 0.11352028 0.33922262 -0.27151986
v 0.05576311 0.34443434 -0.25619002
v 0.11135245 0.33996453 -0.25727613
v 0.08171816 0.32155477 -0.25738558
v 0.07111745 0.32155477 -0.26445272
v 0.05698318 0.38162544 -0.26091915
v 0.06051675 0.38515901 -0.26445272
v 0.05698318 0.33215548 -0.26091915
v 0.05344961 0.37102473 -0.26091915
v 0.08171816 0.33215548 -0.29272127
v 0.09231887 0.32508834 -0.26091915
v 0.12058742 0.36042403 -0.26445272
v 0.11705385 0.34982332 -0.29272127
v 0.09231887 0.32508834 -0.25738558
v 0.06405032 0.32508834 -0.25738558
v 0.06758389 0.32862191 -0.27505343
v 0.06405032 0.33922262 -0.28918770
v 0.06405032 0.37455830 -0.29272127
v 0.07818459 0.32155477 -0.26445272
v 0.10998671 0.33568905 -0.26798629
v 0.11352028 0.34275618 -0.28565413
v 0.06405032 0.32508834 -0.26091915
v 0.06051675 0.36042403 -0.28565413
v 0.10645314 0.33215548 -0.26091915
v 0.10998671 0.33922262 -0.28212056
v 0.06051675 0.34982332 -0.28565413
v 0.05344961 0.35689046 -0.26445272
v 0.05698318 0.36042403 -0.27505343
v 0.09938601 0.33215548 -0.27505343
f 6 1 3
f 7 2 3
f 11 6 3
f 12 7 1
f 12 1 2
f 12 2 7
f 13 7 3
f 13 3 1
f 13 1 7
f 14 2 1
f 15 14 1
f 17 11 10
f 20 3 2
f 20 11 3
f 22 9 15
f 22 16 9
f 24 11 4
f 24 4 23
f 25 1 6
f 25 16 22
f 25 22 15
f 25 15 1
f 26 6 11
f 26 11 24
f 26 24 23
f 26 25 6
f 26 16 25
f 27 17 10
f 29 11 19
f 30 20 2
f 31 30 14
f 31 20 30
f 32 21 15
f 32 5 21
f 32 28 5
f 33 21 8
f 33 14 15
f 33 15 21
f 33 31 14
f 33 8 31
f 35 34 21
f 35 18 34
f 37 9 16
f 37 16 26
f 37 36 9
f 37 26 23
f 37 23 4
f 37 4 36
f 38 5 28
f 39 15 9
f 39 9 36
f 39 36 4
f 39 32 15
f 39 28 32
f 40 10 11
f 40 11 29
f 40 35 10
f 41 18 29
f 41 34 18
f 42 30 2
f 42 2 14
f 42 14 30
f 43 20 31
f 43 19 11
f 43 11 20
f 44 8 21
f 44 21 34
f 44 41 8
f 44 34 41
f 45 35 21
f 45 21 5
f 45 5 38
f 46 27 10
f 46 10 35
f 47 17 27
f 47 27 38
f 47 38 28
f 47 28 17
f 48 39 4
f 48 4 11
f 48 11 17
f 49 40 29
f 49 29 18
f 49 18 35
f 49 35 40
f 50 31 8
f 51 43 31
f 51 19 43
f 52 45 38
f 52 35 45
f 52 46 35
f 52 38 27
f 52 27 46
f 53 48 17
f 54 50 8
f 54 8 41
f 54 41 50
f 55 50 41
f 55 29 19
f 55 19 51
f 55 51 31
f 55 31 50
f 56 53 17
f 56 17 28
f 57 28 39
f 58 39 48
f 58 48 53
f 58 57 39
f 58 28 57
f 58 56 28
f 58 53 56
f 59 55 41
f 59 41 29
f 59 29 55

