# https://github.com/mikedh/trimesh
mtllib material.mtl
usemtl Material123
v -0.04195675 0.35689046 -0.17964706
v -0.03842318 0.29328622 -0.17964706
v -0.03842318 0.35689046 -0.21498275
v -0.11322370 0.35705533 -0.21483753
v -0.11616170 0.31095406 -0.17964706
v -0.08082601 0.29328622 -0.21498275
v -0.03842318 0.35335689 -0.17964706
v -0.10013524 0.28402547 -0.17821469
v -0.11616170 0.35335689 -0.17964706
v -0.04902389 0.29681979 -0.21144919
v -0.11616170 0.34275618 -0.21498275
v -0.03842318 0.35689046 -0.18671420
v -0.04498527 0.28376187 -0.17876643
v -0.11616170 0.35689046 -0.18671420
v -0.10966312 0.30156842 -0.17826213
v -0.04902389 0.30388693 -0.21498275
v -0.03842318 0.33568905 -0.21498275
v -0.10556099 0.31095406 -0.21144919
v -0.04549032 0.28268551 -0.19378134
v -0.11054088 0.35599022 -0.18012493
v -0.10556099 0.28621908 -0.17964706
v -0.06315816 0.29328622 -0.21498275
v -0.04549032 0.30388693 -0.21144919
v -0.11262813 0.32508834 -0.21144919
v -0.09849385 0.30388693 -0.21498275
v -0.04195675 0.28268551 -0.18318063
v -0.08789315 0.28268551 -0.20084848
v -0.05609103 0.29681979 -0.21498275
v -0.05255746 0.28975265 -0.20791562
v -0.04195675 0.32155477 -0.21498275
v -0.04549032 0.28975265 -0.20084848
v -0.11616170 0.31095406 -0.18318063
v -0.10556099 0.28621908 -0.18318063
v -0.11262813 0.32862191 -0.21498275
v -0.10202742 0.28268551 -0.18318063
v -0.03842318 0.29681979 -0.19024777
v -0.06315816 0.28268551 -0.20438205
v -0.09142672 0.29681979 -0.21498275
v -0.05255746 0.29328622 -0.21144919
v -0.04549032 0.31095406 -0.21498275
v -0.11262813 0.30035336 -0.18318063
v -0.10909456 0.31448763 -0.20791562
v -0.10556099 0.31448763 -0.21498275
v -0.03842318 0.29328622 -0.18318063
v -0.04195675 0.28621908 -0.19024777
v -0.04195675 0.29328622 -0.19731491
v -0.07729244 0.28268551 -0.20438205
v -0.04902389 0.28268551 -0.19731491
v -0.08082601 0.28621908 -0.20791562
v -0.09496028 0.28268551 -0.19378134
f 7 2 3
f 11 4 3
f 11 3 6
f 11 5 9
f 12 7 3
f 12 1 7
f 12 3 4
f 12 4 1
f 13 7 1
f 13 2 7
f 14 1 4
f 14 11 9
f 14 4 11
f 15 1 9
f 15 13 1
f 15 8 13
f 15 9 5
f 16 6 3
f 17 3 2
f 17 16 3
f 20 14 9
f 20 9 1
f 20 1 14
f 21 15 5
f 21 8 15
f 22 6 16
f 23 10 16
f 25 11 6
f 26 2 13
f 27 19 26
f 28 22 16
f 30 16 17
f 31 10 23
f 31 29 10
f 31 19 29
f 32 5 11
f 32 11 24
f 33 18 25
f 34 24 11
f 34 11 25
f 34 18 24
f 35 26 13
f 35 13 8
f 35 27 26
f 35 8 21
f 35 21 33
f 36 17 2
f 37 22 29
f 37 19 27
f 38 25 6
f 39 10 29
f 39 28 16
f 39 16 10
f 39 29 22
f 39 22 28
f 40 30 23
f 40 23 16
f 40 16 30
f 41 21 5
f 41 5 32
f 41 33 21
f 41 32 24
f 42 24 18
f 42 18 33
f 42 41 24
f 42 33 41
f 43 34 25
f 43 25 18
f 43 18 34
f 44 36 2
f 44 2 26
f 45 26 19
f 45 19 31
f 45 44 26
f 45 36 44
f 46 30 17
f 46 17 36
f 46 23 30
f 46 36 45
f 46 45 31
f 46 31 23
f 47 37 27
f 48 37 29
f 48 29 19
f 48 19 37
f 49 38 6
f 49 27 38
f 49 47 27
f 49 37 47
f 49 6 22
f 49 22 37
f 50 38 27
f 50 27 35
f 50 35 33
f 50 33 25
f 50 25 38

