# https://github.com/mikedh/trimesh
mtllib material.mtl
usemtl Material000
v 0.00044608 -0.24734982 0.21257908
v 0.00023699 -0.36509569 0.19254588
v 0.00044608 -0.24734982 0.16310912
v -0.09654858 -0.24668718 0.16327284
v -0.07729244 -0.33922262 0.21257908
v -0.02428891 -0.35689046 0.16310912
v -0.09895448 -0.24611242 0.19168925
v 0.00044608 -0.36749117 0.18784410
v 0.00044608 -0.34275618 0.21257908
v -0.09849385 -0.25441696 0.16310912
v -0.10202742 -0.24734982 0.21257908
v 0.00024373 -0.35422112 0.16376417
v -0.03824658 -0.36206661 0.19341837
v -0.07219978 -0.34212495 0.21333361
v -0.04549032 -0.34628975 0.16310912
v -0.10202742 -0.25088339 0.19137767
v 0.00044608 -0.36042403 0.17017626
v -0.02075534 -0.36749117 0.18784410
v -0.02066575 -0.36476011 0.19289875
v -0.04549032 -0.36042403 0.18784410
v -0.10202742 -0.25088339 0.21257908
v -0.07375887 -0.34275618 0.20551195
v -0.07729244 -0.33922262 0.20904551
v -0.01722177 -0.36042403 0.17017626
v -0.03842318 -0.36395760 0.18784410
v -0.08435958 -0.28268551 0.16310912
v -0.04195675 -0.34982332 0.16310912
v -0.05255746 -0.33568905 0.16310912
v -0.03135604 -0.35689046 0.16664269
v -0.03488961 -0.35335689 0.16310912
f 7 1 3
f 7 3 4
f 8 3 1
f 9 8 1
f 9 2 8
f 10 4 3
f 10 3 6
f 11 1 7
f 11 7 4
f 12 6 3
f 14 2 9
f 14 9 1
f 14 1 11
f 15 10 6
f 16 11 4
f 16 4 10
f 17 6 12
f 17 12 3
f 17 3 8
f 18 8 2
f 18 17 8
f 19 14 13
f 19 2 14
f 19 18 2
f 19 13 18
f 21 14 11
f 21 5 14
f 21 16 5
f 21 11 16
f 22 20 14
f 22 14 5
f 23 16 10
f 23 5 16
f 23 22 5
f 24 18 6
f 24 6 17
f 24 17 18
f 25 13 14
f 25 14 20
f 25 18 13
f 25 6 18
f 26 10 15
f 26 23 10
f 26 22 23
f 27 22 15
f 27 20 22
f 27 25 20
f 27 15 6
f 28 26 15
f 28 15 22
f 28 22 26
f 29 6 25
f 30 27 6
f 30 6 29
f 30 29 25
f 30 25 27

