# https://github.com/mikedh/trimesh
mtllib material.mtl
usemtl Material095
v -0.05901769 -0.30718846 0.39189100
v -0.05796812 -0.36478711 0.35969102
v -0.05962460 -0.30742050 0.31505258
v -0.08640581 -0.30694288 0.31514855
v -0.08435958 -0.34275618 0.35392184
v -0.07375887 -0.37102473 0.31505258
v -0.06148520 -0.30687623 0.39030772
v -0.05775855 -0.31727947 0.39008378
v -0.05962460 -0.37102473 0.31505258
v -0.08789315 -0.32155477 0.31505258
v -0.06669173 -0.37102473 0.35038827
v -0.08807246 -0.30670256 0.33311174
v -0.06669173 -0.33215548 0.38572396
v -0.05809059 -0.36829052 0.35247244
v -0.08435958 -0.34982332 0.32211972
v -0.08082601 -0.35689046 0.35038827
v -0.08435958 -0.30742050 0.36452255
v -0.09142672 -0.31095406 0.33978756
v -0.06315816 -0.34982332 0.37865682
v -0.06315816 -0.31802120 0.39279110
v -0.06315816 -0.37102473 0.35392184
v -0.08082601 -0.35689046 0.31505258
v -0.07729244 -0.36395760 0.34332113
v -0.08435958 -0.34982332 0.34685470
v -0.07729244 -0.34275618 0.36805612
v -0.07438456 -0.30694352 0.37709421
v -0.09142672 -0.30742050 0.33978756
v -0.08789315 -0.31448763 0.35392184
v -0.09142672 -0.31095406 0.33272043
v -0.05962460 -0.34982332 0.37865682
v -0.07375887 -0.36042403 0.35745541
v -0.07022530 -0.30742050 0.38925753
v -0.06315816 -0.32862191 0.38925753
v -0.08435958 -0.34275618 0.31505258
v -0.08082601 -0.36042403 0.32211972
v -0.07022530 -0.37102473 0.34332113
v -0.08789315 -0.33215548 0.33978756
v -0.08082601 -0.34982332 0.35745541
v -0.08082601 -0.32155477 0.37158969
v -0.07022530 -0.33922262 0.37865682
v -0.08789315 -0.30742050 0.35392184
v -0.08789315 -0.32155477 0.35038827
v -0.08789315 -0.32862191 0.32211972
v -0.06315816 -0.36749117 0.36098898
v -0.07375887 -0.34982332 0.36805612
v -0.07022530 -0.31095406 0.38925753
v -0.05962460 -0.32862191 0.38925753
v -0.08082601 -0.36042403 0.33625400
v -0.07375887 -0.37102473 0.32565329
v -0.08789315 -0.33215548 0.32918686
v -0.07729244 -0.35335689 0.36098898
v -0.08082601 -0.33922262 0.36452255
v -0.08435958 -0.32862191 0.36098898
v -0.08435958 -0.31448763 0.36452255
v -0.07729244 -0.31802120 0.37865682
v -0.06669173 -0.33922262 0.38219039
v -0.06669173 -0.36749117 0.35745541
v -0.06669173 -0.32155477 0.38925753
v -0.08082601 -0.33215548 0.36805612
v -0.07375887 -0.32155477 0.38219039
v -0.07729244 -0.33568905 0.37158969
f 7 1 3
f 8 3 1
f 9 6 3
f 10 4 3
f 10 3 6
f 11 6 9
f 12 7 3
f 12 3 4
f 14 9 3
f 14 8 2
f 14 3 8
f 20 8 1
f 21 11 9
f 21 9 14
f 21 14 2
f 22 10 6
f 24 5 18
f 26 7 12
f 26 12 17
f 27 12 4
f 28 27 18
f 29 18 27
f 29 27 4
f 29 4 10
f 30 2 8
f 31 16 23
f 32 20 1
f 32 1 7
f 32 7 26
f 32 26 17
f 33 13 19
f 33 19 30
f 34 22 15
f 34 15 10
f 34 10 22
f 35 22 6
f 35 15 22
f 35 24 15
f 36 6 11
f 36 31 23
f 37 24 18
f 37 15 24
f 37 18 29
f 38 24 16
f 38 5 24
f 41 17 12
f 41 12 27
f 41 28 17
f 41 27 28
f 42 28 18
f 42 18 5
f 42 5 28
f 43 29 10
f 43 10 15
f 44 21 2
f 44 2 30
f 44 30 19
f 45 40 25
f 46 20 32
f 47 33 30
f 47 30 8
f 47 8 20
f 47 20 33
f 48 35 6
f 48 23 16
f 48 16 24
f 48 24 35
f 49 36 23
f 49 6 36
f 49 48 6
f 49 23 48
f 50 37 29
f 50 15 37
f 50 43 15
f 50 29 43
f 51 38 16
f 51 16 31
f 51 31 45
f 51 45 25
f 51 25 38
f 52 38 25
f 52 5 38
f 53 28 5
f 54 39 17
f 54 17 28
f 54 53 39
f 54 28 53
f 55 32 17
f 55 17 39
f 55 46 32
f 56 19 13
f 56 13 40
f 56 45 19
f 56 40 45
f 57 11 21
f 57 21 44
f 57 36 11
f 57 31 36
f 57 44 19
f 57 45 31
f 57 19 45
f 58 46 13
f 58 20 46
f 58 33 20
f 58 13 33
f 59 39 53
f 59 55 39
f 59 53 5
f 59 5 52
f 60 40 13
f 60 13 46
f 60 46 55
f 61 25 40
f 61 40 60
f 61 59 52
f 61 52 25
f 61 60 55
f 61 55 59

