# https://github.com/mikedh/trimesh
mtllib material.mtl
usemtl Material050
v -0.07022530 -0.24734982 0.31505258
v -0.07022530 -0.30742050 0.31505258
v -0.07022530 -0.25088339 0.21257908
v -0.09835662 -0.24732661 0.21254862
v -0.10403329 -0.30229676 0.31495948
v -0.08166922 -0.30706238 0.21362343
v -0.07022530 -0.24734982 0.21257908
v -0.08640581 -0.30694288 0.31514855
v -0.10202742 -0.24734982 0.31505258
v -0.07022530 -0.30742050 0.21257908
v -0.10765735 -0.29215439 0.25971678
v -0.09142672 -0.30742050 0.23378050
v -0.10630326 -0.24768058 0.24616317
v -0.10797341 -0.28476715 0.25345563
v -0.09142672 -0.30742050 0.26558262
v -0.08789315 -0.30742050 0.21611265
v -0.10408773 -0.30212697 0.30806742
v -0.10556099 -0.24734982 0.26558262
v -0.10556099 -0.26855124 0.24084764
v -0.10556099 -0.26148410 0.24084764
f 1 2 3
f 7 1 3
f 7 3 4
f 7 4 1
f 8 2 1
f 9 1 4
f 9 8 1
f 9 5 8
f 10 3 2
f 10 6 4
f 10 4 3
f 12 10 2
f 14 11 5
f 14 5 9
f 15 8 5
f 15 5 12
f 15 12 2
f 15 2 8
f 16 6 10
f 16 10 12
f 16 12 11
f 16 11 14
f 16 14 4
f 16 4 6
f 17 12 5
f 17 5 11
f 17 11 12
f 18 9 4
f 18 4 13
f 18 14 9
f 18 13 14
f 19 4 14
f 20 19 14
f 20 14 13
f 20 13 4
f 20 4 19

