# https://github.com/mikedh/trimesh
mtllib material.mtl
usemtl Material042
v 0.01104678 -0.39929329 0.33978756
v 0.05698318 -0.39929329 0.30091831
v 0.02069411 -0.39363178 0.33414180
v -0.05744226 -0.39447988 0.29700554
v -0.01368820 -0.49116608 0.30091831
v 0.05501525 -0.39347290 0.29947142
v -0.02294644 -0.39374923 0.33414354
v 0.04284890 -0.39929329 0.32211972
v 0.00981181 -0.48679645 0.29556394
v 0.01064838 -0.39396388 0.33803699
v -0.01368820 -0.39929329 0.33978756
v -0.05255746 -0.39929329 0.31505258
v -0.03339663 -0.39365863 0.32704421
v 0.02871463 -0.39575972 0.33272043
v 0.04991604 -0.39575972 0.31505258
v -0.02581312 -0.47257353 0.29521839
v 0.05698318 -0.39929329 0.29738474
v 0.00751321 -0.49116608 0.30091831
v 0.00397965 -0.48409894 0.30445187
v -0.01297054 -0.39410987 0.33792988
v -0.02428891 -0.39929329 0.33625400
v -0.05699544 -0.39421783 0.30046146
v 0.04284890 -0.39575972 0.32211972
v -0.01320278 -0.49031501 0.29586736
v -0.04195675 -0.44522968 0.30091831
v 0.05591393 -0.39451720 0.29659859
v 0.02164749 -0.39929329 0.33625400
v 0.02518106 -0.46643110 0.30091831
v -0.01015463 -0.48409894 0.30445187
v -0.04902389 -0.39575972 0.31858615
v -0.02782247 -0.47349823 0.30091831
v -0.01722177 -0.48056537 0.30445187
v 0.00703797 -0.49031318 0.29562493
v -0.05962460 -0.39929329 0.30091831
v 0.02312402 -0.46525874 0.29537924
v 0.02871463 -0.39929329 0.33272043
v 0.04991604 -0.39929329 0.31505258
v 0.04284890 -0.43109541 0.29738474
v 0.01104678 -0.48763251 0.30091831
v -0.03842318 -0.40282685 0.32565329
v -0.05255746 -0.39575972 0.31505258
v -0.04549032 -0.42756184 0.30798544
v -0.04195675 -0.44522968 0.29738474
v -0.02075534 -0.48409894 0.30091831
v -0.01951846 -0.48343596 0.29555763
v 0.03224820 -0.44876325 0.30445187
v 0.04284890 -0.43109541 0.30091831
v 0.03578177 -0.42402827 0.31505258
v -0.04902389 -0.39929329 0.31858615
v -0.05609103 -0.40636042 0.30445187
v -0.04902389 -0.42756184 0.30091831
v -0.05962460 -0.39929329 0.29738474
v 0.03931533 -0.43462897 0.30445187
v -0.04549032 -0.42049470 0.31151901
v -0.03488961 -0.39929329 0.32918686
v -0.04902389 -0.42756184 0.29738474
f 10 3 7
f 11 1 10
f 13 7 3
f 13 3 6
f 14 10 1
f 14 3 10
f 15 2 6
f 19 1 11
f 19 18 1
f 19 5 18
f 20 11 10
f 20 10 7
f 21 20 7
f 21 11 20
f 22 13 6
f 22 6 4
f 23 14 8
f 23 8 15
f 23 3 14
f 23 15 6
f 23 6 3
f 26 6 2
f 26 2 17
f 26 4 6
f 26 16 4
f 27 14 1
f 27 1 18
f 29 19 11
f 29 11 5
f 29 5 19
f 30 21 7
f 30 7 13
f 32 5 11
f 32 11 21
f 33 16 9
f 33 18 5
f 33 5 24
f 34 22 4
f 35 26 17
f 35 9 16
f 35 16 26
f 35 28 9
f 36 8 14
f 36 14 27
f 37 15 8
f 37 2 15
f 38 17 2
f 38 35 17
f 38 28 35
f 39 9 28
f 39 33 9
f 39 18 33
f 39 36 27
f 39 27 18
f 41 30 13
f 41 13 22
f 41 22 34
f 41 34 12
f 41 12 30
f 42 25 31
f 43 31 25
f 43 16 31
f 44 24 5
f 44 5 32
f 44 32 21
f 44 40 31
f 44 21 40
f 45 33 24
f 45 16 33
f 45 24 44
f 45 44 31
f 45 31 16
f 46 37 8
f 47 38 2
f 47 28 38
f 47 46 28
f 47 2 37
f 48 39 28
f 48 8 36
f 48 36 39
f 48 46 8
f 48 28 46
f 49 30 12
f 50 25 42
f 50 42 12
f 50 12 34
f 51 43 25
f 51 50 34
f 51 25 50
f 52 34 4
f 52 4 16
f 52 51 34
f 53 47 37
f 53 37 46
f 53 46 47
f 54 42 31
f 54 31 40
f 54 40 49
f 54 49 12
f 54 12 42
f 55 49 40
f 55 40 21
f 55 21 30
f 55 30 49
f 56 52 16
f 56 16 43
f 56 43 51
f 56 51 52

