# https://github.com/mikedh/trimesh
mtllib material.mtl
usemtl Material036
v -0.04549032 -0.16607774 -0.20084848
v -0.04590768 -0.18373068 -0.20082028
v -0.04549032 -0.16961131 -0.25031844
v -0.09849385 -0.16607774 -0.25031844
v -0.10556099 -0.16961131 -0.22204989
v -0.10120797 -0.18373163 -0.25026452
v -0.05177864 -0.16412693 -0.25022062
v -0.07375887 -0.16254417 -0.20084848
v -0.04593329 -0.18384101 -0.25035407
v -0.10556099 -0.18021201 -0.24325131
v -0.04549032 -0.16607774 -0.21144919
v -0.07375887 -0.18374558 -0.20084848
v -0.05017255 -0.16286072 -0.20077651
v -0.10202742 -0.16254417 -0.22204989
v -0.10202742 -0.17314488 -0.25031844
v -0.10420811 -0.18370939 -0.22185916
v -0.10202742 -0.16961131 -0.24678487
v -0.09849385 -0.16254417 -0.24325131
v -0.10556099 -0.18374558 -0.24325131
v -0.10556099 -0.16961131 -0.22558346
v -0.09240547 -0.16458149 -0.24985876
v -0.10202742 -0.16254417 -0.22558346
f 1 2 3
f 7 3 4
f 9 3 2
f 9 4 3
f 11 1 3
f 11 3 7
f 12 8 5
f 12 9 2
f 13 2 1
f 13 11 7
f 13 1 11
f 13 12 2
f 13 8 12
f 14 5 8
f 15 9 6
f 15 4 9
f 16 12 5
f 17 4 15
f 17 15 10
f 18 4 17
f 18 13 7
f 18 14 8
f 18 8 13
f 19 15 6
f 19 10 15
f 19 6 9
f 19 9 12
f 19 12 16
f 19 16 5
f 19 5 10
f 20 5 14
f 20 17 10
f 20 10 5
f 21 18 7
f 21 7 4
f 21 4 18
f 22 18 17
f 22 14 18
f 22 20 14
f 22 17 20

