# https://github.com/mikedh/trimesh
mtllib material.mtl
usemtl Material069
v -0.10202742 -0.24734982 0.31505258
v -0.10202742 -0.30742050 0.30445187
v -0.10556099 -0.24734982 0.24084764
v -0.14089668 -0.25795053 0.22671336
v -0.12322883 -0.30388693 0.31505258
v -0.11969527 -0.31095406 0.24791477
v -0.13736311 -0.24734982 0.25851548
v -0.10202742 -0.24734982 0.26558262
v -0.10403329 -0.30229676 0.31495948
v -0.10202742 -0.29681979 0.26558262
v -0.12322883 -0.28268551 0.22671336
v -0.14089668 -0.30388693 0.24438120
v -0.12322883 -0.31802120 0.29031760
v -0.11851702 -0.24730270 0.31464489
v -0.13736311 -0.24734982 0.23024693
v -0.10909456 -0.31095406 0.31505258
v -0.11262813 -0.31802120 0.27264975
v -0.10556099 -0.28621908 0.24791477
v -0.13736311 -0.30035336 0.23378050
v -0.14443025 -0.27561838 0.25498191
v -0.13736311 -0.30388693 0.27618332
v -0.12322883 -0.27915194 0.31505258
v -0.14089668 -0.25088339 0.24791477
v -0.12322883 -0.25795053 0.22671336
v -0.11616170 -0.31095406 0.31505258
v -0.10556099 -0.31095406 0.31151901
v -0.10202742 -0.30742050 0.29738474
v -0.11262813 -0.31448763 0.26204905
v -0.13029597 -0.31802120 0.26558262
v -0.11969527 -0.29328622 0.23378050
v -0.10556099 -0.27208481 0.24084764
v -0.14443025 -0.27915194 0.23024693
v -0.12322883 -0.24734982 0.31151901
v -0.12676240 -0.31095406 0.29738474
v -0.14443025 -0.29328622 0.25144834
v -0.13736311 -0.29328622 0.27971689
v -0.14089668 -0.25088339 0.23378050
v -0.14443025 -0.26855124 0.25144834
v -0.13029597 -0.25088339 0.22671336
v -0.10909456 -0.25441696 0.23731407
v -0.11262813 -0.31802120 0.29385117
v -0.10909456 -0.31095406 0.26558262
v -0.11616170 -0.31802120 0.26204905
v -0.10909456 -0.30035336 0.25144834
v -0.13029597 -0.31095406 0.24438120
v -0.13382954 -0.31448763 0.26911619
v -0.12322883 -0.29328622 0.23024693
v -0.11616170 -0.28621908 0.23378050
v -0.14443025 -0.28621908 0.23378050
v -0.14089668 -0.28268551 0.22671336
v -0.13382954 -0.30742050 0.28325046
v -0.12322883 -0.30742050 0.31151901
v -0.14089668 -0.30388693 0.25498191
v -0.13029597 -0.30035336 0.29738474
v -0.12676240 -0.28975265 0.30798544
v -0.14089668 -0.29328622 0.26911619
v -0.14089668 -0.28268551 0.26911619
v -0.14443025 -0.26148410 0.23378050
v -0.12676240 -0.24734982 0.30091831
v -0.13382954 -0.25088339 0.22671336
v -0.11969527 -0.24734982 0.23024693
v -0.10909456 -0.26148410 0.23731407
v -0.11969527 -0.31802120 0.29385117
v -0.10909456 -0.31448763 0.27618332
f 8 1 2
f 9 2 1
f 10 8 2
f 10 3 8
f 14 8 3
f 14 1 8
f 15 7 14
f 16 9 1
f 16 1 5
f 22 5 1
f 22 1 14
f 23 7 15
f 24 11 4
f 25 16 5
f 26 2 9
f 26 9 16
f 27 10 2
f 27 2 17
f 29 17 13
f 31 3 10
f 31 10 18
f 33 22 14
f 35 20 32
f 37 23 15
f 37 15 4
f 38 32 20
f 39 24 4
f 40 11 24
f 40 3 31
f 41 16 25
f 41 26 16
f 41 13 17
f 41 17 2
f 41 2 26
f 42 10 27
f 42 17 28
f 43 28 17
f 43 6 28
f 43 17 29
f 44 28 6
f 44 42 28
f 44 18 10
f 44 10 42
f 44 6 30
f 45 43 29
f 45 6 43
f 45 29 12
f 45 12 19
f 46 12 29
f 46 29 13
f 46 13 34
f 47 45 19
f 47 30 6
f 47 6 45
f 48 31 18
f 48 30 47
f 48 47 11
f 48 11 31
f 48 44 30
f 48 18 44
f 49 19 12
f 49 35 32
f 49 12 35
f 50 32 4
f 50 4 11
f 50 49 32
f 50 19 49
f 50 47 19
f 50 11 47
f 51 5 21
f 51 46 34
f 51 21 46
f 52 25 5
f 52 51 34
f 52 5 51
f 52 34 13
f 52 13 25
f 53 35 12
f 53 21 35
f 53 46 21
f 53 12 46
f 54 36 21
f 54 21 5
f 55 5 22
f 55 22 33
f 55 54 5
f 55 36 54
f 56 35 21
f 56 21 36
f 56 20 35
f 57 56 36
f 57 20 56
f 57 55 33
f 57 36 55
f 58 37 4
f 58 4 32
f 58 32 38
f 58 38 23
f 58 23 37
f 59 7 23
f 59 23 38
f 59 33 14
f 59 14 7
f 59 38 20
f 59 57 33
f 59 20 57
f 60 39 4
f 60 4 15
f 60 15 39
f 61 39 15
f 61 24 39
f 61 40 24
f 61 3 40
f 61 15 14
f 61 14 3
f 62 40 31
f 62 31 11
f 62 11 40
f 63 41 25
f 63 25 13
f 63 13 41
f 64 42 27
f 64 27 17
f 64 17 42

