# https://github.com/mikedh/trimesh
mtllib material.mtl
usemtl Material112
v 0.07111745 -0.11307420 -0.04183788
v 0.07111745 -0.15547703 -0.04183788
v 0.07111745 -0.15547703 -0.09484141
v -0.05962460 -0.12014134 -0.09484141
v -0.05962460 -0.15547703 -0.04183788
v 0.05344961 -0.11307420 -0.09484141
v -0.05962460 -0.11307420 -0.04183788
v -0.05962460 -0.15547703 -0.09484141
v 0.07079045 -0.12936605 -0.09417679
v -0.05255746 -0.11307420 -0.09484141
v -0.05861694 -0.11300764 -0.08564698
v 0.06942522 -0.11441113 -0.07851980
v 0.06758389 -0.12367491 -0.09484141
v 0.06405032 -0.11307420 -0.08777427
f 1 2 3
f 5 2 1
f 5 3 2
f 6 3 4
f 7 5 1
f 7 4 5
f 8 5 4
f 8 4 3
f 8 3 5
f 9 1 3
f 10 6 4
f 11 7 1
f 11 6 10
f 11 10 4
f 11 4 7
f 12 1 9
f 13 9 3
f 13 3 6
f 13 12 9
f 14 1 12
f 14 11 1
f 14 6 11
f 14 13 6
f 14 12 13

