# https://github.com/mikedh/trimesh
mtllib material.mtl
usemtl Material033
v -0.06718223 -0.22070099 -0.31400998
v -0.03842318 -0.23321555 -0.35632551
v -0.04092467 -0.22222142 -0.36061775
v -0.10347779 -0.22161830 -0.36079993
v -0.08082601 -0.26501767 -0.35632551
v -0.08652706 -0.22042120 -0.32886427
v -0.04549032 -0.22261484 -0.33865766
v -0.05609103 -0.26148410 -0.35632551
v -0.05761293 -0.25992830 -0.36222477
v -0.07375887 -0.22614841 -0.31392268
v -0.10202742 -0.23674912 -0.35632551
v -0.03842318 -0.22261484 -0.35279194
v -0.05609103 -0.22614841 -0.32098982
v -0.08718989 -0.26083490 -0.36175210
v -0.10305876 -0.22600366 -0.36162789
v -0.06390831 -0.26386668 -0.36164260
v -0.04137024 -0.23250741 -0.36109231
v -0.04902389 -0.25441696 -0.35632551
v -0.07319329 -0.22123746 -0.31453853
v -0.06315816 -0.26501767 -0.35632551
v -0.10556099 -0.22261484 -0.35632551
v -0.08789315 -0.22614841 -0.32805696
v -0.04549032 -0.22614841 -0.33865766
v -0.05734164 -0.22117330 -0.32172052
v -0.06669173 -0.22614841 -0.31392268
v -0.08789315 -0.26148410 -0.35632551
v -0.09742106 -0.24333061 -0.36192453
v -0.08046966 -0.26448620 -0.36115203
v -0.05110931 -0.25291379 -0.36216402
v -0.04195675 -0.23674912 -0.35279194
v -0.10556099 -0.22614841 -0.35632551
v -0.03842318 -0.22614841 -0.35279194
v -0.09849385 -0.24381625 -0.35632551
v -0.04549032 -0.24381625 -0.35279194
v -0.10032442 -0.23618516 -0.36167436
f 6 1 3
f 6 3 4
f 12 2 3
f 15 4 3
f 16 9 8
f 16 14 9
f 17 3 2
f 18 8 9
f 18 13 8
f 19 10 1
f 19 1 6
f 20 10 5
f 20 16 8
f 21 6 4
f 22 6 21
f 22 19 6
f 22 10 19
f 23 12 7
f 23 7 13
f 24 12 3
f 24 3 1
f 24 7 12
f 24 13 7
f 24 1 13
f 25 13 1
f 25 1 10
f 25 10 20
f 25 20 8
f 25 8 13
f 26 5 10
f 26 10 22
f 27 9 14
f 28 14 16
f 28 26 14
f 28 5 26
f 28 20 5
f 28 16 20
f 29 15 3
f 29 3 17
f 29 27 15
f 29 9 27
f 29 18 9
f 29 17 2
f 29 2 18
f 30 18 2
f 30 23 13
f 30 2 23
f 31 22 21
f 31 11 22
f 31 21 4
f 31 4 15
f 32 23 2
f 32 2 12
f 32 12 23
f 33 26 22
f 33 22 11
f 33 11 27
f 33 27 14
f 33 14 26
f 34 30 13
f 34 13 18
f 34 18 30
f 35 27 11
f 35 11 31
f 35 31 15
f 35 15 27

