# https://github.com/mikedh/trimesh
mtllib material.mtl
usemtl Material098
v 0.12412099 -0.08480565 0.11010559
v 0.12765456 -0.12014134 0.09243774
v 0.11705385 -0.08833922 0.00409852
v 0.06758389 -0.08480565 0.00409852
v 0.06758389 -0.12014134 0.11010559
v 0.06758389 -0.12014134 0.00409852
v 0.11245110 -0.08479253 0.00442798
v 0.12765456 -0.11660777 0.01469922
v 0.12153903 -0.12020689 0.10968534
v 0.06758389 -0.08480565 0.11010559
v 0.12058742 -0.08480565 0.02176636
v 0.12765456 -0.10247350 0.07830347
v 0.12271786 -0.12075705 0.00431944
v 0.11375224 -0.08476512 0.00864945
v 0.12412099 -0.10954064 0.00409852
v 0.12765456 -0.11307420 0.09243774
v 0.12412099 -0.08480565 0.06063562
v 0.12765456 -0.12014134 0.01469922
v 0.12765456 -0.10954064 0.08890417
v 0.12765456 -0.10247350 0.07123633
f 6 4 3
f 6 5 4
f 7 3 4
f 9 2 1
f 9 1 5
f 10 5 1
f 10 4 5
f 11 3 7
f 12 2 8
f 13 2 9
f 13 9 5
f 13 5 6
f 14 7 4
f 14 4 10
f 14 10 1
f 14 11 7
f 15 11 8
f 15 3 11
f 15 13 6
f 15 6 3
f 16 1 2
f 16 2 12
f 17 1 12
f 17 14 1
f 17 11 14
f 17 8 11
f 18 8 2
f 18 2 13
f 18 15 8
f 18 13 15
f 19 16 12
f 19 12 1
f 19 1 16
f 20 17 12
f 20 12 8
f 20 8 17

