# https://github.com/mikedh/trimesh
mtllib material.mtl
usemtl Material016
v 0.04991604 -0.05653710 0.20904551
v 0.10291957 -0.24381625 0.20904551
v 0.11887580 -0.05660777 0.10978156
v -0.11817964 -0.05670528 0.10985190
v -0.10556099 -0.23321555 0.20904551
v 0.10291957 -0.24734982 0.11010559
v -0.11969527 -0.05653710 0.12070629
v 0.10998671 -0.07067138 0.16310912
v 0.12412099 -0.15547703 0.11363916
v 0.11728999 -0.19023819 0.10932836
v -0.10202742 -0.24381625 0.11010559
v 0.12058742 -0.05653710 0.12070629
v -0.05609103 -0.06007067 0.20904551
v 0.10291957 -0.15901060 0.20904551
v 0.12412099 -0.15547703 0.11010559
v 0.11705385 -0.20848057 0.11363916
v -0.09601398 -0.24613983 0.10986665
v -0.12322883 -0.17667844 0.11010559
v 0.10998671 -0.05653710 0.15604198
v -0.10556099 -0.16607774 0.20904551
v -0.05255746 -0.05653710 0.20904551
v 0.08525173 -0.05653710 0.18431053
v 0.11352028 -0.17667844 0.18784410
v 0.12412099 -0.08833922 0.11010559
v 0.11352028 -0.20141343 0.17724339
v 0.10998671 -0.22968198 0.11717272
v 0.11705385 -0.20848057 0.11010559
v 0.12058742 -0.19081272 0.11363916
v -0.09933954 -0.24689523 0.20844892
v -0.12322883 -0.09540636 0.11010559
v -0.11616170 -0.20848057 0.11010559
v 0.11705385 -0.07420495 0.14544128
v -0.10909456 -0.05653710 0.15604198
v -0.11262813 -0.19081272 0.19137767
v 0.09585244 -0.05653710 0.17370983
v 0.07465102 -0.08480565 0.20551195
v 0.10998671 -0.16961131 0.19844481
v 0.12412099 -0.10600707 0.11717272
v 0.11352028 -0.18727915 0.18784410
v 0.11352028 -0.21908127 0.11717272
v 0.10291957 -0.24734982 0.11717272
v 0.10998671 -0.22968198 0.11010559
v -0.10202742 -0.24734982 0.17370983
v -0.10909456 -0.22968198 0.11010559
v -0.10556099 -0.23674912 0.20197838
v 0.11352028 -0.07420495 0.15604198
v 0.11705385 -0.06007067 0.13837414
v -0.08789315 -0.07773852 0.19137767
v -0.11616170 -0.07067138 0.14544128
v -0.07729244 -0.05653710 0.19137767
v -0.11262813 -0.20494700 0.18431053
v -0.10909456 -0.19787986 0.20197838
v -0.12322883 -0.12367491 0.12070629
v 0.09585244 -0.14134276 0.20904551
v 0.10645314 -0.06007067 0.16310912
v 0.05698318 -0.06360424 0.20904551
v 0.10645314 -0.16607774 0.20551195
v 0.11705385 -0.08480565 0.14897484
v 0.12412099 -0.08833922 0.11363916
v 0.10645314 -0.19434629 0.20904551
v 0.12412099 -0.14840989 0.11717272
v 0.09730048 -0.24692320 0.20881688
v -0.11616170 -0.20848057 0.11363916
v -0.10909456 -0.22968198 0.11717272
f 5 2 1
f 7 3 4
f 10 4 3
f 12 7 1
f 12 3 7
f 13 5 1
f 14 1 2
f 17 10 6
f 17 4 10
f 18 4 17
f 19 12 1
f 20 5 13
f 21 13 1
f 21 1 7
f 22 19 1
f 24 15 10
f 24 10 3
f 24 3 12
f 24 9 15
f 27 10 15
f 28 15 9
f 28 9 25
f 28 25 2
f 28 2 16
f 28 27 15
f 28 16 27
f 29 2 5
f 30 7 4
f 30 4 18
f 31 18 17
f 33 21 7
f 35 19 22
f 38 9 24
f 39 2 25
f 39 25 9
f 39 38 23
f 40 16 2
f 40 2 26
f 40 27 16
f 41 26 2
f 41 6 26
f 42 6 10
f 42 10 27
f 42 26 6
f 42 40 26
f 42 27 40
f 43 17 6
f 43 6 41
f 43 11 17
f 44 31 17
f 44 17 11
f 44 11 43
f 45 43 29
f 45 29 5
f 46 19 8
f 47 32 12
f 47 12 19
f 47 46 32
f 47 19 46
f 48 33 20
f 48 20 13
f 49 33 7
f 49 20 33
f 49 34 20
f 50 13 21
f 50 21 33
f 50 48 13
f 50 33 48
f 51 34 18
f 51 5 34
f 51 45 5
f 51 18 45
f 52 34 5
f 52 5 20
f 52 20 34
f 53 30 18
f 53 18 34
f 53 34 49
f 53 49 7
f 53 7 30
f 54 35 22
f 54 14 35
f 54 22 36
f 54 1 14
f 55 35 14
f 55 14 8
f 55 8 19
f 55 19 35
f 56 36 22
f 56 22 1
f 56 54 36
f 56 1 54
f 57 8 14
f 57 46 8
f 57 37 46
f 58 37 23
f 58 46 37
f 58 32 46
f 59 38 24
f 59 24 12
f 59 12 32
f 59 32 58
f 59 58 23
f 59 23 38
f 60 2 39
f 60 37 57
f 60 57 14
f 60 14 2
f 60 39 23
f 60 23 37
f 61 39 9
f 61 9 38
f 61 38 39
f 62 41 2
f 62 2 29
f 62 43 41
f 62 29 43
f 63 45 18
f 63 18 31
f 63 31 44
f 64 44 43
f 64 43 45
f 64 63 44
f 64 45 63

