# https://github.com/mikedh/trimesh
mtllib material.mtl
usemtl Material092
v 0.10291957 0.37809187 -0.17964706
v 0.11705385 0.31095406 -0.17964706
v 0.11705385 0.36749117 -0.21498275
v 0.04991604 0.38869258 -0.21498275
v 0.04284890 0.28621908 -0.17964706
v 0.09585244 0.39929329 -0.21498275
v 0.11705385 0.35335689 -0.17964706
v 0.10116405 0.28422956 -0.17814811
v 0.04284890 0.36395760 -0.17964706
v 0.06758389 0.29328622 -0.21498275
v 0.10998671 0.38869258 -0.21144919
v 0.06225481 0.39297424 -0.21627296
v 0.11128645 0.30192051 -0.17822306
v 0.10645314 0.31448763 -0.21498275
v 0.03931533 0.36042403 -0.21144919
v 0.04772397 0.28329712 -0.17918246
v 0.10645314 0.39222615 -0.20791562
v 0.10998671 0.38869258 -0.21498275
v 0.11352028 0.38162544 -0.21144919
v 0.11352028 0.36749117 -0.18318063
v 0.07465102 0.39929329 -0.20438205
v 0.04284890 0.32508834 -0.21498275
v 0.10998671 0.37102473 -0.17964706
v 0.06758389 0.38162544 -0.17964706
v 0.10645314 0.28621908 -0.17964706
v 0.11352028 0.32862191 -0.21498275
v 0.08878530 0.29681979 -0.21498275
v 0.04284890 0.37455830 -0.20438205
v 0.03931533 0.31802120 -0.17964706
v 0.03931533 0.35335689 -0.17964706
v 0.08525173 0.28268551 -0.20084848
v 0.05698318 0.28268551 -0.20084848
v 0.08878530 0.39929329 -0.20438205
v 0.10291957 0.39575972 -0.21498275
v 0.07779969 0.39976850 -0.21618307
v 0.11705385 0.36749117 -0.21144919
v 0.11352028 0.38162544 -0.21498275
v 0.10998671 0.38162544 -0.19731491
v 0.04991604 0.30742050 -0.21498275
v 0.04284890 0.37455830 -0.21498275
v 0.11352028 0.36395760 -0.17964706
v 0.10645314 0.37809187 -0.18318063
v 0.09585244 0.38162544 -0.17964706
v 0.06758389 0.39929329 -0.20791562
v 0.11705385 0.34982332 -0.21498275
v 0.11352028 0.31095406 -0.19731491
v 0.08171816 0.29328622 -0.21498275
v 0.09938601 0.30388693 -0.21498275
v 0.04991604 0.38869258 -0.21144919
v 0.03931533 0.33568905 -0.20791562
v 0.03931533 0.36042403 -0.19024777
v 0.10291957 0.28268551 -0.18318063
v 0.04638247 0.28268551 -0.19024777
v 0.07465102 0.28621908 -0.20791562
v 0.09585244 0.39929329 -0.21144919
v 0.09938601 0.38515901 -0.18671420
v 0.07818459 0.38869258 -0.18671420
v 0.07465102 0.40282685 -0.21498275
v 0.06051675 0.29681979 -0.21498275
v 0.06758389 0.38869258 -0.19024777
v 0.11705385 0.31095406 -0.18318063
v 0.08878530 0.29328622 -0.21144919
v 0.04284890 0.36749117 -0.18671420
v 0.06051675 0.39575972 -0.21144919
f 7 2 3
f 13 9 8
f 13 2 7
f 18 17 11
f 19 18 11
f 20 19 11
f 20 7 19
f 23 1 13
f 24 9 13
f 25 13 8
f 25 2 13
f 29 5 16
f 30 16 8
f 30 8 9
f 30 29 16
f 30 15 29
f 34 17 18
f 35 34 18
f 35 6 34
f 35 26 14
f 36 19 7
f 36 7 3
f 36 3 19
f 37 19 3
f 37 18 19
f 37 35 18
f 37 3 35
f 38 20 11
f 38 11 17
f 38 23 20
f 39 22 12
f 40 4 12
f 40 12 22
f 40 22 15
f 40 28 4
f 40 15 28
f 41 23 13
f 41 13 7
f 41 7 20
f 41 20 23
f 42 1 23
f 42 38 17
f 42 23 38
f 43 24 13
f 43 13 1
f 45 3 2
f 45 35 3
f 45 26 35
f 46 14 26
f 47 10 12
f 47 12 27
f 48 35 14
f 48 27 12
f 48 12 35
f 49 4 28
f 50 22 5
f 50 5 29
f 50 29 15
f 50 15 22
f 51 28 15
f 51 15 30
f 51 30 9
f 52 8 16
f 52 32 31
f 52 25 8
f 52 46 25
f 52 48 14
f 52 14 46
f 53 16 5
f 53 39 32
f 53 5 22
f 53 22 39
f 53 52 16
f 53 32 52
f 54 32 10
f 54 31 32
f 54 47 31
f 54 10 47
f 55 33 17
f 55 34 6
f 55 17 34
f 56 17 33
f 56 42 17
f 56 1 42
f 56 43 1
f 56 33 43
f 57 33 21
f 57 43 33
f 57 24 43
f 58 35 12
f 58 12 4
f 58 44 21
f 58 21 33
f 58 33 55
f 58 55 6
f 58 6 35
f 59 39 12
f 59 12 10
f 59 10 32
f 59 32 39
f 60 21 44
f 60 57 21
f 60 24 57
f 60 9 24
f 60 49 9
f 60 44 49
f 61 45 2
f 61 26 45
f 61 46 26
f 61 2 25
f 61 25 46
f 62 47 27
f 62 31 47
f 62 27 48
f 62 52 31
f 62 48 52
f 63 49 28
f 63 9 49
f 63 51 9
f 63 28 51
f 64 49 44
f 64 4 49
f 64 58 4
f 64 44 58

