# https://github.com/mikedh/trimesh
mtllib material.mtl
usemtl Material097
v 0.06758389 0.32155477 -0.14077781
v 0.06758389 0.28268551 -0.14077781
v 0.06758389 0.32155477 -0.17964706
v 0.03931533 0.31802120 -0.17964706
v 0.03578177 0.28268551 -0.14077781
v 0.06758389 0.28268551 -0.17964706
v 0.03578177 0.32155477 -0.15491208
v 0.03807123 0.32149022 -0.14035427
v 0.04284890 0.28268551 -0.17964706
v 0.04278328 0.32179433 -0.17950382
v 0.03578177 0.28621908 -0.14784494
v 0.03738658 0.30398778 -0.14036440
v 0.03578177 0.31802120 -0.15491208
v 0.03578177 0.28268551 -0.14431138
f 1 2 3
f 6 3 2
f 6 4 3
f 6 2 5
f 8 2 1
f 8 7 5
f 9 6 5
f 9 4 6
f 10 1 3
f 10 3 4
f 10 4 7
f 10 8 1
f 10 7 8
f 11 5 7
f 11 4 9
f 12 8 5
f 12 5 2
f 12 2 8
f 13 11 7
f 13 7 4
f 13 4 11
f 14 11 9
f 14 9 5
f 14 5 11

