# https://github.com/mikedh/trimesh
mtllib material.mtl
usemtl Material105
v -0.05609103 0.15194346 0.05003491
v -0.05609103 0.12014134 0.05003491
v -0.05416347 0.12999776 -0.03546052
v -0.05962460 0.13074205 -0.03830431
v -0.10556099 0.12367491 0.05003491
v -0.05483699 0.15145924 -0.02938704
v -0.09298129 0.15156833 0.05018437
v -0.05786533 0.11946204 -0.03570880
v -0.09142672 0.15194346 0.00409852
v -0.05539426 0.11987230 -0.03727634
v -0.10273330 0.11919564 0.04975650
v -0.07729244 0.15194346 -0.02063646
v -0.10202742 0.13427562 0.02529993
v -0.09205355 0.15273904 0.01609535
v -0.07375887 0.12014134 -0.03123717
v -0.05962460 0.15194346 -0.03123717
v -0.10202742 0.13427562 0.04296778
v -0.08789315 0.15194346 -0.00296862
v -0.09496028 0.12014134 -0.00650219
v -0.07375887 0.12367491 -0.03123717
v -0.06315816 0.14840989 -0.03123717
v -0.06669173 0.15194346 -0.02770360
v -0.08789315 0.12014134 -0.01710289
v -0.10556099 0.12014134 0.02883350
v -0.10202742 0.12367491 0.01116566
v -0.09849385 0.12367491 0.00056495
v -0.07375887 0.14840989 -0.02417003
v -0.08789315 0.12367491 -0.01710289
v -0.10202742 0.12014134 0.01116566
v -0.10556099 0.12367491 0.02883350
v -0.09849385 0.13780919 0.01116566
v -0.09496028 0.14134276 0.00409852
v -0.07729244 0.12720848 -0.02770360
v -0.09496028 0.12367491 -0.00650219
v -0.09849385 0.12014134 0.00056495
v -0.10202742 0.13074205 0.01823279
v -0.08435958 0.12720848 -0.02063646
f 1 2 3
f 6 1 3
f 6 3 4
f 7 5 2
f 7 2 1
f 10 3 2
f 10 2 8
f 10 4 3
f 11 8 2
f 11 2 5
f 14 7 1
f 14 13 7
f 14 9 13
f 15 10 8
f 15 4 10
f 16 6 4
f 16 14 1
f 16 1 6
f 17 13 5
f 17 5 7
f 17 7 13
f 18 14 12
f 18 9 14
f 19 8 11
f 20 4 15
f 21 16 4
f 21 4 20
f 22 12 14
f 22 14 16
f 22 21 12
f 22 16 21
f 23 15 8
f 23 8 19
f 23 20 15
f 24 11 5
f 27 21 20
f 27 20 12
f 27 12 21
f 28 23 19
f 28 20 23
f 29 11 24
f 29 24 25
f 29 25 26
f 30 24 5
f 30 5 13
f 30 25 24
f 31 13 9
f 31 26 25
f 32 9 18
f 32 31 9
f 32 26 31
f 33 12 20
f 34 28 19
f 34 19 26
f 34 18 12
f 34 12 28
f 34 32 18
f 34 26 32
f 35 19 11
f 35 11 29
f 35 29 26
f 35 26 19
f 36 30 13
f 36 13 31
f 36 31 25
f 36 25 30
f 37 28 12
f 37 12 33
f 37 33 20
f 37 20 28

