# https://github.com/mikedh/trimesh
mtllib material.mtl
usemtl Material126
v 0.10998671 0.35335689 -0.14077781
v 0.11972270 0.32141290 -0.14073480
v 0.11705385 0.34982332 -0.17964706
v 0.04284890 0.36042403 -0.17964706
v 0.03807123 0.32149022 -0.14035427
v 0.09938601 0.37809187 -0.17611350
v 0.12058742 0.33215548 -0.14077781
v 0.04638247 0.35689046 -0.14077781
v 0.04278328 0.32179433 -0.17950382
v 0.10645314 0.37455830 -0.17611350
v 0.09776232 0.37544740 -0.18117595
v 0.11352028 0.34982332 -0.14077781
v 0.12058742 0.32155477 -0.16904636
v 0.08171816 0.36395760 -0.14077781
v 0.03578177 0.34275618 -0.14077781
v 0.06758389 0.37809187 -0.17257993
v 0.09938601 0.37102473 -0.16197922
v 0.06924287 0.37621302 -0.18067106
v 0.11495637 0.32178299 -0.17917907
v 0.10645314 0.37455830 -0.17964706
v 0.11352028 0.36042403 -0.16904636
v 0.12058742 0.33215548 -0.16551279
v 0.03578177 0.32155477 -0.15491208
v 0.07465102 0.36395760 -0.14077781
v 0.09585244 0.36042403 -0.14077781
v 0.03931533 0.34982332 -0.14077781
v 0.04991604 0.36749117 -0.17611350
v 0.09231887 0.37809187 -0.17257993
v 0.03931533 0.35335689 -0.17964706
v 0.11047674 0.35925823 -0.18035108
v 0.11705385 0.34275618 -0.14077781
v 0.11705385 0.34982332 -0.16904636
v 0.10998671 0.36395760 -0.16197922
v 0.12058742 0.32862191 -0.16904636
v 0.03931533 0.35335689 -0.17257993
v 0.06051675 0.37455830 -0.17611350
v 0.04638247 0.36395760 -0.17257993
v 0.03578177 0.34275618 -0.14784494
v 0.04284890 0.36042403 -0.17611350
v 0.06051675 0.37455830 -0.17964706
v 0.03578177 0.32862191 -0.15491208
v 0.04991604 0.36749117 -0.17964706
f 12 5 2
f 12 1 5
f 12 10 1
f 13 7 2
f 17 10 6
f 17 1 10
f 18 11 9
f 18 16 6
f 18 6 11
f 19 9 11
f 19 13 9
f 19 3 13
f 20 11 6
f 20 6 10
f 21 20 10
f 21 3 20
f 22 3 7
f 22 7 13
f 23 9 13
f 23 5 15
f 23 13 2
f 23 2 5
f 24 8 5
f 24 5 14
f 24 16 8
f 24 14 16
f 25 14 5
f 25 5 1
f 25 17 14
f 25 1 17
f 26 15 5
f 26 5 8
f 28 16 14
f 28 6 16
f 28 17 6
f 28 14 17
f 29 18 9
f 29 4 18
f 29 9 23
f 30 19 11
f 30 3 19
f 30 20 3
f 30 11 20
f 31 21 12
f 31 7 21
f 31 12 2
f 31 2 7
f 32 21 7
f 32 7 3
f 32 3 21
f 33 21 10
f 33 10 12
f 33 12 21
f 34 22 13
f 34 13 3
f 34 3 22
f 35 15 26
f 35 29 15
f 35 4 29
f 36 27 8
f 36 8 16
f 37 26 8
f 37 8 27
f 38 23 15
f 38 15 29
f 39 35 26
f 39 4 35
f 39 26 37
f 39 37 27
f 39 27 4
f 40 36 16
f 40 16 18
f 40 27 36
f 41 38 29
f 41 29 23
f 41 23 38
f 42 40 18
f 42 18 4
f 42 4 27
f 42 27 40

