# https://github.com/mikedh/trimesh
mtllib material.mtl
usemtl Material068
v 0.07111745 -0.24381625 0.39279110
v 0.12412099 -0.24734982 0.31505258
v 0.11352028 -0.20141343 0.32918686
v 0.06694770 -0.19844012 0.31111296
v 0.06758389 -0.24734982 0.31151901
v 0.12058742 -0.20141343 0.31151901
v 0.06758389 -0.21908127 0.37512325
v 0.09938601 -0.24028269 0.36805612
v 0.06610008 -0.24772831 0.39046031
v 0.11705385 -0.21201413 0.33272043
v 0.11705385 -0.19787986 0.31505258
v 0.12081288 -0.24394826 0.31063427
v 0.10291957 -0.21201413 0.35392184
v 0.10645314 -0.19787986 0.32211972
v 0.12094427 -0.24747658 0.31066941
v 0.06758389 -0.22614841 0.38572396
v 0.06591452 -0.19934999 0.31398709
v 0.09938601 -0.24734982 0.36805612
v 0.12058742 -0.20141343 0.31505258
v 0.11705385 -0.19787986 0.31151901
v 0.10998671 -0.20494700 0.33978756
v 0.08878530 -0.22614841 0.37512325
v 0.10998671 -0.22261484 0.35038827
v 0.10998671 -0.19787986 0.32211972
v 0.12412099 -0.24381625 0.31505258
v 0.06758389 -0.24381625 0.39279110
v 0.07465102 -0.21908127 0.37512325
v 0.08171816 -0.24381625 0.38572396
v 0.11352028 -0.24734982 0.34332113
v 0.07818459 -0.23321555 0.38572396
v 0.07111745 -0.22614841 0.38572396
v 0.10998671 -0.20848057 0.34332113
v 0.10645314 -0.24734982 0.35745541
v 0.10291957 -0.22614841 0.36098898
v 0.12058742 -0.20848057 0.32211972
v 0.07111745 -0.24734982 0.39279110
v 0.08525173 -0.23674912 0.38219039
v 0.12058742 -0.24734982 0.32565329
v 0.11352028 -0.21908127 0.34332113
v 0.07818459 -0.22614841 0.38219039
v 0.07818459 -0.22261484 0.37865682
v 0.10645314 -0.21908127 0.35392184
v 0.10645314 -0.23674912 0.35745541
v 0.08171816 -0.24734982 0.38572396
v 0.08171816 -0.22968198 0.38219039
v 0.09585244 -0.23674912 0.37158969
v 0.12058742 -0.22614841 0.32565329
v 0.11352028 -0.21201413 0.33978756
f 12 5 4
f 15 9 5
f 15 5 12
f 15 12 6
f 16 7 9
f 17 9 7
f 17 4 5
f 17 5 9
f 17 14 4
f 17 7 14
f 19 11 3
f 19 6 11
f 20 11 6
f 20 14 11
f 20 4 14
f 20 12 4
f 20 6 12
f 21 14 7
f 21 19 3
f 24 3 11
f 24 11 14
f 24 21 3
f 24 14 21
f 25 15 6
f 25 2 15
f 25 6 19
f 26 16 9
f 26 1 16
f 27 7 16
f 27 21 7
f 27 13 21
f 29 9 15
f 31 16 1
f 31 1 30
f 31 27 16
f 32 21 13
f 33 8 18
f 33 18 9
f 33 9 29
f 35 25 19
f 36 26 9
f 36 1 26
f 36 28 1
f 37 30 1
f 37 1 28
f 38 29 15
f 38 15 2
f 38 2 25
f 39 33 29
f 39 29 38
f 40 22 13
f 40 31 30
f 41 13 27
f 41 27 31
f 41 40 13
f 41 31 40
f 42 32 13
f 42 39 32
f 42 23 39
f 42 34 23
f 42 13 22
f 42 22 34
f 43 8 33
f 43 34 8
f 43 23 34
f 43 39 23
f 43 33 39
f 44 36 9
f 44 9 18
f 44 28 36
f 45 37 22
f 45 30 37
f 45 40 30
f 45 22 40
f 46 8 34
f 46 34 22
f 46 22 37
f 46 37 28
f 46 18 8
f 46 44 18
f 46 28 44
f 47 35 10
f 47 39 38
f 47 10 39
f 47 38 25
f 47 25 35
f 48 39 10
f 48 32 39
f 48 10 35
f 48 21 32
f 48 35 19
f 48 19 21

