# https://github.com/mikedh/trimesh
mtllib material.mtl
usemtl Material090
v 0.07111745 -0.15547703 0.00409852
v 0.07111745 -0.23321555 0.00409852
v 0.07111745 -0.15547703 -0.09484141
v -0.12322883 -0.15901060 -0.09484141
v -0.13382954 -0.15901060 0.00409852
v 0.07118611 -0.23287803 -0.09475613
v -0.11762092 -0.23188621 0.00422050
v -0.13382954 -0.15547703 0.00056495
v -0.10556099 -0.23321555 -0.09484141
v -0.13029597 -0.21201413 -0.02063646
v -0.13000176 -0.15549234 0.00410198
v -0.12322883 -0.15547703 -0.08777427
v -0.11969527 -0.23321555 -0.03123717
v -0.13029597 -0.21201413 0.00409852
v -0.12322883 -0.20141343 -0.09484141
v -0.13382954 -0.19081272 -0.02063646
v -0.11732007 -0.15666326 -0.09443019
v -0.13029597 -0.15547703 -0.04890502
v -0.13382954 -0.19434629 0.00409852
v -0.12322883 -0.22968198 0.00409852
v -0.12322883 -0.21908127 -0.05597215
v -0.13029597 -0.19434629 -0.05243858
v -0.12676240 -0.15547703 -0.07364000
v -0.13382954 -0.16254417 -0.02417003
v -0.13382954 -0.19434629 -0.00296862
v -0.12676240 -0.22261484 -0.02063646
v -0.12676240 -0.21201413 -0.04890502
v -0.11616170 -0.22261484 -0.09130784
v -0.13029597 -0.20141343 -0.04183788
v -0.12676240 -0.18727915 -0.09130784
v -0.13382954 -0.15547703 -0.01003576
v -0.12676240 -0.22261484 0.00409852
v -0.12322883 -0.22968198 -0.02063646
v -0.12322883 -0.21201413 -0.07364000
v -0.12676240 -0.21908127 -0.03123717
v -0.11262813 -0.22614841 -0.09484141
v -0.12676240 -0.20141343 -0.07010643
v -0.12676240 -0.16961131 -0.09130784
v -0.13029597 -0.18727915 -0.05950572
v -0.13382954 -0.15901060 -0.02063646
v -0.11969527 -0.22968198 -0.04537145
v -0.11969527 -0.21554770 -0.08777427
v -0.11969527 -0.21201413 -0.09484141
v -0.11262813 -0.23321555 -0.07010643
v -0.12676240 -0.16607774 -0.08777427
v -0.13029597 -0.16607774 -0.06303929
v -0.12322883 -0.22614841 -0.03477074
v -0.11262813 -0.22968198 -0.08424070
v -0.11616170 -0.23321555 -0.05243858
v -0.13029597 -0.15901060 -0.05597215
v -0.13029597 -0.17667844 -0.06303929
v -0.13382954 -0.18374558 -0.02417003
f 6 1 2
f 6 3 1
f 7 2 1
f 8 1 3
f 9 4 3
f 9 3 6
f 9 6 2
f 11 8 5
f 11 1 8
f 11 7 1
f 11 5 7
f 12 8 3
f 13 9 2
f 13 2 7
f 15 4 9
f 16 5 8
f 17 12 3
f 17 3 4
f 17 4 12
f 18 8 12
f 19 14 7
f 19 7 5
f 19 5 16
f 19 10 14
f 20 13 7
f 23 18 12
f 23 12 4
f 24 16 8
f 25 19 16
f 25 16 10
f 25 10 19
f 26 14 10
f 29 10 16
f 29 16 22
f 29 27 10
f 30 4 15
f 30 29 22
f 31 24 8
f 31 8 18
f 32 26 20
f 32 14 26
f 32 20 7
f 32 7 14
f 33 13 20
f 33 20 26
f 34 27 15
f 34 21 27
f 35 26 10
f 35 10 27
f 35 27 21
f 35 21 26
f 36 15 9
f 37 15 27
f 37 27 29
f 37 30 15
f 37 29 30
f 38 4 30
f 39 30 22
f 39 22 16
f 40 31 18
f 40 24 31
f 41 13 33
f 42 28 21
f 42 21 34
f 42 34 15
f 43 36 28
f 43 15 36
f 43 42 15
f 43 28 42
f 44 9 13
f 45 23 4
f 45 4 38
f 46 45 38
f 46 24 40
f 46 38 30
f 47 21 28
f 47 28 41
f 47 26 21
f 47 41 33
f 47 33 26
f 48 36 9
f 48 9 44
f 48 28 36
f 49 44 13
f 49 13 41
f 49 48 44
f 49 41 28
f 49 28 48
f 50 18 23
f 50 23 45
f 50 45 46
f 50 46 40
f 50 40 18
f 51 46 30
f 51 30 39
f 51 24 46
f 52 51 39
f 52 39 16
f 52 16 24
f 52 24 51

