# https://github.com/mikedh/trimesh
mtllib material.mtl
usemtl Material029
v 0.07111745 0.34628975 0.03943421
v 0.10291957 0.34628975 -0.03123717
v 0.08171816 0.36042403 -0.09837498
v 0.03578177 0.34982332 -0.10544212
v 0.03615401 0.34255492 -0.10534536
v 0.03573028 0.35207019 -0.03113626
v 0.08525173 0.35335689 -0.01710289
v 0.09463743 0.34080343 -0.00347914
v 0.10911153 0.34176148 -0.10556110
v 0.05698318 0.36042403 -0.10544212
v 0.05344961 0.34275618 0.03943421
v 0.03578177 0.34275618 -0.03123717
v 0.09585244 0.34628975 -0.00296862
v 0.09231887 0.35689046 -0.08777427
v 0.06051675 0.34982332 0.03943421
v 0.10838331 0.34089903 -0.09148033
v 0.09043324 0.35432530 -0.10581212
v 0.03578177 0.35335689 -0.08070713
v 0.07410123 0.34116834 0.03557745
v 0.05307107 0.34902209 0.03936306
v 0.08878530 0.34982332 -0.00296862
v 0.09585244 0.34982332 -0.02063646
v 0.09938601 0.34628975 -0.01356933
v 0.08878530 0.35689046 -0.07010643
v 0.10645314 0.34982332 -0.09837498
v 0.07465102 0.36042403 -0.08777427
v 0.10998671 0.34628975 -0.09130784
v 0.10169164 0.34096300 -0.03142625
v 0.08171816 0.36042403 -0.10544212
v 0.03931533 0.35335689 -0.09837498
v 0.05698318 0.36042403 -0.09484141
v 0.07071494 0.34165085 0.03930196
v 0.08525173 0.34628975 0.01823279
v 0.07818459 0.34982332 0.01469922
v 0.08878530 0.35335689 -0.02770360
v 0.10645314 0.34982332 -0.10544212
v 0.10291957 0.34982332 -0.07010643
v 0.07111745 0.35335689 -0.00296862
v 0.07818459 0.36042403 -0.09130784
v 0.10645314 0.34628975 -0.05597215
v 0.10475346 0.34090928 -0.05615281
v 0.09813925 0.34092879 -0.01389217
v 0.04991604 0.35689046 -0.04890502
v 0.07465102 0.34628975 0.03590064
v 0.08431476 0.34124730 0.01779422
v 0.10998671 0.34628975 -0.10544212
v 0.09938601 0.35335689 -0.08777427
v 0.07818459 0.35689046 -0.04890502
v 0.05344961 0.35335689 -0.00296862
v 0.06051675 0.36042403 -0.08777427
f 12 6 4
f 12 4 5
f 15 11 1
f 16 8 5
f 16 5 9
f 17 9 5
f 17 5 4
f 17 4 10
f 18 4 6
f 19 11 12
f 19 12 5
f 19 5 8
f 20 12 11
f 20 6 12
f 20 11 15
f 22 21 13
f 22 7 21
f 23 13 8
f 23 22 13
f 23 2 22
f 24 14 3
f 24 3 7
f 24 22 14
f 26 3 10
f 27 16 9
f 28 2 23
f 29 17 10
f 29 10 3
f 29 3 14
f 30 18 10
f 30 10 4
f 30 4 18
f 31 18 6
f 31 10 18
f 31 26 10
f 32 1 11
f 32 11 19
f 33 13 21
f 34 21 7
f 34 7 15
f 34 33 21
f 35 24 7
f 35 7 22
f 35 22 24
f 36 17 29
f 36 29 14
f 36 14 25
f 36 25 27
f 37 22 2
f 38 26 15
f 38 15 7
f 39 7 3
f 39 3 26
f 40 27 25
f 40 2 28
f 40 16 27
f 40 37 2
f 40 25 37
f 41 28 8
f 41 8 16
f 41 40 28
f 41 16 40
f 42 28 23
f 42 23 8
f 42 8 28
f 43 31 6
f 44 32 19
f 44 1 32
f 44 19 33
f 44 33 34
f 44 34 15
f 44 15 1
f 45 33 19
f 45 19 8
f 45 8 13
f 45 13 33
f 46 9 17
f 46 17 36
f 46 36 27
f 46 27 9
f 47 37 25
f 47 25 14
f 47 14 22
f 47 22 37
f 48 38 7
f 48 7 39
f 48 39 26
f 48 26 38
f 49 43 6
f 49 6 20
f 49 20 15
f 50 26 31
f 50 31 43
f 50 43 49
f 50 49 15
f 50 15 26

