# https://github.com/mikedh/trimesh
mtllib material.mtl
usemtl Material108
v 0.12340901 0.28975014 -0.03130650
v 0.12412099 0.24734982 -0.03123717
v 0.12765456 0.28268551 -0.10544212
v 0.06758389 0.28975265 -0.10544212
v 0.06758389 0.22968198 -0.03123717
v 0.12426390 0.28979303 -0.10524985
v 0.12765456 0.28975265 -0.03830431
v 0.06758389 0.28975265 -0.03123717
v 0.10998671 0.22968198 -0.10544212
v 0.12765456 0.26855124 -0.05597215
v 0.12058742 0.22968198 -0.05597215
v 0.06758389 0.22968198 -0.10544212
v 0.12765456 0.27561838 -0.03830431
v 0.12058742 0.25441696 -0.10544212
v 0.12058742 0.22968198 -0.03123717
v 0.12412099 0.24734982 -0.05243858
v 0.12765456 0.27208481 -0.04537145
v 0.11705385 0.22968198 -0.08070713
v 0.12412099 0.26148410 -0.09837498
v 0.12765456 0.27208481 -0.08424070
v 0.11705385 0.24381625 -0.10544212
v 0.12058742 0.24028269 -0.08070713
v 0.12765456 0.26855124 -0.07010643
v 0.12765456 0.27561838 -0.09484141
v 0.11352028 0.22968198 -0.09484141
v 0.11705385 0.23321555 -0.08777427
v 0.12058742 0.23321555 -0.06657286
f 6 3 4
f 7 1 2
f 7 6 1
f 7 3 6
f 8 5 2
f 8 2 1
f 8 4 5
f 8 6 4
f 8 1 6
f 9 4 3
f 10 3 7
f 11 5 9
f 12 9 5
f 12 5 4
f 12 4 9
f 13 10 7
f 13 7 2
f 14 9 3
f 15 11 2
f 15 2 5
f 15 5 11
f 16 10 2
f 16 2 11
f 17 13 2
f 17 2 10
f 17 10 13
f 18 11 9
f 19 14 3
f 20 3 10
f 21 9 14
f 22 14 19
f 23 20 10
f 23 10 16
f 23 16 11
f 23 11 20
f 24 19 3
f 24 3 20
f 24 20 11
f 25 18 9
f 25 9 21
f 26 21 14
f 26 14 22
f 26 22 18
f 26 25 21
f 26 18 25
f 27 22 19
f 27 11 18
f 27 18 22
f 27 24 11
f 27 19 24

