# https://github.com/mikedh/trimesh
mtllib material.mtl
usemtl Material021
v 0.03931533 -0.15547703 -0.09484141
v 0.03931533 -0.24028269 -0.09837498
v 0.04084756 -0.18806504 -0.12899786
v -0.02571160 -0.18511383 -0.12423311
v -0.02374447 -0.24913497 -0.09281376
v 0.03578177 -0.15547703 -0.11604282
v 0.04109941 -0.18925528 -0.12881874
v 0.03813745 -0.23849280 -0.09257664
v -0.02428891 -0.15547703 -0.09484141
v 0.03931533 -0.15547703 -0.11604282
v 0.03578177 -0.18727915 -0.13017710
v 0.00725141 -0.24940099 -0.09293535
v -0.02428891 -0.25088339 -0.09837498
v -0.02428891 -0.16254417 -0.11604282
v 0.03578177 -0.19081272 -0.13017710
v 0.02119400 -0.24613177 -0.09320430
v -0.02572539 -0.19323864 -0.12428586
v 0.00751321 -0.25088339 -0.09837498
v -0.02459129 -0.15564611 -0.10774315
v 0.03578177 -0.23321555 -0.10544212
v 0.03150369 -0.24203570 -0.09301126
v -0.02428891 -0.21201413 -0.11957639
v 0.02164749 -0.24734982 -0.09837498
v 0.03931533 -0.22968198 -0.10544212
v 0.01458035 -0.24028269 -0.10544212
v -0.02428891 -0.24028269 -0.10544212
v 0.03224820 -0.24381625 -0.09837498
f 7 1 2
f 8 2 1
f 9 1 6
f 9 8 1
f 9 5 8
f 10 6 1
f 10 7 3
f 10 1 7
f 11 10 3
f 11 6 10
f 12 8 5
f 13 5 9
f 13 12 5
f 14 11 4
f 14 6 11
f 15 11 3
f 15 3 7
f 16 8 12
f 17 13 9
f 17 9 4
f 17 4 11
f 17 11 15
f 18 12 13
f 18 16 12
f 19 9 6
f 19 6 14
f 19 14 4
f 19 4 9
f 20 15 7
f 21 2 8
f 21 8 16
f 22 17 15
f 23 16 18
f 24 20 7
f 24 7 2
f 24 2 20
f 25 15 20
f 25 22 15
f 25 18 13
f 25 23 18
f 26 13 17
f 26 17 22
f 26 25 13
f 26 22 25
f 27 21 16
f 27 16 23
f 27 2 21
f 27 20 2
f 27 25 20
f 27 23 25

