# https://github.com/mikedh/trimesh
mtllib material.mtl
usemtl Material093
v 0.11413744 0.00393488 0.00463787
v 0.11705385 -0.05300353 0.00409852
v 0.06051675 -0.04946996 -0.09130784
v -0.04195675 0.00353357 -0.09484141
v -0.11384609 -0.07406894 0.00467513
v 0.04991604 0.00353357 -0.09130784
v 0.09938601 -0.02120141 -0.04890502
v 0.11256995 -0.07419328 0.00439135
v -0.11460002 0.00375616 0.00436918
v -0.05609103 -0.07420495 -0.09484141
v 0.04991604 -0.02120141 -0.09484141
v 0.11352028 0.00353357 -0.01710289
v 0.07111745 0.00353357 -0.07717357
v 0.09938601 -0.06713781 -0.04890502
v -0.11616170 -0.07420495 -0.00296862
v -0.09142672 0.00353357 -0.05597215
v 0.04284890 0.00353357 -0.09484141
v 0.05183974 -0.07428992 -0.09229673
v 0.11705385 0.00353357 0.00056495
v 0.08525173 -0.01766785 -0.06657286
v 0.09938601 0.00353357 -0.04537145
v 0.06051675 -0.01413428 -0.08777427
v 0.11352028 -0.07420495 -0.00650219
v 0.10645314 -0.02826855 -0.03477074
v -0.06669173 0.00000000 -0.08070713
v -0.11262813 0.00353357 -0.02063646
v -0.09142672 -0.06713781 -0.05950572
v 0.04638247 -0.00706714 -0.09484141
v 0.05344961 -0.03886926 -0.09484141
v 0.06051675 -0.07420495 -0.09130784
v 0.11705385 -0.03886926 -0.00296862
v 0.07465102 -0.02120141 -0.07717357
v 0.09585244 -0.04240283 -0.05597215
v 0.08878530 0.00353357 -0.05950572
v 0.05698318 0.00000000 -0.08777427
v 0.10291957 -0.02120141 -0.04183788
v -0.07022530 0.00353357 -0.07717357
v -0.05255746 -0.03180212 -0.09484141
v -0.11616170 0.00353357 -0.00650219
v -0.09496028 -0.07420495 -0.05243858
v -0.09496028 -0.03533569 -0.05597215
v 0.05698318 -0.02473498 -0.09130784
v 0.09585244 -0.07420495 -0.05243858
v 0.11705385 -0.01060071 -0.00296862
v 0.11705385 -0.05300353 0.00056495
v 0.11352028 -0.02120141 -0.01710289
v 0.08171816 -0.01766785 -0.07010643
v 0.06758389 -0.03180212 -0.08424070
v 0.09585244 -0.00706714 -0.05243858
v 0.06405032 -0.00706714 -0.08424070
v -0.04902389 0.00353357 -0.09130784
v -0.07375887 -0.04946996 -0.08070713
v -0.11616170 -0.04593640 -0.00650219
v -0.07375887 -0.07420495 -0.08070713
v -0.10556099 0.00353357 -0.03477074
v -0.10556099 -0.07420495 -0.03477074
v 0.08878530 -0.07420495 -0.06303929
v 0.10645314 -0.07420495 -0.02770360
v 0.10645314 -0.04593640 -0.03477074
v 0.06405032 -0.03886926 -0.08777427
v 0.09231887 0.00000000 -0.05597215
v 0.09585244 -0.03533569 -0.05597215
v -0.05609103 0.00000000 -0.08777427
v -0.04549032 -0.00706714 -0.09484141
f 8 2 1
f 8 1 5
f 9 5 1
f 9 1 4
f 11 10 4
f 13 6 1
f 15 8 5
f 15 5 9
f 17 11 4
f 17 4 1
f 17 1 6
f 19 12 1
f 19 1 2
f 21 1 12
f 23 2 8
f 23 8 15
f 23 15 18
f 28 17 6
f 28 11 17
f 28 22 11
f 29 18 10
f 29 10 11
f 30 29 3
f 30 18 29
f 31 19 2
f 34 13 1
f 34 1 21
f 35 6 13
f 35 28 6
f 35 22 28
f 36 12 24
f 36 21 12
f 36 7 21
f 36 14 33
f 37 16 9
f 38 4 10
f 39 15 9
f 39 9 26
f 42 3 29
f 42 29 11
f 42 11 22
f 44 31 12
f 44 12 19
f 44 19 31
f 45 31 2
f 45 2 23
f 45 23 31
f 46 24 12
f 46 12 31
f 47 32 13
f 47 34 20
f 47 13 34
f 48 13 32
f 49 21 7
f 50 35 13
f 50 22 35
f 50 13 48
f 51 25 37
f 51 37 9
f 51 9 4
f 52 38 10
f 52 25 38
f 52 37 25
f 52 41 16
f 52 16 37
f 53 39 26
f 53 15 39
f 54 40 27
f 54 10 18
f 54 18 40
f 54 52 10
f 54 27 41
f 54 41 52
f 55 41 26
f 55 16 41
f 55 26 9
f 55 9 16
f 56 26 41
f 56 53 26
f 56 15 53
f 56 40 18
f 56 18 15
f 56 41 27
f 56 27 40
f 57 43 18
f 57 18 30
f 57 33 14
f 57 14 43
f 58 43 14
f 58 23 18
f 58 18 43
f 59 24 46
f 59 36 24
f 59 14 36
f 59 58 14
f 59 23 58
f 59 46 31
f 59 31 23
f 60 50 48
f 60 22 50
f 60 42 22
f 60 3 42
f 60 30 3
f 60 57 30
f 60 33 57
f 60 48 32
f 60 32 47
f 61 34 21
f 61 21 49
f 61 20 34
f 62 49 7
f 62 61 49
f 62 20 61
f 62 47 20
f 62 60 47
f 62 33 60
f 62 36 33
f 62 7 36
f 63 51 38
f 63 38 25
f 63 25 51
f 64 51 4
f 64 4 38
f 64 38 51

