# https://github.com/mikedh/trimesh
mtllib material.mtl
usemtl Material046
v 0.09772707 -0.24674081 0.21276786
v 0.09938601 -0.25441696 0.21257908
v 0.09938601 -0.25088339 0.16310912
v 0.05344961 -0.24734982 0.16310912
v 0.05344961 -0.33922262 0.21257908
v 0.09640314 -0.24636222 0.16315284
v 0.07465102 -0.33922262 0.21257908
v 0.05344961 -0.24734982 0.21257908
v 0.05698318 -0.32508834 0.16310912
v 0.09938601 -0.25441696 0.20904551
v 0.05136240 -0.33102593 0.17439267
v 0.08171816 -0.29328622 0.16310912
v 0.07465102 -0.33922262 0.20904551
v 0.05193354 -0.33840216 0.18834009
v 0.05161705 -0.32409660 0.16370865
v 0.09231887 -0.26855124 0.16310912
v 0.07111745 -0.30742050 0.16310912
v 0.05698318 -0.33922262 0.18784410
v 0.05698318 -0.33215548 0.17370983
f 1 2 3
f 6 1 3
f 6 3 4
f 7 2 1
f 7 1 5
f 8 5 1
f 8 6 4
f 8 1 6
f 9 4 3
f 10 3 2
f 10 2 7
f 11 8 4
f 12 9 3
f 13 10 7
f 13 3 10
f 13 7 5
f 14 5 8
f 14 8 11
f 15 11 4
f 15 4 9
f 16 13 12
f 16 12 3
f 16 3 13
f 17 13 9
f 17 9 12
f 17 12 13
f 18 13 5
f 18 5 14
f 19 15 9
f 19 11 15
f 19 9 13
f 19 13 18
f 19 18 14
f 19 14 11

