# https://github.com/mikedh/trimesh
mtllib material.mtl
usemtl Material058
v -0.05255746 -0.16254417 -0.32452339
v -0.03488961 -0.22261484 -0.36692622
v -0.04549032 -0.20141343 -0.40579547
v -0.09849385 -0.20848057 -0.40932904
v -0.09142672 -0.22261484 -0.32452339
v -0.05020424 -0.22306339 -0.40616712
v -0.07729244 -0.18021201 -0.39166120
v -0.03842318 -0.19434629 -0.38106049
v -0.04549032 -0.21554770 -0.32452339
v -0.03488961 -0.22261484 -0.39872834
v -0.04902389 -0.21201413 -0.40932904
v -0.11262813 -0.22261484 -0.40226191
v -0.05255746 -0.22261484 -0.32452339
v -0.05609103 -0.18374558 -0.39519477
v -0.04195675 -0.18021201 -0.32452339
v -0.06119420 -0.16211350 -0.32407764
v -0.04366259 -0.22316263 -0.40350822
v -0.03488961 -0.20848057 -0.39166120
v -0.10202742 -0.21554770 -0.40932904
v -0.07022530 -0.19787986 -0.40932904
v -0.04195675 -0.21201413 -0.40579547
v -0.09849385 -0.19081272 -0.38459406
v -0.03842318 -0.22261484 -0.34925837
v -0.06669173 -0.15901060 -0.33865766
v -0.04195675 -0.19434629 -0.39166120
v -0.04549032 -0.17314488 -0.34572480
v -0.04902389 -0.16607774 -0.32452339
v -0.04195675 -0.20494700 -0.32452339
v -0.10071554 -0.22325288 -0.40630113
v -0.03488961 -0.20848057 -0.37045978
v -0.10202742 -0.20494700 -0.40579547
v -0.05609103 -0.20141343 -0.40932904
v -0.06669173 -0.18374558 -0.39872834
v -0.03842318 -0.20848057 -0.40226191
v -0.09849385 -0.18374558 -0.32452339
v -0.04902389 -0.22261484 -0.32805696
v -0.05962460 -0.15901060 -0.33159053
v -0.08082601 -0.16607774 -0.35279194
v -0.04549032 -0.19787986 -0.40226191
v -0.03842318 -0.20141343 -0.39519477
v -0.04195675 -0.18021201 -0.34572480
v -0.04195675 -0.19081272 -0.38459406
v -0.04902389 -0.16607774 -0.33512410
v -0.03842318 -0.19787986 -0.34219123
v -0.11262813 -0.22261484 -0.37045978
v -0.10909456 -0.22261484 -0.40579547
v -0.10909456 -0.20848057 -0.39872834
v -0.09142672 -0.18727915 -0.39519477
v -0.09142672 -0.19434629 -0.40579547
v -0.05255746 -0.20494700 -0.40932904
v -0.06315816 -0.19434629 -0.40579547
v -0.05255746 -0.19787986 -0.40579547
v -0.06669173 -0.17314488 -0.37752692
v -0.03488961 -0.21554770 -0.39872834
v -0.09582939 -0.18760692 -0.32437278
v -0.08435958 -0.16254417 -0.32452339
v -0.04902389 -0.18727915 -0.39166120
v -0.04195675 -0.20141343 -0.40226191
v -0.05255746 -0.16254417 -0.33159053
v -0.04902389 -0.17314488 -0.35632551
v -0.03842318 -0.20494700 -0.34219123
v -0.03842318 -0.19434629 -0.34572480
v -0.03488961 -0.21201413 -0.36692622
v -0.10202742 -0.22261484 -0.34572480
f 16 13 9
f 16 5 13
f 17 10 2
f 17 6 11
f 18 2 10
f 19 11 6
f 19 4 11
f 20 11 4
f 21 11 3
f 21 17 11
f 21 10 17
f 23 17 2
f 27 16 15
f 27 1 16
f 27 15 26
f 28 16 9
f 28 15 16
f 28 9 23
f 29 17 13
f 29 13 5
f 29 6 17
f 29 19 6
f 30 2 18
f 30 18 8
f 31 4 19
f 32 11 20
f 34 21 3
f 36 23 9
f 36 9 13
f 36 13 17
f 36 17 23
f 37 16 1
f 39 3 14
f 40 25 8
f 40 8 18
f 40 18 34
f 41 26 15
f 41 15 8
f 41 8 26
f 42 26 8
f 42 8 25
f 43 27 26
f 43 1 27
f 44 15 28
f 45 12 29
f 46 29 12
f 46 19 29
f 46 31 19
f 46 12 31
f 47 31 12
f 47 35 22
f 47 45 35
f 47 12 45
f 48 38 7
f 48 22 38
f 48 47 22
f 48 31 47
f 49 20 4
f 49 4 31
f 49 31 48
f 49 33 20
f 49 48 7
f 49 7 33
f 50 32 3
f 50 3 11
f 50 11 32
f 51 32 20
f 51 20 33
f 52 33 14
f 52 14 3
f 52 3 32
f 52 51 33
f 52 32 51
f 53 14 33
f 53 37 14
f 53 24 37
f 53 33 7
f 53 38 24
f 53 7 38
f 54 34 18
f 54 18 10
f 54 10 21
f 54 21 34
f 55 35 5
f 55 5 16
f 56 24 38
f 56 38 22
f 56 22 35
f 56 37 24
f 56 16 37
f 56 55 16
f 56 35 55
f 57 39 14
f 57 25 39
f 57 42 25
f 58 34 3
f 58 3 39
f 58 40 34
f 58 39 25
f 58 25 40
f 59 37 1
f 59 1 43
f 60 43 26
f 60 26 42
f 60 42 57
f 60 57 14
f 60 59 43
f 60 14 37
f 60 37 59
f 61 44 28
f 61 2 44
f 61 28 23
f 61 23 2
f 62 15 44
f 62 30 8
f 62 8 15
f 63 44 2
f 63 2 30
f 63 62 44
f 63 30 62
f 64 45 29
f 64 29 5
f 64 5 35
f 64 35 45

