# https://github.com/mikedh/trimesh
mtllib material.mtl
usemtl Material079
v -0.05609103 0.39575972 -0.21498275
v -0.03842318 0.34275618 -0.21498275
v -0.04902389 0.38162544 -0.25738558
v -0.10202742 0.39575972 -0.25738558
v -0.10909456 0.32155477 -0.21498275
v -0.06669173 0.40282685 -0.25738558
v -0.04195675 0.37809187 -0.22204989
v -0.08344318 0.29920341 -0.21310435
v -0.10556099 0.39222615 -0.21498275
v -0.04195675 0.37455830 -0.21498275
v -0.04195675 0.37102473 -0.23971774
v -0.04902389 0.39222615 -0.24325131
v -0.05609103 0.32508834 -0.25738558
v -0.11616170 0.37809187 -0.25738558
v -0.08789315 0.40636042 -0.22558346
v -0.08789315 0.40282685 -0.21498275
v -0.11616170 0.36395760 -0.21498275
v -0.04902389 0.38869258 -0.21851632
v -0.03842318 0.35335689 -0.21498275
v -0.05176145 0.30846655 -0.21325679
v -0.05962460 0.40282685 -0.22558346
v -0.05609103 0.39575972 -0.25738558
v -0.04549032 0.38515901 -0.24325131
v -0.04549032 0.33922262 -0.24678487
v -0.09849385 0.32862191 -0.25738558
v -0.10556099 0.39575972 -0.23618417
v -0.08082601 0.40636042 -0.25031844
v -0.10202742 0.39575972 -0.21498275
v -0.10944532 0.33310352 -0.21441499
v -0.11262813 0.38162544 -0.21498275
v -0.11616170 0.34982332 -0.25738558
v -0.04549032 0.38515901 -0.22204989
v -0.04549032 0.38162544 -0.21498275
v -0.04195675 0.37455830 -0.23618417
v -0.03842318 0.35335689 -0.21851632
v -0.06315816 0.29681979 -0.21851632
v -0.07022530 0.40282685 -0.21498275
v -0.04902389 0.39222615 -0.22558346
v -0.04902389 0.38869258 -0.25031844
v -0.05962460 0.40282685 -0.24325131
v -0.04549032 0.38162544 -0.24678487
v -0.04902389 0.30742050 -0.21851632
v -0.04902389 0.34275618 -0.25738558
v -0.09142672 0.30035336 -0.21851632
v -0.11262813 0.38515901 -0.25738558
v -0.09496028 0.40282685 -0.24678487
v -0.08789315 0.40282685 -0.25738558
v -0.06669173 0.40636042 -0.22558346
v -0.09496028 0.40282685 -0.22204989
v -0.10202742 0.39929329 -0.22911703
v -0.11616170 0.34628975 -0.21498275
v -0.11616170 0.37455830 -0.22911703
v -0.11262813 0.38515901 -0.22911703
v -0.04195675 0.37809187 -0.22558346
v -0.04195675 0.34628975 -0.23971774
v -0.06370783 0.29850954 -0.21328857
v -0.08435958 0.31802120 -0.25385201
v -0.07022530 0.40636042 -0.22204989
v -0.05609103 0.39929329 -0.22204989
v -0.05609103 0.39929329 -0.24678487
v -0.04549032 0.37455830 -0.25031844
v -0.04549032 0.32155477 -0.22911703
v -0.05609103 0.30035336 -0.21851632
v -0.04549032 0.31448763 -0.21498275
f 6 3 4
f 13 4 3
f 14 4 13
f 19 7 10
f 20 19 10
f 20 2 19
f 20 16 8
f 22 3 6
f 25 14 13
f 28 9 8
f 28 8 16
f 29 5 8
f 30 8 9
f 30 29 8
f 30 17 29
f 31 17 14
f 31 14 25
f 32 10 7
f 33 18 1
f 33 32 18
f 33 10 32
f 33 20 10
f 33 1 20
f 34 11 23
f 35 19 2
f 35 11 34
f 35 7 19
f 37 20 1
f 37 16 20
f 38 1 18
f 38 18 32
f 38 12 21
f 38 32 7
f 38 7 12
f 39 22 12
f 39 3 22
f 39 23 3
f 39 12 23
f 40 21 12
f 41 23 11
f 41 3 23
f 43 24 13
f 43 13 3
f 44 8 5
f 44 31 25
f 44 5 31
f 44 36 8
f 45 26 4
f 45 4 14
f 46 4 26
f 46 15 27
f 47 27 6
f 47 6 4
f 47 46 27
f 47 4 46
f 48 27 15
f 48 21 40
f 48 40 6
f 48 6 27
f 49 28 16
f 49 16 15
f 49 15 46
f 50 26 9
f 50 9 28
f 50 28 49
f 50 49 46
f 50 46 26
f 51 29 17
f 51 5 29
f 51 31 5
f 51 17 31
f 52 14 17
f 52 17 30
f 53 30 9
f 53 9 26
f 53 26 45
f 53 45 14
f 53 52 30
f 53 14 52
f 54 34 23
f 54 35 34
f 54 7 35
f 54 23 12
f 54 12 7
f 55 11 35
f 55 24 43
f 55 35 2
f 56 20 8
f 56 8 36
f 57 25 13
f 57 13 36
f 57 44 25
f 57 36 44
f 58 15 16
f 58 16 37
f 58 48 15
f 58 37 1
f 59 38 21
f 59 1 38
f 59 21 48
f 59 58 1
f 59 48 58
f 60 40 12
f 60 12 22
f 60 22 6
f 60 6 40
f 61 41 11
f 61 3 41
f 61 43 3
f 61 55 43
f 61 11 55
f 62 42 13
f 62 13 24
f 62 24 55
f 62 55 2
f 63 36 13
f 63 13 42
f 63 56 36
f 63 42 20
f 63 20 56
f 64 2 20
f 64 20 42
f 64 62 2
f 64 42 62

