# https://github.com/mikedh/trimesh
mtllib material.mtl
usemtl Material087
v 0.10998671 0.34628975 -0.10544212
v 0.12043197 0.32150151 -0.10543818
v 0.11705385 0.34275618 -0.14077781
v 0.04284890 0.35335689 -0.14077781
v 0.00382854 0.32384510 -0.10392635
v 0.09585244 0.36042403 -0.14077781
v 0.12058742 0.33215548 -0.10544212
v 0.05698318 0.36042403 -0.10544212
v 0.03807123 0.32149022 -0.14035427
v 0.10291957 0.35689046 -0.13724424
v 0.12058742 0.33215548 -0.14077781
v 0.11352028 0.34628975 -0.11957639
v 0.11705385 0.33922262 -0.10544212
v 0.09585244 0.35689046 -0.10544212
v 0.03578177 0.34982332 -0.10544212
v 0.06051675 0.36042403 -0.14077781
v 0.00379070 0.32031173 -0.10641437
v 0.10291957 0.35689046 -0.14077781
v 0.11972270 0.32141290 -0.14073480
v 0.11705385 0.34275618 -0.13724424
v 0.08171816 0.36042403 -0.10544212
v 0.09585244 0.36042403 -0.13017710
v 0.10291957 0.35335689 -0.10897569
v 0.04638247 0.35689046 -0.13017710
v 0.00397965 0.32508834 -0.10897569
v 0.03578177 0.34275618 -0.14077781
v 0.09231887 0.36042403 -0.12310996
v 0.10998671 0.34982332 -0.12310996
v 0.10645314 0.34982332 -0.10544212
v 0.04638247 0.35689046 -0.14077781
v 0.09585244 0.32155477 -0.14077781
v 0.03931533 0.34982332 -0.14077781
v 0.03578177 0.34982332 -0.11604282
v 0.05698318 0.36042403 -0.13017710
f 6 3 4
f 7 5 2
f 11 7 2
f 11 3 7
f 11 4 3
f 13 1 5
f 13 5 7
f 13 12 1
f 15 5 8
f 16 8 6
f 16 6 4
f 17 2 5
f 18 3 6
f 18 6 10
f 18 12 3
f 18 10 12
f 19 11 2
f 19 17 9
f 19 2 17
f 20 13 7
f 20 7 3
f 20 3 12
f 20 12 13
f 21 8 5
f 21 5 14
f 21 6 8
f 22 10 6
f 22 6 21
f 23 22 14
f 23 10 22
f 24 15 8
f 25 5 15
f 25 17 5
f 25 9 17
f 26 4 11
f 26 9 25
f 27 22 21
f 27 21 14
f 27 14 22
f 28 23 12
f 28 12 10
f 28 10 23
f 29 23 14
f 29 1 12
f 29 12 23
f 29 14 5
f 29 5 1
f 30 16 4
f 30 4 25
f 30 15 24
f 30 24 8
f 31 19 9
f 31 9 26
f 31 26 11
f 31 11 19
f 32 26 25
f 32 25 4
f 32 4 26
f 33 30 25
f 33 25 15
f 33 15 30
f 34 30 8
f 34 8 16
f 34 16 30

