# https://github.com/mikedh/trimesh
mtllib material.mtl
usemtl Material106
v 0.12073579 0.32059991 -0.10542941
v 0.12765456 0.28621908 -0.10544212
v 0.11495637 0.32178299 -0.17917907
v 0.06758389 0.32155477 -0.17964706
v 0.06758389 0.28268551 -0.10544212
v 0.06758389 0.32155477 -0.10544212
v 0.12412099 0.32155477 -0.13724424
v 0.12327447 0.28285522 -0.10534214
v 0.12765456 0.30388693 -0.10544212
v 0.12058742 0.31095406 -0.16904636
v 0.12412099 0.31802120 -0.14431138
v 0.10645314 0.28268551 -0.17964706
v 0.12765456 0.28621908 -0.10897569
v 0.12765456 0.30388693 -0.10897569
v 0.12058742 0.32155477 -0.16904636
v 0.12412099 0.28268551 -0.12664353
v 0.06758389 0.28268551 -0.17964706
v 0.11705385 0.30742050 -0.17964706
v 0.12412099 0.30035336 -0.14431138
v 0.11705385 0.28268551 -0.15844565
v 0.11705385 0.30035336 -0.17611350
v 0.11352028 0.29681979 -0.17964706
v 0.12058742 0.30035336 -0.16197922
v 0.12058742 0.28268551 -0.14431138
f 6 3 4
f 6 4 5
f 7 6 1
f 7 3 6
f 8 6 5
f 8 1 6
f 9 7 1
f 9 8 2
f 9 1 8
f 13 9 2
f 14 11 7
f 14 7 9
f 14 13 11
f 14 9 13
f 15 11 10
f 15 3 7
f 15 7 11
f 16 8 5
f 16 5 12
f 16 13 2
f 16 2 8
f 17 12 5
f 17 5 4
f 17 4 12
f 18 12 4
f 18 4 3
f 18 15 10
f 18 3 15
f 19 10 11
f 19 11 13
f 19 13 16
f 20 16 12
f 21 18 10
f 22 12 18
f 22 18 21
f 22 21 20
f 22 20 12
f 23 21 10
f 23 10 19
f 23 19 16
f 23 20 21
f 24 23 16
f 24 16 20
f 24 20 23

