# https://github.com/mikedh/trimesh
mtllib material.mtl
usemtl Material099
v 0.00382854 0.32384510 -0.10392635
v 0.00396020 0.26163607 -0.10506130
v 0.00044608 0.30035336 -0.11957639
v -0.02569754 0.30695477 -0.12944300
v -0.02462358 0.33174378 -0.10540502
v -0.02075534 0.28621908 -0.13017710
v -0.02075534 0.31802120 -0.12664353
v 0.00397965 0.30388693 -0.11604282
v -0.01458073 0.24807378 -0.10365187
v 0.00397965 0.27208481 -0.11250926
v -0.02075534 0.33215548 -0.11250926
v -0.02075534 0.30742050 -0.13017710
v 0.00397965 0.32508834 -0.10897569
v 0.00034096 0.25846093 -0.10410748
v -0.02248913 0.33002265 -0.10524993
v -0.02630258 0.24810659 -0.11384369
v 0.00044608 0.29328622 -0.11957639
v -0.02576035 0.33123206 -0.11146747
v -0.02610275 0.28690843 -0.12949416
v -0.00662106 0.30742050 -0.12310996
v 0.00397965 0.26148410 -0.10897569
v -0.02310017 0.24668011 -0.10734269
v 0.00397965 0.28621908 -0.11604282
v -0.02599721 0.31644181 -0.12521012
v -0.02075534 0.24734982 -0.11604282
v -0.01722177 0.31448763 -0.12664353
v 0.00397965 0.31802120 -0.11250926
v 0.00044608 0.25795053 -0.10897569
v -0.01368820 0.24734982 -0.10897569
f 12 4 7
f 12 3 6
f 13 1 2
f 13 10 8
f 13 7 11
f 13 11 5
f 13 5 1
f 14 2 1
f 14 1 9
f 15 9 1
f 15 1 5
f 15 5 9
f 17 6 3
f 17 3 8
f 18 11 7
f 18 5 11
f 18 16 5
f 19 12 6
f 19 4 12
f 20 3 12
f 21 13 2
f 21 10 13
f 21 6 10
f 22 9 5
f 22 5 16
f 23 10 6
f 23 6 17
f 23 17 8
f 23 8 10
f 24 18 7
f 24 7 4
f 24 4 19
f 24 19 16
f 24 16 18
f 25 19 6
f 25 16 19
f 25 6 21
f 25 22 16
f 26 20 12
f 26 12 7
f 26 7 13
f 27 13 8
f 27 8 3
f 27 3 20
f 27 26 13
f 27 20 26
f 28 21 2
f 28 2 14
f 28 25 21
f 29 9 22
f 29 22 25
f 29 25 28
f 29 28 14
f 29 14 9

