# https://github.com/mikedh/trimesh
mtllib material.mtl
usemtl Material002
v 0.05698318 -0.24734982 0.11010559
v 0.05698318 -0.31448763 0.11010559
v 0.05823625 -0.29856109 0.06002419
v -0.05255746 -0.24734982 0.06063562
v -0.07022530 -0.30035336 0.11010559
v 0.05698318 -0.24734982 0.06063562
v -0.06779314 -0.29530031 0.11061637
v -0.00662106 -0.34275618 0.06770276
v 0.00397965 -0.34982332 0.11010559
v -0.05255746 -0.24734982 0.11010559
v -0.05255746 -0.31095406 0.06063562
v -0.03135604 -0.34275618 0.11010559
v 0.02518106 -0.34275618 0.11010559
v -0.06624083 -0.29645228 0.08888807
v 0.00751321 -0.33922262 0.06063562
v -0.02428891 -0.34628975 0.11010559
v -0.06315816 -0.31095406 0.11010559
v -0.02428891 -0.33568905 0.06063562
v 0.05698318 -0.30742050 0.06063562
v -0.06669173 -0.30388693 0.09243774
v -0.07022530 -0.30035336 0.10657202
v 0.01458035 -0.34628975 0.08890417
v -0.01368820 -0.34628975 0.08183703
v -0.03488961 -0.33568905 0.08537060
v -0.01368820 -0.33922262 0.06063562
v 0.05698318 -0.31448763 0.10303845
v 0.02518106 -0.33215548 0.06063562
v -0.06315816 -0.31095406 0.10657202
v 0.00044608 -0.34628975 0.07830347
v -0.00662106 -0.34982332 0.10303845
v -0.02782247 -0.34275618 0.09243774
v -0.04195675 -0.32155477 0.06063562
v -0.04549032 -0.32862191 0.09597131
v 0.05698318 -0.31095406 0.07830347
v 0.03578177 -0.33568905 0.11010559
v 0.01811392 -0.33568905 0.06063562
v 0.03931533 -0.32155477 0.06063562
v 0.00397965 -0.34275618 0.06770276
v -0.00308749 -0.34628975 0.07830347
v 0.00044608 -0.34982332 0.09950488
v -0.02428891 -0.34628975 0.10303845
v -0.03488961 -0.33922262 0.09950488
v -0.01722177 -0.34628975 0.08537060
v -0.03488961 -0.32862191 0.06416919
v -0.05255746 -0.31448763 0.07123633
v -0.05255746 -0.32155477 0.09950488
v 0.04284890 -0.32862191 0.10303845
v 0.03578177 -0.33568905 0.10657202
v 0.01811392 -0.34275618 0.08183703
v 0.00751321 -0.34628975 0.08183703
v 0.00397965 -0.34982332 0.10303845
v -0.00308749 -0.34982332 0.09950488
v -0.03135604 -0.34275618 0.10657202
v -0.02075534 -0.34275618 0.07830347
v -0.04195675 -0.32508834 0.07123633
v 0.02518106 -0.34275618 0.10657202
v 0.03224820 -0.33215548 0.07830347
v 0.02518106 -0.33922262 0.08537060
v 0.04638247 -0.31802120 0.06770276
v 0.02164749 -0.34275618 0.09243774
f 1 2 3
f 6 1 3
f 6 3 4
f 6 4 1
f 7 2 1
f 10 7 1
f 10 1 4
f 10 4 5
f 10 5 7
f 11 4 3
f 13 7 9
f 14 4 11
f 16 9 7
f 16 7 12
f 17 12 7
f 17 7 5
f 20 14 11
f 21 5 4
f 21 4 14
f 21 14 20
f 21 17 5
f 22 13 9
f 25 15 8
f 25 8 23
f 25 18 3
f 25 3 15
f 26 3 2
f 28 21 20
f 28 17 21
f 30 9 16
f 31 24 18
f 32 11 3
f 32 3 18
f 34 19 3
f 34 3 26
f 35 26 2
f 35 2 7
f 35 7 13
f 36 15 3
f 36 3 27
f 37 27 3
f 37 3 19
f 38 29 8
f 38 8 15
f 39 23 8
f 39 8 29
f 40 9 30
f 40 39 29
f 41 30 16
f 41 16 12
f 42 24 31
f 42 33 24
f 42 12 17
f 43 41 31
f 43 30 41
f 43 25 23
f 43 18 25
f 44 32 18
f 44 18 24
f 44 24 32
f 45 33 20
f 45 20 11
f 45 11 32
f 46 28 20
f 46 20 33
f 46 33 42
f 46 42 17
f 46 17 28
f 47 34 26
f 48 35 13
f 48 19 34
f 48 34 47
f 48 47 26
f 48 26 35
f 49 36 27
f 49 22 36
f 50 29 38
f 50 40 29
f 50 22 40
f 50 38 15
f 50 36 22
f 50 15 36
f 51 40 22
f 51 22 9
f 51 9 40
f 52 40 30
f 52 23 39
f 52 39 40
f 52 43 23
f 52 30 43
f 53 41 12
f 53 12 42
f 53 42 31
f 53 31 41
f 54 43 31
f 54 31 18
f 54 18 43
f 55 45 32
f 55 32 24
f 55 24 33
f 55 33 45
f 56 48 13
f 56 13 22
f 57 27 37
f 58 48 56
f 58 57 48
f 58 49 27
f 58 27 57
f 58 22 49
f 59 57 37
f 59 37 19
f 59 19 48
f 59 48 57
f 60 58 56
f 60 56 22
f 60 22 58

