# https://github.com/mikedh/trimesh
mtllib material.mtl
usemtl Material055
v 0.07039825 -0.33891505 0.21300432
v 0.07111745 -0.34628975 0.20904551
v 0.05698318 -0.33922262 0.19137767
v -0.05609103 -0.34275618 0.19137767
v -0.04460244 -0.38815000 0.21428790
v 0.00044608 -0.33922262 0.21257908
v 0.07111745 -0.33922262 0.20551195
v 0.04555932 -0.38462083 0.21399192
v 0.03224820 -0.36749117 0.19137767
v 0.00044608 -0.33922262 0.19137767
v -0.07117652 -0.34524422 0.21382882
v 0.05344961 -0.35335689 0.19137767
v 0.05803871 -0.36611738 0.21442888
v -0.03842318 -0.36749117 0.19137767
v 0.00044608 -0.38869258 0.20551195
v -0.07219978 -0.34212495 0.21333361
v -0.06669173 -0.36395760 0.20904551
v 0.07111745 -0.34275618 0.20551195
v 0.05344961 -0.37809187 0.20904551
v 0.06842613 -0.34513884 0.21417035
v -0.05028314 -0.38377818 0.21488256
v 0.00073324 -0.38873038 0.20977115
v -0.04549032 -0.38869258 0.20904551
v -0.05255746 -0.35689046 0.19137767
v -0.07375887 -0.34628975 0.20904551
v 0.05698318 -0.34275618 0.19137767
v 0.04638247 -0.37809187 0.20197838
v 0.05141575 -0.37667464 0.21472826
v 0.06051675 -0.36749117 0.20904551
v -0.06669173 -0.36395760 0.21257908
v 0.04638247 -0.38515901 0.20904551
v -0.05255746 -0.38515901 0.20904551
v -0.07375887 -0.34275618 0.20904551
v -0.07022530 -0.34982332 0.20551195
v -0.07022530 -0.35689046 0.21257908
v 0.04284890 -0.36395760 0.19137767
v 0.04991604 -0.36395760 0.19491124
v 0.06405032 -0.35689046 0.20551195
v -0.04902389 -0.36749117 0.19491124
v -0.07022530 -0.35689046 0.20904551
v -0.05609103 -0.34628975 0.19137767
v 0.04638247 -0.36749117 0.19491124
v -0.04549032 -0.36395760 0.19137767
v -0.06315816 -0.34982332 0.19844481
f 7 1 2
f 7 3 1
f 9 4 3
f 10 6 1
f 10 1 3
f 10 3 4
f 12 9 3
f 14 4 9
f 15 14 9
f 16 10 4
f 16 6 10
f 16 1 6
f 18 7 2
f 18 3 7
f 20 13 2
f 20 2 1
f 20 16 11
f 20 1 16
f 21 5 8
f 21 20 11
f 22 8 5
f 23 14 15
f 23 22 5
f 23 15 22
f 24 4 14
f 26 18 12
f 26 12 3
f 26 3 18
f 27 15 9
f 28 8 19
f 28 21 8
f 28 13 20
f 28 20 21
f 29 2 13
f 29 28 19
f 29 13 28
f 31 22 15
f 31 8 22
f 31 15 27
f 31 27 19
f 31 19 8
f 32 17 24
f 32 30 17
f 32 21 30
f 32 23 5
f 32 5 21
f 33 25 16
f 33 16 4
f 34 24 17
f 34 33 4
f 34 25 33
f 35 11 16
f 35 16 25
f 35 17 30
f 35 30 21
f 35 21 11
f 36 27 9
f 36 9 12
f 37 19 27
f 37 29 19
f 37 36 12
f 38 12 18
f 38 18 2
f 38 2 29
f 38 37 12
f 38 29 37
f 39 32 24
f 39 14 23
f 39 23 32
f 40 34 17
f 40 25 34
f 40 35 25
f 40 17 35
f 41 34 4
f 41 4 24
f 42 37 27
f 42 27 36
f 42 36 37
f 43 39 24
f 43 24 14
f 43 14 39
f 44 41 24
f 44 24 34
f 44 34 41

