# https://github.com/mikedh/trimesh
mtllib material.mtl
usemtl Material094
v 0.03578177 -0.03886926 0.20904551
v 0.12058742 -0.05653710 0.12070629
v 0.11352028 0.00353357 0.12070629
v -0.11113893 0.00343321 0.10958403
v -0.11817964 -0.05670528 0.10985190
v 0.11727122 -0.02874296 0.10901076
v -0.01368820 0.00353357 0.20197838
v 0.10291957 -0.05300353 0.16310912
v 0.12058742 -0.02826855 0.11363916
v 0.11271697 0.00348720 0.10991879
v -0.11283788 -0.01098484 0.10900089
v 0.11887580 -0.05660777 0.10978156
v 0.06405032 0.00353357 0.18077696
v -0.11262813 0.00353357 0.11717272
v -0.05609103 -0.05653710 0.20551195
v 0.10998671 -0.05300353 0.15250841
v 0.11705385 -0.00353357 0.11010559
v 0.02518106 0.00353357 0.19844481
v 0.09231887 0.00000000 0.15957555
v 0.06051675 -0.05300353 0.20197838
v -0.11969527 -0.03533569 0.11010559
v -0.01368820 -0.02120141 0.20904551
v 0.04489757 -0.05757339 0.20615872
v -0.07022530 0.00353357 0.17724339
v 0.10291957 -0.05653710 0.16310912
v 0.11705385 -0.04593640 0.13130700
v 0.11705385 -0.00353357 0.11363916
v 0.04638247 0.00353357 0.19137767
v 0.09938601 0.00353357 0.14897484
v 0.08525173 -0.01766785 0.17370983
v -0.10202742 -0.05300353 0.16310912
v -0.11616170 -0.01060071 0.11363916
v -0.04902389 -0.05300353 0.20904551
v 0.00397965 0.00353357 0.20197838
v 0.10683294 -0.05753315 0.15149640
v 0.04638247 -0.05300353 0.20904551
v -0.04741382 -0.05762831 0.20611708
v 0.07465102 -0.05653710 0.19137767
v 0.12058742 -0.05300353 0.12070629
v 0.11352028 -0.00353357 0.12423986
v 0.07465102 0.00353357 0.17370983
v 0.09585244 -0.01060071 0.15957555
v -0.09496028 0.00353357 0.15250841
v -0.07375887 -0.04593640 0.19137767
v -0.11969527 -0.05653710 0.12070629
v -0.10909456 -0.05300353 0.15250841
v -0.03488961 -0.03533569 0.20904551
v -0.00662106 -0.02120141 0.20904551
v 0.06051675 -0.05653710 0.20197838
v 0.04284890 -0.04593640 0.20904551
v 0.07465102 -0.05300353 0.19137767
v 0.11352028 -0.02120141 0.13130700
v 0.10645314 0.00000000 0.13837414
v 0.11705385 -0.01060071 0.11717272
v 0.08525173 -0.00706714 0.17017626
v 0.10291957 -0.02120141 0.15250841
v 0.09231887 -0.02120141 0.16664269
v -0.06669173 -0.05653710 0.19844481
v -0.08789315 -0.01766785 0.17017626
v -0.05962460 -0.00353357 0.18784410
v -0.05609103 -0.05300353 0.20551195
v -0.10909456 -0.05653710 0.15250841
v -0.11969527 -0.03533569 0.11363916
v -0.11262813 0.00000000 0.12070629
f 11 6 5
f 11 10 6
f 11 4 10
f 12 5 6
f 12 9 2
f 12 6 9
f 13 3 7
f 14 7 3
f 14 10 4
f 14 3 10
f 17 9 6
f 17 6 10
f 17 10 3
f 18 13 7
f 21 11 5
f 21 4 11
f 24 7 14
f 25 16 8
f 25 2 16
f 27 17 3
f 27 9 17
f 28 13 18
f 28 20 13
f 29 3 13
f 32 14 4
f 32 4 21
f 33 1 22
f 34 18 7
f 34 7 22
f 34 1 18
f 35 12 2
f 35 2 25
f 35 5 12
f 36 33 23
f 36 1 33
f 37 35 23
f 37 5 35
f 37 33 15
f 37 23 33
f 38 25 8
f 38 35 25
f 38 23 35
f 39 2 9
f 39 9 26
f 39 26 16
f 39 16 2
f 41 29 13
f 41 19 29
f 42 29 19
f 43 24 14
f 45 21 5
f 46 31 43
f 47 33 22
f 47 22 7
f 48 34 22
f 48 22 1
f 48 1 34
f 49 36 23
f 49 20 36
f 49 38 20
f 49 23 38
f 50 1 36
f 50 28 18
f 50 18 1
f 50 36 20
f 50 20 28
f 51 30 20
f 51 20 38
f 51 38 8
f 51 8 30
f 52 40 16
f 52 16 26
f 52 26 40
f 53 16 40
f 53 40 3
f 53 3 29
f 54 40 26
f 54 26 9
f 54 9 27
f 54 27 3
f 54 3 40
f 55 19 41
f 55 42 19
f 55 30 42
f 55 41 13
f 55 13 20
f 55 20 30
f 56 29 42
f 56 53 29
f 56 16 53
f 56 42 8
f 56 8 16
f 57 42 30
f 57 30 8
f 57 8 42
f 58 44 31
f 58 37 15
f 59 43 31
f 59 31 44
f 59 44 24
f 59 24 43
f 60 24 44
f 60 33 47
f 60 47 7
f 60 7 24
f 61 15 33
f 61 60 44
f 61 33 60
f 61 58 15
f 61 44 58
f 62 45 5
f 62 5 37
f 62 37 58
f 62 58 31
f 62 46 45
f 62 31 46
f 63 32 21
f 63 21 45
f 63 45 46
f 64 14 32
f 64 63 46
f 64 32 63
f 64 46 43
f 64 43 14

