# https://github.com/mikedh/trimesh
mtllib material.mtl
usemtl Material012
v 0.12058742 -0.20141343 0.31151901
v 0.14178883 -0.30035336 0.26558262
v 0.13472170 -0.21554770 0.25498191
v 0.12058742 -0.24734982 0.23024693
v 0.10998671 -0.31448763 0.31151901
v 0.14178883 -0.27561838 0.22671336
v 0.10645314 -0.19787986 0.26911619
v 0.12412099 -0.21201413 0.31151901
v 0.14178883 -0.25795053 0.24791477
v 0.13118813 -0.20848057 0.24791477
v 0.11705385 -0.31448763 0.24438120
v 0.10695346 -0.19927897 0.31128351
v 0.13118813 -0.20494700 0.27264975
v 0.12765456 -0.30388693 0.31151901
v 0.10998671 -0.24734982 0.31505258
v 0.14178883 -0.25795053 0.23731407
v 0.14178883 -0.27561838 0.26204905
v 0.13472170 -0.24734982 0.23024693
v 0.11705385 -0.20848057 0.24791477
v 0.12412099 -0.28975265 0.22671336
v 0.10998671 -0.27208481 0.23378050
v 0.13472170 -0.31448763 0.23731407
v 0.10645314 -0.24734982 0.31151901
v 0.12058742 -0.19434629 0.29031760
v 0.12765456 -0.20848057 0.29385117
v 0.13118813 -0.20494700 0.26204905
v 0.13472170 -0.21554770 0.25851548
v 0.13472170 -0.28975265 0.29031760
v 0.12412099 -0.24734982 0.31505258
v 0.11705385 -0.19787986 0.31151901
v 0.13118813 -0.21201413 0.27971689
v 0.13472170 -0.25795053 0.22671336
v 0.12412099 -0.21908127 0.24084764
v 0.14178883 -0.26501767 0.23024693
v 0.12412099 -0.19787986 0.26558262
v 0.10998671 -0.29328622 0.24084764
v 0.10998671 -0.25088339 0.23378050
v 0.14178883 -0.30388693 0.24084764
v 0.12412099 -0.32508834 0.26911619
v 0.13825526 -0.29328622 0.22671336
v 0.12765456 -0.31448763 0.23731407
v 0.10645314 -0.19434629 0.30091831
v 0.11053739 -0.30869197 0.31435755
v 0.12412099 -0.19787986 0.29031760
v 0.12765456 -0.20141343 0.28325046
v 0.12412099 -0.20848057 0.30798544
v 0.13472170 -0.30035336 0.29031760
v 0.12765456 -0.28975265 0.31151901
v 0.14178883 -0.28975265 0.26558262
v 0.12058742 -0.19787986 0.30445187
v 0.14178883 -0.26501767 0.25498191
v 0.12765456 -0.21554770 0.29738474
v 0.13825526 -0.26501767 0.22671336
v 0.12412099 -0.27208481 0.22671336
v 0.12765456 -0.23674912 0.23378050
v 0.13118813 -0.21554770 0.24438120
v 0.10998671 -0.23674912 0.23731407
v 0.13825526 -0.25441696 0.23024693
v 0.10998671 -0.19787986 0.26558262
v 0.11352028 -0.20141343 0.25851548
v 0.12765456 -0.20141343 0.25851548
v 0.12412099 -0.30035336 0.23024693
v 0.10998671 -0.31802120 0.26558262
v 0.10645314 -0.24734982 0.26204905
f 9 2 6
f 16 9 6
f 16 3 9
f 16 10 3
f 17 2 9
f 23 15 12
f 26 13 3
f 26 3 10
f 26 24 13
f 27 9 3
f 27 3 13
f 29 8 1
f 30 12 15
f 30 29 1
f 30 15 29
f 31 13 25
f 31 25 8
f 31 27 13
f 32 4 18
f 32 6 20
f 33 19 10
f 34 16 6
f 34 10 16
f 35 24 26
f 36 21 20
f 37 20 21
f 38 6 2
f 39 14 5
f 39 2 14
f 39 38 2
f 39 22 38
f 40 20 6
f 40 38 22
f 40 6 38
f 41 40 22
f 41 39 11
f 41 22 39
f 42 23 12
f 42 7 23
f 42 30 24
f 42 12 30
f 43 23 5
f 43 15 23
f 43 29 15
f 43 5 14
f 43 14 29
f 44 13 24
f 45 25 13
f 45 44 1
f 45 13 44
f 46 1 8
f 46 8 25
f 46 45 1
f 46 25 45
f 47 28 14
f 47 14 2
f 47 2 28
f 48 28 8
f 48 14 28
f 48 29 14
f 48 8 29
f 49 17 8
f 49 8 28
f 49 28 2
f 49 2 17
f 50 30 1
f 50 24 30
f 50 44 24
f 50 1 44
f 51 31 17
f 51 17 9
f 51 9 27
f 51 27 31
f 52 31 8
f 52 8 17
f 52 17 31
f 53 32 18
f 53 6 32
f 53 34 6
f 54 32 20
f 54 4 32
f 54 37 4
f 54 20 37
f 55 33 18
f 55 18 4
f 55 4 33
f 56 33 10
f 56 10 18
f 56 18 33
f 57 33 4
f 57 19 33
f 57 4 37
f 57 37 7
f 57 7 19
f 58 18 10
f 58 10 34
f 58 53 18
f 58 34 53
f 59 19 7
f 59 24 35
f 59 42 24
f 59 7 42
f 60 10 19
f 60 59 35
f 60 19 59
f 61 35 26
f 61 26 10
f 61 60 35
f 61 10 60
f 62 36 20
f 62 11 36
f 62 41 11
f 62 20 40
f 62 40 41
f 63 36 11
f 63 5 23
f 63 39 5
f 63 11 39
f 64 23 7
f 64 21 36
f 64 37 21
f 64 7 37
f 64 63 23
f 64 36 63

