# https://github.com/mikedh/trimesh
mtllib material.mtl
usemtl Material053
v -0.02428891 -0.11307420 -0.09484141
v -0.02428891 -0.15547703 -0.09484141
v -0.04902389 -0.14487633 -0.14431138
v -0.10202742 -0.14487633 -0.14431138
v -0.11969527 -0.15194346 -0.09484141
v -0.10735780 -0.15666739 -0.14394172
v -0.06669173 -0.13427562 -0.14077781
v -0.02428891 -0.15194346 -0.11250926
v -0.04492526 -0.11293901 -0.09377456
v -0.04936636 -0.15560023 -0.14429214
v -0.11262813 -0.15194346 -0.13371067
v -0.11732007 -0.15666326 -0.09443019
v -0.02391920 -0.11306809 -0.10437481
v -0.05609103 -0.13780919 -0.14431138
v -0.11262813 -0.13780919 -0.09837498
v -0.08789315 -0.13780919 -0.14431138
v -0.10909456 -0.15194346 -0.14431138
v -0.04549032 -0.15194346 -0.14077781
v -0.02428891 -0.15547703 -0.11250926
v -0.04874681 -0.15665825 -0.14042919
v -0.11007526 -0.15722620 -0.13315475
v -0.11262813 -0.13780919 -0.09484141
v -0.02428891 -0.12367491 -0.10897569
v -0.11969527 -0.15194346 -0.09837498
v -0.08435958 -0.12367491 -0.09837498
v -0.03135604 -0.11307420 -0.10544212
v -0.10909456 -0.14840989 -0.13724424
v -0.11684189 -0.15690231 -0.09788218
v -0.08435958 -0.12367491 -0.09484141
v -0.09849385 -0.13427562 -0.11250926
v -0.07729244 -0.13427562 -0.14077781
v -0.04549032 -0.11307420 -0.09837498
f 9 2 1
f 12 2 9
f 13 1 2
f 13 9 1
f 14 3 4
f 14 13 3
f 14 7 13
f 16 14 4
f 16 7 14
f 17 10 6
f 17 4 3
f 17 3 10
f 17 6 11
f 18 10 3
f 19 13 2
f 19 8 13
f 19 18 8
f 19 10 18
f 20 19 2
f 20 6 10
f 20 10 19
f 21 11 6
f 21 6 20
f 22 12 9
f 22 5 12
f 22 15 5
f 23 13 8
f 23 3 13
f 23 18 3
f 23 8 18
f 24 15 11
f 24 5 15
f 24 11 21
f 24 12 5
f 25 15 22
f 26 13 7
f 26 9 13
f 27 15 4
f 27 4 17
f 27 17 11
f 27 11 15
f 28 20 2
f 28 2 12
f 28 21 20
f 28 24 21
f 28 12 24
f 29 25 22
f 29 22 9
f 30 25 16
f 30 16 4
f 30 4 15
f 30 15 25
f 31 26 7
f 31 7 16
f 32 9 26
f 32 29 9
f 32 25 29
f 32 16 25
f 32 31 16
f 32 26 31

