# https://github.com/mikedh/trimesh
mtllib material.mtl
usemtl Material009
v 0.06758389 0.28975265 -0.06657286
v 0.06758389 0.22968198 -0.06657286
v 0.06758389 0.28975265 -0.10544212
v 0.02164749 0.28268551 -0.11957639
v 0.00397965 0.22968198 -0.06657286
v 0.06758389 0.22968198 -0.10544212
v 0.00397965 0.28975265 -0.06657286
v 0.02518106 0.27915194 -0.11957639
v 0.00397965 0.28975265 -0.10544212
v 0.00397965 0.24028269 -0.10190855
v 0.00371541 0.23087767 -0.08960381
v 0.02871463 0.22968198 -0.10544212
v 0.00397965 0.27208481 -0.11250926
v 0.00385265 0.28291657 -0.11096971
v 0.02164749 0.27915194 -0.11957639
f 1 2 3
f 5 2 1
f 6 3 2
f 6 2 5
f 7 1 3
f 7 5 1
f 8 4 3
f 8 3 6
f 9 7 3
f 9 3 4
f 11 5 7
f 12 8 6
f 12 11 10
f 12 6 5
f 12 5 11
f 13 12 10
f 13 10 11
f 14 11 7
f 14 7 9
f 14 13 11
f 14 9 4
f 14 4 13
f 15 13 4
f 15 4 8
f 15 8 12
f 15 12 13

