# https://github.com/mikedh/trimesh
mtllib material.mtl
usemtl Material101
v 0.07818459 -0.18727915 0.28678403
v 0.08878530 -0.18727915 0.25851548
v 0.07818459 -0.15901060 0.25498191
v 0.07353671 -0.16018200 0.25027240
v 0.07465102 -0.19081272 0.25144834
v 0.08878530 -0.18374558 0.25144834
v 0.07465102 -0.15901060 0.25498191
v 0.08171816 -0.18727915 0.28325046
v 0.07283675 -0.18951727 0.28550038
v 0.08171816 -0.16607774 0.25498191
v 0.07818459 -0.15901060 0.25144834
v 0.08754846 -0.19113502 0.25117446
v 0.07664345 -0.19271390 0.28569363
v 0.08878530 -0.18374558 0.25498191
v 0.08171816 -0.16607774 0.25144834
v 0.08171816 -0.19081272 0.28325046
v 0.07427900 -0.19127165 0.28652082
v 0.08589447 -0.19192019 0.25767016
v 0.08525173 -0.18727915 0.27264975
v 0.08525173 -0.19081272 0.27264975
v 0.08525173 -0.17667844 0.25851548
f 7 1 3
f 8 3 1
f 9 4 5
f 9 7 4
f 9 1 7
f 10 3 8
f 11 3 10
f 11 7 3
f 11 4 7
f 12 5 4
f 12 4 6
f 12 6 2
f 14 2 6
f 14 6 10
f 15 6 4
f 15 4 11
f 15 11 10
f 15 10 6
f 16 8 1
f 16 1 13
f 17 13 1
f 17 1 9
f 17 9 5
f 17 5 13
f 18 13 5
f 18 5 12
f 19 10 8
f 19 2 14
f 19 8 16
f 20 16 13
f 20 13 18
f 20 19 16
f 20 2 19
f 20 18 12
f 20 12 2
f 21 19 14
f 21 14 10
f 21 10 19

