# https://github.com/mikedh/trimesh
mtllib material.mtl
usemtl Material043
v 0.05096065 -0.34553477 0.19332067
v 0.05344961 -0.34628975 0.18784410
v 0.05344961 -0.33922262 0.18077696
v 0.00067204 -0.33720659 0.11026713
v 0.00044608 -0.36749117 0.18784410
v 0.02518106 -0.34275618 0.11010559
v 0.05275934 -0.33884906 0.19160350
v 0.03578177 -0.36395760 0.18784410
v 0.04991604 -0.34275618 0.17017626
v 0.02445120 -0.33786432 0.11023665
v 0.00397965 -0.34982332 0.11010559
v 0.00044608 -0.33922262 0.19137767
v 0.04991604 -0.35335689 0.18784410
v 0.03476634 -0.36155088 0.19298208
v 0.05344961 -0.34275618 0.18077696
v 0.04991604 -0.33922262 0.17017626
v 0.00004488 -0.34666998 0.11015328
v 0.00751321 -0.36749117 0.18784410
v 0.01811392 -0.34628975 0.11010559
v 0.04284890 -0.36042403 0.18784410
v 0.00023699 -0.36509569 0.19254588
v 0.02518106 -0.36395760 0.18077696
v 0.04164334 -0.35804373 0.19334756
v 0.00726090 -0.36460040 0.19278742
v 0.04754717 -0.35202466 0.19328847
f 7 1 2
f 7 2 3
f 10 6 4
f 10 7 3
f 10 4 7
f 12 1 7
f 12 7 4
f 13 2 1
f 13 6 9
f 15 9 3
f 15 3 2
f 15 13 9
f 15 2 13
f 16 9 6
f 16 6 10
f 16 10 3
f 16 3 9
f 17 11 5
f 17 4 6
f 17 6 11
f 17 12 4
f 18 5 11
f 18 8 14
f 19 11 6
f 19 6 8
f 19 8 11
f 20 8 6
f 20 6 13
f 21 5 18
f 21 17 5
f 21 12 17
f 22 18 11
f 22 11 8
f 22 8 18
f 23 14 8
f 23 8 20
f 23 20 13
f 24 21 18
f 24 18 14
f 24 14 23
f 24 23 1
f 24 1 12
f 24 12 21
f 25 23 13
f 25 13 1
f 25 1 23

