# https://github.com/mikedh/trimesh
mtllib material.mtl
usemtl Material074
v -0.04902389 -0.14487633 -0.14431138
v -0.03842318 -0.19787986 -0.14431138
v -0.04549032 -0.16607774 -0.20084848
v -0.09849385 -0.15194346 -0.20084848
v -0.11616170 -0.20494700 -0.14431138
v -0.06315816 -0.14134276 -0.19731491
v -0.03842318 -0.18021201 -0.15137851
v -0.04178533 -0.18101014 -0.14376656
v -0.10202742 -0.14487633 -0.14431138
v -0.06669173 -0.22968198 -0.20084848
v -0.04902389 -0.15194346 -0.19731491
v -0.05609103 -0.14487633 -0.20084848
v -0.04195675 -0.19081272 -0.19731491
v -0.06669173 -0.23321555 -0.14431138
v -0.04195675 -0.16607774 -0.14431138
v -0.11616170 -0.16254417 -0.14784494
v -0.07729244 -0.14134276 -0.19731491
v -0.05609103 -0.13780919 -0.14431138
v -0.11625280 -0.18333575 -0.14384547
v -0.10556099 -0.21201413 -0.20084848
v -0.04549032 -0.16254417 -0.19731491
v -0.04902389 -0.15547703 -0.20084848
v -0.05255746 -0.14134276 -0.16197922
v -0.03842318 -0.19081272 -0.16904636
v -0.04549032 -0.20494700 -0.20084848
v -0.05255746 -0.22614841 -0.14431138
v -0.04549032 -0.15547703 -0.16197922
v -0.10556099 -0.14840989 -0.15844565
v -0.08435958 -0.14487633 -0.20084848
v -0.08435958 -0.13780919 -0.15137851
v -0.08354625 -0.14103956 -0.14386162
v -0.08789315 -0.23321555 -0.14431138
v -0.11969527 -0.18374558 -0.14784494
v -0.11616170 -0.16254417 -0.14431138
v -0.05255746 -0.14840989 -0.20084848
v -0.04902389 -0.14487633 -0.15137851
v -0.05962460 -0.14134276 -0.19024777
v -0.04195675 -0.18021201 -0.19731491
v -0.03842318 -0.19434629 -0.16197922
v -0.04195675 -0.19434629 -0.19378134
v -0.04902389 -0.21554770 -0.19378134
v -0.06315816 -0.22968198 -0.19731491
v -0.04195675 -0.16607774 -0.15137851
v -0.10909456 -0.16607774 -0.19731491
v -0.09496028 -0.14840989 -0.19731491
v -0.07022530 -0.13780919 -0.16904636
v -0.09496028 -0.14134276 -0.14431138
v -0.10909456 -0.21908127 -0.14431138
v -0.08435958 -0.22968198 -0.20084848
v -0.07022530 -0.23321555 -0.15491208
v -0.11969527 -0.18021201 -0.14431138
v -0.11262813 -0.19434629 -0.19378134
v -0.10909456 -0.15194346 -0.14431138
v -0.05255746 -0.14487633 -0.18671420
v -0.04902389 -0.14840989 -0.17611350
v -0.05962460 -0.13780919 -0.15844565
v -0.03842318 -0.18374558 -0.16197922
v -0.03842318 -0.19787986 -0.14784494
v -0.05962460 -0.22968198 -0.16551279
v -0.05609103 -0.22614841 -0.19024777
v -0.05255746 -0.21908127 -0.20084848
v -0.10556099 -0.15901060 -0.19378134
v -0.10909456 -0.16961131 -0.20084848
v -0.08789315 -0.14487633 -0.19731491
f 10 4 3
f 12 3 4
f 15 1 8
f 15 8 2
f 15 2 7
f 17 6 12
f 18 8 1
f 20 4 10
f 21 3 11
f 22 11 3
f 22 3 12
f 23 18 1
f 24 7 2
f 25 10 3
f 25 3 13
f 26 2 8
f 26 8 14
f 27 1 15
f 27 21 11
f 29 17 12
f 29 12 4
f 31 19 8
f 31 8 18
f 32 14 8
f 32 8 19
f 35 22 12
f 35 11 22
f 36 23 1
f 36 1 27
f 37 23 12
f 37 12 6
f 38 3 21
f 38 24 13
f 38 13 3
f 39 24 2
f 40 25 13
f 40 13 24
f 40 39 25
f 40 24 39
f 43 27 15
f 43 15 7
f 43 7 21
f 43 21 27
f 45 29 4
f 45 4 28
f 46 30 18
f 46 6 17
f 46 17 30
f 47 9 31
f 47 28 9
f 47 31 18
f 47 18 30
f 48 32 19
f 48 19 5
f 48 5 20
f 49 20 10
f 49 48 20
f 49 32 48
f 50 14 32
f 50 42 14
f 50 10 42
f 50 49 10
f 50 32 49
f 51 33 5
f 51 5 19
f 51 19 34
f 51 34 16
f 51 44 33
f 51 16 44
f 52 20 5
f 52 5 33
f 53 28 16
f 53 16 34
f 53 9 28
f 53 31 9
f 53 34 19
f 53 19 31
f 54 11 35
f 54 35 12
f 54 12 23
f 55 36 27
f 55 27 11
f 55 11 54
f 55 54 23
f 55 23 36
f 56 37 6
f 56 18 23
f 56 23 37
f 56 46 18
f 56 6 46
f 57 38 21
f 57 21 7
f 57 7 24
f 57 24 38
f 58 39 2
f 58 25 39
f 58 41 25
f 58 2 26
f 58 26 41
f 59 26 14
f 59 14 42
f 60 41 26
f 60 59 42
f 60 26 59
f 61 42 10
f 61 10 25
f 61 25 41
f 61 60 42
f 61 41 60
f 62 28 4
f 62 4 44
f 62 44 16
f 62 16 28
f 63 44 4
f 63 4 20
f 63 20 52
f 63 52 33
f 63 33 44
f 64 30 17
f 64 17 29
f 64 29 45
f 64 47 30
f 64 45 28
f 64 28 47

