# https://github.com/mikedh/trimesh
mtllib material.mtl
usemtl Material072
v 0.01458035 0.32508834 0.15604198
v 0.06758389 0.32508834 0.10303845
v 0.02518106 0.38162544 0.10303845
v -0.02782247 0.37809187 0.09950488
v -0.06939176 0.32091688 0.09896648
v 0.06552469 0.32350423 0.09809002
v -0.01015463 0.36395760 0.13130700
v 0.03224820 0.34628975 0.13484057
v 0.03224820 0.37455830 0.09950488
v -0.01281844 0.38245502 0.09825672
v 0.03931533 0.32155477 0.14190771
v -0.03135604 0.32508834 0.14897484
v 0.03578177 0.36395760 0.11363916
v 0.01104678 0.36395760 0.13130700
v -0.06804107 0.32341786 0.09809511
v 0.02518106 0.38162544 0.09950488
v -0.00662106 0.38515901 0.10657202
v 0.06566542 0.32007892 0.10172028
v 0.03224820 0.32862191 0.14544128
v 0.04284890 0.32508834 0.13837414
v -0.00662106 0.33568905 0.15250841
v -0.01722177 0.32155477 0.15604198
v -0.03488961 0.35689046 0.12423986
v 0.06405032 0.32508834 0.11010559
v 0.02164749 0.37102473 0.12070629
v 0.03224820 0.37455830 0.10303845
v 0.02518106 0.35335689 0.13484057
v 0.01811392 0.38515901 0.09950488
v 0.00751321 0.37809187 0.11717272
v -0.01368820 0.38515901 0.10303845
v 0.06684178 0.32098387 0.09899498
v 0.02871463 0.32508834 0.14897484
v 0.03224820 0.33568905 0.14190771
v -0.02782247 0.34275618 0.14190771
v 0.00397965 0.36042403 0.13484057
v 0.01458035 0.32155477 0.15604198
v -0.00662106 0.32862191 0.15604198
v -0.05609103 0.32155477 0.12423986
v -0.06825180 0.32004545 0.10176468
v -0.06669173 0.32862191 0.10657202
v 0.03578177 0.34628975 0.13130700
v 0.04284890 0.32155477 0.13837414
v 0.06405032 0.32155477 0.11010559
v 0.02871463 0.37455830 0.11010559
v 0.03224820 0.37102473 0.11010559
v 0.01104678 0.33922262 0.14897484
v 0.02164749 0.36395760 0.12777343
v -0.00662106 0.37809187 0.11717272
v 0.01104678 0.37455830 0.12070629
v 0.00751321 0.38515901 0.10657202
v 0.02164749 0.38162544 0.10657202
v -0.02782247 0.36749117 0.12070629
v 0.03931533 0.32508834 0.14190771
v 0.02518106 0.34275618 0.14190771
v -0.01368820 0.34982332 0.14190771
v -0.01722177 0.32508834 0.15604198
v 0.02735855 0.32029476 0.14634612
v 0.00397965 0.32862191 0.15604198
v -0.03135604 0.32155477 0.14897484
v -0.04549032 0.32862191 0.13484057
v -0.07022530 0.32508834 0.10303845
v 0.01811392 0.35689046 0.13484057
v 0.01104678 0.34982332 0.14190771
v -0.01368820 0.38162544 0.11010559
f 9 2 6
f 15 10 6
f 15 6 5
f 15 4 10
f 16 9 6
f 16 6 10
f 16 3 9
f 24 2 13
f 26 9 3
f 26 2 9
f 27 8 25
f 28 16 10
f 28 3 16
f 30 10 4
f 30 28 10
f 30 17 28
f 31 6 2
f 31 18 5
f 31 5 6
f 32 19 1
f 33 20 8
f 36 1 22
f 36 32 1
f 36 11 32
f 37 22 1
f 39 5 18
f 41 24 13
f 41 8 20
f 41 20 24
f 42 24 20
f 42 20 11
f 43 2 24
f 43 31 2
f 43 18 31
f 43 42 18
f 43 24 42
f 44 26 3
f 44 25 8
f 44 8 41
f 45 13 2
f 45 2 26
f 45 26 44
f 45 44 41
f 45 41 13
f 47 27 25
f 47 25 14
f 48 29 17
f 48 35 29
f 48 7 35
f 49 14 25
f 49 35 14
f 49 29 35
f 50 28 17
f 50 17 29
f 51 50 29
f 51 3 28
f 51 28 50
f 51 44 3
f 51 25 44
f 51 49 25
f 51 29 49
f 52 30 4
f 52 7 48
f 52 34 7
f 52 23 34
f 52 40 23
f 52 4 40
f 53 19 32
f 53 33 19
f 53 20 33
f 53 32 11
f 53 11 20
f 54 1 19
f 54 19 33
f 54 46 1
f 54 27 46
f 54 33 8
f 54 8 27
f 55 7 34
f 55 35 7
f 55 21 35
f 56 34 12
f 56 12 22
f 56 22 37
f 56 37 21
f 56 55 34
f 56 21 55
f 57 11 36
f 57 42 11
f 57 18 42
f 57 39 18
f 57 36 22
f 57 22 39
f 58 37 1
f 58 21 37
f 58 46 21
f 58 1 46
f 59 22 12
f 59 12 38
f 59 39 22
f 59 38 39
f 60 34 23
f 60 40 38
f 60 23 40
f 60 38 12
f 60 12 34
f 61 15 5
f 61 5 39
f 61 39 38
f 61 38 40
f 61 40 4
f 61 4 15
f 62 46 27
f 62 47 14
f 62 27 47
f 63 14 35
f 63 35 21
f 63 21 46
f 63 62 14
f 63 46 62
f 64 48 17
f 64 17 30
f 64 52 48
f 64 30 52

