# https://github.com/mikedh/trimesh
mtllib material.mtl
usemtl Material063
v 0.00397965 0.22968198 -0.06303929
v 0.00395109 0.19106211 -0.06279319
v -0.02075534 0.22614841 -0.10544212
v -0.10444926 0.23062460 -0.10484471
v -0.11616170 0.21908127 -0.06303929
v -0.07729244 0.20141343 -0.10544212
v -0.02267225 0.23153190 -0.10371601
v 0.00397965 0.22614841 -0.09130784
v 0.00023722 0.18910332 -0.06123914
v -0.11548498 0.22988377 -0.06294391
v -0.04549032 0.20494700 -0.10544212
v -0.10556099 0.22261484 -0.10544212
v 0.00397965 0.20141343 -0.07717357
v 0.00371541 0.23087767 -0.08960381
v -0.08082601 0.18374558 -0.06657286
v -0.11323153 0.23117136 -0.07981675
v -0.08034153 0.18685018 -0.06178908
v -0.03135604 0.18374558 -0.06657286
v 0.00044608 0.18727915 -0.06657286
v -0.03842318 0.20848057 -0.10544212
v -0.09496028 0.19787986 -0.08070713
v -0.10677534 0.23095326 -0.10101793
v -0.11616170 0.22614841 -0.08070713
v -0.09496028 0.19081272 -0.06303929
v -0.05255746 0.18374558 -0.07010643
v -0.03150837 0.18643922 -0.06151984
v -0.05609103 0.20141343 -0.10544212
v 0.00397965 0.21908127 -0.08777427
v 0.00044608 0.19434629 -0.07364000
v -0.09496028 0.21201413 -0.10544212
v -0.08435958 0.18727915 -0.07364000
v -0.10909456 0.22614841 -0.10190855
v -0.10556099 0.20141343 -0.06657286
v -0.10556099 0.20141343 -0.06303929
v -0.07375887 0.18374558 -0.07010643
v -0.04902389 0.19434629 -0.09130784
v -0.10202742 0.20848057 -0.08777427
v -0.09496028 0.19081272 -0.06657286
v -0.08789315 0.20494700 -0.10190855
v -0.11262813 0.21201413 -0.06657286
v -0.11262813 0.21201413 -0.06303929
v -0.07729244 0.18727915 -0.07717357
v -0.04902389 0.18727915 -0.07717357
v -0.09849385 0.20494700 -0.08777427
v -0.10909456 0.22261484 -0.09837498
v -0.08789315 0.19081272 -0.07717357
v -0.08435958 0.20494700 -0.10544212
v -0.11616170 0.21908127 -0.06657286
v -0.10556099 0.20848057 -0.08070713
v -0.11262813 0.22261484 -0.08777427
v -0.08435958 0.19081272 -0.08070713
f 7 3 4
f 9 2 1
f 10 9 1
f 11 6 3
f 12 4 3
f 12 3 6
f 13 8 1
f 13 1 2
f 14 1 8
f 14 8 3
f 14 3 7
f 16 14 7
f 16 10 1
f 16 1 14
f 17 10 5
f 17 9 10
f 19 13 2
f 19 2 9
f 19 9 18
f 20 11 3
f 22 16 7
f 22 7 4
f 23 5 10
f 23 10 16
f 23 16 22
f 24 15 17
f 25 18 15
f 26 17 15
f 26 15 18
f 26 18 9
f 26 9 17
f 27 6 11
f 27 11 19
f 28 20 3
f 28 3 8
f 28 8 13
f 28 13 20
f 29 19 11
f 29 11 20
f 29 20 13
f 29 13 19
f 30 12 6
f 32 22 4
f 32 4 12
f 32 23 22
f 34 24 17
f 34 33 24
f 35 25 15
f 35 15 31
f 36 27 19
f 36 19 18
f 36 6 27
f 36 35 6
f 36 25 35
f 37 12 30
f 38 33 21
f 38 24 33
f 38 31 15
f 38 15 24
f 39 21 30
f 40 33 34
f 41 34 17
f 41 17 5
f 41 40 34
f 41 5 40
f 42 35 31
f 42 31 6
f 42 6 35
f 43 36 18
f 43 18 25
f 43 25 36
f 44 37 30
f 44 30 21
f 44 21 37
f 45 12 37
f 45 32 12
f 46 38 21
f 46 31 38
f 46 21 39
f 47 39 30
f 47 30 6
f 48 40 5
f 48 5 23
f 48 23 40
f 49 45 37
f 49 33 40
f 49 37 21
f 49 21 33
f 50 40 23
f 50 23 32
f 50 32 45
f 50 49 40
f 50 45 49
f 51 6 31
f 51 31 46
f 51 47 6
f 51 46 39
f 51 39 47

