# https://github.com/mikedh/trimesh
mtllib material.mtl
usemtl Material107
v 0.05698318 -0.25795053 -0.35632551
v 0.06051675 -0.28621908 -0.37399335
v 0.06044285 -0.25800897 -0.40764216
v 0.03931533 -0.25795053 -0.40932904
v 0.03578177 -0.26855124 -0.38106049
v 0.06051675 -0.28975265 -0.40579547
v 0.06139490 -0.25666072 -0.35855152
v 0.04284890 -0.26501767 -0.36692622
v 0.06051675 -0.28621908 -0.40932904
v 0.04284890 -0.27915194 -0.40579547
v 0.03869586 -0.25667980 -0.37514311
v 0.06051675 -0.26148410 -0.35632551
v 0.06186919 -0.28731858 -0.38206532
v 0.04638247 -0.28268551 -0.38106049
v 0.03578177 -0.26501767 -0.40579547
v 0.05698318 -0.28975265 -0.40579547
v 0.04638247 -0.27915194 -0.40932904
v 0.04991604 -0.25795053 -0.35985908
v 0.03578177 -0.26148410 -0.37399335
v 0.05344961 -0.27561838 -0.36692622
v 0.06051675 -0.28268551 -0.37045978
v 0.03931533 -0.27208481 -0.37752692
v 0.03931533 -0.27561838 -0.38459406
v 0.05344961 -0.28975265 -0.39872834
v 0.04638247 -0.28268551 -0.40579547
v 0.05698318 -0.28621908 -0.40932904
v 0.03931533 -0.26501767 -0.40932904
v 0.05698318 -0.26148410 -0.35632551
v 0.03578177 -0.25795053 -0.40579547
v 0.05698318 -0.28621908 -0.37399335
v 0.03931533 -0.26501767 -0.37045978
v 0.03931533 -0.27561838 -0.40226191
v 0.04284890 -0.27915194 -0.38106049
v 0.05698318 -0.28975265 -0.38106049
v 0.04991604 -0.26148410 -0.35985908
v 0.05698318 -0.28268551 -0.37045978
v 0.03578177 -0.26855124 -0.40226191
v 0.05344961 -0.28621908 -0.37752692
v 0.05344961 -0.28975265 -0.38459406
f 9 4 3
f 11 7 3
f 11 3 4
f 12 7 1
f 13 6 9
f 13 9 3
f 13 3 7
f 16 9 6
f 17 4 9
f 17 10 15
f 18 1 7
f 18 7 11
f 19 18 11
f 19 8 18
f 19 15 5
f 21 2 13
f 21 13 7
f 21 7 12
f 22 19 5
f 22 20 8
f 23 22 5
f 24 14 23
f 24 16 6
f 25 10 17
f 25 16 24
f 25 24 23
f 26 17 9
f 26 9 16
f 26 25 17
f 26 16 25
f 27 17 15
f 27 15 4
f 27 4 17
f 28 1 18
f 28 12 1
f 28 21 12
f 29 19 11
f 29 11 4
f 29 4 15
f 29 15 19
f 30 2 21
f 31 22 8
f 31 8 19
f 31 19 22
f 32 15 10
f 32 25 23
f 32 10 25
f 32 23 5
f 33 23 14
f 33 14 22
f 33 22 23
f 34 13 2
f 34 2 30
f 34 24 6
f 34 6 13
f 35 28 18
f 35 18 8
f 35 8 20
f 35 20 28
f 36 28 20
f 36 21 28
f 36 30 21
f 36 20 30
f 37 32 5
f 37 5 15
f 37 15 32
f 38 34 30
f 38 22 14
f 38 30 20
f 38 20 22
f 39 14 24
f 39 24 34
f 39 38 14
f 39 34 38

