# https://github.com/mikedh/trimesh
mtllib material.mtl
usemtl Material065
v 0.11256995 -0.07419328 0.00439135
v 0.12029221 -0.11316481 0.00416192
v 0.09938601 -0.10954064 -0.06303929
v 0.07073714 -0.07420282 -0.07676256
v 0.07111745 -0.11307420 0.00409852
v 0.09585244 -0.07420495 -0.05243858
v 0.11743897 -0.10343985 0.00477472
v 0.07111745 -0.07420495 0.00409852
v 0.09185304 -0.11491132 -0.06856214
v 0.08878530 -0.07420495 -0.06303929
v 0.11705385 -0.10954064 -0.02770360
v 0.07243878 -0.07413163 -0.07507133
v 0.11447848 -0.11468492 -0.02645739
v 0.07081142 -0.11331598 -0.07677800
v 0.09231887 -0.10954064 -0.07010643
v 0.11352028 -0.07420495 -0.00650219
v 0.12058742 -0.11307420 -0.01356933
v 0.09728839 -0.11485431 -0.06195783
v 0.07818459 -0.10954064 -0.07717357
v 0.10645314 -0.07420495 -0.02770360
v 0.12058742 -0.10247350 -0.00296862
v 0.10438479 -0.11446761 -0.04799060
v 0.07818459 -0.11307420 -0.07717357
v 0.09938601 -0.07420495 -0.04537145
v 0.12058742 -0.10954064 -0.01356933
f 7 5 2
f 7 2 1
f 8 4 5
f 8 7 1
f 8 5 7
f 10 6 3
f 12 8 1
f 12 4 8
f 12 10 4
f 12 6 10
f 13 2 5
f 13 5 9
f 14 9 5
f 14 5 4
f 15 3 9
f 15 10 3
f 15 4 10
f 16 12 1
f 17 13 11
f 17 2 13
f 18 13 9
f 18 9 3
f 18 3 11
f 19 14 4
f 19 4 15
f 20 16 11
f 20 12 16
f 21 16 1
f 21 1 2
f 21 2 17
f 22 18 11
f 22 11 13
f 22 13 18
f 23 19 15
f 23 15 9
f 23 9 14
f 23 14 19
f 24 20 11
f 24 6 12
f 24 12 20
f 24 11 3
f 24 3 6
f 25 21 17
f 25 17 11
f 25 11 16
f 25 16 21

