# https://github.com/mikedh/trimesh
mtllib material.mtl
usemtl Material032
v 0.09585244 -0.19081272 -0.14431138
v 0.09585244 -0.22968198 -0.14431138
v 0.09585244 -0.19081272 -0.16904636
v 0.05131944 -0.16992426 -0.16913539
v 0.04284890 -0.18727915 -0.14431138
v 0.06051675 -0.22614841 -0.16904636
v 0.06758389 -0.16961131 -0.14431138
v 0.09231887 -0.22968198 -0.16904636
v 0.04638247 -0.19787986 -0.16904636
v 0.06405032 -0.22968198 -0.14431138
v 0.06758389 -0.16961131 -0.16904636
v 0.04638247 -0.16961131 -0.14431138
v 0.09585244 -0.22968198 -0.15491208
v 0.04991604 -0.20848057 -0.14431138
v 0.04638247 -0.17667844 -0.16904636
v 0.06405032 -0.22968198 -0.15137851
v 0.04638247 -0.16961131 -0.15137851
v 0.09385211 -0.22359400 -0.16871610
v 0.05344961 -0.21554770 -0.16904636
v 0.04284890 -0.19081272 -0.15491208
v 0.04638247 -0.17314488 -0.16197922
v 0.05698318 -0.22261484 -0.14431138
v 0.04284890 -0.19081272 -0.14431138
v 0.04991604 -0.20848057 -0.16904636
v 0.04284890 -0.18727915 -0.15491208
v 0.05698318 -0.22261484 -0.15844565
f 1 2 3
f 5 2 1
f 7 1 3
f 7 5 1
f 8 6 4
f 8 4 3
f 10 2 5
f 10 8 2
f 11 7 3
f 11 3 4
f 12 5 7
f 12 7 11
f 13 3 2
f 13 2 8
f 14 10 5
f 15 4 9
f 16 6 8
f 16 8 10
f 17 12 11
f 17 11 4
f 17 5 12
f 18 13 8
f 18 8 3
f 18 3 13
f 19 4 6
f 20 15 9
f 21 17 4
f 21 4 15
f 22 10 14
f 22 14 19
f 22 16 10
f 23 20 14
f 23 14 5
f 23 5 20
f 24 19 14
f 24 14 20
f 24 20 9
f 24 9 4
f 24 4 19
f 25 21 15
f 25 15 20
f 25 20 5
f 25 5 17
f 25 17 21
f 26 22 19
f 26 19 6
f 26 6 16
f 26 16 22

