# https://github.com/mikedh/trimesh
mtllib material.mtl
usemtl Material061
v 0.00392008 0.42253506 -0.03168439
v 0.00397965 0.37455830 -0.03123717
v 0.00391129 0.44976199 -0.10684739
v -0.00881734 0.44635273 -0.10677683
v -0.02428891 0.39575972 -0.03123717
v 0.00397965 0.39222615 -0.10544212
v -0.00308749 0.45229682 -0.10190855
v 0.00397965 0.45229682 -0.10190855
v -0.02200530 0.38024122 -0.03041619
v -0.00234593 0.44940915 -0.10699667
v -0.01015463 0.42402827 -0.03123717
v 0.00397965 0.42756184 -0.03477074
v 0.00397965 0.42756184 -0.10544212
v -0.00662106 0.37455830 -0.06657286
v -0.02428891 0.40282685 -0.10544212
v -0.01722177 0.41696113 -0.03123717
v -0.00308749 0.42756184 -0.03477074
v 0.00397965 0.37455830 -0.06657286
v -0.02075534 0.37455830 -0.04537145
v -0.02428891 0.37809187 -0.03830431
v -0.01722177 0.39575972 -0.10544212
v -0.02120542 0.42654740 -0.10632386
v -0.01722177 0.44169611 -0.09837498
v 0.00397965 0.37809187 -0.07717357
v -0.01908565 0.37560174 -0.03071173
v -0.02428891 0.38515901 -0.05950572
v -0.02075534 0.39222615 -0.09130784
v -0.00308749 0.39222615 -0.10544212
v -0.02428891 0.42756184 -0.09837498
v -0.01015463 0.44876325 -0.10190855
v -0.02075534 0.43816254 -0.10544212
v -0.02075534 0.38515901 -0.07364000
v -0.00308749 0.37809187 -0.07717357
v -0.02075534 0.40989399 -0.03477074
v -0.01368820 0.44522968 -0.09837498
v -0.02075534 0.43816254 -0.10190855
v -0.01722177 0.38162544 -0.07364000
v -0.01015463 0.38162544 -0.08070713
v -0.01368820 0.37455830 -0.05950572
f 8 3 7
f 8 2 6
f 9 2 1
f 10 3 6
f 10 7 3
f 10 4 7
f 11 9 1
f 12 1 2
f 12 2 8
f 12 11 1
f 12 8 7
f 13 8 6
f 13 6 3
f 13 3 8
f 16 5 9
f 16 9 11
f 17 12 7
f 17 7 11
f 17 11 12
f 18 6 2
f 18 2 14
f 19 14 2
f 20 9 5
f 20 5 15
f 22 4 10
f 22 21 15
f 23 16 11
f 24 18 14
f 24 6 18
f 25 19 2
f 25 2 9
f 25 20 19
f 25 9 20
f 26 20 15
f 26 19 20
f 27 15 21
f 28 22 10
f 28 10 6
f 28 21 22
f 28 6 24
f 29 15 5
f 30 11 7
f 30 7 4
f 31 4 22
f 31 22 15
f 31 15 29
f 31 30 4
f 31 23 30
f 32 26 15
f 32 19 26
f 32 15 27
f 33 28 24
f 33 24 14
f 34 29 5
f 34 5 16
f 35 30 23
f 35 23 11
f 35 11 30
f 36 31 29
f 36 16 23
f 36 23 31
f 36 34 16
f 36 29 34
f 37 19 32
f 37 32 27
f 37 27 21
f 38 33 14
f 38 21 28
f 38 28 33
f 38 37 21
f 38 14 37
f 39 37 14
f 39 14 19
f 39 19 37

