# https://github.com/mikedh/trimesh
mtllib material.mtl
usemtl Material031
v 0.02518106 -0.24381625 0.40692537
v 0.06758389 -0.24028269 0.39279110
v 0.01104678 -0.16961131 0.31858615
v -0.11616170 -0.19787986 0.31151901
v -0.11955650 -0.24734792 0.31147840
v -0.03842318 -0.21201413 0.38572396
v 0.06758389 -0.24734982 0.31151901
v -0.03135604 -0.16961131 0.31505258
v -0.07729244 -0.24734982 0.38925753
v 0.02871463 -0.20848057 0.38219039
v 0.06610008 -0.24772831 0.39046031
v 0.06758389 -0.19434629 0.31505258
v 0.02128297 -0.17243106 0.31020889
v -0.01722177 -0.18727915 0.35745541
v -0.03135604 -0.24381625 0.40692537
v -0.09849385 -0.21908127 0.36098898
v 0.00397965 -0.21908127 0.39632467
v 0.05344961 -0.24734982 0.39985824
v 0.02452332 -0.24835068 0.40361770
v 0.06758389 -0.22261484 0.38219039
v 0.06551177 -0.19652702 0.31026990
v -0.11969527 -0.20494700 0.31151901
v -0.03135604 -0.16961131 0.31151901
v 0.04638247 -0.17667844 0.31505258
v -0.01368820 -0.17667844 0.33625400
v 0.01811392 -0.19081272 0.36098898
v -0.10556099 -0.20494700 0.33978756
v -0.05962460 -0.22968198 0.39279110
v -0.10202742 -0.24734982 0.36452255
v -0.00662106 -0.23674912 0.40692537
v -0.01722177 -0.20494700 0.38219039
v 0.04991604 -0.24028269 0.39985824
v -0.03135604 -0.24734982 0.40692537
v 0.02164749 -0.16961131 0.31505258
v 0.04638247 -0.17667844 0.31151901
v 0.05698318 -0.18374558 0.31505258
v -0.02428891 -0.16961131 0.31858615
v 0.00751321 -0.18374558 0.35038827
v 0.04638247 -0.20848057 0.37512325
v -0.04195675 -0.18727915 0.34685470
v -0.10909456 -0.19787986 0.32211972
v -0.11262813 -0.22261484 0.34332113
v -0.11262813 -0.20494700 0.33272043
v -0.08435958 -0.22261484 0.37512325
v -0.02428891 -0.22614841 0.39985824
v -0.06315816 -0.24028269 0.39632467
v -0.09142672 -0.24028269 0.37865682
v -0.09496028 -0.24734982 0.37512325
v -0.11969527 -0.24734982 0.32211972
v 0.02164749 -0.23321555 0.40339180
v -0.03135604 -0.19434629 0.36452255
v 0.00751321 -0.19434629 0.36805612
v 0.05344961 -0.24381625 0.39985824
v 0.06051675 -0.22614841 0.38925753
v -0.05609103 -0.24734982 0.39985824
v 0.03931533 -0.18021201 0.32918686
v 0.03578177 -0.17314488 0.31151901
v 0.05344961 -0.19081272 0.33625400
v 0.06758389 -0.21554770 0.36805612
v 0.05698318 -0.18374558 0.31151901
v -0.02075534 -0.18021201 0.34332113
v 0.00397965 -0.17667844 0.33625400
v 0.02164749 -0.18374558 0.34685470
v 0.02518106 -0.19434629 0.36452255
f 11 7 2
f 12 2 7
f 18 11 2
f 19 5 7
f 19 7 11
f 19 11 18
f 19 18 1
f 20 2 12
f 21 7 5
f 21 5 13
f 21 12 7
f 22 13 5
f 22 4 13
f 23 13 4
f 23 4 8
f 23 8 3
f 30 15 1
f 33 19 1
f 33 1 15
f 34 23 3
f 34 13 23
f 35 21 13
f 36 35 24
f 37 25 3
f 37 3 8
f 41 8 4
f 41 40 8
f 41 27 40
f 43 4 22
f 43 22 42
f 43 42 16
f 43 16 27
f 43 41 4
f 43 27 41
f 44 27 16
f 44 6 27
f 44 28 6
f 45 28 15
f 45 6 28
f 45 15 30
f 45 30 17
f 45 31 6
f 45 17 31
f 46 15 28
f 46 28 44
f 47 16 42
f 47 44 16
f 47 46 44
f 47 9 46
f 48 29 19
f 48 19 9
f 48 9 47
f 48 47 42
f 48 42 29
f 49 5 19
f 49 19 29
f 49 29 42
f 49 42 22
f 49 22 5
f 50 30 1
f 50 17 30
f 50 1 32
f 51 31 14
f 51 6 31
f 51 40 27
f 51 27 6
f 52 14 31
f 52 38 14
f 52 26 38
f 52 31 17
f 52 17 10
f 53 18 2
f 53 2 32
f 53 32 1
f 53 1 18
f 54 32 2
f 54 2 20
f 54 50 32
f 54 10 17
f 54 17 50
f 54 39 10
f 54 20 39
f 55 9 19
f 55 19 33
f 55 46 9
f 55 33 15
f 55 15 46
f 56 24 34
f 57 34 24
f 57 24 35
f 57 35 13
f 57 13 34
f 58 36 24
f 58 24 56
f 58 56 39
f 58 39 20
f 59 20 12
f 59 12 36
f 59 58 20
f 59 36 58
f 60 36 12
f 60 12 21
f 60 21 35
f 60 35 36
f 61 25 37
f 61 14 38
f 61 37 8
f 61 8 40
f 61 51 14
f 61 40 51
f 62 3 25
f 62 61 38
f 62 25 61
f 63 34 3
f 63 62 38
f 63 3 62
f 63 38 26
f 63 56 34
f 64 10 39
f 64 52 10
f 64 26 52
f 64 63 26
f 64 39 56
f 64 56 63

