# https://github.com/mikedh/trimesh
mtllib material.mtl
usemtl Material034
v 0.02643024 0.38429354 0.03950818
v 0.05344961 0.34275618 0.03943421
v 0.05340018 0.35174858 -0.03135912
v -0.02282247 0.38465886 -0.03142545
v -0.04549032 0.34275618 0.03943421
v 0.02605555 0.38434565 -0.03156666
v 0.05344961 0.35335689 0.03943421
v -0.04423844 0.35012044 0.03952433
v 0.05344961 0.34275618 -0.03123717
v -0.04607345 0.34667666 -0.03117566
v -0.02450213 0.38057783 0.03957661
v 0.02871463 0.34275618 -0.03123717
v -0.04549032 0.35335689 0.02529993
v -0.02300423 0.38456474 0.03949002
v -0.04489241 0.34606028 -0.03113783
v -0.02782247 0.38162544 0.02529993
f 6 4 1
f 7 1 2
f 7 6 1
f 7 3 6
f 8 5 2
f 9 2 5
f 9 7 2
f 9 3 7
f 10 6 3
f 10 4 6
f 11 8 2
f 11 2 1
f 12 10 3
f 12 3 9
f 12 9 5
f 13 4 10
f 13 10 5
f 13 5 8
f 14 11 1
f 14 1 4
f 14 13 8
f 14 8 11
f 15 12 5
f 15 5 10
f 15 10 12
f 16 14 4
f 16 4 13
f 16 13 14

