# https://github.com/mikedh/trimesh
mtllib material.mtl
usemtl Material067
v 0.09852028 -0.24676930 0.10995159
v 0.10998671 -0.25088339 0.07123633
v 0.10766887 -0.24589092 0.00447161
v 0.05698318 -0.24734982 0.00409852
v 0.06051675 -0.31095406 0.11010559
v 0.05698318 -0.24734982 0.11010559
v 0.10750455 -0.24573398 0.07071694
v 0.09938601 -0.25441696 0.11010559
v 0.10645314 -0.25795053 0.01469922
v 0.05482012 -0.30911482 0.10360514
v 0.10291957 -0.25088339 0.10303845
v 0.09976556 -0.24629948 0.10276210
v 0.06405032 -0.30742050 0.11010559
v 0.05601526 -0.31004546 0.11050900
v 0.10998671 -0.25088339 0.00409852
v 0.05487164 -0.30133580 0.05779351
v 0.09585244 -0.26501767 0.09597131
v 0.10998671 -0.25441696 0.06063562
v 0.06051675 -0.31095406 0.10303845
v 0.06051675 -0.29328622 0.00409852
v 0.10645314 -0.25441696 0.07830347
v 0.10998671 -0.25441696 0.02529993
v 0.10645314 -0.25795053 0.06770276
v 0.06405032 -0.30742050 0.10657202
v 0.06051675 -0.30388693 0.05710205
v 0.08525173 -0.27561838 0.00409852
v 0.05590875 -0.29158170 0.00436831
v 0.08878530 -0.27561838 0.09597131
v 0.06051675 -0.30742050 0.07830347
v 0.05507576 -0.30553225 0.07853898
v 0.10291957 -0.26148410 0.01116566
v 0.06758389 -0.28975265 0.00763209
v 0.07111745 -0.28621908 0.00409852
f 7 2 3
f 7 3 4
f 7 4 6
f 8 1 6
f 11 7 1
f 11 2 7
f 11 1 8
f 12 7 6
f 12 6 1
f 12 1 7
f 14 8 6
f 14 13 8
f 14 5 13
f 14 6 10
f 15 3 2
f 15 4 3
f 16 10 6
f 16 6 4
f 18 15 2
f 19 13 5
f 19 14 10
f 19 5 14
f 20 4 15
f 21 8 17
f 21 11 8
f 21 2 11
f 21 18 2
f 22 18 13
f 22 9 15
f 22 15 18
f 23 13 18
f 23 21 17
f 23 18 21
f 24 13 19
f 24 22 13
f 24 9 22
f 26 20 15
f 27 16 4
f 27 4 20
f 27 20 25
f 28 23 17
f 28 13 23
f 28 17 8
f 28 8 13
f 29 19 10
f 29 25 26
f 30 10 16
f 30 27 25
f 30 16 27
f 30 29 10
f 30 25 29
f 31 26 15
f 31 15 9
f 31 29 26
f 31 19 29
f 31 24 19
f 31 9 24
f 32 26 25
f 32 25 20
f 33 32 20
f 33 20 26
f 33 26 32

