# https://github.com/mikedh/trimesh
mtllib material.mtl
usemtl Material001
v 0.00397965 0.22968198 0.12070629
v 0.00397965 0.12014134 0.12070629
v 0.00397965 0.12014134 0.05003491
v -0.10774611 0.22976958 0.04977837
v -0.09142672 0.13780919 0.12070629
v 0.00397965 0.22968198 0.05003491
v -0.08789315 0.22968198 0.11717272
v -0.10273330 0.11919564 0.04975650
v -0.08789315 0.21908127 0.12070629
v -0.08926167 0.11981606 0.11976291
v -0.10202742 0.12014134 0.08890417
v -0.08175498 0.22932881 0.11934482
v -0.10556099 0.22614841 0.07830347
v -0.10556099 0.12014134 0.05710205
v -0.09496028 0.12014134 0.11717272
v -0.09496028 0.22968198 0.10303845
v -0.10909456 0.20494700 0.05003491
v -0.10909456 0.21201413 0.06416919
v -0.09496028 0.12367491 0.11717272
v -0.10909456 0.22968198 0.06416919
v -0.10556099 0.21201413 0.07830347
v -0.10909456 0.20494700 0.05710205
v -0.09142672 0.21908127 0.11363916
v -0.10202742 0.22968198 0.08537060
v -0.10202742 0.21908127 0.08890417
v -0.09849385 0.22614841 0.09597131
f 1 2 3
f 5 2 1
f 6 1 3
f 6 4 1
f 7 1 4
f 8 3 2
f 8 6 3
f 8 4 6
f 9 5 1
f 10 8 2
f 10 2 5
f 12 9 1
f 12 1 7
f 12 7 9
f 14 8 11
f 15 10 5
f 15 11 8
f 15 8 10
f 16 9 7
f 16 7 4
f 17 4 8
f 17 8 14
f 18 11 15
f 18 14 11
f 19 15 5
f 19 5 9
f 19 13 15
f 20 18 13
f 20 4 17
f 20 17 18
f 21 18 15
f 21 15 13
f 21 13 18
f 22 18 17
f 22 17 14
f 22 14 18
f 23 19 9
f 23 9 16
f 24 20 13
f 24 13 16
f 24 16 4
f 24 4 20
f 25 13 19
f 25 19 23
f 26 25 23
f 26 23 16
f 26 16 13
f 26 13 25

