# https://github.com/mikedh/trimesh
mtllib material.mtl
usemtl Material078
v 0.10849807 0.22973804 0.04974795
v 0.10998671 0.20848057 0.05003491
v 0.11676232 0.22973705 -0.02417920
v 0.06405032 0.22968198 -0.02417003
v 0.06405032 0.15194346 0.05003491
v 0.11705385 0.22968198 0.01823279
v 0.06405032 0.22968198 0.05003491
v 0.09231887 0.15194346 0.00056495
v 0.11352028 0.22968198 0.04296778
v 0.09192002 0.15185420 0.05009786
v 0.06382660 0.15205415 -0.02392916
v 0.11705385 0.21554770 -0.02417003
v 0.11352028 0.21908127 0.03943421
v 0.08878530 0.15194346 -0.00650219
v 0.10291957 0.17667844 0.01469922
v 0.09231887 0.16607774 -0.02417003
v 0.11352028 0.22614841 0.04296778
v 0.11352028 0.20848057 0.02529993
v 0.09585244 0.15901060 0.01116566
v 0.09231887 0.15547703 -0.01003576
v 0.11705385 0.22614841 0.01823279
v 0.11352028 0.21201413 0.03236707
v 0.11352028 0.20494700 0.00763209
v 0.10645314 0.19081272 0.04296778
v 0.11352028 0.20494700 -0.02417003
v 0.11705385 0.21908127 0.00409852
v 0.11705385 0.22261484 0.01469922
v 0.10645314 0.19434629 0.05003491
v 0.10645314 0.18727915 0.03236707
v 0.09585244 0.15901060 0.00763209
v 0.09585244 0.16607774 -0.02063646
v 0.11705385 0.21554770 -0.01003576
v 0.10998671 0.20494700 0.04650134
v 0.10998671 0.19787986 0.03236707
v 0.10291957 0.17667844 0.00763209
v 0.09585244 0.16961131 -0.02417003
f 1 3 4
f 6 3 1
f 7 2 1
f 7 1 4
f 9 6 1
f 9 1 2
f 10 7 5
f 10 2 7
f 11 7 4
f 11 5 7
f 12 3 6
f 14 8 10
f 14 10 5
f 14 5 11
f 16 11 4
f 16 4 3
f 17 9 2
f 17 2 13
f 17 6 9
f 19 15 10
f 19 10 8
f 20 14 11
f 20 11 16
f 20 8 14
f 21 17 13
f 21 6 17
f 21 12 6
f 22 13 2
f 22 21 13
f 25 23 15
f 25 12 23
f 25 3 12
f 26 12 21
f 27 22 18
f 27 21 22
f 27 26 21
f 27 18 26
f 28 2 10
f 28 10 24
f 29 15 23
f 29 24 10
f 29 10 15
f 30 19 8
f 30 8 25
f 30 15 19
f 31 25 8
f 31 8 20
f 31 20 16
f 32 23 12
f 32 12 26
f 32 26 18
f 32 18 23
f 33 22 2
f 33 2 28
f 33 18 22
f 34 29 23
f 34 23 18
f 34 24 29
f 34 18 33
f 34 33 28
f 34 28 24
f 35 30 25
f 35 25 15
f 35 15 30
f 36 31 16
f 36 25 31
f 36 16 3
f 36 3 25

