# https://github.com/mikedh/trimesh
mtllib material.mtl
usemtl Material019
v 0.06602038 -0.37038769 0.29738594
v 0.06758389 -0.37809187 0.29738474
v 0.05698318 -0.37809187 0.21257908
v -0.06315816 -0.37102473 0.21257908
v -0.07022530 -0.37809187 0.29738474
v 0.05548385 -0.36997997 0.21416342
v 0.06758389 -0.37102473 0.22671336
v -0.06967342 -0.37084347 0.29744514
v 0.00397965 -0.50176678 0.29385117
v 0.00397965 -0.38515901 0.20551195
v 0.06405032 -0.37102473 0.21964622
v 0.00397965 -0.49823322 0.29738474
v -0.07022530 -0.37102473 0.23731407
v -0.06419470 -0.36962636 0.22425336
v 0.04638247 -0.46996466 0.23024693
v 0.04638247 -0.38515901 0.20904551
v -0.02428891 -0.48763251 0.29738474
v 0.03224820 -0.48763251 0.27971689
v 0.04991604 -0.46289753 0.23378050
v 0.04638247 -0.45583039 0.21964622
v -0.03842318 -0.45936396 0.29738474
v -0.01015463 -0.49823322 0.29738474
v -0.04549032 -0.46996466 0.23024693
v 0.02164749 -0.48763251 0.29385117
v 0.02518106 -0.49469965 0.25144834
v 0.06758389 -0.37809187 0.23731407
v 0.04284890 -0.47703180 0.26204905
v 0.06405032 -0.37455830 0.21964622
v 0.04991604 -0.45583039 0.22671336
v 0.03931533 -0.44876325 0.21257908
v -0.04902389 -0.46289753 0.23024693
v -0.03488961 -0.49116608 0.26558262
v 0.01104678 -0.49469965 0.29738474
v 0.03578177 -0.46643110 0.29031760
v 0.02518106 -0.49469965 0.28325046
v -0.01722177 -0.48763251 0.22671336
v 0.06758389 -0.37455830 0.22671336
v 0.03578177 -0.48763251 0.24791477
v 0.04991604 -0.45936396 0.25851548
v 0.03931533 -0.47703180 0.27618332
v 0.06051675 -0.37809187 0.21611265
v 0.04638247 -0.46289753 0.22317979
v 0.04991604 -0.44876325 0.22317979
v 0.04638247 -0.38869258 0.20904551
v 0.04638247 -0.44169611 0.21611265
v -0.06669173 -0.37455830 0.22317979
v -0.04195675 -0.45936396 0.21611265
v -0.07022530 -0.37809187 0.25144834
v -0.02428891 -0.49823322 0.28678403
v -0.04902389 -0.46643110 0.25498191
v 0.03931533 -0.44522968 0.29738474
v 0.02518106 -0.48763251 0.29031760
v 0.01104678 -0.50176678 0.26558262
v 0.01104678 -0.49823322 0.29385117
v 0.02518106 -0.48409894 0.22671336
v -0.03488961 -0.48763251 0.24084764
v 0.04284890 -0.47703180 0.23378050
v 0.03578177 -0.48763251 0.26558262
v 0.03224820 -0.49116608 0.25851548
v 0.04991604 -0.46289753 0.24791477
v 0.03931533 -0.48056537 0.26911619
v 0.03224820 -0.48409894 0.28325046
v 0.04284890 -0.45583039 0.28678403
v 0.04638247 -0.46643110 0.26558262
f 7 1 2
f 7 6 1
f 8 2 1
f 10 4 6
f 11 3 6
f 11 6 7
f 13 5 8
f 14 6 4
f 14 13 8
f 14 4 13
f 14 8 1
f 14 1 6
f 16 10 6
f 16 6 3
f 21 17 8
f 21 8 5
f 22 9 12
f 22 12 8
f 22 8 17
f 26 7 2
f 26 2 19
f 27 15 19
f 28 3 11
f 28 11 7
f 29 19 15
f 33 12 9
f 33 8 12
f 37 26 19
f 37 7 26
f 37 19 29
f 37 28 7
f 41 28 20
f 41 3 28
f 42 29 15
f 42 20 29
f 42 30 20
f 43 29 20
f 43 20 28
f 43 37 29
f 43 28 37
f 44 16 3
f 44 3 30
f 44 30 10
f 44 10 16
f 45 30 3
f 45 20 30
f 45 41 20
f 45 3 41
f 46 31 13
f 46 13 4
f 46 4 31
f 47 31 4
f 47 23 31
f 47 36 23
f 47 4 10
f 47 10 30
f 47 30 36
f 48 5 13
f 48 13 31
f 49 22 17
f 49 17 21
f 49 21 32
f 49 9 22
f 50 31 23
f 50 23 32
f 50 48 31
f 50 5 48
f 50 32 21
f 50 21 5
f 51 33 24
f 51 2 8
f 51 8 33
f 51 34 2
f 51 24 34
f 52 34 24
f 52 35 18
f 52 24 35
f 53 35 9
f 53 25 35
f 53 36 25
f 53 9 49
f 54 33 9
f 54 9 35
f 54 35 24
f 54 24 33
f 55 25 36
f 55 38 25
f 55 36 30
f 55 30 42
f 56 32 23
f 56 23 36
f 56 49 32
f 56 53 49
f 56 36 53
f 57 15 27
f 57 27 38
f 57 38 55
f 57 55 42
f 57 42 15
f 58 38 27
f 58 18 35
f 59 35 25
f 59 25 38
f 59 58 35
f 59 38 58
f 60 39 27
f 60 27 19
f 60 19 2
f 60 2 39
f 61 40 18
f 61 27 40
f 61 58 27
f 61 18 58
f 62 18 40
f 62 52 18
f 62 34 52
f 63 40 2
f 63 2 34
f 63 62 40
f 63 34 62
f 64 39 2
f 64 2 40
f 64 40 27
f 64 27 39

