# https://github.com/mikedh/trimesh
mtllib material.mtl
usemtl Material041
v 0.11352028 -0.14134276 -0.09484141
v 0.12412099 -0.19434629 -0.09484141
v 0.11705385 -0.16254417 -0.14431138
v 0.05344961 -0.14487633 -0.14431138
v 0.03890386 -0.23612385 -0.09405026
v 0.08525173 -0.13780919 -0.14431138
v 0.12412099 -0.16254417 -0.09837498
v 0.04837002 -0.11306419 -0.09318909
v 0.09585244 -0.22968198 -0.14431138
v 0.09938601 -0.14134276 -0.14077781
v 0.12412099 -0.16254417 -0.09484141
v 0.12058742 -0.18727915 -0.14077781
v 0.11705385 -0.14840989 -0.10544212
v 0.06236288 -0.23808034 -0.09341895
v 0.03464109 -0.11293916 -0.09960729
v 0.05344961 -0.21554770 -0.14431138
v 0.10645314 -0.14840989 -0.14431138
v 0.09938601 -0.13074205 -0.10190855
v 0.09833662 -0.13317626 -0.09415770
v 0.12412099 -0.18727915 -0.11250926
v 0.12058742 -0.17667844 -0.14077781
v 0.11705385 -0.20494700 -0.14431138
v 0.12058742 -0.15901060 -0.11604282
v 0.10645314 -0.22968198 -0.09484141
v 0.07465102 -0.23321555 -0.14077781
v 0.03578177 -0.15547703 -0.09484141
v 0.04991604 -0.11307420 -0.09837498
v 0.06405032 -0.13780919 -0.14431138
v 0.04284890 -0.18727915 -0.14431138
v 0.09585244 -0.14134276 -0.14431138
v 0.11352028 -0.15547703 -0.14431138
v 0.10645314 -0.13427562 -0.09837498
v 0.12058742 -0.16961131 -0.13371067
v 0.12412099 -0.17314488 -0.11250926
v 0.12412099 -0.19434629 -0.10190855
v 0.12058742 -0.19434629 -0.13371067
v 0.12058742 -0.15547703 -0.10544212
v 0.07465102 -0.24028269 -0.09837498
v 0.11352028 -0.22261484 -0.09484141
v 0.06405032 -0.22968198 -0.14431138
v 0.03931533 -0.19081272 -0.13371067
v 0.03645551 -0.11302562 -0.09768404
v 0.03931533 -0.11307420 -0.10190855
v 0.09938601 -0.13427562 -0.11604282
v 0.05698318 -0.14134276 -0.14431138
v 0.04991604 -0.15194346 -0.14431138
v 0.11705385 -0.15547703 -0.12664353
v 0.11352028 -0.14134276 -0.09837498
v 0.10645314 -0.13427562 -0.09484141
v 0.12412099 -0.16607774 -0.10544212
v 0.12058742 -0.16254417 -0.12310996
v 0.09231887 -0.23674912 -0.09484141
v 0.08525173 -0.23321555 -0.14077781
v 0.06051675 -0.24028269 -0.09837498
v 0.12058742 -0.20848057 -0.09484141
v 0.10645314 -0.22614841 -0.13724424
v 0.03931533 -0.23674912 -0.09837498
v 0.03578177 -0.14840989 -0.11250926
v 0.07465102 -0.24028269 -0.09484141
v 0.06405032 -0.24028269 -0.10190855
v 0.09231887 -0.23674912 -0.09837498
v 0.11705385 -0.21554770 -0.11250926
v 0.10998671 -0.22614841 -0.11250926
v 0.10998671 -0.21908127 -0.14431138
f 6 3 4
f 9 4 3
f 11 7 1
f 11 2 7
f 14 8 5
f 16 4 9
f 17 3 6
f 19 11 1
f 19 8 14
f 19 14 2
f 19 2 11
f 20 7 2
f 21 12 3
f 21 20 12
f 22 9 3
f 22 3 12
f 26 5 8
f 27 15 8
f 27 8 18
f 27 10 6
f 28 6 4
f 29 4 16
f 30 17 6
f 30 6 10
f 30 10 17
f 31 3 17
f 32 17 10
f 32 31 17
f 33 21 3
f 34 7 20
f 34 20 21
f 34 21 33
f 35 20 2
f 36 22 12
f 36 12 20
f 36 35 22
f 36 20 35
f 37 7 23
f 37 1 7
f 39 14 24
f 40 16 9
f 40 9 25
f 42 26 8
f 42 8 15
f 42 15 26
f 43 27 6
f 43 15 27
f 43 28 15
f 43 6 28
f 44 27 18
f 44 10 27
f 44 32 10
f 44 18 32
f 45 28 4
f 45 4 15
f 45 15 28
f 46 29 15
f 46 15 4
f 46 4 29
f 47 23 3
f 47 3 31
f 47 31 13
f 47 37 23
f 47 13 37
f 48 13 31
f 48 37 13
f 48 1 37
f 48 32 1
f 48 31 32
f 49 19 1
f 49 1 32
f 49 8 19
f 49 32 18
f 49 18 8
f 50 23 7
f 50 34 33
f 50 7 34
f 51 33 3
f 51 3 23
f 51 50 33
f 51 23 50
f 52 24 14
f 53 25 9
f 55 2 14
f 55 14 39
f 55 35 2
f 57 40 25
f 57 16 40
f 57 5 41
f 57 41 29
f 57 29 16
f 57 54 5
f 58 26 15
f 58 15 29
f 58 29 41
f 58 41 5
f 58 5 26
f 59 52 14
f 59 38 52
f 59 54 38
f 59 14 5
f 59 5 54
f 60 53 38
f 60 25 53
f 60 38 54
f 60 57 25
f 60 54 57
f 61 52 38
f 61 38 53
f 61 53 9
f 61 9 56
f 61 56 24
f 61 24 52
f 62 55 39
f 62 22 35
f 62 35 55
f 63 39 24
f 63 24 56
f 63 62 39
f 63 56 62
f 64 56 9
f 64 9 22
f 64 62 56
f 64 22 62

