# https://github.com/mikedh/trimesh
mtllib material.mtl
usemtl Material125
v 0.01458035 0.11660777 0.18431053
v 0.09938601 0.06360424 0.13130700
v 0.08720413 0.11989459 0.12733601
v -0.08610272 0.11987234 0.12699328
v -0.04902389 0.06360424 0.17724339
v 0.09699869 0.06324381 0.12678219
v -0.01722177 0.12014134 0.18431053
v 0.07111745 0.11307420 0.15604198
v 0.03224820 0.06360424 0.18431053
v 0.09231887 0.11307420 0.12777343
v -0.09568414 0.06318354 0.12652182
v 0.03578177 0.12014134 0.17724339
v -0.07375887 0.12014134 0.15250841
v -0.01368820 0.06360424 0.19137767
v 0.07111745 0.06360424 0.16310912
v 0.09938601 0.07067138 0.12777343
v 0.08525173 0.10247350 0.14544128
v 0.08878530 0.12014134 0.13484057
v 0.01104678 0.12014134 0.18431053
v 0.03224820 0.06713781 0.18431053
v -0.04902389 0.12014134 0.17017626
v -0.08082601 0.06360424 0.15604198
v -0.09849385 0.06713781 0.13130700
v -0.04195675 0.06713781 0.18077696
v 0.01716921 0.06299187 0.18467058
v 0.06051675 0.09187279 0.16664269
v 0.09585244 0.06360424 0.13837414
v 0.09938601 0.07067138 0.13130700
v 0.08525173 0.08480565 0.14897484
v 0.08171816 0.11660777 0.14544128
v -0.08082601 0.12014134 0.14544128
v 0.00397965 0.10600707 0.18784410
v 0.05344961 0.06713781 0.17370983
v 0.00044608 0.06360424 0.19137767
v -0.05609103 0.11660777 0.16664269
v -0.09142672 0.10954064 0.12777343
v -0.09849385 0.06360424 0.13130700
v -0.01368820 0.06713781 0.19137767
v -0.04195675 0.06360424 0.18077696
v -0.04902389 0.07420495 0.17724339
v 0.05344961 0.06360424 0.17370983
v 0.07111745 0.06713781 0.16310912
v 0.06051675 0.11307420 0.16310912
v 0.09231887 0.11307420 0.13130700
v 0.09585244 0.06713781 0.13837414
v 0.07465102 0.09893993 0.15604198
v 0.08171816 0.10247350 0.14897484
v 0.06405032 0.12014134 0.15957555
v -0.08789315 0.07773852 0.14544128
v -0.08082601 0.06713781 0.15604198
v 0.01811392 0.07067138 0.18784410
v -0.00308749 0.10954064 0.18784410
v -0.05962460 0.12014134 0.16310912
v -0.09849385 0.06713781 0.12777343
v -0.08789315 0.11660777 0.13484057
v -0.09142672 0.06360424 0.14190771
v -0.05255746 0.10954064 0.17017626
v -0.04549032 0.10954064 0.17370983
v 0.06405032 0.07420495 0.16664269
v 0.08878530 0.10954064 0.13837414
v 0.08878530 0.08127208 0.14544128
v 0.09585244 0.08127208 0.13484057
v 0.07465102 0.07420495 0.15957555
v 0.06758389 0.08480565 0.16310912
f 6 4 3
f 10 6 3
f 11 4 6
f 13 7 12
f 16 2 6
f 16 6 10
f 18 10 3
f 18 13 12
f 18 3 4
f 19 12 7
f 19 1 12
f 20 12 1
f 21 7 13
f 22 11 5
f 25 5 11
f 25 11 6
f 25 6 15
f 27 15 6
f 27 6 2
f 28 16 10
f 28 2 16
f 28 27 2
f 31 18 4
f 31 13 18
f 32 1 19
f 33 20 9
f 33 26 12
f 33 12 20
f 34 25 9
f 34 14 25
f 36 4 11
f 38 24 14
f 38 7 24
f 38 14 34
f 39 24 5
f 39 14 24
f 39 25 14
f 39 5 25
f 40 5 24
f 40 22 5
f 40 24 7
f 41 25 15
f 41 9 25
f 41 33 9
f 41 15 33
f 42 15 27
f 42 33 15
f 43 26 8
f 43 12 26
f 44 28 10
f 44 10 18
f 45 27 28
f 45 42 27
f 45 29 42
f 46 8 26
f 47 30 8
f 47 17 30
f 47 8 46
f 47 46 29
f 47 29 17
f 48 30 18
f 48 18 12
f 48 8 30
f 48 43 8
f 48 12 43
f 49 31 23
f 50 13 31
f 50 35 13
f 50 22 40
f 50 31 49
f 51 20 1
f 51 1 32
f 51 32 34
f 51 34 9
f 51 9 20
f 52 32 19
f 52 19 7
f 52 7 38
f 52 38 34
f 52 34 32
f 53 35 21
f 53 21 13
f 53 13 35
f 54 36 11
f 54 23 36
f 54 37 23
f 54 11 37
f 55 31 4
f 55 4 36
f 55 36 23
f 55 23 31
f 56 37 11
f 56 11 22
f 56 23 37
f 56 22 50
f 56 50 49
f 56 49 23
f 57 21 35
f 57 50 40
f 57 35 50
f 58 40 7
f 58 7 21
f 58 57 40
f 58 21 57
f 59 26 33
f 59 33 42
f 60 44 18
f 60 30 17
f 60 18 30
f 61 17 29
f 61 29 45
f 61 60 17
f 61 45 60
f 62 45 28
f 62 28 44
f 62 60 45
f 62 44 60
f 63 46 42
f 63 42 29
f 63 29 46
f 64 46 26
f 64 42 46
f 64 59 42
f 64 26 59

