# https://github.com/mikedh/trimesh
mtllib material.mtl
usemtl Material017
v 0.03266767 0.36607219 0.09904788
v 0.09938601 0.32508834 0.04650134
v 0.03289355 0.36648620 0.03971774
v -0.09849385 0.32862191 0.03943421
v -0.07375887 0.32155477 0.09950488
v 0.09752763 0.32335984 0.03847972
v -0.03488961 0.36749117 0.09950488
v 0.08525173 0.33922262 0.04296778
v 0.06866326 0.31966679 0.09781862
v -0.03488961 0.36749117 0.03943421
v -0.09940480 0.32007709 0.04195242
v 0.07111745 0.32508834 0.09950488
v -0.07729244 0.32862191 0.08890417
v 0.08878530 0.33215548 0.05710205
v 0.08525173 0.33922262 0.03943421
v 0.09736644 0.31967635 0.04546407
v -0.10032439 0.32062488 0.03877999
v -0.08789315 0.33922262 0.03943421
v -0.09496028 0.33215548 0.04650134
v -0.07375887 0.32508834 0.09950488
v 0.08878530 0.33568905 0.04650134
v 0.07818459 0.32508834 0.08890417
v 0.09907143 0.32126218 0.03927264
v -0.10202742 0.32508834 0.04296778
v -0.09496028 0.32862191 0.05356848
v -0.08789315 0.33922262 0.04296778
v 0.07818459 0.32155477 0.08890417
v 0.08525173 0.33215548 0.06416919
v 0.07111745 0.32862191 0.09597131
v -0.10202742 0.32508834 0.03943421
v -0.09142672 0.33568905 0.04650134
f 7 1 3
f 8 3 1
f 10 3 6
f 10 7 3
f 11 9 5
f 12 7 5
f 12 1 7
f 12 5 9
f 15 6 3
f 15 3 8
f 15 8 2
f 15 2 6
f 16 9 11
f 17 10 6
f 17 16 11
f 18 7 10
f 18 17 4
f 18 10 17
f 19 18 4
f 20 5 7
f 20 7 13
f 21 8 1
f 21 1 14
f 21 14 2
f 21 2 8
f 22 2 14
f 23 6 2
f 23 2 16
f 23 17 6
f 23 16 17
f 24 17 11
f 24 19 4
f 24 11 5
f 24 5 20
f 24 20 13
f 25 13 7
f 25 7 19
f 25 24 13
f 25 19 24
f 26 7 18
f 26 18 19
f 27 16 2
f 27 2 22
f 27 9 16
f 27 22 12
f 27 12 9
f 28 22 14
f 28 14 1
f 29 1 12
f 29 12 22
f 29 28 1
f 29 22 28
f 30 24 4
f 30 4 17
f 30 17 24
f 31 26 19
f 31 19 7
f 31 7 26

