# https://github.com/mikedh/trimesh
mtllib material.mtl
usemtl Material102
v -0.05962460 -0.11307420 0.00409852
v -0.05962460 -0.15547703 0.00409852
v -0.05962460 -0.15547703 -0.09484141
v -0.11262813 -0.13780919 -0.09484141
v -0.13029597 -0.12720848 0.00409852
v -0.13029597 -0.15547703 -0.04537145
v -0.05861694 -0.11300764 -0.08564698
v -0.12097293 -0.11396982 0.00469386
v -0.12352016 -0.15667155 -0.06589289
v -0.12676240 -0.14134276 -0.05243858
v -0.13000176 -0.15549234 0.00410198
v -0.05962460 -0.12014134 -0.09484141
v -0.12322883 -0.11307420 -0.01003576
v -0.11732007 -0.15666326 -0.09443019
v -0.13029597 -0.13427562 -0.02063646
v -0.08789315 -0.12367491 -0.09484141
v -0.11262813 -0.12014134 -0.06657286
v -0.12676240 -0.11660777 0.00409852
v -0.11969527 -0.15194346 -0.09484141
v -0.12322883 -0.15547703 -0.08424070
v -0.13029597 -0.14840989 -0.04183788
v -0.12322883 -0.12367491 -0.03477074
v -0.06315816 -0.11307420 -0.08777427
v -0.10909456 -0.11307420 -0.06303929
v -0.13029597 -0.12720848 0.00056495
v -0.12676240 -0.11660777 0.00056495
v -0.11969527 -0.14840989 -0.09130784
v -0.12676240 -0.15194346 -0.06657286
v -0.11262813 -0.11307420 -0.05243858
v -0.07375887 -0.12014134 -0.09484141
v -0.10909456 -0.13074205 -0.09130784
v -0.11262813 -0.13427562 -0.09130784
v -0.12676240 -0.12720848 -0.02417003
v -0.11969527 -0.13780919 -0.07364000
v -0.12322883 -0.15194346 -0.08424070
v -0.13029597 -0.15194346 -0.04537145
v -0.12676240 -0.14840989 -0.06303929
v -0.10909456 -0.13427562 -0.09484141
v -0.12322883 -0.14134276 -0.06657286
f 7 1 2
f 7 2 3
f 8 2 1
f 11 5 6
f 11 8 5
f 11 2 8
f 11 9 2
f 11 6 9
f 12 7 3
f 12 3 4
f 13 8 1
f 13 1 7
f 14 3 2
f 14 2 9
f 15 6 5
f 16 12 4
f 18 5 8
f 18 8 13
f 19 4 3
f 19 3 14
f 20 14 9
f 20 9 6
f 20 19 14
f 21 15 10
f 21 6 15
f 22 10 15
f 23 7 12
f 24 23 16
f 24 7 23
f 25 15 5
f 25 5 18
f 26 18 13
f 26 25 18
f 26 15 25
f 26 13 22
f 27 4 19
f 28 20 6
f 29 22 13
f 29 17 22
f 29 24 17
f 29 13 7
f 29 7 24
f 30 23 12
f 30 12 16
f 30 16 23
f 31 24 16
f 32 17 24
f 32 4 27
f 32 24 31
f 33 26 22
f 33 22 15
f 33 15 26
f 34 22 17
f 34 32 27
f 34 17 32
f 35 27 19
f 35 19 20
f 35 20 28
f 36 28 6
f 36 6 21
f 36 21 28
f 37 28 21
f 37 21 10
f 37 35 28
f 37 10 35
f 38 31 16
f 38 16 4
f 38 32 31
f 38 4 32
f 39 10 22
f 39 22 34
f 39 35 10
f 39 34 27
f 39 27 35

