# https://github.com/mikedh/trimesh
mtllib material.mtl
usemtl Material114
v 0.11705385 0.33568905 -0.06657286
v 0.12557433 0.28968517 -0.06663117
v 0.12765456 0.30388693 -0.10544212
v 0.00378567 0.32597727 -0.10311513
v 0.00397965 0.28975265 -0.06657286
v 0.11352028 0.34275618 -0.10544212
v 0.12765456 0.31095406 -0.06657286
v 0.00398934 0.34265663 -0.06655175
v 0.00397965 0.28975265 -0.10544212
v 0.12058742 0.33215548 -0.10544212
v 0.03464238 0.34077315 -0.10420441
v 0.10998671 0.34275618 -0.06657286
v 0.12426390 0.28979303 -0.10524985
v 0.12058742 0.33215548 -0.07717357
v 0.12765456 0.31095406 -0.09484141
v 0.00397965 0.34275618 -0.08070713
v 0.11352028 0.34275618 -0.08777427
v 0.12412099 0.32155477 -0.06657286
v 0.12765456 0.30742050 -0.10190855
v 0.00397965 0.33568905 -0.09837498
v 0.00397965 0.33922262 -0.09130784
f 7 2 3
f 7 5 2
f 8 4 5
f 8 5 7
f 9 2 5
f 9 5 4
f 9 6 3
f 10 3 6
f 11 9 4
f 11 6 9
f 12 8 1
f 13 9 3
f 13 3 2
f 13 2 9
f 14 10 6
f 15 7 3
f 16 6 11
f 16 12 6
f 16 8 12
f 16 4 8
f 17 12 1
f 17 6 12
f 17 14 6
f 17 1 14
f 18 14 1
f 18 10 14
f 18 15 10
f 18 7 15
f 18 8 7
f 18 1 8
f 19 15 3
f 19 3 10
f 19 10 15
f 20 11 4
f 21 16 11
f 21 11 20
f 21 20 4
f 21 4 16

