# https://github.com/mikedh/trimesh
mtllib material.mtl
usemtl Material025
v 0.09938601 -0.17314488 -0.30332198
v 0.11705385 -0.21908127 -0.38459406
v 0.08525173 -0.18021201 -0.38459406
v 0.05698318 -0.20141343 -0.40932904
v 0.06405032 -0.23321555 -0.32452339
v 0.10645314 -0.21201413 -0.40579547
v 0.05698318 -0.15901060 -0.32098982
v 0.08878530 -0.21908127 -0.30332198
v 0.08878530 -0.19434629 -0.40579547
v 0.03931533 -0.22261484 -0.40579547
v 0.10998671 -0.20848057 -0.39872834
v 0.08171816 -0.15901060 -0.32805696
v 0.05698318 -0.18021201 -0.38812763
v 0.07818459 -0.23321555 -0.32452339
v 0.09938601 -0.20141343 -0.30332198
v 0.04284890 -0.19434629 -0.30332198
v 0.09938601 -0.21201413 -0.40932904
v 0.11705385 -0.21908127 -0.39166120
v 0.09938601 -0.19434629 -0.39519477
v 0.07818459 -0.15547703 -0.30332198
v 0.03578177 -0.19787986 -0.38459406
v 0.05698318 -0.18374558 -0.39519477
v 0.07465102 -0.16961131 -0.36692622
v 0.08525173 -0.22261484 -0.30332198
v 0.07818459 -0.23321555 -0.33159053
v 0.11352028 -0.22261484 -0.37045978
v 0.06524943 -0.15857830 -0.30300331
v 0.03224820 -0.22261484 -0.37399335
v 0.07818459 -0.19787986 -0.40932904
v 0.04638247 -0.22261484 -0.40932904
v 0.09938601 -0.17314488 -0.30685555
v 0.11352028 -0.21908127 -0.40226191
v 0.09231887 -0.19081272 -0.39872834
v 0.08525173 -0.16254417 -0.33512410
v 0.06758389 -0.15547703 -0.31745625
v 0.04284890 -0.18727915 -0.38459406
v 0.04638247 -0.16961131 -0.30332198
v 0.07465102 -0.18021201 -0.39166120
v 0.04991604 -0.21554770 -0.30332198
v 0.03848153 -0.22315600 -0.40075803
v 0.09585244 -0.20848057 -0.30332198
v 0.11430124 -0.22413568 -0.39152719
v 0.08525173 -0.15901060 -0.30332198
v 0.03224820 -0.21908127 -0.39166120
v 0.09585244 -0.20848057 -0.40932904
v 0.06405032 -0.19081272 -0.40226191
v 0.04284890 -0.20141343 -0.40579547
v 0.09585244 -0.16961131 -0.31392268
v 0.10998671 -0.21201413 -0.40226191
v 0.11352028 -0.21554770 -0.39872834
v 0.10291957 -0.22261484 -0.40932904
v 0.09231887 -0.18727915 -0.39166120
v 0.08171816 -0.16607774 -0.35279194
v 0.07465102 -0.15547703 -0.31745625
v 0.06405032 -0.15547703 -0.31392268
v 0.06405032 -0.15901060 -0.33512410
v 0.04638247 -0.18727915 -0.39166120
v 0.04638247 -0.16961131 -0.32805696
v 0.05884170 -0.16194016 -0.30305457
v 0.04284890 -0.18021201 -0.30332198
v 0.08525173 -0.18727915 -0.39872834
v 0.07818459 -0.17314488 -0.37399335
v 0.06758389 -0.18021201 -0.39166120
v 0.06405032 -0.22261484 -0.30332198
f 15 2 1
f 17 9 6
f 18 1 2
f 19 11 6
f 19 6 9
f 24 5 14
f 25 14 5
f 26 2 15
f 26 8 24
f 26 24 14
f 27 15 1
f 27 24 8
f 29 17 4
f 30 4 17
f 31 18 11
f 31 1 18
f 33 19 9
f 39 28 5
f 39 16 28
f 40 25 5
f 40 30 25
f 40 10 30
f 40 5 28
f 41 26 15
f 41 8 26
f 41 27 8
f 41 15 27
f 42 18 2
f 42 2 26
f 42 32 18
f 42 26 14
f 42 14 25
f 43 27 1
f 43 20 27
f 43 1 31
f 43 12 20
f 43 34 12
f 44 28 21
f 44 40 28
f 44 10 40
f 45 29 9
f 45 9 17
f 45 17 29
f 46 29 4
f 46 4 22
f 46 9 29
f 47 30 10
f 47 4 30
f 47 21 36
f 47 44 21
f 47 10 44
f 47 22 4
f 48 31 11
f 48 11 19
f 48 19 34
f 48 43 31
f 48 34 43
f 49 32 6
f 49 6 11
f 49 11 32
f 50 32 11
f 50 11 18
f 50 18 32
f 51 17 6
f 51 6 32
f 51 30 17
f 51 32 42
f 51 42 25
f 51 25 30
f 52 19 33
f 52 34 19
f 53 12 34
f 53 52 3
f 53 34 52
f 54 35 20
f 54 20 12
f 55 27 20
f 55 20 35
f 55 7 37
f 56 23 13
f 56 55 35
f 56 7 55
f 56 35 54
f 56 53 23
f 56 54 12
f 56 12 53
f 57 13 22
f 57 47 36
f 57 22 47
f 57 56 13
f 57 36 7
f 57 7 56
f 58 36 21
f 58 21 37
f 58 37 7
f 58 7 36
f 59 55 37
f 59 27 55
f 59 39 27
f 59 16 39
f 60 28 16
f 60 59 37
f 60 16 59
f 60 37 21
f 60 21 28
f 61 33 9
f 61 9 38
f 61 38 3
f 61 52 33
f 61 3 52
f 62 38 23
f 62 3 38
f 62 53 3
f 62 23 53
f 63 22 13
f 63 13 23
f 63 23 38
f 63 38 9
f 63 46 22
f 63 9 46
f 64 39 5
f 64 5 24
f 64 24 27
f 64 27 39

