# https://github.com/mikedh/trimesh
mtllib material.mtl
usemtl Material116
v 0.06758389 0.32155477 -0.10544212
v 0.06758389 0.28268551 -0.10544212
v 0.06758389 0.32155477 -0.14077781
v 0.03807123 0.32149022 -0.14035427
v 0.00397965 0.28268551 -0.10544212
v 0.00400025 0.32172425 -0.10564875
v 0.03578177 0.28268551 -0.14077781
v 0.06758389 0.28268551 -0.14077781
v 0.00397965 0.28975265 -0.11604282
v 0.00397965 0.31802120 -0.11250926
v 0.00385265 0.28291657 -0.11096971
v 0.00242559 0.29611553 -0.11373281
v 0.00379070 0.32031173 -0.10641437
f 1 2 3
f 5 2 1
f 6 1 3
f 6 3 4
f 6 5 1
f 7 2 5
f 7 4 3
f 8 7 3
f 8 3 2
f 8 2 7
f 9 4 7
f 10 6 4
f 10 4 9
f 11 9 7
f 11 7 5
f 12 10 9
f 12 9 11
f 12 11 5
f 13 6 10
f 13 10 12
f 13 12 5
f 13 5 6

