# https://github.com/mikedh/trimesh
mtllib material.mtl
usemtl Material115
v -0.05962460 -0.07420495 0.00409852
v -0.05962460 -0.11307420 0.00409852
v -0.05962460 -0.07420495 -0.04183788
v -0.09653951 -0.07407565 -0.04065035
v -0.12322883 -0.10954064 0.00409852
v -0.11001461 -0.11415039 -0.04126598
v -0.12097293 -0.11396982 0.00469386
v -0.11384609 -0.07406894 0.00467513
v -0.05962460 -0.11307420 -0.04183788
v -0.11262813 -0.10954064 -0.04183788
v -0.12021309 -0.11427149 0.00136082
v -0.10556099 -0.07420495 -0.03477074
v -0.11969527 -0.11307420 -0.01710289
v -0.11616170 -0.07420495 -0.00296862
v -0.12322883 -0.10954064 0.00056495
v -0.11969527 -0.10954064 -0.01710289
f 1 2 3
f 1 3 4
f 8 1 4
f 8 5 7
f 8 7 2
f 8 2 1
f 9 3 2
f 9 2 6
f 10 4 3
f 10 9 6
f 10 3 9
f 11 6 2
f 11 2 7
f 12 8 4
f 12 4 10
f 13 10 6
f 13 6 11
f 13 11 7
f 14 5 8
f 14 8 12
f 14 12 10
f 15 13 7
f 15 7 5
f 15 5 14
f 16 14 10
f 16 10 13
f 16 15 14
f 16 13 15

