# https://github.com/mikedh/trimesh
mtllib material.mtl
usemtl Material039
v 0.01104678 -0.37455830 0.37865682
v 0.06758389 -0.37455830 0.32565329
v 0.04551319 -0.36908135 0.35960384
v -0.06967342 -0.37084347 0.29744514
v -0.01015463 -0.39929329 0.33978756
v 0.06602038 -0.37038769 0.29738594
v -0.03762999 -0.36929592 0.36985705
v 0.04284890 -0.39575972 0.32565329
v 0.06560089 -0.36872040 0.32419532
v 0.01034254 -0.36883606 0.37656334
v -0.02075534 -0.37455830 0.37865682
v -0.05962460 -0.39575972 0.30798544
v 0.05698318 -0.37455830 0.35038827
v 0.00044608 -0.39929329 0.34332113
v 0.06051675 -0.39575972 0.29738474
v -0.06823311 -0.36912976 0.32896159
v -0.02019898 -0.36923580 0.37685458
v -0.03842318 -0.37455830 0.37158969
v 0.04638247 -0.37455830 0.36098898
v 0.05554455 -0.36908801 0.34922392
v -0.01015463 -0.39929329 0.34332113
v -0.01722177 -0.37809187 0.37512325
v 0.06758389 -0.37809187 0.29738474
v 0.04991604 -0.39575972 0.31858615
v 0.06051675 -0.39575972 0.30091831
v -0.05744226 -0.39447988 0.29700554
v -0.03050093 -0.36916096 0.37325536
v -0.07022530 -0.37809187 0.31151901
v -0.06315816 -0.37455830 0.34685470
v 0.04638247 -0.38515901 0.34332113
v 0.03931533 -0.37809187 0.36098898
v 0.06405032 -0.37455830 0.33625400
v -0.03488961 -0.39575972 0.33272043
v 0.00751321 -0.37809187 0.37512325
v -0.02782247 -0.37809187 0.37158969
v 0.06758389 -0.37809187 0.31858615
v -0.06173651 -0.36925822 0.34595619
v -0.03135604 -0.37455830 0.37512325
v -0.07022530 -0.37455830 0.32918686
v -0.06315816 -0.39222615 0.29738474
v 0.02871463 -0.39575972 0.33625400
v 0.06215273 -0.36900279 0.33576905
v 0.01104678 -0.38162544 0.36805612
v -0.07022530 -0.37809187 0.29738474
v -0.06315816 -0.39222615 0.30445187
v 0.04284890 -0.39222615 0.33272043
v 0.02164749 -0.39575972 0.33978756
f 9 2 6
f 9 6 4
f 10 1 3
f 10 3 9
f 15 5 12
f 15 14 5
f 16 9 4
f 16 10 9
f 17 11 1
f 17 1 10
f 19 13 3
f 19 3 1
f 20 9 3
f 20 3 13
f 21 5 14
f 21 12 5
f 22 1 11
f 22 21 14
f 23 6 2
f 24 8 14
f 25 13 24
f 25 24 14
f 25 14 15
f 25 15 23
f 26 15 12
f 26 4 6
f 26 23 15
f 26 6 23
f 27 10 16
f 27 17 10
f 29 12 18
f 30 13 19
f 30 24 13
f 30 8 24
f 31 19 1
f 31 30 19
f 32 20 13
f 32 13 25
f 33 21 18
f 33 18 12
f 33 12 21
f 34 22 14
f 34 1 22
f 34 31 1
f 35 22 11
f 35 18 21
f 35 21 22
f 36 25 23
f 36 23 2
f 36 32 25
f 36 2 32
f 37 27 16
f 37 7 27
f 37 29 18
f 37 18 7
f 38 27 7
f 38 7 18
f 38 11 17
f 38 17 27
f 38 35 11
f 38 18 35
f 39 16 4
f 39 12 29
f 39 37 16
f 39 29 37
f 40 26 12
f 41 14 8
f 41 30 31
f 42 32 2
f 42 2 9
f 42 9 20
f 42 20 32
f 43 34 14
f 43 31 34
f 44 39 4
f 44 28 39
f 44 40 28
f 44 4 26
f 44 26 40
f 45 39 28
f 45 12 39
f 45 40 12
f 45 28 40
f 46 41 8
f 46 8 30
f 46 30 41
f 47 41 31
f 47 31 43
f 47 43 14
f 47 14 41

