# https://github.com/mikedh/trimesh
mtllib material.mtl
usemtl Material096
v -0.04092467 -0.22222142 -0.36061775
v -0.03488961 -0.25441696 -0.38106049
v -0.03842318 -0.22261484 -0.40579547
v -0.10556099 -0.22261484 -0.40932904
v -0.10556099 -0.28621908 -0.37399335
v -0.10347779 -0.22161830 -0.36079993
v -0.03488961 -0.22261484 -0.36692622
v -0.05962460 -0.26855124 -0.35985908
v -0.07729244 -0.29328622 -0.40932904
v -0.04549032 -0.22261484 -0.40932904
v -0.12322883 -0.24028269 -0.38459406
v -0.03488961 -0.22614841 -0.40226191
v -0.03488961 -0.22261484 -0.39872834
v -0.09849385 -0.25795053 -0.35985908
v -0.03842318 -0.24028269 -0.35985908
v -0.06669173 -0.29328622 -0.37752692
v -0.04195675 -0.26501767 -0.40932904
v -0.11616170 -0.22261484 -0.38106049
v -0.11969527 -0.27208481 -0.40579547
v -0.08789315 -0.27915194 -0.36339265
v -0.11969527 -0.26501767 -0.37399335
v -0.10556099 -0.24028269 -0.35985908
v -0.04195675 -0.27208481 -0.37752692
v -0.03488961 -0.24028269 -0.37045978
v -0.09496028 -0.29681979 -0.38459406
v -0.04195675 -0.24028269 -0.40932904
v -0.03488961 -0.26148410 -0.40226191
v -0.11262813 -0.22614841 -0.36692622
v -0.11616170 -0.22261484 -0.39872834
v -0.11616170 -0.27208481 -0.40932904
v -0.10556099 -0.27208481 -0.36692622
v -0.08435958 -0.27208481 -0.35985908
v -0.07375887 -0.28621908 -0.36692622
v -0.11969527 -0.27561838 -0.38459406
v -0.04902389 -0.26501767 -0.36339265
v -0.03842318 -0.25795053 -0.37045978
v -0.03488961 -0.22968198 -0.36692622
v -0.07729244 -0.29681979 -0.40579547
v -0.03842318 -0.27208481 -0.39519477
v -0.10909456 -0.22261484 -0.36339265
v -0.11969527 -0.24381625 -0.37399335
v -0.11969527 -0.22968198 -0.38812763
v -0.12322883 -0.25088339 -0.40579547
v -0.09496028 -0.28268551 -0.36692622
v -0.11262813 -0.27208481 -0.37045978
v -0.06315816 -0.28621908 -0.37045978
v -0.06669173 -0.27208481 -0.35985908
v -0.09142672 -0.29328622 -0.37399335
v -0.11969527 -0.27208481 -0.37752692
v -0.11262813 -0.28621908 -0.38812763
v -0.04549032 -0.25441696 -0.35985908
v -0.03842318 -0.26855124 -0.38459406
v -0.04195675 -0.26501767 -0.37045978
v -0.03488961 -0.24734982 -0.37399335
v -0.07729244 -0.29681979 -0.38106049
v -0.05255746 -0.28621908 -0.40579547
v -0.10202742 -0.28975265 -0.40932904
v -0.03488961 -0.26148410 -0.39166120
v -0.11262813 -0.22261484 -0.37045978
v -0.11969527 -0.23674912 -0.37752692
v -0.12322883 -0.24734982 -0.38106049
v -0.12322883 -0.24028269 -0.39872834
v -0.12322883 -0.26855124 -0.40226191
v -0.11969527 -0.23321555 -0.40226191
f 6 1 3
f 10 6 3
f 10 4 6
f 10 9 4
f 12 7 2
f 13 3 1
f 13 1 7
f 13 12 3
f 13 7 12
f 15 7 1
f 15 14 8
f 17 9 10
f 22 15 1
f 22 1 6
f 22 14 15
f 24 2 7
f 26 17 10
f 26 10 3
f 26 3 17
f 27 12 2
f 27 17 3
f 27 3 12
f 29 18 6
f 29 6 4
f 30 4 9
f 31 20 14
f 32 8 14
f 32 14 20
f 33 32 20
f 37 24 7
f 37 7 15
f 37 15 24
f 40 22 6
f 40 21 22
f 41 40 28
f 41 21 40
f 42 11 18
f 42 18 29
f 43 30 19
f 43 4 30
f 44 31 5
f 44 20 31
f 45 5 31
f 45 22 21
f 45 31 14
f 45 14 22
f 46 33 16
f 46 35 8
f 46 16 23
f 46 23 35
f 47 8 32
f 47 32 33
f 47 46 8
f 47 33 46
f 48 16 33
f 48 33 20
f 48 20 44
f 48 44 5
f 48 5 25
f 49 45 21
f 49 5 45
f 50 25 5
f 50 49 34
f 50 5 49
f 51 15 8
f 51 8 35
f 51 36 15
f 52 36 23
f 52 2 36
f 52 23 39
f 53 35 23
f 53 23 36
f 53 51 35
f 53 36 51
f 54 24 15
f 54 15 36
f 54 36 2
f 54 2 24
f 55 38 16
f 55 25 38
f 55 48 25
f 55 16 48
f 56 38 9
f 56 9 17
f 56 17 27
f 56 27 39
f 56 16 38
f 56 39 23
f 56 23 16
f 57 30 9
f 57 9 38
f 57 19 30
f 57 50 19
f 57 38 25
f 57 25 50
f 58 39 27
f 58 27 2
f 58 52 39
f 58 2 52
f 59 40 6
f 59 6 18
f 59 18 28
f 59 28 40
f 60 41 28
f 60 28 18
f 60 18 11
f 61 21 41
f 61 49 21
f 61 11 43
f 61 60 11
f 61 41 60
f 62 42 29
f 62 43 11
f 62 11 42
f 63 43 19
f 63 61 43
f 63 34 49
f 63 49 61
f 63 50 34
f 63 19 50
f 64 29 4
f 64 4 43
f 64 62 29
f 64 43 62

