# https://github.com/mikedh/trimesh
mtllib material.mtl
usemtl Material022
v 0.03578177 0.48763251 -0.17964706
v 0.04638247 0.45583039 -0.18671420
v 0.04284890 0.48763251 -0.20438205
v 0.02871463 0.48763251 -0.21498275
v 0.00389114 0.43527798 -0.17916009
v 0.03931533 0.45936396 -0.21144919
v 0.00751321 0.50176678 -0.18671420
v 0.04638247 0.47703180 -0.19024777
v 0.04284890 0.44876325 -0.17964706
v 0.04638247 0.45936396 -0.20438205
v 0.04284890 0.47703180 -0.21144919
v 0.00375207 0.44764479 -0.19540161
v 0.02871463 0.49823322 -0.19378134
v 0.00397965 0.49823322 -0.17964706
v 0.04284890 0.48763251 -0.19378134
v 0.01725026 0.43727400 -0.17807347
v 0.04284890 0.47349823 -0.17964706
v 0.04284890 0.44876325 -0.19378134
v 0.04638247 0.47703180 -0.20438205
v 0.03578177 0.46643110 -0.21498275
v 0.03931533 0.48763251 -0.21144919
v 0.04284890 0.46643110 -0.21144919
v 0.00397965 0.43816254 -0.19024777
v 0.00362409 0.49898649 -0.19680087
v 0.02518106 0.49469965 -0.17964706
v 0.04638247 0.48056537 -0.19378134
v 0.04284890 0.48056537 -0.18318063
v 0.03578177 0.49469965 -0.19378134
v 0.02736544 0.44105831 -0.17835513
v 0.04638247 0.46996466 -0.18671420
v 0.04638247 0.45583039 -0.19731491
v 0.04284890 0.45229682 -0.20084848
v 0.04284890 0.48409894 -0.20791562
v 0.02871463 0.45936396 -0.21144919
v 0.03224820 0.49469965 -0.20791562
v 0.03578177 0.48056537 -0.21498275
v 0.00366252 0.43695436 -0.18143582
v 0.01811392 0.43462897 -0.18318063
v 0.00397965 0.50176678 -0.18671420
v 0.02518106 0.49823322 -0.18671420
v 0.01104678 0.49823322 -0.17964706
v 0.04638247 0.48056537 -0.19731491
v 0.04284890 0.48409894 -0.18671420
v 0.02800229 0.46798852 -0.21239564
v 0.03224820 0.48763251 -0.21498275
v 0.03578177 0.49469965 -0.20084848
v 0.03931533 0.49116608 -0.20438205
v 0.01458035 0.50176678 -0.19731491
v 0.03578177 0.44169611 -0.17964706
v 0.03578177 0.44876325 -0.20084848
v 0.03224820 0.49469965 -0.18671420
v 0.02871463 0.49823322 -0.19731491
v 0.02871463 0.49469965 -0.20791562
v 0.01458035 0.50176678 -0.19024777
v 0.02871463 0.43816254 -0.18318063
v 0.03931533 0.45229682 -0.20438205
v 0.01104678 0.43816254 -0.19024777
v 0.03578177 0.44169611 -0.18318063
v 0.03578177 0.44522968 -0.19378134
v 0.02164749 0.44169611 -0.19378134
v 0.03931533 0.44522968 -0.19024777
f 10 8 2
f 16 14 5
f 17 9 2
f 18 2 9
f 19 8 10
f 19 10 11
f 22 11 10
f 22 10 6
f 22 20 11
f 22 6 20
f 24 4 12
f 25 16 1
f 26 3 15
f 26 8 19
f 27 8 26
f 27 1 17
f 28 1 15
f 28 15 3
f 29 9 17
f 29 17 1
f 29 1 16
f 30 17 2
f 30 2 8
f 30 27 17
f 30 8 27
f 31 18 10
f 31 10 2
f 31 2 18
f 32 6 10
f 32 10 18
f 33 19 11
f 33 3 19
f 33 21 3
f 33 11 21
f 34 23 12
f 34 20 6
f 34 6 23
f 36 20 4
f 36 21 11
f 36 11 20
f 37 23 5
f 37 12 23
f 37 24 12
f 37 5 14
f 37 14 24
f 38 16 5
f 38 5 23
f 39 24 14
f 39 14 7
f 41 7 14
f 41 14 16
f 41 16 25
f 41 40 7
f 41 25 40
f 42 26 19
f 42 19 3
f 42 3 26
f 43 15 1
f 43 1 27
f 43 27 26
f 43 26 15
f 44 34 12
f 44 12 4
f 44 4 20
f 44 20 34
f 45 35 21
f 45 4 35
f 45 36 4
f 45 21 36
f 46 13 28
f 46 28 3
f 47 3 21
f 47 21 35
f 47 46 3
f 47 35 46
f 48 4 24
f 48 39 7
f 48 24 39
f 49 29 16
f 49 16 38
f 49 9 29
f 50 32 18
f 51 40 25
f 51 25 1
f 51 1 28
f 51 28 13
f 51 13 40
f 52 46 35
f 52 13 46
f 52 48 13
f 52 35 48
f 53 48 35
f 53 35 4
f 53 4 48
f 54 40 13
f 54 13 48
f 54 48 7
f 54 7 40
f 55 49 38
f 56 50 6
f 56 6 32
f 56 32 50
f 57 38 23
f 57 23 6
f 57 6 50
f 58 49 55
f 59 50 18
f 59 55 38
f 59 38 50
f 60 57 50
f 60 50 38
f 60 38 57
f 61 58 55
f 61 49 58
f 61 18 9
f 61 9 49
f 61 59 18
f 61 55 59

