# https://github.com/mikedh/trimesh
mtllib material.mtl
usemtl Material057
v 0.11520586 0.23026039 -0.06278445
v 0.11705385 0.22261484 -0.06303929
v 0.10645314 0.22614841 -0.10544212
v 0.03224820 0.22261484 -0.10544212
v 0.00395109 0.19106211 -0.06279319
v 0.00371541 0.23087767 -0.08960381
v 0.11705385 0.22968198 -0.07364000
v 0.07418941 0.18692859 -0.06171720
v 0.03422763 0.23058323 -0.10420070
v 0.00397965 0.22968198 -0.06303929
v 0.00397965 0.20141343 -0.07717357
v 0.11352028 0.22614841 -0.08777427
v 0.06758389 0.20141343 -0.10544212
v 0.00397965 0.22614841 -0.09130784
v 0.10453109 0.23122382 -0.10452949
v 0.00375016 0.19281708 -0.06459489
v 0.11705385 0.22614841 -0.07364000
v 0.09231887 0.19081272 -0.07010643
v 0.04284890 0.20848057 -0.10544212
v 0.05698318 0.18374558 -0.07010643
v 0.00397965 0.21908127 -0.08777427
v 0.11352028 0.22968198 -0.08777427
v 0.10720207 0.23109024 -0.09756502
v 0.10291957 0.20141343 -0.07364000
v 0.08878530 0.20848057 -0.10544212
v 0.08878530 0.18727915 -0.06303929
v 0.03578177 0.21554770 -0.10544212
v 0.06051675 0.20141343 -0.10544212
v 0.04284890 0.18374558 -0.06303929
v 0.07111745 0.18374558 -0.07010643
v 0.10998671 0.22614841 -0.09837498
v 0.11352028 0.21554770 -0.07010643
v 0.09231887 0.19787986 -0.08424070
v 0.09231887 0.20848057 -0.10190855
v 0.10998671 0.20848057 -0.06303929
v 0.04991604 0.20494700 -0.10544212
v 0.04284890 0.18374558 -0.06657286
v 0.07465102 0.18374558 -0.06657286
v 0.08525173 0.18727915 -0.07010643
v 0.10645314 0.22261484 -0.10190855
v 0.11705385 0.22261484 -0.06657286
v 0.10998671 0.22261484 -0.09484141
v 0.09585244 0.20494700 -0.09130784
v 0.10998671 0.20848057 -0.06657286
v 0.05698318 0.19787986 -0.09837498
v 0.08878530 0.18727915 -0.06657286
v 0.07465102 0.19787986 -0.09837498
v 0.10291957 0.21201413 -0.09130784
v 0.08171816 0.19081272 -0.08070713
v 0.08171816 0.20494700 -0.10544212
v 0.07465102 0.19081272 -0.08424070
v 0.08171816 0.19434629 -0.08777427
v 0.08525173 0.19787986 -0.09130784
f 7 1 2
f 8 2 1
f 9 3 4
f 10 1 6
f 10 8 1
f 10 5 8
f 13 4 3
f 14 9 4
f 14 6 9
f 15 3 9
f 15 9 6
f 16 10 6
f 16 5 10
f 16 11 5
f 16 6 11
f 17 12 7
f 17 7 2
f 19 4 13
f 21 11 6
f 21 6 14
f 22 7 12
f 23 1 7
f 23 22 15
f 23 7 22
f 23 15 6
f 23 6 1
f 25 13 3
f 27 14 4
f 27 4 19
f 27 21 14
f 27 19 11
f 27 11 21
f 28 19 13
f 29 8 5
f 30 29 20
f 31 22 12
f 31 3 15
f 31 15 22
f 32 12 17
f 33 24 18
f 34 25 3
f 35 2 8
f 35 8 26
f 35 32 2
f 36 28 5
f 36 5 11
f 36 11 19
f 36 19 28
f 37 29 5
f 37 20 29
f 38 26 8
f 38 8 29
f 38 29 30
f 39 38 30
f 40 3 31
f 40 34 3
f 41 32 17
f 41 17 2
f 41 2 32
f 42 31 12
f 42 12 32
f 42 40 31
f 42 32 24
f 43 24 33
f 43 33 34
f 44 24 32
f 44 32 35
f 44 35 26
f 45 20 37
f 45 28 13
f 45 30 20
f 45 37 5
f 45 5 28
f 46 26 38
f 46 38 39
f 46 18 24
f 46 44 26
f 46 24 44
f 46 33 18
f 47 45 13
f 47 30 45
f 48 24 43
f 48 42 24
f 48 40 42
f 48 43 34
f 48 34 40
f 49 39 30
f 50 47 13
f 50 13 25
f 51 49 30
f 51 30 47
f 52 47 50
f 52 51 47
f 52 49 51
f 52 39 49
f 52 46 39
f 52 33 46
f 53 52 50
f 53 50 25
f 53 33 52
f 53 34 33
f 53 25 34

