# https://github.com/mikedh/trimesh
mtllib material.mtl
usemtl Material104
v 0.05344961 -0.24734982 0.21257908
v 0.05344961 -0.33922262 0.21257908
v 0.05344961 -0.24734982 0.11010559
v 0.00044608 -0.24734982 0.11010559
v 0.00044608 -0.33922262 0.21257908
v 0.00067204 -0.33720659 0.11026713
v 0.00044608 -0.24734982 0.21257908
v 0.05344961 -0.32155477 0.11363916
v 0.03578177 -0.33568905 0.11010559
v 0.03224820 -0.33922262 0.11363916
v 0.05093821 -0.31588577 0.11076354
v 0.05344961 -0.33922262 0.17724339
v 0.02672696 -0.33662950 0.11060294
v 0.04638247 -0.32862191 0.11363916
v 0.05344961 -0.32508834 0.12423986
f 1 2 3
f 1 3 4
f 5 2 1
f 6 5 4
f 7 5 1
f 7 1 4
f 7 4 5
f 8 3 2
f 9 6 4
f 9 4 3
f 10 2 5
f 10 5 6
f 11 9 3
f 11 3 8
f 11 8 9
f 12 8 2
f 12 10 9
f 12 2 10
f 13 10 6
f 13 6 9
f 13 9 10
f 14 12 9
f 14 9 8
f 15 14 8
f 15 8 12
f 15 12 14

