# https://github.com/mikedh/trimesh
mtllib material.mtl
usemtl Material006
v -0.06669173 0.38162544 -0.33159053
v -0.06315816 0.33922262 -0.33159053
v -0.07022530 0.32862191 -0.40579547
v -0.13382954 0.34275618 -0.40932904
v -0.12676240 0.36042403 -0.33159053
v -0.10202742 0.28268551 -0.38106049
v -0.09142672 0.37809187 -0.39166120
v -0.06315816 0.33922262 -0.37045978
v -0.07022530 0.29681979 -0.37045978
v -0.12322883 0.29328622 -0.40579547
v -0.09849385 0.33215548 -0.33159053
v -0.07022530 0.34982332 -0.39519477
v -0.09849385 0.36042403 -0.40932904
v -0.10909456 0.38869258 -0.33159053
v -0.06315816 0.37102473 -0.33159053
v -0.07729244 0.29328622 -0.40226191
v -0.06669173 0.30388693 -0.39519477
v -0.13382954 0.29681979 -0.38812763
v -0.08435958 0.28975265 -0.36339265
v -0.07729244 0.38162544 -0.36692622
v -0.06669173 0.33215548 -0.39872834
v -0.12676240 0.36749117 -0.39872834
v -0.09496028 0.31095406 -0.41286261
v -0.08082601 0.36042403 -0.40226191
v -0.06669173 0.37809187 -0.34219123
v -0.09142672 0.28621908 -0.39872834
v -0.06315816 0.33215548 -0.37045978
v -0.06669173 0.30388693 -0.38459406
v -0.07022530 0.30742050 -0.40579547
v -0.07022530 0.29681979 -0.39872834
v -0.11969527 0.28621908 -0.39519477
v -0.14443025 0.33922262 -0.39166120
v -0.12322883 0.34628975 -0.33159053
v -0.06669173 0.33215548 -0.33159053
v -0.08082601 0.28621908 -0.37399335
v -0.08082601 0.39222615 -0.33512410
v -0.07022530 0.34628975 -0.39872834
v -0.06669173 0.33922262 -0.39519477
v -0.11616170 0.36395760 -0.40579547
v -0.10556099 0.38515901 -0.37399335
v -0.13736311 0.31448763 -0.40932904
v -0.11616170 0.33922262 -0.41286261
v -0.08789315 0.33922262 -0.41286261
v -0.08789315 0.29328622 -0.40579547
v -0.09142672 0.36395760 -0.40579547
v -0.07729244 0.37455830 -0.37752692
v -0.06669173 0.38162544 -0.33512410
v -0.07022530 0.37455830 -0.35985908
v -0.06669173 0.30742050 -0.39872834
v -0.06669173 0.31095406 -0.36339265
v -0.06315816 0.33215548 -0.35985908
v -0.07022530 0.30035336 -0.40226191
v -0.13029597 0.29328622 -0.40226191
v -0.11969527 0.28621908 -0.38459406
v -0.10202742 0.28268551 -0.38812763
v -0.11616170 0.28621908 -0.39872834
v -0.14443025 0.31802120 -0.39166120
v -0.14089668 0.34628975 -0.40226191
v -0.07729244 0.28975265 -0.36692622
v -0.07022530 0.30035336 -0.36339265
v -0.08789315 0.32862191 -0.33159053
v -0.08082601 0.28621908 -0.38812763
v -0.08789315 0.28621908 -0.36692622
v -0.08082601 0.39222615 -0.33159053
f 5 2 1
f 11 2 5
f 14 5 1
f 15 1 2
f 15 2 8
f 27 8 2
f 27 21 8
f 28 9 17
f 28 17 27
f 29 3 21
f 30 17 9
f 33 11 5
f 34 2 11
f 36 20 7
f 37 21 3
f 37 24 12
f 37 3 24
f 38 15 8
f 38 8 21
f 38 25 15
f 38 12 25
f 38 37 12
f 38 21 37
f 39 4 22
f 39 22 7
f 39 7 13
f 40 22 14
f 40 7 22
f 40 36 7
f 40 14 36
f 41 23 10
f 42 39 13
f 42 4 39
f 42 41 4
f 42 23 41
f 43 29 23
f 43 3 29
f 43 24 3
f 43 42 13
f 43 23 42
f 44 10 23
f 44 26 10
f 44 16 26
f 44 29 16
f 44 23 29
f 45 13 7
f 45 7 24
f 45 43 13
f 45 24 43
f 46 12 24
f 46 24 7
f 46 7 20
f 47 1 15
f 47 15 25
f 47 25 20
f 47 36 1
f 47 20 36
f 48 25 12
f 48 20 25
f 48 46 20
f 48 12 46
f 49 27 17
f 49 21 27
f 49 29 21
f 49 17 30
f 50 28 2
f 50 9 28
f 51 28 27
f 51 27 2
f 51 2 28
f 52 30 16
f 52 16 29
f 52 49 30
f 52 29 49
f 53 41 10
f 54 31 6
f 54 53 31
f 54 18 53
f 54 33 18
f 55 6 31
f 55 35 6
f 56 10 26
f 56 55 31
f 56 26 55
f 56 53 10
f 56 31 53
f 57 5 32
f 57 33 5
f 57 18 33
f 57 53 18
f 57 41 53
f 58 22 4
f 58 4 41
f 58 57 32
f 58 41 57
f 58 14 22
f 58 32 5
f 58 5 14
f 59 34 19
f 59 30 9
f 60 2 34
f 60 50 2
f 60 9 50
f 60 59 9
f 60 34 59
f 61 34 11
f 61 19 34
f 62 16 30
f 62 59 35
f 62 30 59
f 62 26 16
f 62 55 26
f 62 35 55
f 63 6 35
f 63 54 6
f 63 11 33
f 63 33 54
f 63 61 11
f 63 19 61
f 63 59 19
f 63 35 59
f 64 36 14
f 64 14 1
f 64 1 36

