# https://github.com/mikedh/trimesh
mtllib material.mtl
usemtl Material056
v 0.05698318 -0.24734982 0.06063562
v 0.05532241 -0.30188042 0.06117946
v 0.05698318 -0.29681979 0.00409852
v -0.05255746 -0.24734982 0.00409852
v -0.05255746 -0.24734982 0.06063562
v -0.02075534 -0.33568905 0.05710205
v 0.05698318 -0.24734982 0.00409852
v 0.05698318 -0.30388693 0.05003491
v -0.00641798 -0.33604586 0.06171278
v -0.02782247 -0.31448763 0.00409852
v -0.05255746 -0.31095406 0.06063562
v 0.02871463 -0.32862191 0.06063562
v 0.00397965 -0.32862191 0.02176636
v -0.05255746 -0.30035336 0.00409852
v -0.02075534 -0.33568905 0.06063562
v 0.04284890 -0.31802120 0.06063562
v 0.00397965 -0.33922262 0.05710205
v -0.01368820 -0.32508834 0.01469922
v 0.02518106 -0.32155477 0.02176636
v -0.02782247 -0.31802120 0.01116566
v -0.04549032 -0.31802120 0.05710205
v -0.04549032 -0.31802120 0.06063562
v 0.02871463 -0.32862191 0.05710205
v 0.04284890 -0.31802120 0.05710205
v -0.00662106 -0.33922262 0.05710205
v 0.00397965 -0.33922262 0.06063562
v 0.01811392 -0.31802120 0.00409852
v 0.01458035 -0.32862191 0.02883350
v -0.04195675 -0.30742050 0.00409852
v -0.02075534 -0.32862191 0.03236707
v -0.02428891 -0.31802120 0.00763209
v -0.02428891 -0.33215548 0.05003491
v -0.05255746 -0.31095406 0.05710205
v -0.03135604 -0.32862191 0.06063562
v 0.01458035 -0.33568905 0.06063562
v -0.00662106 -0.33215548 0.03236707
v 0.01104678 -0.32155477 0.00763209
v 0.03931533 -0.30742050 0.00409852
v 0.00397965 -0.33215548 0.03236707
v 0.02518106 -0.31802120 0.01116566
v 0.02164749 -0.33215548 0.05356848
v -0.02075534 -0.32508834 0.02176636
v -0.04902389 -0.30388693 0.00763209
v -0.03135604 -0.32862191 0.05710205
v -0.00662106 -0.32862191 0.02176636
v -0.01368820 -0.33215548 0.03590064
v -0.01368820 -0.32155477 0.00763209
v 0.01104678 -0.32862191 0.02529993
v 0.01458035 -0.32508834 0.01823279
v 0.01458035 -0.33568905 0.05356848
v -0.01722177 -0.33215548 0.03943421
v -0.01722177 -0.31802120 0.00409852
f 5 1 4
f 7 1 3
f 7 3 4
f 7 4 1
f 8 1 2
f 8 3 1
f 9 2 1
f 9 1 5
f 10 4 3
f 11 5 4
f 11 9 5
f 12 2 9
f 14 11 4
f 14 4 10
f 16 8 2
f 16 2 12
f 22 9 11
f 22 11 21
f 23 16 12
f 24 3 8
f 24 8 16
f 24 23 3
f 24 16 23
f 25 15 6
f 26 25 17
f 26 9 15
f 26 15 25
f 27 10 3
f 29 14 10
f 31 29 10
f 31 20 29
f 32 29 20
f 32 20 30
f 33 21 11
f 33 11 14
f 33 14 21
f 34 6 15
f 34 22 21
f 34 15 9
f 34 9 22
f 35 23 12
f 35 26 17
f 35 12 9
f 35 9 26
f 36 17 25
f 38 27 3
f 38 3 19
f 39 36 13
f 39 17 36
f 40 19 28
f 40 38 19
f 40 27 38
f 41 19 3
f 41 3 23
f 42 30 20
f 42 31 18
f 42 20 31
f 43 21 14
f 43 14 29
f 43 29 32
f 44 32 6
f 44 43 32
f 44 21 43
f 44 34 21
f 44 6 34
f 45 13 36
f 45 37 13
f 46 45 36
f 46 18 45
f 46 42 18
f 46 36 25
f 46 25 6
f 47 18 31
f 47 27 37
f 47 45 18
f 47 37 45
f 48 13 37
f 48 39 13
f 48 17 39
f 49 40 28
f 49 27 40
f 49 28 48
f 49 48 37
f 49 37 27
f 50 28 19
f 50 19 41
f 50 48 28
f 50 17 48
f 50 35 17
f 50 41 23
f 50 23 35
f 51 46 6
f 51 30 42
f 51 42 46
f 51 32 30
f 51 6 32
f 52 10 27
f 52 27 47
f 52 47 31
f 52 31 10

