# https://github.com/mikedh/trimesh
mtllib material.mtl
usemtl Material035
v 0.11606800 -0.23258524 0.00426050
v 0.11449448 -0.23511277 0.00451903
v 0.09231887 -0.23674912 -0.09484141
v -0.09769107 -0.23145044 -0.09457257
v -0.11762092 -0.23188621 0.00422050
v 0.10422236 -0.23122659 -0.07678887
v -0.01368820 -0.31802120 0.00409852
v 0.09215622 -0.23267036 -0.09476284
v 0.11462129 -0.23160805 -0.01336084
v -0.11399248 -0.23129498 -0.03430375
v 0.04991604 -0.30035336 -0.00296862
v 0.01048652 -0.31508585 0.00552769
v -0.02782247 -0.26501767 -0.08424070
v 0.10645314 -0.23674912 -0.07717357
v -0.09849385 -0.23674912 -0.09484141
v 0.09532946 -0.23218156 -0.09112648
v -0.10407933 -0.23129289 -0.07677630
v 0.11146699 -0.23142146 -0.03799991
v -0.11713377 -0.23158606 -0.00630783
v -0.02346410 -0.31135726 0.00543518
v 0.07111745 -0.28621908 0.00409852
v 0.04284890 -0.28621908 -0.04537145
v 0.11705385 -0.23674912 -0.01356933
v 0.01104678 -0.25441696 -0.09484141
v -0.04549032 -0.28975265 -0.04183788
v 0.09585244 -0.23674912 -0.09130784
v -0.11262813 -0.23674912 -0.05243858
v -0.10556099 -0.23674912 -0.07717357
v 0.04991604 -0.30035336 0.00409852
v 0.02066029 -0.31167486 0.00540221
v 0.07818459 -0.27561838 -0.02417003
v 0.01104678 -0.31802120 0.00056495
v 0.10998671 -0.25088339 0.00409852
v 0.11352028 -0.23674912 -0.03830431
v -0.02428891 -0.25441696 -0.09484141
v 0.01811392 -0.27208481 -0.07364000
v -0.08435958 -0.24381625 -0.09484141
v -0.06315816 -0.29328622 -0.00296862
v 0.05698318 -0.28621908 -0.03477074
v -0.11050853 -0.23150146 -0.05202854
v -0.11969527 -0.23674912 -0.00650219
v 0.06405032 -0.28975265 -0.01003576
v -0.02428891 -0.27915194 -0.06657286
v 0.02164749 -0.31448763 0.00056495
v 0.09585244 -0.26501767 -0.00650219
v 0.08878530 -0.27208481 0.00409852
v 0.10998671 -0.25088339 0.00056495
v 0.00751321 -0.26501767 -0.08424070
v 0.02518106 -0.28975265 -0.04537145
v 0.07111745 -0.24381625 -0.09484141
v -0.02782247 -0.25795053 -0.09130784
v -0.05255746 -0.29681979 -0.02063646
v -0.05255746 -0.30035336 0.00409852
v -0.09142672 -0.26855124 -0.01356933
v 0.07465102 -0.27561838 -0.03123717
v -0.11616170 -0.23674912 -0.03477074
v 0.06051675 -0.29328622 -0.00296862
v 0.04991604 -0.29681979 -0.01710289
v -0.04195675 -0.28268551 -0.05597215
v -0.00662106 -0.31095406 -0.01356933
v 0.02518106 -0.31095406 -0.00650219
v 0.08878530 -0.26855124 -0.01710289
v 0.07465102 -0.28268551 -0.00650219
v 0.10291957 -0.25795053 -0.00650219
f 5 2 1
f 9 5 1
f 12 2 5
f 15 8 3
f 15 4 8
f 16 8 4
f 16 4 6
f 16 6 14
f 17 10 6
f 17 6 4
f 18 10 9
f 18 6 10
f 18 14 6
f 19 5 9
f 19 9 10
f 20 12 5
f 20 7 12
f 23 9 1
f 23 18 9
f 24 15 3
f 26 16 14
f 26 3 8
f 26 8 16
f 28 17 4
f 28 4 15
f 28 27 17
f 29 11 21
f 30 2 12
f 30 29 21
f 32 12 7
f 33 23 1
f 33 1 2
f 33 2 30
f 34 14 18
f 34 18 23
f 35 15 24
f 37 25 15
f 37 15 35
f 39 22 3
f 39 3 26
f 39 26 14
f 40 27 10
f 40 10 17
f 40 17 27
f 41 19 10
f 41 5 19
f 42 39 31
f 43 37 13
f 44 30 12
f 44 12 32
f 44 29 30
f 44 11 29
f 46 33 30
f 46 30 21
f 47 14 34
f 47 34 23
f 47 23 33
f 48 43 13
f 48 36 43
f 49 36 22
f 49 22 32
f 49 43 36
f 50 3 22
f 50 22 36
f 50 36 48
f 50 48 24
f 50 24 3
f 51 37 35
f 51 13 37
f 51 35 24
f 51 48 13
f 51 24 48
f 52 25 7
f 52 15 25
f 53 7 20
f 53 20 5
f 53 41 38
f 53 5 41
f 53 52 7
f 53 38 52
f 54 27 28
f 54 52 38
f 54 28 15
f 54 15 52
f 54 38 41
f 55 39 14
f 55 14 31
f 55 31 39
f 56 41 10
f 56 10 27
f 56 54 41
f 56 27 54
f 57 21 11
f 57 11 42
f 58 42 11
f 58 39 42
f 58 11 44
f 59 25 37
f 59 37 43
f 60 32 7
f 60 59 43
f 60 7 25
f 60 25 59
f 60 49 32
f 60 43 49
f 61 44 32
f 61 32 22
f 61 58 44
f 61 22 39
f 61 39 58
f 62 31 14
f 62 14 45
f 63 62 45
f 63 42 31
f 63 31 62
f 63 57 42
f 63 21 57
f 63 46 21
f 63 45 46
f 64 45 14
f 64 14 47
f 64 46 45
f 64 47 33
f 64 33 46

