# https://github.com/mikedh/trimesh
mtllib material.mtl
usemtl Material084
v 0.12412099 -0.11307420 0.00409852
v 0.13472170 -0.19081272 0.00409852
v 0.12412099 -0.15901060 -0.09484141
v 0.07079045 -0.12936605 -0.09417679
v 0.07111745 -0.23321555 0.00409852
v 0.09938601 -0.11307420 -0.07010643
v 0.13118813 -0.13074205 -0.00296862
v 0.07111745 -0.11307420 0.00409852
v 0.10291957 -0.23321555 -0.09484141
v 0.11705385 -0.11307420 -0.03477074
v 0.10291957 -0.13074205 -0.09484141
v 0.13118813 -0.13074205 0.00409852
v 0.13472170 -0.16607774 -0.01710289
v 0.06942522 -0.11441113 -0.07851980
v 0.12412099 -0.19787986 -0.09484141
v 0.12058742 -0.23321555 0.00409852
v 0.07118611 -0.23287803 -0.09475613
v 0.12765456 -0.12720848 -0.02063646
v 0.11352028 -0.13780919 -0.09130784
v 0.13118813 -0.15194346 -0.03830431
v 0.13472170 -0.15901060 0.00409852
v 0.07465102 -0.11307420 -0.08070713
v 0.13118813 -0.18727915 -0.04890502
v 0.12765456 -0.21554770 -0.02417003
v 0.09231887 -0.12720848 -0.09484141
v 0.12058742 -0.12014134 -0.03830431
v 0.12412099 -0.11307420 0.00056495
v 0.11705385 -0.14487633 -0.09484141
v 0.10645314 -0.13074205 -0.09130784
v 0.12765456 -0.16961131 -0.08424070
v 0.13118813 -0.14134276 -0.02417003
v 0.13472170 -0.15901060 -0.00296862
v 0.13472170 -0.18374558 -0.01356933
v 0.13118813 -0.20848057 0.00409852
v 0.13118813 -0.20141343 -0.02770360
v 0.11352028 -0.22614841 -0.08777427
v 0.09585244 -0.11307420 -0.07364000
v 0.12765456 -0.13427562 -0.03477074
v 0.11705385 -0.13074205 -0.07010643
v 0.12058742 -0.11660777 -0.03123717
v 0.13118813 -0.16607774 -0.05243858
v 0.12765456 -0.16254417 -0.07717357
v 0.12765456 -0.18374558 -0.08424070
v 0.13472170 -0.16254417 -0.01356933
v 0.13118813 -0.18021201 -0.05243858
v 0.12765456 -0.21908127 -0.00650219
v 0.12412099 -0.20494700 -0.08070713
v 0.12765456 -0.19787986 -0.06657286
v 0.13118813 -0.19081272 -0.04537145
v 0.13472170 -0.19081272 0.00056495
v 0.13118813 -0.20848057 -0.00296862
v 0.12412099 -0.22261484 -0.03123717
v 0.11352028 -0.23321555 -0.05597215
v 0.11705385 -0.21908127 -0.09484141
v 0.12412099 -0.14134276 -0.06303929
v 0.12765456 -0.15194346 -0.06303929
v 0.12058742 -0.13780919 -0.07010643
v 0.12058742 -0.11307420 -0.02063646
v 0.13472170 -0.17314488 -0.01710289
v 0.12765456 -0.21908127 0.00409852
v 0.12765456 -0.21201413 -0.03477074
v 0.12765456 -0.19081272 -0.07717357
v 0.13118813 -0.19787986 -0.03477074
v 0.13118813 -0.20494700 -0.01710289
f 5 2 1
f 8 5 1
f 8 1 6
f 10 6 1
f 11 3 9
f 12 7 1
f 12 1 2
f 14 5 8
f 15 9 3
f 16 2 5
f 16 5 9
f 17 9 5
f 17 14 4
f 17 5 14
f 19 6 10
f 21 12 2
f 21 2 13
f 21 7 12
f 22 14 8
f 22 8 6
f 22 4 14
f 25 11 9
f 25 9 17
f 25 17 4
f 25 4 22
f 27 1 7
f 27 7 18
f 27 10 1
f 28 3 11
f 28 11 19
f 29 19 11
f 29 11 6
f 29 6 19
f 30 15 3
f 31 18 7
f 32 21 13
f 32 7 21
f 33 13 2
f 34 2 16
f 37 25 22
f 37 22 6
f 37 6 11
f 37 11 25
f 38 18 31
f 39 19 10
f 39 28 19
f 39 3 28
f 40 27 18
f 40 39 10
f 40 26 39
f 40 38 26
f 40 18 38
f 41 30 20
f 41 20 13
f 42 30 3
f 42 20 30
f 42 31 20
f 43 15 30
f 43 30 41
f 44 13 20
f 44 20 31
f 44 32 13
f 44 31 7
f 44 7 32
f 45 33 23
f 45 41 13
f 45 43 41
f 45 23 43
f 48 47 15
f 49 23 33
f 49 43 23
f 50 35 33
f 50 33 2
f 50 2 34
f 51 46 24
f 51 34 46
f 51 50 34
f 52 46 16
f 52 24 46
f 53 16 9
f 53 9 36
f 53 52 16
f 53 36 52
f 54 36 9
f 54 9 15
f 54 15 47
f 54 52 36
f 55 38 3
f 55 3 26
f 55 26 38
f 56 38 31
f 56 3 38
f 56 42 3
f 56 31 42
f 57 39 26
f 57 26 3
f 57 3 39
f 58 40 10
f 58 10 27
f 58 27 40
f 59 45 13
f 59 13 33
f 59 33 45
f 60 46 34
f 60 34 16
f 60 16 46
f 61 35 24
f 61 24 52
f 61 54 47
f 61 52 54
f 61 48 35
f 61 47 48
f 62 48 15
f 62 15 43
f 62 49 48
f 62 43 49
f 63 49 33
f 63 33 35
f 63 35 48
f 63 48 49
f 64 51 24
f 64 24 35
f 64 35 50
f 64 50 51

