# https://github.com/mikedh/trimesh
mtllib material.mtl
usemtl Material054
v 0.01104678 0.45229682 -0.10544212
v 0.02871463 0.40989399 -0.10544212
v 0.04284890 0.46996466 -0.17964706
v -0.03135604 0.48763251 -0.17964706
v -0.02782247 0.41696113 -0.10897569
v 0.01811392 0.49469965 -0.17611350
v 0.02871463 0.42756184 -0.10544212
v -0.01576107 0.40160009 -0.10442269
v -0.01722177 0.44522968 -0.10544212
v 0.03578177 0.48409894 -0.17611350
v 0.01811392 0.49469965 -0.17964706
v -0.01015463 0.48409894 -0.15491208
v 0.04284890 0.44876325 -0.17257993
v -0.00918415 0.39844536 -0.10414695
v -0.03842318 0.43462897 -0.17964706
v -0.04195675 0.46996466 -0.17611350
v -0.02428891 0.43109541 -0.10544212
v 0.01811392 0.47349823 -0.14077781
v 0.04284890 0.46996466 -0.17611350
v 0.02164749 0.44522968 -0.10897569
v -0.01722177 0.49469965 -0.17964706
v 0.03224820 0.48763251 -0.17964706
v -0.00662106 0.45583039 -0.10897569
v 0.02164749 0.44169611 -0.10544212
v -0.01015463 0.45229682 -0.10544212
v 0.01811392 0.42402827 -0.16551279
v -0.02428891 0.40636042 -0.11604282
v 0.02518106 0.43462897 -0.17964706
v -0.03488961 0.48409894 -0.17611350
v -0.04195675 0.44522968 -0.17257993
v -0.04195675 0.46996466 -0.17964706
v -0.02134965 0.40765583 -0.10499739
v -0.02782247 0.42049470 -0.10897569
v -0.03135604 0.46289753 -0.14784494
v 0.03224820 0.48763251 -0.17611350
v 0.00397965 0.47703180 -0.14077781
v 0.04284890 0.46289753 -0.17257993
v 0.01458035 0.45583039 -0.11250926
v -0.00308749 0.49469965 -0.17257993
v 0.03578177 0.48409894 -0.17964706
v -0.01368820 0.47703180 -0.14431138
v 0.01458035 0.39575972 -0.10897569
v -0.02782247 0.42049470 -0.16197922
v -0.01722177 0.39929329 -0.11250926
v 0.04284890 0.44876325 -0.17964706
v -0.02428891 0.46996466 -0.14431138
v -0.03135604 0.48763251 -0.17611350
v -0.04195675 0.44169611 -0.17611350
v -0.03488961 0.48409894 -0.17964706
v -0.02782247 0.42756184 -0.11250926
v -0.04195675 0.46289753 -0.17257993
v -0.03842318 0.46289753 -0.16197922
v -0.03135604 0.46996466 -0.15491208
v 0.02518106 0.48763251 -0.16904636
v 0.01104678 0.48056537 -0.14784494
v -0.00308749 0.47703180 -0.14077781
v 0.00751321 0.45583039 -0.10897569
v 0.02518106 0.47349823 -0.14784494
v -0.01722177 0.49469965 -0.17611350
v 0.01458035 0.39575972 -0.10544212
v 0.03578177 0.43816254 -0.17611350
v -0.03135604 0.42049470 -0.15491208
v 0.00397965 0.41696113 -0.15844565
v -0.01015463 0.39575972 -0.10897569
f 11 3 4
f 13 7 2
f 14 9 8
f 14 2 7
f 15 4 3
f 17 8 9
f 19 3 10
f 19 13 3
f 21 11 4
f 21 6 11
f 22 3 11
f 22 11 6
f 24 14 7
f 24 1 14
f 24 10 20
f 24 19 10
f 24 7 19
f 25 14 1
f 25 9 14
f 25 1 23
f 28 15 3
f 31 4 15
f 31 30 16
f 31 16 29
f 32 17 5
f 32 8 17
f 32 5 27
f 33 5 17
f 33 30 5
f 34 17 9
f 35 22 6
f 35 10 22
f 37 19 7
f 37 7 13
f 37 13 19
f 38 24 20
f 38 1 24
f 39 6 21
f 40 22 10
f 40 10 3
f 40 3 22
f 41 25 23
f 44 32 27
f 44 8 32
f 45 28 3
f 45 3 13
f 45 13 2
f 46 29 9
f 46 9 25
f 47 21 4
f 47 4 29
f 47 29 46
f 47 46 25
f 47 25 41
f 48 27 5
f 48 5 30
f 48 15 27
f 48 31 15
f 48 30 31
f 49 31 29
f 49 29 4
f 49 4 31
f 50 33 17
f 51 33 16
f 51 16 30
f 51 30 33
f 52 34 16
f 52 17 34
f 52 50 17
f 52 16 33
f 52 33 50
f 53 34 9
f 53 9 29
f 53 29 16
f 53 16 34
f 54 35 6
f 54 18 35
f 55 39 36
f 55 6 39
f 55 54 6
f 55 18 54
f 55 38 18
f 56 23 36
f 56 41 23
f 56 12 41
f 56 39 12
f 56 36 39
f 57 36 23
f 57 23 1
f 57 55 36
f 57 1 38
f 57 38 55
f 58 35 18
f 58 18 38
f 58 10 35
f 58 38 20
f 58 20 10
f 59 39 21
f 59 12 39
f 59 21 47
f 59 47 41
f 59 41 12
f 60 42 2
f 60 2 14
f 61 42 26
f 61 26 28
f 61 28 45
f 61 45 2
f 61 2 42
f 62 27 15
f 62 15 43
f 62 44 27
f 62 43 44
f 63 26 42
f 63 28 26
f 63 43 15
f 63 15 28
f 64 14 8
f 64 8 44
f 64 60 14
f 64 42 60
f 64 63 42
f 64 44 43
f 64 43 63

