# https://github.com/mikedh/trimesh
mtllib material.mtl
usemtl Material027
v 0.02871463 -0.26148410 0.41045894
v 0.12412099 -0.30035336 0.32211972
v 0.11982285 -0.24738033 0.31484810
v -0.05962460 -0.24734982 0.31505258
v -0.05962460 -0.37102473 0.35745541
v -0.05962460 -0.37102473 0.31505258
v 0.01104678 -0.24734982 0.41045894
v 0.09585244 -0.25795053 0.37512325
v 0.05698318 -0.36042403 0.37158969
v 0.07111745 -0.36749117 0.31505258
v 0.12146833 -0.30231897 0.31367526
v 0.12058742 -0.24734982 0.32565329
v -0.03135604 -0.32862191 0.40339180
v 0.06405032 -0.24734982 0.39632467
v 0.10291957 -0.28975265 0.36452255
v 0.07111745 -0.36395760 0.34685470
v 0.06450494 -0.37124462 0.31505345
v 0.12072059 -0.26515335 0.31414316
v 0.12412099 -0.30388693 0.31858615
v 0.12412099 -0.26501767 0.31858615
v -0.00308749 -0.29681979 0.41399251
v -0.02075534 -0.37102473 0.38219039
v -0.05962460 -0.25088339 0.39985824
v 0.04638247 -0.24734982 0.40339180
v 0.06051675 -0.30035336 0.39985824
v 0.09938601 -0.24734982 0.36805612
v 0.10998671 -0.26855124 0.35392184
v 0.06758389 -0.35335689 0.36805612
v 0.06758389 -0.37102473 0.33625400
v 0.12058742 -0.28621908 0.33272043
v 0.00397965 -0.26501767 0.41399251
v -0.05609103 -0.35335689 0.38219039
v 0.00751321 -0.35335689 0.39632467
v -0.05609103 -0.24734982 0.39985824
v -0.04195675 -0.29681979 0.40692537
v 0.03224820 -0.24734982 0.40692537
v 0.09585244 -0.27915194 0.37512325
v 0.07818459 -0.25088339 0.38925753
v 0.03224820 -0.28975265 0.41045894
v 0.05344961 -0.26501767 0.40339180
v 0.11352028 -0.24734982 0.34332113
v 0.10645314 -0.27208481 0.36098898
v 0.06405032 -0.36395760 0.36098898
v 0.06051675 -0.33922262 0.38572396
v 0.10998671 -0.29328622 0.35392184
v 0.11705385 -0.30035336 0.33625400
v 0.07111745 -0.36042403 0.35392184
v 0.04991604 -0.37102473 0.36452255
v 0.07465102 -0.36042403 0.34332113
v 0.07111745 -0.36749117 0.32918686
v 0.12058742 -0.26148410 0.32918686
v 0.12412099 -0.28621908 0.32211972
v 0.01811392 -0.25088339 0.41045894
v -0.03135604 -0.35335689 0.39279110
v -0.04195675 -0.36749117 0.37865682
v -0.05962460 -0.32508834 0.39279110
v -0.00308749 -0.31802120 0.41045894
v -0.05890941 -0.24781691 0.39429313
v -0.03488961 -0.24734982 0.40692537
v 0.03931533 -0.25441696 0.40692537
v 0.08171816 -0.24734982 0.38572396
v 0.08878530 -0.27208481 0.38219039
v 0.01104678 -0.28621908 0.41399251
v 0.04991604 -0.25088339 0.40339180
f 6 5 4
f 11 6 4
f 12 3 4
f 12 4 7
f 14 12 7
f 17 5 6
f 17 11 10
f 17 6 11
f 18 11 4
f 18 4 3
f 19 10 11
f 20 3 12
f 20 2 19
f 20 18 3
f 20 19 11
f 20 11 18
f 22 5 17
f 23 4 5
f 24 14 7
f 26 12 14
f 29 17 10
f 34 7 4
f 36 24 7
f 40 39 25
f 40 1 39
f 40 38 14
f 40 25 38
f 41 12 26
f 41 27 30
f 42 26 8
f 42 30 27
f 42 37 15
f 42 8 37
f 42 41 26
f 42 27 41
f 43 28 9
f 43 29 16
f 44 9 28
f 44 33 9
f 44 25 33
f 44 37 25
f 44 15 37
f 45 44 28
f 45 15 44
f 45 2 30
f 45 42 15
f 45 30 42
f 46 19 2
f 46 45 28
f 46 2 45
f 47 16 19
f 47 46 28
f 47 19 46
f 47 43 16
f 47 28 43
f 48 22 17
f 48 17 29
f 48 29 43
f 48 43 9
f 48 33 22
f 48 9 33
f 49 29 19
f 49 19 16
f 49 16 29
f 50 29 10
f 50 10 19
f 50 19 29
f 51 20 12
f 51 41 30
f 51 12 41
f 52 30 2
f 52 2 20
f 52 51 30
f 52 20 51
f 53 31 1
f 53 7 31
f 53 36 7
f 53 1 36
f 54 13 32
f 54 33 13
f 54 22 33
f 55 32 5
f 55 5 22
f 55 54 32
f 55 22 54
f 56 23 5
f 56 5 32
f 56 35 23
f 56 32 13
f 56 13 35
f 57 13 33
f 57 35 13
f 57 21 35
f 57 33 25
f 57 25 39
f 58 34 4
f 58 4 23
f 58 23 34
f 59 31 7
f 59 7 34
f 59 34 23
f 59 23 35
f 59 35 21
f 59 21 31
f 60 36 1
f 60 1 40
f 61 26 14
f 61 14 38
f 61 38 8
f 61 8 26
f 62 37 8
f 62 8 38
f 62 38 25
f 62 25 37
f 63 31 21
f 63 57 39
f 63 21 57
f 63 39 1
f 63 1 31
f 64 40 14
f 64 14 24
f 64 60 40
f 64 24 36
f 64 36 60

