# https://github.com/mikedh/trimesh
mtllib material.mtl
usemtl Material010
v 0.03178033 0.00335142 -0.09352488
v 0.04991604 -0.11307420 -0.09837498
v 0.01811392 -0.05653710 -0.10897569
v -0.03135604 0.00353357 -0.09837498
v -0.04777996 -0.10232198 -0.09304623
v 0.00751321 0.00000000 -0.10190855
v 0.04638247 -0.03533569 -0.09837498
v 0.04837002 -0.11306419 -0.09318909
v -0.03773259 -0.01082064 -0.09322603
v 0.03224820 -0.15547703 -0.11250926
v -0.01722177 -0.04946996 -0.10897569
v 0.03224820 0.00353357 -0.09837498
v 0.04885797 -0.05316727 -0.09314169
v -0.03096749 0.00338708 -0.09388423
v -0.04902389 -0.04593640 -0.09837498
v -0.02428891 -0.15547703 -0.09484141
v 0.03578177 -0.15547703 -0.09484141
v 0.03578177 -0.15194346 -0.11250926
v 0.00044608 -0.04240283 -0.10897569
v -0.01368820 0.00000000 -0.10190855
v 0.03578177 -0.00353357 -0.09837498
v 0.01811392 -0.02826855 -0.10544212
v 0.04554625 -0.03547914 -0.09349199
v 0.03520959 -0.00376361 -0.09330017
v -0.04800853 -0.04611328 -0.09311027
v 0.04991604 -0.05300353 -0.09837498
v -0.03842318 -0.01060071 -0.09837498
v -0.02459129 -0.15564611 -0.10774315
v 0.03720105 -0.15633472 -0.11024494
v 0.03224820 -0.04946996 -0.10544212
v -0.00308749 -0.10600707 -0.11250926
v -0.02782247 -0.03533569 -0.10544212
v -0.00308749 -0.04240283 -0.10897569
v 0.01458035 -0.00353357 -0.10190855
v 0.00751321 -0.04593640 -0.10897569
v -0.04902389 -0.10247350 -0.09837498
v -0.04464145 -0.03202613 -0.09340356
v 0.04284890 -0.05653710 -0.10190855
v 0.03224820 -0.02120141 -0.10190855
v 0.00397965 -0.10600707 -0.11250926
v -0.02428891 -0.10600707 -0.10897569
v -0.00308749 -0.12014134 -0.11250926
v -0.01722177 -0.02473498 -0.10544212
v -0.03488961 -0.02473498 -0.10190855
v -0.04549032 -0.11307420 -0.09837498
v -0.04549032 -0.03180212 -0.09837498
v -0.02075534 -0.05653710 -0.10897569
v -0.03488961 -0.05300353 -0.10544212
v -0.03488961 -0.10600707 -0.10544212
v -0.03135604 -0.01766785 -0.10190855
v -0.04492526 -0.11293901 -0.09377456
v -0.03135604 -0.04240283 -0.10544212
v -0.03842318 -0.03533569 -0.10190855
v -0.04195675 -0.10600707 -0.10190855
f 12 6 4
f 13 5 8
f 13 8 2
f 14 9 1
f 14 12 4
f 14 1 12
f 16 8 5
f 17 2 8
f 17 8 16
f 20 4 6
f 20 6 19
f 21 12 1
f 24 1 9
f 24 9 13
f 24 13 23
f 24 21 1
f 24 23 7
f 24 7 21
f 25 13 9
f 25 5 13
f 26 13 2
f 26 23 13
f 26 7 23
f 26 2 18
f 27 14 4
f 27 9 14
f 29 10 18
f 29 28 10
f 29 17 16
f 29 16 28
f 29 18 2
f 29 2 17
f 30 18 3
f 31 18 10
f 33 20 19
f 33 31 11
f 33 19 31
f 34 6 12
f 34 12 22
f 35 22 3
f 35 34 22
f 35 19 6
f 35 6 34
f 36 25 15
f 36 5 25
f 37 25 9
f 37 15 25
f 38 26 18
f 38 7 26
f 38 30 7
f 38 18 30
f 39 12 21
f 39 21 7
f 39 7 30
f 39 22 12
f 39 30 3
f 39 3 22
f 40 3 18
f 40 18 31
f 40 35 3
f 40 31 19
f 40 19 35
f 42 31 10
f 42 10 28
f 42 41 31
f 42 28 41
f 43 11 32
f 43 33 11
f 43 20 33
f 44 27 4
f 45 36 28
f 45 28 16
f 46 15 37
f 46 27 44
f 46 37 9
f 46 9 27
f 47 11 31
f 47 31 41
f 48 47 41
f 49 41 28
f 49 48 41
f 50 44 4
f 50 32 44
f 50 4 20
f 50 43 32
f 50 20 43
f 51 45 16
f 51 16 5
f 51 5 36
f 51 36 45
f 52 47 48
f 52 32 11
f 52 11 47
f 52 48 44
f 52 44 32
f 53 46 44
f 53 44 48
f 53 48 15
f 53 15 46
f 54 49 28
f 54 28 36
f 54 48 49
f 54 36 15
f 54 15 48

