# https://github.com/mikedh/trimesh
mtllib material.mtl
usemtl Material040
v 0.12327447 0.28285522 -0.10534214
v 0.12412099 0.26855124 -0.10544212
v 0.09938601 0.28268551 -0.18671420
v 0.06051675 0.27915194 -0.19731491
v 0.02630045 0.24490978 -0.10300704
v 0.02622915 0.28359025 -0.11693795
v 0.11705385 0.28268551 -0.15491208
v 0.10703017 0.23480048 -0.10447182
v 0.05452387 0.28460275 -0.19209460
v 0.02518106 0.28268551 -0.10544212
v 0.12412099 0.28268551 -0.12310996
v 0.10998671 0.23321555 -0.11250926
v 0.08386041 0.28486040 -0.19544859
v 0.03578177 0.22261484 -0.11250926
v 0.04638247 0.27915194 -0.18671420
v 0.02518106 0.24381625 -0.10897569
v 0.12058742 0.27561838 -0.13724424
v 0.11705385 0.24734982 -0.10544212
v 0.10645314 0.26501767 -0.16197922
v 0.06124677 0.28430571 -0.19579863
v 0.10369843 0.28420563 -0.17454167
v 0.07465102 0.20848057 -0.11604282
v 0.04638247 0.28268551 -0.18671420
v 0.05344961 0.24028269 -0.15491208
v 0.02518106 0.27561838 -0.11957639
v 0.03224820 0.22614841 -0.10897569
v 0.12412099 0.27208481 -0.11604282
v 0.12058742 0.27915194 -0.14077781
v 0.10291957 0.22261484 -0.10544212
v 0.10645314 0.27915194 -0.17611350
v 0.11352028 0.26501767 -0.14784494
v 0.08525173 0.27915194 -0.19731491
v 0.05344961 0.27915194 -0.19378134
v 0.12058742 0.28268551 -0.14077781
v 0.04638247 0.25088339 -0.15844565
v 0.04991604 0.20848057 -0.11250926
v 0.03224820 0.22614841 -0.10544212
v 0.12058742 0.25795053 -0.11250926
v 0.12412099 0.27915194 -0.12310996
v 0.03856901 0.22035033 -0.10369407
v 0.09231887 0.23321555 -0.14077781
v 0.10998671 0.25088339 -0.13724424
v 0.11705385 0.27561838 -0.15137851
v 0.09231887 0.27208481 -0.18671420
v 0.07465102 0.25441696 -0.17611350
v 0.05698318 0.26148410 -0.17964706
v 0.04284890 0.21554770 -0.11604282
v 0.06758389 0.23321555 -0.15137851
v 0.07818459 0.20494700 -0.10544212
v 0.04638247 0.20848057 -0.10544212
v 0.12412099 0.26855124 -0.10897569
v 0.11705385 0.24734982 -0.11250926
v 0.12058742 0.26501767 -0.12310996
v 0.09585244 0.21554770 -0.10897569
v 0.09938601 0.24028269 -0.14077781
v 0.11705385 0.27915194 -0.15491208
v 0.09938601 0.26855124 -0.17611350
v 0.09938601 0.27915194 -0.18671420
v 0.07818459 0.23674912 -0.15491208
v 0.08525173 0.25441696 -0.17257993
v 0.06758389 0.25441696 -0.17611350
v 0.04991604 0.24028269 -0.15137851
v 0.03578177 0.21908127 -0.10897569
v 0.04638247 0.21554770 -0.11957639
f 8 2 1
f 8 1 5
f 10 5 1
f 10 1 6
f 11 1 2
f 13 9 6
f 13 6 1
f 16 5 10
f 18 2 8
f 20 9 13
f 21 7 3
f 21 3 13
f 21 13 1
f 21 1 11
f 23 6 9
f 25 16 10
f 25 10 6
f 25 15 16
f 25 23 15
f 25 6 23
f 26 16 15
f 26 15 14
f 27 11 2
f 28 27 17
f 29 18 8
f 29 12 18
f 30 3 7
f 31 19 30
f 32 20 13
f 32 4 20
f 32 13 3
f 33 20 4
f 33 9 20
f 33 23 9
f 33 15 23
f 34 21 11
f 34 7 21
f 34 28 7
f 34 11 28
f 35 14 15
f 37 5 16
f 37 16 26
f 38 2 18
f 39 28 11
f 39 11 27
f 39 27 28
f 40 8 5
f 40 5 37
f 42 31 12
f 42 19 31
f 43 28 17
f 43 31 30
f 45 4 32
f 46 33 4
f 48 36 24
f 48 22 36
f 49 36 22
f 49 29 8
f 49 8 40
f 50 40 37
f 50 49 40
f 50 36 49
f 50 47 36
f 51 38 27
f 51 27 2
f 51 2 38
f 52 38 18
f 52 18 12
f 52 12 31
f 52 31 43
f 53 17 27
f 53 27 38
f 53 38 52
f 53 52 43
f 53 43 17
f 54 12 29
f 54 29 49
f 54 49 22
f 54 22 41
f 55 19 42
f 55 42 12
f 55 54 41
f 55 12 54
f 56 7 28
f 56 28 43
f 56 43 30
f 56 30 7
f 57 55 41
f 57 19 55
f 58 44 32
f 58 32 3
f 58 3 30
f 58 57 44
f 58 30 19
f 58 19 57
f 59 41 22
f 59 48 45
f 59 22 48
f 60 45 32
f 60 32 44
f 60 59 45
f 60 41 59
f 60 57 41
f 60 44 57
f 61 46 4
f 61 4 45
f 61 45 48
f 61 48 24
f 61 24 46
f 62 47 35
f 62 35 15
f 62 46 24
f 62 15 33
f 62 33 46
f 63 14 35
f 63 35 47
f 63 47 50
f 63 26 14
f 63 50 37
f 63 37 26
f 64 24 36
f 64 36 47
f 64 62 24
f 64 47 62

