# https://github.com/mikedh/trimesh
mtllib material.mtl
usemtl Material118
v 0.00397965 0.37455830 -0.03123717
v 0.00397965 0.34275618 -0.03123717
v 0.00397965 0.34628975 -0.06657286
v -0.04945249 0.34845289 -0.06657265
v -0.04948974 0.34730951 -0.03118803
v -0.04902389 0.34275618 -0.06657286
v -0.00279999 0.37614300 -0.05892635
v 0.00405575 0.37533345 -0.05920822
v -0.01908565 0.37560174 -0.03071173
v 0.00398934 0.34265663 -0.06655175
v -0.04902389 0.34275618 -0.03123717
v -0.01505836 0.37660675 -0.04448427
v -0.01833913 0.37606826 -0.03401037
v -0.01285056 0.37623003 -0.04826590
f 6 4 3
f 6 5 4
f 8 1 2
f 8 7 1
f 8 3 4
f 8 4 7
f 9 2 1
f 9 4 5
f 10 6 3
f 10 8 2
f 10 3 8
f 11 5 6
f 11 9 5
f 11 2 9
f 11 10 2
f 11 6 10
f 12 1 7
f 13 9 1
f 13 1 12
f 13 12 4
f 13 4 9
f 14 12 7
f 14 7 4
f 14 4 12

