# https://github.com/mikedh/trimesh
mtllib material.mtl
usemtl Std_Eyelash
v 0.04036241 -0.39783875 0.29899951
v 0.03992916 -0.39796404 0.29801390
v 0.04034576 -0.39803748 0.29786938
v 0.04078290 -0.39785507 0.29887478
v 0.04096766 -0.39781347 0.29759913
v 0.04144401 -0.39762714 0.29875314
v 0.03624356 -0.39885436 0.29462062
v 0.03662623 -0.39919416 0.29424228
v 0.03762120 -0.39892217 0.29484396
v 0.03719826 -0.39863225 0.29517781
v 0.03710663 -0.39916398 0.29352195
v 0.03815996 -0.39887041 0.29420021
v 0.03449889 -0.39970675 0.29334878
v 0.03487007 -0.39972449 0.29250961
v 0.03610140 -0.39942583 0.29299674
v 0.03569551 -0.39944023 0.29379191
v 0.03414397 -0.39934867 0.29384069
v 0.03535061 -0.39910766 0.29426083
v 0.02953346 -0.40026978 0.29374976
v 0.02959428 -0.40069308 0.29317610
v 0.03113873 -0.40041230 0.29300118
v 0.03103289 -0.39999978 0.29355929
v 0.03258090 -0.39967691 0.29354144
v 0.03279669 -0.40006657 0.29300906
v 0.03370620 -0.39989012 0.29317594
v 0.03340926 -0.39950656 0.29370672
v 0.02967358 -0.40086522 0.29229412
v 0.03124441 -0.40055606 0.29212977
v 0.03303497 -0.40013888 0.29212556
v 0.03401699 -0.39991972 0.29230368
v 0.03431922 -0.39942835 0.29083394
v 0.03327053 -0.39968835 0.29061788
v 0.03333403 -0.39907714 0.28978254
v 0.03435564 -0.39879267 0.28997305
v 0.03655796 -0.39890864 0.29159130
v 0.03528679 -0.39920186 0.29104600
v 0.03538005 -0.39851377 0.29017026
v 0.03672445 -0.39814485 0.29069762
v 0.03901879 -0.39819495 0.29298363
v 0.03782104 -0.39856304 0.29219895
v 0.03797602 -0.39778562 0.29134890
v 0.03930991 -0.39735993 0.29224321
v 0.03132824 -0.40016032 0.29054120
v 0.02958075 -0.40056923 0.29079710
v 0.02949370 -0.40000142 0.29002198
v 0.03131939 -0.39959408 0.28972163
v 0.04280047 -0.39638827 0.29865262
v 0.04219626 -0.39667788 0.29722874
v 0.04276686 -0.39535176 0.29703432
v 0.04336118 -0.39494643 0.29860776
v 0.04211661 -0.39726900 0.29869382
v 0.04172134 -0.39749985 0.29872816
v 0.04125646 -0.39769717 0.29751686
v 0.04160745 -0.39749787 0.29742194
v 0.03414663 -0.39990348 0.29197627
v 0.03310187 -0.40013680 0.29178839
v 0.03319412 -0.40010669 0.29137964
v 0.03422344 -0.39987677 0.29160541
v 0.03626255 -0.39940241 0.29271234
v 0.03501455 -0.39971378 0.29221320
v 0.03514232 -0.39966864 0.29179719
v 0.03638612 -0.39937728 0.29229807
v 0.03842658 -0.39884311 0.29398099
v 0.03735219 -0.39913322 0.29326295
v 0.03751975 -0.39906849 0.29290465
v 0.03864972 -0.39876048 0.29363197
v 0.03129674 -0.40059264 0.29173449
v 0.02965971 -0.40092554 0.29189701
v 0.02966160 -0.40092570 0.29155016
v 0.03133785 -0.40056091 0.29134273
v 0.03983733 -0.39834115 0.29576467
v 0.03922161 -0.39847582 0.29619508
v 0.03876039 -0.39861550 0.29574152
v 0.03934870 -0.39851783 0.29523321
v 0.03878136 -0.39829004 0.29638374
v 0.03826024 -0.39839365 0.29600056
v 0.03774935 -0.39850851 0.29560115
v 0.03819350 -0.39877548 0.29528692
v 0.03881205 -0.39868362 0.29473741
v 0.04035963 -0.39770793 0.29425451
v 0.03970830 -0.39793059 0.29363957
v 0.04002085 -0.39705004 0.29293428
v 0.04077452 -0.39673066 0.29367196
v 0.04127605 -0.39637275 0.29445858
v 0.04087775 -0.39742948 0.29498395
v 0.03965068 -0.39845876 0.29504089
v 0.03909960 -0.39862584 0.29452371
v 0.03933478 -0.39856747 0.29422975
v 0.03990545 -0.39835621 0.29478740
v 0.04042928 -0.39812102 0.29541851
v 0.04014539 -0.39827040 0.29564581
v 0.04035988 -0.39802881 0.29902353
v 0.03992931 -0.39815815 0.29805419
v 0.04034938 -0.39822742 0.29790833
v 0.04079808 -0.39804318 0.29890293
v 0.04095926 -0.39808940 0.29769932
v 0.04143064 -0.39792697 0.29882411
v 0.03627526 -0.39903946 0.29471280
v 0.03662861 -0.39936654 0.29428564
v 0.03762237 -0.39908937 0.29488285
v 0.03720081 -0.39882033 0.29523031
v 0.03710704 -0.39943772 0.29365554
v 0.03815577 -0.39913447 0.29432729
v 0.03450558 -0.39988113 0.29340153
v 0.03487329 -0.39998797 0.29264963
v 0.03610165 -0.39969605 0.29313339
v 0.03569809 -0.39961355 0.29384251
v 0.03415664 -0.39952808 0.29389649
v 0.03535719 -0.39928700 0.29431831
v 0.02953868 -0.40044924 0.29380588
v 0.02959638 -0.40086170 0.29323002
v 0.03114700 -0.40057172 0.29301659
v 0.03105030 -0.40017172 0.29357336
v 0.03258765 -0.39987154 0.29361098
v 0.03279733 -0.40025079 0.29306922
v 0.03371097 -0.40006439 0.29322911
v 0.03342214 -0.39969131 0.29376333
v 0.02966115 -0.40111743 0.29243085
v 0.03122931 -0.40076965 0.29225379
v 0.03302963 -0.40039351 0.29226608
v 0.03401743 -0.40018169 0.29244406
v 0.03431598 -0.39956845 0.29090086
v 0.03325686 -0.39982737 0.29069402
v 0.03334483 -0.39925622 0.28982644
v 0.03436756 -0.39896235 0.29001103
v 0.03655261 -0.39905916 0.29165281
v 0.03528288 -0.39933987 0.29111314
v 0.03539409 -0.39868581 0.29021056
v 0.03673234 -0.39832008 0.29074105
v 0.03900732 -0.39833722 0.29303742
v 0.03780840 -0.39870560 0.29225985
v 0.03798702 -0.39796301 0.29138893
v 0.03931821 -0.39752695 0.29227579
v 0.03131827 -0.40030369 0.29061596
v 0.02957575 -0.40070292 0.29087668
v 0.02949843 -0.40017355 0.29006117
v 0.03132446 -0.39977441 0.28976196
v 0.04270540 -0.39655111 0.29863777
v 0.04217140 -0.39683940 0.29727061
v 0.04276583 -0.39554222 0.29705292
v 0.04335372 -0.39515190 0.29861967
v 0.04213596 -0.39745043 0.29872300
v 0.04173781 -0.39768076 0.29875047
v 0.04127267 -0.39786702 0.29754387
v 0.04162713 -0.39766926 0.29744811
v 0.03415598 -0.40007261 0.29201641
v 0.03310148 -0.40031715 0.29183256
v 0.03319863 -0.40028118 0.29142129
v 0.03423238 -0.40004216 0.29164392
v 0.03626831 -0.39956235 0.29275016
v 0.03502324 -0.39987998 0.29225416
v 0.03514975 -0.39983258 0.29183422
v 0.03639452 -0.39953566 0.29233263
v 0.03843294 -0.39899271 0.29401063
v 0.03736286 -0.39928890 0.29329595
v 0.03752746 -0.39922326 0.29293696
v 0.03865846 -0.39891197 0.29366255
v 0.03129943 -0.40074988 0.29177342
v 0.02965846 -0.40109527 0.29194066
v 0.02965924 -0.40109790 0.29159160
v 0.03133401 -0.40072025 0.29137283
v 0.03982871 -0.39862066 0.29587881
v 0.03922360 -0.39865692 0.29623727
v 0.03877443 -0.39878366 0.29577153
v 0.03934148 -0.39879777 0.29535852
v 0.03874835 -0.39845809 0.29645499
v 0.03827211 -0.39858718 0.29604407
v 0.03778034 -0.39868036 0.29562039
v 0.03820890 -0.39893836 0.29531455
v 0.03880582 -0.39895778 0.29486158
v 0.04034101 -0.39785301 0.29430741
v 0.03969960 -0.39807997 0.29369078
v 0.04002841 -0.39721823 0.29296855
v 0.04078239 -0.39690443 0.29370479
v 0.04128265 -0.39654934 0.29448846
v 0.04085562 -0.39758165 0.29503275
v 0.03966065 -0.39861816 0.29507162
v 0.03910986 -0.39878388 0.29455570
v 0.03934476 -0.39872459 0.29426109
v 0.03991788 -0.39851685 0.29481825
v 0.04044192 -0.39828700 0.29544793
v 0.04015996 -0.39843680 0.29567383
v 0.02799329 -0.40369315 0.29636463
v 0.02820552 -0.40424871 0.29551869
v 0.02678009 -0.40333540 0.29498887
v 0.02664047 -0.40272992 0.29587965
v 0.02684182 -0.40361069 0.29467680
v 0.02821625 -0.40457483 0.29521196
v 0.03367788 -0.40553456 0.29798153
v 0.03395929 -0.40612948 0.29723586
v 0.03187084 -0.40601220 0.29669282
v 0.03167211 -0.40544953 0.29745811
v 0.03195449 -0.40628004 0.29636148
v 0.03412518 -0.40641431 0.29692583
v 0.03214666 -0.40756465 0.29579760
v 0.03211797 -0.40709268 0.29592145
v 0.03431846 -0.40723221 0.29657470
v 0.03444394 -0.40770686 0.29641149
v 0.03565552 -0.40656127 0.29707398
v 0.03576621 -0.40700370 0.29693715
v 0.03421550 -0.40680898 0.29671171
v 0.02825163 -0.40497660 0.29488784
v 0.02826631 -0.40540968 0.29473891
v 0.02693955 -0.40456033 0.29425963
v 0.02688629 -0.40404802 0.29445280
v 0.03546556 -0.40614613 0.29729033
v 0.04224084 -0.39849496 0.29967532
v 0.04203283 -0.39950697 0.29948183
v 0.04152192 -0.39940550 0.29951153
v 0.04168796 -0.39852372 0.29966684
v 0.04050737 -0.39892886 0.29990307
v 0.04052645 -0.39937977 0.29982363
v 0.04541073 -0.39932436 0.30118190
v 0.04506533 -0.40075698 0.30085911
v 0.04393140 -0.40015529 0.30004880
v 0.04429900 -0.39884621 0.30034521
v 0.04331897 -0.39990842 0.29979174
v 0.04367217 -0.39868751 0.30011382
v 0.04269655 -0.39964791 0.29960354
v 0.04295919 -0.39850826 0.29983868
v 0.04218732 -0.40375971 0.29905442
v 0.04296834 -0.40458302 0.29962882
v 0.04195597 -0.40565288 0.29911915
v 0.04124820 -0.40463842 0.29865588
v 0.04163492 -0.40326146 0.29889588
v 0.04086406 -0.40423629 0.29858308
v 0.04279717 -0.40132235 0.29948144
v 0.04227470 -0.40226865 0.29917107
v 0.04169546 -0.40186266 0.29898707
v 0.04217100 -0.40096413 0.29928162
v 0.04110686 -0.40156463 0.29903238
v 0.04154984 -0.40071339 0.29922664
v 0.03594749 -0.40749433 0.29683735
v 0.03611144 -0.40843650 0.29689286
v 0.03463968 -0.40858734 0.29642844
v 0.03718229 -0.40658706 0.29738454
v 0.03736475 -0.40702833 0.29725958
v 0.03699498 -0.40607640 0.29748702
v 0.04062576 -0.40122780 0.29909829
v 0.04107663 -0.40047308 0.29933105
v 0.03500694 -0.40521498 0.29834188
v 0.03622625 -0.40473928 0.29861040
v 0.03661776 -0.40535313 0.29794384
v 0.03534909 -0.40576499 0.29750107
v 0.03680810 -0.40567107 0.29767207
v 0.02795019 -0.40378212 0.29653372
v 0.02809468 -0.40439070 0.29568440
v 0.02672741 -0.40342112 0.29516060
v 0.02659837 -0.40283346 0.29603666
v 0.02681632 -0.40369331 0.29484471
v 0.02821795 -0.40470465 0.29535103
v 0.03366367 -0.40556151 0.29804963
v 0.03394303 -0.40619964 0.29735946
v 0.03180201 -0.40608315 0.29685214
v 0.03162487 -0.40553088 0.29759936
v 0.03189351 -0.40634777 0.29650781
v 0.03408535 -0.40647130 0.29709360
v 0.03209803 -0.40763233 0.29593330
v 0.03203028 -0.40718913 0.29602770
v 0.03427725 -0.40730247 0.29665747
v 0.03441419 -0.40774700 0.29652171
v 0.03561141 -0.40663528 0.29722340
v 0.03572400 -0.40707376 0.29708179
v 0.03415413 -0.40689090 0.29685137
v 0.02832729 -0.40509187 0.29509722
v 0.02838001 -0.40558122 0.29492949
v 0.02691855 -0.40467490 0.29440872
v 0.02685252 -0.40412443 0.29460621
v 0.03541748 -0.40622174 0.29744341
v 0.04220561 -0.39857037 0.29983221
v 0.04201251 -0.39958286 0.29964291
v 0.04144692 -0.39946869 0.29967107
v 0.04160918 -0.39861312 0.29982697
v 0.04041420 -0.39899498 0.30009311
v 0.04045020 -0.39944845 0.30001737
v 0.04539019 -0.39940199 0.30134710
v 0.04503821 -0.40083742 0.30102913
v 0.04389665 -0.40023474 0.30021293
v 0.04426338 -0.39893183 0.30051017
v 0.04328212 -0.39998738 0.29994973
v 0.04363097 -0.39877386 0.30026701
v 0.04266452 -0.39973455 0.29975436
v 0.04293448 -0.39860149 0.29998357
v 0.04238316 -0.40330669 0.29936308
v 0.04327806 -0.40422482 0.29997381
v 0.04207543 -0.40547421 0.29934463
v 0.04139769 -0.40443762 0.29891096
v 0.04295071 -0.40102635 0.29967504
v 0.04355920 -0.40128250 0.29990620
v 0.04305504 -0.40219608 0.29968148
v 0.04249815 -0.40191468 0.29947491
v 0.04189939 -0.40162094 0.29932567
v 0.04232054 -0.40074657 0.29951120
v 0.04132137 -0.40133032 0.29927257
v 0.04173351 -0.40046954 0.29947010
v 0.03590974 -0.40756222 0.29697921
v 0.03608381 -0.40850543 0.29701311
v 0.03458708 -0.40864729 0.29655219
v 0.03714336 -0.40666453 0.29753059
v 0.03732728 -0.40710097 0.29740177
v 0.03695512 -0.40622112 0.29762264
v 0.04083638 -0.40102751 0.29940562
v 0.04122474 -0.40022334 0.29956912
v 0.03502374 -0.40523776 0.29838670
v 0.03618666 -0.40476225 0.29871429
v 0.03657177 -0.40544844 0.29806149
v 0.03530315 -0.40584622 0.29765673
v 0.03676538 -0.40575269 0.29782668
v 0.03229098 -0.40843820 0.29579366
v 0.03014771 -0.40775500 0.29522089
v 0.03004748 -0.40690038 0.29516240
v 0.03002436 -0.40641867 0.29531304
v 0.02997326 -0.40601255 0.29553256
v 0.03201579 -0.40667119 0.29612930
v 0.02998625 -0.40562594 0.29578957
v 0.02993370 -0.40536836 0.29612035
v 0.02987173 -0.40481996 0.29694728
v 0.03224548 -0.40849692 0.29591617
v 0.03010094 -0.40781856 0.29534574
v 0.02998461 -0.40693158 0.29534125
v 0.02998312 -0.40650441 0.29544976
v 0.02999200 -0.40604689 0.29565559
v 0.03195958 -0.40674787 0.29627633
v 0.02992344 -0.40568767 0.29593800
v 0.02986897 -0.40543256 0.29627751
v 0.02984577 -0.40490825 0.29710119
v 0.02831661 -0.40597048 0.29462371
v 0.02698950 -0.40526367 0.29426201
v 0.02842143 -0.40613134 0.29479939
v 0.02695844 -0.40519589 0.29437985
v 0.02840585 -0.40677108 0.29472754
v 0.02702586 -0.40577523 0.29437521
v 0.02840346 -0.40687031 0.29486211
v 0.02699531 -0.40586962 0.29451079
v 0.04630093 -0.39991647 0.30232436
v 0.04595629 -0.40140777 0.30195213
v 0.03248773 -0.40913045 0.29605282
v 0.03029978 -0.40850121 0.29550822
v 0.02852569 -0.40750728 0.29508588
v 0.02711995 -0.40649391 0.29477158
v 0.04628268 -0.40004728 0.30255032
v 0.04592934 -0.40153784 0.30216454
v 0.03242046 -0.40919771 0.29618093
v 0.03026325 -0.40857214 0.29563982
v 0.02845321 -0.40755572 0.29520467
v 0.02709829 -0.40655473 0.29487444
v 0.03917040 -0.39817573 0.29686053
v 0.03966388 -0.39831902 0.29669615
v 0.04027192 -0.39815379 0.29633361
v 0.04056322 -0.39805705 0.29622447
v 0.04086908 -0.39791760 0.29604643
v 0.04137672 -0.39718372 0.29568984
v 0.04186584 -0.39603055 0.29528420
v 0.03917060 -0.39837019 0.29691417
v 0.03966586 -0.39850379 0.29674080
v 0.04026134 -0.39843317 0.29644880
v 0.04057602 -0.39822694 0.29625456
v 0.04088644 -0.39808883 0.29607713
v 0.04135193 -0.39733794 0.29574099
v 0.04187238 -0.39620531 0.29531038
v 0.02764030 -0.40043710 0.29415395
v 0.02768028 -0.40084225 0.29353699
v 0.02778566 -0.40105111 0.29262307
v 0.02776920 -0.40111687 0.29225108
v 0.02772164 -0.40113990 0.29190273
v 0.02755556 -0.40089175 0.29126328
v 0.02749025 -0.40039114 0.29060441
v 0.02765297 -0.40061303 0.29420210
v 0.02776401 -0.40098962 0.29356412
v 0.02776197 -0.40126451 0.29275416
v 0.02776279 -0.40129921 0.29229928
v 0.02771988 -0.40132119 0.29194915
v 0.02764893 -0.40101563 0.29135288
v 0.02750031 -0.40057321 0.29064696
v 0.03765341 -0.40802768 0.29749774
v 0.03472453 -0.40937008 0.29686541
v 0.03618493 -0.40918132 0.29731751
v 0.03767438 -0.40795816 0.29738282
v 0.03483016 -0.40927970 0.29673897
v 0.03621065 -0.40909526 0.29717205
v 0.03787013 -0.40879114 0.29790156
v 0.03939512 -0.40731175 0.29812463
v 0.03964332 -0.40814983 0.29860883
v 0.03785590 -0.40871722 0.29773876
v 0.03942329 -0.40724463 0.29799102
v 0.03972737 -0.40803473 0.29847851
v 0.04119046 -0.40731273 0.29930508
v 0.04088088 -0.40640355 0.29876688
v 0.04247565 -0.40648599 0.29992572
v 0.04027093 -0.40543494 0.29844683
v 0.03997986 -0.40499068 0.29843915
v 0.04105269 -0.40401001 0.29884314
v 0.03961530 -0.40446778 0.29845427
v 0.04062955 -0.40352250 0.29881627
v 0.03926583 -0.40409537 0.29856771
v 0.04025121 -0.40310152 0.29885589
v 0.03892693 -0.40376718 0.29876024
v 0.03984191 -0.40272541 0.29903188
v 0.03839941 -0.40316318 0.29933751
v 0.03918274 -0.40217355 0.29956459
v 0.04124546 -0.40719965 0.29916687
v 0.04091145 -0.40633452 0.29862490
v 0.04233874 -0.40653138 0.29968473
v 0.04002011 -0.40491487 0.29828610
v 0.03964769 -0.40437864 0.29830629
v 0.04040469 -0.40374951 0.29861241
v 0.03928814 -0.40401473 0.29840794
v 0.04001601 -0.40332946 0.29861268
v 0.03894032 -0.40366648 0.29858201
v 0.03963991 -0.40298226 0.29882312
v 0.03838637 -0.40310419 0.29918061
v 0.03898487 -0.40250040 0.29938850
v 0.03892308 -0.40639545 0.29793288
v 0.03864866 -0.40593535 0.29795373
v 0.03837677 -0.40547371 0.29806171
v 0.03809559 -0.40504940 0.29821343
v 0.03783994 -0.40475246 0.29845908
v 0.03739513 -0.40415504 0.29905285
v 0.03895917 -0.40632015 0.29778576
v 0.04030899 -0.40535944 0.29829127
v 0.03865251 -0.40580083 0.29786080
v 0.03841132 -0.40538305 0.29791594
v 0.03813668 -0.40496284 0.29805976
v 0.03788019 -0.40467028 0.29830230
v 0.03740863 -0.40406843 0.29891308
v 0.04391980 -0.40517569 0.30074325
v 0.04411499 -0.40302909 0.30040762
v 0.04482952 -0.40384629 0.30133798
v 0.04354932 -0.40544427 0.30037178
v 0.04380155 -0.40349829 0.30008934
v 0.04440680 -0.40439668 0.30090074
v 0.04337126 -0.40162451 0.29963851
v 0.04445466 -0.40236637 0.30041882
v 0.04293642 -0.40276030 0.29945027
v 0.04470643 -0.40199996 0.30072888
v 0.04002794 -0.40070431 0.29986129
v 0.04031682 -0.40000784 0.29996570
v 0.03995616 -0.40095851 0.29968582
v 0.04023746 -0.40019036 0.29973728
v 0.04518609 -0.40325678 0.30140959
v 0.04542381 -0.40275622 0.30173884
v 0.04109588 -0.40281311 0.29873963
v 0.04058218 -0.40246896 0.29882849
v 0.04010330 -0.40210430 0.29892521
v 0.04190244 -0.40285605 0.29916283
v 0.04142766 -0.40251250 0.29907377
v 0.04086625 -0.40214360 0.29907038
v 0.04041891 -0.40186322 0.29920314
v 0.03964441 -0.40138094 0.29971819
v 0.03940150 -0.40165258 0.29941540
v -0.01094970 -0.40637279 0.28785209
v -0.01125616 -0.40651026 0.28756959
v -0.01041700 -0.40647995 0.28684114
v -0.01013959 -0.40629117 0.28713648
v -0.01184657 -0.40648951 0.28717545
v -0.01091241 -0.40644115 0.28632771
v -0.00532016 -0.40576727 0.28559120
v -0.00643575 -0.40588917 0.28569869
v -0.00657521 -0.40627208 0.28524184
v -0.00539143 -0.40618207 0.28511381
v -0.00679471 -0.40634689 0.28443383
v -0.00552306 -0.40625369 0.28426050
v -0.00304058 -0.40595019 0.28519344
v -0.00433214 -0.40609719 0.28509578
v -0.00436449 -0.40615583 0.28420548
v -0.00301534 -0.40602528 0.28427890
v -0.00304475 -0.40553372 0.28576146
v -0.00432775 -0.40570681 0.28564082
v 0.00124537 -0.40497408 0.28760391
v -0.00005177 -0.40516979 0.28680632
v 0.00021041 -0.40555596 0.28628186
v 0.00155590 -0.40535637 0.28708491
v -0.00147687 -0.40534137 0.28614258
v -0.00230935 -0.40544689 0.28594671
v -0.00223171 -0.40586746 0.28536881
v -0.00132681 -0.40574152 0.28559556
v 0.00051618 -0.40566655 0.28545408
v 0.00189747 -0.40548468 0.28625971
v -0.00213742 -0.40593267 0.28444912
v -0.00115237 -0.40582429 0.28469808
v -0.00195549 -0.40546106 0.28295310
v -0.00183555 -0.40481180 0.28211056
v -0.00079119 -0.40475246 0.28236871
v -0.00088509 -0.40536914 0.28319784
v -0.00434938 -0.40571220 0.28270427
v -0.00436779 -0.40497949 0.28177075
v -0.00288329 -0.40487752 0.28185760
v -0.00294410 -0.40555977 0.28274004
v -0.00725117 -0.40589056 0.28293193
v -0.00746083 -0.40513852 0.28208234
v -0.00581947 -0.40507002 0.28183482
v -0.00578914 -0.40581597 0.28272474
v 0.00096373 -0.40521045 0.28394466
v 0.00112741 -0.40461486 0.28316205
v 0.00270345 -0.40445686 0.28420168
v 0.00249091 -0.40507484 0.28491204
v -0.01335677 -0.40572811 0.28645261
v -0.01426746 -0.40453104 0.28608815
v -0.01299448 -0.40462556 0.28492011
v -0.01217156 -0.40571980 0.28541727
v -0.01251232 -0.40635482 0.28682593
v -0.01148909 -0.40632881 0.28588699
v -0.01116369 -0.40641555 0.28612880
v -0.01211456 -0.40645348 0.28703233
v -0.00212167 -0.40593507 0.28409673
v -0.00204614 -0.40590884 0.28372586
v -0.00099778 -0.40579323 0.28395146
v -0.00107431 -0.40582117 0.28436398
v -0.00439550 -0.40616445 0.28387954
v -0.00434216 -0.40615088 0.28344988
v -0.00297897 -0.40600861 0.28351528
v -0.00302319 -0.40604017 0.28394965
v -0.00694401 -0.40638907 0.28412433
v -0.00702060 -0.40635604 0.28371019
v -0.00565866 -0.40624963 0.28352423
v -0.00563924 -0.40628277 0.28392271
v 0.00064227 -0.40569067 0.28507463
v 0.00075542 -0.40564740 0.28469887
v 0.00222722 -0.40548817 0.28558990
v 0.00208859 -0.40551065 0.28590701
v -0.00903461 -0.40646959 0.28514757
v -0.00834450 -0.40645018 0.28487209
v -0.00801343 -0.40639481 0.28558002
v -0.00863696 -0.40643516 0.28579765
v -0.00775634 -0.40604692 0.28600355
v -0.00839177 -0.40613527 0.28613504
v -0.00711960 -0.40597089 0.28585350
v -0.00729224 -0.40634060 0.28540536
v -0.00763090 -0.40640772 0.28464773
v -0.00906967 -0.40592831 0.28351575
v -0.00949373 -0.40509087 0.28275116
v -0.00844796 -0.40511152 0.28240480
v -0.00819159 -0.40589694 0.28323328
v -0.01035409 -0.40495940 0.28324183
v -0.00989666 -0.40587381 0.28395312
v -0.00854493 -0.40647422 0.28457013
v -0.00869351 -0.40643823 0.28422878
v -0.00791157 -0.40642540 0.28396569
v -0.00780991 -0.40642756 0.28433263
v -0.00947226 -0.40642031 0.28457730
v -0.00927360 -0.40648947 0.28490954
v -0.01089838 -0.40655378 0.28788767
v -0.01122243 -0.40669515 0.28760177
v -0.01037709 -0.40666385 0.28688796
v -0.01009598 -0.40647845 0.28718660
v -0.01177095 -0.40677461 0.28726567
v -0.01086027 -0.40670759 0.28644152
v -0.00532741 -0.40595875 0.28567476
v -0.00640104 -0.40607275 0.28575847
v -0.00654017 -0.40643399 0.28528841
v -0.00535765 -0.40634966 0.28516435
v -0.00676075 -0.40660442 0.28456897
v -0.00549271 -0.40652272 0.28440087
v -0.00301372 -0.40612120 0.28525059
v -0.00430118 -0.40626628 0.28515296
v -0.00433634 -0.40642122 0.28434814
v -0.00299317 -0.40628582 0.28442321
v -0.00302270 -0.40571183 0.28581958
v -0.00430114 -0.40588300 0.28570272
v 0.00127373 -0.40515031 0.28766549
v -0.00001926 -0.40533948 0.28682393
v 0.00024638 -0.40571035 0.28630307
v 0.00158449 -0.40552037 0.28714439
v -0.00145055 -0.40553252 0.28621619
v -0.00228615 -0.40563020 0.28600582
v -0.00220339 -0.40603746 0.28542679
v -0.00129465 -0.40592038 0.28566242
v 0.00054515 -0.40587267 0.28558756
v 0.00193092 -0.40572931 0.28640650
v -0.00211348 -0.40619027 0.28459428
v -0.00112579 -0.40607436 0.28484611
v -0.00193643 -0.40559814 0.28302550
v -0.00180866 -0.40497928 0.28215204
v -0.00076283 -0.40492889 0.28241668
v -0.00086107 -0.40550168 0.28328196
v -0.00432307 -0.40585730 0.28277255
v -0.00433791 -0.40515072 0.28181865
v -0.00285843 -0.40504754 0.28190007
v -0.00292520 -0.40569454 0.28281264
v -0.00721899 -0.40602559 0.28299502
v -0.00742945 -0.40530204 0.28212011
v -0.00579022 -0.40524389 0.28187852
v -0.00575875 -0.40595132 0.28279477
v 0.00098647 -0.40534814 0.28402624
v 0.00116256 -0.40479049 0.28320914
v 0.00273681 -0.40462428 0.28424718
v 0.00250443 -0.40520528 0.28499540
v -0.01321859 -0.40585233 0.28648851
v -0.01420226 -0.40472416 0.28611557
v -0.01294217 -0.40480738 0.28495061
v -0.01211712 -0.40586871 0.28547684
v -0.01248462 -0.40653471 0.28685682
v -0.01146357 -0.40649938 0.28591454
v -0.01113601 -0.40658329 0.28615826
v -0.01208178 -0.40663115 0.28705780
v -0.00209363 -0.40610079 0.28414072
v -0.00201823 -0.40607115 0.28376856
v -0.00096450 -0.40596286 0.28399930
v -0.00103599 -0.40599435 0.28441596
v -0.00436625 -0.40632050 0.28392244
v -0.00431438 -0.40630651 0.28348909
v -0.00294962 -0.40616881 0.28355704
v -0.00299579 -0.40620311 0.28399457
v -0.00691518 -0.40653443 0.28415856
v -0.00699357 -0.40650452 0.28374471
v -0.00563047 -0.40640039 0.28356055
v -0.00561358 -0.40643620 0.28395912
v 0.00067286 -0.40584300 0.28511949
v 0.00079586 -0.40579923 0.28473846
v 0.00226580 -0.40565308 0.28563978
v 0.00212456 -0.40567454 0.28595891
v -0.00898682 -0.40674017 0.28527415
v -0.00830234 -0.40672171 0.28500794
v -0.00798563 -0.40656056 0.28561302
v -0.00859969 -0.40661024 0.28584740
v -0.00772424 -0.40623686 0.28605129
v -0.00834017 -0.40628952 0.28622494
v -0.00710083 -0.40614495 0.28587017
v -0.00726626 -0.40650179 0.28543536
v -0.00759092 -0.40667365 0.28478156
v -0.00903012 -0.40606362 0.28358111
v -0.00945997 -0.40526037 0.28278958
v -0.00841627 -0.40527534 0.28244400
v -0.00815854 -0.40603913 0.28329341
v -0.01031721 -0.40513077 0.28327808
v -0.00985021 -0.40601474 0.28401690
v -0.00851668 -0.40663064 0.28460507
v -0.00866700 -0.40659677 0.28426284
v -0.00788418 -0.40657949 0.28400054
v -0.00778277 -0.40658277 0.28436831
v -0.00944368 -0.40658341 0.28461003
v -0.00924599 -0.40665378 0.28494044
v 0.00257378 -0.40791803 0.29083728
v 0.00363480 -0.40654657 0.29087231
v 0.00406282 -0.40710648 0.29004613
v 0.00290463 -0.40845689 0.29002232
v 0.00422131 -0.40737308 0.28976246
v 0.00312028 -0.40874862 0.28975989
v -0.00240273 -0.41152445 0.29013386
v -0.00049124 -0.41079023 0.29046220
v -0.00017789 -0.41133874 0.28972586
v -0.00215844 -0.41213263 0.28938534
v -0.00003256 -0.41159954 0.28941260
v -0.00208806 -0.41243660 0.28905903
v 0.00042755 -0.41284215 0.28890911
v -0.00175515 -0.41373059 0.28855202
v -0.00185964 -0.41325107 0.28871762
v 0.00025438 -0.41239192 0.28899905
v -0.00342077 -0.41306175 0.28858638
v -0.00195730 -0.41282478 0.28885280
v -0.00332407 -0.41350750 0.28844828
v 0.00334518 -0.40911926 0.28947721
v 0.00440885 -0.40778587 0.28956927
v 0.00459962 -0.40827583 0.28940638
v 0.00352676 -0.40952431 0.28936443
v -0.00347287 -0.41262183 0.28883066
v -0.01264549 -0.40762268 0.28775129
v -0.01215018 -0.40747559 0.28798264
v -0.01166953 -0.40824217 0.28795866
v -0.01207496 -0.40850358 0.28772704
v -0.01110023 -0.40750385 0.28868088
v -0.01094507 -0.40793250 0.28863114
v -0.01573361 -0.40949497 0.28790032
v -0.01458935 -0.40864285 0.28755792
v -0.01374723 -0.40975003 0.28752205
v -0.01486043 -0.41072819 0.28784568
v -0.01400216 -0.40828041 0.28758956
v -0.01318878 -0.40930609 0.28751705
v -0.01333060 -0.40786850 0.28761102
v -0.01265526 -0.40885093 0.28757609
v -0.01071029 -0.41255773 0.28756280
v -0.00947868 -0.41307985 0.28764155
v -0.00996077 -0.41429470 0.28784710
v -0.01137020 -0.41362577 0.28782872
v -0.01032497 -0.41190298 0.28760761
v -0.00924125 -0.41257266 0.28770125
v -0.01217556 -0.41046678 0.28754186
v -0.01166308 -0.40991645 0.28758445
v -0.01084679 -0.41060153 0.28757256
v -0.01129413 -0.41117823 0.28753371
v -0.01118071 -0.40948246 0.28777037
v -0.01045078 -0.41013989 0.28783204
v -0.00328844 -0.41402359 0.28831904
v -0.00165770 -0.41462614 0.28854471
v -0.00316000 -0.41496993 0.28836360
v -0.00482481 -0.41405005 0.28810103
v -0.00485388 -0.41358200 0.28825686
v -0.00489185 -0.41304438 0.28838903
v -0.01088745 -0.40911426 0.28804017
v -0.01016754 -0.40967550 0.28806351
v -0.00379119 -0.41165449 0.28990209
v -0.00357552 -0.41223539 0.28904111
v -0.00497470 -0.41226815 0.28890508
v -0.00509570 -0.41160076 0.28962356
v -0.00493095 -0.41261260 0.28860404
v 0.00256925 -0.40800597 0.29102465
v 0.00364163 -0.40666039 0.29105768
v 0.00406526 -0.40719723 0.29024565
v 0.00297678 -0.40857470 0.29023449
v 0.00420078 -0.40745440 0.28993159
v 0.00310089 -0.40888306 0.28989479
v -0.00241132 -0.41156114 0.29021275
v -0.00048302 -0.41087964 0.29063255
v -0.00016324 -0.41140344 0.28991252
v -0.00217580 -0.41220976 0.28951626
v -0.00002166 -0.41165660 0.28957444
v -0.00210626 -0.41249134 0.28923072
v 0.00043207 -0.41289694 0.28905200
v -0.00176258 -0.41376016 0.28865768
v -0.00183763 -0.41330720 0.28880920
v 0.00031676 -0.41246376 0.28913821
v -0.00342033 -0.41312558 0.28874251
v -0.00193749 -0.41289419 0.28901157
v -0.00332410 -0.41356501 0.28859506
v 0.00323106 -0.40926533 0.28964480
v 0.00439751 -0.40785842 0.28972771
v 0.00459289 -0.40838767 0.28955827
v 0.00340496 -0.40973509 0.28950375
v -0.00347066 -0.41268989 0.28899515
v -0.01263773 -0.40769315 0.28791852
v -0.01211036 -0.40754635 0.28815444
v -0.01164587 -0.40830425 0.28814238
v -0.01208169 -0.40858166 0.28789105
v -0.01108074 -0.40756706 0.28891608
v -0.01094071 -0.40800334 0.28886310
v -0.01572599 -0.40956386 0.28806681
v -0.01456355 -0.40871691 0.28772245
v -0.01372399 -0.40982093 0.28769172
v -0.01485269 -0.41079419 0.28801354
v -0.01397019 -0.40835301 0.28774818
v -0.01316742 -0.40937575 0.28768435
v -0.01331154 -0.40795676 0.28776027
v -0.01264085 -0.40894023 0.28773825
v -0.01112988 -0.41220238 0.28773162
v -0.00975290 -0.41294036 0.28779341
v -0.01019079 -0.41415882 0.28798254
v -0.01186581 -0.41339088 0.28798913
v -0.01244978 -0.41023933 0.28763649
v -0.01170639 -0.41092827 0.28769619
v -0.01217771 -0.41137778 0.28767596
v -0.01298352 -0.41068243 0.28761667
v -0.01193083 -0.40977126 0.28772671
v -0.01122496 -0.41045801 0.28778670
v -0.01149801 -0.40932393 0.28790609
v -0.01079846 -0.41000118 0.28795078
v -0.00329076 -0.41407790 0.28845721
v -0.00164549 -0.41467106 0.28867858
v -0.00316288 -0.41503131 0.28848483
v -0.00482285 -0.41410626 0.28823791
v -0.00485262 -0.41364527 0.28840245
v -0.00486529 -0.41317448 0.28853516
v -0.01117950 -0.40894115 0.28818687
v -0.01053175 -0.40957381 0.28825016
v -0.00381756 -0.41169820 0.28994821
v -0.00357494 -0.41231558 0.28921424
v -0.00495283 -0.41235817 0.28904421
v -0.00509901 -0.41164035 0.28975541
v -0.00492967 -0.41268751 0.28876834
v 0.00228382 -0.41151796 0.28913091
v 0.00244219 -0.41236990 0.28920304
v 0.00057478 -0.41371663 0.28890479
v 0.00209374 -0.41106403 0.28924527
v 0.00192464 -0.41067586 0.28943690
v 0.00012946 -0.41197297 0.28920022
v 0.00169038 -0.41033096 0.28964275
v 0.00152038 -0.41008728 0.28994052
v 0.00107036 -0.40960805 0.29068575
v 0.00227268 -0.41153886 0.28932012
v 0.00244378 -0.41241145 0.28933607
v 0.00057964 -0.41375933 0.28903477
v 0.00210051 -0.41114228 0.28939284
v 0.00186808 -0.41072442 0.28954580
v 0.00013892 -0.41204188 0.28936581
v 0.00169993 -0.41038342 0.28980674
v 0.00153322 -0.41015282 0.29012849
v 0.00105706 -0.40969979 0.29085149
v 0.00477411 -0.40896258 0.28943635
v 0.00370359 -0.41006349 0.28927624
v 0.00473147 -0.40889286 0.28955127
v 0.00359216 -0.41026109 0.28940546
v 0.00486789 -0.40946781 0.28956264
v 0.00383253 -0.41085799 0.28938911
v 0.00484247 -0.40954680 0.28969761
v 0.00381091 -0.41096000 0.28951914
v -0.01676211 -0.41040464 0.28862398
v -0.01585595 -0.41168445 0.28852451
v 0.00242292 -0.41313662 0.28945174
v 0.00051455 -0.41444749 0.28910640
v 0.00483550 -0.41019994 0.28992994
v 0.00381226 -0.41161830 0.28971735
v -0.01679060 -0.41053387 0.28884357
v -0.01587644 -0.41182403 0.28874412
v 0.00242167 -0.41320278 0.28959084
v 0.00053975 -0.41450054 0.28925509
v 0.00483182 -0.41025745 0.29003680
v 0.00384288 -0.41164772 0.28985834
v -0.00926872 -0.40645732 0.28606570
v -0.00895477 -0.40617933 0.28640511
v -0.00969659 -0.40646454 0.28547819
v -0.00993318 -0.40645583 0.28525453
v -0.01016763 -0.40640572 0.28495870
v -0.01130139 -0.40487276 0.28373348
v -0.01068749 -0.40584303 0.28437911
v -0.00923129 -0.40663615 0.28611796
v -0.00891645 -0.40636766 0.28646722
v -0.00964761 -0.40673375 0.28560605
v -0.00990380 -0.40662275 0.28528819
v -0.01014115 -0.40657555 0.28499078
v -0.01126353 -0.40504269 0.28376673
v -0.01063911 -0.40598457 0.28444575
v 0.00276321 -0.40457446 0.28874945
v 0.00310358 -0.40492953 0.28819761
v 0.00344696 -0.40509912 0.28733562
v 0.00363183 -0.40513134 0.28700742
v 0.00382073 -0.40511496 0.28671027
v 0.00414536 -0.40478526 0.28617750
v 0.00431301 -0.40424539 0.28556883
v 0.00278728 -0.40474868 0.28880017
v 0.00306616 -0.40509719 0.28819839
v 0.00348038 -0.40530256 0.28747878
v 0.00367429 -0.40530538 0.28706602
v 0.00385955 -0.40528911 0.28676524
v 0.00406713 -0.40493752 0.28622972
v 0.00434349 -0.40442431 0.28561596
v -0.00485562 -0.41509347 0.28825850
v -0.00166630 -0.41542084 0.28895852
v -0.00316397 -0.41572595 0.28876919
v -0.00485329 -0.41503558 0.28814819
v -0.00173366 -0.41536206 0.28879607
v -0.00315411 -0.41564212 0.28862004
v -0.00497104 -0.41591679 0.28859456
v -0.00698139 -0.41590401 0.28847938
v -0.00682668 -0.41499033 0.28807503
v -0.00491660 -0.41583065 0.28844648
v -0.00703779 -0.41581287 0.28831929
v -0.00682832 -0.41494577 0.28795071
v -0.00885383 -0.41563594 0.28843309
v -0.01046647 -0.41529127 0.28842385
v -0.00864386 -0.41463245 0.28800100
v -0.00828860 -0.41350532 0.28788963
v -0.00956272 -0.41242587 0.28784473
v -0.00817425 -0.41299565 0.28797322
v -0.00934100 -0.41183447 0.28796246
v -0.00803061 -0.41239205 0.28810416
v -0.00916283 -0.41132194 0.28812082
v -0.00789161 -0.41194010 0.28832278
v -0.00900169 -0.41085616 0.28842998
v -0.00778175 -0.41154160 0.28861984
v -0.00882504 -0.41017241 0.28914946
v -0.00775120 -0.41085104 0.28932298
v -0.00888083 -0.41553604 0.28827689
v -0.01023804 -0.41527543 0.28826252
v -0.00864931 -0.41458433 0.28786386
v -0.00818351 -0.41293575 0.28781884
v -0.00900586 -0.41196582 0.28787577
v -0.00803470 -0.41230870 0.28794634
v -0.00880008 -0.41144599 0.28800724
v -0.00787822 -0.41185789 0.28816130
v -0.00866559 -0.41100961 0.28832029
v -0.00775449 -0.41142651 0.28843053
v -0.00847508 -0.41037966 0.28906403
v -0.00769058 -0.41075525 0.28915899
v -0.00662657 -0.41396431 0.28802868
v -0.00654254 -0.41344633 0.28813018
v -0.00649601 -0.41293492 0.28831143
v -0.00644743 -0.41245860 0.28853696
v -0.00641947 -0.41211695 0.28884729
v -0.00646343 -0.41145634 0.28953100
v -0.00829840 -0.41344926 0.28773914
v -0.00663182 -0.41390923 0.28788975
v -0.00655748 -0.41332505 0.28804493
v -0.00650057 -0.41285496 0.28816137
v -0.00645155 -0.41237854 0.28837308
v -0.00641853 -0.41203513 0.28867576
v -0.00644381 -0.41135526 0.28938030
v -0.01244345 -0.41455169 0.28849760
v -0.01387884 -0.41361157 0.28858287
v -0.01313536 -0.41253953 0.28796569
v -0.01189540 -0.41466480 0.28832697
v -0.01317195 -0.41397078 0.28839218
v -0.01259892 -0.41287828 0.28783611
v -0.01262622 -0.41093777 0.28747320
v -0.01182441 -0.41186786 0.28755367
v -0.01364455 -0.41202861 0.28779640
v -0.01408710 -0.41177245 0.28795033
v -0.01063244 -0.40848933 0.28890671
v -0.01012664 -0.40905616 0.28897748
v -0.01041015 -0.40860564 0.28872296
v -0.00990865 -0.40924020 0.28883953
v -0.01440073 -0.41316499 0.28846444
v -0.01488924 -0.41278975 0.28863503
v -0.00993661 -0.41130062 0.28765301
v -0.00963688 -0.41082119 0.28791859
v -0.00937660 -0.41033304 0.28817538
v -0.01077874 -0.41161634 0.28771635
v -0.01044325 -0.41114072 0.28780730
v -0.01007499 -0.41061862 0.28800412
v -0.00983396 -0.41022830 0.28829528
v -0.00952982 -0.40957360 0.28904988
v -0.00911223 -0.40971906 0.28887611
vt 0.88678300 0.57152200
vt 0.86868900 0.59306002
vt 0.88047802 0.59797502
vt 0.89564198 0.57771611
vt 0.89399898 0.61014199
vt 0.91128898 0.58885694
vt 0.74651098 0.66570210
vt 0.74906600 0.67705107
vt 0.77525800 0.66916299
vt 0.77229297 0.65946507
vt 0.75244302 0.69287992
vt 0.78053302 0.68488693
vt 0.69395500 0.68402004
vt 0.69522798 0.70030499
vt 0.72311097 0.69856811
vt 0.72080302 0.68219209
vt 0.69369000 0.67317796
vt 0.71919900 0.67217708
vt 0.58998001 0.66011906
vt 0.58453500 0.66768193
vt 0.60997999 0.67367697
vt 0.61171502 0.66494012
vt 0.63745201 0.66948605
vt 0.63616502 0.67860603
vt 0.66386902 0.68281507
vt 0.66385698 0.67351007
vt 0.57902098 0.68023801
vt 0.60748303 0.68810892
vt 0.63533503 0.69418907
vt 0.66370302 0.69861102
vt 0.66176599 0.75771499
vt 0.63128901 0.75275397
vt 0.62922603 0.77345204
vt 0.66246599 0.77954793
vt 0.73074698 0.76063490
vt 0.69851899 0.76040506
vt 0.69917101 0.78328490
vt 0.73296702 0.78200412
vt 0.79997700 0.74661303
vt 0.76651502 0.75430989
vt 0.76982898 0.77571797
vt 0.80442899 0.76672792
vt 0.60034502 0.74444199
vt 0.56597501 0.73218489
vt 0.56174803 0.74962592
vt 0.59821999 0.76343894
vt 0.96245497 0.64183211
vt 0.93940598 0.66502190
vt 0.95089298 0.68501902
vt 0.97367400 0.66046095
vt 0.94676900 0.62287998
vt 0.92895800 0.60565400
vt 0.91171700 0.62769198
vt 0.92674702 0.64549589
vt 0.66340601 0.71662498
vt 0.63384902 0.71179199
vt 0.63271803 0.73043299
vt 0.66262698 0.73557401
vt 0.72571701 0.71797609
vt 0.69618702 0.71836901
vt 0.69719797 0.73728299
vt 0.72838998 0.73630190
vt 0.78675699 0.70415211
vt 0.75712103 0.71193695
vt 0.76148599 0.73064590
vt 0.79352099 0.72357106
vt 0.60477799 0.70597696
vt 0.57442099 0.69671893
vt 0.57026601 0.71349812
vt 0.60258102 0.72332692
vt 0.85228598 0.64480710
vt 0.84198302 0.63055706
vt 0.82201701 0.64557600
vt 0.83090299 0.66011906
vt 0.83553803 0.62236404
vt 0.81671298 0.63717699
vt 0.79449099 0.64825201
vt 0.79993802 0.65801191
vt 0.80743098 0.67355299
vt 0.86309701 0.71942401
vt 0.83242500 0.73315811
vt 0.83957100 0.75425506
vt 0.87192100 0.73959804
vt 0.90023899 0.72280097
vt 0.88987601 0.70169711
vt 0.84194499 0.67855000
vt 0.81587499 0.69209504
vt 0.82426500 0.71197796
vt 0.85292703 0.69751596
vt 0.87932402 0.68264794
vt 0.86559600 0.66252208
vt 0.89194000 0.76091003
vt 0.87405199 0.77764201
vt 0.88344502 0.78560805
vt 0.89946198 0.76616096
vt 0.89612299 0.79971790
vt 0.91463703 0.77970695
vt 0.74324298 0.84434795
vt 0.74524099 0.85609293
vt 0.77295297 0.84939408
vt 0.77036899 0.83954000
vt 0.74815500 0.87236094
vt 0.77682501 0.86571789
vt 0.68928897 0.85884500
vt 0.68898499 0.87521100
vt 0.71748102 0.87551308
vt 0.71616602 0.85903001
vt 0.68978000 0.84777093
vt 0.71574497 0.84866095
vt 0.58481002 0.82769704
vt 0.57986802 0.83432102
vt 0.60434097 0.84254193
vt 0.60744399 0.83409190
vt 0.63336402 0.84030104
vt 0.63136297 0.84976196
vt 0.65881997 0.85506797
vt 0.65936702 0.84580302
vt 0.57373899 0.84693098
vt 0.60163802 0.85684299
vt 0.62919301 0.86462998
vt 0.65772402 0.87116790
vt 0.65184802 0.92901301
vt 0.62094402 0.92120409
vt 0.61855203 0.94270802
vt 0.65075999 0.95069504
vt 0.72090900 0.93646312
vt 0.68783402 0.93420696
vt 0.68750900 0.95697308
vt 0.72145498 0.95812607
vt 0.79108000 0.92655993
vt 0.75651300 0.93291402
vt 0.75859201 0.95455694
vt 0.79440302 0.94817400
vt 0.59081697 0.91141009
vt 0.55772400 0.89660501
vt 0.55291200 0.91363907
vt 0.58717299 0.92970800
vt 0.96196800 0.83361793
vt 0.93697703 0.85573101
vt 0.94717401 0.87602592
vt 0.97194302 0.85367990
vt 0.94788897 0.81360102
vt 0.93217099 0.79593992
vt 0.91135699 0.81808400
vt 0.92481297 0.83454394
vt 0.65550101 0.88995600
vt 0.62671298 0.88258600
vt 0.62398702 0.89881110
vt 0.65425098 0.90633392
vt 0.71899599 0.89493608
vt 0.68864000 0.89369011
vt 0.68876398 0.91051006
vt 0.72031301 0.91233206
vt 0.78221297 0.88524604
vt 0.75165498 0.89161706
vt 0.75432497 0.90878701
vt 0.78683603 0.90321398
vt 0.59804100 0.87426400
vt 0.56794202 0.86346793
vt 0.56344497 0.87892890
vt 0.59429598 0.89012408
vt 0.85153198 0.83178210
vt 0.84259301 0.81674409
vt 0.82095498 0.82895708
vt 0.82850099 0.84488201
vt 0.83646101 0.80678606
vt 0.81655800 0.82015800
vt 0.79355198 0.83000493
vt 0.79753298 0.84083891
vt 0.80347401 0.85682201
vt 0.85695601 0.90528703
vt 0.82456100 0.91628003
vt 0.83032298 0.93885493
vt 0.86410803 0.92575908
vt 0.89362502 0.91133595
vt 0.88518298 0.89018607
vt 0.83876598 0.86480808
vt 0.81074101 0.87563801
vt 0.81780100 0.89448810
vt 0.84798598 0.88295102
vt 0.87501001 0.86903501
vt 0.86380500 0.85038805
vt 0.61257797 0.58316803
vt 0.60203397 0.57078195
vt 0.57713401 0.59993005
vt 0.58769798 0.61345601
vt 0.56801999 0.58709502
vt 0.59167397 0.55803108
vt 0.69597000 0.49746799
vt 0.68721902 0.48309588
vt 0.66128498 0.50620890
vt 0.67028201 0.51885605
vt 0.65159702 0.49276710
vt 0.67843300 0.46827507
vt 0.61503398 0.44040799
vt 0.62794203 0.45928693
vt 0.65720397 0.43099403
vt 0.64528900 0.41042399
vt 0.69640601 0.43065596
vt 0.68678898 0.41018510
vt 0.66875899 0.45057201
vt 0.58102900 0.54449105
vt 0.56830400 0.52658391
vt 0.54596901 0.55641508
vt 0.55698103 0.57218695
vt 0.70569003 0.44969201
vt 0.94146901 0.45344591
vt 0.91488999 0.44222498
vt 0.91071099 0.46053600
vt 0.93463200 0.47046304
vt 0.92363697 0.48299098
vt 0.90568298 0.47670603
vt 0.97711003 0.34698606
vt 0.94193101 0.33507490
vt 0.93198401 0.36957192
vt 0.96777302 0.38370609
vt 0.92546600 0.39643002
vt 0.95900202 0.40877891
vt 0.91945100 0.42016196
vt 0.94944602 0.43255711
vt 0.83304298 0.35080194
vt 0.83725601 0.32041502
vt 0.80089700 0.32221889
vt 0.80099797 0.35098410
vt 0.83099300 0.37840509
vt 0.80226803 0.37760401
vt 0.88947201 0.38579798
vt 0.86004800 0.38123107
vt 0.85872197 0.40613198
vt 0.88751298 0.41005898
vt 0.85943198 0.42729211
vt 0.88566202 0.43214512
vt 0.67715198 0.38757992
vt 0.66836798 0.36902404
vt 0.63429898 0.39303303
vt 0.71214199 0.39712000
vt 0.70368600 0.37445092
vt 0.72048801 0.41886401
vt 0.86041301 0.44753003
vt 0.88434798 0.45242500
vt 0.72450203 0.48368192
vt 0.74526501 0.47516799
vt 0.73775601 0.45727396
vt 0.71490300 0.46706700
vt 0.72889900 0.43915892
vt 0.60877103 0.32202101
vt 0.59717500 0.31048393
vt 0.57100201 0.33996201
vt 0.58070600 0.35243702
vt 0.56134099 0.32763410
vt 0.58817703 0.29904008
vt 0.69069397 0.23889494
vt 0.68255198 0.22386408
vt 0.65529001 0.24813795
vt 0.66396201 0.25988197
vt 0.64435202 0.23455000
vt 0.67300802 0.20878506
vt 0.60653698 0.18563199
vt 0.62082303 0.20368791
vt 0.65236402 0.17495894
vt 0.64041603 0.15479708
vt 0.69445199 0.17062902
vt 0.68505001 0.15065289
vt 0.66203201 0.19151807
vt 0.57643801 0.28355503
vt 0.56427801 0.26744795
vt 0.54055101 0.29695296
vt 0.55171502 0.31231809
vt 0.70386398 0.19050097
vt 0.93703097 0.20128989
vt 0.91179299 0.19066310
vt 0.90695298 0.20905900
vt 0.92932200 0.21765590
vt 0.91842300 0.23012710
vt 0.90114999 0.22347498
vt 0.97651601 0.09785104
vt 0.94261199 0.08513403
vt 0.93230498 0.11950588
vt 0.96625501 0.13281989
vt 0.92361498 0.14633799
vt 0.95596498 0.15777802
vt 0.91684401 0.16908407
vt 0.94546002 0.18070292
vt 0.83391201 0.09834099
vt 0.83836102 0.06739593
vt 0.80210602 0.06763101
vt 0.80168700 0.09645605
vt 0.89020699 0.13528991
vt 0.89652002 0.10674596
vt 0.86463797 0.10119605
vt 0.86004603 0.13048196
vt 0.85825998 0.15304995
vt 0.88645798 0.15880704
vt 0.85836601 0.17513204
vt 0.88423699 0.18105602
vt 0.67471999 0.13107300
vt 0.66498798 0.11139894
vt 0.62963498 0.13816810
vt 0.71176201 0.13842392
vt 0.70354497 0.11591411
vt 0.71891803 0.15908003
vt 0.85761899 0.19433689
vt 0.88303298 0.20040202
vt 0.72061801 0.22599411
vt 0.74235499 0.21675396
vt 0.73500901 0.19880509
vt 0.71209300 0.20894694
vt 0.72715199 0.17999291
vt 0.60363001 0.42440510
vt 0.57315898 0.46053004
vt 0.58524603 0.47573400
vt 0.59741998 0.49206710
vt 0.61029202 0.50949907
vt 0.63891703 0.47611594
vt 0.62121499 0.52550006
vt 0.63124800 0.53866792
vt 0.64205903 0.55006289
vt 0.59532499 0.16981506
vt 0.56879199 0.20484304
vt 0.57956600 0.21893597
vt 0.59129798 0.23544407
vt 0.60368901 0.25145507
vt 0.63258803 0.21908498
vt 0.61595702 0.26635695
vt 0.62674201 0.27883291
vt 0.63692600 0.28950095
vt 0.55655998 0.51113391
vt 0.53559297 0.54258394
vt 0.55308199 0.25295091
vt 0.53025699 0.28221202
vt 0.54655701 0.49720097
vt 0.52600902 0.52918196
vt 0.54242498 0.23888898
vt 0.52090502 0.26929808
vt 0.98368698 0.31890702
vt 0.94995803 0.30720592
vt 0.59230298 0.40953898
vt 0.56316602 0.44824409
vt 0.53723502 0.48633003
vt 0.51722598 0.51800609
vt 0.98388302 0.07006001
vt 0.95082498 0.05682111
vt 0.58567899 0.15712500
vt 0.55879599 0.19221401
vt 0.53296000 0.22697997
vt 0.51288098 0.25837207
vt 0.85326201 0.60786200
vt 0.86180800 0.61406708
vt 0.87335300 0.62781405
vt 0.88922602 0.64569211
vt 0.90373600 0.66521311
vt 0.91562903 0.68450904
vt 0.92657900 0.70453191
vt 0.85615402 0.79380202
vt 0.86319202 0.80181599
vt 0.87378597 0.81587505
vt 0.88783503 0.83496594
vt 0.90099102 0.85323405
vt 0.91246802 0.87411690
vt 0.92167801 0.89464402
vt 0.56485599 0.65486789
vt 0.55673802 0.66055489
vt 0.55035502 0.67147207
vt 0.54268700 0.68707204
vt 0.53587502 0.70309210
vt 0.52959299 0.71725011
vt 0.52262902 0.73204088
vt 0.56108600 0.82061410
vt 0.55301899 0.82528901
vt 0.54606199 0.83502603
vt 0.53668499 0.85141301
vt 0.52905202 0.86507702
vt 0.52162701 0.87865090
vt 0.51248997 0.89376307
vt 0.69542497 0.09401989
vt 0.62009603 0.12115097
vt 0.65566701 0.09441495
vt 0.69575500 0.35330009
vt 0.62388802 0.37787104
vt 0.65993398 0.34928608
vt 0.68959397 0.07433009
vt 0.73095900 0.08068395
vt 0.72523803 0.05880594
vt 0.68794399 0.33301210
vt 0.72986698 0.33835912
vt 0.72355002 0.31565690
vt 0.76368302 0.04655194
vt 0.76691300 0.07201004
vt 0.80320603 0.03994107
vt 0.76977098 0.09917402
vt 0.77380002 0.12397909
vt 0.80218703 0.12463188
vt 0.77777499 0.14647102
vt 0.80335599 0.14690590
vt 0.78157699 0.16818309
vt 0.80593699 0.16847706
vt 0.78419101 0.18779302
vt 0.80709600 0.18944812
vt 0.78192103 0.20845103
vt 0.80536002 0.20768309
vt 0.76166201 0.30269909
vt 0.76626199 0.32801390
vt 0.80124301 0.29469109
vt 0.77450699 0.37986302
vt 0.77931499 0.40344906
vt 0.80463600 0.40198898
vt 0.78380901 0.42435408
vt 0.80759102 0.42383790
vt 0.78677398 0.44356894
vt 0.81009698 0.44305897
vt 0.78559798 0.46558094
vt 0.80834597 0.46429706
vt 0.73678201 0.10495210
vt 0.74211299 0.12892604
vt 0.74781197 0.15023088
vt 0.75389898 0.17170000
vt 0.75872397 0.19111109
vt 0.76191700 0.21093988
vt 0.73628998 0.36237097
vt 0.77025902 0.35467911
vt 0.74238503 0.38575006
vt 0.74930203 0.40838099
vt 0.75574303 0.42883611
vt 0.76235503 0.44933009
vt 0.76540899 0.46910095
vt 0.84345102 0.03828812
vt 0.87214899 0.06903100
vt 0.87957001 0.04022598
vt 0.84109598 0.29211402
vt 0.87061501 0.32156801
vt 0.87732500 0.29284906
vt 0.89520299 0.35789800
vt 0.90391803 0.32566500
vt 0.86436200 0.35251093
vt 0.90498197 0.07491398
vt 0.85542899 0.21087790
vt 0.88021600 0.21633601
vt 0.85771799 0.46562409
vt 0.88251501 0.47005010
vt 0.91331702 0.29759908
vt 0.91517901 0.04627299
vt 0.83069402 0.40345693
vt 0.83214003 0.42464495
vt 0.83307803 0.44379711
vt 0.83115703 0.12680006
vt 0.83044302 0.14909291
vt 0.83059901 0.17127204
vt 0.83086801 0.19105005
vt 0.82864100 0.20779490
vt 0.83185500 0.46360302
vt 0.11321700 0.57152200
vt 0.10435700 0.57771611
vt 0.11952200 0.59797502
vt 0.13131100 0.59306002
vt 0.08871100 0.58885694
vt 0.10600100 0.61014199
vt 0.25348899 0.66570210
vt 0.22770700 0.65946507
vt 0.22474200 0.66916299
vt 0.25093400 0.67705107
vt 0.21946700 0.68488693
vt 0.24755700 0.69287992
vt 0.30604500 0.68402004
vt 0.27919701 0.68219209
vt 0.27688900 0.69856811
vt 0.30477199 0.70030499
vt 0.30630901 0.67317796
vt 0.28080100 0.67217708
vt 0.41001999 0.66011906
vt 0.38828501 0.66494012
vt 0.39002001 0.67367697
vt 0.41546401 0.66768193
vt 0.36254799 0.66948605
vt 0.33614299 0.67351007
vt 0.33613101 0.68281507
vt 0.36383501 0.67860603
vt 0.39251700 0.68810892
vt 0.42097899 0.68023801
vt 0.33629701 0.69861102
vt 0.36466399 0.69418907
vt 0.33823299 0.75771499
vt 0.33753401 0.77954793
vt 0.37077299 0.77345204
vt 0.36871099 0.75275397
vt 0.26925299 0.76063490
vt 0.26703301 0.78200412
vt 0.30082899 0.78328490
vt 0.30148101 0.76040506
vt 0.20002300 0.74661303
vt 0.19557101 0.76672792
vt 0.23017099 0.77571797
vt 0.23348500 0.75430989
vt 0.39965501 0.74444199
vt 0.40178001 0.76343894
vt 0.43825200 0.74962592
vt 0.43402499 0.73218489
vt 0.03754500 0.64183211
vt 0.02632600 0.66046095
vt 0.04910700 0.68501902
vt 0.06059300 0.66502190
vt 0.05323100 0.62287998
vt 0.07325300 0.64549589
vt 0.08828300 0.62769198
vt 0.07104200 0.60565400
vt 0.33659399 0.71662498
vt 0.33737299 0.73557401
vt 0.36728099 0.73043299
vt 0.36615101 0.71179199
vt 0.27428299 0.71797609
vt 0.27160999 0.73630190
vt 0.30280200 0.73728299
vt 0.30381301 0.71836901
vt 0.21324299 0.70415211
vt 0.20647900 0.72357106
vt 0.23851401 0.73064590
vt 0.24287900 0.71193695
vt 0.39522201 0.70597696
vt 0.39741901 0.72332692
vt 0.42973399 0.71349812
vt 0.42557901 0.69671893
vt 0.14771400 0.64480710
vt 0.16909599 0.66011906
vt 0.17798300 0.64557600
vt 0.15801699 0.63055706
vt 0.18328699 0.63717699
vt 0.16446200 0.62236404
vt 0.20550901 0.64825201
vt 0.20006201 0.65801191
vt 0.19256800 0.67355299
vt 0.13690300 0.71942401
vt 0.12807900 0.73959804
vt 0.16042900 0.75425506
vt 0.16757500 0.73315811
vt 0.09976100 0.72280097
vt 0.11012400 0.70169711
vt 0.15805499 0.67855000
vt 0.14707300 0.69751596
vt 0.17573400 0.71197796
vt 0.18412501 0.69209504
vt 0.12067600 0.68264794
vt 0.13440400 0.66252208
vt 0.10806100 0.76091003
vt 0.10053800 0.76616096
vt 0.11655500 0.78560805
vt 0.12594800 0.77764201
vt 0.08536300 0.77970695
vt 0.10387700 0.79971790
vt 0.25675699 0.84434795
vt 0.22963201 0.83954000
vt 0.22704799 0.84939408
vt 0.25475901 0.85609293
vt 0.22317600 0.86571789
vt 0.25184500 0.87236094
vt 0.31071100 0.85884500
vt 0.28383499 0.85903001
vt 0.28252000 0.87551308
vt 0.31101599 0.87521100
vt 0.31022000 0.84777093
vt 0.28425500 0.84866095
vt 0.41519099 0.82769704
vt 0.39255601 0.83409190
vt 0.39566001 0.84254193
vt 0.42013201 0.83432102
vt 0.36663699 0.84030104
vt 0.34063399 0.84580302
vt 0.34118101 0.85506797
vt 0.36863700 0.84976196
vt 0.39836201 0.85684299
vt 0.42626199 0.84693098
vt 0.34227699 0.87116790
vt 0.37080699 0.86462998
vt 0.34815201 0.92901301
vt 0.34924001 0.95069504
vt 0.38144901 0.94270802
vt 0.37905699 0.92120409
vt 0.27909100 0.93646312
vt 0.27854499 0.95812607
vt 0.31249100 0.95697308
vt 0.31216601 0.93420696
vt 0.20892100 0.92655993
vt 0.20559700 0.94817400
vt 0.24140900 0.95455694
vt 0.24348700 0.93291402
vt 0.40918300 0.91141009
vt 0.41282800 0.92970800
vt 0.44708800 0.91363907
vt 0.44227701 0.89660501
vt 0.03803200 0.83361793
vt 0.02805800 0.85367990
vt 0.05282700 0.87602592
vt 0.06302300 0.85573101
vt 0.05211100 0.81360102
vt 0.07518800 0.83454394
vt 0.08864400 0.81808400
vt 0.06783000 0.79593992
vt 0.34449899 0.88995600
vt 0.34574899 0.90633392
vt 0.37601301 0.89881110
vt 0.37328699 0.88258600
vt 0.28100401 0.89493608
vt 0.27968800 0.91233206
vt 0.31123599 0.91051006
vt 0.31136101 0.89369011
vt 0.21778700 0.88524604
vt 0.21316500 0.90321398
vt 0.24567600 0.90878701
vt 0.24834600 0.89161706
vt 0.40195900 0.87426400
vt 0.40570399 0.89012408
vt 0.43655500 0.87892890
vt 0.43205801 0.86346793
vt 0.14846800 0.83178210
vt 0.17150000 0.84488201
vt 0.17904501 0.82895708
vt 0.15740700 0.81674409
vt 0.18344200 0.82015800
vt 0.16353901 0.80678606
vt 0.20644800 0.83000493
vt 0.20246699 0.84083891
vt 0.19652601 0.85682201
vt 0.14304399 0.90528703
vt 0.13635500 0.92593908
vt 0.16967700 0.93885493
vt 0.17543900 0.91628003
vt 0.10637500 0.91133595
vt 0.11481700 0.89018607
vt 0.16123401 0.86480808
vt 0.15201500 0.88295102
vt 0.18220000 0.89448810
vt 0.18925899 0.87563801
vt 0.12499000 0.86903501
vt 0.13619500 0.85038805
vt 0.38742200 0.58316803
vt 0.41230300 0.61345601
vt 0.42286599 0.59993005
vt 0.39796600 0.57078195
vt 0.43198001 0.58709502
vt 0.40832600 0.55803108
vt 0.30403000 0.49746799
vt 0.32971901 0.51885605
vt 0.33871499 0.50620890
vt 0.31278101 0.48309588
vt 0.34840301 0.49276710
vt 0.32156700 0.46827507
vt 0.38496599 0.44040799
vt 0.35471100 0.41042399
vt 0.34279600 0.43099403
vt 0.37205899 0.45928693
vt 0.30359399 0.43065596
vt 0.33124101 0.45057201
vt 0.31321099 0.41018510
vt 0.41897100 0.54449105
vt 0.44301900 0.57218695
vt 0.45403099 0.55641508
vt 0.43169701 0.52658391
vt 0.29431000 0.44969201
vt 0.05853100 0.45344591
vt 0.06536800 0.47046304
vt 0.08928900 0.46053600
vt 0.08511000 0.44222498
vt 0.07636300 0.48299098
vt 0.09431700 0.47670603
vt 0.02289000 0.34698606
vt 0.03222700 0.38370609
vt 0.06801600 0.36957192
vt 0.05806900 0.33507490
vt 0.04099800 0.40877891
vt 0.07453400 0.39643002
vt 0.05055400 0.43255711
vt 0.08055000 0.42016196
vt 0.16695701 0.35080194
vt 0.19900200 0.35098410
vt 0.19910400 0.32221889
vt 0.16274400 0.32041502
vt 0.16900800 0.37840509
vt 0.19773200 0.37760401
vt 0.11052900 0.38579798
vt 0.11248700 0.41005898
vt 0.14127900 0.40613198
vt 0.13995200 0.38123107
vt 0.11433900 0.43214512
vt 0.14056800 0.42729211
vt 0.32284901 0.38757992
vt 0.36570099 0.39303303
vt 0.33163300 0.36902404
vt 0.29631400 0.37445092
vt 0.28785801 0.39712000
vt 0.27951199 0.41886401
vt 0.11565200 0.45242500
vt 0.13958700 0.44753003
vt 0.27549800 0.48368192
vt 0.28509700 0.46706700
vt 0.26224399 0.45727396
vt 0.25473601 0.47516799
vt 0.27110100 0.43915892
vt 0.39122900 0.32202101
vt 0.41929400 0.35243702
vt 0.42899799 0.33996201
vt 0.40282500 0.31048393
vt 0.43865901 0.32763410
vt 0.41182300 0.29904008
vt 0.30930600 0.23889494
vt 0.33603799 0.25988197
vt 0.34470901 0.24813795
vt 0.31744701 0.22386408
vt 0.35564700 0.23455000
vt 0.32699201 0.20878506
vt 0.39346200 0.18563199
vt 0.35958400 0.15479708
vt 0.34763601 0.17495894
vt 0.37917599 0.20368791
vt 0.30554700 0.17062902
vt 0.33796799 0.19151807
vt 0.31494901 0.15065289
vt 0.42356199 0.28355503
vt 0.44828400 0.31231809
vt 0.45944899 0.29695296
vt 0.43572101 0.26744795
vt 0.29613599 0.19050097
vt 0.06296900 0.20128989
vt 0.07067800 0.21765590
vt 0.09304600 0.20905900
vt 0.08820700 0.19066310
vt 0.08157700 0.23012710
vt 0.09885000 0.22347498
vt 0.02348400 0.09785104
vt 0.03374500 0.13281989
vt 0.06769500 0.11950588
vt 0.05738700 0.08513403
vt 0.04403500 0.15777802
vt 0.07638500 0.14633799
vt 0.05454000 0.18070292
vt 0.08315600 0.16908407
vt 0.16608800 0.09834099
vt 0.19831300 0.09645605
vt 0.19789299 0.06763101
vt 0.16163900 0.06739593
vt 0.10979300 0.13528991
vt 0.13995300 0.13048196
vt 0.13536200 0.10119605
vt 0.10348000 0.10674596
vt 0.11354100 0.15880704
vt 0.14173999 0.15304995
vt 0.11576300 0.18105602
vt 0.14163300 0.17513204
vt 0.32527900 0.13107300
vt 0.37036499 0.13816810
vt 0.33501199 0.11139894
vt 0.29645500 0.11591411
vt 0.28823701 0.13842392
vt 0.28108200 0.15908003
vt 0.11696700 0.20040202
vt 0.14238100 0.19433689
vt 0.27938199 0.22599411
vt 0.28790700 0.20894694
vt 0.26499099 0.19880509
vt 0.25764501 0.21675396
vt 0.27284801 0.17999291
vt 0.41475499 0.47573400
vt 0.42684200 0.46053004
vt 0.39637101 0.42440510
vt 0.40257999 0.49206710
vt 0.38970801 0.50949907
vt 0.36108300 0.47611594
vt 0.37878501 0.52550006
vt 0.36875200 0.53866792
vt 0.35794100 0.55006289
vt 0.42043400 0.21893597
vt 0.43120801 0.20484304
vt 0.40467399 0.16981506
vt 0.40870100 0.23544407
vt 0.39631101 0.25145507
vt 0.36741200 0.21908498
vt 0.38404301 0.26635695
vt 0.37325701 0.27883291
vt 0.36307299 0.28950095
vt 0.46440801 0.54258394
vt 0.44343999 0.51113391
vt 0.46974301 0.28221202
vt 0.44691700 0.25295091
vt 0.47399101 0.52918196
vt 0.45344299 0.49720097
vt 0.47909400 0.26929808
vt 0.45757401 0.23888898
vt 0.01631300 0.31890702
vt 0.05004200 0.30720592
vt 0.43683499 0.44824409
vt 0.40769699 0.40953898
vt 0.48277399 0.51800609
vt 0.46276501 0.48633003
vt 0.01611700 0.07006001
vt 0.04917500 0.05682111
vt 0.44120401 0.19221401
vt 0.41432101 0.15712500
vt 0.48711899 0.25837207
vt 0.46703899 0.22697997
vt 0.13819200 0.61406708
vt 0.14673799 0.60786200
vt 0.12664700 0.62781405
vt 0.11077400 0.64569211
vt 0.09626400 0.66521311
vt 0.07349400 0.70458388
vt 0.08437100 0.68450904
vt 0.13680799 0.80181599
vt 0.14384700 0.79380202
vt 0.12621400 0.81587505
vt 0.11216500 0.83496594
vt 0.09901000 0.85323405
vt 0.07832200 0.89464402
vt 0.08753200 0.87411690
vt 0.43514401 0.65486789
vt 0.44326100 0.66055489
vt 0.44964501 0.67147207
vt 0.45731300 0.68707204
vt 0.46412501 0.70309210
vt 0.47040701 0.71725011
vt 0.47737101 0.73204088
vt 0.43891400 0.82061410
vt 0.44698200 0.82528901
vt 0.45393801 0.83502603
vt 0.46331501 0.85141301
vt 0.47094801 0.86507702
vt 0.47837400 0.87865090
vt 0.48751101 0.89376307
vt 0.30457500 0.09401989
vt 0.37990299 0.12115097
vt 0.34433299 0.09441495
vt 0.30424500 0.35330009
vt 0.37611300 0.37787104
vt 0.34006599 0.34928608
vt 0.31040499 0.07433009
vt 0.27476200 0.05880594
vt 0.26904100 0.08068395
vt 0.31205601 0.33301210
vt 0.27645001 0.31565690
vt 0.27013299 0.33835912
vt 0.23631600 0.04655194
vt 0.19679400 0.03994107
vt 0.23308700 0.07201004
vt 0.23022801 0.09917402
vt 0.19781300 0.12463188
vt 0.22619900 0.12397909
vt 0.19664399 0.14690590
vt 0.22222500 0.14647102
vt 0.19406299 0.16847706
vt 0.21842299 0.16818309
vt 0.19290400 0.18944812
vt 0.21580900 0.18779302
vt 0.19464000 0.20768309
vt 0.21807900 0.20845103
vt 0.23833799 0.30269909
vt 0.19875699 0.29469109
vt 0.23373801 0.32801390
vt 0.22549400 0.37986302
vt 0.19536400 0.40198898
vt 0.22068501 0.40344906
vt 0.19240899 0.42383790
vt 0.21619099 0.42435408
vt 0.18990301 0.44305897
vt 0.21322601 0.44356894
vt 0.19165400 0.46429706
vt 0.21440201 0.46558094
vt 0.26321700 0.10495210
vt 0.25788599 0.12892604
vt 0.25218800 0.15023088
vt 0.24610101 0.17170000
vt 0.24127500 0.19111109
vt 0.23808201 0.21093988
vt 0.22974201 0.35467911
vt 0.26370999 0.36237097
vt 0.25761500 0.38575006
vt 0.25069800 0.40838099
vt 0.24425700 0.42883611
vt 0.23764500 0.44933009
vt 0.23459201 0.46910095
vt 0.15654799 0.03828812
vt 0.12042900 0.04022598
vt 0.12785000 0.06903100
vt 0.15890400 0.29211402
vt 0.12267500 0.29284906
vt 0.12938499 0.32156801
vt 0.10479700 0.35789800
vt 0.13563800 0.35251093
vt 0.09608200 0.32566500
vt 0.09501700 0.07491398
vt 0.11978400 0.21633601
vt 0.14456999 0.21087790
vt 0.11748500 0.47005010
vt 0.14228299 0.46562409
vt 0.08668400 0.29759908
vt 0.08482100 0.04627299
vt 0.16930600 0.40345693
vt 0.16786000 0.42464495
vt 0.16692200 0.44379711
vt 0.16884300 0.12680006
vt 0.16955701 0.14909291
vt 0.16940100 0.17127204
vt 0.16913100 0.19105005
vt 0.17135900 0.20779490
vt 0.16814500 0.46360302
f 1/1 2/2 3/3
f 1/1 3/3 4/4
f 3/3 5/5 6/6
f 3/3 6/6 4/4
f 7/7 8/8 9/9
f 7/7 9/9 10/10
f 8/8 11/11 12/12
f 8/8 12/12 9/9
f 13/13 14/14 15/15
f 13/13 15/15 16/16
f 17/17 13/13 16/16
f 17/17 16/16 18/18
f 19/19 20/20 21/21
f 19/19 21/21 22/22
f 23/23 24/24 25/25
f 23/23 25/25 26/26
f 20/20 27/27 28/28
f 20/20 28/28 21/21
f 24/24 29/29 30/30
f 24/24 30/30 25/25
f 31/31 32/32 33/33
f 31/31 33/33 34/34
f 35/35 36/36 37/37
f 35/35 37/37 38/38
f 39/39 40/40 41/41
f 39/39 41/41 42/42
f 43/43 44/44 45/45
f 43/43 45/45 46/46
f 47/47 48/48 49/49
f 47/47 49/49 50/50
f 51/51 52/52 53/53
f 51/51 53/53 54/54
f 55/55 56/56 57/57
f 55/55 57/57 58/58
f 59/59 60/60 61/61
f 59/59 61/61 62/62
f 63/63 64/64 65/65
f 63/63 65/65 66/66
f 67/67 68/68 69/69
f 67/67 69/69 70/70
f 30/30 29/29 56/56
f 30/30 56/56 55/55
f 15/15 14/14 60/60
f 15/15 60/60 59/59
f 5/5 53/53 52/52
f 5/5 52/52 6/6
f 11/11 64/64 63/63
f 11/11 63/63 12/12
f 27/27 68/68 67/67
f 27/27 67/67 28/28
f 71/71 72/72 73/73
f 71/71 73/73 74/74
f 72/72 75/75 76/76
f 72/72 76/76 73/73
f 77/77 78/78 73/73
f 77/77 73/73 76/76
f 78/78 79/79 74/74
f 78/78 74/74 73/73
f 80/80 81/81 82/82
f 80/80 82/82 83/83
f 84/84 85/85 80/80
f 84/84 80/80 83/83
f 86/86 87/87 88/88
f 86/86 88/88 89/89
f 90/90 91/91 86/86
f 90/90 86/86 89/89
f 79/79 87/87 86/86
f 79/79 86/86 74/74
f 74/74 86/86 91/91
f 74/74 91/91 71/71
f 92/92 93/93 94/94
f 92/92 94/94 95/95
f 94/94 96/96 97/97
f 94/94 97/97 95/95
f 98/98 99/99 100/100
f 98/98 100/100 101/101
f 99/99 102/102 103/103
f 99/99 103/103 100/100
f 104/104 105/105 106/106
f 104/104 106/106 107/107
f 108/108 104/104 107/107
f 108/108 107/107 109/109
f 110/110 111/111 112/112
f 110/110 112/112 113/113
f 114/114 115/115 116/116
f 114/114 116/116 117/117
f 111/111 118/118 119/119
f 111/111 119/119 112/112
f 115/115 120/120 121/121
f 115/115 121/121 116/116
f 122/122 123/123 124/124
f 122/122 124/124 125/125
f 126/126 127/127 128/128
f 126/126 128/128 129/129
f 130/130 131/131 132/132
f 130/130 132/132 133/133
f 134/134 135/135 136/136
f 134/134 136/136 137/137
f 138/138 139/139 140/140
f 138/138 140/140 141/141
f 142/142 143/143 144/144
f 142/142 144/144 145/145
f 146/146 147/147 148/148
f 146/146 148/148 149/149
f 150/150 151/151 152/152
f 150/150 152/152 153/153
f 154/154 155/155 156/156
f 154/154 156/156 157/157
f 158/158 159/159 160/160
f 158/158 160/160 161/161
f 121/121 120/120 147/147
f 121/121 147/147 146/146
f 106/106 105/105 151/151
f 106/106 151/151 150/150
f 96/96 144/144 143/143
f 96/96 143/143 97/97
f 102/102 155/155 154/154
f 102/102 154/154 103/103
f 118/118 159/159 158/158
f 118/118 158/158 119/119
f 162/162 163/163 164/164
f 162/162 164/164 165/165
f 164/164 163/163 166/166
f 164/164 166/166 167/167
f 168/168 169/169 164/164
f 168/168 164/164 167/167
f 169/169 170/170 165/165
f 169/169 165/165 164/164
f 171/171 172/172 173/173
f 171/171 173/173 174/174
f 175/175 176/176 171/171
f 175/175 171/171 174/174
f 177/177 178/178 179/179
f 177/177 179/179 180/180
f 181/181 182/182 177/177
f 181/181 177/177 180/180
f 170/170 178/178 177/177
f 170/170 177/177 165/165
f 165/165 177/177 182/182
f 165/165 182/182 162/162
f 183/183 184/184 185/185
f 183/183 185/185 186/186
f 187/187 185/185 184/184
f 187/187 184/184 188/188
f 189/189 190/190 191/191
f 189/189 191/191 192/192
f 193/193 191/191 190/190
f 193/193 190/190 194/194
f 195/195 196/196 197/197
f 195/195 197/197 198/198
f 199/199 200/200 197/197
f 199/199 197/197 201/201
f 202/202 203/203 204/204
f 202/202 204/204 205/205
f 206/206 199/199 201/201
f 206/206 201/201 194/194
f 205/205 187/187 188/188
f 205/205 188/188 202/202
f 207/207 208/208 209/209
f 207/207 209/209 210/210
f 211/211 210/210 209/209
f 211/211 209/209 212/212
f 213/213 214/214 215/215
f 213/213 215/215 216/216
f 216/216 215/215 217/217
f 216/216 217/217 218/218
f 218/218 217/217 219/219
f 218/218 219/219 220/220
f 220/220 219/219 208/208
f 220/220 208/208 207/207
f 221/221 222/222 223/223
f 221/221 223/223 224/224
f 225/225 221/221 224/224
f 225/225 224/224 226/226
f 227/227 228/228 229/229
f 227/227 229/229 230/230
f 230/230 229/229 231/231
f 230/230 231/231 232/232
f 233/233 234/234 235/235
f 233/233 235/235 198/198
f 200/200 236/236 237/237
f 200/200 237/237 233/233
f 199/199 238/238 236/236
f 199/199 236/236 200/200
f 232/232 231/231 239/239
f 232/232 239/239 240/240
f 241/241 242/242 243/243
f 241/241 243/243 244/244
f 244/244 243/243 245/245
f 244/244 245/245 206/206
f 246/246 247/247 248/248
f 246/246 248/248 249/249
f 250/250 248/248 247/247
f 250/250 247/247 251/251
f 252/252 253/253 254/254
f 252/252 254/254 255/255
f 256/256 254/254 253/253
f 256/256 253/253 257/257
f 258/258 259/259 260/260
f 258/258 260/260 261/261
f 262/262 263/263 260/260
f 262/262 260/260 264/264
f 265/265 266/266 267/267
f 265/265 267/267 268/268
f 269/269 262/262 264/264
f 269/269 264/264 257/257
f 268/268 250/250 251/251
f 268/268 251/251 265/265
f 270/270 271/271 272/272
f 270/270 272/272 273/273
f 274/274 273/273 272/272
f 274/274 272/272 275/275
f 276/276 277/277 278/278
f 276/276 278/278 279/279
f 279/279 278/278 280/280
f 279/279 280/280 281/281
f 281/281 280/280 282/282
f 281/281 282/282 283/283
f 283/283 282/282 271/271
f 283/283 271/271 270/270
f 284/284 285/285 286/286
f 284/284 286/286 287/287
f 288/288 289/289 290/290
f 288/288 290/290 291/291
f 288/288 291/291 292/292
f 288/288 292/292 293/293
f 293/293 292/292 294/294
f 293/293 294/294 295/295
f 296/296 297/297 298/298
f 296/296 298/298 261/261
f 263/263 299/299 300/300
f 263/263 300/300 296/296
f 262/262 301/301 299/299
f 262/262 299/299 263/263
f 295/295 294/294 302/302
f 295/295 302/302 303/303
f 304/304 305/305 306/306
f 304/304 306/306 307/307
f 307/307 306/306 308/308
f 307/307 308/308 269/269
f 195/195 309/309 310/310
f 195/195 310/310 311/311
f 196/196 195/195 311/311
f 196/196 311/311 312/312
f 313/313 314/314 196/196
f 313/313 196/196 312/312
f 313/313 315/315 193/193
f 313/313 193/193 314/314
f 191/191 193/193 315/315
f 191/191 315/315 316/316
f 192/192 191/191 316/316
f 192/192 316/316 317/317
f 258/258 318/318 319/319
f 258/258 319/319 320/320
f 259/259 258/258 320/320
f 259/259 320/320 321/321
f 322/322 323/323 259/259
f 322/322 259/259 321/321
f 322/322 324/324 256/256
f 322/322 256/256 323/323
f 254/254 256/256 324/324
f 254/254 324/324 325/325
f 255/255 254/254 325/325
f 255/255 325/325 326/326
f 204/204 203/203 327/327
f 204/204 327/327 328/328
f 267/267 266/266 329/329
f 267/267 329/329 330/330
f 328/328 327/327 331/331
f 328/328 331/331 332/332
f 329/329 333/333 334/334
f 329/329 334/334 330/330
f 335/335 336/336 214/214
f 335/335 214/214 213/213
f 310/310 309/309 337/337
f 310/310 337/337 338/338
f 332/332 331/331 339/339
f 332/332 339/339 340/340
f 341/341 342/342 277/277
f 341/341 277/277 276/276
f 319/319 318/318 343/343
f 319/319 343/343 344/344
f 334/334 333/333 345/345
f 334/334 345/345 346/346
f 3/3 2/2 347/347
f 3/3 347/347 348/348
f 348/348 349/349 5/5
f 348/348 5/5 3/3
f 349/349 350/350 53/53
f 349/349 53/53 5/5
f 54/54 53/53 350/350
f 54/54 350/350 351/351
f 48/48 352/352 353/353
f 48/48 353/353 49/49
f 94/94 93/93 354/354
f 94/94 354/354 355/355
f 355/355 356/356 96/96
f 355/355 96/96 94/94
f 356/356 357/357 144/144
f 356/356 144/144 96/96
f 145/145 144/144 357/357
f 145/145 357/357 358/358
f 139/139 359/359 360/360
f 139/139 360/360 140/140
f 352/352 85/85 84/84
f 352/352 84/84 353/353
f 350/350 91/91 90/90
f 350/350 90/90 351/351
f 71/71 91/91 350/350
f 71/71 350/350 349/349
f 349/349 348/348 72/72
f 349/349 72/72 71/71
f 348/348 347/347 75/75
f 348/348 75/75 72/72
f 359/359 176/176 175/175
f 359/359 175/175 360/360
f 357/357 182/182 181/181
f 357/357 181/181 358/358
f 162/162 182/182 357/357
f 162/162 357/357 356/356
f 356/356 355/355 163/163
f 356/356 163/163 162/162
f 166/166 163/163 355/355
f 166/166 355/355 354/354
f 10/10 9/9 78/78
f 10/10 78/78 77/77
f 9/9 12/12 79/79
f 9/9 79/79 78/78
f 12/12 63/63 87/87
f 12/12 87/87 79/79
f 88/88 87/87 63/63
f 88/88 63/63 66/66
f 82/82 81/81 39/39
f 82/82 39/39 42/42
f 101/101 100/100 169/169
f 101/101 169/169 168/168
f 100/100 103/103 170/170
f 100/100 170/170 169/169
f 103/103 154/154 178/178
f 103/103 178/178 170/170
f 179/179 178/178 154/154
f 179/179 154/154 157/157
f 173/173 172/172 130/130
f 173/173 130/130 133/133
f 18/18 16/16 8/8
f 18/18 8/8 7/7
f 16/16 15/15 11/11
f 16/16 11/11 8/8
f 15/15 59/59 64/64
f 15/15 64/64 11/11
f 65/65 64/64 59/59
f 65/65 59/59 62/62
f 41/41 40/40 35/35
f 41/41 35/35 38/38
f 109/109 107/107 99/99
f 109/109 99/99 98/98
f 107/107 106/106 102/102
f 107/107 102/102 99/99
f 106/106 150/150 155/155
f 106/106 155/155 102/102
f 156/156 155/155 150/150
f 156/156 150/150 153/153
f 132/132 131/131 126/126
f 132/132 126/126 129/129
f 25/25 13/13 17/17
f 25/25 17/17 26/26
f 30/30 14/14 13/13
f 30/30 13/13 25/25
f 60/60 14/14 30/30
f 60/60 30/30 55/55
f 61/61 60/60 55/55
f 61/61 55/55 58/58
f 37/37 36/36 31/31
f 37/37 31/31 34/34
f 116/116 104/104 108/108
f 116/116 108/108 117/117
f 121/121 105/105 104/104
f 121/121 104/104 116/116
f 151/151 105/105 121/121
f 151/151 121/121 146/146
f 152/152 151/151 146/146
f 152/152 146/146 149/149
f 128/128 127/127 122/122
f 128/128 122/122 125/125
f 21/21 24/24 23/23
f 21/21 23/23 22/22
f 28/28 29/29 24/24
f 28/28 24/24 21/21
f 56/56 29/29 28/28
f 56/56 28/28 67/67
f 57/57 56/56 67/67
f 57/57 67/67 70/70
f 33/33 32/32 43/43
f 33/33 43/43 46/46
f 112/112 115/115 114/114
f 112/112 114/114 113/113
f 119/119 120/120 115/115
f 119/119 115/115 112/112
f 147/147 120/120 119/119
f 147/147 119/119 158/158
f 148/148 147/147 158/158
f 148/148 158/158 161/161
f 124/124 123/123 134/134
f 124/124 134/134 137/137
f 54/54 48/48 47/47
f 54/54 47/47 51/51
f 351/351 352/352 48/48
f 351/351 48/48 54/54
f 351/351 90/90 85/85
f 351/351 85/85 352/352
f 80/80 85/85 90/90
f 80/80 90/90 89/89
f 89/89 88/88 81/81
f 89/89 81/81 80/80
f 39/39 81/81 88/88
f 39/39 88/88 66/66
f 66/66 65/65 40/40
f 66/66 40/40 39/39
f 35/35 40/40 65/65
f 35/35 65/65 62/62
f 62/62 61/61 36/36
f 62/62 36/36 35/35
f 31/31 36/36 61/61
f 31/31 61/61 58/58
f 58/58 57/57 32/32
f 58/58 32/32 31/31
f 43/43 32/32 57/57
f 43/43 57/57 70/70
f 70/70 69/69 44/44
f 70/70 44/44 43/43
f 145/145 139/139 138/138
f 145/145 138/138 142/142
f 358/358 359/359 139/139
f 358/358 139/139 145/145
f 358/358 181/181 176/176
f 358/358 176/176 359/359
f 171/171 176/176 181/181
f 171/171 181/181 180/180
f 180/180 179/179 172/172
f 180/180 172/172 171/171
f 130/130 172/172 179/179
f 130/130 179/179 157/157
f 157/157 156/156 131/131
f 157/157 131/131 130/130
f 126/126 131/131 156/156
f 126/126 156/156 153/153
f 153/153 152/152 127/127
f 153/153 127/127 126/126
f 122/122 127/127 152/152
f 122/122 152/152 149/149
f 149/149 148/148 123/123
f 149/149 123/123 122/122
f 134/134 123/123 148/148
f 134/134 148/148 161/161
f 161/161 160/160 135/135
f 161/161 135/135 134/134
f 361/361 362/362 20/20
f 361/361 20/20 19/19
f 363/363 27/27 20/20
f 363/363 20/20 362/362
f 364/364 68/68 27/27
f 364/364 27/27 363/363
f 69/69 68/68 364/364
f 69/69 364/364 365/365
f 366/366 44/44 69/69
f 366/366 69/69 365/365
f 45/45 44/44 366/366
f 45/45 366/366 367/367
f 368/368 369/369 111/111
f 368/368 111/111 110/110
f 370/370 118/118 111/111
f 370/370 111/111 369/369
f 371/371 159/159 118/118
f 371/371 118/118 370/370
f 160/160 159/159 371/371
f 160/160 371/371 372/372
f 373/373 135/135 160/160
f 373/373 160/160 372/372
f 136/136 135/135 373/373
f 136/136 373/373 374/374
f 316/316 184/184 183/183
f 316/316 183/183 317/317
f 188/188 184/184 316/316
f 188/188 316/316 315/315
f 202/202 188/188 315/315
f 202/202 315/315 313/313
f 313/313 312/312 203/203
f 313/313 203/203 202/202
f 327/327 203/203 312/312
f 327/327 312/312 311/311
f 331/331 327/327 311/311
f 331/331 311/311 310/310
f 339/339 331/331 310/310
f 339/339 310/310 338/338
f 325/325 247/247 246/246
f 325/325 246/246 326/326
f 251/251 247/247 325/325
f 251/251 325/325 324/324
f 265/265 251/251 324/324
f 265/265 324/324 322/322
f 322/322 321/321 266/266
f 322/322 266/266 265/265
f 329/329 266/266 321/321
f 329/329 321/321 320/320
f 320/320 319/319 333/333
f 320/320 333/333 329/329
f 345/345 333/333 319/319
f 345/345 319/319 344/344
f 296/296 300/300 375/375
f 296/296 375/375 297/297
f 269/269 308/308 301/301
f 269/269 301/301 262/262
f 376/376 298/298 297/297
f 376/376 297/297 377/377
f 233/233 237/237 378/378
f 233/233 378/378 234/234
f 206/206 245/245 238/238
f 206/206 238/238 199/199
f 379/379 235/235 234/234
f 379/379 234/234 380/380
f 381/381 375/375 382/382
f 381/381 382/382 383/383
f 384/384 378/378 385/385
f 384/384 385/385 386/386
f 387/387 388/388 286/286
f 387/387 286/286 389/389
f 390/390 391/391 392/392
f 390/390 392/392 287/287
f 391/391 393/393 394/394
f 391/391 394/394 392/392
f 393/393 395/395 396/396
f 393/393 396/396 394/394
f 395/395 397/397 398/398
f 395/395 398/398 396/396
f 397/397 399/399 400/400
f 397/397 400/400 398/398
f 401/401 402/402 223/223
f 401/401 223/223 403/403
f 404/404 405/405 406/406
f 404/404 406/406 226/226
f 405/405 407/407 408/408
f 405/405 408/408 406/406
f 407/407 409/409 410/410
f 407/407 410/410 408/408
f 409/409 411/411 412/412
f 409/409 412/412 410/410
f 388/388 382/382 413/413
f 388/388 413/413 390/390
f 390/390 413/413 414/414
f 390/390 414/414 391/391
f 391/391 414/414 415/415
f 391/391 415/415 393/393
f 393/393 415/415 416/416
f 393/393 416/416 395/395
f 395/395 416/416 417/417
f 395/395 417/417 397/397
f 397/397 417/417 418/418
f 397/397 418/418 399/399
f 402/402 385/385 419/419
f 402/402 419/419 420/420
f 420/420 419/419 421/421
f 420/420 421/421 404/404
f 404/404 421/421 422/422
f 404/404 422/422 405/405
f 405/405 422/422 423/423
f 405/405 423/423 407/407
f 407/407 423/423 424/424
f 407/407 424/424 409/409
f 409/409 424/424 425/425
f 409/409 425/425 411/411
f 426/426 285/285 427/427
f 426/426 427/427 428/428
f 429/429 222/222 430/430
f 429/429 430/430 431/431
f 432/432 433/433 430/430
f 432/432 430/430 434/434
f 227/227 432/432 434/434
f 227/227 434/434 228/228
f 289/289 435/435 427/427
f 289/289 427/427 290/290
f 303/303 302/302 436/436
f 303/303 436/436 437/437
f 240/240 239/239 438/438
f 240/240 438/438 439/439
f 377/377 297/297 375/375
f 377/377 375/375 381/381
f 380/380 234/234 378/378
f 380/380 378/378 384/384
f 304/304 307/307 253/253
f 304/304 253/253 252/252
f 307/307 269/269 257/257
f 307/307 257/257 253/253
f 263/263 296/296 261/261
f 263/263 261/261 260/260
f 259/259 323/323 264/264
f 259/259 264/264 260/260
f 323/323 256/256 257/257
f 323/323 257/257 264/264
f 318/318 258/258 261/261
f 318/318 261/261 298/298
f 343/343 318/318 298/298
f 343/343 298/298 376/376
f 241/241 244/244 190/190
f 241/241 190/190 189/189
f 244/244 206/206 194/194
f 244/244 194/194 190/190
f 200/200 233/233 198/198
f 200/200 198/198 197/197
f 196/196 314/314 201/201
f 196/196 201/201 197/197
f 314/314 193/193 194/194
f 314/314 194/194 201/201
f 309/309 195/195 198/198
f 309/309 198/198 235/235
f 337/337 309/309 235/235
f 337/337 235/235 379/379
f 208/208 232/232 240/240
f 208/208 240/240 209/209
f 209/209 240/240 439/439
f 209/209 439/439 212/212
f 214/214 433/433 432/432
f 214/214 432/432 215/215
f 215/215 432/432 227/227
f 215/215 227/227 217/217
f 217/217 227/227 230/230
f 217/217 230/230 219/219
f 219/219 230/230 232/232
f 219/219 232/232 208/208
f 271/271 295/295 303/303
f 271/271 303/303 272/272
f 272/272 303/303 437/437
f 272/272 437/437 275/275
f 277/277 435/435 289/289
f 277/277 289/289 278/278
f 278/278 289/289 288/288
f 278/278 288/288 280/280
f 280/280 288/288 293/293
f 280/280 293/293 282/282
f 282/282 293/293 295/295
f 282/282 295/295 271/271
f 336/336 440/440 433/433
f 336/336 433/433 214/214
f 342/342 441/441 435/435
f 342/342 435/435 277/277
f 228/228 225/225 442/442
f 228/228 442/442 229/229
f 229/229 442/442 443/443
f 229/229 443/443 231/231
f 231/231 443/443 444/444
f 231/231 444/444 239/239
f 290/290 284/284 445/445
f 290/290 445/445 291/291
f 291/291 445/445 446/446
f 291/291 446/446 292/292
f 292/292 446/446 447/447
f 292/292 447/447 294/294
f 294/294 447/447 448/448
f 294/294 448/448 302/302
f 427/427 435/435 441/441
f 427/427 441/441 428/428
f 430/430 433/433 440/440
f 430/430 440/440 431/431
f 430/430 222/222 221/221
f 430/430 221/221 434/434
f 434/434 221/221 225/225
f 434/434 225/225 228/228
f 427/427 285/285 284/284
f 427/427 284/284 290/290
f 302/302 448/448 449/449
f 302/302 449/449 436/436
f 239/239 444/444 450/450
f 239/239 450/450 438/438
f 382/382 388/388 387/387
f 382/382 387/387 383/383
f 385/385 402/402 401/401
f 385/385 401/401 386/386
f 382/382 375/375 300/300
f 382/382 300/300 413/413
f 413/413 300/300 299/299
f 413/413 299/299 414/414
f 414/414 299/299 301/301
f 414/414 301/301 415/415
f 415/415 301/301 308/308
f 415/415 308/308 416/416
f 416/416 308/308 306/306
f 416/416 306/306 417/417
f 417/417 306/306 305/305
f 417/417 305/305 418/418
f 385/385 378/378 237/237
f 385/385 237/237 419/419
f 419/419 237/237 236/236
f 419/419 236/236 421/421
f 421/421 236/236 238/238
f 421/421 238/238 422/422
f 422/422 238/238 245/245
f 422/422 245/245 423/423
f 423/423 245/245 243/243
f 423/423 243/243 424/424
f 424/424 243/243 242/242
f 424/424 242/242 425/425
f 223/223 402/402 420/420
f 223/223 420/420 224/224
f 224/224 420/420 404/404
f 224/224 404/404 226/226
f 286/286 388/388 390/390
f 286/286 390/390 287/287
f 286/286 285/285 426/426
f 286/286 426/426 389/389
f 392/392 445/445 284/284
f 392/392 284/284 287/287
f 394/394 446/446 445/445
f 394/394 445/445 392/392
f 396/396 447/447 446/446
f 396/396 446/446 394/394
f 398/398 448/448 447/447
f 398/398 447/447 396/396
f 400/400 449/449 448/448
f 400/400 448/448 398/398
f 223/223 222/222 429/429
f 223/223 429/429 403/403
f 406/406 442/442 225/225
f 406/406 225/225 226/226
f 408/408 443/443 442/442
f 408/408 442/442 406/406
f 410/410 444/444 443/443
f 410/410 443/443 408/408
f 412/412 450/450 444/444
f 412/412 444/444 410/410
f 451/451 452/452 453/453
f 451/451 453/453 454/454
f 453/453 452/452 455/455
f 453/453 455/455 456/456
f 457/457 458/458 459/459
f 457/457 459/459 460/460
f 460/460 459/459 461/461
f 460/460 461/461 462/462
f 463/463 464/464 465/465
f 463/463 465/465 466/466
f 467/467 468/468 464/464
f 467/467 464/464 463/463
f 469/469 470/470 471/471
f 469/469 471/471 472/472
f 473/473 474/474 475/475
f 473/473 475/475 476/476
f 472/472 471/471 477/477
f 472/472 477/477 478/478
f 476/476 475/475 479/479
f 476/476 479/479 480/480
f 481/481 482/482 483/483
f 481/481 483/483 484/484
f 485/485 486/486 487/487
f 485/485 487/487 488/488
f 489/489 490/490 491/491
f 489/489 491/491 492/492
f 493/493 494/494 495/495
f 493/493 495/495 496/496
f 497/497 498/498 499/499
f 497/497 499/499 500/500
f 501/501 502/502 503/503
f 501/501 503/503 504/504
f 505/505 506/506 507/507
f 505/505 507/507 508/508
f 509/509 510/510 511/511
f 509/509 511/511 512/512
f 513/513 514/514 515/515
f 513/513 515/515 516/516
f 517/517 518/518 519/519
f 517/517 519/519 520/520
f 479/479 505/505 508/508
f 479/479 508/508 480/480
f 465/465 509/509 512/512
f 465/465 512/512 466/466
f 456/456 455/455 504/504
f 456/456 504/504 503/503
f 462/462 461/461 513/513
f 462/462 513/513 516/516
f 478/478 477/477 517/517
f 478/478 517/517 520/520
f 521/521 522/522 523/523
f 521/521 523/523 524/524
f 524/524 523/523 525/525
f 524/524 525/525 526/526
f 527/527 525/525 523/523
f 527/527 523/523 528/528
f 528/528 523/523 522/522
f 528/528 522/522 529/529
f 530/530 531/531 532/532
f 530/530 532/532 533/533
f 534/534 531/531 530/530
f 534/534 530/530 535/535
f 536/536 537/537 538/538
f 536/536 538/538 539/539
f 540/540 537/537 536/536
f 540/540 536/536 541/541
f 529/529 522/522 536/536
f 529/529 536/536 539/539
f 522/522 521/521 541/541
f 522/522 541/541 536/536
f 542/542 543/543 544/544
f 542/542 544/544 545/545
f 544/544 543/543 546/546
f 544/544 546/546 547/547
f 548/548 549/549 550/550
f 548/548 550/550 551/551
f 551/551 550/550 552/552
f 551/551 552/552 553/553
f 554/554 555/555 556/556
f 554/554 556/556 557/557
f 558/558 559/559 555/555
f 558/558 555/555 554/554
f 560/560 561/561 562/562
f 560/560 562/562 563/563
f 564/564 565/565 566/566
f 564/564 566/566 567/567
f 563/563 562/562 568/568
f 563/563 568/568 569/569
f 567/567 566/566 570/570
f 567/567 570/570 571/571
f 572/572 573/573 574/574
f 572/572 574/574 575/575
f 576/576 577/577 578/578
f 576/576 578/578 579/579
f 580/580 581/581 582/582
f 580/580 582/582 583/583
f 584/584 585/585 586/586
f 584/584 586/586 587/587
f 588/588 589/589 590/590
f 588/588 590/590 591/591
f 592/592 593/593 594/594
f 592/592 594/594 595/595
f 596/596 597/597 598/598
f 596/596 598/598 599/599
f 600/600 601/601 602/602
f 600/600 602/602 603/603
f 604/604 605/605 606/606
f 604/604 606/606 607/607
f 608/608 609/609 610/610
f 608/608 610/610 611/611
f 570/570 596/596 599/599
f 570/570 599/599 571/571
f 556/556 600/600 603/603
f 556/556 603/603 557/557
f 547/547 546/546 595/595
f 547/547 595/595 594/594
f 553/553 552/552 604/604
f 553/553 604/604 607/607
f 569/569 568/568 608/608
f 569/569 608/608 611/611
f 612/612 613/613 614/614
f 612/612 614/614 615/615
f 614/614 616/616 617/617
f 614/614 617/617 615/615
f 618/618 616/616 614/614
f 618/618 614/614 619/619
f 619/619 614/614 613/613
f 619/619 613/613 620/620
f 621/621 622/622 623/623
f 621/621 623/623 624/624
f 625/625 622/622 621/621
f 625/625 621/621 626/626
f 627/627 628/628 629/629
f 627/627 629/629 630/630
f 631/631 628/628 627/627
f 631/631 627/627 632/632
f 620/620 613/613 627/627
f 620/620 627/627 630/630
f 613/613 612/612 632/632
f 613/613 632/632 627/627
f 633/633 634/634 635/635
f 633/633 635/635 636/636
f 637/637 638/638 636/636
f 637/637 636/636 635/635
f 639/639 640/640 641/641
f 639/639 641/641 642/642
f 643/643 644/644 642/642
f 643/643 642/642 641/641
f 645/645 646/646 647/647
f 645/645 647/647 648/648
f 649/649 650/650 647/647
f 649/649 647/647 651/651
f 652/652 653/653 654/654
f 652/652 654/654 655/655
f 656/656 644/644 650/650
f 656/656 650/650 649/649
f 653/653 652/652 638/638
f 653/653 638/638 637/637
f 657/657 658/658 659/659
f 657/657 659/659 660/660
f 661/661 662/662 659/659
f 661/661 659/659 658/658
f 663/663 664/664 665/665
f 663/663 665/665 666/666
f 664/664 667/667 668/668
f 664/664 668/668 665/665
f 667/667 669/669 670/670
f 667/667 670/670 668/668
f 669/669 657/657 660/660
f 669/669 660/660 670/670
f 671/671 672/672 673/673
f 671/671 673/673 674/674
f 675/675 676/676 672/672
f 675/675 672/672 671/671
f 677/677 678/678 679/679
f 677/677 679/679 680/680
f 678/678 681/681 682/682
f 678/678 682/682 679/679
f 683/683 646/646 684/684
f 683/683 684/684 685/685
f 651/651 683/683 686/686
f 651/651 686/686 687/687
f 649/649 651/651 687/687
f 649/649 687/687 688/688
f 681/681 689/689 690/690
f 681/681 690/690 682/682
f 691/691 692/692 693/693
f 691/691 693/693 694/694
f 692/692 656/656 695/695
f 692/692 695/695 693/693
f 696/696 697/697 698/698
f 696/696 698/698 699/699
f 700/700 701/701 699/699
f 700/700 699/699 698/698
f 702/702 703/703 704/704
f 702/702 704/704 705/705
f 706/706 707/707 705/705
f 706/706 705/705 704/704
f 708/708 709/709 710/710
f 708/708 710/710 711/711
f 712/712 713/713 710/710
f 712/712 710/710 714/714
f 715/715 716/716 717/717
f 715/715 717/717 718/718
f 719/719 707/707 713/713
f 719/719 713/713 712/712
f 716/716 715/715 701/701
f 716/716 701/701 700/700
f 720/720 721/721 722/722
f 720/720 722/722 723/723
f 724/724 725/725 722/722
f 724/724 722/722 721/721
f 726/726 727/727 728/728
f 726/726 728/728 729/729
f 727/727 730/730 731/731
f 727/727 731/731 728/728
f 730/730 732/732 733/733
f 730/730 733/733 731/731
f 732/732 720/720 723/723
f 732/732 723/723 733/733
f 734/734 735/735 736/736
f 734/734 736/736 737/737
f 738/738 739/739 740/740
f 738/738 740/740 741/741
f 738/738 742/742 743/743
f 738/738 743/743 739/739
f 742/742 744/744 745/745
f 742/742 745/745 743/743
f 746/746 709/709 747/747
f 746/746 747/747 748/748
f 714/714 746/746 749/749
f 714/714 749/749 750/750
f 712/712 714/714 750/750
f 712/712 750/750 751/751
f 744/744 752/752 753/753
f 744/744 753/753 745/745
f 754/754 755/755 756/756
f 754/754 756/756 757/757
f 755/755 719/719 758/758
f 755/755 758/758 756/756
f 645/645 759/759 760/760
f 645/645 760/760 761/761
f 648/648 762/762 759/759
f 648/648 759/759 645/645
f 763/763 762/762 648/648
f 763/763 648/648 764/764
f 763/763 764/764 643/643
f 763/763 643/643 765/765
f 641/641 766/766 765/765
f 641/641 765/765 643/643
f 640/640 767/767 766/766
f 640/640 766/766 641/641
f 708/708 768/768 769/769
f 708/708 769/769 770/770
f 711/711 771/771 768/768
f 711/711 768/768 708/708
f 772/772 771/771 711/711
f 772/772 711/711 773/773
f 772/772 773/773 706/706
f 772/772 706/706 774/774
f 704/704 775/775 774/774
f 704/704 774/774 706/706
f 703/703 776/776 775/775
f 703/703 775/775 704/704
f 654/654 777/777 778/778
f 654/654 778/778 655/655
f 717/717 779/779 780/780
f 717/717 780/780 718/718
f 777/777 781/781 782/782
f 777/777 782/782 778/778
f 780/780 779/779 783/783
f 780/780 783/783 784/784
f 785/785 663/663 666/666
f 785/785 666/666 786/786
f 760/760 787/787 788/788
f 760/760 788/788 761/761
f 781/781 789/789 790/790
f 781/781 790/790 782/782
f 791/791 726/726 729/729
f 791/791 729/729 792/792
f 769/769 793/793 794/794
f 769/769 794/794 770/770
f 783/783 795/795 796/796
f 783/783 796/796 784/784
f 453/453 797/797 798/798
f 453/453 798/798 454/454
f 797/797 453/453 456/456
f 797/797 456/456 799/799
f 799/799 456/456 503/503
f 799/799 503/503 800/800
f 502/502 801/801 800/800
f 502/502 800/800 503/503
f 500/500 499/499 802/802
f 500/500 802/802 803/803
f 544/544 804/804 805/805
f 544/544 805/805 545/545
f 804/804 544/544 547/547
f 804/804 547/547 806/806
f 806/806 547/547 594/594
f 806/806 594/594 807/807
f 593/593 808/808 807/807
f 593/593 807/807 594/594
f 591/591 590/590 809/809
f 591/591 809/809 810/810
f 803/803 802/802 534/534
f 803/803 534/534 535/535
f 800/800 801/801 540/540
f 800/800 540/540 541/541
f 521/521 799/799 800/800
f 521/521 800/800 541/541
f 799/799 521/521 524/524
f 799/799 524/524 797/797
f 797/797 524/524 526/526
f 797/797 526/526 798/798
f 810/810 809/809 625/625
f 810/810 625/625 626/626
f 807/807 808/808 631/631
f 807/807 631/631 632/632
f 612/612 806/806 807/807
f 612/612 807/807 632/632
f 806/806 612/612 615/615
f 806/806 615/615 804/804
f 617/617 805/805 804/804
f 617/617 804/804 615/615
f 458/458 527/527 528/528
f 458/458 528/528 459/459
f 459/459 528/528 529/529
f 459/459 529/529 461/461
f 461/461 529/529 539/539
f 461/461 539/539 513/513
f 538/538 514/514 513/513
f 538/538 513/513 539/539
f 532/532 490/490 489/489
f 532/532 489/489 533/533
f 549/549 618/618 619/619
f 549/549 619/619 550/550
f 550/550 619/619 620/620
f 550/550 620/620 552/552
f 552/552 620/620 630/630
f 552/552 630/630 604/604
f 629/629 605/605 604/604
f 629/629 604/604 630/630
f 623/623 581/581 580/580
f 623/623 580/580 624/624
f 468/468 457/457 460/460
f 468/468 460/460 464/464
f 464/464 460/460 462/462
f 464/464 462/462 465/465
f 465/465 462/462 516/516
f 465/465 516/516 509/509
f 515/515 510/510 509/509
f 515/515 509/509 516/516
f 491/491 486/486 485/485
f 491/491 485/485 492/492
f 559/559 548/548 551/551
f 559/559 551/551 555/555
f 555/555 551/551 553/553
f 555/555 553/553 556/556
f 556/556 553/553 607/607
f 556/556 607/607 600/600
f 606/606 601/601 600/600
f 606/606 600/600 607/607
f 582/582 577/577 576/576
f 582/582 576/576 583/583
f 475/475 474/474 467/467
f 475/475 467/467 463/463
f 479/479 475/475 463/463
f 479/479 463/463 466/466
f 512/512 505/505 479/479
f 512/512 479/479 466/466
f 511/511 506/506 505/505
f 511/511 505/505 512/512
f 487/487 482/482 481/481
f 487/487 481/481 488/488
f 566/566 565/565 558/558
f 566/566 558/558 554/554
f 570/570 566/566 554/554
f 570/570 554/554 557/557
f 603/603 596/596 570/570
f 603/603 570/570 557/557
f 602/602 597/597 596/596
f 602/602 596/596 603/603
f 578/578 573/573 572/572
f 578/578 572/572 579/579
f 471/471 470/470 473/473
f 471/471 473/473 476/476
f 477/477 471/471 476/476
f 477/477 476/476 480/480
f 508/508 517/517 477/477
f 508/508 477/477 480/480
f 507/507 518/518 517/517
f 507/507 517/517 508/508
f 483/483 494/494 493/493
f 483/483 493/493 484/484
f 562/562 561/561 564/564
f 562/562 564/564 567/567
f 568/568 562/562 567/567
f 568/568 567/567 571/571
f 599/599 608/608 568/568
f 599/599 568/568 571/571
f 598/598 609/609 608/608
f 598/598 608/608 599/599
f 574/574 585/585 584/584
f 574/574 584/584 575/575
f 502/502 501/501 497/497
f 502/502 497/497 500/500
f 801/801 502/502 500/500
f 801/801 500/500 803/803
f 801/801 803/803 535/535
f 801/801 535/535 540/540
f 530/530 537/537 540/540
f 530/530 540/540 535/535
f 537/537 530/530 533/533
f 537/537 533/533 538/538
f 489/489 514/514 538/538
f 489/489 538/538 533/533
f 514/514 489/489 492/492
f 514/514 492/492 515/515
f 485/485 510/510 515/515
f 485/485 515/515 492/492
f 510/510 485/485 488/488
f 510/510 488/488 511/511
f 481/481 506/506 511/511
f 481/481 511/511 488/488
f 506/506 481/481 484/484
f 506/506 484/484 507/507
f 493/493 518/518 507/507
f 493/493 507/507 484/484
f 518/518 493/493 496/496
f 518/518 496/496 519/519
f 593/593 592/592 588/588
f 593/593 588/588 591/591
f 808/808 593/593 591/591
f 808/808 591/591 810/810
f 808/808 810/810 626/626
f 808/808 626/626 631/631
f 621/621 628/628 631/631
f 621/621 631/631 626/626
f 628/628 621/621 624/624
f 628/628 624/624 629/629
f 580/580 605/605 629/629
f 580/580 629/629 624/624
f 605/605 580/580 583/583
f 605/605 583/583 606/606
f 576/576 601/601 606/606
f 576/576 606/606 583/583
f 601/601 576/576 579/579
f 601/601 579/579 602/602
f 572/572 597/597 602/602
f 572/572 602/602 579/579
f 597/597 572/572 575/575
f 597/597 575/575 598/598
f 584/584 609/609 598/598
f 584/584 598/598 575/575
f 609/609 584/584 587/587
f 609/609 587/587 610/610
f 811/811 469/469 472/472
f 811/811 472/472 812/812
f 813/813 812/812 472/472
f 813/813 472/472 478/478
f 814/814 813/813 478/478
f 814/814 478/478 520/520
f 519/519 815/815 814/814
f 519/519 814/814 520/520
f 816/816 815/815 519/519
f 816/816 519/519 496/496
f 495/495 817/817 816/816
f 495/495 816/816 496/496
f 818/818 560/560 563/563
f 818/818 563/563 819/819
f 820/820 819/819 563/563
f 820/820 563/563 569/569
f 821/821 820/820 569/569
f 821/821 569/569 611/611
f 610/610 822/822 821/821
f 610/610 821/821 611/611
f 823/823 822/822 610/610
f 823/823 610/610 587/587
f 586/586 824/824 823/823
f 586/586 823/823 587/587
f 766/766 767/767 633/633
f 766/766 633/633 636/636
f 638/638 765/765 766/766
f 638/638 766/766 636/636
f 652/652 763/763 765/765
f 652/652 765/765 638/638
f 763/763 652/652 655/655
f 763/763 655/655 762/762
f 778/778 759/759 762/762
f 778/778 762/762 655/655
f 782/782 760/760 759/759
f 782/782 759/759 778/778
f 790/790 787/787 760/760
f 790/790 760/760 782/782
f 775/775 776/776 696/696
f 775/775 696/696 699/699
f 701/701 774/774 775/775
f 701/701 775/775 699/699
f 715/715 772/772 774/774
f 715/715 774/774 701/701
f 772/772 715/715 718/718
f 772/772 718/718 771/771
f 780/780 768/768 771/771
f 780/780 771/771 718/718
f 768/768 780/780 784/784
f 768/768 784/784 769/769
f 796/796 793/793 769/769
f 796/796 769/769 784/784
f 746/746 748/748 825/825
f 746/746 825/825 749/749
f 719/719 712/712 751/751
f 719/719 751/751 758/758
f 826/826 827/827 748/748
f 826/826 748/748 747/747
f 683/683 685/685 828/828
f 683/683 828/828 686/686
f 656/656 649/649 688/688
f 656/656 688/688 695/695
f 829/829 830/830 685/685
f 829/829 685/685 684/684
f 831/831 832/832 833/833
f 831/831 833/833 825/825
f 834/834 835/835 836/836
f 834/834 836/836 828/828
f 837/837 838/838 736/736
f 837/837 736/736 839/839
f 840/840 735/735 841/841
f 840/840 841/841 842/842
f 842/842 841/841 843/843
f 842/842 843/843 844/844
f 844/844 843/843 845/845
f 844/844 845/845 846/846
f 846/846 845/845 847/847
f 846/846 847/847 848/848
f 848/848 847/847 849/849
f 848/848 849/849 850/850
f 851/851 852/852 673/673
f 851/851 673/673 853/853
f 854/854 676/676 855/855
f 854/854 855/855 856/856
f 856/856 855/855 857/857
f 856/856 857/857 858/858
f 858/858 857/857 859/859
f 858/858 859/859 860/860
f 860/860 859/859 861/861
f 860/860 861/861 862/862
f 839/839 840/840 863/863
f 839/839 863/863 833/833
f 840/840 842/842 864/864
f 840/840 864/864 863/863
f 842/842 844/844 865/865
f 842/842 865/865 864/864
f 844/844 846/846 866/866
f 844/844 866/866 865/865
f 846/846 848/848 867/867
f 846/846 867/867 866/866
f 848/848 850/850 868/868
f 848/848 868/868 867/867
f 853/853 869/869 870/870
f 853/853 870/870 836/836
f 869/869 854/854 871/871
f 869/869 871/871 870/870
f 854/854 856/856 872/872
f 854/854 872/872 871/871
f 856/856 858/858 873/873
f 856/856 873/873 872/872
f 858/858 860/860 874/874
f 858/858 874/874 873/873
f 860/860 862/862 875/875
f 860/860 875/875 874/874
f 876/876 877/877 878/878
f 876/876 878/878 737/737
f 879/879 880/880 881/881
f 879/879 881/881 674/674
f 882/882 883/883 881/881
f 882/882 881/881 884/884
f 677/677 680/680 883/883
f 677/677 883/883 882/882
f 741/741 740/740 878/878
f 741/741 878/878 885/885
f 752/752 886/886 887/887
f 752/752 887/887 753/753
f 689/689 888/888 889/889
f 689/689 889/889 690/690
f 827/827 831/831 825/825
f 827/827 825/825 748/748
f 830/830 834/834 828/828
f 830/830 828/828 685/685
f 754/754 702/702 705/705
f 754/754 705/705 755/755
f 755/755 705/705 707/707
f 755/755 707/707 719/719
f 714/714 710/710 709/709
f 714/714 709/709 746/746
f 711/711 710/710 713/713
f 711/711 713/713 773/773
f 773/773 713/713 707/707
f 773/773 707/707 706/706
f 770/770 747/747 709/709
f 770/770 709/709 708/708
f 794/794 826/826 747/747
f 794/794 747/747 770/770
f 691/691 639/639 642/642
f 691/691 642/642 692/692
f 692/692 642/642 644/644
f 692/692 644/644 656/656
f 651/651 647/647 646/646
f 651/651 646/646 683/683
f 648/648 647/647 650/650
f 648/648 650/650 764/764
f 764/764 650/650 644/644
f 764/764 644/644 643/643
f 761/761 684/684 646/646
f 761/761 646/646 645/645
f 788/788 829/829 684/684
f 788/788 684/684 761/761
f 660/660 659/659 689/689
f 660/660 689/689 681/681
f 659/659 662/662 888/888
f 659/659 888/888 689/689
f 666/666 665/665 882/882
f 666/666 882/882 884/884
f 665/665 668/668 677/677
f 665/665 677/677 882/882
f 668/668 670/670 678/678
f 668/668 678/678 677/677
f 670/670 660/660 681/681
f 670/670 681/681 678/678
f 723/723 722/722 752/752
f 723/723 752/752 744/744
f 722/722 725/725 886/886
f 722/722 886/886 752/752
f 729/729 728/728 741/741
f 729/729 741/741 885/885
f 728/728 731/731 738/738
f 728/728 738/738 741/741
f 731/731 733/733 742/742
f 731/731 742/742 738/738
f 733/733 723/723 744/744
f 733/733 744/744 742/742
f 786/786 666/666 884/884
f 786/786 884/884 890/890
f 792/792 729/729 885/885
f 792/792 885/885 891/891
f 680/680 679/679 892/892
f 680/680 892/892 675/675
f 679/679 682/682 893/893
f 679/679 893/893 892/892
f 682/682 690/690 894/894
f 682/682 894/894 893/893
f 740/740 739/739 895/895
f 740/740 895/895 734/734
f 739/739 743/743 896/896
f 739/739 896/896 895/895
f 743/743 745/745 897/897
f 743/743 897/897 896/896
f 745/745 753/753 898/898
f 745/745 898/898 897/897
f 878/878 877/877 891/891
f 878/878 891/891 885/885
f 881/881 880/880 890/890
f 881/881 890/890 884/884
f 881/881 883/883 671/671
f 881/881 671/671 674/674
f 883/883 680/680 675/675
f 883/883 675/675 671/671
f 878/878 740/740 734/734
f 878/878 734/734 737/737
f 753/753 887/887 899/899
f 753/753 899/899 898/898
f 690/690 889/889 900/900
f 690/690 900/900 894/894
f 833/833 832/832 837/837
f 833/833 837/837 839/839
f 836/836 835/835 851/851
f 836/836 851/851 853/853
f 833/833 863/863 749/749
f 833/833 749/749 825/825
f 863/863 864/864 750/750
f 863/863 750/750 749/749
f 864/864 865/865 751/751
f 864/864 751/751 750/750
f 865/865 866/866 758/758
f 865/865 758/758 751/751
f 866/866 867/867 756/756
f 866/866 756/756 758/758
f 867/867 868/868 757/757
f 867/867 757/757 756/756
f 836/836 870/870 686/686
f 836/836 686/686 828/828
f 870/870 871/871 687/687
f 870/870 687/687 686/686
f 871/871 872/872 688/688
f 871/871 688/688 687/687
f 872/872 873/873 695/695
f 872/872 695/695 688/688
f 873/873 874/874 693/693
f 873/873 693/693 695/695
f 874/874 875/875 694/694
f 874/874 694/694 693/693
f 673/673 672/672 869/869
f 673/673 869/869 853/853
f 672/672 676/676 854/854
f 672/672 854/854 869/869
f 736/736 735/735 840/840
f 736/736 840/840 839/839
f 736/736 838/838 876/876
f 736/736 876/876 737/737
f 841/841 735/735 734/734
f 841/841 734/734 895/895
f 843/843 841/841 895/895
f 843/843 895/895 896/896
f 845/845 843/843 896/896
f 845/845 896/896 897/897
f 847/847 845/845 897/897
f 847/847 897/897 898/898
f 849/849 847/847 898/898
f 849/849 898/898 899/899
f 673/673 852/852 879/879
f 673/673 879/879 674/674
f 855/855 676/676 675/675
f 855/855 675/675 892/892
f 857/857 855/855 892/892
f 857/857 892/892 893/893
f 859/859 857/857 893/893
f 859/859 893/893 894/894
f 861/861 859/859 894/894
f 861/861 894/894 900/900

