# https://github.com/mikedh/trimesh
mtllib material.mtl

o Object009_Material #17_0
usemtl Material_17
v 27.38408855 -3.05210853 5.87333193
v 28.56519130 -3.05210853 5.87333211
v 28.56519126 -3.05210853 6.19616994
v 27.38408849 -3.05210853 6.26703349
v 28.56519123 5.55676770 6.34348020
v 27.38408854 5.55676770 5.94977847
v 27.38408848 5.55676770 6.34348002
v 28.56519129 5.55676770 5.94977865
v 27.38408854 5.55676770 5.94977847
v 27.38408849 -3.05210853 6.26703349
v 27.38408848 5.55676770 6.34348002
v 27.38408855 -3.05210853 5.87333193
v 27.38408848 5.55676770 6.34348002
v 27.38408849 -3.05210853 6.26703349
v 28.56519123 5.55676770 6.34348020
v 28.56519126 -3.05210853 6.19616994
v 28.56519123 5.55676770 6.34348020
v 28.56519126 -3.05210853 6.19616994
v 28.56519129 5.55676770 5.94977865
v 28.56519130 -3.05210853 5.87333211
v 28.56519129 5.55676770 5.94977865
v 28.56519130 -3.05210853 5.87333211
v 27.38408854 5.55676770 5.94977847
v 27.38408855 -3.05210853 5.87333193
vt 1.34816015 0.16341549
vt 1.37805331 0.16341549
vt 1.37805331 0.15524465
vt 1.34816015 0.15345114
vt 1.40890622 0.16339427
vt 1.37901306 0.15342993
vt 1.37901306 0.16339427
vt 1.40890622 0.15342993
vt 1.15259087 0.33769256
vt 1.37040281 0.32783645
vt 1.15250742 0.32772857
vt 1.37048638 0.33780044
vt 1.15341449 0.28305632
vt 1.37130141 0.28305644
vt 1.15341449 0.25316316
vt 1.37130141 0.25316316
vt 1.15290451 0.32474107
vt 1.37082326 0.32491440
vt 1.15308297 0.31477815
vt 1.37096953 0.31674474
vt 1.15309346 0.31426400
vt 1.37098062 0.31426412
vt 1.15309370 0.28437084
vt 1.37098062 0.28437096
f 1/1 2/2 3/3
f 1/1 3/3 4/4
f 5/5 6/6 7/7
f 6/6 5/5 8/8
f 9/9 10/10 11/11
f 10/10 9/9 12/12
f 13/13 14/14 15/15
f 15/15 14/14 16/16
f 17/17 18/18 19/19
f 19/19 18/18 20/20
f 21/21 22/22 23/23
f 23/23 22/22 24/24

o 008_Material #17_0
usemtl Material_17
v 37.81714820 -1.37704165 5.62233865
v 30.13509020 0.89138141 5.66945598
v 37.81714830 0.98516314 5.62233865
v 28.37685036 -1.33541514 5.62233686
v 30.13509021 0.98516348 5.89792774
v 37.81714820 -1.37704165 5.89792860
v 37.81714830 0.98516314 5.89792860
v 28.37685033 -1.37704112 5.89792680
v 37.81714820 -1.37704165 5.62233865
v 37.81714830 0.98516314 5.62233865
v 37.81714830 0.98516314 5.89792860
v 37.81714820 -1.37704165 5.89792860
v 30.13509021 0.98516348 5.89792774
v 37.81714830 0.98516314 5.89792860
v 30.13509020 0.89138141 5.66945598
v 37.81714830 0.98516314 5.62233865
v 18.13210878 0.98516400 5.62233507
v 18.13210868 -1.37704079 5.62233507
v 18.13210868 -1.37704079 5.89792597
v 18.13210878 0.98516400 5.89792597
v 28.37685033 -1.37704112 5.89792680
v 18.13210868 -1.37704079 5.89792597
v 28.37685036 -1.33541514 5.62233686
v 18.13210868 -1.37704079 5.62233507
v 37.80972872 1.10221713 5.58372247
v 18.16217149 1.87113876 5.58371985
v 37.81428063 1.72794967 5.58372247
v 18.12520991 1.24540634 5.58371985
v 18.16217150 1.87113876 5.89868033
v 37.80972872 1.10221713 5.89868295
v 37.81428064 1.72794967 5.89868295
v 18.12520991 1.24540634 5.89868033
v 37.81428064 1.72794967 5.89868295
v 37.80972872 1.10221713 5.89868295
v 37.81428063 1.72794967 5.58372247
v 37.80972872 1.10221713 5.58372247
v 37.82404727 3.07066898 5.58372247
v 18.13952846 3.19628019 5.58371985
v 18.13952847 3.19628019 5.89868033
v 37.82404727 3.07066898 5.89868295
v 18.16548649 2.32692547 5.89868033
v 18.13952847 3.19628019 5.89868033
v 18.16548649 2.32692547 5.58371985
v 18.13952846 3.19628019 5.58371985
v 37.80972872 1.10221713 5.58372247
v 18.12520991 1.24540634 5.89868033
v 18.12520991 1.24540634 5.58371985
v 37.80972872 1.10221713 5.89868295
v 37.81714840 3.30718641 5.62648046
v 25.70283895 5.60943971 5.70097211
v 37.81714851 5.66939096 5.62648046
v 25.70283885 3.24723516 5.70097211
v 25.70283896 5.60943971 5.97656300
v 37.81714841 3.30718641 5.90207136
v 37.81714851 5.66939096 5.90207136
v 25.70283885 3.24723516 5.97656300
v 37.81714840 3.30718641 5.62648046
v 37.81714851 5.66939096 5.62648046
v 37.81714851 5.66939096 5.90207136
v 37.81714841 3.30718641 5.90207136
v 25.70283896 5.60943971 5.97656300
v 37.81714851 5.66939096 5.90207136
v 25.70283895 5.60943971 5.70097211
v 37.81714851 5.66939096 5.62648046
v 18.17202588 3.33925743 5.62647784
v 18.13210899 5.66939182 5.90206873
v 18.13210899 5.66939182 5.62647784
v 18.13210889 3.30718727 5.90206873
v 25.70283885 3.24723516 5.97656300
v 18.17202588 3.33925743 5.62647784
v 25.70283885 3.24723516 5.70097211
v 18.13210889 3.30718727 5.90206873
v 37.77198216 -1.80674632 5.53591669
v 18.13210860 -3.16473656 5.57226431
v 18.13210867 -1.58993332 5.59000265
v 37.81714812 -3.16473742 5.53591669
v 18.13210860 -3.16473656 5.89024508
v 37.77198217 -1.80674632 5.89024770
v 18.13210867 -1.58993332 5.89024508
v 37.81714812 -3.16473742 5.89024770
v 37.81714812 -3.16473742 5.53591669
v 37.77198216 -1.80674632 5.53591669
v 37.77198217 -1.80674632 5.89024770
v 37.81714812 -3.16473742 5.89024770
v 18.13210867 -1.58993332 5.59000265
v 37.77198217 -1.80674632 5.89024770
v 37.77198216 -1.80674632 5.53591669
v 18.13210867 -1.58993332 5.89024508
v 18.13210867 -1.58993332 5.59000265
v 18.13210860 -3.16473656 5.57226431
v 18.13210860 -3.16473656 5.89024508
v 18.13210867 -1.58993332 5.89024508
v 18.13210860 -3.16473656 5.57226431
v 37.81714812 -3.16473742 5.53591669
v 37.81714812 -3.16473742 5.89024770
v 18.13210860 -3.16473656 5.89024508
v 37.82404727 3.07066898 5.58372247
v 18.16548649 2.32692547 5.58371985
v 18.13952846 3.19628019 5.58371985
v 37.78604045 2.18373613 5.58372247
v 18.16548649 2.32692547 5.89868033
v 37.82404727 3.07066898 5.89868295
v 18.13952847 3.19628019 5.89868033
v 37.78604045 2.18373613 5.89868295
v 37.82404727 3.07066898 5.89868295
v 37.78604045 2.18373613 5.89868295
v 37.82404727 3.07066898 5.58372247
v 37.78604045 2.18373613 5.58372247
v 18.16217149 1.87113876 5.58371985
v 18.16217150 1.87113876 5.89868033
v 18.17202588 3.33925743 5.62647784
v 18.13210899 5.66939182 5.62647784
v 18.13210889 3.30718727 5.90206873
v 18.13210899 5.66939182 5.90206873
v 18.13210899 5.66939182 5.90206873
v 18.13210899 5.66939182 5.62647784
v 37.81714841 3.30718641 5.90207136
v 37.81714840 3.30718641 5.62648046
v 18.12520991 1.24540634 5.89868033
v 18.12520991 1.24540634 5.58371985
v 18.13210878 0.98516400 5.62233507
v 18.13210868 -1.37704079 5.62233507
v 18.13210878 0.98516400 5.89792597
v 18.13210868 -1.37704079 5.89792597
v 18.13210878 0.98516400 5.89792597
v 18.13210878 0.98516400 5.62233507
v 37.81714820 -1.37704165 5.89792860
v 37.81714820 -1.37704165 5.62233865
vt 1.99604666 0.70338750
vt 1.76626801 0.77123857
vt 1.99604666 0.77404356
vt 1.71367717 0.70463264
vt 1.63669729 0.84683841
vt 1.40691853 0.77618241
vt 1.40691853 0.84683841
vt 1.68928814 0.77618241
vt 1.08813703 0.30655676
vt 1.14998281 0.30655676
vt 1.14998281 0.29934138
vt 1.08813703 0.29934138
vt 1.63563776 0.37254876
vt 1.40585911 0.37254876
vt 1.63563776 0.37938255
vt 1.40585911 0.38079196
vt 1.08732414 0.33681947
vt 1.14916992 0.33681947
vt 1.14916992 0.32960421
vt 1.08732414 0.32960421
vt 1.71229041 0.36081916
vt 1.40585911 0.36081916
vt 1.71229041 0.36906236
vt 1.40585911 0.36906248
vt 1.99601674 0.57785493
vt 1.40814638 0.59530765
vt 1.99597621 0.59657174
vt 1.40721750 0.57658172
vt 1.99402106 0.65898597
vt 1.40617180 0.64083397
vt 1.40619016 0.65955079
vt 1.99497223 0.64026129
vt 1.11488974 0.26830238
vt 1.09850717 0.26830238
vt 1.11488974 0.27654845
vt 1.09850717 0.27654845
vt 1.40585911 0.39273530
vt 1.99464417 0.39273542
vt 1.99464417 0.38331455
vt 1.40585911 0.38331443
vt 1.15317392 0.21809202
vt 1.13041294 0.21809202
vt 1.15317392 0.22633821
vt 1.13041294 0.22633821
vt 1.99378693 0.40698677
vt 1.40500188 0.39756590
vt 1.40500188 0.40698677
vt 1.99378693 0.39756590
vt 1.99439764 0.85038584
vt 1.63204575 0.91924870
vt 1.99439764 0.92104191
vt 1.63204575 0.84859258
vt 1.76761961 0.99270809
vt 1.40526760 0.92384523
vt 1.40526760 0.99450129
vt 1.76761961 0.92205197
vt 1.08749712 0.32606763
vt 1.14934289 0.32606763
vt 1.14934289 0.31885225
vt 1.08749712 0.31885225
vt 1.76992583 0.41096002
vt 1.40757370 0.41318804
vt 1.76992583 0.41920322
vt 1.40757370 0.42143124
vt 1.14864731 0.31574887
vt 1.08764112 0.30853349
vt 1.08764112 0.31574887
vt 1.14948690 0.30853349
vt 1.63402247 0.42369014
vt 1.40876770 0.43416148
vt 1.63402247 0.43193334
vt 1.40757370 0.42591828
vt 1.99383175 0.56693900
vt 1.40638208 0.52632010
vt 1.40638208 0.57342410
vt 1.99518275 0.52632010
vt 1.99479246 0.47566539
vt 1.40734291 0.51628447
vt 1.99479246 0.52276945
vt 1.40599191 0.47566539
vt 1.11513615 0.26646978
vt 1.15069020 0.26646978
vt 1.15069020 0.25719291
vt 1.11513615 0.25719291
vt 1.99502349 0.44883007
vt 1.40757370 0.43984944
vt 1.40757370 0.45044786
vt 1.99502349 0.43984944
vt 1.07138312 0.26542622
vt 1.11261344 0.26589066
vt 1.11261344 0.25756544
vt 1.07138312 0.25756544
vt 1.40671647 0.46564686
vt 1.99551702 0.46673405
vt 1.99551702 0.45613557
vt 1.40671647 0.45613575
vt 1.99588943 0.63673496
vt 1.40811682 0.60894096
vt 1.40709519 0.63493574
vt 1.99500299 0.61019635
vt 1.99403441 0.67261946
vt 1.40622914 0.69971406
vt 1.99502516 0.69861555
vt 1.40714717 0.67317653
vt 1.15004396 0.26830238
vt 1.12682295 0.26830238
vt 1.15004396 0.27654845
vt 1.12682295 0.27654845
vt 1.16510701 0.22633821
vt 1.16510701 0.21809202
vt 1.40679097 0.85134512
vt 1.40559697 0.92104191
vt 1.99406826 0.92384523
vt 1.99406826 0.99450129
vt 1.99637437 0.41318816
vt 1.99637437 0.42143136
vt 1.99637437 0.42591816
vt 1.99637437 0.43416137
vt 1.18148971 0.21809202
vt 1.18148971 0.22633821
vt 1.40724599 0.77404356
vt 1.40724599 0.70338750
vt 1.99571919 0.84683841
vt 1.99571919 0.77618241
vt 1.99465966 0.37254876
vt 1.99465966 0.38079208
vt 1.99465966 0.36081916
vt 1.99465966 0.36906236
f 25/25 26/26 27/27
f 26/26 25/25 28/28
f 29/29 30/30 31/31
f 30/30 29/29 32/32
f 33/33 34/34 35/35
f 33/33 35/35 36/36
f 37/37 38/38 39/39
f 40/40 39/39 38/38
f 41/41 42/42 43/43
f 41/41 43/43 44/44
f 45/45 46/46 47/47
f 48/48 47/47 46/46
f 49/49 50/50 51/51
f 50/50 49/49 52/52
f 53/53 54/54 55/55
f 54/54 53/53 56/56
f 57/57 58/58 59/59
f 60/60 59/59 58/58
f 61/61 62/62 63/63
f 61/61 63/63 64/64
f 65/65 66/66 67/67
f 68/68 67/67 66/66
f 69/69 70/70 71/71
f 70/70 69/69 72/72
f 73/73 74/74 75/75
f 74/74 73/73 76/76
f 77/77 78/78 79/79
f 78/78 77/77 80/80
f 81/81 82/82 83/83
f 81/81 83/83 84/84
f 85/85 86/86 87/87
f 88/88 87/87 86/86
f 89/89 90/90 91/91
f 90/90 89/89 92/92
f 93/93 94/94 95/95
f 94/94 93/93 96/96
f 97/97 98/98 99/99
f 98/98 97/97 100/100
f 101/101 102/102 103/103
f 102/102 101/101 104/104
f 105/105 106/106 107/107
f 105/105 107/107 108/108
f 109/109 110/110 111/111
f 110/110 109/109 112/112
f 113/113 114/114 115/115
f 113/113 115/115 116/116
f 117/117 118/118 119/119
f 117/117 119/119 120/120
f 121/121 122/122 123/123
f 122/122 121/121 124/124
f 125/125 126/126 127/127
f 126/126 125/125 128/128
f 129/129 130/130 131/131
f 132/132 131/131 130/130
f 67/67 133/133 65/65
f 133/133 134/134 65/65
f 76/76 135/135 74/74
f 74/74 135/135 136/136
f 137/137 77/77 138/138
f 77/77 137/137 80/80
f 139/139 87/87 140/140
f 87/87 139/139 85/85
f 141/141 95/95 142/142
f 95/95 141/141 93/93
f 50/50 124/124 51/51
f 124/124 50/50 122/122
f 53/53 128/128 125/125
f 128/128 53/53 55/55
f 59/59 132/132 57/57
f 132/132 130/130 57/57
f 143/143 134/134 144/144
f 133/133 144/144 134/134
f 28/28 145/145 26/26
f 145/145 28/28 146/146
f 32/32 147/147 148/148
f 29/29 147/147 32/32
f 149/149 39/39 150/150
f 39/39 149/149 37/37
f 151/151 45/45 152/152
f 47/47 152/152 45/45

o Object008_Material #17_0
usemtl Material_17
v 28.56519127 -3.05210853 16.93392467
v 27.38408852 -3.05210853 16.93392467
v 27.38408852 -3.05210853 16.61108685
v 28.56519127 -3.05210853 16.54022312
v 27.38408852 5.55676770 16.46377659
v 28.56519127 5.55676770 16.85747814
v 28.56519127 5.55676770 16.46377659
v 27.38408852 5.55676770 16.85747814
v 28.56519127 5.55676770 16.85747814
v 28.56519127 -3.05210853 16.54022312
v 28.56519127 5.55676770 16.46377659
v 28.56519127 -3.05210853 16.93392467
v 28.56519127 5.55676770 16.46377659
v 28.56519127 -3.05210853 16.54022312
v 27.38408852 5.55676770 16.46377659
v 27.38408852 -3.05210853 16.61108685
v 27.38408852 5.55676770 16.46377659
v 27.38408852 -3.05210853 16.61108685
v 27.38408852 5.55676770 16.85747814
v 27.38408852 -3.05210853 16.93392467
v 27.38408852 5.55676770 16.85747814
v 27.38408852 -3.05210853 16.93392467
v 28.56519127 5.55676770 16.85747814
v 28.56519127 -3.05210853 16.93392467
vt 0.34816015 0.16341549
vt 0.37805334 0.16341549
vt 0.37805334 0.15524465
vt 0.34816015 0.15345114
vt 0.40890628 0.16339427
vt 0.37901306 0.15342993
vt 0.37901306 0.16339427
vt 0.40890628 0.15342993
vt 0.15259092 0.33769256
vt 0.37040281 0.32783645
vt 0.15250738 0.32772857
vt 0.37048638 0.33780044
vt 0.15341452 0.28305632
vt 0.37130147 0.28305644
vt 0.15341452 0.25316316
vt 0.37130147 0.25316316
vt 0.15290450 0.32474107
vt 0.37082329 0.32491440
vt 0.15308301 0.31477815
vt 0.37096959 0.31674474
vt 0.15309350 0.31426400
vt 0.37098065 0.31426412
vt 0.15309370 0.28437084
vt 0.37098065 0.28437096
f 153/153 154/154 155/155
f 153/153 155/155 156/156
f 157/157 158/158 159/159
f 158/158 157/157 160/160
f 161/161 162/162 163/163
f 162/162 161/161 164/164
f 165/165 166/166 167/167
f 167/167 166/166 168/168
f 169/169 170/170 171/171
f 171/171 170/170 172/172
f 173/173 174/174 175/175
f 175/175 174/174 176/176

o Object004_Material #17_0
usemtl Material_17
v 37.45876765 3.38196018 5.89866430
v 37.45877007 3.44201102 9.54233963
v 37.45876800 5.54731443 5.89866430
v 37.73836887 5.54731438 5.89866439
v 37.73836851 3.38196013 5.89866439
v 37.45876765 3.38196018 5.89866430
v 37.45876800 5.54731443 5.89866430
v 37.73836887 5.54731438 5.89866439
v 37.45876932 5.58854070 13.02899081
v 37.77373172 5.58854065 13.02899103
v 37.45876800 5.54731443 5.89866430
v 37.77373051 5.56699774 16.86914818
v 37.45877132 3.47030809 16.92228682
v 37.77373015 3.47030804 16.92228691
v 37.45877167 5.63566234 16.92228682
v 37.77373490 3.49049442 13.13096576
v 37.45877132 3.47030809 16.92228682
v 37.45877251 3.49049444 13.13096530
v 37.77373015 3.47030804 16.92228691
v 37.45876729 1.17378499 5.89866430
v 37.45877095 1.17378452 16.89291365
v 37.45877126 3.05450466 16.89291365
v 37.45876761 3.14228895 5.89866430
v 37.81310173 3.05450460 16.89291376
v 37.74242096 1.17378495 5.89866439
v 37.81310163 3.14228889 5.89866441
v 37.81310142 1.17378446 16.89291376
v 37.74242096 1.17378495 5.89866439
v 37.45876761 3.14228895 5.89866430
v 37.81310163 3.14228889 5.89866441
v 37.45876729 1.17378499 5.89866430
v 37.81310163 3.14228889 5.89866441
v 37.45877126 3.05450466 16.89291365
v 37.81310173 3.05450460 16.89291376
v 37.45876761 3.14228895 5.89866430
v 37.81310142 1.17378446 16.89291376
v 37.81310173 3.05450460 16.89291376
v 37.45877126 3.05450466 16.89291365
v 37.45877095 1.17378452 16.89291365
v 37.74242096 1.17378495 5.89866439
v 37.81310142 1.17378446 16.89291376
v 37.45877095 1.17378452 16.89291365
v 37.45876729 1.17378499 5.89866430
v 37.45877075 -0.04738734 16.89156229
v 37.45876689 -1.27861617 5.89866383
v 37.45877054 -1.27861712 16.92228634
v 37.45876708 -0.04738638 5.92387182
v 37.69498988 -0.04738738 16.89156236
v 37.69498957 -1.27861621 5.89866390
v 37.69498976 -0.04738642 5.92387190
v 37.69498967 -1.27861716 16.92228641
v 37.69498957 -1.27861621 5.89866390
v 37.45876708 -0.04738638 5.92387182
v 37.69498976 -0.04738642 5.92387190
v 37.45876689 -1.27861617 5.89866383
v 37.69498992 0.88673757 5.89866438
v 37.45877090 0.83274438 16.86769278
v 37.69499003 0.83274434 16.86769285
v 37.45876724 0.88673761 5.89866430
v 37.69499003 0.83274434 16.86769285
v 37.45877081 0.22040489 16.84680731
v 37.69498994 0.22040485 16.84680738
v 37.45877090 0.83274438 16.86769278
v 37.69498957 -1.27861621 5.89866390
v 37.69498967 -1.27861716 16.92228641
v 37.45877054 -1.27861712 16.92228634
v 37.45876689 -1.27861617 5.89866383
v 37.39175335 -1.46603128 11.22038083
v 37.45876657 -3.21099494 5.89866383
v 37.39175272 -3.21099540 12.31992905
v 37.45876684 -1.43934176 5.94755299
v 37.67033656 -1.50704695 11.22038090
v 37.77372897 -3.21099499 5.89866392
v 37.75268596 -1.43934181 5.94755308
v 37.70671155 -3.21099545 12.31992915
v 37.75268596 -1.43934181 5.94755308
v 37.77372897 -3.21099499 5.89866392
v 37.45876657 -3.21099494 5.89866383
v 37.45876684 -1.43934176 5.94755299
v 37.67033656 -1.50704695 11.22038090
v 37.45876684 -1.43934176 5.94755299
v 37.39175335 -1.46603128 11.22038083
v 37.75268596 -1.43934181 5.94755308
v 37.77372906 -3.21099594 16.92228644
v 37.77372935 -1.43934277 16.92228644
v 37.45877052 -1.43934271 16.92228634
v 37.45877023 -3.21099589 16.92228634
v 37.70671155 -3.21099545 12.31992915
v 37.45877023 -3.21099589 16.92228634
v 37.39175272 -3.21099540 12.31992905
v 37.77372906 -3.21099594 16.92228644
v 37.45876903 3.70793279 13.00425822
v 37.45877167 5.63566234 16.92228682
v 37.45876906 3.83145515 12.96981234
v 37.77373172 5.58854065 13.02899103
v 37.77341488 4.09736625 12.76489191
v 37.77310179 4.13720128 12.66862051
v 37.77373051 5.56699774 16.86914818
v 37.45877167 5.63566234 16.92228682
v 37.45876712 0.22040536 5.92387182
v 37.45877081 0.22040489 16.84680731
v 37.45877090 0.83274438 16.86769278
v 37.45876724 0.88673761 5.89866430
v 37.69499003 0.83274434 16.86769285
v 37.69498981 0.22040533 5.92387190
v 37.69498992 0.88673757 5.89866438
v 37.69498994 0.22040485 16.84680738
v 37.69498981 0.22040533 5.92387190
v 37.45876724 0.88673761 5.89866430
v 37.69498992 0.88673757 5.89866438
v 37.45876712 0.22040536 5.92387182
v 37.45877075 -0.04738734 16.89156229
v 37.69498988 -0.04738738 16.89156236
v 37.45877054 -1.27861712 16.92228634
v 37.69498967 -1.27861716 16.92228641
v 37.45877052 -1.43934271 16.92228634
v 37.45877023 -3.21099589 16.92228634
v 37.77372906 -3.21099594 16.92228644
v 37.77372935 -1.43934277 16.92228644
v 37.45877052 -1.43934271 16.92228634
v 37.77372935 -1.43934277 16.92228644
v 37.45876657 -3.21099494 5.89866383
v 37.77372897 -3.21099499 5.89866392
v 37.73836851 3.38196013 5.89866439
v 37.45877007 3.44201102 9.54233963
v 37.45876765 3.38196018 5.89866430
v 37.75766357 3.44201102 9.54233996
v 37.75950669 4.13905791 10.02344505
v 37.73836887 5.54731438 5.89866439
v 37.76030724 4.16844067 10.17725114
v 37.75816172 3.70953900 9.68361430
v 37.45877008 3.83134592 9.71910364
v 37.45877007 3.70953904 9.68361408
v 37.75819731 3.83134594 9.71910397
v 37.75804072 3.52582255 9.64856295
v 37.45877717 3.52582260 9.64856286
v 37.45877318 4.17988058 11.34376498
v 37.76290814 4.17988047 10.67792778
v 37.76630959 4.17988047 11.34376495
v 37.45876983 4.17988052 10.67792786
v 37.77372075 3.70793268 13.00425856
v 37.45876906 3.83145515 12.96981234
v 37.77373857 3.83145510 12.96981256
v 37.45876903 3.70793279 13.00425822
v 37.45877256 3.59911591 13.02186305
v 37.77373140 3.59911588 13.02186363
v 37.77341488 4.09736625 12.76489191
v 37.45877269 4.03090584 12.84443814
v 37.45876916 4.09736633 12.76489181
v 37.77360699 4.03090579 12.84443824
v 37.75865987 4.03350297 9.84286610
v 37.45877006 4.09842312 9.92634005
v 37.45877007 4.03350302 9.84286601
v 37.75904059 4.09842304 9.92634014
v 37.45876909 3.94467580 12.91392667
v 37.77371725 3.94467575 12.91392677
v 37.76970391 4.17988053 12.00960211
v 37.45876936 4.18205764 12.18112326
v 37.45877297 4.17988064 12.00960214
v 37.77063967 4.18205765 12.18112324
v 37.76114693 4.17705289 10.33531718
v 37.45876994 4.17705288 10.33531708
v 37.75833964 3.94599170 9.77366499
v 37.45877008 3.94599169 9.77366478
v 37.77155763 4.17705301 12.35221271
v 37.45876925 4.16857835 12.51452798
v 37.45876931 4.17705294 12.35221273
v 37.77240799 4.16857830 12.51452808
v 37.76030724 4.16844067 10.17725114
v 37.45876999 4.16844072 10.17725117
v 37.45877003 4.13905808 10.02344508
v 37.75950669 4.13905791 10.02344505
v 37.45876920 4.13720145 12.66862030
v 37.77310179 4.13720128 12.66862051
v 37.77373493 3.52684519 13.05989270
v 37.45877254 3.52684523 13.05989213
v 37.45877005 3.47184471 9.61190743
v 37.75789840 3.47184471 9.61190764
v 37.75789840 3.47184471 9.61190764
v 37.45877005 3.47184471 9.61190743
v 37.45877254 3.52684523 13.05989213
v 37.77373493 3.52684519 13.05989270
v 37.77240799 4.16857830 12.51452808
v 37.77155763 4.17705301 12.35221271
v 37.77063967 4.18205765 12.18112324
v 37.76970391 4.17988053 12.00960211
v 37.77373051 5.56699774 16.86914818
v 37.77371725 3.94467575 12.91392677
v 37.77360699 4.03090579 12.84443824
v 37.76630959 4.17988047 11.34376495
v 37.76290814 4.17988047 10.67792778
v 37.76114693 4.17705289 10.33531718
v 37.75904059 4.09842304 9.92634014
v 37.75865987 4.03350297 9.84286610
v 37.75833964 3.94599170 9.77366499
v 37.75819731 3.83134594 9.71910397
v 37.75816172 3.70953900 9.68361430
v 37.75804072 3.52582255 9.64856295
v 37.75789840 3.47184471 9.61190764
v 37.75766357 3.44201102 9.54233996
v 37.73836851 3.38196013 5.89866439
v 37.77373140 3.59911588 13.02186363
v 37.77372075 3.70793268 13.00425856
v 37.77373857 3.83145510 12.96981256
v 37.77373490 3.49049442 13.13096576
v 37.77373493 3.52684519 13.05989270
v 37.77373015 3.47030804 16.92228691
v 37.45876925 4.16857835 12.51452798
v 37.45876920 4.13720145 12.66862030
v 37.45876932 5.58854070 13.02899081
v 37.45876931 4.17705294 12.35221273
v 37.45876936 4.18205764 12.18112326
v 37.45877297 4.17988064 12.00960214
v 37.45876916 4.09736633 12.76489181
v 37.45877269 4.03090584 12.84443814
v 37.45876909 3.94467580 12.91392667
v 37.45877256 3.59911591 13.02186305
v 37.45877254 3.52684523 13.05989213
v 37.45877251 3.49049444 13.13096530
v 37.45877132 3.47030809 16.92228682
v 37.45877318 4.17988058 11.34376498
v 37.45876983 4.17988052 10.67792786
v 37.45876999 4.16844072 10.17725117
v 37.45876994 4.17705288 10.33531708
v 37.45877003 4.13905808 10.02344508
v 37.45877006 4.09842312 9.92634005
v 37.45877007 4.03350302 9.84286601
v 37.45877008 3.94599169 9.77366478
v 37.45877008 3.83134592 9.71910364
v 37.45877007 3.70953904 9.68361408
v 37.45877005 3.47184471 9.61190743
v 37.45877717 3.52582260 9.64856286
v 18.47501134 3.37928271 16.92228324
v 18.47500894 3.43933356 13.27860803
v 18.47501169 5.54463698 16.92228324
v 18.47501134 3.37928271 16.92228324
v 18.47501169 5.54463698 16.92228324
v 18.19541083 5.54463691 16.92228315
v 18.19541047 3.37928267 16.92228315
v 18.16004799 5.58586318 9.79195663
v 18.19541083 5.54463691 16.92228315
v 18.47501038 5.58586325 9.79195685
v 18.47501169 5.54463698 16.92228324
v 18.47500770 3.46763063 5.89866073
v 18.16004919 5.56432027 5.95179936
v 18.47500805 5.63298489 5.89866073
v 18.16004886 3.46763057 5.89866063
v 18.16004412 3.48781695 9.68998191
v 18.47500770 3.46763063 5.89866073
v 18.47500651 3.48781698 9.68998236
v 18.16004886 3.46763057 5.89866063
v 18.47500762 3.05182721 5.92803390
v 18.47501130 3.13961147 16.92228324
v 18.47501098 1.17110755 16.92228324
v 18.47500732 1.17110707 5.92803390
v 18.12067727 3.13961144 16.92228313
v 18.12067715 3.05182715 5.92803379
v 18.19135731 1.17110759 16.92228315
v 18.12067685 1.17110689 5.92803379
v 18.47501130 3.13961147 16.92228324
v 18.19135731 1.17110759 16.92228315
v 18.47501098 1.17110755 16.92228324
v 18.12067727 3.13961144 16.92228313
v 18.47500762 3.05182721 5.92803390
v 18.12067727 3.13961144 16.92228313
v 18.47501130 3.13961147 16.92228324
v 18.12067715 3.05182715 5.92803379
v 18.47500732 1.17110707 5.92803390
v 18.12067715 3.05182715 5.92803379
v 18.47500762 3.05182721 5.92803390
v 18.12067685 1.17110689 5.92803379
v 18.47500732 1.17110707 5.92803390
v 18.47501098 1.17110755 16.92228324
v 18.19135731 1.17110759 16.92228315
v 18.12067685 1.17110689 5.92803379
v 18.47500712 -0.05006479 5.92938525
v 18.47501414 -1.28129385 16.92228372
v 18.47500693 -1.28129481 5.89866120
v 18.47501435 -0.05006383 16.89707572
v 18.23879145 -1.28129381 16.92228364
v 18.23878799 -0.05006475 5.92938518
v 18.23878780 -1.28129477 5.89866113
v 18.23879166 -0.05006379 16.89707565
v 18.23879166 -0.05006379 16.89707565
v 18.23879145 -1.28129381 16.92228364
v 18.47501435 -0.05006383 16.89707572
v 18.47501414 -1.28129385 16.92228372
v 18.47500725 0.83006694 5.95325477
v 18.23878825 0.88406020 16.92228317
v 18.47501093 0.88406016 16.92228324
v 18.23878813 0.83006697 5.95325469
v 18.23878802 0.21772748 5.97414016
v 18.23878813 0.83006697 5.95325469
v 18.47500715 0.21772744 5.97414024
v 18.47500725 0.83006694 5.95325477
v 18.47500693 -1.28129481 5.89866120
v 18.47501414 -1.28129385 16.92228372
v 18.23879145 -1.28129381 16.92228364
v 18.23878780 -1.28129477 5.89866113
v 18.47501383 -3.21367262 16.92228372
v 18.54202406 -1.46870851 11.60056676
v 18.47501413 -1.44201945 16.87339456
v 18.54202768 -3.21367263 10.50101855
v 18.16005143 -3.21367257 16.92228362
v 18.26344083 -1.50972457 11.60056673
v 18.22706884 -3.21367306 10.50101851
v 18.18109501 -1.44201940 16.87339446
v 18.47501383 -3.21367262 16.92228372
v 18.47501413 -1.44201945 16.87339456
v 18.18109501 -1.44201940 16.87339446
v 18.16005143 -3.21367257 16.92228362
v 18.26344083 -1.50972457 11.60056673
v 18.47501413 -1.44201945 16.87339456
v 18.54202406 -1.46870851 11.60056676
v 18.18109501 -1.44201940 16.87339446
v 18.16004777 -3.21367352 5.89866111
v 18.47500690 -1.44202040 5.89866120
v 18.47500661 -3.21367357 5.89866120
v 18.16004806 -1.44202035 5.89866111
v 18.22706884 -3.21367306 10.50101851
v 18.47500661 -3.21367357 5.89866120
v 18.54202768 -3.21367263 10.50101855
v 18.16004777 -3.21367352 5.89866111
v 18.47501007 3.70525532 9.81668944
v 18.47500805 5.63298489 5.89866073
v 18.47501008 3.82877769 9.85113532
v 18.16004799 5.58586318 9.79195663
v 18.16036434 4.09468878 10.05605575
v 18.16067744 4.13452382 10.15232715
v 18.16004919 5.56432027 5.95179936
v 18.47500805 5.63298489 5.89866073
v 18.47500725 0.83006694 5.95325477
v 18.47501093 0.88406016 16.92228324
v 18.47501439 0.21772792 16.89707572
v 18.47500715 0.21772744 5.97414024
v 18.23879171 0.21772795 16.89707565
v 18.23878813 0.83006697 5.95325469
v 18.23878802 0.21772748 5.97414016
v 18.23878825 0.88406020 16.92228317
v 18.23878825 0.88406020 16.92228317
v 18.23879171 0.21772795 16.89707565
v 18.47501093 0.88406016 16.92228324
v 18.47501439 0.21772792 16.89707572
v 18.23878799 -0.05006475 5.92938518
v 18.47500712 -0.05006479 5.92938525
v 18.23878780 -1.28129477 5.89866113
v 18.47500693 -1.28129481 5.89866120
v 18.47500690 -1.44202040 5.89866120
v 18.47500661 -3.21367357 5.89866120
v 18.16004806 -1.44202035 5.89866111
v 18.16004777 -3.21367352 5.89866111
v 18.16004806 -1.44202035 5.89866111
v 18.47500690 -1.44202040 5.89866120
v 18.16005143 -3.21367257 16.92228362
v 18.47501383 -3.21367262 16.92228372
v 18.19541047 3.37928267 16.92228315
v 18.47500894 3.43933356 13.27860803
v 18.47501134 3.37928271 16.92228324
v 18.17611543 3.43933355 13.27860770
v 18.17427254 4.13638044 12.79750261
v 18.19541083 5.54463691 16.92228315
v 18.17347200 4.16576321 12.64369652
v 18.47500906 3.82866846 13.10184402
v 18.17561737 3.70686154 13.13733337
v 18.17558182 3.82866847 13.10184369
v 18.47500902 3.70686158 13.13733358
v 18.17573831 3.52314509 13.17238471
v 18.47500187 3.52314513 13.17238481
v 18.47500606 4.17720314 11.47718263
v 18.17087110 4.17720301 12.14301989
v 18.16746966 4.17720301 11.47718270
v 18.47500941 4.17720308 12.14301974
v 18.47501007 3.70525532 9.81668944
v 18.47501008 3.82877769 9.85113532
v 18.16005835 3.70525522 9.81668910
v 18.16004056 3.82877763 9.85113510
v 18.47500650 3.59643845 9.79908461
v 18.16004766 3.59643841 9.79908404
v 18.47500651 4.02822836 9.97650952
v 18.16036434 4.09468878 10.05605575
v 18.16017221 4.02822832 9.97650942
v 18.47501005 4.09468885 10.05605585
v 18.47500916 4.09574564 12.89460761
v 18.17511932 4.03082550 12.97808156
v 18.17473863 4.09574557 12.89460752
v 18.47500913 4.03082554 12.97808165
v 18.47501008 3.94199832 9.90702099
v 18.16006191 3.94199828 9.90702090
v 18.47500989 4.17938020 10.63982434
v 18.16407533 4.17720307 10.81134555
v 18.16313958 4.17938019 10.63982442
v 18.47500627 4.17720320 10.81134547
v 18.17263231 4.17437542 12.48563049
v 18.47500931 4.17437543 12.48563058
v 18.17543953 3.94331423 13.04728267
v 18.47500909 3.94331421 13.04728288
v 18.47500999 4.16590090 10.30641968
v 18.16222161 4.17437554 10.46873495
v 18.16137125 4.16590083 10.30641958
v 18.47500994 4.17437549 10.46873487
v 18.17347200 4.16576321 12.64369652
v 18.47500925 4.16576328 12.64369650
v 18.47500920 4.13638063 12.79750259
v 18.17427254 4.13638044 12.79750261
v 18.47501003 4.13452400 10.15232737
v 18.16067744 4.13452382 10.15232715
v 18.16004410 3.52416773 9.76105496
v 18.47500650 3.52416777 9.76105554
v 18.47500896 3.46916725 13.20904023
v 18.17588062 3.46916724 13.20904002
v 18.17588062 3.46916724 13.20904002
v 18.47500896 3.46916725 13.20904023
v 18.47500650 3.52416777 9.76105554
v 18.16004410 3.52416773 9.76105496
v 18.16137125 4.16590083 10.30641958
v 18.16222161 4.17437554 10.46873495
v 18.16313958 4.17938019 10.63982442
v 18.16407533 4.17720307 10.81134555
v 18.16004919 5.56432027 5.95179936
v 18.16006191 3.94199828 9.90702090
v 18.16017221 4.02822832 9.97650942
v 18.16746966 4.17720301 11.47718270
v 18.17087110 4.17720301 12.14301989
v 18.17263231 4.17437542 12.48563049
v 18.17473863 4.09574557 12.89460752
v 18.17511932 4.03082550 12.97808156
v 18.17543953 3.94331423 13.04728267
v 18.17558182 3.82866847 13.10184369
v 18.17561737 3.70686154 13.13733337
v 18.17573831 3.52314509 13.17238471
v 18.17588062 3.46916724 13.20904002
v 18.17611543 3.43933355 13.27860770
v 18.19541047 3.37928267 16.92228315
v 18.16004766 3.59643841 9.79908404
v 18.16005835 3.70525522 9.81668910
v 18.16004056 3.82877763 9.85113510
v 18.16004412 3.48781695 9.68998191
v 18.16004410 3.52416773 9.76105496
v 18.16004886 3.46763057 5.89866063
v 18.47500999 4.16590090 10.30641968
v 18.47501003 4.13452400 10.15232737
v 18.47501038 5.58586325 9.79195685
v 18.47500994 4.17437549 10.46873487
v 18.47500989 4.17938020 10.63982434
v 18.47500627 4.17720320 10.81134547
v 18.47501005 4.09468885 10.05605585
v 18.47500651 4.02822836 9.97650952
v 18.47501008 3.94199832 9.90702099
v 18.47500650 3.59643845 9.79908461
v 18.47500650 3.52416777 9.76105554
v 18.47500651 3.48781698 9.68998236
v 18.47500770 3.46763063 5.89866073
v 18.47500606 4.17720314 11.47718263
v 18.47500941 4.17720308 12.14301974
v 18.47500925 4.16576328 12.64369650
v 18.47500931 4.17437543 12.48563058
v 18.47500920 4.13638063 12.79750259
v 18.47500916 4.09574564 12.89460761
v 18.47500913 4.03082554 12.97808165
v 18.47500909 3.94331421 13.04728288
v 18.47500906 3.82866846 13.10184402
v 18.47500902 3.70686158 13.13733358
v 18.47500896 3.46916725 13.20904023
v 18.47500187 3.52314513 13.17238481
vt 1.00635135 0.77619720
vt 1.13683534 0.77404672
vt 1.00635135 0.69865346
vt 1.15145242 0.27921861
vt 1.07390928 0.27921861
vt 1.07390928 0.28458601
vt 1.15145242 0.28458601
vt 1.00757217 0.37221032
vt 1.26474655 0.37761599
vt 1.26474655 0.37152678
vt 1.00757217 0.37761623
vt 1.17931402 0.23460931
vt 1.10327840 0.22848672
vt 1.10327840 0.23460931
vt 1.18180418 0.22848672
vt 1.86115611 0.15297788
vt 1.99781346 0.14689237
vt 1.86115611 0.14689237
vt 1.99781346 0.15297788
vt 1.00920737 0.61139870
vt 1.40292335 0.61139894
vt 1.40292335 0.54404819
vt 1.00920737 0.54090428
vt 1.00720930 0.86203033
vt 1.40094447 0.92938435
vt 1.40094447 0.85888648
vt 1.00720930 0.92938423
vt 1.11040056 0.23747748
vt 1.18089485 0.24292260
vt 1.18089485 0.23612052
vt 1.11040056 0.24292260
vt 1.00822747 0.68033373
vt 1.40195191 0.68713558
vt 1.40195191 0.68033373
vt 1.00822747 0.68713570
vt 1.14925575 0.28701884
vt 1.08190513 0.28701872
vt 1.08190513 0.29382044
vt 1.14925575 0.29382056
vt 1.40425158 0.34260100
vt 1.01053476 0.34124404
vt 1.01053476 0.34804589
vt 1.40425158 0.34804612
vt 1.00794327 0.50406373
vt 1.40161121 0.45997208
vt 1.00684273 0.45997196
vt 1.40070844 0.50406373
vt 1.40069306 0.42442685
vt 1.00702536 0.38033491
vt 1.00792813 0.42442685
vt 1.40179324 0.38033515
vt 1.78585529 0.16102177
vt 1.74175608 0.15648645
vt 1.74175608 0.16102177
vt 1.78585529 0.15648645
vt 1.00876248 0.68876088
vt 1.40157843 0.69329548
vt 1.40157843 0.68876100
vt 1.00876248 0.69329560
vt 1.10499012 0.24590963
vt 1.12694204 0.25044900
vt 1.12694204 0.24590963
vt 1.10499012 0.25044900
vt 1.40446353 0.34974116
vt 1.00970185 0.34974104
vt 1.00970185 0.35427564
vt 1.40446353 0.35427564
vt 1.19690895 0.93377900
vt 1.00632954 0.99626875
vt 1.23628533 0.99626881
vt 1.00808048 0.93282324
vt 1.19721031 0.67542005
vt 1.00662696 0.61439741
vt 1.00837767 0.67784464
vt 1.23658788 0.61439741
vt 1.64066839 0.15620703
vt 1.57721162 0.15580291
vt 1.57721162 0.16185015
vt 1.64066839 0.16185027
vt 1.21328974 0.36861247
vt 1.40378106 0.36451524
vt 1.21328974 0.36321729
vt 1.40378106 0.37020713
vt 1.70638490 0.15543360
vt 1.64294052 0.15543360
vt 1.64294052 0.16147953
vt 1.70638490 0.16147953
vt 1.23946500 0.36126977
vt 1.40428090 0.35651046
vt 1.23946500 0.35522360
vt 1.40428090 0.36255640
vt 1.26081049 0.76452380
vt 1.40111959 0.69548970
vt 1.25957704 0.76010031
vt 1.26158309 0.85637301
vt 1.25212550 0.80297238
vt 1.24867785 0.80439889
vt 1.40325212 0.37152678
vt 1.40516877 0.37761599
vt 1.40070844 0.51365387
vt 1.00954592 0.51365364
vt 1.00879776 0.53558218
vt 1.40161109 0.53751576
vt 1.39983821 0.45594543
vt 1.00792813 0.43401664
vt 1.00702536 0.45787877
vt 1.39909017 0.43401664
vt 1.73216450 0.16102177
vt 1.70829821 0.15648645
vt 1.70829821 0.16102177
vt 1.73216450 0.15648645
vt 1.13654208 0.25044900
vt 1.13654208 0.24590975
vt 1.18068051 0.25044900
vt 1.18068051 0.24590975
vt 1.40110326 0.93282330
vt 1.40110326 0.99626899
vt 1.40140915 0.61439753
vt 1.40140915 0.67784476
vt 1.00729704 0.36451524
vt 1.00729704 0.37061471
vt 1.00951242 0.35651010
vt 1.00951242 0.36255616
vt 1.57659066 0.15229446
vt 1.70794511 0.14689225
vt 1.57659066 0.14689213
vt 1.70794511 0.15266734
vt 1.15395093 0.80446547
vt 1.00623763 0.85489672
vt 1.15945888 0.80551773
vt 1.71941864 0.15267688
vt 1.72399163 0.14689237
vt 1.71941864 0.14689225
vt 1.72399187 0.15267760
vt 1.71270752 0.15267450
vt 1.71270752 0.14689237
vt 1.78633451 0.14689237
vt 1.76233482 0.15276879
vt 1.78633451 0.15283448
vt 1.76233482 0.14689237
vt 1.85206711 0.15297765
vt 1.84761465 0.14689237
vt 1.84761465 0.15297788
vt 1.85206711 0.14689237
vt 1.85598946 0.14689237
vt 1.85598946 0.15297776
vt 1.83755851 0.15297180
vt 1.84042549 0.14689237
vt 1.83755851 0.14689237
vt 1.84042549 0.15297538
vt 1.73223543 0.15268654
vt 1.73524404 0.14689237
vt 1.73223543 0.14689237
vt 1.73524404 0.15269393
vt 1.84353364 0.14689237
vt 1.84353364 0.15297765
vt 1.81033432 0.15290004
vt 1.81651664 0.14689237
vt 1.81033432 0.14689237
vt 1.81651664 0.15291816
vt 1.74998546 0.15273470
vt 1.74998546 0.14689237
vt 1.72850943 0.15268034
vt 1.72850943 0.14689237
vt 1.82268357 0.15293580
vt 1.82853413 0.14689237
vt 1.82268357 0.14689237
vt 1.82853413 0.15295225
vt 1.74428809 0.15271837
vt 1.74428809 0.14689237
vt 1.73874426 0.14689237
vt 1.73874426 0.15270299
vt 1.83408833 0.14689237
vt 1.83408833 0.15296572
vt 1.85859454 0.15297776
vt 1.85859442 0.14689237
vt 1.71046996 0.14689225
vt 1.71046996 0.15267175
vt 1.71046996 0.15267175
vt 1.71046996 0.14689225
vt 1.85859442 0.14689237
vt 1.85859454 0.15297776
vt 1.24315965 0.80552256
vt 1.23734677 0.80582613
vt 1.23122001 0.80600530
vt 1.22507763 0.80592734
vt 1.39910352 0.85560161
vt 1.25746238 0.79750437
vt 1.25497413 0.80059236
vt 1.20123315 0.80592734
vt 1.17738891 0.80592734
vt 1.16511941 0.80582613
vt 1.15047348 0.80301023
vt 1.14748406 0.80068547
vt 1.14500594 0.79755157
vt 1.14305210 0.79344583
vt 1.14178109 0.78908384
vt 1.14052594 0.78250468
vt 1.13921332 0.78057176
vt 1.13672185 0.77950335
vt 1.00623786 0.77735281
vt 1.26132786 0.78512949
vt 1.26069748 0.78902638
vt 1.25946379 0.79344970
vt 1.26523495 0.78123957
vt 1.26268971 0.78254133
vt 1.40100646 0.78051686
vt 1.24327278 0.74802756
vt 1.24879110 0.74915123
vt 1.26169634 0.69717717
vt 1.23746014 0.74772418
vt 1.23133326 0.74754488
vt 1.22519088 0.74762285
vt 1.25223863 0.75057781
vt 1.25508726 0.75295776
vt 1.25757575 0.75604576
vt 1.26144099 0.76842064
vt 1.26280284 0.77100879
vt 1.26534808 0.77231055
vt 1.40111959 0.77303344
vt 1.20134652 0.74762285
vt 1.17750204 0.74762285
vt 1.15957224 0.74803245
vt 1.16523278 0.74772418
vt 1.15406430 0.74908471
vt 1.15058684 0.75053984
vt 1.14759755 0.75286478
vt 1.14511943 0.75599861
vt 1.14316535 0.76010430
vt 1.14189458 0.76446623
vt 1.13932657 0.77297831
vt 1.14063919 0.77104533
vt 0.00635134 0.77619725
vt 0.13683528 0.77404684
vt 0.00635134 0.69865346
vt 0.15145244 0.27921861
vt 0.07390923 0.27921861
vt 0.07390923 0.28458601
vt 0.15145244 0.28458601
vt 0.26474634 0.37152678
vt 0.00757218 0.37221032
vt 0.26474634 0.37761623
vt 0.00757218 0.37761599
vt 0.10327824 0.22848660
vt 0.17931412 0.23460931
vt 0.18180421 0.22848672
vt 0.10327824 0.23460919
vt 0.86116356 0.15297788
vt 0.99782127 0.14689237
vt 0.86116344 0.14689237
vt 0.99782127 0.15297776
vt 0.40292332 0.54404807
vt 0.00920722 0.54090428
vt 0.00920722 0.61139858
vt 0.40292332 0.61139870
vt 0.40094459 0.85888648
vt 0.00720941 0.86203015
vt 0.40094456 0.92938435
vt 0.00720941 0.92938411
vt 0.18089494 0.24292260
vt 0.11040029 0.23747748
vt 0.11040029 0.24292248
vt 0.18089479 0.23612052
vt 0.00822970 0.68033373
vt 0.40194952 0.68713570
vt 0.40194952 0.68033361
vt 0.00822970 0.68713570
vt 0.08190504 0.28701872
vt 0.14925581 0.29382044
vt 0.14925596 0.28701884
vt 0.08190476 0.29382044
vt 0.01053467 0.34804589
vt 0.40425146 0.34804612
vt 0.40425146 0.34260100
vt 0.01053467 0.34124404
vt 0.00794312 0.50406373
vt 0.40161094 0.45997208
vt 0.00684286 0.45997185
vt 0.40070820 0.50406384
vt 0.00702521 0.38033491
vt 0.40069315 0.42442685
vt 0.40179342 0.38033515
vt 0.00792796 0.42442685
vt 0.74175608 0.16102177
vt 0.78585571 0.16102177
vt 0.74175608 0.15648645
vt 0.78585571 0.15648645
vt 0.00876242 0.68876106
vt 0.40157837 0.69329572
vt 0.40157837 0.68876100
vt 0.00876242 0.69329560
vt 0.12694199 0.24590963
vt 0.10499007 0.24590963
vt 0.12694199 0.25044900
vt 0.10499007 0.25044900
vt 0.40446603 0.34974128
vt 0.00969945 0.34974104
vt 0.00969945 0.35427564
vt 0.40446603 0.35427588
vt 0.00632988 0.99626893
vt 0.19690900 0.93377900
vt 0.00808079 0.93282324
vt 0.23628545 0.99626899
vt 0.00662695 0.61439741
vt 0.19721025 0.67542005
vt 0.23658788 0.61439741
vt 0.00837771 0.67784464
vt 0.57721162 0.16185015
vt 0.64066833 0.16185027
vt 0.64066833 0.15620703
vt 0.57721162 0.15580291
vt 0.21328971 0.36861247
vt 0.40378025 0.36451513
vt 0.21328971 0.36321729
vt 0.40378025 0.37020701
vt 0.64293998 0.16147953
vt 0.70638555 0.15543360
vt 0.64293998 0.15543360
vt 0.70638555 0.16147953
vt 0.23946550 0.36126977
vt 0.40428275 0.35651046
vt 0.23946550 0.35522383
vt 0.40428275 0.36255640
vt 0.26081055 0.76452386
vt 0.40111947 0.69548970
vt 0.25957710 0.76010036
vt 0.26158303 0.85637301
vt 0.25212544 0.80297238
vt 0.24867782 0.80439907
vt 0.40325218 0.37152702
vt 0.40516877 0.37761623
vt 0.00879790 0.53558218
vt 0.40161085 0.53751576
vt 0.40070820 0.51365387
vt 0.00954577 0.51365364
vt 0.00792796 0.43401676
vt 0.39983827 0.45594525
vt 0.39909041 0.43401688
vt 0.00702521 0.45787877
vt 0.70829779 0.16102201
vt 0.73216432 0.16102177
vt 0.70829779 0.15648645
vt 0.73216432 0.15648645
vt 0.13654205 0.24590975
vt 0.13654205 0.25044900
vt 0.18068077 0.24590975
vt 0.18068077 0.25044900
vt 0.40110317 0.93282330
vt 0.40110317 0.99626899
vt 0.40140912 0.67784476
vt 0.40140915 0.61439753
vt 0.00729800 0.37061471
vt 0.00729800 0.36451513
vt 0.00951066 0.36255628
vt 0.00951066 0.35651022
vt 0.57659471 0.15229446
vt 0.70794606 0.14689225
vt 0.57659471 0.14689225
vt 0.70794606 0.15266734
vt 0.15395093 0.80446547
vt 0.00623767 0.85489672
vt 0.15945892 0.80551773
vt 0.72399265 0.14689237
vt 0.71941960 0.15267688
vt 0.72399265 0.15267771
vt 0.71941960 0.14689237
vt 0.71270853 0.15267450
vt 0.71270853 0.14689237
vt 0.78633523 0.14689237
vt 0.76233560 0.15276867
vt 0.78633523 0.15283436
vt 0.76233560 0.14689237
vt 0.85206777 0.14689225
vt 0.84761530 0.14689225
vt 0.85206777 0.15297765
vt 0.84761530 0.15297788
vt 0.85598975 0.14689237
vt 0.85598975 0.15297776
vt 0.84042639 0.14689237
vt 0.83755916 0.15297168
vt 0.84042639 0.15297538
vt 0.83755916 0.14689237
vt 0.73524499 0.14689237
vt 0.73223609 0.15268666
vt 0.73524499 0.15269393
vt 0.73223609 0.14689237
vt 0.84353441 0.14689225
vt 0.84353441 0.15297765
vt 0.81651747 0.14689237
vt 0.81033522 0.15290004
vt 0.81651747 0.15291816
vt 0.81033522 0.14689237
vt 0.74998623 0.15273458
vt 0.74998623 0.14689237
vt 0.72851014 0.15268034
vt 0.72851014 0.14689237
vt 0.82853490 0.14689237
vt 0.82268435 0.15293580
vt 0.82853490 0.15295225
vt 0.82268435 0.14689237
vt 0.74428880 0.15271848
vt 0.74428880 0.14689237
vt 0.73874503 0.14689237
vt 0.73874503 0.15270299
vt 0.83408904 0.14689237
vt 0.83408904 0.15296561
vt 0.85859495 0.15297788
vt 0.85859495 0.14689237
vt 0.71047097 0.14689225
vt 0.71047097 0.15267187
vt 0.71047097 0.15267187
vt 0.71047097 0.14689225
vt 0.85859495 0.14689237
vt 0.85859495 0.15297788
vt 0.24315953 0.80552268
vt 0.23734678 0.80582613
vt 0.23121995 0.80600542
vt 0.22507763 0.80592752
vt 0.39910355 0.85560173
vt 0.25746238 0.79750443
vt 0.25497407 0.80059236
vt 0.20123319 0.80592752
vt 0.17738885 0.80592752
vt 0.16511945 0.80582613
vt 0.15047349 0.80301023
vt 0.14748409 0.80068547
vt 0.14500606 0.79755157
vt 0.14305209 0.79344583
vt 0.14178121 0.78908384
vt 0.14052609 0.78250480
vt 0.13921331 0.78057176
vt 0.13672188 0.77950335
vt 0.00623781 0.77735281
vt 0.26132774 0.78512961
vt 0.26069745 0.78902650
vt 0.25946379 0.79345000
vt 0.26523489 0.78123957
vt 0.26268968 0.78254151
vt 0.40100649 0.78051686
vt 0.24327269 0.74802768
vt 0.24879098 0.74915123
vt 0.26169634 0.69717717
vt 0.23746008 0.74772418
vt 0.23133326 0.74754488
vt 0.22519073 0.74762285
vt 0.25223860 0.75057775
vt 0.25508726 0.75295782
vt 0.25757569 0.75604582
vt 0.26144105 0.76842070
vt 0.26280290 0.77100879
vt 0.26534805 0.77231055
vt 0.40111944 0.77303344
vt 0.20134649 0.74762285
vt 0.17750201 0.74762285
vt 0.15957221 0.74803245
vt 0.16523275 0.74772418
vt 0.15406431 0.74908471
vt 0.15058687 0.75053996
vt 0.14759749 0.75286478
vt 0.14511937 0.75599867
vt 0.14316553 0.76010424
vt 0.14189452 0.76446629
vt 0.13932656 0.77297843
vt 0.14063919 0.77104539
f 177/177 178/178 179/179
f 180/180 181/181 182/182
f 180/180 182/182 183/183
f 184/184 185/185 186/186
f 185/185 184/184 187/187
f 188/188 189/189 190/190
f 189/189 188/188 191/191
f 192/192 193/193 194/194
f 193/193 192/192 195/195
f 196/196 197/197 198/198
f 196/196 198/198 199/199
f 200/200 201/201 202/202
f 201/201 200/200 203/203
f 204/204 205/205 206/206
f 205/205 204/204 207/207
f 208/208 209/209 210/210
f 209/209 208/208 211/211
f 212/212 213/213 214/214
f 212/212 214/214 215/215
f 216/216 217/217 218/218
f 216/216 218/218 219/219
f 220/220 221/221 222/222
f 221/221 220/220 223/223
f 224/224 225/225 226/226
f 225/225 224/224 227/227
f 228/228 229/229 230/230
f 229/229 228/228 231/231
f 232/232 233/233 234/234
f 233/233 232/232 235/235
f 236/236 237/237 238/238
f 237/237 236/236 239/239
f 240/240 241/241 242/242
f 240/240 242/242 243/243
f 244/244 245/245 246/246
f 245/245 244/244 247/247
f 248/248 249/249 250/250
f 249/249 248/248 251/251
f 252/252 253/253 254/254
f 252/252 254/254 255/255
f 256/256 257/257 258/258
f 257/257 256/256 259/259
f 260/260 261/261 262/262
f 260/260 262/262 263/263
f 264/264 265/265 266/266
f 265/265 264/264 267/267
f 268/268 269/269 270/270
f 271/271 272/272 273/273
f 185/185 274/274 186/186
f 274/274 185/185 275/275
f 276/276 277/277 278/278
f 276/276 278/278 279/279
f 280/280 281/281 282/282
f 281/281 280/280 283/283
f 284/284 285/285 286/286
f 285/285 284/284 287/287
f 238/238 288/288 289/289
f 288/288 238/238 237/237
f 223/223 220/220 277/277
f 223/223 277/277 276/276
f 283/283 226/226 281/281
f 226/226 283/283 224/224
f 230/230 287/287 284/284
f 287/287 230/230 229/229
f 289/289 290/290 291/291
f 290/290 289/289 288/288
f 292/292 246/246 293/293
f 246/246 292/292 244/244
f 294/294 251/251 295/295
f 248/248 295/295 251/251
f 256/256 296/296 297/297
f 296/296 256/256 258/258
f 264/264 298/298 299/299
f 298/298 264/264 266/266
f 300/300 301/301 302/302
f 301/301 300/300 303/303
f 304/304 305/305 306/306
f 307/307 308/308 309/309
f 308/308 307/307 310/310
f 311/311 309/309 312/312
f 309/309 311/311 307/307
f 313/313 314/314 315/315
f 314/314 313/313 316/316
f 317/317 318/318 319/319
f 318/318 317/317 320/320
f 317/317 321/321 320/320
f 321/321 317/317 322/322
f 323/323 324/324 325/325
f 324/324 323/323 326/326
f 327/327 328/328 329/329
f 328/328 327/327 330/330
f 326/326 331/331 324/324
f 331/331 326/326 332/332
f 333/333 334/334 335/335
f 334/334 333/333 336/336
f 335/335 315/315 333/333
f 315/315 335/335 313/313
f 337/337 316/316 338/338
f 316/316 337/337 314/314
f 339/339 329/329 340/340
f 329/329 339/339 327/327
f 332/332 318/318 331/331
f 318/318 332/332 319/319
f 310/310 340/340 308/308
f 340/340 310/310 339/339
f 341/341 342/342 343/343
f 342/342 341/341 344/344
f 345/345 338/338 346/346
f 338/338 345/345 337/337
f 330/330 347/347 328/328
f 347/347 330/330 348/348
f 348/348 346/346 347/347
f 346/346 348/348 345/345
f 336/336 343/343 334/334
f 343/343 336/336 341/341
f 344/344 349/349 342/342
f 349/349 344/344 350/350
f 350/350 325/325 349/349
f 325/325 350/350 323/323
f 351/351 194/194 352/352
f 194/194 351/351 192/192
f 303/303 353/353 301/301
f 353/353 303/303 354/354
f 355/355 312/312 356/356
f 312/312 355/355 311/311
f 322/322 357/357 321/321
f 357/357 322/322 358/358
f 271/271 273/273 359/359
f 271/271 359/359 360/360
f 271/271 360/360 361/361
f 271/271 361/361 362/362
f 363/363 364/364 271/271
f 271/271 364/364 365/365
f 271/271 365/365 272/272
f 271/271 362/362 366/366
f 367/367 271/271 366/366
f 305/305 271/271 367/367
f 305/305 367/367 368/368
f 305/305 368/368 306/306
f 369/369 370/370 305/305
f 304/304 369/369 305/305
f 370/370 371/371 305/305
f 372/372 373/373 305/305
f 371/371 372/372 305/305
f 373/373 374/374 305/305
f 374/374 375/375 305/305
f 375/375 376/376 305/305
f 376/376 377/377 305/305
f 363/363 378/378 379/379
f 363/363 379/379 380/380
f 363/363 380/380 364/364
f 363/363 381/381 382/382
f 363/363 382/382 378/378
f 363/363 383/383 381/381
f 384/384 385/385 386/386
f 387/387 384/384 386/386
f 388/388 387/387 386/386
f 389/389 388/388 386/386
f 390/390 386/386 385/385
f 269/269 386/386 390/390
f 269/269 390/390 391/391
f 269/269 391/391 392/392
f 269/269 392/392 270/270
f 268/268 393/393 269/269
f 393/393 394/394 269/269
f 394/394 395/395 269/269
f 395/395 396/396 269/269
f 397/397 389/389 386/386
f 398/398 397/397 386/386
f 399/399 400/400 179/179
f 386/386 179/179 400/400
f 386/386 400/400 398/398
f 401/401 399/399 179/179
f 179/179 402/402 401/401
f 403/403 402/402 179/179
f 179/179 404/404 403/403
f 405/405 404/404 179/179
f 179/179 406/406 405/405
f 407/407 408/408 179/179
f 408/408 406/406 179/179
f 178/178 407/407 179/179
f 409/409 410/410 411/411
f 412/412 413/413 414/414
f 412/412 414/414 415/415
f 416/416 417/417 418/418
f 419/419 418/418 417/417
f 420/420 421/421 422/422
f 421/421 420/420 423/423
f 424/424 425/425 426/426
f 425/425 424/424 427/427
f 428/428 429/429 430/430
f 428/428 430/430 431/431
f 432/432 433/433 434/434
f 435/435 434/434 433/433
f 436/436 437/437 438/438
f 437/437 436/436 439/439
f 440/440 441/441 442/442
f 441/441 440/440 443/443
f 444/444 445/445 446/446
f 445/445 444/444 447/447
f 448/448 449/449 450/450
f 448/448 450/450 451/451
f 452/452 453/453 454/454
f 453/453 452/452 455/455
f 456/456 457/457 458/458
f 457/457 456/456 459/459
f 460/460 461/461 462/462
f 463/463 462/462 461/461
f 464/464 465/465 466/466
f 465/465 464/464 467/467
f 468/468 469/469 470/470
f 471/471 470/470 469/469
f 472/472 473/473 474/474
f 472/472 474/474 475/475
f 476/476 477/477 478/478
f 477/477 476/476 479/479
f 480/480 481/481 482/482
f 481/481 480/480 483/483
f 484/484 485/485 486/486
f 484/484 486/486 487/487
f 488/488 489/489 490/490
f 489/489 488/488 491/491
f 492/492 493/493 494/494
f 493/493 492/492 495/495
f 496/496 497/497 498/498
f 497/497 496/496 499/499
f 500/500 501/501 502/502
f 503/503 504/504 505/505
f 506/506 418/418 507/507
f 418/418 506/506 416/416
f 508/508 509/509 510/510
f 508/508 510/510 511/511
f 512/512 513/513 514/514
f 513/513 512/512 515/515
f 516/516 517/517 518/518
f 519/519 518/518 517/517
f 520/520 468/468 521/521
f 470/470 521/521 468/468
f 511/511 510/510 455/455
f 511/511 455/455 452/452
f 459/459 514/514 457/457
f 514/514 459/459 512/512
f 517/517 460/460 519/519
f 462/462 519/519 460/460
f 522/522 520/520 523/523
f 521/521 523/523 520/520
f 524/524 479/479 525/525
f 479/479 524/524 477/477
f 482/482 526/526 527/527
f 526/526 482/482 481/481
f 528/528 488/488 529/529
f 490/490 529/529 488/488
f 530/530 496/496 531/531
f 498/498 531/531 496/496
f 532/532 533/533 534/534
f 533/533 532/532 535/535
f 536/536 537/537 538/538
f 539/539 540/540 541/541
f 540/540 539/539 542/542
f 542/542 543/543 540/540
f 543/543 542/542 544/544
f 545/545 546/546 547/547
f 546/546 545/545 548/548
f 549/549 550/550 551/551
f 550/550 552/552 551/551
f 553/553 551/551 554/554
f 551/551 553/553 549/549
f 555/555 556/556 557/557
f 556/556 555/555 558/558
f 559/559 560/560 561/561
f 560/560 559/559 562/562
f 563/563 557/557 564/564
f 557/557 563/563 555/555
f 565/565 566/566 567/567
f 566/566 565/565 568/568
f 568/568 547/547 566/566
f 547/547 568/568 545/545
f 569/569 548/548 570/570
f 548/548 569/569 546/546
f 562/562 571/571 560/560
f 571/571 562/562 572/572
f 550/550 564/564 552/552
f 564/564 550/550 563/563
f 572/572 541/541 571/571
f 541/541 572/572 539/539
f 573/573 574/574 575/575
f 574/574 573/573 576/576
f 570/570 577/577 569/569
f 577/577 570/570 578/578
f 579/579 561/561 580/580
f 561/561 579/579 559/559
f 578/578 580/580 577/577
f 580/580 578/578 579/579
f 576/576 567/567 574/574
f 567/567 576/576 565/565
f 581/581 575/575 582/582
f 575/575 581/581 573/573
f 558/558 582/582 556/556
f 582/582 558/558 581/581
f 426/426 583/583 424/424
f 583/583 426/426 584/584
f 585/585 535/535 586/586
f 535/535 585/585 533/533
f 544/544 587/587 543/543
f 587/587 544/544 588/588
f 589/589 554/554 590/590
f 554/554 589/589 553/553
f 503/503 505/505 591/591
f 503/503 591/591 592/592
f 503/503 592/592 593/593
f 503/503 593/593 594/594
f 595/595 596/596 503/503
f 503/503 596/596 597/597
f 503/503 597/597 504/504
f 503/503 594/594 598/598
f 599/599 503/503 598/598
f 537/537 503/503 599/599
f 537/537 599/599 600/600
f 537/537 600/600 538/538
f 601/601 602/602 537/537
f 536/536 601/601 537/537
f 602/602 603/603 537/537
f 604/604 605/605 537/537
f 603/603 604/604 537/537
f 605/605 606/606 537/537
f 606/606 607/607 537/537
f 607/607 608/608 537/537
f 608/608 609/609 537/537
f 595/595 610/610 611/611
f 595/595 611/611 612/612
f 595/595 612/612 596/596
f 595/595 613/613 614/614
f 595/595 614/614 610/610
f 595/595 615/615 613/613
f 616/616 617/617 618/618
f 619/619 616/616 618/618
f 620/620 619/619 618/618
f 621/621 620/620 618/618
f 622/622 501/501 618/618
f 622/622 618/618 617/617
f 501/501 622/622 623/623
f 501/501 623/623 624/624
f 501/501 624/624 502/502
f 500/500 625/625 501/501
f 625/625 626/626 501/501
f 626/626 627/627 501/501
f 627/627 628/628 501/501
f 629/629 621/621 618/618
f 630/630 629/629 618/618
f 631/631 632/632 411/411
f 618/618 411/411 632/632
f 618/618 632/632 630/630
f 633/633 631/631 411/411
f 411/411 634/634 633/633
f 635/635 634/634 411/411
f 411/411 636/636 635/635
f 637/637 636/636 411/411
f 411/411 638/638 637/637
f 639/639 640/640 411/411
f 640/640 638/638 411/411
f 410/410 639/639 411/411

o 05_Material #17_0
usemtl Material_17
v 37.77742116 -3.22341503 17.06727701
v 18.17186150 -3.22341086 14.38584739
v 18.17186181 -3.22341038 17.06727749
v 37.85690102 -3.22341555 14.38584726
v 18.17186160 -3.61711167 14.38584739
v 37.77742126 -3.61711578 17.06727701
v 18.17186191 -3.61711116 17.06727749
v 37.85690112 -3.61711630 14.38584726
v 18.17186191 -3.61711116 17.06727749
v 18.17186150 -3.22341086 14.38584739
v 18.17186160 -3.61711167 14.38584739
v 18.17186181 -3.22341038 17.06727749
v 18.17186160 -3.61711167 14.38584739
v 37.85690102 -3.22341555 14.38584726
v 37.85690112 -3.61711630 14.38584726
v 18.17186150 -3.22341086 14.38584739
v 37.77742126 -3.61711578 17.06727701
v 37.85690112 -3.61711630 14.38584726
v 37.85690102 -3.22341555 14.38584726
v 37.77742116 -3.22341503 17.06727701
v 18.17186191 -3.61711116 17.06727749
v 37.77742126 -3.61711578 17.06727701
v 37.77742116 -3.22341503 17.06727701
v 18.17186181 -3.22341038 17.06727749
v 18.25136932 -3.22341552 14.30014937
v 37.73837834 -3.22341090 14.07006938
v 37.69724131 -3.22341091 11.51134569
v 18.21157030 -3.22341554 11.82461899
v 18.21157038 -3.57774625 11.82461899
v 37.69724139 -3.57774163 11.51134569
v 18.25136941 -3.57774627 14.30014937
v 37.73837843 -3.57774162 14.07006938
v 37.73837843 -3.57774162 14.07006938
v 37.69724139 -3.57774163 11.51134569
v 37.69724131 -3.22341091 11.51134569
v 37.73837834 -3.22341090 14.07006938
v 18.25136941 -3.57774627 14.30014937
v 37.73837843 -3.57774162 14.07006938
v 37.73837834 -3.22341090 14.07006938
v 18.25136932 -3.22341552 14.30014937
v 18.21157038 -3.57774625 11.82461899
v 18.25136941 -3.57774627 14.30014937
v 18.25136932 -3.22341552 14.30014937
v 18.21157030 -3.22341554 11.82461899
v 18.21157038 -3.57774625 11.82461899
v 37.69724131 -3.22341091 11.51134569
v 37.69724139 -3.57774163 11.51134569
v 18.21157030 -3.22341554 11.82461899
v 37.77690776 -3.22341644 6.03322679
v 18.28872026 -3.22341132 8.50908201
v 37.77690996 -3.22341597 8.50907594
v 18.28871996 -3.22341177 5.95002668
v 18.28872005 -3.57774250 5.95002668
v 37.77690785 -3.57774715 6.03322679
v 18.28872034 -3.57774200 8.50908201
v 37.77691004 -3.57774668 8.50907594
v 18.28872034 -3.57774200 8.50908201
v 18.28871996 -3.22341177 5.95002668
v 18.28872005 -3.57774250 5.95002668
v 18.28872026 -3.22341132 8.50908201
v 18.28872005 -3.57774250 5.95002668
v 37.77690776 -3.22341644 6.03322679
v 37.77690785 -3.57774715 6.03322679
v 18.28871996 -3.22341177 5.95002668
v 37.77691004 -3.57774668 8.50907594
v 37.77690785 -3.57774715 6.03322679
v 37.77690776 -3.22341644 6.03322679
v 37.77690996 -3.22341597 8.50907594
v 18.28872034 -3.57774200 8.50908201
v 37.77691004 -3.57774668 8.50907594
v 37.77690996 -3.22341597 8.50907594
v 18.28872026 -3.22341132 8.50908201
v 37.77742051 -3.22341556 11.39979249
v 18.17186466 -3.22341136 8.71836299
v 18.17186116 -3.22341087 11.39979380
v 37.85690418 -3.22341606 8.71836262
v 18.17186476 -3.61711217 8.71836299
v 37.77742060 -3.61711626 11.39979249
v 18.17186125 -3.61711164 11.39979380
v 37.85690428 -3.61711684 8.71836262
v 18.17186125 -3.61711164 11.39979380
v 18.17186466 -3.22341136 8.71836299
v 18.17186476 -3.61711217 8.71836299
v 18.17186116 -3.22341087 11.39979380
v 18.17186476 -3.61711217 8.71836299
v 37.85690418 -3.22341606 8.71836262
v 37.85690428 -3.61711684 8.71836262
v 18.17186466 -3.22341136 8.71836299
v 37.77742060 -3.61711626 11.39979249
v 37.85690428 -3.61711684 8.71836262
v 37.85690418 -3.22341606 8.71836262
v 37.77742051 -3.22341556 11.39979249
v 18.17186125 -3.61711164 11.39979380
v 37.77742060 -3.61711626 11.39979249
v 37.77742051 -3.22341556 11.39979249
v 18.17186116 -3.22341087 11.39979380
vt 0.41692749 0.27273792
vt 0.99600196 0.19353849
vt 0.99600196 0.27273780
vt 0.41457993 0.19353849
vt 0.99600178 0.19353849
vt 0.41692719 0.27273792
vt 0.99600178 0.27273792
vt 0.41457963 0.19353861
vt 0.49390826 0.16339999
vt 0.41470885 0.15177149
vt 0.41470885 0.16339999
vt 0.49390826 0.15177149
vt 0.99594891 0.17734188
vt 0.41452670 0.16571361
vt 0.41452670 0.17734212
vt 0.99594891 0.16571325
vt 0.41470885 0.16339999
vt 0.49390826 0.16339999
vt 0.49390826 0.15177149
vt 0.41470885 0.15177149
vt 0.41452670 0.17734200
vt 0.99594891 0.17734200
vt 0.99594891 0.16571361
vt 0.41452670 0.16571349
vt 0.99081719 0.28082365
vt 0.41520676 0.27836615
vt 0.41520676 0.35395139
vt 0.99081719 0.35395128
vt 0.99081624 0.35395294
vt 0.41520581 0.35395294
vt 0.99081624 0.28082520
vt 0.41520572 0.27836770
vt 0.49898869 0.16255814
vt 0.57456374 0.16255814
vt 0.57456374 0.15209252
vt 0.49898869 0.15209252
vt 0.41423318 0.19024390
vt 0.98980629 0.19024390
vt 0.98980629 0.17977828
vt 0.41423318 0.17977828
vt 0.49898869 0.16255814
vt 0.57456052 0.16255468
vt 0.57456052 0.15208906
vt 0.49898869 0.15209252
vt 0.98976684 0.19024390
vt 0.41423318 0.17977840
vt 0.41423318 0.19024390
vt 0.98976684 0.17977840
vt 1.99081635 0.28082377
vt 1.41520596 0.35395151
vt 1.99081635 0.35395151
vt 1.41520596 0.27836639
vt 1.41520596 0.27836639
vt 1.99081635 0.28082377
vt 1.41520596 0.35395151
vt 1.99081635 0.35395151
vt 1.57457352 0.16255814
vt 1.49898863 0.15209252
vt 1.49898863 0.16255814
vt 1.57457352 0.15209252
vt 1.98984098 0.19024378
vt 1.41423321 0.17977828
vt 1.41423321 0.19024390
vt 1.98984098 0.17977816
vt 1.49898863 0.16255814
vt 1.57456994 0.16255468
vt 1.57456994 0.15208906
vt 1.49898863 0.15209252
vt 1.41423321 0.19024366
vt 1.98984122 0.19024390
vt 1.98984122 0.17977840
vt 1.41423321 0.17977816
vt 1.41692722 0.27273792
vt 1.99600172 0.19353849
vt 1.99600172 0.27273792
vt 1.41457963 0.19353861
vt 1.99600172 0.19353849
vt 1.41692734 0.27273792
vt 1.99600172 0.27273792
vt 1.41457963 0.19353849
vt 1.49390829 0.16339999
vt 1.41470885 0.15177149
vt 1.41470885 0.16339999
vt 1.49390829 0.15177149
vt 1.99594891 0.17734200
vt 1.41452670 0.16571361
vt 1.41452670 0.17734212
vt 1.99594891 0.16571325
vt 1.41470885 0.16339999
vt 1.49390829 0.16339999
vt 1.49390829 0.15177149
vt 1.41470885 0.15177149
vt 1.41452670 0.17734200
vt 1.99594903 0.17734200
vt 1.99594903 0.16571361
vt 1.41452670 0.16571349
f 641/641 642/642 643/643
f 642/642 641/641 644/644
f 645/645 646/646 647/647
f 646/646 645/645 648/648
f 649/649 650/650 651/651
f 650/650 649/649 652/652
f 653/653 654/654 655/655
f 654/654 653/653 656/656
f 657/657 658/658 659/659
f 657/657 659/659 660/660
f 661/661 662/662 663/663
f 661/661 663/663 664/664
f 665/665 666/666 667/667
f 667/667 668/668 665/665
f 669/669 670/670 671/671
f 671/671 670/670 672/672
f 673/673 674/674 675/675
f 673/673 675/675 676/676
f 677/677 678/678 679/679
f 677/677 679/679 680/680
f 681/681 682/682 683/683
f 681/681 683/683 684/684
f 685/685 686/686 687/687
f 686/686 685/685 688/688
f 689/689 690/690 691/691
f 690/690 689/689 692/692
f 693/693 694/694 695/695
f 695/695 694/694 696/696
f 697/697 698/698 699/699
f 698/698 697/697 700/700
f 701/701 702/702 703/703
f 702/702 701/701 704/704
f 705/705 706/706 707/707
f 705/705 707/707 708/708
f 709/709 710/710 711/711
f 709/709 711/711 712/712
f 713/713 714/714 715/715
f 714/714 713/713 716/716
f 717/717 718/718 719/719
f 718/718 717/717 720/720
f 721/721 722/722 723/723
f 722/722 721/721 724/724
f 725/725 726/726 727/727
f 726/726 725/725 728/728
f 729/729 730/730 731/731
f 729/729 731/731 732/732
f 733/733 734/734 735/735
f 733/733 735/735 736/736

o 07_Material #17_0
usemtl Material_17
v 19.86654282 5.71454239 5.90075207
v 19.86654282 -3.22509766 5.90075207
v 18.48200989 5.71454239 5.90075207
v 18.48200989 -3.22509766 5.90075207
v 18.48200989 5.71454239 5.90075207
v 18.48200989 -3.22509766 5.90075207
v 18.48200989 5.71454239 7.24448776
v 18.48200989 -3.22509766 7.24448776
v 18.48200989 5.71454239 7.24448776
v 18.48200989 -3.22509766 7.24448776
v 19.86654282 5.71454239 5.90075207
v 19.86654282 -3.22509766 5.90075207
v 18.48200989 5.71454239 7.24448776
v 19.86654282 5.71454239 5.90075207
v 18.48200989 5.71454239 5.90075207
v 18.48403448 5.55463028 15.54287529
v 18.48403448 -3.22509766 15.54287529
v 18.48403460 5.55463028 16.92740822
v 18.48403460 -3.22509766 16.92740822
v 18.48403460 5.55463028 16.92740822
v 18.48403460 -3.22509766 16.92740822
v 19.82777029 5.55463028 16.92740822
v 19.82777029 -3.22509766 16.92740822
v 19.82777029 5.55463028 16.92740822
v 19.82777029 -3.22509766 16.92740822
v 18.48403448 5.55463028 15.54287529
v 18.48403448 -3.22509766 15.54287529
v 19.82777029 5.55463028 16.92740822
v 18.48403448 5.55463028 15.54287529
v 18.48403460 5.55463028 16.92740822
v 36.05723190 5.71454239 16.91376781
v 36.05723190 -3.22509766 16.91376781
v 37.44176483 5.71454239 16.91376781
v 37.44176483 -3.22509766 16.91376781
v 37.44176483 5.71454239 16.91376781
v 37.44176483 -3.22509766 16.91376781
v 37.44176483 5.71454239 15.57003212
v 37.44176483 -3.22509766 15.57003212
v 37.44176483 5.71454239 15.57003212
v 37.44176483 -3.22509766 15.57003212
v 36.05723190 5.71454239 16.91376781
v 36.05723190 -3.22509766 16.91376781
v 37.44176483 5.71454239 15.57003212
v 36.05723190 5.71454239 16.91376781
v 37.44176483 5.71454239 16.91376781
v 37.44086456 5.55463028 7.28772306
v 37.44086456 -3.22509766 7.28772306
v 37.44086456 5.55463028 5.90319014
v 37.44086456 -3.22509766 5.90319014
v 37.44086456 5.55463028 5.90319014
v 37.44086456 -3.22509766 5.90319014
v 36.09712791 5.55463028 5.90319014
v 36.09712791 -3.22509766 5.90319014
v 36.09712791 5.55463028 5.90319014
v 36.09712791 -3.22509766 5.90319014
v 37.44086456 5.55463028 7.28772306
v 37.44086456 -3.22509766 7.28772306
v 36.09712791 5.55463028 5.90319014
v 37.44086456 5.55463028 7.28772306
v 37.44086456 5.55463028 5.90319014
v 18.48200989 -3.22509766 5.90075207
v 19.86654282 -3.22509766 5.90075207
v 18.48200989 -3.22509766 7.24448776
v 18.48403460 -3.22509766 16.92740822
v 18.48403448 -3.22509766 15.54287529
v 19.82777029 -3.22509766 16.92740822
v 37.44176483 -3.22509766 16.91376781
v 36.05723190 -3.22509766 16.91376781
v 37.44176483 -3.22509766 15.57003212
v 37.44086456 -3.22509766 5.90319014
v 37.44086456 -3.22509766 7.28772306
v 36.09712791 -3.22509766 5.90319014
vt 1.53358340 0.10550386
vt 1.30418992 0.10550386
vt 1.53358340 0.14103121
vt 1.30418980 0.14103121
vt 1.53693068 0.14087850
vt 1.76632428 0.14087850
vt 1.53693068 0.10639805
vt 1.76632428 0.10639805
vt 1.41213048 0.20837981
vt 1.18273687 0.20837981
vt 1.41213048 0.24390727
vt 1.18273687 0.24390727
vt 1.37612164 0.30163008
vt 1.41164911 0.26714939
vt 1.37612164 0.26714939
vt 0.29980075 0.10531145
vt 0.07451055 0.10531145
vt 0.29980075 0.14083892
vt 0.07451055 0.14083892
vt 0.77045351 0.14106399
vt 0.99574357 0.14106399
vt 0.77045351 0.10658330
vt 0.99574357 0.10658330
vt 0.40980351 0.17155999
vt 0.18451339 0.17156011
vt 0.40980351 0.20708734
vt 0.18451339 0.20708746
vt 0.41286561 0.26788026
vt 0.37733814 0.30236095
vt 0.41286561 0.30236083
vt 0.53358340 0.10550386
vt 0.30418986 0.10550386
vt 0.53358340 0.14103121
vt 0.30418980 0.14103121
vt 0.53693068 0.14087850
vt 0.76632434 0.14087850
vt 0.53693068 0.10639805
vt 0.76632434 0.10639805
vt 0.41213048 0.20837981
vt 0.18273689 0.20837981
vt 0.41213048 0.24390727
vt 0.18273689 0.24390727
vt 0.37612143 0.30163008
vt 0.41164890 0.26714939
vt 0.37612143 0.26714939
vt 1.29980075 0.10531145
vt 1.07451057 0.10531145
vt 1.29980075 0.14083892
vt 1.07451057 0.14083892
vt 1.77045345 0.14106399
vt 1.99574351 0.14106399
vt 1.77045345 0.10658330
vt 1.99574351 0.10658330
vt 1.40980351 0.17155999
vt 1.18451333 0.17156011
vt 1.40980351 0.20708734
vt 1.18451333 0.20708746
vt 1.41286564 0.26788026
vt 1.37733817 0.30236095
vt 1.41286564 0.30236095
vt 1.41126752 0.30488521
vt 1.37574005 0.30488521
vt 1.41126752 0.33936590
vt 0.37461805 0.34020394
vt 0.41014558 0.34020394
vt 0.37461805 0.30572325
vt 0.41126758 0.30488521
vt 0.37574011 0.30488521
vt 0.41126758 0.33936590
vt 1.37461805 0.34020394
vt 1.41014552 0.34020394
vt 1.37461805 0.30572325
f 737/737 738/738 739/739
f 739/739 738/738 740/740
f 741/741 742/742 743/743
f 743/743 742/742 744/744
f 745/745 746/746 747/747
f 747/747 746/746 748/748
f 749/749 750/750 751/751
f 752/752 753/753 754/754
f 754/754 753/753 755/755
f 756/756 757/757 758/758
f 758/758 757/757 759/759
f 760/760 761/761 762/762
f 762/762 761/761 763/763
f 764/764 765/765 766/766
f 767/767 768/768 769/769
f 769/769 768/768 770/770
f 771/771 772/772 773/773
f 773/773 772/772 774/774
f 775/775 776/776 777/777
f 777/777 776/776 778/778
f 779/779 780/780 781/781
f 782/782 783/783 784/784
f 784/784 783/783 785/785
f 786/786 787/787 788/788
f 788/788 787/787 789/789
f 790/790 791/791 792/792
f 792/792 791/791 793/793
f 794/794 795/795 796/796
f 797/797 798/798 799/799
f 800/800 801/801 802/802
f 803/803 804/804 805/805
f 806/806 807/807 808/808

o 01_Material #17_0
usemtl Material_17
v 18.13211993 -1.37703841 17.20676869
v 25.81417812 0.89138398 17.15965020
v 18.13212004 0.98516638 17.20676869
v 27.57241778 -1.33541272 17.20676906
v 25.81417809 0.98516605 16.93117844
v 18.13211989 -1.37703841 16.93117874
v 18.13211999 0.98516638 16.93117874
v 27.57241776 -1.37703870 16.93117911
v 18.13211993 -1.37703841 17.20676869
v 18.13212004 0.98516638 17.20676869
v 18.13211999 0.98516638 16.93117874
v 18.13211989 -1.37703841 16.93117874
v 25.81417809 0.98516605 16.93117844
v 18.13211999 0.98516638 16.93117874
v 25.81417812 0.89138398 17.15965020
v 18.13212004 0.98516638 17.20676869
v 37.81715956 0.98516552 17.20676929
v 37.81715945 -1.37703927 17.20676929
v 37.81715941 -1.37703927 16.93117840
v 37.81715951 0.98516552 16.93117840
v 27.57241776 -1.37703870 16.93117911
v 37.81715941 -1.37703927 16.93117840
v 27.57241778 -1.33541272 17.20676906
v 37.81715945 -1.37703927 17.20676929
v 18.13953964 1.10222037 17.24538486
v 37.78709693 1.87114029 17.24538453
v 18.13498777 1.72795291 17.24538487
v 37.82405846 1.24540787 17.24538452
v 37.78709688 1.87114029 16.93042405
v 18.13953958 1.10222037 16.93042439
v 18.13498772 1.72795291 16.93042439
v 37.82405840 1.24540787 16.93042404
v 18.13498772 1.72795291 16.93042439
v 18.13953958 1.10222037 16.93042439
v 18.13498777 1.72795291 17.24538487
v 18.13953964 1.10222037 17.24538486
v 18.12522125 3.07067223 17.24538487
v 37.80974007 3.19628172 17.24538452
v 37.80974002 3.19628172 16.93042404
v 18.12522120 3.07067223 16.93042439
v 37.78378192 2.32692699 16.93042405
v 37.80974002 3.19628172 16.93042404
v 37.78378198 2.32692699 17.24538453
v 37.80974007 3.19628172 17.24538452
v 18.13953964 1.10222037 17.24538486
v 37.82405840 1.24540787 16.93042404
v 37.82405846 1.24540787 17.24538452
v 18.13953958 1.10222037 16.93042439
v 18.13212014 3.30718966 17.20262688
v 30.24642978 5.60944190 17.12813340
v 18.13212024 5.66939421 17.20262688
v 30.24642967 3.24723734 17.12813340
v 30.24642973 5.60944190 16.85254251
v 18.13212009 3.30718966 16.92703598
v 18.13212020 5.66939421 16.92703598
v 30.24642963 3.24723734 16.85254251
v 18.13212014 3.30718966 17.20262688
v 18.13212024 5.66939421 17.20262688
v 18.13212020 5.66939421 16.92703598
v 18.13212009 3.30718966 16.92703598
v 30.24642973 5.60944190 16.85254251
v 18.13212020 5.66939421 16.92703598
v 30.24642978 5.60944190 17.12813340
v 18.13212024 5.66939421 17.20262688
v 37.77724267 3.33925896 17.20262654
v 37.81715972 5.66939335 16.92703564
v 37.81715976 5.66939335 17.20262653
v 37.81715961 3.30718880 16.92703564
v 30.24642963 3.24723734 16.85254251
v 37.77724267 3.33925896 17.20262654
v 30.24642967 3.24723734 17.12813340
v 37.81715961 3.30718880 16.92703564
v 18.17728595 -1.80674307 17.29319064
v 37.81715938 -3.16473503 17.25684006
v 37.81715945 -1.58993180 17.23910171
v 18.13211987 -3.16473417 17.29319065
v 37.81715933 -3.16473503 16.93885929
v 18.17728589 -1.80674307 16.93885963
v 37.81715940 -1.58993180 16.93885929
v 18.13211981 -3.16473417 16.93885964
v 18.13211987 -3.16473417 17.29319065
v 18.17728595 -1.80674307 17.29319064
v 18.17728589 -1.80674307 16.93885963
v 18.13211981 -3.16473417 16.93885964
v 37.81715945 -1.58993180 17.23910171
v 18.17728589 -1.80674307 16.93885963
v 18.17728595 -1.80674307 17.29319064
v 37.81715940 -1.58993180 16.93885929
v 37.81715945 -1.58993180 17.23910171
v 37.81715938 -3.16473503 17.25684006
v 37.81715933 -3.16473503 16.93885929
v 37.81715940 -1.58993180 16.93885929
v 37.81715938 -3.16473503 17.25684006
v 18.13211987 -3.16473417 17.29319065
v 18.13211981 -3.16473417 16.93885964
v 37.81715933 -3.16473503 16.93885929
v 18.12522125 3.07067223 17.24538487
v 37.78378198 2.32692699 17.24538453
v 37.80974007 3.19628172 17.24538452
v 18.16322800 2.18373938 17.24538486
v 37.78378192 2.32692699 16.93042405
v 18.12522120 3.07067223 16.93042439
v 37.80974002 3.19628172 16.93042404
v 18.16322795 2.18373938 16.93042438
v 18.12522120 3.07067223 16.93042439
v 18.16322795 2.18373938 16.93042438
v 18.12522125 3.07067223 17.24538487
v 18.16322800 2.18373938 17.24538486
v 37.78709693 1.87114029 17.24538453
v 37.78709688 1.87114029 16.93042405
v 37.77724267 3.33925896 17.20262654
v 37.81715976 5.66939335 17.20262653
v 37.81715961 3.30718880 16.92703564
v 37.81715972 5.66939335 16.92703564
v 37.81715972 5.66939335 16.92703564
v 37.81715976 5.66939335 17.20262653
v 18.13212009 3.30718966 16.92703598
v 18.13212014 3.30718966 17.20262688
v 37.82405840 1.24540787 16.93042404
v 37.82405846 1.24540787 17.24538452
v 37.81715956 0.98516552 17.20676929
v 37.81715945 -1.37703927 17.20676929
v 37.81715951 0.98516552 16.93117840
v 37.81715941 -1.37703927 16.93117840
v 37.81715951 0.98516552 16.93117840
v 37.81715956 0.98516552 17.20676929
v 18.13211989 -1.37703841 16.93117874
v 18.13211993 -1.37703841 17.20676869
vt 0.99604666 0.70338750
vt 0.76626807 0.77123857
vt 0.99604666 0.77404356
vt 0.71367723 0.70463264
vt 0.63669723 0.84683841
vt 0.40691853 0.77618241
vt 0.40691853 0.84683841
vt 0.68928808 0.77618241
vt 0.08813701 0.30655676
vt 0.14998278 0.30655676
vt 0.14998278 0.29934138
vt 0.08813701 0.29934138
vt 0.63563782 0.37254876
vt 0.40585914 0.37254876
vt 0.63563782 0.37938255
vt 0.40585914 0.38079196
vt 0.08732409 0.33681947
vt 0.14916986 0.33681947
vt 0.14916986 0.32960421
vt 0.08732409 0.32960421
vt 0.71229041 0.36081916
vt 0.40585914 0.36081916
vt 0.71229041 0.36906236
vt 0.40585914 0.36906248
vt 0.99601674 0.57785493
vt 0.40814638 0.59530765
vt 0.99597627 0.59657174
vt 0.40721747 0.57658172
vt 0.99402106 0.65898597
vt 0.40617186 0.64083397
vt 0.40619013 0.65955079
vt 0.99497229 0.64026129
vt 0.11488976 0.26830238
vt 0.09850716 0.26830238
vt 0.11488976 0.27654845
vt 0.09850716 0.27654845
vt 0.40585914 0.39273530
vt 0.99464422 0.39273542
vt 0.99464422 0.38331455
vt 0.40585914 0.38331443
vt 0.15317391 0.21809202
vt 0.13041294 0.21809202
vt 0.15317391 0.22633821
vt 0.13041294 0.22633821
vt 0.99378693 0.40698677
vt 0.40500188 0.39756590
vt 0.40500188 0.40698677
vt 0.99378693 0.39756590
vt 0.99439770 0.85038584
vt 0.63204581 0.91924870
vt 0.99439770 0.92104191
vt 0.63204581 0.84859258
vt 0.76761967 0.99270809
vt 0.40526757 0.92384523
vt 0.40526757 0.99450129
vt 0.76761967 0.92205197
vt 0.08749709 0.32606763
vt 0.14934286 0.32606763
vt 0.14934286 0.31885225
vt 0.08749709 0.31885225
vt 0.76992583 0.41096002
vt 0.40757370 0.41318804
vt 0.76992583 0.41920322
vt 0.40757370 0.42143124
vt 0.14864725 0.31574887
vt 0.08764110 0.30853349
vt 0.08764110 0.31574887
vt 0.14948687 0.30853349
vt 0.63402253 0.42369014
vt 0.40876770 0.43416148
vt 0.63402253 0.43193334
vt 0.40757370 0.42591828
vt 0.99383175 0.56693900
vt 0.40638208 0.52632010
vt 0.40638208 0.57342410
vt 0.99518275 0.52632010
vt 0.99479252 0.47566539
vt 0.40734288 0.51628447
vt 0.99479252 0.52276945
vt 0.40599188 0.47566539
vt 0.11513618 0.26646978
vt 0.15069020 0.26646978
vt 0.15069020 0.25719291
vt 0.11513618 0.25719291
vt 0.99502349 0.44883007
vt 0.40757370 0.43984944
vt 0.40757370 0.45044786
vt 0.99502349 0.43984944
vt 0.07138307 0.26542622
vt 0.11261346 0.26589066
vt 0.11261346 0.25756544
vt 0.07138307 0.25756544
vt 0.40671644 0.46564686
vt 0.99551708 0.46673405
vt 0.99551708 0.45613557
vt 0.40671644 0.45613575
vt 0.99588943 0.63673496
vt 0.40811688 0.60894096
vt 0.40709516 0.63493574
vt 0.99500304 0.61019635
vt 0.99403441 0.67261946
vt 0.40622911 0.69971406
vt 0.99502522 0.69861555
vt 0.40714717 0.67317653
vt 0.15004399 0.26830238
vt 0.12682289 0.26830238
vt 0.15004399 0.27654845
vt 0.12682289 0.27654845
vt 0.16510704 0.22633821
vt 0.16510704 0.21809202
vt 0.40679103 0.85134512
vt 0.40559703 0.92104191
vt 0.99406826 0.92384523
vt 0.99406826 0.99450129
vt 0.99637443 0.41318816
vt 0.99637443 0.42143136
vt 0.99637443 0.42591816
vt 0.99637443 0.43416137
vt 0.18148965 0.21809202
vt 0.18148965 0.22633821
vt 0.40724596 0.77404356
vt 0.40724596 0.70338750
vt 0.99571919 0.84683841
vt 0.99571919 0.77618241
vt 0.99465972 0.37254876
vt 0.99465972 0.38079208
vt 0.99465972 0.36081916
vt 0.99465972 0.36906236
f 809/809 810/810 811/811
f 810/810 809/809 812/812
f 813/813 814/814 815/815
f 814/814 813/813 816/816
f 817/817 818/818 819/819
f 817/817 819/819 820/820
f 821/821 822/822 823/823
f 824/824 823/823 822/822
f 825/825 826/826 827/827
f 825/825 827/827 828/828
f 829/829 830/830 831/831
f 832/832 831/831 830/830
f 833/833 834/834 835/835
f 834/834 833/833 836/836
f 837/837 838/838 839/839
f 838/838 837/837 840/840
f 841/841 842/842 843/843
f 844/844 843/843 842/842
f 845/845 846/846 847/847
f 845/845 847/847 848/848
f 849/849 850/850 851/851
f 852/852 851/851 850/850
f 853/853 854/854 855/855
f 854/854 853/853 856/856
f 857/857 858/858 859/859
f 858/858 857/857 860/860
f 861/861 862/862 863/863
f 862/862 861/861 864/864
f 865/865 866/866 867/867
f 865/865 867/867 868/868
f 869/869 870/870 871/871
f 872/872 871/871 870/870
f 873/873 874/874 875/875
f 874/874 873/873 876/876
f 877/877 878/878 879/879
f 878/878 877/877 880/880
f 881/881 882/882 883/883
f 882/882 881/881 884/884
f 885/885 886/886 887/887
f 886/886 885/885 888/888
f 889/889 890/890 891/891
f 889/889 891/891 892/892
f 893/893 894/894 895/895
f 894/894 893/893 896/896
f 897/897 898/898 899/899
f 897/897 899/899 900/900
f 901/901 902/902 903/903
f 901/901 903/903 904/904
f 905/905 906/906 907/907
f 906/906 905/905 908/908
f 909/909 910/910 911/911
f 910/910 909/909 912/912
f 913/913 914/914 915/915
f 916/916 915/915 914/914
f 851/851 917/917 849/849
f 917/917 918/918 849/849
f 860/860 919/919 858/858
f 858/858 919/919 920/920
f 921/921 861/861 922/922
f 861/861 921/921 864/864
f 923/923 871/871 924/924
f 871/871 923/923 869/869
f 925/925 879/879 926/926
f 879/879 925/925 877/877
f 834/834 908/908 835/835
f 908/908 834/834 906/906
f 837/837 912/912 909/909
f 912/912 837/837 839/839
f 843/843 916/916 841/841
f 916/916 914/914 841/841
f 927/927 918/918 928/928
f 917/917 928/928 918/918
f 812/812 929/929 810/810
f 929/929 812/812 930/930
f 816/816 931/931 932/932
f 813/813 931/931 816/816
f 933/933 823/823 934/934
f 823/823 933/933 821/821
f 935/935 829/829 936/936
f 831/831 936/936 829/829

