# https://github.com/mikedh/trimesh
v 0.14589302 -0.02423650 0.20454545
v 0.16104454 -0.02423650 0.06818182
v 0.15703375 -0.00187515 0.18554878
v 0.12611800 -0.00243583 0.21637315
v 0.10273915 -0.02579439 0.11986430
v 0.13074151 -0.02423650 0.21969697
v 0.16104454 -0.02423650 0.18939394
v 0.14137722 -0.00736612 0.07247477
v 0.09914162 -0.01817640 0.21954542
v 0.16104454 -0.00908499 0.06818182
v 0.13798371 -0.02006427 0.07493685
v 0.10559863 -0.01413687 0.22032947
v 0.10121278 -0.00840592 0.12912759
f 6 1 3
f 6 3 4
f 6 5 1
f 7 3 1
f 7 5 2
f 7 1 5
f 8 4 3
f 9 5 6
f 10 7 2
f 10 3 7
f 10 8 3
f 10 2 8
f 11 8 2
f 11 2 5
f 11 5 8
f 12 9 6
f 12 6 4
f 13 12 4
f 13 4 8
f 13 8 5
f 13 5 9
f 13 9 12

