# https://github.com/mikedh/trimesh
v 0.05498393 -0.17575165 0.11363636
v 0.07013544 -0.14544862 0.06818182
v 0.05498393 -0.09999408 0.12878788
v 0.00848723 -0.09395910 0.12437495
v 0.00952938 -0.17575165 0.05303030
v 0.07013544 -0.09999408 0.05303030
v 0.03983241 -0.17575165 0.12878788
v 0.07013544 -0.14544862 0.11363636
v 0.05498393 -0.17575165 0.06818182
v 0.06186541 -0.09716921 0.10437458
v 0.01057030 -0.11008180 0.05483160
v 0.00889640 -0.16509718 0.12103874
v 0.05498393 -0.16060014 0.12878788
v 0.05498393 -0.16060014 0.05303030
v 0.07013544 -0.11514559 0.05303030
v 0.02468090 -0.17575165 0.05303030
f 7 3 4
f 7 5 1
f 8 1 2
f 8 2 6
f 9 2 1
f 9 1 5
f 10 6 4
f 10 4 3
f 10 8 6
f 10 3 8
f 11 6 5
f 11 5 4
f 11 4 6
f 12 7 4
f 12 4 5
f 12 5 7
f 13 7 1
f 13 1 8
f 13 8 3
f 13 3 7
f 14 2 9
f 14 5 6
f 15 14 6
f 15 6 2
f 15 2 14
f 16 14 9
f 16 9 5
f 16 5 14

