# https://github.com/mikedh/trimesh
v 0.03839235 -0.12966700 0.06050771
v 0.10470706 -0.08931583 -0.09912740
v 0.07370420 -0.08132854 0.00724792
v -0.05163469 -0.08582934 0.00759428
v -0.00562213 -0.14544862 -0.11363636
v -0.05204221 -0.08645661 -0.09833534
v 0.03782372 -0.09761376 0.05237690
v 0.08528696 -0.09999408 0.00757576
v 0.07013544 -0.13029711 -0.09848485
v -0.04302191 -0.12848637 0.06030805
v 0.09874005 -0.08281010 -0.02775437
v 0.08394042 -0.09633323 -0.11284330
v -0.00562213 -0.14544862 -0.05303030
v 0.05498393 -0.13029711 0.00757576
v 0.07013544 -0.13029711 -0.08333333
v -0.05107668 -0.13029711 -0.05303030
v -0.04194585 -0.11616964 0.06083220
v -0.03537687 -0.12940977 -0.11370290
v 0.08528696 -0.11514559 -0.11363636
v -0.03592516 -0.14544862 -0.05303030
v -0.05107668 -0.11514559 0.00757576
v -0.03163653 -0.13140240 -0.11424866
v 0.07190695 -0.10241810 -0.11340336
f 6 4 3
f 7 3 4
f 8 7 1
f 8 3 7
f 11 6 3
f 11 2 6
f 11 8 2
f 11 3 8
f 12 6 2
f 13 5 9
f 14 8 1
f 14 1 13
f 15 2 8
f 15 8 14
f 15 14 13
f 15 13 9
f 16 4 6
f 17 7 4
f 17 4 10
f 17 10 1
f 17 1 7
f 18 6 12
f 18 16 6
f 19 9 5
f 19 12 2
f 19 15 9
f 19 2 15
f 20 13 1
f 20 1 10
f 20 10 16
f 20 5 13
f 20 16 18
f 21 16 10
f 21 10 4
f 21 4 16
f 22 18 12
f 22 19 5
f 22 20 18
f 22 5 20
f 23 22 12
f 23 12 19
f 23 19 22

