# https://github.com/mikedh/trimesh
v 0.00952938 0.03636956 0.08333333
v 0.00952938 0.03636956 0.00757576
v 0.01187752 0.12537618 0.00722873
v -0.05107668 0.12727865 0.05303030
v -0.14198577 0.03636956 0.05303030
v 0.00952938 0.11212713 0.08333333
v -0.14198577 0.06667259 0.00757576
v 0.00952938 0.12727865 0.05303030
v -0.11168274 0.06667259 0.08333333
v -0.07525666 0.11643374 0.00613105
v -0.13395239 0.03811327 0.00672142
v -0.08137971 0.12727865 0.02272727
v -0.11071759 0.03705459 0.08290574
v -0.08137971 0.09697562 0.08333333
v -0.14198577 0.05152107 0.05303030
v -0.09653122 0.11212713 0.00757576
v -0.03592516 0.11212713 0.08333333
v -0.11168274 0.09697562 0.03787879
v -0.14198577 0.06667259 0.02272727
v -0.11168274 0.08182410 0.06818182
f 1 2 3
f 5 2 1
f 6 1 3
f 8 6 3
f 8 4 6
f 9 1 6
f 10 3 2
f 11 2 5
f 11 5 7
f 11 10 2
f 11 7 10
f 12 8 3
f 12 4 8
f 12 3 10
f 13 9 5
f 13 5 1
f 13 1 9
f 14 9 6
f 14 4 12
f 15 7 5
f 15 5 9
f 16 12 10
f 16 10 7
f 17 14 6
f 17 6 4
f 17 4 14
f 18 16 7
f 18 12 16
f 19 18 7
f 19 7 15
f 19 15 18
f 20 18 15
f 20 15 9
f 20 9 14
f 20 14 12
f 20 12 18

