# https://github.com/mikedh/trimesh
v -0.06622819 -0.09999408 0.00757576
v -0.04395220 -0.09759869 -0.09950492
v -0.05107668 0.06667259 0.00757576
v -0.12683425 0.09697562 -0.03787879
v -0.14198577 -0.05453953 -0.09848485
v -0.05107668 0.06667259 -0.09848485
v -0.14198577 0.06667259 0.00757576
v -0.04348951 -0.09151920 0.00687144
v -0.12683425 -0.08484256 -0.06818182
v -0.10652419 0.08901988 -0.03806485
v -0.14198577 0.09697562 -0.09848485
v -0.08137971 -0.09999408 -0.08333333
v -0.14198577 -0.03938802 -0.00757576
v -0.15713728 0.08182410 -0.05303030
v -0.10253365 -0.07393110 -0.10144197
v -0.12683425 -0.08484256 -0.02272727
v -0.12683425 -0.05453953 0.00757576
v -0.14198577 0.09697562 -0.08333333
v -0.15713728 0.02121804 -0.09848485
v -0.15713728 0.03636956 -0.03787879
v -0.14687495 0.07314436 -0.10054594
v -0.08015690 -0.08544989 -0.10101219
v -0.14198577 -0.05453953 -0.02272727
v -0.14198577 0.00606653 0.00757576
v -0.09653122 -0.08484256 0.00757576
v -0.15713728 0.06667259 -0.03787879
v -0.11008866 0.08403016 -0.09908378
v -0.15713728 0.02121804 -0.05303030
f 7 1 3
f 7 3 4
f 8 1 2
f 8 3 1
f 8 6 3
f 8 2 6
f 10 6 4
f 10 4 3
f 10 3 6
f 11 4 6
f 12 9 5
f 12 2 1
f 14 7 4
f 15 12 5
f 16 12 1
f 16 9 12
f 16 5 9
f 17 1 7
f 17 13 16
f 18 14 4
f 18 4 11
f 18 11 14
f 20 14 19
f 21 6 15
f 21 15 5
f 21 5 19
f 21 19 14
f 21 14 11
f 22 15 6
f 22 6 2
f 22 2 12
f 22 12 15
f 23 16 13
f 23 5 16
f 23 19 5
f 24 17 7
f 24 13 17
f 24 20 13
f 24 7 20
f 25 17 16
f 25 16 1
f 25 1 17
f 26 20 7
f 26 7 14
f 26 14 20
f 27 21 11
f 27 11 6
f 27 6 21
f 28 20 19
f 28 19 23
f 28 23 13
f 28 13 20

