# https://github.com/mikedh/trimesh
v 0.02460769 -0.09991059 -0.23323276
v 0.02468090 -0.09999408 -0.25000000
v 0.02583960 -0.02222824 -0.26448329
v -0.07653752 -0.02221941 -0.23616322
v -0.06622819 -0.05453953 -0.26515152
v 0.02167422 -0.02870213 -0.23584146
v 0.03076693 -0.02838655 -0.25745819
v -0.00562072 -0.10050226 -0.22993706
v -0.00562213 -0.03938802 -0.31060606
v -0.06622819 -0.03938802 -0.31060606
v -0.05882091 -0.04394097 -0.22974425
v -0.00562213 -0.09999408 -0.25000000
v -0.08137971 -0.03938802 -0.28030303
v -0.01366384 -0.01418934 -0.30460541
v -0.07132885 -0.03221940 -0.23748681
v -0.06424828 -0.01989101 -0.31037996
v -0.07135306 -0.01630477 -0.27734088
f 6 3 4
f 7 1 2
f 7 6 1
f 7 3 6
f 8 2 1
f 8 1 6
f 9 7 2
f 9 3 7
f 10 9 2
f 11 5 8
f 11 8 6
f 11 6 4
f 12 8 5
f 12 10 2
f 12 2 8
f 13 12 5
f 13 10 12
f 14 4 3
f 14 3 9
f 15 11 4
f 15 5 11
f 15 13 5
f 15 4 13
f 16 10 13
f 16 14 9
f 16 9 10
f 17 16 13
f 17 13 4
f 17 4 14
f 17 14 16

