# https://github.com/mikedh/trimesh
v 0.10934112 0.06448679 0.00546630
v 0.13074151 0.08182410 -0.21969697
v 0.13074151 0.12727865 -0.05303030
v 0.10043847 0.15758168 -0.18939394
v 0.08684337 0.06653664 -0.21614193
v 0.13074151 0.15758168 -0.21969697
v 0.08528696 0.11212713 -0.00757576
v 0.13074151 0.06667259 -0.00757576
v 0.13074151 0.14243016 -0.11363636
v 0.08528696 0.14243016 -0.21969697
v 0.08528696 0.06667259 0.00757576
v 0.11558999 0.11212713 -0.00757576
v 0.11558999 0.06667259 -0.21969697
v 0.13074151 0.15758168 -0.20454545
v 0.08528696 0.12727865 -0.05303030
v 0.10043847 0.15758168 -0.21969697
v 0.07970733 0.09057705 0.00463993
v 0.13074151 0.09697562 -0.00757576
v 0.13074151 0.06667259 -0.09848485
v 0.11558999 0.15758168 -0.18939394
v 0.10043847 0.14243016 -0.11363636
v 0.08528696 0.14243016 -0.14393939
v 0.10884284 0.08677983 0.00356839
v 0.13074151 0.11212713 -0.02272727
f 6 3 2
f 8 2 3
f 9 3 6
f 10 6 2
f 11 5 1
f 12 3 7
f 13 10 2
f 13 5 10
f 13 1 5
f 14 9 6
f 14 6 4
f 15 7 3
f 15 3 9
f 16 10 4
f 16 4 6
f 16 6 10
f 17 10 5
f 17 5 11
f 17 7 15
f 17 12 7
f 18 1 8
f 18 8 3
f 19 13 2
f 19 2 8
f 19 8 1
f 19 1 13
f 20 14 4
f 20 4 9
f 20 9 14
f 21 15 9
f 21 9 4
f 21 4 15
f 22 15 4
f 22 4 10
f 22 17 15
f 22 10 17
f 23 17 11
f 23 11 1
f 23 12 17
f 23 18 12
f 23 1 18
f 24 18 3
f 24 3 12
f 24 12 18

