# https://github.com/mikedh/trimesh
v 0.11558999 -0.09999408 -0.02272727
v 0.16104454 -0.03938802 -0.06818182
v 0.14589302 -0.00908499 0.03787879
v 0.10618000 0.06759169 0.01054279
v 0.11408654 0.06667328 -0.10016598
v 0.09797888 -0.05084534 0.06233220
v 0.14589302 -0.03938802 -0.00757576
v 0.09763136 -0.09397254 -0.09822854
v 0.16104454 0.00606653 -0.05303030
v 0.11558999 -0.05453953 0.05303030
v 0.13074151 0.05152107 0.05303030
v 0.15040491 -0.03147064 -0.10138080
v 0.11558999 -0.09999408 -0.09848485
v 0.09413537 -0.08931399 -0.03067606
v 0.10047367 0.05156283 0.05305540
v 0.16104454 -0.02423650 -0.05303030
v 0.13074151 -0.03938802 0.03787879
v 0.14589302 0.02121804 0.03787879
v 0.13074151 0.06667259 -0.09848485
v 0.12622039 -0.00756265 0.06108189
v 0.15050399 -0.00072599 -0.10051678
v 0.13074151 0.06667259 0.00757576
f 7 1 2
f 7 2 3
f 10 6 1
f 12 8 5
f 13 2 1
f 13 1 8
f 13 12 2
f 13 8 12
f 14 8 1
f 14 1 6
f 15 4 5
f 15 5 8
f 15 8 14
f 15 14 6
f 15 11 4
f 16 9 3
f 16 3 2
f 16 2 9
f 17 7 3
f 17 3 10
f 17 10 1
f 17 1 7
f 18 3 9
f 19 5 4
f 20 10 3
f 20 18 11
f 20 3 18
f 20 6 10
f 20 15 6
f 20 11 15
f 21 9 2
f 21 2 12
f 21 19 9
f 21 12 5
f 21 5 19
f 22 18 9
f 22 11 18
f 22 9 19
f 22 19 4
f 22 4 11

