# https://github.com/mikedh/trimesh
v 0.07013544 -0.16060014 -0.14393939
v 0.11558999 -0.11514559 -0.18939394
v 0.05498393 -0.14544862 -0.05303030
v 0.02468090 -0.09999408 -0.09848485
v 0.00952938 -0.14544862 -0.18939394
v 0.09468294 -0.09054227 -0.13080237
v 0.10043847 -0.14544862 -0.15909091
v 0.00952938 -0.14544862 -0.03787879
v 0.01649487 -0.11001994 -0.19364142
v 0.08528696 -0.16060014 -0.17424242
v 0.10043847 -0.11514559 -0.12878788
v 0.02468090 -0.16060014 -0.17424242
v 0.03983241 -0.14544862 -0.03787879
v 0.01514017 -0.12571871 -0.03729795
v 0.10479252 -0.09651917 -0.19307604
v 0.08528696 -0.16060014 -0.18939394
v 0.11558999 -0.11514559 -0.17424242
v 0.02468090 -0.16060014 -0.14393939
v 0.03784238 -0.12717305 -0.03839975
v 0.07078758 -0.10218628 -0.09838304
v 0.10043847 -0.14544862 -0.18939394
v 0.11558999 -0.09999408 -0.17424242
f 9 4 6
f 9 5 8
f 10 7 3
f 10 3 1
f 11 6 3
f 11 3 7
f 12 8 5
f 12 10 1
f 13 8 1
f 13 1 3
f 14 9 8
f 14 4 9
f 14 8 13
f 15 9 6
f 16 7 10
f 16 5 9
f 16 9 15
f 16 12 5
f 16 10 12
f 17 11 7
f 17 7 2
f 18 12 1
f 18 1 8
f 18 8 12
f 19 13 3
f 19 3 6
f 19 14 13
f 20 6 4
f 20 4 14
f 20 19 6
f 20 14 19
f 21 2 7
f 21 7 16
f 21 16 15
f 21 15 2
f 22 6 11
f 22 11 17
f 22 15 6
f 22 17 2
f 22 2 15

