# https://github.com/mikedh/trimesh
v 0.13074151 0.06667259 0.26515152
v 0.12973768 0.06396544 0.14341926
v 0.07013544 0.14243016 0.20454545
v -0.06622819 0.17273320 0.26515152
v -0.08137971 0.06667259 0.26515152
v -0.07633623 0.10066290 0.14677544
v 0.01095569 0.16836394 0.26577416
v 0.13074151 0.08182410 0.14393939
v -0.05107668 0.17273320 0.21969697
v -0.08137971 0.15758168 0.25000000
v -0.08137971 0.06667259 0.14393939
v 0.08658962 0.12772267 0.26491964
v -0.07677262 0.14996823 0.27048181
v 0.08528696 0.11212713 0.14393939
v 0.00952938 0.17273320 0.21969697
v -0.08137971 0.14243016 0.20454545
v -0.06622819 0.17273320 0.25000000
v 0.13074151 0.08182410 0.26515152
v 0.02468090 0.12727865 0.15909091
v 0.07013544 0.12727865 0.15909091
f 5 2 1
f 8 1 2
f 11 2 5
f 11 5 10
f 12 3 7
f 12 8 3
f 13 5 1
f 13 12 7
f 13 7 4
f 13 10 5
f 13 4 10
f 14 11 6
f 14 8 2
f 14 2 11
f 14 3 8
f 15 7 3
f 15 9 4
f 15 4 7
f 16 9 6
f 16 11 10
f 16 6 11
f 17 10 4
f 17 4 9
f 17 16 10
f 17 9 16
f 18 1 8
f 18 8 12
f 18 13 1
f 18 12 13
f 19 14 6
f 19 6 9
f 19 9 15
f 20 15 3
f 20 3 14
f 20 19 15
f 20 14 19

