# https://github.com/mikedh/trimesh
v 0.08528696 -0.09999408 0.11363636
v 0.10043847 -0.08484256 0.00757576
v 0.11558999 0.09697562 0.03787879
v 0.00952938 0.12727865 0.05303030
v 0.00140851 -0.10807402 0.00743386
v 0.10043847 0.03636956 0.14393939
v 0.08528696 -0.09999408 0.00757576
v 0.00952938 -0.09999408 0.14393939
v 0.01187752 0.12537618 0.00722873
v 0.08528696 0.09697562 0.08333333
v 0.10043847 -0.08484256 0.11363636
v 0.10884284 0.08677983 0.00356839
v 0.03983241 -0.09999408 0.14393939
v 0.00952938 0.03636956 0.14393939
v 0.03983241 0.12727865 0.02272727
v 0.10043847 0.08182410 0.08333333
v 0.03983241 0.11212713 0.08333333
v 0.11380080 0.05080583 0.00724676
v 0.11558999 0.08182410 0.05303030
v 0.03563884 0.11332692 0.00511076
v 0.08528696 -0.06969105 0.14393939
v 0.00952938 0.11212713 0.08333333
v 0.08528696 0.11212713 0.00757576
v 0.07013544 0.11212713 0.05303030
v 0.10043847 -0.03938802 0.14393939
v 0.07013544 -0.08484256 0.14393939
v 0.08528696 0.11212713 0.02272727
v 0.02468090 0.12727865 0.05303030
v 0.10043847 -0.06969105 0.12878788
f 7 2 1
f 7 1 5
f 9 5 4
f 11 1 2
f 12 7 5
f 12 2 7
f 13 8 5
f 13 5 1
f 13 6 8
f 14 5 8
f 14 8 6
f 15 9 4
f 16 10 6
f 16 6 3
f 16 3 10
f 17 6 10
f 17 14 6
f 18 11 2
f 18 12 3
f 18 2 12
f 19 3 6
f 19 18 3
f 19 11 18
f 20 12 5
f 20 5 9
f 21 6 13
f 22 4 5
f 22 5 14
f 22 17 4
f 22 14 17
f 23 9 15
f 23 20 9
f 23 12 20
f 23 3 12
f 24 10 3
f 24 17 10
f 25 19 6
f 25 6 21
f 26 21 13
f 26 13 1
f 27 23 15
f 27 3 23
f 27 24 3
f 27 15 24
f 28 24 15
f 28 15 4
f 28 4 17
f 28 17 24
f 29 11 19
f 29 19 25
f 29 25 21
f 29 1 11
f 29 26 1
f 29 21 26

