# https://github.com/mikedh/trimesh
v 0.02167422 -0.02870213 -0.23584146
v 0.02821651 0.01279076 -0.36168139
v 0.03049063 0.07573384 -0.35005710
v 0.01391078 0.07940761 -0.22568722
v -0.09653122 0.00606653 -0.43181818
v 0.01985229 0.07948425 -0.22489981
v 0.02468090 -0.02423650 -0.29545455
v -0.07653752 -0.02221941 -0.23616322
v -0.02077365 0.06667259 -0.44696970
v -0.06622819 0.08182410 -0.37121212
v -0.02475311 -0.03884104 -0.45259390
v -0.06622819 0.05152107 -0.23484848
v 0.02874677 0.06463332 -0.37047479
v -0.03592516 0.08182410 -0.37121212
v -0.06622819 0.08182410 -0.32575758
v -0.09653122 0.05152107 -0.43181818
v -0.06622819 -0.03938802 -0.43181818
v -0.02077365 -0.03938802 -0.43181818
v -0.08137971 0.06667259 -0.28030303
v -0.07448982 0.05761096 -0.45046405
v -0.09653122 0.06667259 -0.31060606
v -0.09653122 -0.00908499 -0.28030303
v -0.06264339 -0.03744517 -0.45340872
v -0.05107668 0.06667259 -0.25000000
v -0.09653122 0.06667259 -0.38636364
v -0.07478011 -0.02004408 -0.45228919
v -0.09653122 0.05152107 -0.28030303
v -0.09653122 -0.00908499 -0.41666667
v -0.08137971 0.05152107 -0.25000000
v -0.09653122 0.00606653 -0.26515152
v -0.09653122 0.02121804 -0.26515152
f 6 1 3
f 7 2 3
f 7 3 1
f 8 1 6
f 11 2 7
f 12 8 6
f 12 6 4
f 13 9 3
f 13 3 2
f 13 11 9
f 13 2 11
f 14 6 3
f 14 3 9
f 14 9 10
f 15 4 6
f 15 14 10
f 15 6 14
f 17 1 8
f 18 11 7
f 18 7 1
f 18 17 11
f 18 1 17
f 19 4 15
f 20 10 9
f 20 9 11
f 21 15 10
f 21 19 15
f 21 16 5
f 22 17 8
f 22 21 5
f 23 11 17
f 23 20 11
f 24 12 4
f 24 4 19
f 25 20 16
f 25 10 20
f 25 21 10
f 25 16 21
f 26 5 16
f 26 16 20
f 26 20 23
f 27 19 21
f 27 21 22
f 28 22 5
f 28 17 22
f 28 5 26
f 28 26 23
f 28 23 17
f 29 19 27
f 29 24 19
f 29 12 24
f 29 8 12
f 30 27 22
f 30 22 8
f 31 29 27
f 31 27 30
f 31 30 8
f 31 8 29

