# https://github.com/mikedh/trimesh
v 0.13074151 -0.06969105 0.09848485
v 0.16104454 -0.00908499 0.06818182
v 0.16104454 0.06667259 0.14393939
v 0.10043847 0.08182410 0.12878788
v 0.09632686 0.06498563 0.05230954
v 0.09824648 -0.01168644 0.14253492
v 0.16104454 -0.00908499 0.14393939
v 0.10043847 -0.06969105 0.05303030
v 0.16104454 0.05152107 0.06818182
v 0.09870722 0.07257514 0.14995389
v 0.14589302 -0.05453953 0.11363636
v 0.13074151 -0.05453953 0.05303030
v 0.09635760 -0.06325930 0.10790427
v 0.16104454 0.06667259 0.08333333
v 0.11558999 0.08182410 0.14393939
v 0.13074151 -0.05453953 0.12878788
v 0.11558999 -0.06969105 0.05303030
v 0.14589302 -0.05453953 0.08333333
v 0.14589302 0.05152107 0.05303030
v 0.11558999 -0.06969105 0.11363636
v 0.11558999 0.06667259 0.05303030
v 0.11558999 0.08182410 0.12878788
v 0.13074151 -0.06969105 0.08333333
v 0.14589302 -0.02423650 0.05303030
v 0.14589302 0.06667259 0.06818182
f 7 2 3
f 9 3 2
f 10 4 5
f 10 7 3
f 10 6 7
f 11 2 7
f 13 5 8
f 13 10 5
f 13 6 10
f 14 3 9
f 15 10 3
f 15 4 10
f 15 3 14
f 16 11 7
f 16 7 6
f 17 1 8
f 17 8 5
f 17 5 12
f 18 11 1
f 18 17 12
f 18 2 11
f 19 9 2
f 19 14 9
f 20 13 8
f 20 8 1
f 20 1 11
f 20 11 16
f 20 16 6
f 20 6 13
f 21 5 4
f 21 19 5
f 22 15 14
f 22 4 15
f 22 21 4
f 23 18 1
f 23 1 17
f 23 17 18
f 24 19 2
f 24 12 5
f 24 5 19
f 24 18 12
f 24 2 18
f 25 14 19
f 25 19 21
f 25 22 14
f 25 21 22

