# https://github.com/mikedh/trimesh
v 0.05358095 0.10708989 0.00633201
v 0.06951758 0.10658026 -0.19589333
v 0.05498393 0.17273320 -0.14393939
v 0.00952938 0.15758168 -0.02272727
v 0.00160796 0.10724553 -0.21269035
v 0.03983241 0.15758168 -0.02272727
v 0.07013544 0.12727865 -0.14393939
v -0.00570688 0.11398597 0.00780696
v 0.03983241 0.17273320 -0.23484848
v 0.05498393 0.12727865 0.00757576
v 0.03983241 0.17273320 -0.09848485
v 0.07111244 0.10825453 -0.14485549
v 0.05498393 0.17273320 -0.21969697
v -0.00562213 0.15758168 -0.21969697
v 0.03983241 0.11212713 -0.23484848
v 0.02468090 0.14243016 0.00757576
v 0.07013544 0.12727865 -0.20454545
v -0.00562213 0.15758168 -0.15909091
v 0.00952938 0.17273320 -0.11363636
v 0.00952938 0.17273320 -0.23484848
v 0.00952938 0.14243016 0.00757576
v 0.02468090 0.17273320 -0.09848485
f 5 2 1
f 8 5 1
f 10 3 6
f 10 7 3
f 10 8 1
f 11 6 3
f 11 4 6
f 11 3 9
f 12 1 2
f 12 10 1
f 12 7 10
f 13 3 7
f 13 9 3
f 14 5 8
f 15 2 5
f 16 10 6
f 16 6 4
f 16 8 10
f 17 12 2
f 17 7 12
f 17 13 7
f 17 2 15
f 17 15 9
f 17 9 13
f 18 14 8
f 18 8 4
f 19 11 9
f 19 14 18
f 19 18 4
f 20 9 15
f 20 19 9
f 20 14 19
f 20 15 5
f 20 5 14
f 21 16 4
f 21 4 8
f 21 8 16
f 22 19 4
f 22 4 11
f 22 11 19

