# https://github.com/mikedh/trimesh
v -0.06622819 -0.06969105 0.44696970
v -0.04628522 -0.00381349 0.26220571
v -0.04605282 0.11628645 0.45422025
v -0.06622819 0.15758168 0.40151515
v -0.14198577 0.00606653 0.26515152
v -0.04892367 0.15845784 0.26725892
v -0.04467888 -0.05807675 0.44188917
v -0.06622819 -0.06969105 0.32575758
v -0.12683425 0.03636956 0.44696970
v -0.05107668 0.15758168 0.40151515
v -0.14198577 0.11212713 0.25000000
v -0.05161762 -0.02380742 0.46251209
v -0.06622819 -0.05453953 0.29545455
v -0.11168274 -0.03938802 0.43181818
v -0.05107668 -0.06969105 0.32575758
v -0.09653122 0.09697562 0.46212121
v -0.06622819 0.17273320 0.29545455
v -0.06622819 0.12727865 0.46212121
v -0.14198577 0.05152107 0.37121212
v -0.08137971 0.08182410 0.21969697
v -0.11168274 -0.02423650 0.46212121
v -0.12683425 -0.00908499 0.26515152
v -0.05107668 -0.05453953 0.29545455
v -0.12683425 0.11212713 0.38636364
v -0.08073463 0.13702638 0.22265104
v -0.14198577 0.00606653 0.35606061
v -0.12683425 0.11212713 0.21969697
v -0.11168274 0.06667259 0.46212121
v -0.09653122 0.08182410 0.21969697
v -0.11168274 -0.03938802 0.40151515
v -0.14198577 0.09697562 0.35606061
v -0.09653122 0.15758168 0.29545455
v -0.09653122 0.12727865 0.43181818
v -0.06622819 0.17273320 0.26515152
v -0.12683425 -0.00908499 0.44696970
v -0.12232407 0.09349146 0.22316287
v -0.12683425 0.08182410 0.43181818
v -0.14198577 0.11212713 0.29545455
v -0.09653122 0.14243016 0.37121212
v -0.11168274 0.14243016 0.25000000
v -0.14198577 0.02121804 0.37121212
v -0.12683425 0.09697562 0.41666667
v -0.11168274 0.09697562 0.44696970
v -0.11168274 0.14243016 0.31060606
v -0.09653122 0.15758168 0.26515152
v -0.12683425 0.12727865 0.31060606
f 6 3 2
f 7 2 3
f 10 3 6
f 12 7 3
f 12 1 7
f 14 8 1
f 15 7 1
f 15 1 8
f 15 2 7
f 15 8 13
f 17 10 6
f 17 4 10
f 18 10 4
f 18 3 10
f 18 16 12
f 18 12 3
f 19 11 5
f 21 1 12
f 21 14 1
f 22 13 8
f 23 15 13
f 23 2 15
f 23 22 2
f 23 13 22
f 25 6 2
f 25 2 20
f 26 19 5
f 26 5 14
f 27 5 11
f 27 25 20
f 28 9 21
f 28 21 12
f 28 12 16
f 29 20 2
f 29 2 22
f 29 27 20
f 30 14 5
f 30 5 22
f 30 22 8
f 30 8 14
f 31 11 19
f 32 4 17
f 33 18 4
f 33 16 18
f 34 17 6
f 34 6 25
f 34 32 17
f 35 26 14
f 35 14 21
f 35 21 9
f 35 9 19
f 36 22 5
f 36 5 27
f 36 29 22
f 36 27 29
f 37 9 28
f 37 31 19
f 37 19 9
f 38 31 24
f 38 11 31
f 39 24 33
f 39 33 4
f 39 4 32
f 40 34 25
f 40 25 27
f 40 27 11
f 41 35 19
f 41 19 26
f 41 26 35
f 42 24 31
f 42 31 37
f 42 33 24
f 43 37 28
f 43 28 16
f 43 16 33
f 43 42 37
f 43 33 42
f 44 39 32
f 44 24 39
f 45 32 34
f 45 34 40
f 45 40 11
f 46 38 24
f 46 24 44
f 46 44 32
f 46 11 38
f 46 45 11
f 46 32 45

