# https://github.com/mikedh/trimesh
v 0.10043847 -0.16060014 -0.20454545
v 0.11558999 -0.13029711 -0.23484848
v 0.11431299 0.06667252 -0.09832755
v 0.07013544 0.14243016 -0.17424242
v 0.02468090 -0.14544862 -0.23484848
v 0.11558999 0.06667259 -0.21969697
v 0.11558999 -0.09999408 -0.09848485
v 0.10043847 -0.16060014 -0.23484848
v 0.02468090 0.11212713 -0.09848485
v 0.09286515 0.13266582 -0.18961547
v 0.03983241 0.11212713 -0.23484848
v 0.11558999 -0.13029711 -0.18939394
v 0.02468090 -0.09999408 -0.09848485
v 0.03983241 -0.16060014 -0.23484848
v 0.08754912 0.10923092 -0.09885025
v 0.10043847 0.05152107 -0.23484848
v 0.09235473 0.12374984 -0.21365534
v 0.02137770 0.11434108 -0.22109573
v 0.08528696 -0.16060014 -0.18939394
v 0.07013544 0.12727865 -0.12878788
v 0.09329520 0.11871810 -0.13017019
v 0.11558999 -0.03938802 -0.23484848
v 0.07013544 0.14243016 -0.18939394
v 0.04705377 -0.14750751 -0.18838071
v 0.09255784 0.13043050 -0.17785822
v 0.07013544 0.12727865 -0.21969697
f 7 6 3
f 7 2 6
f 8 5 2
f 8 2 1
f 10 3 6
f 11 2 5
f 12 7 1
f 12 1 2
f 12 2 7
f 13 7 3
f 13 3 9
f 14 8 1
f 14 5 8
f 14 13 5
f 15 9 3
f 16 2 11
f 17 10 6
f 17 16 11
f 17 6 16
f 18 9 4
f 18 11 5
f 18 13 9
f 18 5 13
f 19 1 7
f 19 7 13
f 19 14 1
f 20 4 9
f 20 9 15
f 21 20 15
f 21 4 20
f 21 15 3
f 21 3 10
f 22 16 6
f 22 6 2
f 22 2 16
f 23 4 10
f 23 10 17
f 23 18 4
f 23 11 18
f 24 19 13
f 24 13 14
f 24 14 19
f 25 21 10
f 25 10 4
f 25 4 21
f 26 23 17
f 26 17 11
f 26 11 23

