# https://github.com/mikedh/trimesh
v 0.10043847 0.03636956 0.14393939
v 0.10005812 0.03717099 0.08279318
v 0.08528696 0.11212713 0.14393939
v -0.09653122 0.11212713 0.14393939
v -0.11168274 0.03636956 0.14393939
v 0.08528696 0.09697562 0.08333333
v 0.09870722 0.07257514 0.14995389
v -0.11071759 0.03705459 0.08290574
v 0.02468090 0.11212713 0.09848485
v -0.10372873 0.08657296 0.14955458
v 0.10043847 0.08182410 0.11363636
v -0.08137971 0.09697562 0.08333333
v 0.07013544 0.11212713 0.11363636
v -0.11168274 0.09697562 0.12878788
v 0.10043847 0.06667259 0.08333333
v 0.08528696 0.11212713 0.12878788
v -0.06622819 0.11212713 0.09848485
v -0.11168274 0.06667259 0.08333333
v -0.09653122 0.11212713 0.12878788
v -0.09653122 0.09697562 0.09848485
f 7 5 1
f 8 2 1
f 8 1 5
f 9 4 3
f 10 7 3
f 10 3 4
f 10 5 7
f 11 7 1
f 11 3 7
f 12 6 2
f 12 2 8
f 12 9 6
f 13 9 3
f 13 6 9
f 14 5 10
f 14 10 4
f 15 11 1
f 15 1 2
f 15 2 6
f 15 6 11
f 16 11 6
f 16 3 11
f 16 13 3
f 16 6 13
f 17 4 9
f 17 9 12
f 18 8 5
f 18 5 14
f 18 12 8
f 19 14 4
f 19 17 12
f 19 4 17
f 20 18 14
f 20 12 18
f 20 19 12
f 20 14 19

