# https://github.com/mikedh/trimesh
v 0.13074151 -0.08484256 -0.09848485
v 0.19134757 -0.03938802 -0.21969697
v 0.17619605 -0.00908499 -0.11363636
v 0.11496914 0.05146154 -0.09840478
v 0.11205121 -0.08501762 -0.23071317
v 0.17619605 0.02121804 -0.21969697
v 0.16104454 0.02121804 -0.09848485
v 0.16104454 -0.05453953 -0.09848485
v 0.13074151 -0.08484256 -0.23484848
v 0.10927537 -0.08232771 -0.09755359
v 0.19134757 0.00606653 -0.18939394
v 0.10934128 0.02979789 -0.21441492
v 0.13074151 0.05152107 -0.09848485
v 0.17619605 -0.05453953 -0.17424242
v 0.19134757 -0.03938802 -0.18939394
v 0.14589302 -0.03938802 -0.23484848
v 0.19134757 0.00606653 -0.21969697
v 0.17619605 0.00606653 -0.12878788
v 0.11316143 0.05133384 -0.11337452
v 0.17619605 0.02121804 -0.18939394
v 0.17619605 -0.05453953 -0.21969697
v 0.17619605 -0.02423650 -0.11363636
v 0.14589302 -0.05453953 -0.23484848
v 0.13074151 0.03636956 -0.21969697
v 0.11558999 -0.03938802 -0.23484848
v 0.13074151 0.05152107 -0.11363636
v 0.17619605 -0.03938802 -0.12878788
f 8 3 7
f 9 1 5
f 10 5 1
f 10 1 8
f 10 8 7
f 12 5 10
f 13 10 7
f 13 4 10
f 13 7 11
f 14 8 1
f 14 1 9
f 15 11 3
f 15 2 11
f 15 14 2
f 15 8 14
f 17 11 2
f 17 6 11
f 17 16 6
f 17 2 16
f 18 11 7
f 18 7 3
f 18 3 11
f 19 12 10
f 19 10 4
f 20 13 11
f 20 11 6
f 20 6 13
f 21 14 9
f 21 9 2
f 21 2 14
f 22 15 3
f 22 3 8
f 23 16 2
f 23 2 9
f 23 9 16
f 24 6 16
f 24 12 19
f 25 16 9
f 25 9 5
f 25 5 12
f 25 24 16
f 25 12 24
f 26 19 4
f 26 4 13
f 26 24 19
f 26 13 6
f 26 6 24
f 27 22 8
f 27 8 15
f 27 15 22

