# https://github.com/mikedh/trimesh
v 0.09589782 0.09378020 0.39828652
v 0.10905905 0.08737746 0.23522523
v 0.08528696 0.17273320 0.26515152
v -0.03592516 0.18788471 0.32575758
v -0.05107668 0.09697562 0.26515152
v 0.03983241 0.15758168 0.40151515
v 0.11558999 0.14243016 0.31060606
v -0.05107668 0.09697562 0.40151515
v 0.00126975 0.15455009 0.23185468
v 0.00952938 0.18788471 0.32575758
v 0.11558999 0.12727865 0.32575758
v 0.11558999 0.12727865 0.23484848
v 0.10043847 0.11212713 0.40151515
v 0.05498393 0.17273320 0.34090909
v 0.09672745 0.08808822 0.21999707
v -0.05107668 0.15758168 0.40151515
v -0.04892367 0.15845784 0.26725892
v -0.03592516 0.18788471 0.28030303
v -0.03592516 0.17273320 0.38636364
v 0.10564916 0.09421863 0.32291096
v 0.11558999 0.14243016 0.28030303
v 0.07013544 0.17273320 0.23484848
v 0.07013544 0.14243016 0.40151515
v 0.01256798 0.12464240 0.22589180
v -0.05107668 0.17273320 0.37121212
v -0.00562213 0.17273320 0.38636364
v 0.08528696 0.17273320 0.25000000
v 0.00640243 0.16617145 0.24199650
v 0.08528696 0.14243016 0.21969697
v 0.05498393 0.15758168 0.38636364
v 0.08360468 0.09311691 0.21933843
v -0.00562213 0.18788471 0.28030303
v 0.10043847 0.11212713 0.21969697
v 0.00952938 0.18788471 0.29545455
f 8 2 1
f 12 11 2
f 12 7 11
f 13 11 7
f 13 1 11
f 13 8 1
f 13 6 8
f 14 7 3
f 14 10 6
f 14 3 10
f 15 8 5
f 15 2 8
f 15 12 2
f 16 8 6
f 16 5 8
f 17 9 5
f 18 4 10
f 18 9 17
f 19 10 4
f 19 16 6
f 20 11 1
f 20 1 2
f 20 2 11
f 21 3 7
f 21 7 12
f 23 13 7
f 23 6 13
f 23 7 14
f 24 5 9
f 25 17 5
f 25 5 16
f 25 18 17
f 25 4 18
f 25 19 4
f 25 16 19
f 26 19 6
f 26 6 10
f 26 10 19
f 27 21 12
f 27 3 21
f 27 12 22
f 27 10 3
f 28 22 9
f 28 9 18
f 28 18 22
f 29 22 12
f 29 24 9
f 29 9 22
f 30 23 14
f 30 14 6
f 30 6 23
f 31 15 5
f 31 5 24
f 31 24 29
f 32 27 22
f 32 22 18
f 32 18 10
f 33 29 12
f 33 12 15
f 33 31 29
f 33 15 31
f 34 32 10
f 34 10 27
f 34 27 32

