# https://github.com/mikedh/trimesh
v -0.05967102 -0.14347745 0.11050382
v -0.06260174 -0.14422827 0.07044270
v -0.06622819 0.03636956 0.00757576
v -0.15713728 0.08182410 0.14393939
v -0.15713728 -0.05453953 0.09848485
v -0.06622819 0.03636956 0.14393939
v -0.06382937 -0.07951998 0.00730588
v -0.08137971 -0.14544862 0.11363636
v -0.13395239 0.03811327 0.00672142
v -0.05936985 -0.05971979 0.13965599
v -0.10796302 0.07951412 0.14594790
v -0.12683425 -0.05453953 0.00757576
v -0.15713728 -0.02423650 0.14393939
v -0.17228880 0.02121804 0.06818182
v -0.11168274 0.06667259 0.08333333
v -0.12967807 0.02840291 0.00575022
v -0.08137971 -0.06969105 0.14393939
v -0.10261878 0.07653946 0.13589335
v -0.09653122 -0.08484256 0.00757576
v -0.11168274 -0.11514559 0.06818182
v -0.15713728 -0.03938802 0.12878788
v -0.16484039 0.05323964 0.15611491
v -0.17228880 0.05152107 0.09848485
v -0.17228880 -0.00908499 0.06818182
v -0.15713728 0.08182410 0.12878788
v -0.14198577 -0.03938802 0.14393939
v -0.08137971 -0.14544862 0.06818182
v -0.11168274 -0.11514559 0.09848485
v -0.15713728 -0.05453953 0.08333333
v -0.17228880 -0.00908499 0.12878788
v -0.14198577 0.06667259 0.08333333
v -0.14198577 -0.06969105 0.11363636
v -0.12683425 -0.08484256 0.05303030
v -0.17228880 0.00606653 0.14393939
f 7 1 2
f 8 2 1
f 10 3 6
f 10 7 3
f 10 1 7
f 15 3 9
f 16 9 3
f 16 3 7
f 16 12 9
f 17 8 1
f 17 1 10
f 17 10 6
f 18 11 6
f 18 6 3
f 18 15 11
f 18 3 15
f 19 16 7
f 19 12 16
f 21 8 13
f 22 11 4
f 22 17 6
f 22 6 11
f 23 9 14
f 23 22 4
f 24 23 14
f 24 14 9
f 24 9 12
f 25 4 11
f 25 11 15
f 25 23 4
f 25 9 23
f 26 13 8
f 26 8 17
f 26 22 13
f 26 17 22
f 27 19 7
f 27 7 2
f 27 2 8
f 27 8 20
f 27 20 12
f 27 12 19
f 28 20 8
f 28 5 20
f 29 20 5
f 29 24 12
f 29 5 24
f 30 24 5
f 30 5 21
f 30 23 24
f 31 25 15
f 31 15 9
f 31 9 25
f 32 21 5
f 32 5 28
f 32 28 8
f 32 8 21
f 33 29 12
f 33 12 20
f 33 20 29
f 34 13 22
f 34 22 23
f 34 23 30
f 34 30 21
f 34 21 13

