# https://github.com/mikedh/trimesh
v -0.06622819 0.08182410 -0.09848485
v -0.03592516 0.12727865 -0.21969697
v -0.03592516 0.12727865 -0.11363636
v -0.08137971 0.17273320 -0.12878788
v -0.09653122 0.11212713 -0.21969697
v -0.05107668 0.17273320 -0.12878788
v -0.04031975 0.10170179 -0.21218104
v -0.09796403 0.08644009 -0.09816393
v -0.05107668 0.17273320 -0.21969697
v -0.03593971 0.11164947 -0.11359247
v -0.09653122 0.17273320 -0.14393939
v -0.09653122 0.15758168 -0.09848485
v -0.06622819 0.08182410 -0.14393939
v -0.09904953 0.08990911 -0.14244960
v -0.08883776 0.16405985 -0.21203859
v -0.06571252 0.14828412 -0.10186930
f 6 3 2
f 7 5 2
f 9 2 5
f 9 6 2
f 9 4 6
f 10 7 2
f 10 2 3
f 10 3 1
f 10 1 7
f 11 4 9
f 12 6 4
f 12 4 11
f 12 8 1
f 13 7 1
f 13 1 8
f 13 5 7
f 14 11 5
f 14 12 11
f 14 8 12
f 14 13 8
f 14 5 13
f 15 11 9
f 15 9 5
f 15 5 11
f 16 3 6
f 16 6 12
f 16 12 1
f 16 1 3

