# https://github.com/mikedh/trimesh
v 0.02468090 -0.06969105 0.47727273
v 0.11558999 0.05152107 0.40151515
v 0.02468090 0.09697562 0.50757576
v -0.03592516 0.15758168 0.41666667
v -0.04808831 -0.06290447 0.40289928
v 0.07013544 0.14243016 0.41666667
v 0.07013544 0.02121804 0.47727273
v 0.03697900 -0.05974330 0.39438975
v -0.09653122 -0.00908499 0.47727273
v 0.08528696 0.11212713 0.44696970
v 0.03983241 0.15758168 0.40151515
v 0.05498393 -0.05453953 0.46212121
v 0.02468090 0.00606653 0.50757576
v 0.03983241 -0.06969105 0.46212121
v -0.05107668 -0.06969105 0.46212121
v -0.08137971 0.08182410 0.49242424
v -0.05050124 0.13769024 0.39933006
v 0.03983241 0.12727865 0.47727273
v 0.10043847 0.11212713 0.40151515
v 0.10043847 0.06667259 0.44696970
v 0.04523584 -0.04892105 0.39536864
v 0.05498393 0.09697562 0.49242424
v 0.05498393 0.02121804 0.49242424
v 0.03983241 -0.05453953 0.47727273
v -0.08137971 -0.03938802 0.47727273
v -0.06622819 0.02121804 0.50757576
v -0.08953598 -0.00424459 0.45574588
v -0.03592516 0.15758168 0.40151515
v -0.09653122 0.08182410 0.47727273
v 0.07013544 0.12727865 0.44696970
v 0.03983241 0.15758168 0.41666667
v -0.05107668 0.12727865 0.47727273
v 0.10043847 0.11212713 0.41666667
v 0.07013544 0.14243016 0.40151515
v 0.11558999 0.05152107 0.41666667
v 0.08528696 0.08182410 0.46212121
v 0.03983241 0.11212713 0.49242424
v 0.02468090 -0.03938802 0.49242424
v -0.05107668 -0.05453953 0.49242424
v -0.05107668 0.08182410 0.50757576
v -0.06622819 -0.03938802 0.49242424
v -0.05107668 0.14243016 0.44696970
v -0.08576891 0.07708274 0.45498955
v -0.00562213 0.14243016 0.46212121
v 0.11558999 0.06667259 0.41666667
v 0.10043847 0.05152107 0.44696970
v -0.06622819 -0.05453953 0.47727273
v -0.03592516 -0.06969105 0.47727273
v -0.00562213 -0.05453953 0.49242424
v -0.05107668 -0.00908499 0.50757576
v -0.06622819 0.06667259 0.50757576
v -0.05107668 0.11212713 0.49242424
v -0.08137971 -0.00908499 0.49242424
v 0.00952938 0.14243016 0.46212121
v 0.00952938 -0.00908499 0.50757576
v -0.02077365 0.09697562 0.50757576
f 14 5 8
f 14 8 12
f 15 14 1
f 15 5 14
f 17 8 5
f 19 2 8
f 21 12 8
f 21 8 2
f 21 2 12
f 22 3 13
f 22 10 18
f 23 12 7
f 23 22 13
f 23 20 22
f 24 23 13
f 24 12 23
f 24 14 12
f 24 1 14
f 25 9 5
f 25 5 15
f 26 13 3
f 26 16 9
f 27 17 5
f 27 5 9
f 28 4 11
f 28 11 17
f 29 9 16
f 29 27 9
f 30 18 10
f 31 6 11
f 31 11 4
f 31 30 6
f 31 18 30
f 32 3 18
f 33 19 6
f 33 10 20
f 33 30 10
f 33 6 30
f 34 11 6
f 34 6 19
f 34 19 8
f 34 17 11
f 34 8 17
f 35 12 2
f 36 22 20
f 36 20 10
f 36 10 22
f 37 22 18
f 37 18 3
f 37 3 22
f 38 24 13
f 38 1 24
f 40 26 3
f 41 9 25
f 41 25 39
f 42 28 17
f 42 17 29
f 42 4 28
f 42 29 32
f 43 29 17
f 43 17 27
f 43 27 29
f 44 31 4
f 44 32 18
f 44 42 32
f 44 4 42
f 45 2 19
f 45 19 33
f 45 35 2
f 45 33 20
f 45 20 35
f 46 35 20
f 46 7 12
f 46 12 35
f 46 23 7
f 46 20 23
f 47 39 25
f 47 25 15
f 47 15 39
f 48 39 15
f 48 15 1
f 48 1 39
f 49 39 1
f 49 1 38
f 50 13 26
f 50 41 39
f 50 26 41
f 50 39 49
f 51 40 16
f 51 16 26
f 51 26 40
f 52 16 40
f 52 32 29
f 52 29 16
f 52 3 32
f 53 41 26
f 53 26 9
f 53 9 41
f 54 44 18
f 54 18 31
f 54 31 44
f 55 49 38
f 55 38 13
f 55 50 49
f 55 13 50
f 56 52 40
f 56 40 3
f 56 3 52

