# https://github.com/mikedh/trimesh
v -0.00562213 -0.19090317 0.11363636
v 0.00952938 -0.17575165 0.05303030
v 0.00952938 0.03636956 0.14393939
v -0.06622819 0.03636956 0.14393939
v -0.06622819 -0.09999408 0.00757576
v -0.06622819 -0.08484256 0.14393939
v 0.00889640 -0.16509718 0.12103874
v -0.05107668 -0.19090317 0.06818182
v 0.00952938 0.03636956 0.00757576
v -0.05107668 -0.17575165 0.12878788
v 0.00907112 -0.08108496 0.14131833
v -0.02888049 -0.11222665 0.00661638
v -0.00562213 -0.19090317 0.08333333
v -0.06622819 -0.17575165 0.11363636
v -0.06622819 0.03636956 0.00757576
v -0.05107668 -0.19090317 0.11363636
v -0.05107668 -0.17575165 0.05303030
v 0.00600218 -0.11678767 0.00693968
v -0.02077365 -0.19090317 0.06818182
v -0.06622819 -0.17575165 0.06818182
v -0.06622819 -0.16060014 0.12878788
v -0.06622819 -0.16060014 0.05303030
f 6 3 4
f 6 4 5
f 7 1 2
f 9 3 2
f 9 4 3
f 10 1 7
f 11 3 6
f 11 10 7
f 11 6 10
f 11 7 2
f 11 2 3
f 13 2 1
f 13 1 8
f 14 6 5
f 15 5 4
f 15 4 9
f 15 12 5
f 15 9 12
f 16 8 1
f 16 1 10
f 16 14 8
f 16 10 14
f 17 5 12
f 17 2 8
f 18 12 9
f 18 9 2
f 18 17 12
f 18 2 17
f 19 13 8
f 19 8 2
f 19 2 13
f 20 14 5
f 20 8 14
f 20 17 8
f 21 14 10
f 21 10 6
f 21 6 14
f 22 20 5
f 22 5 17
f 22 17 20

