# https://github.com/mikedh/trimesh
v 0.10043847 -0.11514559 -0.46212121
v 0.11558999 -0.08484256 -0.50757576
v 0.10043847 0.08182410 -0.44696970
v 0.02468090 0.09697562 -0.44696970
v 0.02468090 -0.09999408 -0.50757576
v 0.08528696 0.09697562 -0.50757576
v 0.03983241 -0.00908499 -0.41666667
v 0.11558999 -0.05453953 -0.46212121
v 0.10043847 -0.11514559 -0.49242424
v 0.11558999 0.02121804 -0.50757576
v 0.08528696 0.09697562 -0.44696970
v 0.02468090 0.09697562 -0.50757576
v 0.03983241 -0.09999408 -0.44696970
v 0.02468090 0.00606653 -0.41666667
v 0.11558999 -0.09999408 -0.47727273
v 0.08528696 0.00606653 -0.41666667
v 0.10043847 -0.09999408 -0.50757576
v 0.03983241 -0.11514559 -0.46212121
v 0.10043847 0.08182410 -0.50757576
v 0.11558999 0.02121804 -0.46212121
v 0.02468090 -0.09999408 -0.46212121
v 0.02468090 0.08182410 -0.41666667
v 0.11558999 -0.09999408 -0.49242424
v 0.10043847 -0.00908499 -0.43181818
v 0.08528696 -0.09999408 -0.44696970
v 0.06611299 0.07293160 -0.41570961
v 0.03983241 -0.11514559 -0.49242424
v 0.03983241 0.09697562 -0.43181818
v 0.10043847 0.03636956 -0.43181818
v 0.07013544 -0.00908499 -0.41666667
v 0.07013544 0.09697562 -0.43181818
v 0.08225340 0.03722962 -0.41605894
f 6 2 5
f 10 2 6
f 10 8 2
f 11 6 4
f 11 3 6
f 12 6 5
f 12 5 4
f 12 4 6
f 14 4 5
f 14 13 7
f 15 8 1
f 15 2 8
f 15 1 9
f 17 9 5
f 17 5 2
f 18 9 1
f 18 1 13
f 19 10 6
f 19 6 3
f 19 3 10
f 20 10 3
f 20 8 10
f 21 14 5
f 21 13 14
f 21 18 13
f 21 5 18
f 22 4 14
f 23 15 9
f 23 2 15
f 23 17 2
f 23 9 17
f 24 16 1
f 24 1 8
f 24 8 20
f 25 13 1
f 25 1 16
f 25 7 13
f 26 14 7
f 26 22 14
f 27 18 5
f 27 5 9
f 27 9 18
f 28 11 4
f 28 4 22
f 29 24 20
f 29 20 3
f 29 16 24
f 30 25 16
f 30 7 25
f 31 26 3
f 31 3 11
f 31 11 28
f 31 28 22
f 31 22 26
f 32 16 29
f 32 30 16
f 32 26 7
f 32 7 30
f 32 29 3
f 32 3 26

