# https://github.com/mikedh/trimesh
v -0.00562213 -0.14544862 -0.11363636
v 0.02863455 -0.11208485 -0.23081333
v 0.02468090 0.11212713 -0.09848485
v -0.15713728 0.11212713 -0.18939394
v -0.14198577 -0.06969105 -0.21969697
v 0.02137770 0.11434108 -0.22109573
v -0.15713728 0.02121804 -0.09848485
v 0.02344907 -0.13265086 -0.09824275
v -0.05107668 -0.14544862 -0.20454545
v 0.03058393 -0.12670976 -0.20210913
v -0.15713728 0.11212713 -0.21969697
v -0.14198577 0.09697562 -0.09848485
v -0.14198577 -0.05453953 -0.09848485
v -0.00562213 -0.13029711 -0.23484848
v -0.00562213 -0.14544862 -0.15909091
v -0.17228880 0.05152107 -0.12878788
v -0.07863887 0.10951205 -0.09848436
v -0.09653122 -0.09999408 -0.09848485
v -0.11168274 -0.08484256 -0.23484848
v -0.06622819 0.11212713 -0.23484848
v -0.02077365 -0.14544862 -0.20454545
v -0.17228880 0.09697562 -0.17424242
v -0.17228880 0.08182410 -0.12878788
v -0.17228880 0.03636956 -0.14393939
v -0.05107668 -0.14544862 -0.11363636
v -0.14198577 -0.06969105 -0.18939394
v -0.05753768 -0.12220580 -0.22666171
v -0.17228880 0.03636956 -0.21969697
v -0.11168274 -0.05453953 -0.23484848
v -0.15713728 0.09697562 -0.12878788
v -0.03979132 -0.12306918 -0.09983812
f 6 4 3
f 10 6 3
f 10 2 6
f 10 3 8
f 11 4 6
f 12 7 8
f 13 8 7
f 14 2 10
f 15 10 8
f 15 8 1
f 15 1 9
f 16 13 7
f 17 3 4
f 17 4 12
f 17 12 8
f 17 8 3
f 18 8 13
f 19 9 5
f 20 6 2
f 20 2 14
f 20 14 19
f 20 11 6
f 21 14 10
f 21 10 15
f 21 15 9
f 21 9 14
f 22 4 11
f 23 16 7
f 23 7 12
f 23 22 16
f 24 13 16
f 24 16 22
f 25 1 8
f 25 9 1
f 25 5 9
f 26 18 13
f 26 25 18
f 26 5 25
f 26 24 5
f 26 13 24
f 27 19 14
f 27 14 9
f 27 9 19
f 28 19 5
f 28 22 11
f 28 24 22
f 28 5 24
f 29 20 19
f 29 11 20
f 29 28 11
f 29 19 28
f 30 12 4
f 30 4 22
f 30 23 12
f 30 22 23
f 31 25 8
f 31 8 18
f 31 18 25

