# https://github.com/mikedh/trimesh
v -0.02077365 -0.14544862 -0.46212121
v 0.03074251 -0.06832173 -0.49845138
v 0.02907131 0.06499623 -0.44820254
v -0.09653122 0.06667259 -0.44696970
v -0.09653122 -0.09999408 -0.50757576
v 0.00952938 0.08182410 -0.50757576
v -0.00562213 -0.00908499 -0.43181818
v 0.03389810 -0.06801173 -0.48029972
v -0.02077365 -0.14544862 -0.49242424
v -0.08137971 -0.06969105 -0.44696970
v 0.02468090 0.08182410 -0.50757576
v -0.09653122 0.06667259 -0.50757576
v -0.00562213 0.00606653 -0.43181818
v -0.00562213 -0.13029711 -0.46212121
v 0.02947069 0.02065924 -0.44919598
v -0.00562213 -0.11514559 -0.50757576
v -0.05107668 -0.14544862 -0.46212121
v 0.00952938 -0.11514559 -0.49242424
v -0.09653122 -0.06969105 -0.46212121
v -0.09653122 -0.02423650 -0.44696970
v 0.02974272 0.07689713 -0.48029926
v -0.02665908 0.00690034 -0.43400511
v -0.02077365 -0.11514559 -0.44696970
v -0.08137971 -0.11514559 -0.50757576
v 0.00952938 -0.09999408 -0.50757576
v 0.00952938 -0.11514559 -0.47727273
v -0.06622819 -0.13029711 -0.46212121
v 0.00952938 0.08182410 -0.47727273
v -0.03592516 -0.11514559 -0.44696970
v -0.05107668 -0.14544862 -0.49242424
v -0.09653122 -0.09999408 -0.47727273
f 11 5 6
f 12 6 5
f 12 5 4
f 12 4 6
f 13 7 3
f 13 3 4
f 15 8 3
f 15 3 7
f 15 14 8
f 16 5 11
f 17 9 1
f 18 2 8
f 18 1 9
f 19 4 5
f 20 19 10
f 20 4 19
f 21 8 2
f 21 2 11
f 21 3 8
f 22 13 4
f 22 7 13
f 22 4 20
f 22 20 10
f 22 10 7
f 23 1 14
f 23 17 1
f 23 15 7
f 23 14 15
f 24 16 9
f 24 5 16
f 25 16 11
f 25 11 2
f 25 2 18
f 25 18 9
f 25 9 16
f 26 18 8
f 26 8 14
f 26 14 1
f 26 1 18
f 27 17 10
f 27 10 19
f 28 4 3
f 28 3 21
f 28 6 4
f 28 21 11
f 28 11 6
f 29 23 7
f 29 7 10
f 29 10 17
f 29 17 23
f 30 24 9
f 30 9 17
f 30 17 5
f 30 5 24
f 31 27 19
f 31 19 5
f 31 5 17
f 31 17 27

