# https://github.com/mikedh/trimesh
v 0.08528696 -0.03938802 -0.23484848
v 0.11558999 0.02121804 -0.35606061
v 0.10043847 0.05152107 -0.23484848
v 0.03983241 0.09697562 -0.28030303
v 0.02468090 0.00606653 -0.41666667
v 0.10043847 0.08182410 -0.38636364
v 0.01985229 0.07948425 -0.22489981
v 0.10043847 -0.02423650 -0.23484848
v 0.08528696 0.00606653 -0.41666667
v 0.11558999 0.06667259 -0.28030303
v 0.02468090 0.08182410 -0.41666667
v 0.02782436 -0.03279925 -0.23381308
v 0.02468090 -0.03938802 -0.28030303
v 0.10043847 -0.00908499 -0.34090909
v 0.10043847 0.06667259 -0.41666667
v 0.11558999 0.02121804 -0.28030303
v 0.08528696 0.09697562 -0.29545455
v 0.02468090 0.09697562 -0.35606061
v 0.07821802 0.07447880 -0.45070164
v 0.07013544 -0.03938802 -0.28030303
v 0.08528696 -0.03938802 -0.26515152
v 0.10043847 0.00606653 -0.38636364
v 0.10043847 -0.02423650 -0.25000000
v 0.11558999 0.06667259 -0.37121212
v 0.07013544 0.08182410 -0.23484848
v 0.02468090 0.09697562 -0.32575758
v 0.07013544 0.09697562 -0.37121212
v 0.08480839 0.03599037 -0.44768769
v 0.06894370 0.07968641 -0.44772897
v 0.08528696 -0.00908499 -0.37121212
v 0.10043847 0.02121804 -0.41666667
v 0.07013544 0.09697562 -0.28030303
v 0.10043847 0.08182410 -0.26515152
v 0.08528696 0.09697562 -0.35606061
v 0.03983241 0.09697562 -0.37121212
v 0.11558999 0.03636956 -0.37121212
f 8 7 1
f 8 3 7
f 10 3 8
f 11 5 7
f 12 1 7
f 13 5 9
f 13 1 12
f 13 12 7
f 13 7 5
f 16 10 8
f 16 8 2
f 16 2 10
f 18 11 7
f 18 4 17
f 19 6 15
f 20 13 9
f 20 1 13
f 21 8 1
f 21 1 20
f 22 2 14
f 23 14 2
f 23 2 8
f 23 21 14
f 23 8 21
f 24 10 2
f 24 15 6
f 24 6 10
f 25 7 3
f 26 18 7
f 26 7 4
f 26 4 18
f 27 18 17
f 28 9 5
f 28 19 15
f 29 5 11
f 29 6 19
f 29 28 5
f 29 19 28
f 30 21 20
f 30 20 9
f 30 14 21
f 30 22 14
f 30 9 22
f 31 15 24
f 31 28 15
f 31 2 22
f 31 22 9
f 31 9 28
f 32 17 4
f 32 4 7
f 32 7 25
f 33 25 3
f 33 3 10
f 33 32 25
f 33 17 32
f 33 10 6
f 33 6 17
f 34 27 17
f 34 17 6
f 34 29 27
f 34 6 29
f 35 29 11
f 35 11 18
f 35 18 27
f 35 27 29
f 36 31 24
f 36 24 2
f 36 2 31

