# https://github.com/mikedh/trimesh
v 0.00952938 -0.09999408 0.14393939
v 0.17619605 -0.00908499 0.17424242
v 0.08528696 -0.03938802 0.26515152
v -0.08137971 0.06667259 0.26515152
v -0.08137971 0.06667259 0.14393939
v 0.13074151 0.06667259 0.26515152
v -0.08137971 -0.03938802 0.23484848
v 0.05498393 -0.08484256 0.15909091
v 0.14754895 0.04640230 0.14193301
v 0.13074151 -0.00908499 0.26515152
v -0.07468700 0.00238709 0.26725615
v -0.05107668 -0.05453953 0.23484848
v -0.09653122 -0.05453953 0.14393939
v 0.05498393 -0.08484256 0.14393939
v 0.17619605 -0.00908499 0.20454545
v 0.13893146 0.05895307 0.14268485
v 0.11558999 -0.02423650 0.26515152
v -0.11168274 -0.03938802 0.20454545
v -0.02077365 -0.03938802 0.26515152
v -0.03186875 -0.08843281 0.12117681
v 0.14095764 -0.00640795 0.14210038
v 0.14589302 0.00606653 0.25000000
v 0.17619605 0.03636956 0.20454545
v 0.14589302 0.06667259 0.21969697
v -0.11100759 -0.01913272 0.17327476
v -0.03592516 -0.09999408 0.14393939
v 0.00848723 -0.09395910 0.12437495
v -0.09509845 -0.02337019 0.14393997
v 0.14779184 0.00978830 0.14081566
v 0.14589302 0.05152107 0.25000000
v 0.17619605 0.03636956 0.17424242
v 0.16104454 0.05152107 0.21969697
v -0.10674259 -0.01671027 0.20511833
v -0.11168274 -0.03938802 0.17424242
v -0.08137971 -0.05453953 0.20454545
v -0.09653122 -0.05453953 0.15909091
f 6 5 4
f 8 3 1
f 11 6 4
f 11 10 6
f 12 1 3
f 14 8 1
f 14 2 8
f 15 8 2
f 17 11 3
f 17 10 11
f 17 15 10
f 17 3 8
f 17 8 15
f 18 11 4
f 18 7 11
f 18 12 7
f 19 11 7
f 19 7 12
f 19 12 3
f 19 3 11
f 20 16 9
f 20 5 16
f 21 2 14
f 22 6 10
f 22 10 15
f 23 22 15
f 23 15 2
f 24 16 5
f 24 5 6
f 25 4 5
f 26 1 12
f 26 13 20
f 27 14 1
f 27 26 20
f 27 1 26
f 27 21 14
f 27 20 9
f 28 20 13
f 28 5 20
f 28 25 5
f 28 13 25
f 29 2 21
f 29 27 9
f 29 21 27
f 30 6 22
f 30 22 23
f 31 9 16
f 31 16 24
f 31 23 2
f 31 29 9
f 31 2 29
f 32 24 6
f 32 31 24
f 32 23 31
f 32 30 23
f 32 6 30
f 33 25 18
f 33 18 4
f 33 4 25
f 34 25 13
f 34 13 18
f 34 18 25
f 35 26 12
f 35 12 18
f 35 18 26
f 36 26 18
f 36 18 13
f 36 13 26

