# https://github.com/mikedh/trimesh
v -0.00562213 -0.08484256 0.38636364
v 0.13074151 0.00606653 0.31060606
v 0.11558999 0.05152107 0.40151515
v -0.05107668 0.09697562 0.40151515
v -0.05107668 -0.02423650 0.26515152
v 0.11558999 0.09697562 0.26515152
v 0.07013544 -0.03938802 0.41666667
v 0.00952938 -0.06969105 0.28030303
v -0.04808831 -0.06290447 0.40289928
v 0.13074151 0.09697562 0.31060606
v -0.05107668 0.09697562 0.26515152
v 0.07013544 -0.02423650 0.41666667
v 0.13074151 0.00606653 0.34090909
v 0.07013544 -0.06969105 0.37121212
v 0.10795554 0.00034327 0.25687013
v -0.05107668 -0.06969105 0.32575758
v 0.05498393 -0.06969105 0.40151515
v 0.13074151 0.08182410 0.26515152
v 0.11558999 0.09697562 0.38636364
v 0.09589782 0.09378020 0.39828652
v 0.05335660 -0.02432760 0.41679226
v 0.13074151 0.03636956 0.34090909
v 0.00952938 -0.08484256 0.35606061
v 0.07013544 -0.06969105 0.38636364
v 0.08528696 -0.05453953 0.34090909
v -0.03592516 -0.06969105 0.28030303
v -0.03592516 -0.08484256 0.38636364
v 0.13074151 0.09697562 0.28030303
v 0.11963045 0.02213986 0.25877523
v 0.10156214 0.06110679 0.40204909
v 0.05498393 -0.06969105 0.34090909
v 0.00952938 -0.08484256 0.37121212
v 0.02468090 -0.06969105 0.29545455
v -0.05107668 -0.05453953 0.29545455
v -0.03592516 -0.08484256 0.34090909
v -0.00562213 -0.08484256 0.34090909
f 10 6 4
f 11 5 4
f 11 4 6
f 12 7 3
f 13 3 7
f 13 2 10
f 15 11 6
f 15 5 11
f 16 9 4
f 16 4 5
f 17 7 9
f 18 10 2
f 19 10 4
f 20 4 12
f 20 19 4
f 20 3 19
f 21 9 7
f 21 7 12
f 21 12 4
f 21 4 9
f 22 13 10
f 22 3 13
f 22 19 3
f 22 10 19
f 24 13 7
f 24 7 17
f 24 23 14
f 25 2 13
f 25 24 14
f 25 13 24
f 25 15 2
f 26 15 8
f 26 5 15
f 27 9 16
f 27 17 9
f 27 1 17
f 27 23 1
f 28 18 6
f 28 6 10
f 28 10 18
f 29 15 6
f 29 6 18
f 29 18 2
f 29 2 15
f 30 20 12
f 30 12 3
f 30 3 20
f 31 14 23
f 31 25 14
f 32 1 23
f 32 23 24
f 32 24 17
f 32 17 1
f 33 8 15
f 33 15 25
f 33 25 31
f 33 31 23
f 33 23 8
f 34 26 16
f 34 16 5
f 34 5 26
f 35 26 8
f 35 23 27
f 35 27 16
f 35 16 26
f 36 35 8
f 36 8 23
f 36 23 35

