# https://github.com/mikedh/trimesh
v -0.12683425 -0.02423650 0.23484848
v -0.09024879 -0.03093198 0.14419062
v -0.07468700 0.00238709 0.26725615
v -0.09653122 0.14243016 0.20454545
v -0.18744031 0.05152107 0.15909091
v -0.07633623 0.10066290 0.14677544
v -0.13535623 0.09742213 0.26680372
v -0.07824026 -0.01575873 0.22806027
v -0.15713728 -0.02423650 0.14393939
v -0.08073463 0.13702638 0.22265104
v -0.15713728 0.08182410 0.14393939
v -0.14198577 0.00606653 0.26515152
v -0.18744031 0.05152107 0.18939394
v -0.15713728 -0.02423650 0.18939394
v -0.08137971 0.14243016 0.20454545
v -0.08137971 0.08182410 0.26515152
v -0.09653122 0.11212713 0.14393939
v -0.17228880 0.00606653 0.14393939
v -0.12683425 -0.00908499 0.26515152
v -0.17228880 0.05152107 0.21969697
v -0.18744031 0.00606653 0.18939394
v -0.09840106 0.09776069 0.26581209
v -0.17228880 0.06667259 0.14393939
v -0.14198577 -0.00908499 0.25000000
v -0.18744031 0.00606653 0.15909091
v -0.17228880 0.02121804 0.21969697
f 8 1 2
f 8 3 1
f 8 6 3
f 8 2 6
f 10 3 6
f 10 4 7
f 12 3 7
f 13 7 4
f 14 9 2
f 14 2 1
f 15 10 6
f 15 4 10
f 16 3 10
f 17 11 4
f 17 6 2
f 17 2 9
f 17 9 11
f 17 15 6
f 17 4 15
f 18 11 9
f 19 1 3
f 19 3 12
f 20 12 7
f 20 7 13
f 21 13 5
f 21 9 14
f 21 20 13
f 22 16 10
f 22 10 7
f 22 7 3
f 22 3 16
f 23 18 5
f 23 11 18
f 23 4 11
f 23 13 4
f 23 5 13
f 24 14 1
f 24 1 19
f 24 19 12
f 24 21 14
f 24 12 21
f 25 21 5
f 25 5 18
f 25 18 9
f 25 9 21
f 26 21 12
f 26 12 20
f 26 20 21

