# https://github.com/mikedh/trimesh
v 0.08528696 0.06667259 0.00757576
v 0.08528696 0.06667259 -0.09848485
v 0.08528696 0.11212713 0.00757576
v -0.08137971 0.15758168 -0.08333333
v -0.13235382 0.06026100 -0.01083740
v 0.08754912 0.10923092 -0.09885025
v -0.12397671 0.06009936 0.00484706
v -0.11168274 0.06667259 -0.09848485
v -0.05107668 0.15758168 -0.08333333
v -0.12683425 0.08182410 0.00757576
v -0.14198577 0.08182410 -0.00757576
v -0.05750429 0.14929053 -0.11584664
v -0.06622819 0.14243016 -0.02272727
v -0.13803232 0.06476363 -0.03889664
v 0.00390405 0.12002130 -0.11433986
v -0.09653122 0.14243016 -0.09848485
v -0.06637651 0.15241794 -0.11512323
v -0.05107668 0.14243016 -0.02272727
v -0.07525666 0.11643374 0.00613105
v -0.12683425 0.09697562 -0.00757576
v -0.07893306 0.10993774 -0.11325271
v -0.11008866 0.08403016 -0.09908378
v -0.09653122 0.14243016 -0.06818182
v -0.00553911 0.11183199 -0.11362649
f 6 1 2
f 6 3 1
f 7 5 2
f 7 2 1
f 8 2 5
f 9 3 6
f 10 7 1
f 10 1 3
f 11 5 7
f 11 7 10
f 13 9 4
f 14 8 5
f 14 5 11
f 15 12 6
f 15 6 2
f 16 14 11
f 17 9 6
f 17 6 12
f 17 4 9
f 17 16 4
f 18 3 9
f 18 9 13
f 19 10 3
f 19 18 13
f 19 3 18
f 20 11 10
f 20 19 13
f 20 10 19
f 21 2 8
f 21 12 15
f 21 17 12
f 22 8 14
f 22 14 16
f 22 21 8
f 22 16 17
f 22 17 21
f 23 16 11
f 23 4 16
f 23 11 20
f 23 20 13
f 23 13 4
f 24 21 15
f 24 15 2
f 24 2 21

