# https://github.com/mikedh/trimesh
v -0.27637959 -0.01071470 0.26454725
v -0.23168553 -0.00742648 0.23540014
v -0.23219567 0.17424241 0.29974971
v -0.36420277 0.30872682 0.27759516
v -0.35340779 -0.00757577 0.22399213
v -0.23573494 0.31230442 0.23573236
v -0.34219209 0.23804106 0.32909004
v -0.23219567 0.14393938 0.29974971
v -0.23370946 -0.00801877 0.23510071
v -0.38371082 0.23484847 0.22399213
v -0.35464213 -0.00718284 0.26763048
v -0.31669026 0.27195102 0.32801014
v -0.26249870 0.14393938 0.31490122
v -0.32310476 0.31060605 0.22399213
v -0.38371082 0.20454544 0.26944668
v -0.25330183 0.31484061 0.26734477
v -0.32873883 0.25774721 0.33227684
v -0.33825628 0.15909090 0.31490122
v -0.30795325 0.24999999 0.33005274
v -0.38371082 0.29545454 0.25429516
v -0.37543123 0.14600136 0.28256618
v -0.36855931 0.08333332 0.22399213
v -0.23756082 0.31867926 0.24790730
v -0.37829057 0.29103933 0.27708318
v -0.32310476 0.23484847 0.33005274
v -0.35340779 0.17424241 0.31490122
v -0.29280173 0.14393938 0.31490122
v -0.26249870 0.15909090 0.31490122
v -0.36855931 0.29545454 0.23914365
v -0.36855931 0.31060605 0.25429516
v -0.36905322 0.08325811 0.25114469
v -0.35680747 0.20537969 0.31427949
v -0.36855931 0.26515150 0.22399213
v -0.35340779 0.31060605 0.23914365
f 6 3 2
f 8 1 2
f 8 2 3
f 9 2 1
f 9 1 5
f 9 6 2
f 11 5 1
f 13 1 8
f 13 11 1
f 13 8 3
f 14 9 5
f 14 6 9
f 14 5 10
f 16 4 12
f 17 12 4
f 19 12 17
f 19 16 12
f 19 3 16
f 20 10 15
f 22 15 10
f 22 10 5
f 22 5 11
f 23 4 16
f 23 6 14
f 23 16 3
f 23 3 6
f 24 17 4
f 24 7 17
f 24 4 20
f 24 20 15
f 25 17 7
f 25 19 17
f 25 13 19
f 25 7 18
f 26 18 7
f 26 11 18
f 26 21 11
f 27 18 11
f 27 11 13
f 27 25 18
f 27 13 25
f 28 19 13
f 28 13 3
f 28 3 19
f 29 10 20
f 30 20 4
f 30 29 20
f 30 4 23
f 31 21 15
f 31 15 22
f 31 22 11
f 31 11 21
f 32 24 15
f 32 15 21
f 32 21 26
f 32 26 7
f 32 7 24
f 33 14 10
f 33 10 29
f 34 29 30
f 34 33 29
f 34 14 33
f 34 30 23
f 34 23 14

