# https://github.com/mikedh/trimesh
v 0.37683480 0.19095436 0.32921553
v 0.44962251 0.24999999 0.28459819
v 0.31325888 0.35606060 0.40581031
v 0.16174372 0.49242423 0.29974971
v 0.32841039 0.18939393 0.22399213
v 0.32841039 0.40151514 0.31490122
v 0.14659221 0.38636363 0.39065880
v 0.40416797 0.23484847 0.40581031
v 0.38143533 0.19328257 0.22083584
v 0.22234979 0.44696969 0.37550728
v 0.34356191 0.18939393 0.29974971
v 0.14545979 0.41346725 0.24208919
v 0.44962251 0.23484847 0.31490122
v 0.35871342 0.23484847 0.40581031
v 0.38901645 0.31060605 0.37550728
v 0.35871342 0.18939393 0.33005274
v 0.28295585 0.35606060 0.22399213
v 0.25265282 0.44696969 0.33005274
v 0.29810736 0.40151514 0.37550728
v 0.16174372 0.38636363 0.40581031
v 0.14659221 0.37121211 0.33005274
v 0.14249309 0.48112353 0.29446504
v 0.41931948 0.23484847 0.39065880
v 0.43922252 0.22936345 0.29051561
v 0.37386494 0.29545454 0.40581031
v 0.41931948 0.28030302 0.36035577
v 0.34356191 0.23484847 0.39065880
v 0.40416797 0.32575757 0.28459819
v 0.25272028 0.26504357 0.22477447
v 0.16174372 0.46212120 0.25429516
v 0.28295585 0.43181817 0.28459819
v 0.19204675 0.47727272 0.33005274
v 0.32841039 0.38636363 0.36035577
v 0.16421334 0.40686546 0.39718336
v 0.32841039 0.18939393 0.23914365
v 0.14284676 0.46878638 0.32829159
v 0.14437511 0.42531862 0.25178957
v 0.40416797 0.24999999 0.40581031
v 0.44962251 0.24999999 0.31490122
v 0.35871342 0.28030302 0.22399213
v 0.38901645 0.34090908 0.31490122
v 0.24807762 0.35026185 0.22774559
v 0.15030116 0.38035303 0.28146602
v 0.17689524 0.43181817 0.23914365
v 0.16174372 0.49242423 0.28459819
v 0.28295585 0.43181817 0.31490122
v 0.26780433 0.43181817 0.26944668
v 0.32841039 0.40151514 0.28459819
v 0.14905908 0.40852855 0.38727825
v 0.20719827 0.44696969 0.37550728
v 0.14659221 0.46212120 0.25429516
v 0.41931948 0.24999999 0.39065880
v 0.43447100 0.28030302 0.28459819
v 0.41931948 0.24999999 0.25429516
v 0.37386494 0.32575757 0.25429516
v 0.40416797 0.31060605 0.34520425
v 0.14256098 0.48172328 0.29312988
v 0.17689524 0.47727272 0.26944668
v 0.38901645 0.29545454 0.39065880
v 0.40416797 0.32575757 0.29974971
v 0.37386494 0.24999999 0.22399213
v 0.43447100 0.26515150 0.26944668
v 0.31325888 0.40151514 0.26944668
v 0.41931948 0.29545454 0.33005274
f 13 1 9
f 14 8 3
f 16 9 1
f 16 5 9
f 16 11 5
f 16 1 8
f 16 8 14
f 16 7 11
f 19 10 3
f 19 18 10
f 19 6 18
f 20 14 3
f 20 7 14
f 21 11 7
f 23 8 1
f 23 1 13
f 24 13 9
f 24 9 2
f 24 2 13
f 25 3 8
f 27 16 14
f 27 14 7
f 27 7 16
f 29 17 9
f 29 9 5
f 32 10 18
f 33 6 19
f 33 19 3
f 34 20 3
f 34 3 10
f 35 5 11
f 35 11 21
f 35 29 5
f 35 21 29
f 36 21 7
f 36 32 4
f 37 12 21
f 37 36 22
f 37 21 36
f 38 25 8
f 38 8 23
f 39 13 2
f 39 23 13
f 40 9 17
f 41 6 33
f 42 29 12
f 42 17 29
f 43 29 21
f 43 21 12
f 43 12 29
f 44 42 12
f 44 17 42
f 45 32 31
f 45 4 32
f 46 18 6
f 46 6 31
f 46 32 18
f 46 31 32
f 47 17 44
f 48 31 6
f 48 6 28
f 48 47 31
f 49 7 20
f 49 20 34
f 49 36 7
f 49 34 36
f 50 36 34
f 50 34 10
f 50 10 32
f 50 32 36
f 51 12 37
f 51 44 12
f 51 30 44
f 52 38 23
f 52 26 15
f 52 25 38
f 52 39 26
f 52 23 39
f 53 39 2
f 54 2 9
f 55 40 17
f 56 15 26
f 56 41 33
f 56 33 15
f 57 4 45
f 57 36 4
f 57 22 36
f 57 45 51
f 57 51 37
f 57 37 22
f 58 45 31
f 58 31 47
f 58 51 45
f 58 30 51
f 58 47 44
f 58 44 30
f 59 52 15
f 59 25 52
f 59 3 25
f 59 33 3
f 59 15 33
f 60 53 28
f 60 39 53
f 60 41 56
f 60 28 6
f 60 6 41
f 61 54 9
f 61 9 40
f 62 53 2
f 62 2 54
f 62 40 55
f 62 61 40
f 62 54 61
f 62 55 28
f 62 28 53
f 63 55 17
f 63 17 47
f 63 47 48
f 63 48 28
f 63 28 55
f 64 56 26
f 64 26 39
f 64 60 56
f 64 39 60

