# https://github.com/mikedh/trimesh
v 0.17689524 -0.40151516 0.19368910
v 0.40416797 -0.17424243 0.16338607
v 0.39243296 -0.16966316 0.22886620
v 0.02860710 -0.07881125 0.21630606
v 0.02538009 -0.14393940 0.01187092
v 0.39219723 -0.14021658 0.17122771
v 0.02538009 -0.26515153 0.23914365
v 0.35871342 -0.26515153 0.22399213
v 0.25265282 -0.31060607 0.01187092
v 0.40145793 -0.14283845 0.22524946
v 0.34703324 -0.13941618 0.01496310
v 0.05568312 -0.09848486 0.23914365
v 0.02538009 -0.26515153 0.01187092
v 0.02449258 -0.08440679 0.21050573
v 0.22234979 -0.38636365 0.22399213
v 0.32841039 -0.23484850 0.01187092
v 0.22234979 -0.09848486 0.20884062
v 0.37386494 -0.15909092 0.05732546
v 0.11628918 -0.23484850 0.23914365
v 0.02538009 -0.11363637 0.23914365
v 0.14659221 -0.40151516 0.13308304
v 0.09984195 -0.35710121 0.21728026
v 0.29810736 -0.32575759 0.16338607
v 0.25265282 -0.37121213 0.22399213
v 0.37386494 -0.23484850 0.16338607
v 0.35871342 -0.15909092 0.01187092
v 0.21959491 -0.10066029 0.18898474
v 0.36446474 -0.13671227 0.05845327
v 0.11628918 -0.12878789 0.23914365
v 0.04053160 -0.26515153 0.23914365
v 0.14659221 -0.37121213 0.02702243
v 0.19149062 -0.38527903 0.22442022
v 0.14542564 -0.39900573 0.19413350
v 0.10113766 -0.35606062 0.13308304
v 0.31325888 -0.29545456 0.11793152
v 0.22234979 -0.34090910 0.02702243
v 0.35871342 -0.20454546 0.05732546
v 0.34356191 -0.28030304 0.17853758
v 0.14659221 -0.38636365 0.07247698
v 0.17689524 -0.35606062 0.01187092
v 0.26780433 -0.31060607 0.04217395
v 0.25265282 -0.37121213 0.20884062
v 0.35871342 -0.26515153 0.20884062
v 0.32841039 -0.29545456 0.16338607
v 0.16174372 -0.38636365 0.07247698
v 0.14342112 -0.34953648 0.01357693
v 0.20719827 -0.34090910 0.01187092
v 0.29810736 -0.31060607 0.11793152
v 0.29810736 -0.28030304 0.04217395
v 0.17689524 -0.40151516 0.16338607
v 0.17689524 -0.37121213 0.04217395
v 0.22234979 -0.38636365 0.20884062
v 0.16174372 -0.40151516 0.13308304
v 0.20719827 -0.37121213 0.10278001
v 0.16174372 -0.37121213 0.02702243
v 0.20719827 -0.38636365 0.16338607
f 8 2 3
f 10 3 2
f 10 2 6
f 11 5 4
f 12 3 10
f 13 5 9
f 14 4 5
f 14 13 7
f 14 5 13
f 16 9 5
f 17 10 6
f 17 12 10
f 17 4 12
f 18 6 2
f 19 12 7
f 20 12 4
f 20 7 12
f 20 14 7
f 20 4 14
f 22 7 13
f 24 8 3
f 24 19 15
f 24 3 19
f 24 23 8
f 26 16 5
f 26 5 11
f 26 18 2
f 27 17 11
f 27 11 4
f 27 4 17
f 28 17 6
f 28 11 17
f 28 6 18
f 28 26 11
f 28 18 26
f 29 19 3
f 29 3 12
f 29 12 19
f 30 19 7
f 30 15 19
f 32 7 22
f 32 30 7
f 32 15 30
f 32 1 15
f 33 22 21
f 33 21 1
f 33 32 22
f 33 1 32
f 34 22 13
f 34 13 21
f 34 21 22
f 37 25 16
f 37 2 25
f 37 26 2
f 37 16 26
f 39 21 13
f 39 13 31
f 40 13 9
f 41 9 16
f 41 36 9
f 41 23 36
f 42 36 23
f 42 23 24
f 42 24 15
f 43 38 25
f 43 25 2
f 43 2 8
f 44 23 35
f 44 35 16
f 44 16 25
f 44 25 38
f 44 38 43
f 44 43 8
f 44 8 23
f 45 21 39
f 45 39 31
f 46 40 31
f 46 31 13
f 46 13 40
f 47 40 9
f 47 9 36
f 47 36 40
f 48 41 35
f 48 35 23
f 48 23 41
f 49 41 16
f 49 16 35
f 49 35 41
f 50 15 1
f 50 1 21
f 52 50 42
f 52 42 15
f 52 15 50
f 53 50 21
f 53 21 45
f 53 45 51
f 54 51 36
f 54 36 42
f 54 53 51
f 54 50 53
f 55 51 45
f 55 45 31
f 55 31 40
f 55 40 36
f 55 36 51
f 56 54 42
f 56 42 50
f 56 50 54

