# https://github.com/mikedh/trimesh
v 0.17689524 0.15909090 -0.29115938
v 0.17651785 0.15885776 -0.40368717
v 0.16174372 0.28030302 -0.30631090
v -0.08068052 0.31060605 -0.32146242
v -0.14020002 0.15509588 -0.39837212
v 0.07083463 0.28030302 -0.41237151
v -0.07737546 0.29961530 -0.29329633
v 0.17689524 0.26515150 -0.32146242
v 0.07083463 0.31060605 -0.32146242
v -0.12613507 0.26515150 -0.41237151
v 0.13144069 0.29545454 -0.29115938
v -0.14128658 0.15909090 -0.29115938
v 0.17689524 0.21969696 -0.41237151
v 0.16174372 0.28030302 -0.29115938
v 0.13144069 0.26515150 -0.39721999
v 0.04053160 0.29545454 -0.38206848
v 0.06802353 0.30078694 -0.29388052
v 0.13144069 0.29545454 -0.32146242
v -0.14128658 0.24999999 -0.29115938
v -0.14128658 0.24999999 -0.41237151
v 0.16845650 0.25339365 -0.29228084
v 0.14659221 0.24999999 -0.41237151
v 0.05568312 0.31060605 -0.33661393
v -0.08068052 0.28030302 -0.41237151
v 0.11628918 0.26515150 -0.41237151
v -0.14128658 0.28030302 -0.33661393
v 0.17689524 0.23484847 -0.39721999
v 0.14659221 0.28030302 -0.33661393
v -0.06552901 0.31060605 -0.33661393
v -0.14128658 0.28030302 -0.35176545
v -0.05037749 0.29545454 -0.38206848
f 5 2 1
f 12 5 1
f 12 1 11
f 13 8 1
f 13 1 2
f 13 10 6
f 14 8 3
f 14 11 1
f 14 3 11
f 17 9 4
f 17 4 7
f 17 11 9
f 17 7 11
f 18 11 3
f 18 9 11
f 19 12 11
f 19 11 7
f 20 13 2
f 20 2 5
f 20 10 13
f 20 5 12
f 20 12 19
f 21 14 1
f 21 1 8
f 21 8 14
f 22 13 6
f 23 6 16
f 23 18 6
f 23 9 18
f 23 4 9
f 24 16 6
f 24 6 10
f 25 18 15
f 25 6 18
f 25 22 6
f 25 15 22
f 26 19 7
f 26 7 4
f 26 20 19
f 27 8 13
f 27 13 22
f 28 27 22
f 28 8 27
f 28 18 3
f 28 3 8
f 28 22 15
f 28 15 18
f 29 23 16
f 29 4 23
f 29 24 10
f 30 26 4
f 30 10 20
f 30 20 26
f 30 29 10
f 30 4 29
f 31 29 16
f 31 16 24
f 31 24 29

