# https://github.com/mikedh/trimesh
v -0.00591098 -0.39851637 0.23592843
v 0.02403429 -0.29471158 0.21792350
v -0.09583204 -0.32575759 0.33005274
v -0.14128658 -0.25000001 0.31490122
v -0.23219567 -0.38636365 0.22399213
v 0.02538009 -0.26515153 0.23914365
v -0.00562381 -0.38585748 0.22237533
v -0.23219567 -0.38636365 0.33005274
v -0.09583204 -0.26515153 0.31490122
v -0.23219567 -0.26515153 0.22399213
v 0.02538009 -0.29545456 0.23914365
v -0.14428845 -0.39474957 0.32799095
v -0.14128658 -0.31060607 0.33005274
v -0.12613507 -0.25000001 0.31490122
v -0.08068052 -0.28030304 0.31490122
v -0.23506399 -0.26465345 0.28875769
v 0.02498662 -0.26434701 0.22196735
v -0.08068052 -0.37121213 0.31490122
v -0.11098355 -0.37121213 0.33005274
v -0.23612378 -0.34635131 0.32829696
v -0.11098355 -0.31060607 0.33005274
v -0.14136099 -0.25143010 0.29509648
v -0.09583204 -0.35606062 0.33005274
f 7 5 2
f 7 2 1
f 7 1 5
f 10 2 5
f 11 1 2
f 11 6 3
f 12 8 5
f 12 5 1
f 13 8 3
f 14 9 6
f 14 4 13
f 15 9 3
f 15 3 6
f 15 6 9
f 16 4 10
f 16 10 5
f 17 2 10
f 17 11 2
f 17 6 11
f 17 14 6
f 18 1 11
f 18 12 1
f 19 3 8
f 19 8 12
f 19 12 18
f 20 13 4
f 20 8 13
f 20 4 16
f 20 16 5
f 20 5 8
f 21 3 9
f 21 9 14
f 21 14 13
f 21 13 3
f 22 17 10
f 22 10 4
f 22 4 14
f 22 14 17
f 23 18 11
f 23 11 3
f 23 19 18
f 23 3 19

