# https://github.com/mikedh/trimesh
v -0.23358734 -0.35831747 0.22307153
v -0.22637616 -0.30296266 0.01413333
v -0.22476020 -0.34388570 0.13670863
v -0.22886835 0.36571008 0.22610511
v -0.44431688 0.02272726 0.19368910
v -0.22440575 0.31434904 0.04534555
v -0.35340779 -0.26515153 0.16338607
v -0.43180123 -0.03654873 0.22986124
v -0.35340779 0.26515150 0.14823455
v -0.39886234 0.00757575 0.01187092
v -0.26249870 -0.35606062 0.16338607
v -0.25566879 -0.34561692 0.22806637
v -0.38371082 0.23484847 0.22399213
v -0.42916537 -0.12878789 0.20884062
v -0.24734719 0.37121211 0.17853758
v -0.24734719 0.31060605 0.01187092
v -0.39886234 0.12878787 0.08762849
v -0.35340779 -0.18939395 0.01187092
v -0.24734719 -0.35606062 0.13308304
v -0.23994454 0.36039157 0.22877390
v -0.29280173 -0.34090910 0.22399213
v -0.44431688 0.05303029 0.20884062
v -0.42916537 -0.08333334 0.14823455
v -0.23219567 0.37121211 0.17853758
v -0.30795325 0.32575757 0.19368910
v -0.22709050 0.30329479 0.01410963
v -0.33825628 0.21969696 0.01187092
v -0.38371082 0.21969696 0.17853758
v -0.39886234 -0.18939395 0.16338607
v -0.24734719 -0.31060607 0.01187092
v -0.43029201 0.05104097 0.22859473
v -0.27765022 0.35606060 0.22399213
v -0.33825628 -0.29545456 0.20884062
v -0.38371082 -0.23484850 0.22399213
v -0.44431688 -0.03787880 0.20884062
v -0.41401385 0.03787878 0.07247698
v -0.42916537 -0.05303031 0.13308304
v -0.39886234 -0.09848486 0.04217395
v -0.24734719 0.32575757 0.04217395
v -0.33825628 0.29545454 0.19368910
v -0.38371082 0.09848484 0.01187092
v -0.38371082 0.23484847 0.20884062
v -0.35340779 0.21969696 0.05732546
v -0.35340779 -0.20454546 0.02702243
v -0.41401385 -0.15909092 0.17853758
v -0.29280173 -0.28030304 0.01187092
v -0.27765022 0.35606060 0.20884062
v -0.33825628 0.29545454 0.22399213
v -0.29280173 -0.34090910 0.20884062
v -0.33825628 -0.29545456 0.22399213
v -0.42916537 -0.12878789 0.22399213
v -0.38371082 -0.21969698 0.16338607
v -0.38371082 -0.23484850 0.20884062
v -0.42916537 -0.09848486 0.16338607
v -0.42916537 0.08333332 0.16338607
v -0.42916537 0.03787878 0.13308304
v -0.44431688 -0.00757577 0.19368910
v -0.38371082 -0.11363637 0.01187092
v -0.39886234 -0.03787880 0.01187092
v -0.41401385 -0.08333334 0.08762849
v -0.30795325 0.31060605 0.13308304
v -0.38371082 0.12878787 0.04217395
v -0.39886234 0.11363635 0.07247698
v -0.36855931 -0.15909092 0.01187092
f 1 3 4
f 6 3 2
f 6 4 3
f 18 10 16
f 19 2 3
f 19 3 1
f 19 1 11
f 20 12 1
f 20 1 4
f 20 8 12
f 21 11 1
f 21 1 12
f 24 15 4
f 24 4 6
f 26 6 2
f 26 2 16
f 27 16 10
f 30 18 16
f 30 16 2
f 30 2 19
f 31 20 13
f 31 8 20
f 31 22 8
f 31 13 22
f 32 20 4
f 32 4 15
f 34 12 8
f 35 8 22
f 35 22 5
f 37 23 35
f 39 15 24
f 39 26 16
f 39 24 6
f 39 6 26
f 41 27 10
f 41 10 36
f 42 40 9
f 42 13 40
f 42 22 13
f 43 17 28
f 43 9 27
f 43 42 9
f 43 28 42
f 46 30 19
f 46 19 11
f 46 7 44
f 46 44 18
f 46 18 30
f 46 33 7
f 47 32 15
f 47 25 32
f 48 13 20
f 48 20 32
f 48 40 13
f 48 32 25
f 48 25 40
f 49 11 21
f 49 21 33
f 49 46 11
f 49 33 46
f 50 21 12
f 50 12 34
f 50 34 33
f 50 33 21
f 51 34 8
f 51 14 34
f 51 35 14
f 51 8 35
f 52 44 7
f 52 29 44
f 53 7 33
f 53 33 34
f 53 52 7
f 53 29 52
f 53 45 29
f 53 34 14
f 53 14 45
f 54 35 23
f 54 14 35
f 54 45 14
f 54 23 38
f 54 38 45
f 55 22 42
f 55 42 28
f 55 28 17
f 56 5 22
f 56 55 36
f 56 22 55
f 56 36 10
f 56 37 5
f 56 10 37
f 57 37 35
f 57 35 5
f 57 5 37
f 58 10 18
f 59 37 10
f 59 58 38
f 59 10 58
f 60 38 23
f 60 23 37
f 60 59 38
f 60 37 59
f 61 25 47
f 61 47 15
f 61 15 39
f 61 40 25
f 61 9 40
f 61 27 9
f 61 39 16
f 61 16 27
f 62 41 17
f 62 27 41
f 62 43 27
f 62 17 43
f 63 41 36
f 63 17 41
f 63 55 17
f 63 36 55
f 64 44 29
f 64 38 58
f 64 58 18
f 64 18 44
f 64 45 38
f 64 29 45

