# https://github.com/mikedh/trimesh
v 0.11628918 -0.43181819 0.22399213
v 0.19204675 -0.40151516 0.19368910
v 0.08598615 -0.31060607 0.23914365
v -0.23219567 -0.26515153 0.22399213
v -0.18674113 -0.35606062 0.01187092
v -0.21021740 -0.37374788 0.22827716
v 0.18601449 -0.38975063 0.22863546
v 0.11628918 -0.38636365 0.01187092
v 0.07083463 -0.34090910 0.23914365
v 0.07083463 -0.31060607 0.23914365
v -0.11098355 -0.43181819 0.20884062
v -0.23219567 -0.32575759 0.01187092
v 0.16174372 -0.41666668 0.20884062
v 0.14659221 -0.26515153 0.01187092
v -0.11098355 -0.43181819 0.22399213
v 0.08598615 -0.34090910 0.23914365
v -0.21704416 -0.38636365 0.17853758
v 0.04053160 -0.43181819 0.14823455
v 0.13144069 -0.37121213 -0.00328060
v 0.14659221 -0.38636365 0.04217395
v 0.18809285 -0.34334968 0.19821969
v -0.23219567 -0.26515153 0.01187092
v 0.10005480 -0.26533784 0.21400478
v 0.15619698 -0.40379283 0.22973548
v -0.18674113 -0.40151516 0.17853758
v -0.23219567 -0.35606062 0.10278001
v -0.22722455 -0.36381513 0.22685932
v -0.15643810 -0.41666668 0.22399213
v 0.10113766 -0.41666668 0.11793152
v -0.05037749 -0.40151516 0.02702243
v 0.14659221 -0.41666668 0.17853758
v 0.14659221 -0.37121213 0.01187092
v 0.18881834 -0.34964552 0.22526031
v 0.11622607 -0.35584611 -0.00321628
v 0.14659221 -0.26515153 0.13308304
v -0.23219567 -0.37121213 0.16338607
v -0.15643810 -0.41666668 0.20884062
v 0.07083463 -0.40151516 0.02702243
v 0.07083463 -0.43181819 0.16338607
v -0.06552901 -0.43181819 0.16338607
v -0.11098355 -0.38636365 0.01187092
v 0.13144069 -0.40151516 0.08762849
v 0.11628918 -0.43181819 0.20884062
v 0.12854360 -0.35297390 -0.00224815
v 0.01022857 -0.43181819 0.14823455
v -0.14128658 -0.41666668 0.17853758
f 10 3 4
f 10 4 6
f 10 9 3
f 10 6 9
f 13 7 1
f 13 2 7
f 15 9 6
f 15 11 1
f 16 7 3
f 16 3 9
f 18 1 11
f 19 5 12
f 21 2 14
f 22 12 4
f 22 4 14
f 23 4 3
f 24 15 1
f 24 9 15
f 24 16 9
f 24 1 7
f 24 7 16
f 25 17 5
f 26 12 5
f 26 5 17
f 26 4 12
f 27 6 4
f 28 15 6
f 28 27 17
f 28 6 27
f 28 17 25
f 28 11 15
f 31 20 2
f 31 2 13
f 32 19 14
f 32 14 2
f 32 2 20
f 32 20 8
f 32 8 19
f 33 7 2
f 33 2 21
f 33 23 3
f 33 3 7
f 34 19 12
f 34 12 22
f 34 22 14
f 35 14 4
f 35 4 23
f 35 23 33
f 35 33 21
f 35 21 14
f 36 26 17
f 36 17 27
f 36 27 4
f 36 4 26
f 37 28 25
f 37 25 11
f 37 11 28
f 38 18 30
f 38 30 19
f 38 19 8
f 39 1 18
f 39 38 29
f 39 18 38
f 40 18 11
f 41 5 19
f 41 19 30
f 41 25 5
f 41 40 11
f 41 30 40
f 42 31 29
f 42 20 31
f 42 29 38
f 42 38 8
f 42 8 20
f 43 31 13
f 43 13 1
f 43 29 31
f 43 39 29
f 43 1 39
f 44 34 14
f 44 14 19
f 44 19 34
f 45 40 30
f 45 30 18
f 45 18 40
f 46 41 11
f 46 11 25
f 46 25 41

