# https://github.com/mikedh/trimesh
v -0.17112648 -0.34027934 0.01203291
v -0.16375027 -0.29831187 -0.18127907
v -0.17010874 0.33823070 0.01267192
v -0.20189264 0.34090908 0.01187092
v -0.38371082 -0.08333334 -0.04873514
v -0.18674113 0.29545454 -0.18509878
v -0.37231161 -0.09646302 0.01904124
v -0.27765022 -0.28030304 -0.04873514
v -0.16439617 0.30119153 -0.16420185
v -0.36855931 0.15909090 -0.00328060
v -0.33825628 -0.12878789 -0.18509878
v -0.24734719 0.31060605 0.01187092
v -0.20189264 -0.34090910 -0.03358363
v -0.36855931 -0.15909092 0.01187092
v -0.16727666 0.28832333 -0.18315303
v -0.18674113 0.34090908 -0.04873514
v -0.38371082 0.08333332 0.01187092
v -0.18674113 -0.31060607 -0.18509878
v -0.32310476 0.15909090 -0.18509878
v -0.38371082 -0.09848486 -0.01843211
v -0.32310476 -0.17424243 -0.16994726
v -0.36855931 -0.15909092 -0.00328060
v -0.24734719 -0.31060607 0.01187092
v -0.18674113 0.31060605 -0.16994726
v -0.17158961 0.34090908 -0.04873514
v -0.24734719 0.31060605 -0.00328060
v -0.32310476 0.23484847 0.01187092
v -0.21704416 -0.29545456 -0.16994726
v -0.17158961 -0.34090910 -0.04873514
v -0.35340779 0.06818181 -0.16994726
v -0.29280173 -0.20454546 -0.18509878
v -0.36855931 -0.11363637 -0.07903817
v -0.33825628 -0.20454546 -0.01843211
v -0.20189264 -0.34090910 0.01187092
v -0.30795325 -0.25000001 0.01187092
v -0.24734719 -0.31060607 -0.00328060
v -0.27765022 0.23484847 -0.16994726
v -0.20189264 0.34090908 -0.00328060
v -0.21704416 0.32575757 -0.03358363
v -0.36855931 0.15909090 0.01187092
v -0.30795325 0.18939393 -0.18509878
v -0.17158961 -0.32575759 -0.12449272
v -0.33825628 0.09848484 -0.18509878
v -0.35340779 -0.05303031 -0.16994726
v -0.38371082 0.02272726 -0.04873514
v -0.36855931 0.11363635 -0.06388666
v -0.32310476 -0.15909092 -0.18509878
v -0.27765022 -0.26515153 -0.09418969
v -0.30795325 -0.25000001 -0.00328060
v -0.21704416 0.28030302 -0.18509878
v -0.24734719 0.29545454 -0.06388666
v -0.32310476 0.23484847 -0.00328060
v -0.18674113 -0.32575759 -0.12449272
v -0.36855931 -0.00757577 -0.12449272
v -0.35340779 0.09848484 -0.13964423
v -0.36855931 0.05303029 -0.12449272
v -0.38371082 0.08333332 -0.00328060
v -0.23219567 -0.28030304 -0.16994726
v -0.26249870 -0.28030304 -0.09418969
v -0.29280173 -0.25000001 -0.07903817
v -0.26249870 0.24999999 -0.16994726
v -0.33825628 0.20454544 -0.01843211
v -0.30795325 0.24999999 -0.01843211
v -0.18674113 -0.34090910 -0.04873514
f 1 2 3
f 7 1 3
f 9 3 2
f 12 7 3
f 12 3 4
f 15 9 2
f 18 11 6
f 18 15 2
f 18 6 15
f 19 6 11
f 20 14 7
f 20 17 5
f 20 7 17
f 22 11 21
f 22 20 5
f 22 14 20
f 24 15 6
f 24 9 15
f 25 16 4
f 25 4 3
f 25 3 9
f 25 24 16
f 25 9 24
f 26 12 4
f 27 12 26
f 27 7 12
f 28 18 13
f 28 13 8
f 29 2 1
f 31 11 18
f 31 18 28
f 32 22 5
f 32 5 11
f 32 11 22
f 33 22 21
f 34 1 7
f 34 7 23
f 34 23 13
f 34 29 1
f 34 13 29
f 35 23 7
f 35 7 14
f 35 14 22
f 36 8 13
f 36 13 23
f 36 23 35
f 38 26 4
f 38 4 16
f 39 16 24
f 39 38 16
f 39 26 38
f 40 27 10
f 40 10 17
f 40 17 7
f 40 7 27
f 41 19 10
f 41 6 19
f 42 18 2
f 42 2 29
f 43 30 19
f 43 19 11
f 43 11 30
f 44 30 11
f 44 11 5
f 45 5 17
f 46 10 19
f 47 31 21
f 47 21 11
f 47 11 31
f 48 21 31
f 49 33 8
f 49 36 35
f 49 8 36
f 49 35 22
f 49 22 33
f 50 24 6
f 50 6 41
f 51 39 24
f 51 26 39
f 52 10 27
f 52 27 26
f 53 42 29
f 53 13 18
f 53 18 42
f 54 44 5
f 54 30 44
f 54 5 45
f 55 46 19
f 55 19 30
f 55 30 46
f 56 46 30
f 56 54 45
f 56 30 54
f 57 45 17
f 57 17 10
f 57 10 46
f 57 56 45
f 57 46 56
f 58 48 31
f 58 31 28
f 58 28 48
f 59 48 28
f 59 28 8
f 59 8 48
f 60 33 21
f 60 21 48
f 60 48 8
f 60 8 33
f 61 24 50
f 61 51 24
f 61 50 41
f 61 41 37
f 62 52 41
f 62 41 10
f 62 10 52
f 63 37 41
f 63 41 52
f 63 61 37
f 63 51 61
f 63 52 26
f 63 26 51
f 64 53 29
f 64 29 13
f 64 13 53

