# https://github.com/mikedh/trimesh
v -0.14128658 -0.49242426 0.33005274
v -0.09583204 -0.49242426 0.26944668
v -0.11098355 -0.40151516 0.39065880
v -0.30795325 -0.26515153 0.37550728
v -0.23219567 -0.44696971 0.26944668
v -0.11158779 -0.38918962 0.26914476
v -0.29280173 -0.38636365 0.40581031
v -0.11098355 -0.46212122 0.40581031
v -0.20189264 -0.47727274 0.28459819
v -0.09547507 -0.44530584 0.25743588
v -0.11098355 -0.38636365 0.34520425
v -0.32316065 -0.26519395 0.33003505
v -0.30795325 -0.28030304 0.40581031
v -0.11098355 -0.47727274 0.37550728
v -0.17158961 -0.46212122 0.39065880
v -0.17158961 -0.47727274 0.26944668
v -0.15643810 -0.49242426 0.28459819
v -0.30795325 -0.40151516 0.36035577
v -0.23476916 -0.39148620 0.26047058
v -0.09460308 -0.48743239 0.28872192
v -0.09583204 -0.44696971 0.28459819
v -0.33124387 -0.27226666 0.37318954
v -0.12613507 -0.40151516 0.40581031
v -0.21704416 -0.43181819 0.40581031
v -0.14128658 -0.47727274 0.37550728
v -0.18674113 -0.47727274 0.34520425
v -0.15643810 -0.46212122 0.25429516
v -0.12613507 -0.49242426 0.26944668
v -0.23219567 -0.46212122 0.28459819
v -0.31282245 -0.37867261 0.32879167
v -0.09451343 -0.45479582 0.26343460
v -0.32310476 -0.35606062 0.40581031
v -0.12613507 -0.46212122 0.40581031
v -0.27765022 -0.41666668 0.37550728
v -0.17158961 -0.47727274 0.36035577
v -0.15643810 -0.49242426 0.31490122
v -0.23219567 -0.46212122 0.31490122
v -0.32310476 -0.38636365 0.36035577
v -0.32310476 -0.37121213 0.39065880
v -0.32982395 -0.28533619 0.39833079
v -0.30795325 -0.38636365 0.39065880
v -0.20189264 -0.47727274 0.31490122
v -0.21704416 -0.46212122 0.34520425
f 11 6 4
f 11 4 3
f 11 10 6
f 12 4 6
f 13 3 4
f 13 7 8
f 14 1 2
f 16 9 5
f 17 2 1
f 19 6 10
f 19 12 6
f 20 14 2
f 20 8 14
f 20 3 8
f 21 11 3
f 21 10 11
f 21 3 20
f 22 13 4
f 22 4 12
f 23 13 8
f 23 8 3
f 23 3 13
f 24 8 7
f 25 14 8
f 25 1 14
f 26 15 24
f 27 10 2
f 27 16 5
f 27 19 10
f 27 5 19
f 28 2 17
f 28 27 2
f 28 16 27
f 28 17 9
f 28 9 16
f 29 5 9
f 30 5 29
f 30 19 5
f 30 12 19
f 31 20 2
f 31 2 10
f 31 21 20
f 31 10 21
f 32 7 13
f 33 24 15
f 33 8 24
f 33 25 8
f 33 15 25
f 34 24 7
f 34 26 24
f 35 25 15
f 35 15 26
f 35 26 1
f 35 1 25
f 36 17 1
f 36 1 26
f 36 9 17
f 37 18 29
f 37 34 18
f 37 29 9
f 38 30 29
f 38 29 18
f 38 22 12
f 38 12 30
f 39 38 18
f 40 32 13
f 40 13 22
f 40 39 32
f 40 22 38
f 40 38 39
f 41 34 7
f 41 18 34
f 41 39 18
f 41 7 32
f 41 32 39
f 42 36 26
f 42 9 36
f 42 37 9
f 42 26 37
f 43 37 26
f 43 26 34
f 43 34 37

