# https://github.com/mikedh/trimesh
v 0.14679256 0.18904830 0.22689714
v 0.30451396 0.25533465 0.22255839
v 0.13144069 0.21969696 0.26944668
v -0.09583204 0.41666666 0.26944668
v -0.09667624 0.42052121 0.22288623
v 0.24923585 0.41133178 0.27728622
v -0.15915921 0.23706532 0.24143931
v 0.30661974 0.25680851 0.23707524
v -0.15643810 0.23484847 0.22399213
v -0.15643810 0.35606060 0.26944668
v 0.25265282 0.41666666 0.25429516
v 0.10113766 0.18939393 0.25429516
v 0.25642050 0.31537142 0.26807284
v -0.05037749 0.29545454 0.26944668
v -0.15730276 0.37308091 0.26899654
v 0.17689524 0.41666666 0.22399213
v 0.11628918 0.21969696 0.26944668
v 0.11628918 0.18939393 0.25429516
v 0.10046013 0.18561180 0.22990006
v -0.15245219 0.36573213 0.23099811
v 0.25265282 0.37121211 0.22399213
v 0.23750130 0.38636363 0.22399213
f 8 1 2
f 9 5 2
f 9 2 1
f 10 6 4
f 11 5 4
f 11 4 6
f 11 8 2
f 11 6 8
f 13 8 6
f 13 6 3
f 13 3 8
f 14 6 10
f 14 10 7
f 15 10 4
f 15 4 5
f 15 7 10
f 16 2 5
f 16 5 11
f 17 12 3
f 17 7 12
f 17 14 7
f 17 3 6
f 17 6 14
f 18 8 3
f 18 3 12
f 18 1 8
f 19 9 1
f 19 18 12
f 19 1 18
f 19 12 7
f 19 7 9
f 20 15 5
f 20 5 9
f 20 9 7
f 20 7 15
f 21 11 2
f 22 16 11
f 22 11 21
f 22 21 2
f 22 2 16

