# https://github.com/mikedh/trimesh
v -0.24734719 -0.44696971 0.33005274
v -0.22476066 -0.36014887 0.21312890
v -0.24734719 -0.08333334 0.28459819
v -0.46200988 -0.08077022 0.37012229
v -0.45946840 -0.23484850 0.28459819
v -0.32310476 -0.26515153 0.40581031
v -0.22588678 -0.43528296 0.32577164
v -0.30795325 -0.41666668 0.28459819
v -0.42916537 -0.12878789 0.22399213
v -0.39886234 -0.12878789 0.40581031
v -0.38371082 -0.29545456 0.40581031
v -0.22845834 -0.44108170 0.29262684
v -0.23059580 -0.08141745 0.24726876
v -0.32310476 -0.34090910 0.40581031
v -0.23219567 -0.32575759 0.33005274
v -0.36855931 -0.26515153 0.22399213
v -0.48522143 -0.08267023 0.29096720
v -0.39886234 -0.08333334 0.37550728
v -0.32310476 -0.40151516 0.33005274
v -0.47461991 -0.14393940 0.37550728
v -0.26249870 -0.43181819 0.26944668
v -0.23219567 -0.08333334 0.22399213
v -0.23219567 -0.15909092 0.28459819
v -0.41401385 -0.31060607 0.28459819
v -0.24734719 -0.37121213 0.20884062
v -0.41401385 -0.18939395 0.22399213
v -0.47461991 -0.17424243 0.26944668
v -0.26249870 -0.44696971 0.31490122
v -0.33825628 -0.35606062 0.39065880
v -0.41401385 -0.29545456 0.36035577
v -0.48977143 -0.08333334 0.34520425
v -0.42916537 -0.20454546 0.40581031
v -0.27765022 -0.08333334 0.22399213
v -0.23219567 -0.41666668 0.25429516
v -0.30795325 -0.40151516 0.26944668
v -0.23120623 -0.35450182 0.20934969
v -0.39886234 -0.21969698 0.22399213
v -0.42916537 -0.14393940 0.22399213
v -0.48977143 -0.14393940 0.28459819
v -0.30795325 -0.41666668 0.31490122
v -0.29280173 -0.41666668 0.34520425
v -0.26249870 -0.44696971 0.28459819
v -0.33825628 -0.34090910 0.40581031
v -0.45946840 -0.23484850 0.31490122
v -0.38371082 -0.34090910 0.33005274
v -0.38371082 -0.31060607 0.39065880
v -0.42964766 -0.12854077 0.40279778
v -0.41401385 -0.26515153 0.39065880
v -0.36855931 -0.29545456 0.23914365
v -0.42916537 -0.26515153 0.26944668
v -0.44431688 -0.20454546 0.25429516
v -0.48977143 -0.15909092 0.31490122
v -0.45946840 -0.20454546 0.36035577
v -0.41401385 -0.31060607 0.31490122
v -0.35340779 -0.35606062 0.26944668
v -0.42916537 -0.23484850 0.25429516
v -0.48977143 -0.11363637 0.34520425
v -0.48977143 -0.15909092 0.29974971
v -0.47461991 -0.18939395 0.33005274
v -0.44431688 -0.20454546 0.39065880
v -0.48977143 -0.14393940 0.33005274
v -0.45946840 -0.18939395 0.37550728
f 10 6 3
f 11 6 10
f 12 7 1
f 12 2 7
f 13 7 2
f 14 7 6
f 14 1 7
f 14 6 11
f 15 3 6
f 15 6 7
f 17 4 13
f 18 10 3
f 18 4 10
f 18 13 4
f 18 3 13
f 22 13 2
f 23 13 3
f 23 3 15
f 23 15 7
f 23 7 13
f 24 8 19
f 31 20 4
f 31 4 17
f 32 11 10
f 33 17 13
f 33 13 22
f 33 9 17
f 34 25 2
f 34 2 12
f 34 21 25
f 35 25 21
f 35 21 8
f 35 8 24
f 36 22 2
f 36 2 25
f 36 33 22
f 36 25 9
f 36 9 33
f 37 26 25
f 37 25 16
f 38 9 25
f 38 25 26
f 38 26 27
f 39 17 9
f 39 38 27
f 39 9 38
f 39 31 17
f 40 28 19
f 40 19 8
f 40 8 28
f 41 28 1
f 41 19 28
f 41 29 19
f 41 1 29
f 42 28 8
f 42 8 21
f 42 12 1
f 42 1 28
f 42 34 12
f 42 21 34
f 43 14 11
f 43 11 29
f 43 29 1
f 43 1 14
f 44 5 24
f 45 19 30
f 46 29 11
f 46 11 30
f 46 30 19
f 46 19 29
f 47 32 10
f 47 10 4
f 47 4 20
f 47 20 32
f 48 30 11
f 49 16 25
f 49 25 35
f 49 37 16
f 50 24 5
f 50 5 27
f 50 49 24
f 50 37 49
f 51 27 26
f 51 26 37
f 52 31 39
f 52 5 44
f 53 44 30
f 54 44 24
f 54 30 44
f 54 45 30
f 54 24 19
f 54 19 45
f 55 49 35
f 55 35 24
f 55 24 49
f 56 51 37
f 56 37 50
f 56 50 27
f 56 27 51
f 57 20 31
f 57 31 52
f 58 52 39
f 58 5 52
f 58 39 27
f 58 27 5
f 59 52 44
f 59 44 53
f 59 20 52
f 60 32 20
f 60 48 11
f 60 11 32
f 60 53 30
f 60 30 48
f 61 57 52
f 61 52 20
f 61 20 57
f 62 60 20
f 62 53 60
f 62 59 53
f 62 20 59

