# https://github.com/mikedh/trimesh
v 0.35782040 0.23425041 0.22438939
v 0.35871342 0.24999999 0.16338607
v 0.16174372 0.41666666 0.22399213
v -0.12613507 0.43181817 0.22399213
v -0.23219567 0.23484847 0.13308304
v 0.09780737 0.41961069 0.22914798
v 0.26780433 0.35606060 0.22399213
v 0.33376860 0.22789979 0.13620821
v -0.23219567 0.23484847 0.22399213
v 0.10113766 0.43181817 0.20884062
v 0.35871342 0.26515150 0.22399213
v 0.22234979 0.37121211 0.13308304
v 0.22234979 0.38636363 0.22399213
v 0.34812091 0.22868198 0.16950588
v -0.23219567 0.38636363 0.22399213
v 0.29810736 0.32575757 0.16338607
v 0.13144069 0.41666666 0.16338607
v 0.34356191 0.24999999 0.13308304
v 0.16174372 0.41666666 0.20884062
v -0.15643810 0.40151514 0.13308304
v -0.17158961 0.41666666 0.22399213
v 0.32841039 0.29545454 0.16338607
v 0.23750130 0.37121211 0.16338607
v 0.26780433 0.34090908 0.13308304
v 0.20719827 0.38636363 0.16338607
v 0.08598615 0.43181817 0.17853758
v -0.23219567 0.35606060 0.13308304
v 0.08598615 0.41666666 0.13308304
v -0.23219567 0.38636363 0.20884062
v -0.15643810 0.41666666 0.17853758
v 0.35871342 0.26515150 0.20884062
v 0.26780433 0.35606060 0.20884062
v 0.22234979 0.38636363 0.20884062
v 0.07083463 0.43181817 0.16338607
v -0.21704416 0.37121211 0.13308304
v -0.17158961 0.41666666 0.20884062
v 0.28295585 0.34090908 0.17853758
v -0.03522598 0.43181817 0.14823455
v -0.23219567 0.37121211 0.16338607
v -0.21704416 0.38636363 0.17853758
v -0.12613507 0.43181817 0.20884062
v 0.01022857 0.43181817 0.14823455
v -0.11098355 0.41666666 0.13308304
v -0.08068052 0.43181817 0.16338607
f 9 1 6
f 9 5 8
f 10 6 3
f 10 4 6
f 11 1 2
f 11 7 6
f 11 6 1
f 13 3 6
f 13 6 7
f 14 8 2
f 14 2 1
f 14 9 8
f 14 1 9
f 15 5 9
f 15 9 6
f 16 7 11
f 18 2 8
f 18 8 5
f 18 5 12
f 19 3 13
f 19 10 3
f 20 12 5
f 21 15 6
f 21 6 4
f 22 2 18
f 24 18 12
f 24 22 18
f 24 16 22
f 24 23 16
f 24 12 23
f 25 12 17
f 25 17 19
f 25 23 12
f 25 19 23
f 26 19 17
f 26 10 19
f 26 4 10
f 27 20 5
f 27 5 15
f 28 17 12
f 28 12 20
f 29 15 21
f 29 27 15
f 31 11 2
f 31 2 22
f 31 22 16
f 31 16 11
f 32 13 7
f 32 7 16
f 33 23 19
f 33 19 13
f 33 32 23
f 33 13 32
f 34 26 17
f 34 17 28
f 34 4 26
f 35 20 27
f 35 30 20
f 36 21 4
f 36 30 29
f 36 29 21
f 37 32 16
f 37 16 23
f 37 23 32
f 38 4 34
f 39 35 27
f 39 27 29
f 39 29 35
f 40 35 29
f 40 29 30
f 40 30 35
f 41 36 4
f 41 30 36
f 41 4 38
f 42 38 34
f 42 34 28
f 42 28 38
f 43 38 28
f 43 28 20
f 43 20 30
f 43 30 41
f 44 43 41
f 44 41 38
f 44 38 43

