# https://github.com/mikedh/trimesh
v 0.28191647 -0.14798706 0.18368499
v 0.28295585 -0.14393940 0.14823455
v 0.28250620 0.23526220 0.21898342
v 0.10113766 0.23484847 0.22399213
v 0.02538009 -0.14393940 0.14823455
v 0.26780433 -0.08333334 0.25429516
v 0.28295585 0.05303029 0.25429516
v 0.28295585 0.23484847 0.14823455
v 0.02305261 -0.14522215 0.22094537
v 0.16174372 0.14393938 0.26944668
v 0.28295585 0.08333332 0.25429516
v 0.10113766 0.23484847 0.14823455
v 0.20719827 -0.12878789 0.23914365
v 0.26780433 0.23484847 0.23914365
v 0.11628918 0.12878787 0.26944668
v 0.20719827 0.09848484 0.26944668
v 0.14660283 0.23501591 0.23858785
v 0.02541121 -0.00714539 0.20325482
v 0.20503012 -0.14459008 0.21603188
v 0.07083463 -0.12878789 0.23914365
v 0.20719827 0.11363635 0.26944668
v 0.13144069 0.08333332 0.26944668
v 0.14659221 0.14393938 0.26944668
v 0.02538009 -0.05303031 0.22399213
v 0.02538009 -0.00757577 0.14823455
v 0.20719827 -0.09848486 0.25429516
v 0.11628918 0.11363635 0.26944668
v 0.16174372 0.08333332 0.26944668
f 5 2 1
f 7 1 2
f 7 6 1
f 8 2 5
f 8 7 2
f 9 5 1
f 11 8 3
f 11 7 8
f 12 8 5
f 12 3 8
f 13 1 6
f 14 11 3
f 16 6 7
f 16 7 11
f 16 10 15
f 17 12 4
f 17 3 12
f 17 14 3
f 17 4 15
f 18 4 12
f 19 13 9
f 19 9 1
f 19 1 13
f 20 9 13
f 21 14 10
f 21 10 16
f 21 16 11
f 21 11 14
f 22 16 15
f 23 10 14
f 23 14 17
f 23 17 15
f 23 15 10
f 24 15 4
f 24 4 18
f 24 18 9
f 25 18 12
f 25 12 5
f 25 5 9
f 25 9 18
f 26 20 13
f 26 13 6
f 26 22 20
f 27 9 20
f 27 24 9
f 27 15 24
f 27 22 15
f 27 20 22
f 28 26 6
f 28 6 16
f 28 16 22
f 28 22 26

