# https://github.com/mikedh/trimesh
v 0.10792942 -0.00240840 0.21761995
v 0.10113766 -0.00757577 0.14823455
v 0.10113766 0.23484847 0.14823455
v -0.23219567 0.23484847 0.22399213
v -0.23219567 -0.00757577 0.25429516
v -0.23219567 0.23484847 0.14823455
v 0.10340814 0.24079387 0.24777791
v -0.15643810 -0.00757577 0.25429516
v -0.23440614 0.19218103 0.24894557
v -0.23219567 -0.00757577 0.14823455
v -0.15915921 0.23706532 0.24143931
v -0.03522598 0.08333332 0.26944668
v -0.06552901 0.05303029 0.26944668
v -0.06552901 0.08333332 0.26944668
v 0.10113766 0.11363635 0.25429516
f 1 2 3
f 6 3 2
f 7 1 3
f 7 3 6
f 8 5 2
f 8 2 1
f 9 4 6
f 10 6 2
f 10 2 5
f 10 9 6
f 10 5 9
f 11 7 6
f 11 6 4
f 11 9 7
f 11 4 9
f 13 5 8
f 13 8 1
f 14 12 7
f 14 7 9
f 14 13 12
f 14 9 5
f 14 5 13
f 15 1 7
f 15 7 12
f 15 13 1
f 15 12 13

