# https://github.com/mikedh/trimesh
v 0.08598615 -0.34090910 -0.20025029
v 0.32841039 -0.06818183 -0.24570484
v 0.30263028 0.13873571 -0.17965753
v -0.14128658 0.15909090 -0.18509878
v -0.14128658 -0.26515153 -0.41237151
v 0.08259720 -0.32764153 -0.17976996
v 0.16174372 -0.25000001 -0.41237151
v -0.12613507 -0.32575759 -0.18509878
v 0.29810736 -0.18939395 -0.18509878
v 0.02538009 -0.29545456 -0.41237151
v 0.25265282 0.14393938 -0.41237151
v -0.06552901 -0.34090910 -0.20025029
v -0.14098463 -0.30502851 -0.18261182
v 0.14659221 -0.32575759 -0.18509878
v 0.32841039 -0.09848486 -0.18509878
v 0.26780433 -0.12878789 -0.41237151
v 0.32841039 0.06818181 -0.24570484
v 0.29810736 0.15909090 -0.24570484
v -0.14020002 0.15509588 -0.39837212
v -0.06279164 -0.32666465 -0.18195774
v -0.03522598 -0.34090910 -0.24570484
v -0.14128658 -0.31060607 -0.24570484
v 0.19204675 -0.29545456 -0.18509878
v 0.10113766 -0.31060607 -0.32146242
v 0.31325888 -0.15909092 -0.20025029
v 0.31325888 -0.15909092 -0.18509878
v 0.25265282 -0.20454546 -0.32146242
v 0.28295585 0.06818181 -0.41237151
v 0.32841039 0.09848484 -0.18509878
v 0.29194063 0.15691082 -0.18097929
v 0.23750130 0.15909090 -0.41237151
v -0.06552901 -0.29545456 -0.39721999
v -0.11098355 -0.32575759 -0.24570484
v 0.19204675 -0.26515153 -0.32146242
v 0.10113766 -0.28030304 -0.41237151
v 0.14659221 -0.32575759 -0.20025029
v 0.04053160 -0.34090910 -0.24570484
v 0.32841039 -0.09848486 -0.20025029
v 0.31325888 -0.14393940 -0.23055332
v 0.22234979 -0.20454546 -0.39721999
v 0.23750130 -0.25000001 -0.24570484
v 0.29810736 -0.18939395 -0.20025029
v 0.29810736 0.11363635 -0.32146242
v 0.29810736 -0.02272728 -0.38206848
v 0.31325888 0.12878787 -0.24570484
v 0.31325888 0.14393938 -0.20025029
v 0.25265282 0.15909090 -0.38206848
v -0.11098355 -0.28030304 -0.41237151
v -0.05037749 -0.32575759 -0.30631090
v -0.12613507 -0.32575759 -0.20025029
v -0.14128658 -0.29545456 -0.32146242
v 0.14659221 -0.29545456 -0.30631090
v 0.05568312 -0.29545456 -0.39721999
v 0.28295585 -0.08333334 -0.41237151
v 0.23750130 -0.17424243 -0.41237151
v 0.19204675 -0.23484850 -0.39721999
v 0.19204675 -0.29545456 -0.20025029
v 0.26780433 -0.21969698 -0.23055332
v 0.28295585 -0.15909092 -0.32146242
v 0.31325888 0.05303029 -0.32146242
v 0.26780433 0.11363635 -0.41237151
v 0.28295585 0.14393938 -0.32146242
v 0.32841039 0.09848484 -0.20025029
v -0.02007446 -0.29545456 -0.41237151
f 6 3 4
f 10 5 7
f 11 7 5
f 12 1 6
f 13 6 4
f 14 6 1
f 16 7 11
f 17 15 2
f 19 5 4
f 20 12 6
f 20 8 12
f 20 13 8
f 20 6 13
f 21 1 12
f 22 13 4
f 22 4 5
f 22 8 13
f 23 9 6
f 23 6 14
f 26 15 3
f 26 25 15
f 26 9 25
f 26 3 6
f 26 6 9
f 28 16 11
f 29 3 15
f 29 15 17
f 30 18 4
f 30 4 3
f 31 11 5
f 31 5 19
f 31 19 4
f 31 4 18
f 33 21 12
f 35 10 7
f 36 14 1
f 36 1 24
f 36 23 14
f 37 24 1
f 37 1 21
f 38 2 15
f 38 15 25
f 39 38 25
f 39 2 38
f 41 40 27
f 42 25 9
f 42 9 23
f 45 43 18
f 45 17 43
f 46 18 30
f 46 45 18
f 46 30 3
f 46 3 29
f 47 31 18
f 47 18 11
f 47 11 31
f 48 5 10
f 49 21 33
f 49 48 32
f 49 33 48
f 49 37 21
f 49 10 37
f 50 33 12
f 50 12 8
f 50 8 22
f 50 22 33
f 51 33 22
f 51 22 5
f 51 48 33
f 51 5 48
f 52 7 34
f 52 35 7
f 52 24 35
f 52 36 24
f 52 34 36
f 53 35 24
f 53 10 35
f 53 37 10
f 53 24 37
f 54 39 16
f 54 2 39
f 54 44 2
f 54 16 28
f 54 28 44
f 55 40 7
f 55 7 16
f 55 27 40
f 56 34 7
f 56 7 40
f 56 41 34
f 56 40 41
f 57 36 34
f 57 34 41
f 57 23 36
f 57 42 23
f 57 41 42
f 58 42 41
f 58 41 27
f 58 27 42
f 59 42 27
f 59 16 39
f 59 39 25
f 59 25 42
f 59 55 16
f 59 27 55
f 60 43 17
f 60 28 43
f 60 44 28
f 60 17 2
f 60 2 44
f 61 43 28
f 61 28 11
f 61 11 43
f 62 43 11
f 62 11 18
f 62 18 43
f 63 29 17
f 63 17 45
f 63 46 29
f 63 45 46
f 64 48 10
f 64 32 48
f 64 49 32
f 64 10 49

