# https://github.com/mikedh/trimesh
v 0.02538009 -0.26515153 0.23914365
v 0.02538009 -0.26515153 0.01187092
v 0.02541121 -0.00714539 0.20325482
v -0.23168553 -0.00742648 0.23540014
v -0.23506399 -0.26465345 0.28875769
v -0.23219567 -0.00757577 0.01187092
v -0.23219567 -0.26515153 0.01187092
v -0.09583204 -0.25000001 0.29974971
v 0.02538009 -0.00757577 0.01187092
v -0.16147910 -0.00404055 0.23380304
v -0.09583204 -0.26515153 0.29974971
v -0.00492294 -0.08333334 0.25429516
v -0.23219567 -0.21969698 0.29974971
v 0.02538009 -0.09848486 0.23914365
v -0.12613507 -0.08333334 0.26944668
v -0.17158961 -0.20454546 0.29974971
v -0.11098355 -0.23484850 0.29974971
v -0.18674113 -0.20454546 0.29974971
f 1 2 3
f 6 5 4
f 7 2 1
f 7 6 2
f 7 5 6
f 9 3 2
f 9 2 6
f 10 6 4
f 10 9 6
f 10 3 9
f 11 7 1
f 11 5 7
f 12 3 10
f 12 11 1
f 12 8 11
f 13 4 5
f 13 11 8
f 13 5 11
f 14 12 1
f 14 1 3
f 14 3 12
f 15 12 10
f 15 10 4
f 15 4 13
f 16 13 8
f 17 8 12
f 17 12 15
f 17 16 8
f 17 15 16
f 18 16 15
f 18 15 13
f 18 13 16

