# https://github.com/mikedh/trimesh
v 0.07083463 -0.38636365 -0.00328060
v 0.37386494 -0.11363637 -0.01843211
v 0.36205852 -0.10665762 0.01661616
v -0.17158961 0.17424241 0.01187092
v -0.17158961 0.17424241 -0.18509878
v -0.16504310 -0.34592532 0.01354399
v 0.22234979 -0.32575759 0.01187092
v 0.17689524 -0.31060607 -0.18509878
v 0.34356191 0.17424241 -0.03358363
v 0.33633120 0.17082419 0.01822694
v -0.17158961 -0.35606062 -0.01843211
v 0.35871342 -0.15909092 0.01187092
v 0.06852442 -0.37232957 0.01617358
v 0.16174372 -0.35606062 -0.01843211
v 0.31325888 0.15909090 -0.18509878
v 0.37386494 0.11363635 0.01187092
v -0.14128658 -0.32575759 -0.18509878
v -0.11098355 -0.38636365 0.01187092
v 0.31707972 -0.21424534 0.01300378
v 0.28295585 -0.21969698 -0.18509878
v 0.15611333 -0.34403187 0.01525255
v 0.20719827 -0.32575759 -0.04873514
v 0.14659221 -0.34090910 -0.13964423
v 0.34356191 0.00757575 -0.20025029
v 0.31325888 0.17424241 -0.16994726
v 0.35871342 0.15909090 0.01187092
v -0.17158961 -0.32575759 -0.13964423
v -0.06552901 -0.35606062 -0.16994726
v 0.34356191 -0.18939395 -0.01843211
v 0.19204675 -0.34090910 -0.01843211
v 0.25265282 -0.29545456 -0.03358363
v 0.10113766 -0.37121213 -0.04873514
v 0.16174372 -0.32575759 -0.16994726
v 0.34356191 0.02272726 -0.20025029
v 0.10113766 -0.34090910 -0.18509878
v 0.25265282 -0.25000001 -0.18509878
v 0.32841039 -0.14393940 -0.16994726
v 0.28750107 0.16701848 -0.18227605
v 0.32841039 0.12878787 -0.18509878
v -0.16375027 -0.29831187 -0.18127907
v -0.14128658 -0.37121213 -0.01843211
v -0.05037749 -0.38636365 -0.04873514
v 0.35871342 -0.15909092 -0.00328060
v 0.32841039 -0.21969698 -0.01843211
v 0.22234979 -0.32575759 -0.00328060
v 0.19204675 -0.31060607 -0.15479575
v 0.11628918 -0.37121213 -0.01843211
v 0.37386494 0.03787878 -0.07903817
v 0.14659221 -0.32575759 -0.18509878
v -0.08068052 -0.34090910 -0.18509878
v 0.05568312 -0.38636365 -0.01843211
v 0.34356191 -0.05303031 -0.18509878
v 0.35871342 -0.14393940 -0.04873514
v 0.34356191 0.15909090 -0.07903817
v -0.15643810 -0.32575759 -0.16994726
v -0.11098355 -0.38636365 -0.00328060
v 0.01022857 -0.38636365 -0.04873514
v 0.28295585 -0.26515153 -0.03358363
v 0.29810736 -0.20454546 -0.16994726
v 0.22234979 -0.29545456 -0.12449272
v 0.35871342 -0.09848486 -0.09418969
v 0.37386494 -0.00757577 -0.07903817
v 0.31325888 -0.15909092 -0.18509878
v 0.32841039 0.15909090 -0.13964423
f 9 5 4
f 10 4 6
f 10 9 4
f 11 6 4
f 11 4 5
f 12 2 3
f 13 1 7
f 13 10 6
f 13 3 10
f 14 7 1
f 16 10 3
f 16 3 2
f 18 6 11
f 18 13 6
f 18 1 13
f 19 12 3
f 21 13 7
f 21 3 13
f 21 19 3
f 21 7 19
f 24 17 5
f 25 5 9
f 26 9 10
f 26 10 16
f 27 11 5
f 30 7 14
f 30 14 23
f 32 23 14
f 33 30 23
f 33 22 30
f 34 24 5
f 34 5 15
f 35 33 23
f 35 23 32
f 36 24 20
f 36 8 24
f 36 20 31
f 38 25 15
f 38 15 5
f 38 5 25
f 39 15 25
f 39 34 15
f 40 27 5
f 40 5 17
f 41 18 11
f 41 11 27
f 42 1 18
f 43 2 12
f 43 12 29
f 44 29 12
f 44 12 19
f 44 19 7
f 44 7 31
f 45 30 22
f 45 7 30
f 45 31 7
f 45 22 31
f 46 31 22
f 46 8 36
f 46 33 8
f 46 22 33
f 47 32 14
f 47 14 1
f 47 1 32
f 48 16 2
f 48 24 34
f 48 34 39
f 49 35 24
f 49 24 8
f 49 8 33
f 49 33 35
f 50 17 24
f 50 24 35
f 50 35 28
f 50 28 17
f 51 35 32
f 51 32 1
f 51 1 42
f 53 37 2
f 53 29 37
f 53 43 29
f 53 2 43
f 54 25 9
f 54 9 26
f 54 26 16
f 54 48 39
f 54 16 48
f 55 40 17
f 55 27 40
f 55 41 27
f 55 17 28
f 56 18 41
f 56 42 18
f 56 28 42
f 56 55 28
f 56 41 55
f 57 42 28
f 57 28 35
f 57 51 42
f 57 35 51
f 58 44 31
f 58 31 20
f 58 20 44
f 59 44 20
f 59 37 29
f 59 29 44
f 60 46 36
f 60 36 31
f 60 31 46
f 61 2 37
f 61 37 52
f 62 48 2
f 62 61 52
f 62 2 61
f 62 52 24
f 62 24 48
f 63 52 37
f 63 20 24
f 63 24 52
f 63 59 20
f 63 37 59
f 64 54 39
f 64 39 25
f 64 25 54

