# https://github.com/mikedh/trimesh
v 0.14659221 0.31060605 0.13308304
v 0.19204675 0.32575757 -0.06388666
v 0.13144069 0.40151514 0.13308304
v -0.11098355 0.41666666 0.13308304
v -0.22709050 0.30329479 0.01410963
v 0.05568312 0.37121211 -0.07903817
v 0.05345920 0.40255745 0.13738750
v 0.19204675 0.34090908 0.01187092
v 0.18763306 0.30338864 -0.06203679
v -0.23219567 0.31060605 0.13308304
v 0.14659221 0.37121211 -0.00328060
v 0.01022857 0.41666666 0.08762849
v -0.14128658 0.35606060 -0.07903817
v 0.14346673 0.37768856 0.13526932
v 0.19627186 0.31776148 0.00956638
v 0.17443345 0.30613032 -0.07789261
v -0.23219567 0.35606060 0.11793152
v -0.23219567 0.35606060 0.13308304
v 0.11628918 0.35606060 -0.07903817
v 0.19204675 0.34090908 -0.00328060
v 0.05568312 0.41666666 0.11793152
v -0.03522598 0.40151514 0.01187092
v -0.17360393 0.31398767 -0.07934640
v -0.23219567 0.32575757 0.01187092
v -0.18674113 0.38636363 0.10278001
v -0.18674113 0.38636363 0.13308304
v 0.16174372 0.35606060 -0.03358363
v 0.08598615 0.37121211 -0.06388666
v 0.17689524 0.32575757 -0.07903817
v 0.13144069 0.40151514 0.11793152
v 0.05568312 0.38636363 -0.03358363
v -0.06552901 0.37121211 -0.07903817
v -0.11098355 0.38636363 -0.00328060
v -0.06552901 0.41666666 0.08762849
v -0.17158961 0.34090908 -0.06388666
v -0.21704416 0.35606060 0.05732546
v -0.15643810 0.40151514 0.13308304
v -0.00492294 0.40151514 0.01187092
v -0.11098355 0.41666666 0.11793152
v -0.12613507 0.40151514 0.07247698
v -0.09583204 0.37121211 -0.06388666
v -0.06552901 0.40151514 0.02702243
v -0.23219567 0.34090908 0.05732546
v -0.15643810 0.40151514 0.11793152
v -0.15643810 0.38636363 0.05732546
f 7 3 4
f 9 1 5
f 10 5 1
f 10 1 7
f 14 7 1
f 14 3 7
f 14 8 3
f 15 1 9
f 15 14 1
f 15 8 14
f 15 9 2
f 16 2 9
f 18 10 7
f 18 17 10
f 20 15 2
f 20 8 15
f 20 3 8
f 21 12 4
f 21 4 3
f 23 16 9
f 23 9 5
f 23 6 19
f 24 5 10
f 24 10 17
f 24 23 5
f 25 17 18
f 26 18 7
f 26 25 18
f 27 20 2
f 28 19 6
f 28 27 19
f 28 11 27
f 29 2 16
f 29 23 19
f 29 16 23
f 29 27 2
f 29 19 27
f 30 3 20
f 30 21 3
f 30 27 11
f 30 20 27
f 31 28 6
f 31 12 21
f 31 21 30
f 31 30 11
f 31 11 28
f 32 23 13
f 32 6 23
f 32 31 6
f 32 22 31
f 34 4 12
f 34 12 22
f 35 13 23
f 35 23 24
f 36 17 25
f 36 25 13
f 36 35 24
f 36 13 35
f 37 26 7
f 37 7 4
f 37 25 26
f 38 31 22
f 38 22 12
f 38 12 31
f 39 4 34
f 39 37 4
f 40 33 13
f 40 39 33
f 41 33 32
f 41 32 13
f 41 13 33
f 42 34 22
f 42 39 34
f 42 33 39
f 42 22 32
f 42 32 33
f 43 36 24
f 43 24 17
f 43 17 36
f 44 25 37
f 44 37 39
f 44 40 25
f 44 39 40
f 45 40 13
f 45 13 25
f 45 25 40

