# https://github.com/mikedh/trimesh
v 0.33633120 0.17082419 0.01822694
v 0.34356191 0.17424241 -0.00328060
v 0.22234979 0.32575757 0.01187092
v -0.06552901 0.37121211 -0.07903817
v -0.14128658 0.15909090 -0.29115938
v -0.17158961 0.17424241 0.01187092
v 0.28295585 0.28030302 0.01187092
v 0.22570349 0.15132184 -0.39365725
v -0.17158961 0.31060605 0.01187092
v 0.34356191 0.18939393 0.01187092
v 0.26780433 0.29545454 0.01187092
v 0.29810736 0.15909090 -0.20025029
v -0.09583204 0.29545454 -0.35176545
v 0.19011194 0.32248086 0.01292624
v -0.17158961 0.31060605 -0.18509878
v 0.19204675 0.21969696 -0.41237151
v -0.14128658 0.15909090 -0.18509878
v 0.31325888 0.18939393 -0.13964423
v -0.17158961 0.17424241 -0.18509878
v -0.14412767 0.25435299 -0.33830768
v -0.15643810 0.34090908 -0.10934120
v 0.19204675 0.29545454 -0.20025029
v 0.29194063 0.15691082 -0.18097929
v 0.34356191 0.18939393 -0.00328060
v 0.31325888 0.17424241 -0.13964423
v 0.26780433 0.17424241 -0.32146242
v -0.14128658 0.28030302 -0.33661393
v -0.10184412 0.26230966 -0.37027340
v -0.17158961 0.32575757 -0.15479575
v 0.20719827 0.32575757 -0.04873514
v 0.22234979 0.26515150 -0.23055332
v 0.08598615 0.31060605 -0.32146242
v 0.25821749 0.15455684 -0.31187416
v 0.31325888 0.23484847 -0.01843211
v 0.23750130 0.17424241 -0.39721999
v 0.17689524 0.21969696 -0.41237151
v 0.17651785 0.15885776 -0.40368717
v -0.09583204 0.31060605 -0.32146242
v 0.26780433 0.29545454 -0.00328060
v 0.04053160 0.37121211 -0.09418969
v 0.19204675 0.24999999 -0.33661393
v 0.23750130 0.21969696 -0.30631090
v -0.08068052 0.29545454 -0.35176545
v 0.13144069 0.34090908 -0.13964423
v 0.31325888 0.21969696 -0.06388666
v 0.21609321 0.15475068 -0.40309121
v 0.22234979 0.18939393 -0.41237151
v -0.14128658 0.29545454 -0.30631090
v -0.11098355 0.34090908 -0.18509878
v 0.22234979 0.32575757 -0.00328060
v 0.28295585 0.28030302 -0.00328060
v 0.04053160 0.37121211 -0.07903817
v -0.03522598 0.37121211 -0.10934120
v 0.20719827 0.24999999 -0.30631090
v 0.28295585 0.24999999 -0.09418969
v 0.14659221 0.32575757 -0.16994726
v 0.10113766 0.35606060 -0.10934120
v -0.15643810 0.32575757 -0.18509878
v -0.06552901 0.37121211 -0.09418969
v 0.02538009 0.37121211 -0.10934120
v 0.25265282 0.21969696 -0.26085635
v -0.11098355 0.32575757 -0.24570484
v -0.14128658 0.34090908 -0.13964423
f 9 6 1
f 9 3 4
f 10 7 1
f 10 1 2
f 11 3 1
f 11 1 7
f 12 2 1
f 14 9 1
f 14 1 3
f 14 3 9
f 15 6 9
f 17 1 6
f 17 6 5
f 17 5 8
f 19 5 6
f 19 6 15
f 20 19 15
f 20 5 19
f 21 9 4
f 23 12 1
f 23 1 17
f 23 17 8
f 24 10 2
f 24 2 18
f 25 18 2
f 25 2 12
f 25 12 18
f 26 18 12
f 27 20 15
f 28 5 20
f 28 27 13
f 28 20 27
f 29 15 9
f 29 9 21
f 29 27 15
f 33 23 8
f 33 12 23
f 33 26 12
f 33 8 26
f 34 7 10
f 34 10 24
f 35 26 8
f 36 28 13
f 36 13 16
f 37 5 28
f 37 28 36
f 38 13 27
f 38 32 13
f 39 3 11
f 39 11 7
f 39 31 22
f 39 22 30
f 41 22 31
f 41 32 22
f 41 16 32
f 43 32 16
f 43 16 13
f 43 13 32
f 45 34 24
f 45 24 18
f 46 8 5
f 46 5 37
f 46 35 8
f 47 37 36
f 47 36 16
f 47 46 37
f 47 35 46
f 47 42 26
f 47 26 35
f 48 38 27
f 48 27 29
f 50 39 30
f 50 3 39
f 51 39 7
f 51 7 34
f 52 40 4
f 52 4 3
f 53 4 40
f 53 32 38
f 54 41 31
f 54 16 41
f 54 31 42
f 54 47 16
f 54 42 47
f 55 18 26
f 55 45 18
f 55 42 31
f 55 31 39
f 55 39 51
f 55 51 34
f 55 34 45
f 56 22 32
f 56 32 44
f 56 44 30
f 56 30 22
f 57 44 32
f 57 3 50
f 57 52 3
f 57 40 52
f 57 50 30
f 57 30 44
f 58 48 29
f 58 38 48
f 59 21 4
f 59 4 53
f 59 53 38
f 59 38 49
f 60 53 40
f 60 32 53
f 60 57 32
f 60 40 57
f 61 55 26
f 61 26 42
f 61 42 55
f 62 58 49
f 62 49 38
f 62 38 58
f 63 49 58
f 63 59 49
f 63 21 59
f 63 58 29
f 63 29 21

