# https://github.com/mikedh/trimesh
v 0.28295585 -0.00757577 0.14823455
v 0.28295585 -0.00757577 0.01187092
v 0.28837303 0.23899079 0.00999909
v -0.23219567 0.31060605 0.13308304
v -0.23219567 -0.00757577 0.01187092
v 0.28295585 0.23484847 0.14823455
v -0.23219567 -0.00757577 0.14823455
v -0.22709050 0.30329479 0.01410963
v 0.14659221 0.31060605 0.13308304
v -0.23219567 0.23484847 0.14823455
v 0.14659221 0.31060605 0.01187092
f 1 2 3
f 5 2 1
f 5 3 2
f 6 1 3
f 7 5 1
f 7 4 5
f 7 1 6
f 8 5 4
f 8 3 5
f 9 6 3
f 9 4 6
f 10 7 6
f 10 6 4
f 10 4 7
f 11 8 4
f 11 4 9
f 11 9 3
f 11 3 8

