# https://github.com/mikedh/trimesh
v 0.25265282 -0.44696971 0.33005274
v 0.47992554 -0.17424243 0.26944668
v 0.40416797 -0.28030304 0.39065880
v 0.40416797 -0.14393940 0.40581031
v 0.23750130 -0.29545456 0.22399213
v 0.44962251 -0.15909092 0.40581031
v 0.25265282 -0.40151516 0.40581031
v 0.40416797 -0.32575759 0.28459819
v 0.36863109 -0.14839935 0.22164509
v 0.44962251 -0.25000001 0.33005274
v 0.47992554 -0.14393940 0.26944668
v 0.34356191 -0.35606062 0.39065880
v 0.23174017 -0.43567351 0.32549118
v 0.23750130 -0.34090910 0.39065880
v 0.25265282 -0.40151516 0.23914365
v 0.35871342 -0.14393940 0.26944668
v 0.44962251 -0.20454546 0.37550728
v 0.43447100 -0.28030304 0.28459819
v 0.47992554 -0.15909092 0.34520425
v 0.44962251 -0.14393940 0.40581031
v 0.41931948 -0.17424243 0.22399213
v 0.25265282 -0.43181819 0.37550728
v 0.38901645 -0.28030304 0.40581031
v 0.32841039 -0.40151516 0.31490122
v 0.37386494 -0.34090910 0.36035577
v 0.23750130 -0.35606062 0.40581031
v 0.23166344 -0.36386134 0.22992062
v 0.25265282 -0.44696971 0.28459819
v 0.34356191 -0.15909092 0.22399213
v 0.41931948 -0.14393940 0.22399213
v 0.46708283 -0.13920200 0.33994896
v 0.38901645 -0.14393940 0.37550728
v 0.23750130 -0.31060607 0.29974971
v 0.43447100 -0.21969698 0.39065880
v 0.43447100 -0.28030304 0.31490122
v 0.47992554 -0.18939395 0.28459819
v 0.46477403 -0.14393940 0.25429516
v 0.34356191 -0.29545456 0.22399213
v 0.40416797 -0.28030304 0.25429516
v 0.28295585 -0.38636365 0.40581031
v 0.23750130 -0.43181819 0.37550728
v 0.35871342 -0.34090910 0.39065880
v 0.32841039 -0.38636365 0.36035577
v 0.35871342 -0.37121213 0.33005274
v 0.23334689 -0.39375520 0.39523187
v 0.23314129 -0.43870953 0.28846628
v 0.28295585 -0.43181819 0.31490122
v 0.31325888 -0.40151516 0.26944668
v 0.34356191 -0.15909092 0.23914365
v 0.37386494 -0.14393940 0.33005274
v 0.23750130 -0.29545456 0.23914365
v 0.41931948 -0.28030304 0.36035577
v 0.47992554 -0.18939395 0.29974971
v 0.46477403 -0.15909092 0.25429516
v 0.26780433 -0.37121213 0.22399213
v 0.38901645 -0.23484850 0.22399213
v 0.44962251 -0.23484850 0.26944668
v 0.38901645 -0.34090910 0.31490122
v 0.23750130 -0.40151516 0.23914365
v 0.32841039 -0.40151516 0.28459819
v 0.26780433 -0.43181819 0.26944668
v 0.35871342 -0.35606062 0.26944668
v 0.41931948 -0.29545456 0.33005274
v 0.29810736 -0.37121213 0.23914365
f 7 6 4
f 19 2 11
f 19 6 17
f 19 17 10
f 20 4 6
f 20 6 19
f 23 3 6
f 23 6 7
f 24 22 1
f 26 7 4
f 26 4 14
f 29 16 9
f 29 9 5
f 30 9 16
f 30 21 9
f 31 30 16
f 31 4 20
f 31 20 19
f 31 19 11
f 32 14 4
f 32 4 31
f 34 17 6
f 34 6 3
f 34 3 10
f 34 10 17
f 35 18 10
f 35 8 18
f 36 18 2
f 36 10 18
f 36 2 19
f 37 11 2
f 37 21 30
f 37 31 11
f 37 30 31
f 40 22 12
f 40 7 22
f 40 23 7
f 40 12 23
f 41 13 1
f 41 1 22
f 41 22 7
f 42 23 12
f 42 3 23
f 42 25 3
f 43 12 22
f 43 22 24
f 44 24 8
f 44 43 24
f 44 12 43
f 44 42 12
f 44 25 42
f 45 26 14
f 45 13 41
f 45 41 7
f 45 7 26
f 45 27 13
f 45 33 27
f 45 14 33
f 46 28 1
f 46 1 13
f 46 13 27
f 47 24 1
f 47 1 28
f 49 29 5
f 49 16 29
f 50 14 32
f 50 33 14
f 50 16 33
f 50 32 31
f 50 31 16
f 51 33 16
f 51 5 27
f 51 27 33
f 51 49 5
f 51 16 49
f 52 10 3
f 52 3 25
f 53 36 19
f 53 19 10
f 53 10 36
f 54 37 2
f 54 2 21
f 54 21 37
f 55 27 5
f 55 5 9
f 55 9 38
f 56 38 9
f 56 9 21
f 56 39 38
f 57 2 18
f 57 18 8
f 57 8 39
f 57 39 56
f 57 56 21
f 57 21 2
f 58 25 44
f 58 44 8
f 58 8 35
f 59 46 27
f 59 15 28
f 59 28 46
f 59 55 15
f 59 27 55
f 60 47 28
f 60 24 47
f 60 48 8
f 60 8 24
f 61 28 15
f 61 15 48
f 61 60 28
f 61 48 60
f 62 39 8
f 62 8 48
f 63 52 25
f 63 35 10
f 63 10 52
f 63 58 35
f 63 25 58
f 64 55 38
f 64 48 15
f 64 15 55
f 64 62 48
f 64 38 39
f 64 39 62

