# https://github.com/mikedh/trimesh
v -0.44431688 -0.17424243 0.40581031
v -0.40530924 -0.13086488 0.37399279
v -0.42658547 0.08613209 0.39827977
v -0.48977143 0.08333332 0.37550728
v -0.50492294 -0.03787880 0.33005274
v -0.47461991 0.03787878 0.40581031
v -0.39886234 -0.12878789 0.40581031
v -0.44065238 -0.17270068 0.37341716
v -0.40623099 0.08444221 0.32809312
v -0.45065648 0.08299725 0.39630573
v -0.48977143 -0.06818183 0.37550728
v -0.39886234 -0.11363637 0.40581031
v -0.45946840 -0.15909092 0.39065880
v -0.42232911 -0.17098897 0.39849522
v -0.40680508 -0.08436210 0.32838490
v -0.48270631 0.08173350 0.32730471
v -0.47461991 -0.05303031 0.40581031
v -0.50492294 -0.03787880 0.34520425
v -0.39886234 0.08333332 0.37550728
v -0.48020191 -0.08157047 0.32662048
v -0.43558619 -0.17694385 0.37916952
v -0.50492294 -0.02272728 0.34520425
v -0.45946840 -0.14393940 0.40581031
v -0.48977143 -0.08333334 0.36035577
v -0.49044684 -0.02302622 0.32725860
f 7 6 1
f 9 4 3
f 10 6 3
f 10 3 4
f 10 4 6
f 12 3 6
f 12 6 7
f 13 8 1
f 14 7 1
f 14 2 7
f 15 7 2
f 16 4 9
f 17 1 6
f 18 17 6
f 18 11 17
f 19 9 3
f 19 3 12
f 19 12 7
f 19 15 9
f 19 7 15
f 20 13 5
f 20 8 13
f 20 15 8
f 20 16 9
f 20 9 15
f 21 14 1
f 21 1 8
f 21 2 14
f 21 15 2
f 21 8 15
f 22 16 5
f 22 4 16
f 22 5 18
f 22 18 6
f 22 6 4
f 23 13 1
f 23 1 17
f 23 17 11
f 23 11 13
f 24 13 11
f 24 11 18
f 24 18 5
f 24 5 13
f 25 20 5
f 25 5 16
f 25 16 20

