# https://github.com/mikedh/trimesh
v 0.32805568 0.23459680 0.13319623
v 0.32841039 0.24999999 0.07247698
v 0.23750130 0.35606060 0.13308304
v 0.14659221 0.38636363 0.10278001
v 0.14659221 0.23484847 0.01187092
v 0.25265282 0.31060605 0.01187092
v 0.14659221 0.23484847 0.13308304
v 0.32841039 0.26515150 0.13308304
v 0.30623216 0.22776026 0.03458945
v 0.28295585 0.29545454 0.02702243
v 0.17689524 0.35606060 0.01187092
v 0.20025403 0.35880316 0.13691691
v 0.13885541 0.36047238 0.04612012
v 0.31657981 0.22676452 0.07584244
v 0.29425659 0.23209841 0.01304777
v 0.23750130 0.35606060 0.11793152
v 0.31325888 0.28030302 0.10278001
v 0.14346673 0.37768856 0.13526932
v 0.14112532 0.35010488 0.01223435
v 0.29810736 0.26515150 0.01187092
v 0.20719827 0.37121211 0.10278001
v 0.32841039 0.26515150 0.11793152
v 0.25265282 0.34090908 0.10278001
v 0.15697012 0.37311406 0.13642219
v 0.16174372 0.38636363 0.10278001
v 0.16174372 0.37121211 0.04217395
v 0.31325888 0.24999999 0.02702243
v 0.23750130 0.32575757 0.02702243
f 8 1 2
f 11 6 5
f 12 7 1
f 12 8 3
f 12 1 8
f 13 5 7
f 14 9 2
f 14 2 1
f 14 1 7
f 14 7 5
f 14 5 9
f 15 9 5
f 16 10 6
f 16 3 8
f 17 2 10
f 17 16 8
f 18 13 7
f 18 4 13
f 19 11 5
f 19 5 13
f 19 13 4
f 20 15 5
f 20 5 6
f 20 6 10
f 20 10 2
f 21 16 6
f 21 3 16
f 22 17 8
f 22 8 2
f 22 2 17
f 23 17 10
f 23 10 16
f 23 16 17
f 24 12 3
f 24 3 18
f 24 18 7
f 24 7 12
f 25 18 3
f 25 4 18
f 25 3 21
f 26 19 4
f 26 11 19
f 26 4 25
f 26 25 21
f 26 21 11
f 27 20 2
f 27 2 9
f 27 9 15
f 27 15 20
f 28 21 6
f 28 6 11
f 28 11 21

