# https://github.com/mikedh/trimesh
v -0.39886234 0.08333332 0.37550728
v -0.32310476 0.12878787 0.01187092
v -0.36552181 0.21122560 0.35736098
v -0.47461991 0.20454544 0.31490122
v -0.50492294 0.08333332 0.31490122
v -0.33825628 0.20454544 0.01187092
v -0.45946840 0.12878787 0.40581031
v -0.32310476 0.12878787 0.22399213
v -0.38371082 0.08333332 0.19368910
v -0.47461991 0.20454544 0.28459819
v -0.36855931 0.15909090 0.01187092
v -0.39886234 0.12878787 0.40581031
v -0.43178713 0.20129195 0.36972871
v -0.45065648 0.08299725 0.39630573
v -0.48977143 0.11363635 0.36035577
v -0.32310476 0.20454544 0.22399213
v -0.35810283 0.12649436 0.01259338
v -0.36855931 0.08333332 0.22399213
v -0.35340779 0.20454544 0.02702243
v -0.48977143 0.15909090 0.28459819
v -0.35340779 0.18939393 0.36035577
v -0.47461991 0.12878787 0.39065880
v -0.37259224 0.20701892 0.37434782
v -0.39886234 0.11363635 0.40581031
v -0.49161952 0.08128223 0.30465172
v -0.50492294 0.09848484 0.31490122
v -0.46239194 0.08219619 0.38349824
v -0.32060613 0.20290544 0.01264508
v -0.48977143 0.08333332 0.26944668
v -0.37437975 0.08426205 0.26228522
v -0.36855931 0.18939393 0.04217395
v -0.35340779 0.18939393 0.01187092
v -0.42658547 0.08613209 0.39827977
v -0.41767297 0.08163673 0.19488861
v -0.48977143 0.15909090 0.31490122
v -0.47635250 0.08199908 0.35584658
v -0.50492294 0.09848484 0.29974971
f 10 4 3
f 11 6 2
f 13 3 4
f 17 2 9
f 17 11 2
f 18 9 2
f 18 2 8
f 19 10 3
f 19 3 6
f 20 4 10
f 20 10 11
f 21 16 3
f 21 8 16
f 22 13 4
f 22 7 13
f 22 14 7
f 23 3 13
f 23 21 3
f 23 12 21
f 23 13 7
f 23 7 12
f 24 12 7
f 24 7 14
f 24 21 12
f 24 1 8
f 24 8 21
f 26 5 15
f 27 15 5
f 27 22 15
f 27 14 22
f 27 1 14
f 28 6 3
f 28 3 16
f 28 2 6
f 28 16 8
f 28 8 2
f 29 11 17
f 29 25 5
f 30 18 8
f 30 8 1
f 30 1 18
f 31 19 11
f 31 11 10
f 31 10 19
f 32 19 6
f 32 6 11
f 32 11 19
f 33 24 14
f 33 14 1
f 33 1 24
f 34 9 18
f 34 18 1
f 34 27 25
f 34 1 27
f 34 25 29
f 34 29 17
f 34 17 9
f 35 26 15
f 35 4 20
f 35 20 26
f 35 22 4
f 35 15 22
f 36 27 5
f 36 5 25
f 36 25 27
f 37 29 5
f 37 5 26
f 37 26 20
f 37 20 11
f 37 11 29

