# https://github.com/mikedh/trimesh
v 0.46477403 -0.14393940 0.39065880
v 0.49507706 -0.14393940 0.28459819
v 0.47992554 0.14393938 0.36035577
v 0.35871342 0.23484847 0.40581031
v 0.28295585 -0.14393940 0.01187092
v 0.46477403 0.08333332 0.40581031
v 0.51022857 -0.00757577 0.31490122
v 0.28332697 -0.14286733 0.18025301
v 0.31325888 0.23484847 0.01187092
v 0.41931948 0.21969696 0.40581031
v 0.40416797 -0.14393940 0.40581031
v 0.49507706 -0.11363637 0.34520425
v 0.49507706 0.06818181 0.36035577
v 0.49507706 0.14393938 0.28459819
v 0.38901645 -0.08333334 0.01187092
v 0.28250620 0.23526220 0.21898342
v 0.44962251 0.18939393 0.39065880
v 0.44962251 0.23484847 0.26944668
v 0.46477403 -0.09848486 0.40581031
v 0.28001217 0.06151174 0.22858763
v 0.47992554 -0.14393940 0.36035577
v 0.51022857 -0.05303031 0.29974971
v 0.47992554 0.06818181 0.39065880
v 0.49507706 -0.03787880 0.36035577
v 0.51022857 0.03787878 0.31490122
v 0.49507706 0.14393938 0.29974971
v 0.37386494 -0.14393940 0.02702243
v 0.28837303 0.23899079 0.00999909
v 0.38901645 0.08333332 0.01187092
v 0.43447100 0.18939393 0.40581031
v 0.41931948 0.23484847 0.39065880
v 0.44962251 -0.14393940 0.40581031
v 0.47992554 -0.09848486 0.39065880
v 0.35871342 0.21969696 0.40581031
v 0.28295585 -0.09848486 0.19368910
v 0.49507706 -0.12878789 0.33005274
v 0.51022857 -0.05303031 0.28459819
v 0.46477403 0.14393938 0.39065880
v 0.49507706 0.12878787 0.31490122
v 0.46477403 0.21969696 0.31490122
v 0.49507706 -0.12878789 0.26944668
v 0.37386494 -0.12878789 0.01187092
v 0.32841039 0.23484847 0.02702243
v 0.35871342 0.17424241 0.01187092
v 0.40416797 0.23484847 0.40581031
v 0.44962251 0.23484847 0.33005274
v 0.47992554 -0.12878789 0.37550728
v 0.49507706 -0.14393940 0.29974971
v 0.51022857 0.03787878 0.28459819
v 0.44962251 0.14393938 0.40581031
v 0.46477403 0.17424241 0.37550728
v 0.47992554 0.17424241 0.33005274
v 0.47992554 0.18939393 0.28459819
v 0.34703324 -0.13941618 0.01496310
v 0.34356191 0.20454544 0.01187092
v 0.44962251 0.20454544 0.37550728
v 0.49507706 0.11363635 0.26944668
v 0.47992554 0.18939393 0.29974971
v 0.46477403 0.18939393 0.36035577
v 0.46477403 0.21969696 0.28459819
f 5 2 1
f 10 4 6
f 11 6 4
f 11 8 5
f 11 5 1
f 19 6 11
f 20 4 16
f 20 16 5
f 20 5 8
f 21 1 2
f 22 7 12
f 23 13 3
f 23 6 19
f 24 12 7
f 24 7 13
f 24 13 23
f 25 13 7
f 25 7 22
f 26 25 14
f 27 2 5
f 28 5 16
f 28 16 4
f 29 15 28
f 30 17 10
f 30 10 6
f 31 10 17
f 32 19 11
f 32 11 1
f 32 1 19
f 33 19 1
f 33 12 24
f 33 24 23
f 33 23 19
f 34 20 11
f 34 11 4
f 34 4 20
f 35 20 8
f 35 8 11
f 35 11 20
f 36 12 21
f 36 22 12
f 37 22 2
f 37 15 29
f 37 25 22
f 38 6 23
f 38 17 30
f 38 23 3
f 39 26 3
f 39 3 13
f 39 13 25
f 39 25 26
f 41 2 27
f 41 37 2
f 41 15 37
f 42 41 27
f 42 15 41
f 42 28 15
f 42 5 28
f 43 28 18
f 43 9 28
f 44 29 28
f 45 4 10
f 45 10 31
f 45 31 28
f 45 28 4
f 46 18 28
f 46 28 31
f 46 40 18
f 47 21 12
f 47 12 33
f 47 33 1
f 47 1 21
f 48 36 21
f 48 21 2
f 48 2 22
f 48 22 36
f 49 37 29
f 49 14 25
f 49 25 37
f 50 38 30
f 50 30 6
f 50 6 38
f 51 38 3
f 51 17 38
f 52 3 26
f 53 26 14
f 53 14 29
f 53 29 44
f 54 42 27
f 54 27 5
f 54 5 42
f 55 43 18
f 55 53 44
f 55 9 43
f 55 44 28
f 55 28 9
f 56 46 31
f 56 31 17
f 57 49 29
f 57 29 14
f 57 14 49
f 58 52 26
f 58 40 52
f 58 53 40
f 58 26 53
f 59 52 40
f 59 51 3
f 59 3 52
f 59 40 46
f 59 46 56
f 59 56 17
f 59 17 51
f 60 18 40
f 60 40 53
f 60 55 18
f 60 53 55

