# https://github.com/mikedh/trimesh
v -0.14098463 -0.30502851 -0.18261182
v -0.13491754 -0.25366788 -0.37895733
v -0.13970805 0.30707631 -0.18415885
v -0.14128658 -0.31060607 -0.24570484
v -0.33825628 0.06818181 -0.24570484
v -0.15643810 0.24999999 -0.41237151
v -0.32310476 -0.15909092 -0.20025029
v -0.29280173 0.20454544 -0.20025029
v -0.14128658 0.24999999 -0.41237151
v -0.29280173 -0.06818183 -0.41237151
v -0.21704416 -0.21969698 -0.39721999
v -0.20189264 -0.29545456 -0.18509878
v -0.26249870 0.14393938 -0.41237151
v -0.20189264 0.28030302 -0.24570484
v -0.33825628 0.08333332 -0.18509878
v -0.15643810 0.31060605 -0.23055332
v -0.33825628 -0.06818183 -0.24570484
v -0.15643810 -0.26515153 -0.38206848
v -0.27765022 -0.14393940 -0.38206848
v -0.14128658 -0.25000001 -0.41237151
v -0.17158961 -0.31060607 -0.21540181
v -0.24734719 -0.21969698 -0.32146242
v -0.30795325 0.11363635 -0.32146242
v -0.24734719 0.21969696 -0.30631090
v -0.32310476 0.14393938 -0.21540181
v -0.32310476 -0.15909092 -0.18509878
v -0.29280173 0.20454544 -0.18509878
v -0.16375027 -0.29831187 -0.18127907
v -0.14128658 0.31060605 -0.23055332
v -0.17158961 0.28030302 -0.30631090
v -0.32310476 -0.06818183 -0.32146242
v -0.24734719 -0.17424243 -0.41237151
v -0.18674113 -0.23484850 -0.41237151
v -0.15643810 -0.31060607 -0.24570484
v -0.27765022 -0.21969698 -0.20025029
v -0.21704416 -0.25000001 -0.32146242
v -0.29280173 -0.18939395 -0.24570484
v -0.27765022 0.17424241 -0.32146242
v -0.29280173 0.05303029 -0.41237151
v -0.24734719 0.24999999 -0.20025029
v -0.21704416 0.24999999 -0.30631090
v -0.21704416 0.20454544 -0.41237151
v -0.33825628 0.08333332 -0.20025029
v -0.33825628 -0.11363637 -0.18509878
v -0.32310476 0.14393938 -0.18509878
v -0.15050889 0.30240170 -0.18327937
v -0.27765022 -0.21969698 -0.18509878
v -0.33825628 -0.11363637 -0.20025029
v -0.30795325 -0.12878789 -0.30631090
v -0.27765022 -0.11363637 -0.41237151
v -0.15643810 -0.25000001 -0.41237151
v -0.20189264 -0.29545456 -0.20025029
v -0.17158961 -0.28030304 -0.32146242
v -0.18674113 -0.25000001 -0.38206848
v -0.29280173 -0.15909092 -0.30631090
v -0.30795325 0.17424241 -0.21540181
v -0.29280173 0.08333332 -0.39721999
v -0.32310476 0.05303029 -0.32146242
v -0.18674113 0.29545454 -0.18509878
v -0.18674113 0.26515150 -0.32146242
v -0.24734719 0.17424241 -0.39721999
v -0.18674113 0.23484847 -0.39721999
v -0.32310476 -0.12878789 -0.24570484
v -0.23219567 -0.26515153 -0.21540181
f 1 2 3
f 2 1 4
f 9 3 2
f 10 6 9
f 13 6 10
f 16 9 6
f 17 15 5
f 20 10 9
f 20 9 2
f 20 2 4
f 20 4 18
f 21 4 1
f 21 1 12
f 25 23 5
f 28 12 1
f 29 16 3
f 29 3 9
f 29 9 16
f 30 16 6
f 30 14 16
f 31 17 5
f 32 11 22
f 32 10 20
f 33 32 20
f 33 11 32
f 34 18 4
f 34 4 21
f 35 26 7
f 36 22 11
f 37 32 22
f 37 35 7
f 37 22 35
f 38 13 23
f 38 8 24
f 39 13 10
f 39 10 31
f 40 24 8
f 40 8 27
f 41 40 14
f 41 24 40
f 42 6 13
f 42 24 41
f 43 25 5
f 43 5 15
f 43 15 25
f 44 7 26
f 44 15 17
f 44 28 15
f 44 26 28
f 45 25 15
f 45 15 28
f 46 28 1
f 46 1 3
f 46 45 28
f 46 27 45
f 47 28 26
f 47 12 28
f 47 35 12
f 47 26 35
f 48 17 31
f 48 44 17
f 48 7 44
f 50 32 19
f 50 10 32
f 50 19 49
f 50 49 31
f 50 31 10
f 51 33 20
f 51 20 18
f 51 18 33
f 52 21 12
f 52 12 35
f 53 34 21
f 53 52 36
f 53 21 52
f 53 18 34
f 54 36 11
f 54 11 33
f 54 53 36
f 54 33 18
f 54 18 53
f 55 37 7
f 55 19 32
f 55 32 37
f 55 49 19
f 55 7 49
f 56 8 38
f 56 27 8
f 56 45 27
f 56 25 45
f 56 38 23
f 56 23 25
f 57 23 13
f 57 13 39
f 58 39 31
f 58 31 5
f 58 57 39
f 58 5 23
f 58 23 57
f 59 16 14
f 59 14 40
f 59 40 27
f 59 27 46
f 59 46 3
f 59 3 16
f 60 30 6
f 60 41 14
f 60 14 30
f 61 42 13
f 61 13 38
f 61 38 24
f 61 24 42
f 62 42 41
f 62 6 42
f 62 60 6
f 62 41 60
f 63 48 31
f 63 31 49
f 63 49 7
f 63 7 48
f 64 52 35
f 64 35 22
f 64 22 36
f 64 36 52

