# https://github.com/mikedh/trimesh
v -0.15643810 0.18939393 0.25429516
v -0.15130263 0.18705293 0.23280966
v -0.15518187 0.47160171 0.28993728
v -0.18674113 0.47727272 0.28459819
v -0.23219567 0.18939393 0.22399213
v -0.15185408 0.40521886 0.22820699
v -0.23219567 0.18939393 0.26944668
v -0.15643810 0.35606060 0.28459819
v -0.15643810 0.46212120 0.25429516
v -0.23219567 0.38636363 0.22399213
v -0.18674113 0.41666666 0.22399213
v -0.21445309 0.45426883 0.29392156
v -0.21704416 0.18939393 0.26944668
v -0.15643810 0.47727272 0.26944668
v -0.23603935 0.33226422 0.28287116
v -0.21704416 0.46212120 0.26944668
v -0.18674113 0.20454544 0.26944668
v -0.20189264 0.32575757 0.28459819
v -0.21704416 0.40151514 0.22399213
v -0.18674113 0.47727272 0.26944668
v -0.23219567 0.44696969 0.26944668
v -0.23219567 0.43181817 0.25429516
v -0.17158961 0.46212120 0.25429516
v -0.22901396 0.44090454 0.29054278
f 6 3 2
f 7 5 2
f 8 1 2
f 8 2 3
f 11 6 2
f 11 2 5
f 11 5 10
f 11 9 6
f 12 3 4
f 12 8 3
f 13 7 2
f 13 2 1
f 14 4 3
f 14 3 6
f 14 6 9
f 15 10 5
f 15 5 7
f 16 12 4
f 17 13 1
f 17 1 8
f 18 15 7
f 18 7 13
f 18 8 12
f 18 12 15
f 18 17 8
f 18 13 17
f 19 11 10
f 20 16 4
f 20 4 14
f 20 14 9
f 20 19 16
f 20 11 19
f 21 12 16
f 22 19 10
f 22 16 19
f 22 21 16
f 22 10 15
f 22 15 21
f 23 20 9
f 23 9 11
f 23 11 20
f 24 21 15
f 24 15 12
f 24 12 21

