# https://github.com/mikedh/trimesh
v 0.29281969 0.34901459 0.39456830
v 0.30343991 0.36168388 0.37953067
v 0.10113766 0.47727272 0.39065880
v -0.09583204 0.50757575 0.31490122
v -0.21704416 0.32575757 0.28459819
v 0.13144069 0.49242423 0.26944668
v 0.28295585 0.38636363 0.40581031
v 0.18704679 0.36142799 0.27201431
v -0.24734719 0.40151514 0.40581031
v 0.10113766 0.50757575 0.31490122
v -0.14128658 0.43181817 0.22399213
v 0.29810736 0.37121211 0.40581031
v 0.28295585 0.40151514 0.37550728
v 0.19526727 0.42194021 0.26424512
v -0.12613507 0.47727272 0.39065880
v 0.10113766 0.46212120 0.40581031
v -0.24734719 0.34090908 0.40581031
v 0.10113766 0.50757575 0.28459819
v 0.04053160 0.50757575 0.34520425
v -0.23219567 0.46212120 0.28459819
v -0.09583204 0.37121211 0.22399213
v 0.20719827 0.46212120 0.36035577
v 0.29810736 0.38636363 0.39065880
v 0.29132977 0.37689319 0.36966222
v 0.13144069 0.43181817 0.22399213
v 0.20719827 0.43181817 0.40581031
v -0.12613507 0.46212120 0.40581031
v -0.21704416 0.32575757 0.29974971
v -0.23219567 0.34090908 0.40581031
v -0.09583204 0.50757575 0.28459819
v 0.07083463 0.49242423 0.37550728
v -0.06552901 0.49242423 0.37550728
v -0.23219567 0.46212120 0.33005274
v -0.23603935 0.33226422 0.28287116
v 0.14659221 0.49242423 0.31490122
v 0.28295585 0.40151514 0.39065880
v 0.07083463 0.44696969 0.22399213
v 0.14659221 0.44696969 0.23914365
v 0.12893101 0.40949805 0.22691065
v 0.16174372 0.44696969 0.40581031
v 0.16174372 0.46212120 0.39065880
v -0.21704416 0.43181817 0.40581031
v -0.15643810 0.49242423 0.31490122
v -0.15643810 0.44696969 0.23914365
v 0.16174372 0.47727272 0.36035577
v 0.01022857 0.50757575 0.34520425
v -0.11098355 0.49242423 0.36035577
v -0.24734719 0.41666666 0.39065880
v -0.15185408 0.40521886 0.22820699
v -0.24003582 0.33355774 0.29663910
v -0.15245219 0.36573213 0.23099811
v 0.20719827 0.44696969 0.39065880
v 0.11628918 0.47727272 0.25429516
v -0.08068052 0.44696969 0.22399213
v -0.18674113 0.46212120 0.37550728
v -0.20189264 0.47727272 0.28459819
v 0.10113766 0.49242423 0.36035577
v 0.17689524 0.47727272 0.34520425
v -0.05037749 0.50757575 0.33005274
v -0.23219567 0.43181817 0.39065880
v -0.25100519 0.34776290 0.37548895
v 0.19204675 0.46212120 0.37550728
v -0.11098355 0.47727272 0.25429516
v -0.15643810 0.49242423 0.28459819
f 8 2 1
f 8 1 5
f 12 1 2
f 12 7 9
f 14 2 8
f 14 6 13
f 16 9 7
f 16 3 15
f 17 12 9
f 18 4 10
f 19 10 4
f 21 8 5
f 22 13 6
f 23 12 2
f 23 7 12
f 24 14 13
f 24 2 14
f 24 23 2
f 24 13 23
f 25 21 11
f 26 16 7
f 27 16 15
f 27 9 16
f 28 5 1
f 29 1 12
f 29 12 17
f 29 28 1
f 29 17 28
f 30 4 18
f 31 10 19
f 31 15 3
f 32 31 19
f 32 15 31
f 35 18 10
f 35 22 6
f 35 6 18
f 36 7 23
f 36 26 7
f 36 23 13
f 36 13 22
f 37 25 11
f 37 30 18
f 37 18 6
f 38 25 6
f 38 6 14
f 38 14 25
f 39 25 14
f 39 14 8
f 39 8 21
f 39 21 25
f 40 3 16
f 40 16 26
f 41 40 26
f 41 3 40
f 42 27 15
f 42 9 27
f 43 4 30
f 43 33 15
f 44 11 20
f 45 3 41
f 46 32 19
f 46 19 4
f 47 32 4
f 47 15 32
f 47 43 15
f 47 4 43
f 48 33 20
f 49 34 20
f 49 20 11
f 50 28 17
f 50 20 34
f 50 34 5
f 50 5 28
f 51 21 5
f 51 5 34
f 51 34 49
f 51 49 11
f 51 11 21
f 52 36 22
f 52 26 36
f 52 41 26
f 53 37 6
f 53 6 25
f 53 25 37
f 54 37 11
f 54 30 37
f 54 11 44
f 55 42 15
f 55 15 33
f 56 20 33
f 56 33 43
f 56 44 20
f 57 45 10
f 57 10 31
f 57 31 3
f 57 3 45
f 58 35 10
f 58 10 45
f 58 45 22
f 58 22 35
f 59 46 4
f 59 4 32
f 59 32 46
f 60 33 48
f 60 55 33
f 60 42 55
f 60 48 9
f 60 9 42
f 61 17 9
f 61 9 48
f 61 50 17
f 61 48 20
f 61 20 50
f 62 45 41
f 62 41 52
f 62 52 22
f 62 22 45
f 63 54 44
f 63 30 54
f 64 56 43
f 64 43 30
f 64 30 63
f 64 63 44
f 64 44 56

