# https://github.com/mikedh/trimesh
v 0.08598615 -0.50757577 0.31490122
v 0.23750130 -0.46212122 0.28459819
v 0.20719827 -0.37121213 0.40581031
v -0.22791219 -0.37836655 0.24683202
v -0.06552901 -0.44696971 0.22399213
v 0.22234979 -0.31060607 0.22399213
v -0.11098355 -0.46212122 0.40581031
v 0.20719827 -0.44696971 0.39065880
v 0.10113766 -0.50757577 0.28459819
v 0.24550072 -0.35255873 0.35651992
v 0.22234979 -0.34090910 0.36035577
v -0.19820560 -0.37951365 0.22658414
v 0.14659221 -0.43181819 0.22399213
v -0.11098355 -0.40151516 0.37550728
v -0.09583204 -0.50757577 0.28459819
v 0.16174372 -0.49242426 0.31490122
v 0.01022857 -0.47727274 0.40581031
v 0.24131436 -0.31611035 0.22258643
v 0.23750130 -0.41666668 0.40581031
v 0.22234979 -0.31060607 0.25429516
v 0.22234979 -0.35606062 0.39065880
v 0.07083463 -0.44696971 0.22399213
v 0.17689524 -0.47727274 0.26944668
v -0.11316572 -0.42433192 0.39553389
v -0.23219567 -0.43181819 0.25429516
v 0.11628918 -0.47727274 0.39065880
v 0.23750130 -0.46212122 0.31490122
v 0.16174372 -0.49242426 0.28459819
v 0.10113766 -0.50757577 0.29974971
v -0.06552901 -0.50757577 0.34520425
v 0.24571649 -0.32080236 0.25101383
v 0.23750130 -0.38636365 0.22399213
v -0.20189264 -0.40151516 0.22399213
v 0.24330070 -0.36442696 0.38327185
v 0.11628918 -0.47727274 0.25429516
v -0.23476916 -0.39148620 0.26047058
v -0.11098355 -0.49242426 0.34520425
v -0.14128658 -0.43181819 0.22399213
v 0.14659221 -0.47727274 0.37550728
v 0.13144069 -0.46212122 0.40581031
v 0.23750130 -0.44696971 0.36035577
v 0.07083463 -0.49242426 0.37550728
v -0.05037749 -0.47727274 0.40581031
v 0.20719827 -0.44696971 0.25429516
v 0.23750130 -0.43181819 0.25429516
v -0.23219567 -0.40151516 0.23914365
v 0.24021350 -0.37546692 0.39478839
v -0.22738654 -0.42424160 0.27977781
v -0.09583204 -0.50757577 0.31490122
v -0.08068052 -0.49242426 0.37550728
v -0.09583204 -0.47727274 0.25429516
v -0.20189264 -0.44696971 0.25429516
v 0.17689524 -0.44696971 0.40581031
v 0.23750130 -0.43181819 0.39065880
v -0.00492294 -0.50757577 0.34520425
v 0.13144069 -0.49242426 0.34520425
v 0.05568312 -0.50757577 0.33005274
f 12 4 6
f 14 11 4
f 15 5 9
f 15 9 1
f 17 3 7
f 18 12 6
f 19 3 17
f 20 6 4
f 20 4 11
f 20 18 6
f 21 14 3
f 21 11 14
f 22 9 5
f 22 18 13
f 22 5 18
f 24 7 3
f 24 3 14
f 27 16 2
f 27 2 10
f 28 16 9
f 28 2 16
f 28 23 2
f 28 9 23
f 29 16 1
f 29 1 9
f 29 9 16
f 30 15 1
f 31 10 2
f 31 18 20
f 31 20 11
f 31 11 10
f 32 13 18
f 32 18 31
f 33 12 18
f 34 10 11
f 34 11 21
f 35 22 13
f 35 13 23
f 35 23 9
f 35 9 22
f 36 24 14
f 36 14 4
f 38 25 33
f 38 33 18
f 38 18 5
f 39 8 26
f 40 19 17
f 40 17 26
f 41 8 39
f 41 39 16
f 41 16 27
f 41 27 10
f 42 26 17
f 43 30 17
f 43 17 7
f 44 23 13
f 44 2 23
f 45 32 31
f 45 31 2
f 45 2 44
f 45 44 13
f 45 13 32
f 46 33 25
f 46 4 12
f 46 12 33
f 46 36 4
f 46 25 36
f 47 34 21
f 47 21 3
f 47 3 19
f 47 19 34
f 48 36 25
f 48 7 24
f 48 24 36
f 48 37 7
f 48 25 37
f 49 37 25
f 49 25 15
f 49 15 30
f 49 30 37
f 50 37 30
f 50 7 37
f 50 43 7
f 50 30 43
f 51 38 5
f 51 5 15
f 52 15 25
f 52 25 38
f 52 51 15
f 52 38 51
f 53 8 19
f 53 19 40
f 53 40 26
f 53 26 8
f 54 19 8
f 54 8 41
f 54 34 19
f 54 41 10
f 54 10 34
f 55 30 1
f 55 42 17
f 55 17 30
f 56 42 1
f 56 1 16
f 56 16 39
f 56 39 26
f 56 26 42
f 57 55 1
f 57 1 42
f 57 42 55

