# https://github.com/mikedh/trimesh
v -0.29280173 -0.12878789 0.26944668
v -0.12613507 -0.06818183 0.23914365
v -0.40680508 -0.08436210 0.32838490
v -0.50492294 0.08333332 0.31490122
v -0.44431688 0.08333332 0.22399213
v -0.40623099 0.08444221 0.32809312
v -0.12613507 -0.08333334 0.26944668
v -0.42916537 -0.12878789 0.22399213
v -0.50492294 0.05303029 0.33005274
v -0.50492294 0.08333332 0.28459819
v -0.16147910 -0.00404055 0.23380304
v -0.27765022 -0.12878789 0.22399213
v -0.35340779 -0.12878789 0.28459819
v -0.48270631 0.08173350 0.32730471
v -0.50492294 -0.08333334 0.31490122
v -0.47461991 -0.11363637 0.25429516
v -0.35340779 0.08333332 0.22399213
v -0.15643810 -0.00757577 0.25429516
v -0.27751987 -0.12849338 0.25106442
v -0.12773984 -0.08210506 0.24916920
v -0.23219567 -0.08333334 0.22399213
v -0.50492294 -0.05303031 0.33005274
v -0.47239269 -0.12855817 0.28987592
v -0.44431688 -0.09848486 0.22399213
v -0.50492294 -0.08333334 0.28459819
v -0.12613507 -0.06818183 0.26944668
v -0.35467882 0.08116996 0.24951573
v -0.48020191 -0.08157047 0.32662048
v -0.47461991 -0.12878789 0.26944668
f 9 3 6
f 10 6 5
f 10 4 6
f 10 9 4
f 12 1 8
f 12 8 5
f 13 7 3
f 13 1 7
f 13 8 1
f 14 9 6
f 14 6 4
f 14 4 9
f 15 9 10
f 17 5 6
f 17 12 5
f 18 2 11
f 18 11 17
f 19 12 7
f 19 7 1
f 19 1 12
f 20 12 2
f 20 2 7
f 20 7 12
f 21 11 2
f 21 2 12
f 21 17 11
f 21 12 17
f 22 3 9
f 22 9 15
f 23 13 3
f 24 5 8
f 24 8 16
f 24 10 5
f 25 15 10
f 25 24 16
f 25 10 24
f 26 7 2
f 26 2 18
f 26 18 6
f 26 6 3
f 26 3 7
f 27 18 17
f 27 17 6
f 27 6 18
f 28 22 15
f 28 3 22
f 28 23 3
f 28 15 23
f 29 16 8
f 29 8 13
f 29 13 23
f 29 25 16
f 29 23 15
f 29 15 25

