# https://github.com/mikedh/trimesh
v -0.39886234 0.12878787 0.40581031
v -0.23573494 0.31230442 0.23573236
v -0.24734719 0.34090908 0.40581031
v -0.24734719 0.44696969 0.34520425
v -0.45946840 0.23484847 0.28459819
v -0.22669596 0.42220611 0.36927619
v -0.41401385 0.24999999 0.40581031
v -0.23219567 0.31060605 0.29974971
v -0.38045987 0.20268410 0.22524404
v -0.24734719 0.44696969 0.26944668
v -0.45946840 0.12878787 0.40581031
v -0.36855931 0.35606060 0.34520425
v -0.26249870 0.40151514 0.40581031
v -0.38371082 0.14393938 0.39065880
v -0.24734719 0.32575757 0.39065880
v -0.23219567 0.34090908 0.37550728
v -0.23219567 0.38636363 0.22399213
v -0.23219567 0.44696969 0.26944668
v -0.44431688 0.24999999 0.34520425
v -0.45777358 0.12836113 0.37454050
v -0.41401385 0.31060605 0.28459819
v -0.29280173 0.43181817 0.31490122
v -0.24734719 0.43181817 0.37550728
v -0.30795325 0.38636363 0.39065880
v -0.24734719 0.40151514 0.40581031
v -0.33825628 0.20454544 0.26944668
v -0.23219567 0.32575757 0.34520425
v -0.22632915 0.43608929 0.34095480
v -0.45946840 0.14393938 0.40581031
v -0.41401385 0.28030302 0.37550728
v -0.40402725 0.13079325 0.37478210
v -0.39886234 0.20454544 0.22399213
v -0.41401385 0.31060605 0.31490122
v -0.32310476 0.37121211 0.25429516
v -0.26249870 0.44696969 0.31490122
v -0.29280173 0.43181817 0.28459819
v -0.30795325 0.37121211 0.40581031
v -0.26249870 0.41666666 0.39065880
v -0.33825628 0.38636363 0.34520425
v -0.44431688 0.20454544 0.39065880
v -0.45946840 0.23484847 0.31490122
v -0.36855931 0.34090908 0.37550728
v -0.45413974 0.20150188 0.29198134
v -0.39886234 0.21969696 0.22399213
v -0.39886234 0.32575757 0.33005274
v -0.44431688 0.26515150 0.28459819
v -0.24734719 0.38636363 0.22399213
v -0.29280173 0.41666666 0.26944668
v -0.26249870 0.44696969 0.28459819
v -0.26249870 0.43181817 0.36035577
v -0.42916537 0.21969696 0.40581031
v -0.44431688 0.26515150 0.31490122
v -0.33825628 0.37121211 0.37550728
v -0.36855931 0.31060605 0.40581031
v -0.39886234 0.31060605 0.26944668
v -0.42916537 0.23484847 0.25429516
v -0.30795325 0.32575757 0.22399213
v -0.27765022 0.38636363 0.23914365
v -0.35340779 0.34090908 0.25429516
v -0.33825628 0.32575757 0.23914365
f 7 1 3
f 11 1 7
f 13 7 3
f 14 8 1
f 14 2 8
f 15 3 1
f 16 6 3
f 16 3 15
f 17 8 2
f 17 2 9
f 18 10 4
f 18 17 10
f 20 1 11
f 20 11 5
f 23 6 4
f 25 13 3
f 25 3 6
f 25 6 23
f 26 9 2
f 26 2 14
f 27 15 1
f 27 1 8
f 27 16 15
f 27 8 6
f 27 6 16
f 28 6 8
f 28 8 17
f 28 17 18
f 28 18 4
f 28 4 6
f 29 11 7
f 29 5 11
f 30 19 7
f 31 20 9
f 31 1 20
f 31 9 26
f 31 26 14
f 31 14 1
f 32 9 20
f 32 17 9
f 33 12 21
f 35 22 4
f 35 4 10
f 36 21 12
f 36 12 22
f 36 34 21
f 36 22 35
f 37 7 13
f 37 13 24
f 38 24 13
f 38 23 4
f 38 25 23
f 38 13 25
f 39 24 22
f 39 22 12
f 41 5 29
f 41 40 19
f 41 29 40
f 42 30 7
f 43 32 20
f 43 20 5
f 43 5 32
f 44 32 5
f 44 17 32
f 45 12 33
f 45 42 12
f 45 30 42
f 45 19 30
f 46 33 21
f 46 5 41
f 47 10 17
f 47 17 44
f 48 36 10
f 48 34 36
f 49 36 35
f 49 35 10
f 49 10 36
f 50 38 4
f 50 4 22
f 50 22 24
f 50 24 38
f 51 40 29
f 51 29 7
f 51 7 19
f 51 19 40
f 52 41 19
f 52 46 41
f 52 33 46
f 52 45 33
f 52 19 45
f 53 42 24
f 53 24 39
f 53 39 12
f 53 12 42
f 54 42 7
f 54 7 37
f 54 37 24
f 54 24 42
f 55 21 34
f 55 46 21
f 56 44 5
f 56 5 46
f 56 55 44
f 56 46 55
f 57 47 44
f 58 34 48
f 58 47 57
f 58 48 10
f 58 10 47
f 59 55 34
f 59 44 55
f 59 34 58
f 60 57 44
f 60 44 59
f 60 59 58
f 60 58 57

