# https://github.com/mikedh/trimesh
v -0.48204652 -0.10358527 0.22881519
v -0.48204657 -0.07611848 0.15351150
v -0.47779851 0.21506858 0.23640940
v -0.49800509 0.21446115 0.22914755
v -0.50757580 -0.10365493 0.24086332
v -0.47779851 0.21506858 0.13480271
v -0.49710359 -0.10360296 0.19540249
v -0.49800516 0.21452686 0.13480271
v -0.47727277 0.06301173 0.13480271
v -0.48204653 -0.10365493 0.19540877
v -0.50757580 0.06301173 0.13480271
v -0.49725581 -0.07608910 0.15353435
f 5 1 3
f 5 3 4
f 8 4 3
f 8 3 6
f 9 8 6
f 9 6 3
f 9 3 1
f 10 1 5
f 10 5 7
f 10 9 1
f 10 2 9
f 11 5 4
f 11 4 8
f 11 9 2
f 11 8 9
f 12 7 5
f 12 5 11
f 12 11 2
f 12 10 7
f 12 2 10

