# https://github.com/mikedh/trimesh
v 0.50757570 -0.20971554 0.24086332
v 0.49179600 -0.20971554 -0.03186395
v 0.49490963 0.16899090 0.00633718
v 0.47982714 0.16900129 0.22857503
v 0.47851127 -0.21099175 0.23640940
v 0.47982712 0.16907234 -0.03186395
v 0.50757570 0.16907233 0.24086332
v 0.49734478 -0.20978131 0.00633717
v 0.49179600 0.16907233 -0.03186395
v 0.47851127 -0.21099175 -0.03186395
f 6 5 4
f 7 5 1
f 7 4 5
f 7 6 4
f 8 7 1
f 8 3 7
f 9 2 6
f 9 8 2
f 9 3 8
f 9 7 3
f 9 6 7
f 10 6 2
f 10 5 6
f 10 2 8
f 10 8 1
f 10 1 5

