# https://github.com/mikedh/trimesh
v 0.49798631 -0.29327152 0.23412178
v 0.50757570 -0.30062463 -0.24398516
v 0.50757570 -0.20971554 0.24086332
v 0.49825424 -0.20943924 -0.23640935
v 0.44696964 -0.30062463 -0.24398516
v 0.44710349 -0.29277086 0.23371885
v 0.44696964 -0.20971554 -0.21646122
v 0.45533434 -0.23348572 0.23640940
v 0.44696964 -0.20971554 -0.23640934
v 0.47070899 -0.21856412 0.23640940
f 1 2 3
f 3 2 4
f 5 2 1
f 5 4 2
f 6 5 1
f 6 1 3
f 7 3 4
f 7 5 6
f 8 7 6
f 8 6 3
f 9 7 4
f 9 4 5
f 9 5 7
f 10 8 3
f 10 3 7
f 10 7 8

