# https://github.com/mikedh/trimesh
v -0.49800509 0.21446115 0.22914755
v -0.41666671 0.24482991 0.08934817
v -0.41666671 0.24482991 0.24086332
v -0.50757580 0.30543597 0.24086332
v -0.49959228 0.21457820 0.08934816
v -0.41666671 0.29543811 0.08934817
v -0.46999623 0.22264095 0.23640940
v -0.41685296 0.29245920 0.23346784
v -0.49847171 0.29543812 0.08962002
v -0.46999623 0.22264095 0.08934817
f 5 1 4
f 6 3 2
f 6 2 5
f 7 3 4
f 7 4 1
f 7 2 3
f 8 6 4
f 8 4 3
f 8 3 6
f 9 6 5
f 9 5 4
f 9 4 6
f 10 5 2
f 10 2 7
f 10 7 1
f 10 1 5

