# https://github.com/mikedh/trimesh
v 0.49528489 0.26017518 -0.19867124
v 0.50757570 0.27513294 -0.24398516
v 0.49749920 0.29786021 -0.19886575
v -0.41664208 0.29606893 -0.19863612
v -0.41666671 0.24482991 -0.23441438
v -0.41666671 0.29028445 -0.24398516
v 0.40151509 0.24482991 -0.23441457
v -0.42387229 0.26740578 -0.19853061
v 0.49798553 0.29786021 -0.21348813
v 0.49594677 0.25998143 -0.23441460
v 0.40151509 0.24482991 -0.21646126
v -0.41664960 0.29617139 -0.21348808
v -0.06818187 0.29028445 -0.24398516
v -0.41666671 0.24482991 -0.21646106
f 1 2 3
f 1 3 4
f 6 2 5
f 7 5 2
f 8 1 4
f 8 6 5
f 9 3 2
f 10 7 2
f 10 2 1
f 11 5 7
f 11 10 1
f 11 7 10
f 12 8 4
f 12 6 8
f 12 9 6
f 12 4 3
f 12 3 9
f 13 9 2
f 13 2 6
f 13 6 9
f 14 8 5
f 14 5 11
f 14 11 1
f 14 1 8

