# https://github.com/mikedh/trimesh
v -0.41675044 -0.29276317 0.23371268
v -0.41667209 -0.29770830 -0.19853043
v -0.46212125 -0.20971554 -0.23640913
v -0.50757580 -0.20971554 0.24086332
v -0.50757580 -0.30062463 -0.24398516
v -0.46212125 -0.20971554 0.24086332
v -0.41666671 -0.25517008 0.24086332
v -0.44696974 -0.30062463 -0.24398516
v -0.49942019 -0.29327152 0.23412181
v -0.49740656 -0.20971554 -0.23640912
v -0.42711126 -0.26530687 -0.19853061
v -0.44696974 -0.24001856 -0.23640913
f 7 1 2
f 7 3 6
f 7 6 4
f 8 2 1
f 8 5 3
f 9 4 5
f 9 7 4
f 9 1 7
f 9 8 1
f 9 5 8
f 10 5 4
f 10 3 5
f 10 6 3
f 10 4 6
f 11 7 2
f 11 3 7
f 12 8 3
f 12 2 8
f 12 11 2
f 12 3 11

