# https://github.com/mikedh/trimesh
v -0.41666671 -0.24001857 -0.21646101
v -0.41666671 -0.24001856 -0.23640914
v -0.41666671 0.24482991 -0.23441438
v -0.44704922 0.24491180 -0.21368213
v -0.49740656 -0.20971554 -0.23640912
v -0.41666671 0.24482991 -0.21646106
v -0.46212125 -0.24001856 -0.23640913
v -0.49680119 -0.20982799 -0.19883318
v -0.49740636 0.13661126 -0.23640916
v -0.44938212 -0.24235986 -0.19853061
v -0.50757580 0.21452688 -0.22883364
v -0.47779851 0.21506858 -0.19853061
v -0.44696974 0.24482991 -0.23441438
v -0.49706152 0.21467999 -0.19853061
v -0.49148554 0.21452688 -0.23441436
f 1 2 3
f 6 1 3
f 6 3 4
f 7 5 2
f 8 5 7
f 9 3 2
f 9 2 5
f 10 7 2
f 10 2 1
f 10 8 7
f 10 1 6
f 11 9 5
f 11 5 8
f 12 10 6
f 12 6 4
f 13 11 4
f 13 4 3
f 13 3 9
f 14 8 10
f 14 10 12
f 14 11 8
f 14 12 4
f 14 4 11
f 15 13 9
f 15 9 11
f 15 11 13

