# https://github.com/mikedh/trimesh
v -0.40151519 0.25998142 0.24086332
v -0.35606065 0.27990700 -0.16822758
v -0.35609582 0.27789765 0.23298671
v -0.35606065 0.30543597 0.24086332
v -0.41664208 0.29606893 -0.19863612
v -0.40151519 0.25998142 -0.19853061
v -0.41685296 0.29245920 0.23346784
v -0.35603554 0.29588699 -0.16833514
v -0.42387229 0.26740578 0.23640940
v -0.37118785 0.29618844 -0.19863478
v -0.42387229 0.26740578 -0.19853061
v -0.37121216 0.27990701 -0.19853061
f 1 3 4
f 6 2 3
f 6 3 1
f 7 4 5
f 8 3 2
f 8 4 3
f 9 1 4
f 9 4 7
f 9 6 1
f 9 7 5
f 10 5 4
f 10 4 8
f 10 6 5
f 11 9 5
f 11 5 6
f 11 6 9
f 12 2 6
f 12 6 10
f 12 10 8
f 12 8 2

