# https://github.com/mikedh/trimesh
v 0.05291726 -0.28987509 0.23138836
v 0.05302326 -0.29684096 -0.19853038
v 0.03787874 -0.25517008 0.24086332
v -0.03063919 -0.25583531 0.22841522
v -0.03798617 -0.29043407 0.23183823
v 0.02920521 -0.25962613 -0.19849105
v 0.05303025 -0.27990690 -0.19853061
v -0.03788552 -0.29700884 -0.19853039
v 0.05301773 -0.27591076 0.23138786
v -0.03063919 -0.26313863 -0.19839426
f 5 2 1
f 5 1 3
f 5 3 4
f 6 4 3
f 7 6 3
f 8 5 4
f 8 2 5
f 8 7 2
f 8 6 7
f 9 1 2
f 9 2 7
f 9 7 3
f 9 3 1
f 10 8 4
f 10 4 6
f 10 6 8

