# https://github.com/mikedh/trimesh
v -0.46242386 0.22999019 0.23640940
v -0.44696974 0.21452688 -0.23441437
v -0.44704922 0.24491180 0.23640940
v -0.46212125 0.24482991 0.23640940
v -0.50757580 0.24482991 -0.22883364
v -0.44696974 0.21452688 -0.21646105
v -0.49978708 0.24487998 0.08934816
v -0.44696974 0.24482991 -0.23441438
v -0.50757580 0.21452688 -0.22883364
v -0.49148557 0.24482991 -0.23441437
v -0.49959228 0.21457820 0.08934816
v -0.49148554 0.21452688 -0.23441436
f 1 3 4
f 6 3 1
f 7 1 4
f 7 4 3
f 7 3 5
f 8 6 2
f 8 3 6
f 9 2 6
f 9 7 5
f 10 8 2
f 10 9 5
f 10 5 3
f 10 3 8
f 11 9 6
f 11 6 1
f 11 1 7
f 11 7 9
f 12 10 2
f 12 2 9
f 12 9 10

