# https://github.com/mikedh/trimesh
v 0.50757570 0.16907233 -0.12277304
v 0.49594677 0.16907234 -0.23441458
v 0.50757570 0.30543597 -0.12277304
v 0.44556511 0.24346677 -0.16822758
v 0.46212115 0.16907233 -0.21646125
v 0.46212115 0.25998143 -0.23441459
v 0.46212125 0.29348137 -0.12275058
v 0.46212115 0.19937536 -0.12277304
v 0.49594677 0.25998143 -0.23441460
v 0.44556511 0.24346677 -0.19853061
v 0.46212115 0.16907234 -0.23441457
v 0.44698380 0.29776696 -0.19853014
v 0.47845543 0.16907673 -0.12661165
v 0.44698379 0.29776882 -0.16822711
v 0.49749920 0.29786021 -0.19886575
f 5 2 1
f 7 1 3
f 8 4 5
f 8 7 4
f 8 1 7
f 9 2 6
f 9 1 2
f 9 3 1
f 10 5 4
f 11 6 2
f 11 2 5
f 11 10 6
f 11 5 10
f 12 6 10
f 13 8 5
f 13 5 1
f 13 1 8
f 14 7 3
f 14 3 12
f 14 4 7
f 14 12 10
f 14 10 4
f 15 9 6
f 15 6 12
f 15 12 3
f 15 3 9

