# https://github.com/mikedh/trimesh
v -0.03783776 0.27601299 0.23146998
v -0.03787884 0.27990696 -0.19853061
v -0.03787884 0.30543597 0.11965120
v -0.35606065 0.30543597 0.24086332
v -0.37121216 0.27990701 -0.19853061
v -0.18939399 0.30543597 0.24086332
v -0.35609582 0.27789765 0.23298671
v -0.03786302 0.29687171 -0.19853009
v -0.03783046 0.28997674 0.23147002
v -0.37121216 0.27990701 -0.16822758
v -0.37118785 0.29618844 -0.19863478
v -0.37118695 0.29584716 -0.16833559
f 5 2 1
f 6 3 4
f 7 5 1
f 7 6 4
f 7 1 6
f 8 1 2
f 9 6 1
f 9 3 6
f 9 8 3
f 9 1 8
f 10 7 4
f 10 5 7
f 11 8 2
f 11 2 5
f 11 4 3
f 11 3 8
f 11 5 10
f 12 11 10
f 12 10 4
f 12 4 11

