# https://github.com/mikedh/trimesh
v 0.44696964 0.21452688 -0.19853061
v 0.46212115 0.21452688 -0.23441458
v 0.46212115 0.25998142 -0.19853061
v 0.42329423 0.26641377 -0.19853061
v 0.40151509 0.21452688 -0.23441457
v 0.46212115 0.25998143 -0.23441459
v 0.46805911 0.22028988 -0.19853061
v 0.40151509 0.21452688 -0.21646125
v 0.40151509 0.25998143 -0.23441458
v 0.41666661 0.24482991 -0.19853061
v 0.40151509 0.25998142 -0.21646126
f 1 3 4
f 6 4 3
f 6 2 5
f 7 1 2
f 7 3 1
f 7 6 3
f 7 2 6
f 8 5 2
f 8 2 1
f 9 6 5
f 9 4 6
f 10 8 1
f 10 1 4
f 11 8 10
f 11 9 5
f 11 5 8
f 11 10 4
f 11 4 9

