# https://github.com/mikedh/trimesh
v 0.03787874 0.24482991 0.24086332
v 0.05303025 0.27990694 -0.19853061
v 0.05303025 0.30543597 0.24086332
v 0.00757571 0.30543597 0.24086332
v -0.03787884 0.24482991 -0.12277304
v 0.05304575 0.29703957 -0.19853010
v 0.05306566 0.27657196 0.23191984
v 0.03787874 0.24482991 0.01359059
v -0.03787884 0.24482991 0.24086332
v -0.03787884 0.30543597 0.11965120
v -0.03786302 0.29687171 -0.19853009
v 0.02920521 0.26424680 -0.19845763
v -0.03783046 0.28997674 0.23147002
v -0.00757581 0.24482991 -0.12277304
v -0.03063919 0.26073360 -0.19852393
v 0.00757571 0.24482991 -0.09247001
f 1 3 4
f 7 3 1
f 7 6 3
f 7 2 6
f 8 1 5
f 8 7 1
f 8 2 7
f 9 5 1
f 9 1 4
f 10 4 3
f 10 3 6
f 10 5 9
f 11 6 2
f 11 10 6
f 11 5 10
f 12 2 8
f 13 10 9
f 13 9 4
f 13 4 10
f 14 8 5
f 15 11 2
f 15 2 12
f 15 5 11
f 15 14 5
f 15 12 14
f 16 14 12
f 16 12 8
f 16 8 14

