# https://github.com/mikedh/trimesh
v 0.44776197 -0.24083496 -0.21368213
v 0.46212115 -0.20971554 -0.23640935
v 0.46212115 0.21452688 -0.21646126
v 0.26515146 0.21452688 -0.21646122
v 0.26515146 -0.16426099 -0.23640931
v 0.46212115 -0.20971554 -0.21646123
v 0.40151509 -0.24001856 -0.23640933
v 0.26515146 -0.16426099 -0.21646119
v 0.46212115 0.21452688 -0.23441458
v 0.44696964 -0.24001856 -0.23640934
v 0.40151509 -0.24001857 -0.21646121
v 0.26515146 0.21452688 -0.23441454
f 1 3 4
f 6 1 2
f 6 3 1
f 8 1 4
f 8 4 5
f 9 2 5
f 9 6 2
f 9 3 6
f 10 2 1
f 10 1 7
f 10 7 5
f 10 5 2
f 11 7 1
f 11 1 8
f 11 8 5
f 11 5 7
f 12 9 5
f 12 5 4
f 12 4 3
f 12 3 9

