# https://github.com/mikedh/trimesh
v 0.44696964 0.21452688 0.24086332
v 0.46805911 0.22028988 -0.19853061
v 0.46223154 0.29305165 0.23394472
v 0.40162926 0.29267900 0.23364481
v 0.40151509 0.25998142 -0.19853061
v 0.40151509 0.25998142 0.24086332
v 0.46805911 0.22028988 0.22830693
v 0.44696964 0.21452688 -0.19853061
v 0.46213526 0.29779679 -0.16822711
v 0.40152941 0.29768303 -0.19853014
v 0.44698380 0.29776696 -0.19853014
f 6 1 3
f 6 3 4
f 6 5 1
f 7 1 2
f 7 3 1
f 8 5 2
f 8 2 1
f 8 1 5
f 9 7 2
f 9 3 7
f 9 4 3
f 10 6 4
f 10 5 6
f 10 4 9
f 11 10 9
f 11 9 2
f 11 2 5
f 11 5 10

