# https://github.com/mikedh/trimesh
v -0.41666671 0.24482991 0.08934817
v -0.41666671 0.24482991 -0.23441438
v -0.41664960 0.29617139 -0.21348808
v -0.49847171 0.29543812 0.08962002
v -0.50757580 0.24482991 -0.22883364
v -0.41666671 0.29543811 0.08934817
v -0.49978708 0.24487998 0.08934816
v -0.49242428 0.29028445 -0.24398516
v -0.50757580 0.29028445 -0.22883364
v -0.41666671 0.29028445 -0.24398516
v -0.49148557 0.24482991 -0.23441437
v -0.49942077 0.29601855 -0.21348808
f 1 2 3
f 5 2 1
f 6 1 3
f 6 3 4
f 6 4 1
f 7 5 1
f 7 1 4
f 9 7 4
f 9 5 7
f 9 8 5
f 10 8 3
f 10 3 2
f 10 2 8
f 11 8 2
f 11 2 5
f 11 5 8
f 12 9 4
f 12 4 3
f 12 3 8
f 12 8 9

