# https://github.com/mikedh/trimesh
v 0.49508261 -0.24028967 -0.12652585
v 0.49825424 -0.20943924 -0.23640935
v 0.50757570 0.16907233 -0.12277304
v 0.47845543 0.16907673 -0.12661165
v 0.46212115 -0.20971554 -0.23640935
v 0.49594677 0.16907234 -0.23441458
v 0.46212115 -0.07335190 -0.12277304
v 0.49521970 -0.24019849 -0.16822756
v 0.46212115 0.16907234 -0.23441457
v 0.47851127 -0.21099175 -0.12277304
v 0.46212115 0.07816325 -0.12277304
v 0.49242418 -0.24006316 -0.12652854
v 0.46212115 -0.20971554 -0.21646123
v 0.46212115 0.16907233 -0.21646125
f 1 2 3
f 6 3 2
f 6 4 3
f 8 5 2
f 8 2 1
f 9 4 6
f 9 6 2
f 9 2 5
f 10 1 3
f 10 3 7
f 11 7 3
f 11 3 4
f 12 8 1
f 12 5 8
f 12 1 10
f 13 10 7
f 13 12 10
f 13 5 12
f 13 7 11
f 14 11 4
f 14 4 9
f 14 13 11
f 14 9 5
f 14 5 13

