# https://github.com/mikedh/trimesh
v -0.48204651 -0.16426099 0.01359059
v -0.48073306 -0.16422488 -0.19850787
v -0.47779851 0.21506858 0.13480271
v -0.49800516 0.21452686 0.13480271
v -0.49632722 -0.16437839 -0.19884649
v -0.48204654 -0.07335350 0.10429963
v -0.47779851 0.21506858 -0.19853061
v -0.48204653 -0.10365493 0.08934817
v -0.48204657 0.08070726 0.13551214
v -0.49706152 0.21467999 -0.19853061
v -0.49946489 -0.10365261 0.08963939
v -0.49715727 -0.16419401 0.01359058
v -0.49999994 -0.07335350 0.10429963
v -0.49800472 0.08070688 0.13551352
f 1 2 3
f 5 2 1
f 7 3 2
f 7 2 5
f 8 1 3
f 8 3 6
f 9 6 3
f 10 7 5
f 10 4 3
f 10 3 7
f 11 1 8
f 11 8 6
f 12 11 5
f 12 5 1
f 12 1 11
f 13 10 5
f 13 5 11
f 13 4 10
f 13 11 6
f 14 4 13
f 14 9 3
f 14 3 4
f 14 13 6
f 14 6 9

