# https://github.com/mikedh/trimesh
v -0.48204650 -0.16418931 0.22846480
v -0.48204651 -0.16426099 0.01359059
v -0.48204654 -0.07335190 0.08934817
v -0.49725399 -0.07330067 0.19540258
v -0.50757580 -0.16426099 0.24086332
v -0.49754689 -0.10359046 0.01359058
v -0.48204654 -0.07335190 0.19540877
v -0.48204653 -0.10365493 0.01359059
v -0.49947356 -0.07334958 0.08963908
v -0.49715727 -0.16419401 0.01359058
v -0.48204652 -0.10358527 0.22881519
v -0.50757580 -0.10365493 0.24086332
f 5 2 1
f 7 3 4
f 8 6 3
f 9 4 3
f 9 3 6
f 10 2 5
f 10 5 6
f 10 8 2
f 10 6 8
f 11 5 1
f 11 3 7
f 11 8 3
f 11 1 2
f 11 2 8
f 12 9 6
f 12 6 5
f 12 4 9
f 12 5 11
f 12 11 7
f 12 7 4

