# https://github.com/mikedh/trimesh
v 0.26515146 0.13661126 -0.21646121
v 0.40151509 0.21452688 -0.23441457
v 0.40151509 0.24482991 -0.21646126
v -0.41666671 0.24482991 -0.21646106
v -0.41666671 0.13661126 -0.23640918
v 0.40151509 0.24482991 -0.23441457
v 0.40151509 0.21452688 -0.21646125
v 0.26515146 0.13661126 -0.23640934
v -0.41666671 0.13661126 -0.21646105
v -0.41666671 0.24482991 -0.23441438
f 6 4 3
f 7 3 4
f 7 6 3
f 7 2 6
f 8 1 5
f 8 7 1
f 8 2 7
f 8 6 2
f 9 5 1
f 9 4 5
f 9 7 4
f 9 1 7
f 10 5 4
f 10 4 6
f 10 8 5
f 10 6 8

