# https://github.com/mikedh/trimesh
v 0.50757570 0.16907233 0.24086332
v 0.49242418 0.16913239 -0.12745046
v 0.50757570 0.30543597 -0.12277304
v 0.50757570 0.30543597 0.24086332
v 0.46212115 0.19937536 0.24086332
v 0.47982714 0.16900129 0.22857503
v 0.46212125 0.29348137 -0.12275058
v 0.47845543 0.16907673 -0.12661165
v 0.46223154 0.29305165 0.23394472
v 0.49490963 0.16899090 0.00633718
v 0.46212115 0.19937536 -0.12277304
f 1 2 3
f 1 3 4
f 5 1 4
f 6 1 5
f 7 3 2
f 7 4 3
f 8 6 5
f 8 7 2
f 9 7 5
f 9 5 4
f 9 4 7
f 10 8 2
f 10 2 1
f 10 1 6
f 10 6 8
f 11 8 5
f 11 5 7
f 11 7 8

