# https://github.com/mikedh/trimesh
v -0.09848484 0.15092068 0.01182669
v -0.09847892 0.15091984 -0.15454485
v -0.09843263 0.31855668 0.01206799
v -0.15909091 0.33273886 0.01182669
v -0.23484848 0.15092068 -0.06393089
v -0.20454545 0.31758735 -0.15483997
v -0.23484848 0.15092068 0.01182669
v -0.09818770 0.24203459 -0.15540627
v -0.15909091 0.33273886 -0.12453694
v -0.23478779 0.15091813 -0.15167936
v -0.23482150 0.31602996 0.01181227
v -0.21969697 0.27213280 -0.16999149
v -0.15900698 0.27905964 -0.16189083
v -0.09852168 0.31855381 -0.06435260
v -0.23484848 0.33273886 -0.07908240
v -0.09848484 0.19637522 -0.16999149
v -0.21969697 0.28728431 -0.16999149
v -0.23484848 0.30243583 -0.15483997
v -0.23484848 0.33273886 -0.13968846
v -0.11363636 0.19637522 -0.16999149
v -0.20454545 0.33273886 -0.13968846
v -0.21969697 0.31758735 -0.15483997
v -0.18939394 0.24182977 -0.16999149
f 7 1 3
f 8 1 2
f 8 3 1
f 9 4 3
f 10 7 5
f 10 2 1
f 10 1 7
f 11 7 3
f 11 3 4
f 13 9 8
f 13 6 9
f 14 9 3
f 14 3 8
f 14 8 9
f 15 5 7
f 15 7 11
f 15 11 4
f 15 4 9
f 16 8 2
f 16 13 8
f 17 6 13
f 17 16 12
f 17 13 16
f 18 10 5
f 18 5 15
f 18 17 12
f 18 12 10
f 19 15 9
f 19 18 15
f 19 17 18
f 20 16 2
f 20 2 10
f 20 12 16
f 21 19 9
f 21 9 6
f 21 6 19
f 22 19 6
f 22 6 17
f 22 17 19
f 23 20 10
f 23 10 12
f 23 12 20

