# https://github.com/mikedh/trimesh
v 0.43181818 -0.28847326 0.14819033
v 0.43099960 -0.28775906 0.13094204
v 0.42694125 -0.27141182 0.13495263
v -0.31062059 -0.27331717 0.14689958
v -0.31060605 -0.33392781 0.14819033
v -0.31060605 -0.27332174 0.10273578
v 0.43176770 -0.27330197 0.13290179
v 0.14393940 -0.33392781 0.13303881
v 0.14393940 -0.27332174 0.10273578
v 0.34082934 -0.30275952 0.12953673
v -0.00757575 -0.33392781 0.14819033
v -0.31052341 -0.32834041 0.10221536
v 0.34090909 -0.30362478 0.14819033
v 0.14388954 -0.32568028 0.10068084
v 0.20454546 -0.31877629 0.14819033
f 1 3 4
f 5 1 4
f 6 4 3
f 6 5 4
f 7 1 2
f 7 3 1
f 9 6 3
f 9 3 7
f 9 7 2
f 10 2 1
f 11 1 5
f 11 5 8
f 12 8 5
f 12 5 6
f 13 10 1
f 13 8 10
f 13 1 11
f 14 9 2
f 14 2 10
f 14 10 8
f 14 8 12
f 14 12 6
f 14 6 9
f 15 13 11
f 15 11 8
f 15 8 13

