# https://github.com/mikedh/trimesh
v -0.31060605 -0.33392781 0.14819033
v -0.31052341 -0.32834041 0.10221536
v -0.35592200 -0.12109620 0.15286417
v -0.41483547 -0.12158583 0.15285574
v -0.44696969 -0.33392781 0.14819033
v -0.41666666 -0.12180659 0.10273578
v -0.34090908 -0.31877629 0.16334184
v -0.31061574 -0.24299535 0.14762017
v -0.35606060 -0.12180659 0.10273578
v -0.44658174 -0.27307578 0.14688111
v -0.44468817 -0.32500433 0.10222150
v -0.32575757 -0.25817023 0.16334184
v -0.40151515 -0.31877629 0.16334184
v -0.31060605 -0.24301871 0.10273578
v -0.44696969 -0.27332174 0.10273578
v -0.32575757 -0.30362478 0.16334184
f 5 2 1
f 6 4 3
f 7 5 1
f 8 1 2
f 9 6 3
f 10 4 6
f 11 2 5
f 11 9 2
f 11 6 9
f 12 3 4
f 12 8 3
f 12 1 8
f 13 5 7
f 13 10 5
f 13 4 10
f 13 12 4
f 13 7 12
f 14 8 2
f 14 2 9
f 14 9 3
f 14 3 8
f 15 10 6
f 15 6 11
f 15 11 5
f 15 5 10
f 16 12 7
f 16 7 1
f 16 1 12

