# https://github.com/mikedh/trimesh
v 0.40151515 -0.28847326 -0.06393089
v 0.40157759 -0.28825212 -0.15037672
v 0.40151515 0.22667825 -0.06393089
v 0.34090909 0.22667825 -0.06393089
v 0.26510899 -0.28819293 -0.14966105
v 0.40151515 0.18122371 -0.16999149
v 0.26515152 -0.28847326 -0.06393089
v 0.40151948 0.22667569 -0.15436057
v 0.38636364 -0.06120054 -0.16999149
v 0.26515152 0.15092068 -0.06393089
v 0.40151515 -0.06120054 -0.16999149
v 0.34090909 0.16607219 -0.16999149
v 0.34090909 -0.01574599 -0.16999149
v 0.26515400 0.15092041 -0.15416055
v 0.34091288 0.22666633 -0.15383629
v 0.26516276 -0.12177474 -0.15279469
v 0.38636364 0.18122371 -0.16999149
f 1 2 3
f 1 3 4
f 7 5 2
f 7 2 1
f 7 1 4
f 8 4 3
f 8 3 2
f 8 2 6
f 9 2 5
f 10 7 4
f 10 5 7
f 11 9 6
f 11 6 2
f 11 2 9
f 12 6 9
f 13 12 9
f 13 9 5
f 14 5 10
f 14 10 4
f 14 12 13
f 15 12 14
f 15 14 4
f 15 4 8
f 16 14 13
f 16 13 5
f 16 5 14
f 17 15 8
f 17 8 6
f 17 6 12
f 17 12 15

