# https://github.com/mikedh/trimesh
v 0.40151515 0.15092068 0.01182669
v 0.40151515 0.15092068 -0.06393089
v 0.40166522 0.32150600 0.01194287
v -0.09843263 0.31855668 0.01206799
v 0.00757576 0.15092068 0.01182669
v -0.09852168 0.31855381 -0.06435260
v 0.40160289 0.32111648 -0.06410418
v -0.09848484 0.24182977 0.01182669
v 0.00757576 0.15092068 -0.06393089
v -0.09848484 0.24182977 -0.06393089
f 1 2 3
f 1 3 4
f 5 2 1
f 5 1 4
f 6 4 3
f 7 6 3
f 7 3 2
f 7 2 6
f 8 5 4
f 8 4 6
f 9 6 2
f 9 2 5
f 9 5 8
f 10 9 8
f 10 8 6
f 10 6 9

