# https://github.com/mikedh/trimesh
v 0.50757576 -0.33392781 0.01182669
v 0.50757576 -0.31877629 -0.15483997
v 0.50757576 -0.00059447 0.01182669
v 0.46212121 0.06001159 0.01182669
v 0.40151232 -0.33362630 -0.06393710
v 0.50757576 -0.03089750 -0.15483997
v 0.46313000 -0.33162547 -0.14473740
v 0.40145633 -0.33099129 0.01168124
v 0.48992984 0.05997238 -0.06388731
v 0.50757576 -0.33392781 -0.00332483
v 0.40151515 -0.13695811 -0.16999149
v 0.40151515 -0.01574599 0.01182669
v 0.49085261 0.06000867 0.01186060
v 0.50757576 -0.00059447 -0.00332483
v 0.48731636 -0.32630934 -0.14623845
v 0.47727273 -0.04604902 -0.16999149
v 0.43181818 -0.21271568 -0.16999149
v 0.40177328 -0.01547730 -0.15543642
v 0.40157759 -0.28825212 -0.15037672
v 0.46212121 -0.21271568 -0.16999149
v 0.46212121 0.06001159 -0.06393089
v 0.45752530 -0.01562372 -0.15585612
v 0.47727273 -0.07635205 -0.16999149
v 0.48933926 -0.01569238 -0.14544108
f 1 2 3
f 6 3 2
f 8 5 1
f 10 2 1
f 10 1 5
f 10 5 7
f 11 5 8
f 12 8 1
f 12 11 8
f 13 1 3
f 13 12 1
f 13 4 12
f 14 3 6
f 14 6 9
f 14 13 3
f 14 9 13
f 15 10 7
f 15 7 2
f 15 2 10
f 16 6 2
f 17 11 16
f 18 11 12
f 18 16 11
f 19 17 2
f 19 2 7
f 19 7 5
f 19 5 11
f 19 11 17
f 20 17 16
f 20 2 17
f 21 13 9
f 21 4 13
f 21 18 12
f 21 12 4
f 22 6 16
f 22 16 18
f 22 21 9
f 22 18 21
f 23 20 16
f 23 16 2
f 23 2 20
f 24 22 9
f 24 9 6
f 24 6 22

