# https://github.com/mikedh/trimesh
v -0.23484848 -0.01574599 0.01182669
v -0.23479325 -0.01572788 -0.15123842
v -0.23484848 0.33273886 -0.09423391
v -0.35597938 0.31381877 0.01178380
v -0.35606060 -0.01574599 0.01182669
v -0.35598567 0.27171539 -0.14795934
v -0.23482150 0.31602996 0.01181227
v -0.23484848 0.30243583 -0.15483997
v -0.29545454 0.33273886 -0.13968846
v -0.35604891 0.31541401 -0.10942406
v -0.35572957 -0.01562911 -0.14939879
v -0.24999999 0.33273886 -0.09423391
v -0.31060605 0.30243583 -0.15483997
v -0.23484848 0.33273886 -0.13968846
v -0.29545454 0.33273886 -0.10938543
f 5 2 1
f 7 5 1
f 7 4 5
f 7 1 2
f 10 6 5
f 10 5 4
f 10 9 6
f 11 2 5
f 11 5 6
f 12 7 3
f 12 4 7
f 12 3 9
f 13 9 8
f 13 6 9
f 13 11 6
f 13 8 2
f 13 2 11
f 14 9 3
f 14 8 9
f 14 3 7
f 14 7 2
f 14 2 8
f 15 10 4
f 15 9 10
f 15 12 9
f 15 4 12

