# https://github.com/mikedh/trimesh
v -0.35592200 -0.12109620 0.15286417
v -0.35606060 -0.12180659 0.01182669
v -0.35597938 0.31381877 0.01178380
v -0.41666666 0.31758735 0.16334184
v -0.41666666 -0.12180659 0.01182669
v -0.35593616 0.30746165 0.15280879
v -0.41483547 -0.12158583 0.15285574
v -0.41666666 0.06001159 -0.06393089
v -0.35606060 0.06001159 -0.06393089
v -0.41665542 0.31345124 0.01178688
v -0.41666666 0.15092068 -0.06393089
v -0.35606060 0.15092068 -0.06393089
f 6 1 3
f 6 3 4
f 6 4 1
f 7 5 2
f 7 2 1
f 7 1 4
f 7 4 5
f 8 2 5
f 8 5 4
f 9 2 8
f 9 1 2
f 9 3 1
f 10 4 3
f 11 9 8
f 11 10 3
f 11 8 4
f 11 4 10
f 12 11 3
f 12 3 9
f 12 9 11

