# https://github.com/mikedh/trimesh
v 0.26496441 -0.19731285 0.14148407
v 0.26515319 -0.19749934 -0.15182350
v 0.26493742 -0.01550856 0.15053813
v -0.23517403 -0.01502670 0.15720388
v -0.23476416 -0.19745977 -0.14819446
v 0.02272728 -0.19756417 0.16334184
v 0.26515152 -0.07635205 0.16334184
v -0.23479325 -0.01572788 -0.15123842
v -0.23501590 -0.19705695 0.14827071
v 0.26515929 -0.01572479 -0.15361510
v 0.15909091 -0.13695811 0.16334184
v 0.12878788 -0.15210962 0.16334184
f 6 5 2
f 6 2 1
f 7 1 2
f 7 3 4
f 7 4 6
f 8 2 5
f 8 5 4
f 9 6 4
f 9 4 5
f 9 5 6
f 10 7 2
f 10 3 7
f 10 2 8
f 10 8 4
f 10 4 3
f 11 7 6
f 11 1 7
f 12 11 6
f 12 6 1
f 12 1 11

