# https://github.com/mikedh/trimesh
v -0.35606060 -0.01574599 0.01182669
v -0.35572957 -0.01562911 -0.14939879
v -0.31056990 0.31577607 -0.10940088
v -0.46901772 0.30719137 0.01174555
v -0.50757575 0.01455704 -0.13968846
v -0.35597938 0.31381877 0.01178380
v -0.31050103 0.27126481 -0.14867218
v -0.48880393 -0.01572037 0.01193116
v -0.47727272 0.31758735 -0.13968846
v -0.31060605 0.27213280 -0.10938543
v -0.47727272 -0.01574599 -0.15483997
v -0.49699121 0.27738644 0.01150467
v -0.31060605 0.30243583 -0.15483997
v -0.31013358 0.31012726 -0.13019722
v -0.48676350 -0.01494580 -0.13457803
v -0.47727272 0.30243583 -0.15483997
v -0.50757575 0.04486007 0.01182669
v -0.50757575 0.28728431 -0.10938543
v -0.49242424 0.09031462 -0.15483997
v -0.50757575 0.01455704 -0.04877937
v -0.50757575 0.27213280 -0.13968846
v -0.49242424 0.01455704 -0.15483997
v -0.49242424 0.30243583 -0.13968846
f 6 1 3
f 7 1 2
f 8 6 4
f 8 1 6
f 9 6 3
f 9 4 6
f 10 3 1
f 10 1 7
f 11 2 1
f 11 1 8
f 13 7 2
f 13 2 11
f 14 10 7
f 14 3 10
f 14 7 13
f 14 13 9
f 14 9 3
f 15 11 8
f 15 8 5
f 15 5 11
f 16 13 11
f 16 9 13
f 17 8 4
f 17 4 12
f 18 12 4
f 18 4 9
f 18 17 12
f 18 5 17
f 19 16 11
f 20 17 5
f 20 5 8
f 20 8 17
f 21 5 18
f 21 19 5
f 21 16 19
f 22 19 11
f 22 11 5
f 22 5 19
f 23 21 18
f 23 18 9
f 23 9 16
f 23 16 21

