# https://github.com/mikedh/trimesh
v 0.40151515 0.22667825 -0.06393089
v 0.40151948 0.22667569 -0.15436057
v 0.40151515 0.33273886 -0.15483997
v -0.12878787 0.34789038 -0.09423391
v -0.15909091 0.24182977 -0.10938543
v 0.40160289 0.32111648 -0.06410418
v 0.00757576 0.22667825 -0.06393089
v -0.15909091 0.24182977 -0.16999149
v -0.08333333 0.34789038 -0.09423391
v -0.15909091 0.28728431 -0.06393089
v 0.20454546 0.24182977 -0.16999149
v 0.00773421 0.22697842 -0.15601087
v -0.14393939 0.30243583 -0.16999149
v -0.08333333 0.34789038 -0.13968846
v -0.09848484 0.24182977 -0.06393089
v -0.15918675 0.32072292 -0.06690230
v 0.18939394 0.22667825 -0.16999149
v 0.17424243 0.28728431 -0.16999149
v -0.05303030 0.34789038 -0.10938543
v -0.12878787 0.34789038 -0.12453694
v 0.02272728 0.33273886 -0.15483997
v -0.15909091 0.31758735 -0.15483997
v 0.06818182 0.30243583 -0.16999149
v 0.20454546 0.27213280 -0.16999149
v -0.05303030 0.34789038 -0.13968846
v -0.15909091 0.33273886 -0.12453694
f 6 1 2
f 6 2 3
f 7 2 1
f 8 7 5
f 9 6 3
f 9 4 6
f 10 7 1
f 10 1 6
f 11 3 2
f 12 7 8
f 13 11 8
f 14 4 9
f 15 10 5
f 15 5 7
f 15 7 10
f 16 8 5
f 16 5 10
f 16 10 6
f 16 6 4
f 17 2 7
f 17 7 12
f 17 11 2
f 17 12 8
f 17 8 11
f 18 11 13
f 19 14 9
f 19 9 3
f 20 4 14
f 21 14 3
f 21 3 13
f 21 13 14
f 22 13 8
f 22 8 16
f 22 20 14
f 22 14 13
f 23 18 13
f 23 13 3
f 23 3 18
f 24 18 3
f 24 3 11
f 24 11 18
f 25 19 3
f 25 3 14
f 25 14 19
f 26 16 4
f 26 4 20
f 26 22 16
f 26 20 22

