# https://github.com/mikedh/trimesh
v 0.49074460 -0.01574257 -0.06391204
v 0.48933926 -0.01569238 -0.14544108
v 0.49159049 0.15096422 -0.06390605
v 0.40151515 0.15092068 -0.06393089
v 0.40151515 -0.01574599 -0.06393089
v 0.46212121 0.15092068 -0.16999149
v 0.48639095 0.15163262 -0.14755076
v 0.40157065 0.15064583 -0.15513792
v 0.47727273 0.07516310 -0.16999149
v 0.40177328 -0.01547730 -0.15543642
v 0.40151515 -0.01574599 -0.07908240
v 0.47727273 0.01455704 -0.16999149
v 0.45752530 -0.01562372 -0.15585612
f 1 2 3
f 5 1 3
f 5 3 4
f 7 3 2
f 7 4 3
f 8 7 6
f 8 4 7
f 9 7 2
f 9 6 7
f 10 8 6
f 11 8 10
f 11 5 4
f 11 4 8
f 11 2 1
f 11 1 5
f 12 9 2
f 12 10 6
f 12 6 9
f 13 11 10
f 13 2 11
f 13 12 2
f 13 10 12

