# https://github.com/mikedh/trimesh
v 0.40127984 -0.27172150 0.13387870
v 0.40151515 -0.27332174 0.01182669
v 0.40151515 -0.01574599 0.01182669
v 0.34090909 0.01455704 0.16334184
v 0.26459015 -0.27153174 0.13688406
v 0.40131843 -0.01555453 0.14496954
v 0.26515152 -0.27332174 0.01182669
v 0.28030303 -0.07635205 0.16334184
v 0.35606061 0.01455704 0.16334184
v 0.26515152 -0.01574599 0.01182669
v 0.35602128 0.01452905 0.14737393
v 0.35606061 -0.03089750 0.16334184
v 0.26493742 -0.01550856 0.15053813
v 0.34090480 0.01455399 0.14810125
v 0.32575758 -0.06120054 0.16334184
v 0.26515152 -0.07635205 0.16334184
f 6 1 2
f 6 2 3
f 7 2 1
f 7 1 5
f 7 3 2
f 8 5 1
f 9 6 3
f 9 4 8
f 10 7 5
f 10 3 7
f 11 9 3
f 11 3 10
f 12 1 6
f 12 6 9
f 12 9 8
f 13 10 5
f 14 11 10
f 14 4 9
f 14 9 11
f 14 13 4
f 14 10 13
f 15 12 8
f 15 8 1
f 15 1 12
f 16 13 5
f 16 5 8
f 16 8 4
f 16 4 13

