# https://github.com/mikedh/trimesh
v 0.25000001 -0.34907932 -0.00332483
v 0.26510899 -0.28819293 -0.14966105
v 0.26515152 -0.19756417 0.01182669
v -0.48532537 -0.19737600 0.01203441
v -0.46212121 -0.34907932 -0.13968846
v 0.26515319 -0.19749934 -0.15182350
v 0.21969697 -0.34907932 0.01182669
v 0.26514287 -0.33312857 0.01180444
v 0.14393940 -0.34907932 -0.12453694
v -0.47387086 -0.19739009 -0.14032605
v -0.44696969 -0.33392781 -0.15483997
v -0.48281085 -0.28786756 0.01226099
v 0.26515152 -0.34907932 -0.01847634
v 0.14393940 -0.33392781 -0.15483997
v -0.47727272 -0.28847326 -0.15483997
v -0.35586272 -0.33860565 0.01135906
v 0.26508624 -0.33467746 -0.06424657
v -0.37121211 -0.34907932 -0.13968846
v -0.48402686 -0.28776992 -0.13430719
v -0.46212121 -0.34907932 -0.10938543
v -0.48489542 -0.19752536 -0.13773311
f 6 4 3
f 7 5 1
f 8 7 1
f 9 1 5
f 10 4 6
f 12 3 4
f 12 8 3
f 12 7 8
f 13 8 1
f 13 2 6
f 13 6 3
f 13 3 8
f 13 1 9
f 14 6 2
f 14 5 11
f 15 10 6
f 15 14 11
f 15 6 14
f 15 11 5
f 16 7 12
f 17 13 9
f 17 2 13
f 17 14 2
f 17 9 14
f 18 14 9
f 18 9 5
f 18 5 14
f 19 15 5
f 19 12 4
f 20 16 12
f 20 5 7
f 20 7 16
f 20 19 5
f 20 12 19
f 21 19 4
f 21 4 10
f 21 10 15
f 21 15 19

