# https://github.com/mikedh/trimesh
v 0.49413894 0.15133875 0.08750652
v 0.50757576 0.16607219 -0.10938543
v 0.50757576 0.30243583 0.07243275
v 0.40151515 0.33273886 0.14819033
v 0.40157065 0.15064583 -0.15513792
v 0.50757576 0.27213280 0.13303881
v 0.48639095 0.15163262 -0.14755076
v 0.40151515 0.15092068 0.08758427
v 0.40151515 0.33273886 -0.15483997
v 0.49242425 0.31758735 0.10273578
v 0.50757576 0.22667825 0.13303881
v 0.50757576 0.15092068 -0.06393089
v 0.47727273 0.19637522 -0.16999149
v 0.50757576 0.28728431 0.11788730
v 0.41666667 0.33273886 0.14819033
v 0.47727273 0.33273886 -0.13968846
v 0.46212121 0.22667825 0.14819033
v 0.46212121 0.15092068 -0.16999149
v 0.50757576 0.21152674 -0.13968846
v 0.47727273 0.33273886 0.08758427
v 0.46212121 0.33273886 -0.15483997
v 0.40150270 0.22666427 0.14566338
v 0.46212121 0.28728431 0.14819033
v 0.47727273 0.16607219 -0.16999149
v 0.40151515 0.22667825 -0.16999149
v 0.50757576 0.18122371 -0.12453694
v 0.50757576 0.28728431 -0.13968846
v 0.44696970 0.27213280 -0.16999149
v 0.50757576 0.30243583 -0.07908240
v 0.49242425 0.30243583 -0.15483997
v 0.43181818 0.27213280 -0.16999149
v 0.49242425 0.31758735 -0.13968846
v 0.46212121 0.25698128 -0.16999149
v 0.41666667 0.25698128 -0.16999149
f 6 2 3
f 11 2 6
f 12 7 2
f 12 8 5
f 12 1 8
f 12 11 1
f 12 2 11
f 14 10 6
f 14 6 3
f 14 3 10
f 15 6 10
f 15 9 4
f 16 9 15
f 17 8 1
f 17 1 11
f 17 15 4
f 17 11 6
f 18 12 5
f 18 7 12
f 19 3 2
f 20 16 15
f 20 15 10
f 20 10 16
f 21 9 16
f 22 17 4
f 22 8 17
f 22 4 9
f 23 17 6
f 23 6 15
f 23 15 17
f 24 18 13
f 24 7 18
f 24 19 7
f 24 13 19
f 25 18 5
f 25 13 18
f 25 5 8
f 25 22 9
f 25 8 22
f 26 19 2
f 26 2 7
f 26 7 19
f 27 3 19
f 27 19 13
f 28 13 25
f 28 9 21
f 29 3 27
f 29 10 3
f 30 27 13
f 30 28 21
f 31 28 25
f 31 9 28
f 32 29 27
f 32 16 10
f 32 10 29
f 32 27 30
f 32 30 21
f 32 21 16
f 33 30 13
f 33 13 28
f 33 28 30
f 34 31 25
f 34 25 9
f 34 9 31

