# https://github.com/mikedh/trimesh
v 0.34090909 0.15092068 -0.06393089
v 0.34091025 0.15092066 -0.15477800
v 0.34090909 0.22667825 -0.06393089
v 0.00757576 0.22667825 -0.06393089
v 0.00757576 0.15092068 -0.06393089
v 0.18939394 0.22667825 -0.16999149
v 0.34091288 0.22666633 -0.15383629
v 0.00773421 0.22697842 -0.15601087
v 0.00764631 0.15109019 -0.15487005
v 0.15909091 0.15092068 -0.16999149
v 0.18939394 0.19637522 -0.16999149
f 1 3 4
f 5 2 1
f 5 1 4
f 7 2 6
f 7 1 2
f 7 3 1
f 8 4 3
f 8 7 6
f 8 3 7
f 9 5 4
f 9 4 8
f 10 2 5
f 10 5 9
f 10 9 8
f 10 8 6
f 11 10 6
f 11 6 2
f 11 2 10

