# https://github.com/mikedh/trimesh
v 0.26478083 -0.28720079 0.13489241
v 0.26515152 -0.28847326 0.01182669
v 0.26515152 -0.19756417 0.01182669
v -0.35527935 -0.19719870 0.14847527
v -0.35606060 -0.28847326 0.10273578
v 0.26496441 -0.19731285 0.14148407
v -0.08333333 -0.27332174 0.16334184
v -0.35606060 -0.19756417 0.01182669
v 0.14352923 -0.28725716 0.14155327
v -0.35606060 -0.24301871 0.16334184
v 0.06818182 -0.27332174 0.16334184
v -0.35606060 -0.28847326 0.01182669
v -0.31062059 -0.27331717 0.14689958
v 0.00757576 -0.19756417 0.16334184
v 0.06818182 -0.24301871 0.16334184
v 0.05303031 -0.22786720 0.16334184
f 5 2 1
f 6 3 4
f 6 1 2
f 6 2 3
f 8 3 2
f 8 4 3
f 9 7 5
f 9 5 1
f 10 8 5
f 10 4 8
f 11 1 6
f 11 10 7
f 11 9 1
f 11 7 9
f 12 8 2
f 12 2 5
f 12 5 8
f 13 10 5
f 13 5 7
f 13 7 10
f 14 6 4
f 14 4 10
f 14 10 11
f 15 14 11
f 15 11 6
f 16 15 6
f 16 6 14
f 16 14 15

