# https://github.com/mikedh/trimesh
v 0.49242425 -0.27332174 0.13303881
v 0.49299250 -0.27338499 0.01233972
v 0.50757576 0.22667825 0.13303881
v 0.40150270 0.22666427 0.14566338
v 0.40151515 -0.27332174 0.01182669
v 0.46212121 -0.16726114 0.14819033
v 0.50757576 -0.27332174 0.11788730
v 0.46212121 0.15092068 0.01182669
v 0.50757576 -0.03089750 0.13303881
v 0.46212121 0.22667825 0.14819033
v 0.40127984 -0.27172150 0.13387870
v 0.50757576 0.01455704 0.01182669
v 0.40151515 0.15092068 0.01182669
v 0.49607792 0.22693768 0.08739349
v 0.44696970 -0.27332174 0.14819033
v 0.40151515 0.22667825 0.08758427
v 0.49079635 0.09031159 0.01186182
f 7 1 2
f 9 6 1
f 9 3 6
f 9 7 3
f 9 1 7
f 10 6 3
f 12 7 2
f 12 3 7
f 12 2 5
f 12 5 8
f 13 8 5
f 13 5 11
f 14 10 3
f 14 4 10
f 14 8 13
f 14 3 12
f 15 10 4
f 15 6 10
f 15 4 11
f 15 1 6
f 15 11 5
f 15 5 2
f 15 2 1
f 16 14 13
f 16 4 14
f 16 13 11
f 16 11 4
f 17 14 12
f 17 12 8
f 17 8 14

