# https://github.com/mikedh/trimesh
v 0.37121212 -0.34907932 -0.04877937
v 0.40151232 -0.33362630 -0.06393710
v 0.40145633 -0.33099129 0.01168124
v 0.26515152 -0.01574599 0.01182669
v 0.26515152 -0.01574599 -0.06393089
v 0.26514287 -0.33312857 0.01180444
v 0.26508624 -0.33467746 -0.06424657
v 0.40151515 -0.01574599 -0.06393089
v 0.29545455 -0.34907932 -0.01847634
v 0.40151515 -0.01574599 0.01182669
v 0.37121212 -0.34907932 -0.06393089
v 0.34090909 -0.34907932 -0.03362786
v 0.26515152 -0.34907932 -0.01847634
f 1 2 3
f 7 6 4
f 7 4 5
f 8 7 5
f 8 2 7
f 8 5 4
f 9 3 6
f 10 6 3
f 10 4 6
f 10 8 4
f 10 3 2
f 10 2 8
f 11 7 2
f 11 2 1
f 11 1 9
f 12 9 1
f 12 1 3
f 12 3 9
f 13 9 6
f 13 6 7
f 13 11 9
f 13 7 11

