# https://github.com/mikedh/trimesh
v 0.26515152 -0.01574599 0.01182669
v 0.26515929 -0.01572479 -0.15361510
v 0.26515152 0.15092068 0.01182669
v -0.23484848 0.15092068 0.01182669
v -0.23484848 -0.01574599 0.01182669
v 0.12878788 0.15092068 -0.16999149
v 0.26515400 0.15092041 -0.15416055
v -0.23478779 0.15091813 -0.15167936
v -0.23479325 -0.01572788 -0.15123842
v -0.09848484 0.09031462 -0.16999149
v -0.08333333 0.15092068 -0.16999149
v 0.12878788 0.13576916 -0.16999149
v -0.09848484 0.13576916 -0.16999149
v -0.05303030 0.09031462 -0.16999149
f 1 2 3
f 1 3 4
f 5 1 4
f 6 4 3
f 7 6 3
f 7 3 2
f 9 5 4
f 9 4 8
f 9 2 1
f 9 1 5
f 10 9 8
f 10 2 9
f 11 6 10
f 11 8 4
f 11 4 6
f 12 10 6
f 12 7 2
f 12 6 7
f 13 11 10
f 13 10 8
f 13 8 11
f 14 12 2
f 14 2 10
f 14 10 12

