# https://github.com/mikedh/trimesh
v 0.49242425 -0.33392781 0.10273578
v 0.50757576 -0.33392781 0.01182669
v 0.50757576 -0.27332174 0.11788730
v 0.08333334 -0.28847326 0.10273578
v 0.12878788 -0.34907932 0.05728124
v 0.26515152 -0.27332174 0.01182669
v 0.14393940 -0.33392781 0.13303881
v 0.50757576 -0.31877629 0.10273578
v 0.18939394 -0.34907932 0.02697821
v 0.49299250 -0.27338499 0.01233972
v 0.26532228 -0.27386625 0.13647811
v 0.08333334 -0.28847326 0.01182669
v 0.49242425 -0.31877629 0.13303881
v 0.47727273 -0.33392781 0.11788730
v 0.08318583 -0.32660030 0.10085257
v 0.50757576 -0.33392781 0.07243275
v 0.49242425 -0.27332174 0.13303881
v 0.14429772 -0.29115018 0.14002134
v 0.08308589 -0.33522417 0.01181419
v 0.50757576 -0.30362478 0.11788730
v 0.26515152 -0.33392781 0.13303881
v 0.18939394 -0.34907932 0.01182669
v 0.08294414 -0.33416023 0.05538850
f 8 2 3
f 10 6 3
f 10 3 2
f 10 2 6
f 11 6 4
f 12 4 6
f 14 1 13
f 14 9 1
f 14 5 9
f 15 5 7
f 16 2 8
f 16 9 2
f 16 1 9
f 16 13 1
f 16 8 13
f 17 3 6
f 17 6 11
f 17 13 3
f 18 11 4
f 18 17 11
f 18 13 17
f 18 15 7
f 18 4 15
f 19 12 6
f 19 6 2
f 20 13 8
f 20 8 3
f 20 3 13
f 21 7 5
f 21 5 14
f 21 14 13
f 21 18 7
f 21 13 18
f 22 9 5
f 22 5 19
f 22 19 2
f 22 2 9
f 23 19 5
f 23 5 15
f 23 15 4
f 23 4 12
f 23 12 19

