# https://github.com/mikedh/trimesh
v -0.35606060 -0.34907932 0.07243275
v -0.35657026 -0.33814120 -0.06315370
v -0.35606060 -0.28847326 0.07243275
v -0.48201822 -0.28656573 0.10136677
v -0.49242424 -0.33392781 -0.13968846
v -0.41666666 -0.28847326 0.10273578
v -0.35606060 -0.28847326 -0.06393089
v -0.44696969 -0.34907932 -0.10938543
v -0.47727272 -0.33392781 0.10273578
v -0.44696969 -0.33392781 -0.15483997
v -0.47727272 -0.28847326 -0.15483997
v -0.49242424 -0.31877629 0.10273578
v -0.41585793 -0.33031542 0.10212435
v -0.43181818 -0.34907932 0.07243275
v -0.49242424 -0.33392781 0.08758427
v -0.46212121 -0.33392781 -0.15483997
v -0.48402686 -0.28776992 -0.13430719
v -0.44609760 -0.28812822 -0.14499355
v -0.40151515 -0.34907932 0.08758427
v -0.44696969 -0.34907932 -0.03362786
v -0.47727272 -0.30362478 -0.15483997
v -0.41666666 -0.34907932 0.08758427
f 6 1 3
f 6 3 4
f 7 1 2
f 7 3 1
f 7 4 3
f 8 2 1
f 10 7 2
f 10 2 8
f 12 9 6
f 12 6 4
f 13 1 6
f 13 6 9
f 14 8 1
f 15 5 8
f 15 14 9
f 15 12 5
f 15 9 12
f 16 10 8
f 16 8 5
f 16 11 10
f 17 11 5
f 17 12 4
f 17 5 12
f 18 7 10
f 18 10 11
f 18 11 17
f 18 17 4
f 18 4 7
f 19 13 9
f 19 1 13
f 19 14 1
f 20 15 8
f 20 8 14
f 20 14 15
f 21 16 5
f 21 5 11
f 21 11 16
f 22 19 9
f 22 9 14
f 22 14 19

