# https://github.com/mikedh/trimesh
v -0.23484848 -0.19756417 0.01182669
v -0.23476416 -0.19745977 -0.14819446
v -0.23484848 -0.01574599 0.01182669
v -0.48880393 -0.01572037 0.01193116
v -0.48532537 -0.19737600 0.01203441
v -0.47727272 -0.01574599 -0.15483997
v -0.48489542 -0.19752536 -0.13773311
v -0.23479325 -0.01572788 -0.15123842
v -0.47387086 -0.19739009 -0.14032605
v -0.48676350 -0.01494580 -0.13457803
f 1 2 3
f 5 1 3
f 5 3 4
f 7 2 1
f 7 1 5
f 7 5 4
f 8 3 2
f 8 2 6
f 9 7 6
f 9 6 2
f 9 2 7
f 10 7 4
f 10 6 7
f 10 8 6
f 10 4 3
f 10 3 8

