# https://github.com/mikedh/trimesh
v 0.49085261 0.06000867 0.01186060
v 0.48992984 0.05997238 -0.06388731
v 0.50757576 0.15092068 -0.03362786
v 0.46212121 0.15092068 0.05728124
v 0.46212121 0.06001159 0.01182669
v 0.46212121 0.15092068 -0.06393089
v 0.50757576 0.10546613 0.05728124
v 0.49159049 0.15096422 -0.06390605
v 0.46212121 0.06001159 -0.06393089
v 0.49411402 0.15152000 0.05754188
v 0.46212121 0.09031462 0.05728124
v 0.50757576 0.10546613 0.02697821
v 0.50757576 0.13576916 -0.03362786
v 0.49201586 0.09030439 0.05729298
f 5 2 1
f 6 5 4
f 9 2 5
f 9 5 6
f 9 8 2
f 9 6 8
f 10 7 3
f 10 3 8
f 10 8 6
f 10 6 4
f 11 5 1
f 11 4 5
f 11 10 4
f 12 7 1
f 12 1 2
f 12 3 7
f 13 8 3
f 13 2 8
f 13 12 2
f 13 3 12
f 14 11 1
f 14 1 7
f 14 7 10
f 14 10 11

