# https://github.com/mikedh/trimesh
v 0.41666667 -0.34907932 -0.06393089
v 0.48786959 -0.32410050 -0.09424776
v 0.49096016 -0.28847905 -0.06386878
v 0.14393940 -0.28847326 -0.06393089
v 0.14393940 -0.33392781 -0.15483997
v 0.48964461 -0.32253558 -0.06445011
v 0.41666667 -0.34907932 -0.12453694
v 0.14396152 -0.33482956 -0.06396659
v 0.46171998 -0.28815861 -0.15085917
v 0.43181818 -0.34907932 -0.09423391
v 0.48971537 -0.28848244 -0.09413508
v 0.14393940 -0.34907932 -0.12453694
v 0.46313000 -0.33162547 -0.14473740
v 0.14397066 -0.28824250 -0.14943874
v 0.43181818 -0.34907932 -0.10938543
f 6 3 1
f 8 1 3
f 8 3 4
f 9 4 3
f 10 6 1
f 10 2 6
f 10 1 7
f 11 6 2
f 11 3 6
f 11 9 3
f 12 7 1
f 12 1 8
f 12 5 7
f 12 8 4
f 12 4 5
f 13 7 5
f 13 5 9
f 13 11 2
f 13 9 11
f 14 9 5
f 14 5 4
f 14 4 9
f 15 10 7
f 15 7 13
f 15 13 2
f 15 2 10

