# https://github.com/mikedh/trimesh
v 0.08333334 -0.34907932 0.07243275
v 0.08308589 -0.33522417 0.01181419
v 0.08333334 -0.28847326 0.10273578
v -0.41666666 -0.28847326 0.10273578
v -0.35586272 -0.33860565 0.01135906
v -0.35606060 -0.28847326 0.01182669
v -0.41585793 -0.33031542 0.10212435
v 0.08333334 -0.28847326 0.01182669
v -0.41666666 -0.28847326 0.07243275
v 0.08318583 -0.32660030 0.10085257
v -0.34090908 -0.34907932 0.07243275
v -0.41664636 -0.33383669 0.07242530
f 5 2 1
f 6 4 3
f 7 3 4
f 8 1 2
f 8 3 1
f 8 6 3
f 8 2 5
f 8 5 6
f 9 6 5
f 9 4 6
f 10 7 1
f 10 1 3
f 10 3 7
f 11 5 1
f 11 1 7
f 12 7 4
f 12 4 9
f 12 9 5
f 12 11 7
f 12 5 11

