# https://github.com/mikedh/trimesh
v 0.40131843 -0.01555453 0.14496954
v 0.40151515 -0.01574599 0.01182669
v 0.40151515 0.33273886 0.14819033
v -0.20454545 0.33273886 0.07243275
v -0.23484848 -0.01574599 0.01182669
v 0.40166522 0.32150600 0.01194287
v -0.23517403 -0.01502670 0.15720388
v -0.20454545 0.33273886 0.01182669
v 0.34090909 0.04486007 0.16334184
v -0.23501760 0.30857903 0.15183739
v 0.34014496 -0.01525823 0.14831039
v -0.03787878 0.33273886 0.13303881
v -0.21969697 0.33273886 0.02697821
v -0.23482150 0.31602996 0.01181227
v 0.09848485 0.31758735 0.16334184
v -0.12878787 0.33273886 0.11788730
v -0.21969697 0.33273886 0.05728124
v 0.28030303 0.28728431 0.16334184
v 0.28030303 0.33273886 0.14819033
f 1 2 3
f 5 2 1
f 6 3 2
f 7 5 1
f 8 4 3
f 8 3 6
f 9 1 3
f 11 9 7
f 11 7 1
f 11 1 9
f 12 3 4
f 13 4 8
f 14 5 7
f 14 7 10
f 14 13 8
f 14 2 5
f 14 8 6
f 14 6 2
f 15 12 10
f 15 10 7
f 15 7 9
f 16 12 4
f 16 4 10
f 16 10 12
f 17 10 4
f 17 4 13
f 17 14 10
f 17 13 14
f 18 15 9
f 18 9 3
f 18 3 15
f 19 15 3
f 19 3 12
f 19 12 15

