# https://github.com/mikedh/trimesh
v 0.00757576 0.15092068 0.01182669
v 0.00764631 0.15109019 -0.15487005
v 0.00773052 0.24212295 -0.15633598
v -0.09848484 0.24182977 0.01182669
v -0.09847892 0.15091984 -0.15454485
v 0.00757576 0.24182977 0.01182669
v -0.08333333 0.15092068 -0.16999149
v -0.09848484 0.15092068 0.01182669
v -0.09818770 0.24203459 -0.15540627
v -0.09848484 0.18122371 -0.16999149
f 1 2 3
f 6 1 3
f 6 3 4
f 6 4 1
f 7 2 1
f 7 1 5
f 7 3 2
f 8 5 1
f 8 1 4
f 9 4 3
f 10 4 9
f 10 8 4
f 10 5 8
f 10 7 5
f 10 9 3
f 10 3 7

