# https://github.com/mikedh/trimesh
v -0.44696969 -0.33392781 0.14819033
v -0.41666666 -0.27332174 0.10273578
v -0.41666666 -0.30362478 0.16334184
v -0.43181818 0.31758735 0.16334184
v -0.50757575 0.07516310 0.01182669
v -0.41666666 0.31758735 0.16334184
v -0.47727272 -0.04604902 0.16334184
v -0.44468817 -0.32500433 0.10222150
v -0.41665542 0.31345124 0.01178688
v -0.49242424 -0.28847326 0.14819033
v -0.50757575 0.28728431 0.14819033
v -0.41766171 -0.30139412 0.14214372
v -0.41666666 -0.12180659 0.01182669
v -0.47727272 0.31758735 0.11788730
v -0.43181818 -0.30362478 0.16334184
v -0.47727272 -0.33392781 0.10273578
v -0.47727272 -0.03089750 0.16334184
v -0.50757575 0.19637522 0.14819033
v -0.49699121 0.27738644 0.01150467
v -0.46212121 -0.33392781 0.14819033
v -0.46212121 -0.25817023 0.16334184
v -0.49242424 -0.31877629 0.10273578
v -0.50757575 -0.03089750 0.13303881
v -0.46901772 0.30719137 0.01174555
v -0.47727272 -0.31877629 0.14819033
v -0.48669167 -0.12170881 0.01199632
v -0.49242424 -0.31877629 0.11788730
v -0.50757575 -0.03089750 0.04212972
v -0.50757575 -0.04604902 0.10273578
v -0.47727272 -0.33392781 0.13303881
v -0.50757575 -0.01574599 0.02697821
v -0.50757575 -0.04604902 0.07243275
f 6 4 3
f 7 3 4
f 8 3 1
f 9 6 3
f 9 3 2
f 12 8 2
f 12 2 3
f 12 3 8
f 13 2 8
f 13 9 2
f 14 4 6
f 14 6 9
f 14 11 4
f 15 1 3
f 15 3 7
f 16 8 1
f 16 13 8
f 17 11 7
f 17 7 4
f 17 4 11
f 18 10 7
f 18 7 11
f 18 11 5
f 19 5 11
f 19 9 13
f 19 11 14
f 20 1 15
f 20 16 1
f 21 15 7
f 21 7 10
f 23 18 5
f 23 10 18
f 24 19 14
f 24 14 9
f 24 9 19
f 25 20 15
f 25 15 21
f 25 21 10
f 26 13 16
f 26 16 22
f 26 19 13
f 26 5 19
f 27 10 23
f 27 25 10
f 27 22 16
f 28 23 5
f 29 27 23
f 29 22 27
f 29 23 28
f 30 27 16
f 30 16 20
f 30 20 25
f 30 25 27
f 31 26 22
f 31 22 28
f 31 28 5
f 31 5 26
f 32 29 28
f 32 28 22
f 32 22 29

