# https://github.com/mikedh/trimesh
v 0.07931756 -0.15200612 -0.47727273
v 0.13992362 -0.12170309 -0.50757576
v 0.13992362 -0.01564248 -0.43181818
v -0.08751608 -0.01584592 -0.43570376
v -0.08734910 -0.15200612 -0.50757576
v 0.13992362 -0.01564248 -0.49999991
v -0.07219759 -0.09140006 -0.43181818
v 0.13992362 -0.12170309 -0.46212121
v 0.07931756 -0.15200612 -0.50757576
v -0.08734912 -0.01564250 -0.49999984
v -0.08734910 -0.07624854 -0.43181818
v -0.07219759 -0.15200612 -0.46212121
v 0.06416605 -0.09140006 -0.43181818
v -0.08734910 -0.12170309 -0.44696970
v 0.13992362 -0.09140006 -0.44696970
v 0.01871150 -0.13685461 -0.44696970
v -0.08734910 -0.15200612 -0.47727273
v 0.07931756 -0.12170309 -0.44696970
v 0.13992362 -0.03079400 -0.43181818
v 0.06416605 -0.15200612 -0.46212121
v -0.02674304 -0.13685461 -0.44696970
v 0.09446908 -0.07624854 -0.43181818
v 0.10962059 -0.13685461 -0.46212121
f 6 3 2
f 8 1 2
f 8 2 3
f 9 5 2
f 9 2 1
f 9 1 5
f 10 4 3
f 10 3 6
f 10 5 4
f 10 6 2
f 10 2 5
f 11 7 3
f 11 3 4
f 12 5 1
f 13 3 7
f 14 11 4
f 14 7 11
f 15 8 3
f 16 13 7
f 17 5 12
f 17 12 14
f 17 14 4
f 17 4 5
f 18 15 13
f 18 13 16
f 19 15 3
f 19 3 13
f 20 16 12
f 20 12 1
f 20 18 16
f 21 14 12
f 21 12 16
f 21 16 7
f 21 7 14
f 22 19 13
f 22 13 15
f 22 15 19
f 23 20 1
f 23 1 8
f 23 18 20
f 23 8 15
f 23 15 18

