# https://github.com/mikedh/trimesh
v -0.28431880 -0.30352127 0.37121212
v -0.28431880 -0.30352127 0.31060606
v -0.28431880 -0.19746067 0.40151515
v -0.31684698 -0.19742226 0.40148919
v -0.32977334 -0.28836976 0.38636364
v -0.32977334 -0.19746067 0.29545454
v -0.28423279 -0.26386633 0.44402368
v -0.31462183 -0.30352127 0.37121212
v -0.29191774 -0.19561896 0.30183718
v -0.32977334 -0.27321824 0.44696970
v -0.28431880 -0.24291521 0.29545454
v -0.28431880 -0.22776370 0.44696970
v -0.32977334 -0.28836976 0.32575757
v -0.31462183 -0.25806673 0.29545454
v -0.31509636 -0.22791361 0.44519345
v -0.31462183 -0.30352127 0.32575757
v -0.29947031 -0.25806673 0.29545454
v -0.32977334 -0.25806673 0.31060606
v -0.29947031 -0.30352127 0.31060606
v -0.32977334 -0.21261218 0.29545454
v -0.31462183 -0.28836976 0.31060606
f 7 1 2
f 8 2 1
f 9 6 4
f 9 4 3
f 10 6 5
f 10 4 6
f 10 5 8
f 10 8 1
f 10 1 7
f 11 7 2
f 11 3 7
f 11 9 3
f 11 6 9
f 12 7 3
f 12 3 4
f 12 10 7
f 13 8 5
f 13 5 6
f 14 6 11
f 15 12 4
f 15 4 10
f 15 10 12
f 16 2 8
f 16 8 13
f 17 14 11
f 17 11 2
f 17 2 14
f 18 14 13
f 18 13 6
f 19 14 2
f 19 2 16
f 19 16 13
f 20 18 6
f 20 6 14
f 20 14 18
f 21 19 13
f 21 13 14
f 21 14 19

