# https://github.com/mikedh/trimesh
v -0.28431880 -0.27321824 0.46212121
v -0.17825819 -0.22776370 0.40151515
v -0.17824582 -0.19811965 0.49936610
v -0.29947031 -0.13685461 0.49242424
v -0.32977334 -0.13531229 0.40024934
v -0.29947031 -0.24291521 0.50757576
v -0.23886425 -0.25806673 0.49242424
v -0.31662707 -0.22748040 0.40141546
v -0.17825819 -0.13685461 0.40151515
v -0.28431880 -0.16715764 0.50757576
v -0.32977334 -0.21261218 0.46212121
v -0.23885545 -0.25719050 0.46170645
v -0.17825819 -0.22776370 0.46212121
v -0.31462183 -0.25806673 0.49242424
v -0.23886425 -0.24291521 0.50757576
v -0.28423279 -0.26386633 0.44402368
v -0.17821617 -0.17123699 0.49330265
v -0.29947031 -0.19746067 0.50757576
v -0.32977334 -0.15200612 0.44696970
v -0.32977334 -0.25806673 0.44696970
v -0.17823301 -0.13931871 0.48403129
v -0.31462183 -0.18230915 0.49242424
v -0.31462183 -0.13685461 0.47727273
v -0.32977334 -0.25806673 0.46212121
v -0.31462183 -0.27321824 0.46212121
v -0.32977334 -0.13685461 0.43181818
v -0.30852020 -0.26247652 0.44354100
f 8 5 2
f 9 2 5
f 9 5 4
f 12 7 1
f 12 1 2
f 12 2 7
f 13 7 2
f 13 3 7
f 14 7 6
f 14 1 7
f 15 7 3
f 15 6 7
f 15 10 6
f 15 3 10
f 16 8 2
f 16 2 1
f 17 2 9
f 17 13 2
f 17 3 13
f 17 10 3
f 18 10 4
f 18 6 10
f 18 14 6
f 19 5 11
f 20 11 5
f 20 5 8
f 21 17 9
f 21 9 4
f 21 4 10
f 21 10 17
f 22 11 14
f 22 14 18
f 22 19 11
f 22 18 4
f 23 4 5
f 23 22 4
f 23 19 22
f 24 14 11
f 24 11 20
f 25 16 1
f 25 24 20
f 25 1 14
f 25 14 24
f 26 23 5
f 26 5 19
f 26 19 23
f 27 25 20
f 27 20 8
f 27 8 16
f 27 16 25

