# https://github.com/mikedh/trimesh
v 0.32174181 -0.30352127 0.37121212
v 0.32174181 -0.28836976 0.31060606
v 0.34779618 -0.06257424 0.33889998
v 0.23078306 0.00925541 0.38708234
v 0.23083272 -0.30352127 0.31060606
v 0.33593999 -0.13531242 0.40024955
v 0.32174181 -0.30352127 0.32575757
v 0.23074168 -0.27808674 0.39846847
v 0.29143878 -0.09140006 0.25000000
v 0.32174181 -0.28836976 0.40151515
v 0.31268892 0.00500928 0.38590130
v 0.29143878 -0.30352127 0.31060606
v 0.23083272 -0.30352127 0.37121212
v 0.23083272 -0.16715764 0.28030303
v 0.23083272 -0.13685461 0.40151515
v 0.32174181 -0.09140006 0.25000000
v 0.33593999 -0.07160517 0.38317601
v 0.29143878 -0.25806673 0.29545454
v 0.23083272 0.01466055 0.34090909
v 0.32174181 -0.15200612 0.26515151
v 0.32174181 -0.00049097 0.29545454
v 0.29143878 -0.15200612 0.26515151
v 0.30659029 -0.25806673 0.29545454
v 0.29134867 -0.02445334 0.26823590
v 0.32174181 0.01466055 0.34090909
v 0.23083272 -0.13427925 0.28855796
v 0.31349779 -0.02723204 0.27004593
v 0.29601954 -0.05736425 0.25860172
f 7 2 3
f 7 3 1
f 7 1 5
f 10 1 3
f 10 3 6
f 11 4 6
f 12 7 5
f 12 2 7
f 13 8 5
f 13 5 1
f 13 10 8
f 13 1 10
f 14 8 4
f 14 5 8
f 14 9 5
f 15 6 4
f 15 4 8
f 15 10 6
f 15 8 10
f 17 11 6
f 17 6 3
f 17 3 11
f 18 12 5
f 20 16 3
f 20 3 2
f 20 9 16
f 21 3 16
f 22 18 5
f 22 5 9
f 22 20 18
f 22 9 20
f 23 2 12
f 23 12 18
f 23 20 2
f 23 18 20
f 24 19 21
f 25 19 4
f 25 4 11
f 25 21 19
f 25 11 3
f 25 3 21
f 26 24 9
f 26 9 14
f 26 19 24
f 26 14 4
f 26 4 19
f 27 24 21
f 27 21 16
f 27 16 24
f 28 24 16
f 28 16 9
f 28 9 24

