# https://github.com/mikedh/trimesh
v 0.32174181 -0.28836976 0.41666667
v 0.32174181 -0.28836976 0.40151515
v 0.32015742 -0.22772977 0.40150320
v -0.28431880 -0.22776370 0.46212121
v -0.31462183 -0.28836976 0.41666667
v 0.31592736 -0.22795815 0.46095484
v 0.32174181 -0.27321824 0.46212121
v -0.30884957 -0.27622788 0.39791308
v -0.28431880 -0.27321824 0.46212121
v -0.31169809 -0.26903620 0.41542586
v -0.28431880 -0.22776370 0.40151515
v -0.31303247 -0.27184091 0.40110585
f 5 2 1
f 6 3 4
f 7 1 2
f 7 2 3
f 7 3 6
f 7 6 4
f 7 5 1
f 8 3 2
f 8 2 5
f 9 7 4
f 9 4 5
f 9 5 7
f 10 5 4
f 11 4 3
f 11 3 8
f 11 10 4
f 12 8 5
f 12 5 10
f 12 11 8
f 12 10 11

