# https://github.com/mikedh/trimesh
v 0.35401649 0.04712537 0.25064321
v 0.35204484 0.07526661 0.21969697
v 0.32174181 0.09041812 0.25000000
v 0.06416605 0.08413409 0.22903852
v 0.06416605 0.04496358 0.20454545
v 0.32174181 0.09041812 0.20454545
v 0.06416605 0.06011509 0.25000000
v 0.35204484 0.07526661 0.25000000
v 0.33689332 0.04496358 0.20454545
v 0.24598423 0.09041812 0.25000000
v 0.06416605 0.08367625 0.21067804
v 0.06416605 0.04496358 0.23484848
v 0.33689332 0.07526661 0.20454545
v 0.06416605 0.07526661 0.25000000
v 0.26113575 0.04496358 0.25000000
v 0.34436012 0.04471576 0.23090408
f 6 3 2
f 7 4 5
f 8 1 2
f 8 2 3
f 8 3 1
f 9 2 1
f 9 5 6
f 10 3 6
f 10 1 3
f 11 6 5
f 11 5 4
f 11 10 6
f 11 4 10
f 12 7 5
f 13 9 6
f 13 6 2
f 13 2 9
f 14 10 4
f 14 4 7
f 14 7 1
f 14 1 10
f 15 1 7
f 15 7 12
f 16 12 5
f 16 5 9
f 16 15 12
f 16 9 1
f 16 1 15

