# https://github.com/mikedh/trimesh
v 0.23083272 -0.15200612 0.34090909
v 0.29840818 -0.11829920 0.27655600
v 0.29142492 -0.00204765 0.34136644
v -0.28430528 -0.00201872 0.34135794
v -0.28431880 -0.12170309 0.26515151
v 0.29143878 -0.13685461 0.31060606
v -0.28431880 -0.13685461 0.34090909
v 0.29143878 -0.00049097 0.28030303
v 0.29143878 -0.06109703 0.34090909
v 0.23083272 -0.14808687 0.29286563
v 0.29134867 -0.02445334 0.26823590
v -0.28431880 -0.00049097 0.28030303
v 0.29548426 -0.13569508 0.28415807
v -0.17825819 -0.14808687 0.29286563
v -0.28422903 -0.02442068 0.26822447
v -0.28431880 -0.13685461 0.31060606
v -0.17825819 -0.15200612 0.34090909
f 8 3 2
f 8 4 3
f 9 6 2
f 9 2 3
f 9 3 1
f 9 1 6
f 11 8 2
f 11 2 5
f 12 4 8
f 12 7 4
f 12 5 7
f 13 10 5
f 13 5 2
f 13 2 6
f 13 6 1
f 13 1 10
f 14 5 10
f 15 11 5
f 15 5 12
f 15 12 8
f 15 8 11
f 16 7 5
f 16 5 14
f 17 16 14
f 17 7 16
f 17 4 7
f 17 1 3
f 17 3 4
f 17 14 10
f 17 10 1

