# https://github.com/mikedh/trimesh
v 0.23083272 -0.21261218 0.35606060
v 0.23083272 -0.21261218 0.29545454
v 0.23083272 -0.14808687 0.29286563
v -0.17825819 -0.15200612 0.35606060
v -0.17825819 -0.21261218 0.29545454
v 0.23083272 -0.15200612 0.35606060
v -0.17825819 -0.21261218 0.35606060
v 0.20052969 -0.16715764 0.28030303
v -0.17825819 -0.14808687 0.29286563
v 0.23083272 -0.16715764 0.28030303
v -0.17825819 -0.16715764 0.28030303
f 1 2 3
f 5 2 1
f 6 1 3
f 6 4 1
f 7 5 1
f 7 1 4
f 7 4 5
f 8 2 5
f 9 5 4
f 9 6 3
f 9 4 6
f 10 3 2
f 10 2 8
f 10 9 3
f 10 8 9
f 11 9 8
f 11 8 5
f 11 5 9

