# https://github.com/mikedh/trimesh
v -0.17825819 -0.30352127 0.37121212
v -0.17825819 -0.30352127 0.31060606
v -0.17825819 -0.12047163 0.28425030
v -0.33594001 -0.13531229 0.40024934
v -0.28431880 -0.30352127 0.37121212
v -0.17825819 -0.13685461 0.40151515
v -0.29338264 -0.16392317 0.29143504
v -0.17825819 -0.12170309 0.31060606
v -0.17824510 -0.27832295 0.39854010
v -0.17825819 -0.16715764 0.28030303
v -0.28431880 -0.30352127 0.31060606
v -0.28431880 -0.12047163 0.28425030
v -0.31684698 -0.19742226 0.40148919
v -0.34492486 -0.15200612 0.34090909
v -0.28431880 -0.12170309 0.31060606
v -0.34492486 -0.15200612 0.40151515
v -0.28422305 -0.27762316 0.39833112
v -0.33594001 -0.13238161 0.34635931
f 5 2 1
f 8 4 6
f 9 5 1
f 9 8 6
f 9 3 8
f 9 1 2
f 10 9 2
f 10 3 9
f 11 2 5
f 11 10 2
f 12 3 10
f 12 11 7
f 12 10 11
f 12 8 3
f 13 9 6
f 14 11 5
f 14 7 11
f 14 12 7
f 15 4 8
f 15 8 12
f 16 13 6
f 16 6 4
f 16 14 5
f 17 5 9
f 17 9 13
f 17 16 5
f 17 13 16
f 18 12 14
f 18 15 12
f 18 4 15
f 18 16 4
f 18 14 16

