# https://github.com/mikedh/trimesh
v 0.18537817 0.16617570 -0.44696970
v 0.19967941 0.16572122 -0.49999975
v 0.10962059 0.28738782 -0.47727273
v -0.05704607 0.30253933 -0.46212121
v -0.08734910 0.16617570 -0.49999983
v 0.09446908 0.22678176 -0.43181818
v 0.18537817 0.22678176 -0.47727273
v 0.19514344 0.16329669 -0.47480995
v 0.06416605 0.30253933 -0.50757576
v 0.04901453 0.30253933 -0.46212121
v -0.08716044 0.16594581 -0.43592126
v 0.17022665 0.24193327 -0.46212121
v 0.20052969 0.19647873 -0.46212121
v 0.20052969 0.19647873 -0.50757576
v -0.05704607 0.30253933 -0.50757576
v -0.05704607 0.24193327 -0.43181818
v 0.06416605 0.30253933 -0.47727273
v 0.13992362 0.16617570 -0.43181818
v -0.10250062 0.25708479 -0.44696970
v 0.18537817 0.18132721 -0.44696970
v 0.15507514 0.25708479 -0.50757576
v 0.07931756 0.27223630 -0.44696970
v 0.12477211 0.27223630 -0.46212121
v -0.08734910 0.22678176 -0.43181818
v -0.10213622 0.24125154 -0.46294166
v -0.08734910 0.28738782 -0.46212121
v -0.07219759 0.27223630 -0.44696970
v 0.13992362 0.18132721 -0.43181818
v 0.15507514 0.25708479 -0.47727273
v 0.18537817 0.22678176 -0.50757576
v 0.10962059 0.28738782 -0.49242424
v 0.10962059 0.25708479 -0.44696970
v 0.04901453 0.24193327 -0.43181818
v 0.09446908 0.28738782 -0.46212121
v -0.08430499 0.27735300 -0.49999982
v -0.10058839 0.25350730 -0.47054876
f 8 5 2
f 10 9 4
f 11 5 8
f 13 1 8
f 13 7 12
f 13 8 2
f 14 2 5
f 14 13 2
f 14 7 13
f 15 4 9
f 15 14 5
f 15 9 14
f 17 10 3
f 17 3 9
f 17 9 10
f 18 6 16
f 18 11 8
f 18 8 1
f 20 13 12
f 20 1 13
f 20 18 1
f 21 12 7
f 21 14 9
f 22 10 4
f 23 12 3
f 24 18 16
f 24 11 18
f 24 19 11
f 25 5 11
f 25 11 19
f 26 4 15
f 27 26 19
f 27 4 26
f 27 22 4
f 27 16 22
f 27 24 16
f 27 19 24
f 28 6 18
f 28 18 20
f 28 20 12
f 29 21 3
f 29 3 12
f 29 12 21
f 30 21 7
f 30 7 14
f 30 14 21
f 31 21 9
f 31 9 3
f 31 3 21
f 32 22 6
f 32 23 22
f 32 12 23
f 32 28 12
f 32 6 28
f 33 22 16
f 33 16 6
f 33 6 22
f 34 23 3
f 34 3 10
f 34 10 22
f 34 22 23
f 35 15 5
f 35 26 15
f 36 35 5
f 36 5 25
f 36 25 19
f 36 19 26
f 36 26 35

