# https://github.com/mikedh/trimesh
v -0.07219759 0.04496358 0.23484848
v -0.07219759 0.04496358 0.20454545
v -0.07219759 0.08413409 0.22903852
v -0.32977334 0.09041812 0.25000000
v -0.34492486 0.04496358 0.20454545
v -0.07219759 0.07526661 0.25000000
v -0.34031032 0.04557339 0.25522944
v -0.32977334 0.09041812 0.20454545
v -0.25401577 0.09041812 0.25000000
v -0.26916728 0.04496358 0.25000000
v -0.34492486 0.07526661 0.20454545
v -0.07219759 0.08367625 0.21067804
v -0.07219759 0.06011509 0.25000000
v -0.34103341 0.06517846 0.24383859
f 5 2 1
f 6 1 2
f 8 2 5
f 9 6 3
f 9 7 6
f 9 4 7
f 9 8 4
f 10 7 5
f 10 5 1
f 11 5 7
f 11 8 5
f 11 4 8
f 12 2 8
f 12 6 2
f 12 3 6
f 12 9 3
f 12 8 9
f 13 10 1
f 13 1 6
f 13 6 7
f 13 7 10
f 14 11 7
f 14 7 4
f 14 4 11

