# https://github.com/mikedh/trimesh
v 0.01871150 0.02981206 -0.26515152
v 0.04901453 0.04496358 -0.35606061
v 0.04901453 0.10556964 -0.28030303
v -0.02674304 0.12072115 -0.28030303
v -0.04189456 0.02981206 -0.35606061
v 0.03386302 0.12072115 -0.35606061
v -0.02674304 0.10556964 -0.23484849
v 0.04901453 0.04496358 -0.28030303
v 0.03386302 0.02981206 -0.28030303
v 0.04901453 0.10556964 -0.35606061
v 0.03386302 0.12072115 -0.28030303
v -0.05704607 0.09041812 -0.35606061
v 0.02519330 0.04037598 -0.35769786
v -0.04189456 0.02981206 -0.28030303
v 0.03386302 0.04496358 -0.23484849
v 0.01217145 0.09333379 -0.23484849
v -0.01159153 0.12072115 -0.26515152
v -0.02066062 0.10934149 -0.35760651
v -0.04189456 0.10556964 -0.26515152
v -0.05704607 0.06011509 -0.34090909
v -0.02674304 0.02981206 -0.26515152
v 0.01871150 0.12072115 -0.26515152
v 0.02095536 0.08351955 -0.23484849
v -0.05704607 0.06011509 -0.35606061
v -0.04189456 0.04496358 -0.26515152
v -0.05704607 0.09041812 -0.34090909
v -0.01764478 0.05591674 -0.23484848
f 8 2 3
f 9 1 5
f 9 2 8
f 10 6 3
f 10 3 2
f 11 6 4
f 11 3 6
f 13 9 5
f 13 2 9
f 13 10 2
f 14 5 1
f 15 9 8
f 15 1 9
f 15 8 3
f 16 7 15
f 17 11 4
f 17 4 7
f 18 12 4
f 18 4 6
f 18 6 10
f 18 10 13
f 18 13 5
f 19 7 4
f 20 5 14
f 21 14 1
f 21 1 15
f 22 7 16
f 22 17 7
f 22 11 17
f 22 16 3
f 22 3 11
f 23 16 15
f 23 15 3
f 23 3 16
f 24 18 5
f 24 12 18
f 24 20 12
f 24 5 20
f 25 7 19
f 25 14 21
f 25 20 14
f 25 19 20
f 26 20 19
f 26 12 20
f 26 19 4
f 26 4 12
f 27 21 15
f 27 15 7
f 27 25 21
f 27 7 25

