# https://github.com/mikedh/trimesh
v 0.03386302 0.02981206 0.23484848
v 0.06416605 0.04496358 0.20454545
v 0.06416605 0.07526661 0.25000000
v -0.01159153 0.12072115 0.23484848
v -0.04189456 0.04496358 0.15909091
v 0.03386302 0.10556964 0.15909091
v -0.07219759 0.06011509 0.25000000
v 0.06416605 0.04496358 0.23484848
v 0.01871150 0.02981206 0.15909091
v 0.06416605 0.08367625 0.21067804
v -0.04189456 0.10556964 0.15909091
v 0.01871150 0.02981206 0.25000000
v -0.04189456 0.10556964 0.25000000
v 0.03386302 0.02981206 0.20454545
v 0.03386302 0.04496358 0.14393939
v 0.01871150 0.12072115 0.23484848
v 0.01871150 0.12072115 0.20454545
v -0.07219759 0.04496358 0.20454545
v 0.06416605 0.06011509 0.25000000
v -0.07219759 0.08413409 0.22903852
v -0.02674304 0.02981206 0.15909091
v -0.02674304 0.10556964 0.14393939
v 0.06416605 0.08413409 0.22903852
v 0.03386302 0.10556964 0.25000000
v -0.01159153 0.12072115 0.20454545
v -0.02674304 0.02981206 0.25000000
v -0.07219759 0.07526661 0.25000000
v -0.07219759 0.08367625 0.21067804
v -0.01764478 0.05591653 0.14393940
v 0.01217152 0.09333358 0.14393939
v -0.07219759 0.04496358 0.23484848
v 0.02095581 0.08351872 0.14393940
f 8 1 2
f 8 2 3
f 10 3 2
f 12 3 7
f 12 1 8
f 12 9 1
f 13 7 3
f 13 4 11
f 14 9 2
f 14 2 1
f 14 1 9
f 15 2 9
f 15 10 2
f 15 6 10
f 16 4 13
f 17 4 16
f 17 10 6
f 18 11 5
f 19 12 8
f 19 8 3
f 19 3 12
f 20 13 11
f 21 15 9
f 21 18 5
f 21 9 12
f 22 17 6
f 22 5 11
f 23 3 10
f 23 17 16
f 23 10 17
f 24 16 13
f 24 13 3
f 24 23 16
f 24 3 23
f 25 11 4
f 25 4 17
f 25 22 11
f 25 17 22
f 26 12 7
f 26 21 12
f 26 18 21
f 27 20 7
f 27 7 13
f 27 13 20
f 28 20 11
f 28 11 18
f 29 21 5
f 29 15 21
f 29 5 22
f 30 22 6
f 30 29 22
f 30 15 29
f 31 26 7
f 31 18 26
f 31 7 20
f 31 28 18
f 31 20 28
f 32 30 6
f 32 6 15
f 32 15 30

