# https://github.com/mikedh/trimesh
v 0.13992362 -0.01564248 -0.43181818
v 0.13992362 -0.01564248 -0.49999991
v 0.13992362 0.16617570 -0.43181818
v -0.08716044 0.16594581 -0.43592126
v -0.08751608 -0.01584592 -0.43570376
v 0.13992363 0.16617569 -0.49999973
v -0.08734912 -0.01564250 -0.49999984
v -0.05704607 0.06011509 -0.35606061
v -0.08734910 0.16617570 -0.49999983
v -0.01159153 0.01466055 -0.35606061
v -0.04189456 0.12072115 -0.35606061
v -0.05704607 0.09041812 -0.35606061
v -0.04189456 0.02981206 -0.35606061
v 0.04901453 0.10556964 -0.35606061
v -0.01159153 0.15102418 -0.40151515
v 0.04901453 0.04496358 -0.35606061
v 0.03386302 0.12072115 -0.35606061
v 0.00355999 0.01466055 -0.35606061
v 0.01871150 0.15102418 -0.40151515
f 5 2 1
f 6 1 2
f 6 3 1
f 7 2 5
f 9 4 3
f 9 3 6
f 9 6 2
f 9 2 7
f 9 7 5
f 9 5 4
f 10 5 1
f 11 8 10
f 12 4 5
f 12 5 8
f 12 11 4
f 12 8 11
f 13 10 8
f 13 8 5
f 13 5 10
f 14 1 3
f 14 11 10
f 15 3 4
f 15 4 11
f 16 14 10
f 16 1 14
f 17 14 3
f 17 11 14
f 17 15 11
f 18 16 10
f 18 10 1
f 18 1 16
f 19 17 3
f 19 3 15
f 19 15 17

