# https://github.com/mikedh/trimesh
v 0.23083272 -0.30352127 0.37121212
v 0.23083272 -0.30352127 0.31060606
v 0.23083272 -0.21193269 0.31278408
v -0.17825819 -0.21261218 0.35606060
v -0.17825819 -0.30352127 0.31060606
v 0.23083272 -0.21261218 0.35606060
v -0.17825819 -0.30352127 0.37121212
v -0.17825819 -0.21193269 0.31278408
v 0.23083272 -0.24291521 0.37121212
v -0.17825819 -0.24291521 0.37121212
f 5 2 1
f 5 3 2
f 6 3 4
f 6 1 2
f 6 2 3
f 7 5 1
f 7 4 5
f 8 5 4
f 8 4 3
f 8 3 5
f 9 6 4
f 9 1 6
f 9 7 1
f 10 9 4
f 10 4 7
f 10 7 9

