# https://github.com/mikedh/trimesh
v 0.03386302 0.04496358 0.14393939
v 0.03386302 0.04496358 -0.23484849
v 0.01217145 0.09333379 -0.23484849
v -0.02674304 0.10556964 0.14393939
v -0.01764478 0.05591653 0.14393940
v 0.01217152 0.09333358 0.14393939
v 0.02095581 0.08351872 0.14393940
v -0.01764478 0.05591674 -0.23484848
v 0.02095536 0.08351955 -0.23484849
v -0.02674304 0.10556964 -0.23484849
f 5 2 1
f 6 3 4
f 7 1 2
f 7 6 4
f 7 5 1
f 7 4 5
f 8 2 5
f 9 7 2
f 9 3 6
f 9 6 7
f 9 8 3
f 9 2 8
f 10 4 3
f 10 3 8
f 10 8 5
f 10 5 4

