# https://github.com/mikedh/trimesh
v 0.30659029 -0.25806673 0.49242424
v 0.32174181 -0.25806673 0.47727273
v 0.23081940 -0.15330892 0.48799028
v -0.17824530 -0.15326787 0.48812663
v -0.23885545 -0.25719050 0.46170645
v 0.29143878 -0.19746067 0.50757576
v -0.23886425 -0.25806673 0.49242424
v 0.23083272 -0.15200612 0.46212121
v 0.30659029 -0.22776370 0.50757576
v -0.23886425 -0.24291521 0.50757576
v 0.31469797 -0.25261551 0.45845430
v 0.31423341 -0.19833991 0.45904163
v -0.17825819 -0.15200612 0.46212121
v 0.32174181 -0.24291521 0.49242424
v -0.23885175 -0.19812694 0.49927536
v 0.29143878 -0.24291521 0.50757576
v 0.32174181 -0.21261218 0.49242424
v -0.17821617 -0.17123699 0.49330265
v -0.23886425 -0.19746067 0.46212121
v 0.30659029 -0.21261218 0.50757576
f 6 3 4
f 7 5 2
f 7 2 1
f 8 4 3
f 10 9 6
f 10 7 1
f 11 2 5
f 12 8 3
f 12 3 6
f 12 2 11
f 13 4 8
f 13 8 12
f 13 12 11
f 14 9 1
f 14 1 2
f 15 10 6
f 15 4 13
f 16 10 1
f 16 1 9
f 16 9 10
f 17 14 2
f 17 2 12
f 17 12 6
f 17 9 14
f 18 15 6
f 18 6 4
f 18 4 15
f 19 15 13
f 19 5 7
f 19 7 10
f 19 10 15
f 19 13 11
f 19 11 5
f 20 17 6
f 20 6 9
f 20 9 17

