# https://github.com/mikedh/trimesh
v -0.36419213 -0.06541866 0.35081550
v -0.31462183 0.02981206 0.21969697
v -0.32977334 0.06011509 0.26515151
v -0.36007638 0.07526661 0.25000000
v -0.39037941 -0.03079400 0.26515151
v -0.31532999 0.05050420 0.22226383
v -0.39037941 -0.00049097 0.32575757
v -0.34492486 -0.03079400 0.34090909
v -0.34492486 -0.06109703 0.29545454
v -0.37522789 0.06011509 0.21969697
v -0.33787490 0.06742080 0.22431813
v -0.39037941 -0.04594551 0.35606060
v -0.36007638 -0.00049097 0.32575757
v -0.31462183 0.02981206 0.25000000
v -0.34492486 -0.00049097 0.23484848
v -0.39037941 -0.06109703 0.29545454
v -0.36007638 0.07526661 0.21969697
v -0.39037941 0.04496358 0.28030303
v -0.36007638 -0.04594551 0.35606060
v -0.37522789 0.02981206 0.21969697
v -0.38253182 -0.06555815 0.35093260
v -0.39037941 0.04496358 0.25000000
v -0.37522789 -0.00049097 0.23484848
v -0.39037941 -0.00049097 0.25000000
f 9 8 1
f 11 4 3
f 11 3 6
f 12 7 5
f 13 8 3
f 13 3 7
f 13 7 12
f 14 6 3
f 14 3 8
f 14 2 6
f 14 9 2
f 14 8 9
f 15 2 9
f 16 15 9
f 16 12 5
f 17 6 2
f 17 2 10
f 17 11 6
f 17 10 4
f 17 4 11
f 18 4 10
f 18 7 3
f 18 3 4
f 18 5 7
f 19 1 8
f 19 13 12
f 19 8 13
f 20 10 2
f 20 2 15
f 21 16 9
f 21 9 1
f 21 12 16
f 21 19 12
f 21 1 19
f 22 18 10
f 22 5 18
f 22 10 20
f 23 20 15
f 23 16 5
f 23 15 16
f 24 22 20
f 24 5 22
f 24 23 5
f 24 20 23

