# https://github.com/mikedh/trimesh
v 0.41265090 -0.13685461 0.40151515
v 0.41265090 -0.12170309 0.34090909
v 0.36719635 0.06011509 0.26515151
v 0.30659029 0.06011509 0.26515151
v 0.33598735 -0.13684259 0.35606703
v 0.35204484 0.02981206 0.21969697
v 0.39749938 -0.07624854 0.40151515
v 0.41265090 -0.13685461 0.35606060
v 0.38234787 0.02981206 0.25000000
v 0.36719635 0.06011509 0.23484848
v 0.30659029 0.02981206 0.21969697
v 0.33593999 -0.13531242 0.40024955
v 0.36719635 -0.00049097 0.23484848
v 0.41265090 -0.07624854 0.38636364
v 0.30951489 0.06093759 0.24354562
v 0.30755954 0.04988997 0.22211461
v 0.33593999 -0.07955432 0.39880213
v 0.30659029 0.02981206 0.25000000
v 0.38234787 -0.00049097 0.25000000
v 0.35204484 -0.10655157 0.32575757
v 0.38234787 0.02981206 0.28030303
v 0.38234787 0.01466055 0.31060606
v 0.41265090 -0.09140006 0.40151515
v 0.41265090 -0.07624854 0.35606060
v 0.30659029 0.04496358 0.26515151
v 0.38234787 -0.10655157 0.32575757
v 0.33689332 -0.00049097 0.23484848
v 0.41265090 -0.09140006 0.34090909
v 0.33595614 -0.12169900 0.34092258
f 7 3 4
f 8 2 1
f 8 1 5
f 10 3 9
f 12 5 1
f 12 1 7
f 13 10 9
f 13 6 10
f 13 11 6
f 14 1 2
f 15 4 3
f 15 3 10
f 16 10 6
f 16 6 11
f 16 15 10
f 16 11 4
f 16 4 15
f 17 12 7
f 17 7 4
f 17 4 12
f 18 11 5
f 18 5 12
f 18 4 11
f 19 13 9
f 19 9 2
f 19 2 13
f 20 8 5
f 20 2 8
f 21 14 9
f 21 9 3
f 22 3 7
f 22 7 14
f 22 21 3
f 22 14 21
f 23 14 7
f 23 7 1
f 23 1 14
f 24 14 2
f 24 9 14
f 25 18 12
f 25 12 4
f 25 4 18
f 26 20 13
f 26 13 2
f 26 2 20
f 27 11 13
f 27 13 20
f 28 24 2
f 28 2 9
f 28 9 24
f 29 27 20
f 29 20 5
f 29 5 11
f 29 11 27

