# https://github.com/mikedh/trimesh
v 0.23083272 -0.15200612 0.38636364
v 0.23083272 -0.15200612 0.34090909
v 0.23083272 0.01466055 0.34090909
v -0.31462183 0.01466055 0.34090909
v -0.33603406 -0.13694479 0.38639099
v -0.17825819 -0.15200612 0.34090909
v 0.23078306 0.00925541 0.38708234
v -0.17825819 -0.15200612 0.38636364
v -0.32977334 -0.13238161 0.34635931
v -0.30863649 0.00534522 0.38643163
v -0.32977334 -0.00049097 0.34090909
v -0.32977334 -0.00049097 0.38636364
f 1 2 3
f 3 2 4
f 6 2 1
f 6 4 2
f 7 1 3
f 7 3 4
f 8 6 1
f 8 5 6
f 8 7 5
f 8 1 7
f 9 6 5
f 10 7 4
f 10 5 7
f 11 9 5
f 11 4 6
f 11 6 9
f 12 10 4
f 12 4 11
f 12 11 5
f 12 5 10

