# https://github.com/mikedh/trimesh
v 0.23081299 -0.28613520 0.37057296
v 0.23083272 -0.24291521 0.35606060
v 0.23083272 -0.15200612 0.40151515
v -0.17825819 -0.15200612 0.40151515
v -0.17825562 -0.28637456 0.37064115
v 0.23083272 -0.15200612 0.35606060
v -0.17824510 -0.27832295 0.39854010
v -0.17825819 -0.15200612 0.35606060
v 0.23074168 -0.27808674 0.39846847
v -0.17825819 -0.24291521 0.35606060
f 1 2 3
f 5 2 1
f 6 3 2
f 6 4 3
f 7 3 4
f 7 4 5
f 8 4 6
f 8 6 2
f 9 1 3
f 9 3 7
f 9 7 5
f 9 5 1
f 10 8 2
f 10 2 5
f 10 5 4
f 10 4 8

