# https://github.com/mikedh/trimesh
v -0.34492486 -0.13685461 0.41666667
v -0.31684223 -0.13686520 0.32588383
v -0.31680350 -0.06114380 0.34090722
v -0.39037941 -0.06109703 0.37121212
v -0.40553092 -0.13685461 0.35606060
v -0.32977334 -0.07624854 0.41666667
v -0.40553092 -0.07624854 0.40151515
v -0.39037941 -0.07624854 0.31060606
v -0.32977334 -0.12886500 0.40584442
v -0.40553092 -0.13685461 0.40151515
v -0.34492486 -0.07624854 0.41666667
v -0.34492486 -0.06109703 0.31060606
v -0.34492486 -0.13685461 0.32575757
v -0.40553092 -0.07624854 0.35606060
v -0.31681080 -0.09140726 0.32588834
v -0.34492486 -0.07624854 0.31060606
v -0.38285700 -0.05734724 0.31525564
v -0.40553092 -0.12170309 0.34090909
v -0.39037941 -0.10655157 0.32575757
v -0.40553092 -0.09140006 0.34090909
f 6 3 4
f 6 2 3
f 9 6 1
f 9 1 2
f 9 2 6
f 10 7 5
f 10 1 7
f 10 5 2
f 10 2 1
f 11 6 4
f 11 4 7
f 11 7 1
f 11 1 6
f 13 2 5
f 14 7 4
f 14 5 7
f 15 12 3
f 15 3 2
f 16 8 12
f 16 13 8
f 16 2 13
f 16 15 2
f 16 12 15
f 17 12 8
f 17 4 3
f 17 3 12
f 17 14 4
f 17 8 14
f 18 13 5
f 18 5 14
f 19 18 8
f 19 8 13
f 19 13 18
f 20 18 14
f 20 14 8
f 20 8 18

