# https://github.com/mikedh/trimesh
v 0.32174181 -0.13685461 0.46212121
v 0.33603557 -0.13684226 0.38635989
v 0.33689332 -0.06109703 0.40151515
v 0.29143878 -0.03079400 0.46212121
v 0.29914784 -0.12645935 0.38229376
v 0.32174181 -0.04594551 0.44696970
v 0.33689332 -0.07624854 0.41666667
v 0.28857349 -0.13814844 0.47282388
v 0.33593999 -0.07160517 0.38317601
v 0.31968332 -0.04598791 0.38624652
v 0.30659029 -0.10655157 0.47727273
v 0.33593999 -0.12886489 0.40584478
v 0.32174181 -0.10655157 0.46212121
v 0.29807538 -0.13993620 0.46668829
v 0.27173699 -0.03477684 0.44952091
v 0.29143878 -0.04594551 0.38636364
v 0.30659029 -0.04594551 0.46212121
v 0.27577268 -0.07661742 0.46088779
v 0.27614699 -0.03090691 0.44661248
v 0.28800371 -0.03256329 0.44145549
f 7 2 3
f 7 3 6
f 9 3 2
f 9 2 5
f 10 6 3
f 10 4 6
f 10 3 9
f 11 8 1
f 12 7 1
f 12 1 2
f 12 2 7
f 13 7 6
f 13 1 7
f 13 11 1
f 13 6 11
f 14 8 5
f 14 5 2
f 14 2 1
f 14 1 8
f 16 10 9
f 16 9 5
f 16 5 15
f 17 11 6
f 17 6 4
f 17 4 11
f 18 11 4
f 18 8 11
f 18 4 15
f 18 15 5
f 18 5 8
f 19 16 15
f 19 15 4
f 19 10 16
f 20 19 4
f 20 4 10
f 20 10 19

