# https://github.com/mikedh/trimesh
v 0.29927871 -0.04844680 0.43860428
v 0.31968332 -0.04598791 0.38624652
v 0.32174181 0.01466055 0.41666667
v -0.31462183 0.01466055 0.41666667
v -0.31619003 -0.04622358 0.38559043
v 0.30659029 -0.00049097 0.44696970
v 0.32174181 -0.00049097 0.43181818
v 0.30948722 -0.04816958 0.42447777
v -0.31462183 -0.04594551 0.44696970
v 0.31268892 0.00500928 0.38590130
v 0.30659029 0.01466055 0.43181818
v -0.32977334 -0.01564248 0.40151515
v -0.29947031 -0.00049097 0.44696970
v -0.30863649 0.00534522 0.38643163
v -0.31462183 -0.03079400 0.44696970
v -0.32977334 -0.04594551 0.40151515
v -0.29947031 0.01466055 0.43181818
v -0.32977334 -0.01564248 0.38636364
v -0.31462183 -0.00049097 0.43181818
f 7 2 3
f 7 6 1
f 7 3 6
f 8 5 2
f 8 1 5
f 8 7 1
f 8 2 7
f 9 5 1
f 9 1 6
f 10 3 2
f 10 2 5
f 11 6 3
f 11 3 4
f 13 9 6
f 13 6 11
f 14 4 3
f 14 3 10
f 14 10 5
f 15 12 9
f 15 9 13
f 16 5 9
f 16 9 12
f 17 13 11
f 17 11 4
f 17 4 13
f 18 12 4
f 18 4 14
f 18 14 5
f 18 16 12
f 18 5 16
f 19 4 12
f 19 12 15
f 19 15 13
f 19 13 4

