# https://github.com/mikedh/trimesh
v -0.08734910 -0.13685461 -0.46212121
v -0.08602734 -0.13424285 -0.50000000
v -0.08430499 0.27735300 -0.49999982
v -0.10250062 0.28738782 -0.46212121
v -0.22371274 -0.01564248 -0.50757576
v -0.08734910 0.21163024 -0.43181818
v -0.08734910 -0.07624854 -0.43181818
v -0.14795516 -0.12170309 -0.50757576
v -0.22371274 0.15102418 -0.50757576
v -0.08734910 0.28738782 -0.46212121
v -0.20856122 0.02981206 -0.44696970
v -0.11765213 -0.13685461 -0.50757576
v -0.13280365 0.27223630 -0.50757576
v -0.10250062 0.28738782 -0.50757576
v -0.16310668 -0.00049097 -0.43181818
v -0.19340971 -0.06109703 -0.46212121
v -0.22371274 -0.00049097 -0.46212121
v -0.17825819 0.19647873 -0.44696970
v -0.11765213 -0.13685461 -0.47727273
v -0.17825819 -0.04594551 -0.44696970
v -0.19340971 -0.07624854 -0.50757576
v -0.20856122 -0.04594551 -0.47727273
v -0.11765213 0.21163024 -0.43181818
v -0.22371274 0.15102418 -0.46212121
v -0.19340971 0.21163024 -0.46212121
v -0.16310668 0.15102418 -0.43181818
v -0.16310668 -0.10655157 -0.47727273
v -0.19340971 -0.01564248 -0.44696970
v -0.10250062 -0.07624854 -0.43181818
v -0.22371274 -0.01564248 -0.47727273
v -0.19340971 -0.07624854 -0.49242424
v -0.13280365 0.24193327 -0.44696970
v -0.13280365 0.27223630 -0.46212121
v -0.19340971 0.21163024 -0.50757576
v -0.20856122 0.19647873 -0.47727273
v -0.13280365 0.19647873 -0.43181818
v -0.20856122 0.12072115 -0.44696970
v -0.14795516 -0.12170309 -0.49242424
v -0.13280365 -0.12170309 -0.46212121
v -0.14795516 -0.03079400 -0.43181818
v -0.17825819 -0.09140006 -0.47727273
v -0.20856122 0.19647873 -0.49242424
v -0.19340971 0.16617570 -0.44696970
v -0.10250062 -0.13685461 -0.46212121
v -0.11765213 -0.10655157 -0.44696970
f 7 1 2
f 7 2 3
f 7 3 6
f 9 8 5
f 10 6 3
f 10 4 6
f 12 2 1
f 12 8 9
f 13 12 9
f 14 10 3
f 14 4 10
f 14 13 4
f 14 12 13
f 14 3 2
f 14 2 12
f 15 7 6
f 17 9 5
f 19 12 1
f 19 8 12
f 21 5 8
f 23 6 4
f 23 15 6
f 24 17 11
f 24 9 17
f 26 11 15
f 26 15 23
f 27 21 8
f 28 15 11
f 28 11 17
f 28 17 16
f 28 16 20
f 29 7 15
f 30 17 5
f 30 5 21
f 30 22 16
f 30 16 17
f 31 16 22
f 31 30 21
f 31 22 30
f 32 23 4
f 32 18 23
f 32 25 18
f 33 4 13
f 33 13 25
f 33 32 4
f 33 25 32
f 34 25 13
f 34 13 9
f 35 9 24
f 35 24 25
f 35 25 34
f 36 26 23
f 36 23 18
f 36 18 26
f 37 24 11
f 37 11 26
f 38 27 8
f 38 8 19
f 38 19 27
f 39 27 19
f 39 16 27
f 40 29 15
f 40 28 20
f 40 15 28
f 41 27 16
f 41 16 31
f 41 31 21
f 41 21 27
f 42 35 34
f 42 34 9
f 42 9 35
f 43 37 26
f 43 26 18
f 43 24 37
f 43 25 24
f 43 18 25
f 44 39 19
f 44 19 1
f 45 20 16
f 45 16 39
f 45 40 20
f 45 29 40
f 45 39 44
f 45 44 1
f 45 1 7
f 45 7 29

