# https://github.com/mikedh/trimesh
v 0.15507514 -0.10655157 -0.46212121
v 0.23083272 0.01466055 -0.50757576
v 0.23083272 0.02981206 -0.46212121
v 0.13924233 0.16581155 -0.44924360
v 0.13992363 0.16617569 -0.49999973
v 0.15507514 -0.01564248 -0.43181818
v 0.20052969 -0.06109703 -0.47727273
v 0.15507514 -0.10655157 -0.50757576
v 0.21568120 0.16617570 -0.50757576
v 0.18537817 -0.03079400 -0.44696970
v 0.17022665 0.12072115 -0.43181818
v 0.13992362 -0.07624854 -0.44696970
v 0.21568120 -0.03079400 -0.47727273
v 0.20052969 -0.06109703 -0.50757576
v 0.23083272 0.13587267 -0.50757576
v 0.18537817 0.16617570 -0.44696970
v 0.15507514 -0.07624854 -0.44696970
v 0.20052969 -0.00049097 -0.44696970
v 0.18537817 -0.07624854 -0.46212121
v 0.15507514 0.15102418 -0.43181818
v 0.13649276 -0.10237103 -0.49999991
v 0.23083272 0.01466055 -0.47727273
v 0.21568120 -0.03079400 -0.50757576
v 0.21568120 0.16617570 -0.46212121
v 0.17022665 0.02981206 -0.43181818
v 0.21568120 -0.01564248 -0.46212121
v 0.13992362 -0.01564248 -0.43181818
v 0.13992362 -0.10655157 -0.46212121
v 0.13582419 0.14883306 -0.44550048
v 0.23083272 0.10556964 -0.46212121
v 0.20052969 0.13587267 -0.44696970
v 0.23083272 0.13587267 -0.47727273
f 8 7 1
f 9 8 5
f 9 2 8
f 14 8 2
f 14 7 8
f 14 13 7
f 15 3 2
f 15 2 9
f 16 9 5
f 16 5 4
f 17 10 6
f 17 12 1
f 17 6 12
f 18 6 10
f 19 7 13
f 19 1 7
f 19 17 1
f 19 10 17
f 20 6 11
f 20 16 4
f 20 11 16
f 21 5 8
f 22 13 2
f 22 2 3
f 22 3 13
f 23 14 2
f 23 2 13
f 23 13 14
f 24 15 9
f 24 9 16
f 25 11 6
f 25 6 18
f 25 18 3
f 25 3 11
f 26 3 18
f 26 18 10
f 26 10 19
f 26 19 13
f 26 13 3
f 27 12 6
f 27 6 20
f 28 21 8
f 28 8 1
f 28 1 12
f 28 12 21
f 29 4 5
f 29 5 21
f 29 21 12
f 29 12 27
f 29 27 20
f 29 20 4
f 30 3 15
f 30 11 3
f 31 24 16
f 31 16 11
f 31 30 24
f 31 11 30
f 32 30 15
f 32 15 24
f 32 24 30

