# https://github.com/mikedh/trimesh
v 0.23081940 -0.15330892 0.48799028
v 0.29914784 -0.12645935 0.38229376
v 0.29003486 -0.04666863 0.44471604
v -0.29947031 -0.04594551 0.46212121
v -0.33603406 -0.13694479 0.38639099
v 0.27628726 -0.06109703 0.47727273
v 0.23083272 -0.15200612 0.38636364
v -0.28431880 -0.13685461 0.49242424
v -0.31619003 -0.04622358 0.38559043
v 0.29143878 -0.13685461 0.49242424
v -0.17825819 -0.15200612 0.38636364
v -0.34492486 -0.06109703 0.40151515
v -0.26916728 -0.10655157 0.49242424
v 0.29143878 -0.04594551 0.38636364
v -0.33594001 -0.07160514 0.38317584
v 0.29143878 -0.07624854 0.47727273
v -0.17824530 -0.15326787 0.48812663
v -0.31462183 -0.07624854 0.46212121
v -0.32977334 -0.04594551 0.41666667
v -0.26916728 -0.06109703 0.47727273
v -0.29947031 -0.09140006 0.47727273
v 0.27628726 -0.10655157 0.49242424
v 0.29143878 -0.12170309 0.49242424
v -0.32977334 -0.13685461 0.43181818
v -0.31462183 -0.04594551 0.44696970
v -0.28431880 -0.12170309 0.49242424
v -0.30363734 -0.13877362 0.45542104
f 6 3 4
f 10 7 2
f 10 1 7
f 11 5 2
f 11 2 7
f 11 7 1
f 13 8 10
f 14 3 2
f 14 4 3
f 15 2 5
f 15 12 9
f 15 5 12
f 15 14 2
f 15 9 14
f 16 2 3
f 16 3 6
f 17 10 8
f 17 1 10
f 17 11 1
f 17 5 11
f 19 9 12
f 19 14 9
f 19 4 14
f 20 13 6
f 20 6 4
f 20 4 13
f 21 13 4
f 21 18 8
f 21 4 18
f 22 13 10
f 22 6 13
f 22 16 6
f 23 10 2
f 23 2 16
f 23 22 10
f 23 16 22
f 24 5 17
f 24 8 18
f 24 18 12
f 24 12 5
f 25 18 4
f 25 4 19
f 25 19 12
f 25 12 18
f 26 21 8
f 26 8 13
f 26 13 21
f 27 24 17
f 27 17 8
f 27 8 24

