# https://github.com/mikedh/trimesh
v -0.28431880 -0.19746067 0.34090909
v -0.28431880 -0.19746067 0.28030303
v -0.28430528 -0.00201872 0.34135794
v -0.32977334 -0.00049097 0.34090909
v -0.32977334 -0.19746067 0.29545454
v -0.32977334 -0.03079400 0.26515151
v -0.31670968 -0.19738101 0.34101526
v -0.28419034 -0.01439482 0.29969618
v -0.31462183 -0.09140006 0.25000000
v -0.31462183 -0.00049097 0.29545454
v -0.31462183 -0.19746067 0.28030303
v -0.32977334 -0.10655157 0.26515151
v -0.28431880 -0.09140006 0.25000000
v -0.28422903 -0.02442068 0.26822447
v -0.32977334 -0.00049097 0.31060606
v -0.28431880 -0.15200612 0.26515151
v -0.32977334 -0.16715764 0.28030303
v -0.32977334 -0.01564248 0.28030303
v -0.29138646 -0.05657147 0.25906190
v -0.31462183 -0.15200612 0.26515151
f 5 2 1
f 6 5 4
f 7 1 3
f 7 3 4
f 7 5 1
f 7 4 5
f 8 1 2
f 8 3 1
f 10 4 3
f 10 3 8
f 11 2 5
f 12 5 6
f 12 6 9
f 13 9 6
f 14 10 8
f 14 8 2
f 15 6 4
f 15 4 10
f 16 2 11
f 16 9 13
f 16 14 2
f 16 13 14
f 17 11 5
f 17 5 12
f 17 12 9
f 18 14 6
f 18 10 14
f 18 15 10
f 18 6 15
f 19 14 13
f 19 13 6
f 19 6 14
f 20 16 11
f 20 9 16
f 20 17 9
f 20 11 17

