# https://github.com/mikedh/trimesh
v 0.31592736 -0.22795815 0.46095484
v 0.32015742 -0.22772977 0.40150320
v 0.32174181 -0.13685461 0.46212121
v 0.23080710 -0.13936150 0.48389224
v 0.23083272 -0.22776370 0.40151515
v 0.29143878 -0.19746067 0.50757576
v 0.32174181 -0.15200612 0.47727273
v 0.23083272 -0.13685461 0.40151515
v 0.23083272 -0.22776370 0.46212121
v 0.29143878 -0.13685461 0.49242424
v 0.32040429 -0.13685476 0.40149788
v 0.23082023 -0.19812555 0.49929267
v 0.30659029 -0.15200612 0.49242424
v 0.23079701 -0.17129073 0.49318779
v 0.29143878 -0.18230915 0.50757576
v 0.27628726 -0.16715764 0.50757576
f 5 2 1
f 7 1 2
f 7 2 3
f 7 6 1
f 9 5 1
f 9 1 6
f 10 7 3
f 10 8 4
f 10 3 8
f 11 8 3
f 11 3 2
f 11 2 5
f 11 5 8
f 12 9 6
f 13 7 10
f 14 5 9
f 14 9 12
f 14 8 5
f 14 4 8
f 15 13 10
f 15 6 7
f 15 7 13
f 16 15 10
f 16 10 4
f 16 4 14
f 16 14 12
f 16 12 6
f 16 6 15

