# https://github.com/mikedh/trimesh
v 0.09847591 -0.29464536 0.29383872
v 0.14392978 -0.26434278 0.24838486
v 0.14728113 -0.20992678 0.32859809
v -0.00758311 -0.15828375 0.26353614
v -0.05350512 -0.29648128 0.27980852
v 0.14392978 -0.18858633 0.27868743
v 0.14392978 -0.26434278 0.33929259
v 0.09847591 -0.29464536 0.26353614
v -0.05303698 -0.20373762 0.23323357
v -0.03788569 -0.27949407 0.32414130
v 0.14745172 -0.20076527 0.31656884
v 0.12877849 -0.27949407 0.32414130
v 0.08120886 -0.27562941 0.24951210
v 0.07246556 -0.18238719 0.24605577
v 0.11362720 -0.20373762 0.33929259
v -0.05303698 -0.21888891 0.29383872
v -0.03788569 -0.29464536 0.32414130
v 0.14392978 -0.21888891 0.24838486
v 0.11362720 -0.18858633 0.32414130
v 0.12877849 -0.27949407 0.24838486
v 0.01003518 -0.16574503 0.24270764
v -0.05593610 -0.18458057 0.23556731
v -0.00758311 -0.18858633 0.29383872
v -0.05303698 -0.24919149 0.30899001
v 0.03787076 -0.29464536 0.32414130
v 0.09847591 -0.21888891 0.33929259
v -0.03788569 -0.20373762 0.23323357
v 0.08332462 -0.17343504 0.27868743
v -0.05303698 -0.17343504 0.26353614
v -0.00758311 -0.15828375 0.24838486
v -0.02273440 -0.26434278 0.32414130
v -0.00758311 -0.21888891 0.30899001
v -0.05303698 -0.29464536 0.30899001
v 0.09847591 -0.26434278 0.33929259
v 0.00756818 -0.15828375 0.26353614
f 7 2 3
f 8 1 5
f 11 3 2
f 12 2 7
f 12 1 8
f 13 8 5
f 13 5 9
f 15 7 3
f 18 11 2
f 18 6 11
f 18 14 6
f 19 11 6
f 19 4 15
f 19 15 3
f 19 3 11
f 20 12 8
f 20 2 12
f 20 8 13
f 20 13 9
f 21 6 14
f 22 9 5
f 23 15 4
f 24 23 16
f 24 17 10
f 24 16 22
f 25 17 5
f 25 5 1
f 25 1 12
f 25 12 7
f 25 7 17
f 26 15 10
f 26 10 17
f 26 7 15
f 27 18 2
f 27 14 18
f 27 21 14
f 27 22 21
f 27 9 22
f 27 20 9
f 27 2 20
f 28 19 6
f 29 22 16
f 29 23 4
f 29 16 23
f 30 21 22
f 30 28 6
f 30 6 21
f 30 29 4
f 30 22 29
f 31 24 10
f 31 10 15
f 31 15 24
f 32 24 15
f 32 15 23
f 32 23 24
f 33 5 17
f 33 17 24
f 33 24 22
f 33 22 5
f 34 26 17
f 34 17 7
f 34 7 26
f 35 4 19
f 35 19 28
f 35 30 4
f 35 28 30

