# https://github.com/mikedh/trimesh
v 0.00536303 0.05358206 -0.05445177
v 0.01195640 0.08092717 -0.15652488
v 0.02056373 0.29655196 -0.17420352
v -0.05303698 0.38716266 -0.23645640
v -0.09849085 0.05383430 -0.08494351
v 0.01131618 0.27924443 -0.25448006
v -0.06818827 0.09928817 0.00596423
v 0.01446920 0.11103350 -0.01373921
v -0.00758311 0.05383430 -0.11524609
v -0.00758311 0.37201137 -0.23645640
v -0.08333956 0.28110364 -0.25160769
v -0.07601304 0.04930293 0.00062418
v 0.00756818 0.05383430 -0.10009480
v -0.02273440 0.31140622 -0.16069996
v -0.00758311 0.06898559 -0.16069996
v -0.02781135 0.38118624 -0.25873738
v 0.00756818 0.32655751 -0.23645640
v -0.08333956 0.32655751 -0.20615382
v -0.09849085 0.06898559 -0.00918706
v -0.05640644 0.05836814 0.01218734
v -0.08333956 0.05383430 -0.11524609
v -0.05303698 0.29625493 -0.14554867
v -0.03788569 0.09928817 0.00596423
v -0.02273440 0.38716266 -0.23645640
v -0.02273440 0.23564977 -0.25160769
v -0.01821240 0.36733374 -0.25706667
v -0.08333956 0.34170880 -0.25160769
v -0.09849085 0.05383430 -0.00918706
v -0.08333956 0.26595235 -0.14554867
v -0.08333956 0.08413688 0.00596423
v 0.01094110 0.09833251 -0.01093107
v -0.08333956 0.22049848 -0.22130511
v -0.03788569 0.29625493 -0.14554867
v 0.00864239 0.24193301 -0.24661000
v -0.04659203 0.38009581 -0.25860777
v -0.06818827 0.37201137 -0.23645640
v -0.09849085 0.09928817 -0.03948964
v -0.06818827 0.26595235 -0.13039738
v -0.03775737 0.07039676 0.00760864
v -0.00758311 0.08413688 -0.17585125
v -0.06818827 0.25080106 -0.25160769
v 0.01034077 0.08787845 -0.16913691
v -0.08333956 0.34170880 -0.23645640
v -0.09849085 0.09928817 -0.08494351
f 6 3 2
f 8 2 3
f 13 8 1
f 13 2 8
f 13 12 9
f 13 1 12
f 14 8 3
f 15 13 9
f 15 2 13
f 17 10 3
f 17 3 6
f 20 12 1
f 21 12 5
f 21 9 12
f 21 15 9
f 23 7 20
f 23 22 7
f 24 4 22
f 24 16 4
f 24 10 16
f 24 14 3
f 24 3 10
f 26 16 10
f 26 6 16
f 26 17 6
f 26 10 17
f 27 11 5
f 28 19 5
f 28 5 12
f 29 18 19
f 30 20 7
f 30 19 28
f 30 28 12
f 30 12 20
f 30 29 19
f 31 1 8
f 31 8 23
f 32 21 5
f 32 5 11
f 33 23 8
f 33 8 14
f 33 22 23
f 33 24 22
f 33 14 24
f 34 25 6
f 35 16 6
f 35 11 27
f 35 4 16
f 36 35 27
f 36 4 35
f 36 22 4
f 36 18 29
f 37 19 18
f 37 5 19
f 38 7 22
f 38 36 29
f 38 22 36
f 38 30 7
f 38 29 30
f 39 20 1
f 39 1 31
f 39 31 23
f 39 23 20
f 40 15 21
f 40 25 34
f 41 32 11
f 41 25 40
f 41 40 21
f 41 21 32
f 41 11 35
f 41 35 6
f 41 6 25
f 42 34 6
f 42 6 2
f 42 40 34
f 42 2 15
f 42 15 40
f 43 36 27
f 43 18 36
f 43 37 18
f 43 27 37
f 44 37 27
f 44 27 5
f 44 5 37

