# https://github.com/mikedh/trimesh
v -0.06308838 -0.25076818 0.16988986
v -0.02273440 -0.18858633 0.02111552
v -0.02225627 -0.23212496 0.09840523
v -0.06074727 -0.15049090 0.17622998
v -0.08333956 -0.17343504 0.09687196
v -0.02273440 -0.17343504 0.06656938
v -0.03788569 -0.23404020 0.06656938
v -0.08333956 -0.24919149 0.17262841
v -0.01976541 -0.16954934 0.02645282
v -0.02273440 -0.20373762 0.09687196
v -0.02273440 -0.23404020 0.06656938
v -0.06818827 -0.18858633 0.05141809
v -0.07178950 -0.16341664 0.16901616
v -0.05392244 -0.24950928 0.14191003
v -0.06355509 -0.15628261 0.06746120
v -0.03788569 -0.18858633 0.02111552
v -0.08333956 -0.21888891 0.12717454
v -0.06818827 -0.21888891 0.08172067
v -0.06876747 -0.15591650 0.09910747
v -0.08333956 -0.24919149 0.15747712
v -0.06818827 -0.17343504 0.05141809
v -0.05303698 -0.23404020 0.08172067
v -0.03105444 -0.16662911 0.03081494
f 1 3 4
f 8 1 4
f 9 4 6
f 10 6 4
f 10 4 3
f 10 9 6
f 10 3 9
f 11 7 2
f 11 9 3
f 11 2 9
f 13 8 4
f 13 5 8
f 14 7 11
f 14 11 3
f 14 3 1
f 15 4 9
f 16 2 7
f 16 9 2
f 17 8 5
f 17 5 12
f 18 17 12
f 18 16 7
f 18 12 16
f 19 13 4
f 19 5 13
f 19 15 5
f 19 4 15
f 20 7 14
f 20 8 17
f 20 17 18
f 20 14 1
f 20 1 8
f 21 12 5
f 21 5 15
f 21 16 12
f 22 20 18
f 22 18 7
f 22 7 20
f 23 21 15
f 23 15 9
f 23 9 16
f 23 16 21

