# https://github.com/mikedh/trimesh
v 0.07083937 0.06405644 -0.07938283
v 0.08332462 0.12959075 -0.13039738
v 0.07953893 0.14679408 -0.11281457
v 0.03151247 0.17901946 -0.06399621
v 0.00756818 0.08413688 -0.19100254
v 0.06817334 0.08413688 -0.06979222
v 0.05302205 0.06898559 -0.17585125
v 0.00497150 0.06930062 -0.06933905
v 0.05302205 0.12959075 -0.17585125
v 0.06817334 0.08413688 -0.16069996
v 0.01821803 0.17731617 -0.11033550
v 0.00756818 0.06898559 -0.17585125
v 0.07704139 0.15229994 -0.12059858
v 0.05302205 0.11443946 -0.19100254
v 0.01887872 0.17070304 -0.07569155
v 0.00756818 0.11443946 -0.19100254
v 0.03158465 0.16995689 -0.12550105
v 0.03787076 0.08413688 -0.19100254
v 0.05302205 0.09928817 -0.19100254
v 0.03787076 0.12959075 -0.17585125
f 1 2 3
f 6 1 3
f 6 3 4
f 8 6 4
f 8 1 6
f 10 2 1
f 10 1 7
f 12 7 1
f 12 1 8
f 12 8 5
f 12 5 7
f 13 3 2
f 13 4 3
f 14 13 2
f 14 9 13
f 15 11 8
f 15 8 4
f 15 4 11
f 16 5 8
f 16 8 11
f 16 14 5
f 16 9 14
f 17 13 9
f 17 11 4
f 17 4 13
f 17 16 11
f 18 7 5
f 18 5 14
f 19 10 7
f 19 18 14
f 19 7 18
f 19 14 2
f 19 2 10
f 20 17 9
f 20 9 16
f 20 16 17

