# https://github.com/mikedh/trimesh
v 0.05213720 -0.17761590 0.26042733
v 0.05981127 -0.10332450 0.15155523
v 0.05302205 -0.12798117 0.23323357
v -0.00758311 -0.08252731 0.15747712
v -0.06928795 -0.15847703 0.11303663
v 0.05302205 -0.09767859 0.18777970
v -0.06818827 -0.17343504 0.24838486
v 0.05302205 -0.15828375 0.26353614
v 0.05302205 -0.17343504 0.21808228
v -0.03788569 -0.11282988 0.11202325
v 0.05395005 -0.09412613 0.14604333
v 0.00756818 -0.09767859 0.18777970
v 0.00756818 -0.15828375 0.26353614
v 0.05302205 -0.12798117 0.15747712
v -0.07495317 -0.19752818 0.22953480
v -0.05303698 -0.15828375 0.11202325
v -0.06818827 -0.11282988 0.15747712
v 0.00756818 -0.08252731 0.15747712
v -0.03788569 -0.14313246 0.23323357
v 0.01039789 -0.17917851 0.25780633
v 0.00756818 -0.12798117 0.23323357
v 0.00756818 -0.18858633 0.23323357
v -0.06562157 -0.11384740 0.10985843
v -0.07561746 -0.18837276 0.17198852
v -0.03788569 -0.12798117 0.11202325
v -0.08333956 -0.17343504 0.23323357
v 0.00970114 -0.08541821 0.13809338
v -0.03788569 -0.15828375 0.24838486
v -0.05303698 -0.12798117 0.20293099
v -0.06403369 -0.19467664 0.24242881
v -0.07574136 -0.18880476 0.17328285
v -0.08333956 -0.12798117 0.11202325
v -0.00486958 -0.08881252 0.13464766
v -0.06818827 -0.12798117 0.18777970
v -0.06818827 -0.15828375 0.23323357
v -0.08333956 -0.14313246 0.17262841
v -0.08333956 -0.12798117 0.12717454
f 6 3 2
f 8 1 2
f 8 2 3
f 9 2 1
f 11 6 2
f 12 6 4
f 12 3 6
f 13 1 8
f 13 8 3
f 14 2 9
f 16 2 14
f 16 14 9
f 16 11 2
f 18 4 6
f 18 6 11
f 20 13 7
f 20 1 13
f 21 13 3
f 21 3 12
f 21 19 13
f 21 12 4
f 21 4 19
f 22 9 1
f 23 16 5
f 23 17 4
f 24 5 16
f 24 16 9
f 24 9 22
f 25 10 11
f 25 11 16
f 25 23 10
f 25 16 23
f 27 18 11
f 27 11 10
f 27 10 23
f 27 4 18
f 28 7 13
f 28 13 19
f 29 19 4
f 30 1 20
f 30 22 1
f 30 15 22
f 30 20 7
f 30 26 15
f 30 7 26
f 31 24 22
f 31 22 15
f 31 15 26
f 32 17 23
f 32 23 5
f 32 5 24
f 32 31 26
f 32 24 31
f 33 27 23
f 33 23 4
f 33 4 27
f 34 29 4
f 34 4 17
f 35 19 29
f 35 28 19
f 35 7 28
f 35 29 34
f 35 34 26
f 35 26 7
f 36 32 26
f 36 34 17
f 36 26 34
f 37 36 17
f 37 17 32
f 37 32 36

