# https://github.com/mikedh/trimesh
v 0.29544268 -0.26434278 0.33929259
v 0.34089654 -0.23404020 0.30899001
v 0.34089654 -0.17343504 0.36959517
v 0.14392978 -0.18858633 0.33929259
v 0.15908107 -0.27949407 0.26353614
v 0.20453494 -0.18858633 0.27868743
v 0.26514010 -0.24919149 0.36959517
v 0.34089654 -0.24919149 0.35444388
v 0.32574525 -0.24919149 0.30899001
v 0.34089654 -0.18858633 0.30899001
v 0.31059396 -0.17343504 0.33929259
v 0.14392978 -0.20373762 0.26353614
v 0.15908107 -0.20373762 0.35444388
v 0.12877849 -0.27949407 0.32414130
v 0.34100315 -0.21750223 0.36572956
v 0.32574525 -0.24919149 0.36959517
v 0.24998881 -0.24919149 0.27868743
v 0.28029139 -0.26434278 0.30899001
v 0.34089654 -0.24919149 0.32414130
v 0.14392978 -0.18858633 0.27868743
v 0.31059396 -0.17343504 0.35444388
v 0.24998881 -0.21888891 0.36959517
v 0.18938365 -0.18858633 0.35444388
v 0.17423236 -0.27949407 0.32414130
v 0.17423236 -0.24919149 0.35444388
v 0.12455261 -0.26961521 0.27121624
v 0.23483752 -0.26434278 0.35444388
v 0.18938365 -0.26434278 0.26353614
v 0.20453494 -0.21888891 0.26353614
v 0.29544268 -0.26434278 0.32414130
v 0.32574525 -0.17343504 0.36959517
v 0.15908107 -0.23404020 0.35444388
v 0.12752230 -0.26308805 0.26522287
v 0.12901059 -0.26213260 0.32146571
v 0.28029139 -0.26434278 0.35444388
v 0.14392978 -0.26434278 0.33929259
v 0.18938365 -0.20373762 0.26353614
v 0.20453494 -0.24919149 0.26353614
v 0.17423236 -0.27949407 0.27868743
v 0.28029139 -0.18858633 0.36959517
v 0.24998881 -0.23404020 0.36959517
f 11 10 6
f 11 3 10
f 15 10 3
f 15 2 10
f 16 1 8
f 16 8 15
f 16 15 3
f 16 3 7
f 17 2 9
f 17 10 2
f 18 5 9
f 19 8 1
f 19 18 9
f 19 9 2
f 19 15 8
f 19 2 15
f 20 11 6
f 20 4 11
f 20 6 12
f 21 11 4
f 21 3 11
f 22 7 3
f 23 4 13
f 24 14 5
f 26 5 14
f 26 4 20
f 27 16 7
f 27 14 24
f 28 17 9
f 28 9 5
f 28 5 12
f 29 10 17
f 29 28 12
f 30 5 18
f 30 1 24
f 30 19 1
f 30 18 19
f 31 21 4
f 31 3 21
f 31 4 23
f 31 22 3
f 32 13 4
f 32 22 13
f 33 12 5
f 33 5 26
f 33 26 20
f 33 20 12
f 34 26 14
f 34 14 4
f 34 4 26
f 35 27 24
f 35 24 1
f 35 1 16
f 35 16 27
f 36 14 27
f 36 25 32
f 36 32 4
f 36 4 14
f 36 27 7
f 36 7 25
f 37 6 10
f 37 10 29
f 37 29 12
f 37 12 6
f 38 29 17
f 38 17 28
f 38 28 29
f 39 30 24
f 39 24 5
f 39 5 30
f 40 31 23
f 40 23 13
f 40 13 22
f 40 22 31
f 41 7 22
f 41 22 32
f 41 32 25
f 41 25 7

