# https://github.com/mikedh/trimesh
v 0.49240944 -0.21888891 0.36959517
v 0.50756073 -0.17343504 0.35444388
v 0.50756073 -0.17343504 0.38474646
v 0.34089654 -0.17343504 0.36959517
v 0.46210686 -0.21888891 0.30899001
v 0.35604783 -0.21888891 0.38474646
v 0.50756073 -0.20373762 0.38474646
v 0.49240944 -0.21888891 0.33929259
v 0.46210686 -0.17343504 0.33929259
v 0.40150170 -0.17343504 0.38474646
v 0.31059618 -0.23406417 0.35446466
v 0.43180428 -0.21888891 0.38474646
v 0.33685478 -0.20659684 0.32276230
v 0.46210686 -0.20373762 0.30899001
v 0.35604783 -0.18858633 0.38474646
v 0.40150170 -0.23404020 0.36959517
v 0.33977544 -0.18818477 0.34206985
v 0.33916414 -0.22792049 0.33106717
v 0.33609022 -0.21422857 0.32237356
v 0.31156694 -0.21847765 0.36321876
v 0.45573113 -0.22222677 0.32779495
v 0.30985043 -0.22236846 0.36207279
v 0.31086550 -0.22847047 0.35924009
f 3 2 4
f 7 2 3
f 7 3 6
f 8 5 2
f 8 7 1
f 8 2 7
f 9 4 2
f 10 6 3
f 10 3 4
f 12 7 6
f 12 1 7
f 14 9 2
f 14 2 5
f 14 13 9
f 15 10 4
f 15 6 10
f 16 8 1
f 16 1 12
f 16 12 6
f 16 6 11
f 16 11 5
f 17 4 9
f 17 9 13
f 18 5 11
f 19 14 5
f 19 13 14
f 19 5 18
f 19 18 11
f 19 11 13
f 20 6 15
f 20 15 4
f 20 4 17
f 20 17 13
f 21 16 5
f 21 5 8
f 21 8 16
f 22 6 20
f 22 20 13
f 22 13 11
f 23 22 11
f 23 11 6
f 23 6 22

