# https://github.com/mikedh/trimesh
v 0.00916681 -0.08266705 -0.01715320
v 0.00597599 -0.08247486 -0.01644757
v -0.06818827 -0.03707344 -0.06979222
v -0.07235195 0.05917046 -0.09135142
v 0.00536303 0.05358206 -0.05445177
v -0.08036854 -0.02079909 -0.02300412
v -0.06818827 -0.06737602 -0.03948964
v 0.00852836 -0.01918195 -0.01099265
v -0.00758311 0.03868301 -0.11524609
v -0.08333956 0.02353172 -0.10009480
v -0.08095265 0.02406009 -0.05379339
v -0.05325058 -0.08286878 -0.00956146
v -0.00758311 -0.05222473 -0.05464093
v 0.00756818 0.05383430 -0.10009480
v -0.00758311 -0.02192215 -0.00918706
v -0.08333956 -0.05222473 -0.03948964
v -0.06818827 0.00838043 -0.10009480
v -0.06818827 0.05383430 -0.11524609
v -0.07785795 0.05540022 -0.08211890
v 0.00756818 0.00838043 -0.08494351
v 0.00505950 0.05528046 -0.05572546
v -0.05303698 -0.05222473 -0.00918706
v -0.07182430 -0.04699623 -0.01791314
v -0.08333956 -0.03707344 -0.05464093
v -0.02273440 -0.03707344 -0.06979222
v -0.06818827 0.03868301 -0.11524609
v -0.00758311 0.05383430 -0.11524609
v 0.00756818 0.03868301 -0.10009480
v -0.02273440 0.00838043 -0.10009480
f 8 2 1
f 11 6 5
f 12 7 1
f 12 1 2
f 13 1 7
f 14 8 1
f 14 5 8
f 15 8 5
f 15 5 6
f 15 12 2
f 15 2 8
f 16 11 10
f 16 6 11
f 16 7 12
f 17 3 10
f 19 10 11
f 19 18 10
f 19 4 18
f 20 13 9
f 20 1 13
f 21 14 4
f 21 5 14
f 21 4 19
f 21 19 11
f 21 11 5
f 22 15 6
f 22 12 15
f 23 16 12
f 23 6 16
f 23 22 6
f 23 12 22
f 24 16 10
f 24 10 3
f 24 3 7
f 24 7 16
f 25 3 17
f 25 13 7
f 25 7 3
f 26 17 10
f 26 10 18
f 26 18 9
f 26 9 17
f 27 14 9
f 27 9 18
f 27 18 4
f 27 4 14
f 28 14 1
f 28 1 20
f 28 20 9
f 28 9 14
f 29 25 17
f 29 17 9
f 29 9 13
f 29 13 25

