# https://github.com/mikedh/trimesh
v 0.06778500 0.11195057 0.00316827
v 0.09847591 0.17504461 -0.05464093
v 0.06817334 0.14474203 0.00596423
v 0.03787076 0.26595235 -0.10009480
v 0.02132635 0.17474747 -0.11588845
v 0.08332462 0.26595235 -0.10009480
v 0.06817334 0.11443946 -0.02433835
v 0.00756818 0.11443946 0.00596423
v 0.09847591 0.19019590 -0.05464093
v 0.07401099 0.26125908 -0.12376777
v 0.08830529 0.21701714 -0.11872062
v 0.03787076 0.14474203 0.00596423
v 0.00756818 0.22049848 -0.11524609
v 0.00762786 0.11442628 -0.03949000
v 0.08332462 0.19019590 -0.03948964
v 0.04022225 0.26382250 -0.11933836
v 0.08881870 0.17163332 -0.07389348
v 0.08614739 0.23131573 -0.12169579
v 0.09847591 0.23564977 -0.10009480
v 0.00756818 0.12959075 0.00596423
v 0.03084818 0.24763299 -0.12209726
v 0.01333067 0.12812491 -0.06826507
v 0.02271947 0.25080106 -0.10009480
v 0.01513210 0.13152078 -0.07180299
v 0.00756818 0.22049848 -0.10009480
v 0.00756818 0.14474203 -0.00918706
f 1 2 3
f 6 4 3
f 7 2 1
f 8 1 3
f 9 3 2
f 12 8 3
f 12 3 4
f 14 7 1
f 14 1 8
f 14 8 13
f 15 9 6
f 15 6 3
f 15 3 9
f 16 4 6
f 16 6 10
f 17 7 5
f 17 5 11
f 17 11 2
f 17 2 7
f 18 11 5
f 19 9 2
f 19 2 11
f 19 11 18
f 19 6 9
f 19 18 10
f 19 10 6
f 20 12 4
f 20 8 12
f 20 13 8
f 21 5 13
f 21 18 5
f 21 10 18
f 21 16 10
f 21 13 16
f 22 7 14
f 22 14 13
f 22 13 5
f 23 16 13
f 23 4 16
f 24 22 5
f 24 5 7
f 24 7 22
f 25 23 13
f 25 13 20
f 26 25 20
f 26 23 25
f 26 20 4
f 26 4 23

