# https://github.com/mikedh/trimesh
v 0.03455096 -0.29946351 0.27664424
v 0.11362720 -0.26434278 0.21808228
v 0.10861086 -0.22516051 0.25737876
v 0.08522735 -0.20365997 0.18814913
v 0.00756818 -0.26434278 0.11202325
v 0.09847591 -0.20373762 0.11202325
v 0.02271947 -0.27949407 0.27868743
v 0.11362720 -0.27949407 0.24838486
v 0.11362720 -0.21888891 0.23323357
v 0.05302205 -0.20373762 0.11202325
v 0.08332462 -0.26434278 0.14232583
v 0.08332462 -0.26434278 0.27868743
v 0.08809009 -0.21674148 0.24617051
v 0.00842396 -0.29800604 0.23236670
v 0.11362720 -0.23404020 0.21808228
v 0.00840878 -0.24056104 0.10773725
v 0.09847591 -0.26434278 0.15747712
v 0.06817334 -0.24919149 0.11202325
v 0.08206970 -0.28160965 0.27874723
v 0.06817334 -0.26434278 0.27868743
v 0.00756818 -0.23404020 0.12717454
v 0.02271947 -0.29464536 0.15747712
v 0.09847591 -0.21888891 0.11202325
v 0.11362720 -0.27949407 0.23323357
v 0.03787076 -0.26434278 0.11202325
v 0.00756818 -0.27949407 0.23323357
v 0.05302205 -0.20373762 0.12717454
v 0.00756818 -0.29464536 0.15747712
v 0.05302205 -0.29464536 0.17262841
v 0.08332462 -0.29464536 0.23323357
v 0.02271947 -0.27949407 0.12717454
v 0.08332462 -0.27949407 0.17262841
v 0.05302205 -0.27949407 0.14232583
v 0.00756818 -0.27949407 0.12717454
f 9 8 2
f 9 3 8
f 9 6 4
f 10 4 6
f 13 9 4
f 13 3 9
f 14 1 7
f 15 9 2
f 15 2 6
f 15 6 9
f 16 10 6
f 19 7 1
f 19 1 8
f 19 8 3
f 19 3 12
f 20 12 3
f 20 19 12
f 20 7 19
f 20 13 7
f 20 3 13
f 21 7 13
f 21 10 16
f 21 16 5
f 22 1 14
f 23 6 2
f 23 2 17
f 23 17 11
f 23 11 18
f 23 18 16
f 23 16 6
f 24 17 2
f 24 2 8
f 25 5 16
f 25 16 18
f 25 18 11
f 26 14 7
f 26 7 21
f 26 21 5
f 27 21 13
f 27 13 4
f 27 4 10
f 27 10 21
f 28 22 14
f 28 26 5
f 28 14 26
f 29 11 17
f 29 1 22
f 30 24 8
f 30 8 1
f 30 29 24
f 30 1 29
f 31 5 25
f 31 22 28
f 31 29 22
f 32 29 17
f 32 17 24
f 32 24 29
f 33 25 11
f 33 11 29
f 33 31 25
f 33 29 31
f 34 31 28
f 34 28 5
f 34 5 31

