# https://github.com/mikedh/trimesh
v -0.00758311 -0.02192215 0.00596423
v 0.05302205 -0.00677086 -0.05464093
v 0.06922411 0.08565659 0.02324592
v 0.01643703 0.13392352 -0.03610417
v -0.03383446 -0.01347942 -0.06386728
v 0.05071020 0.06347458 -0.07898786
v -0.03788569 0.09928817 0.00596423
v 0.05284338 -0.01031082 -0.02916235
v 0.00756818 -0.02192215 -0.05464093
v 0.07574437 0.09197952 0.01526408
v 0.01513210 0.13152078 -0.07180299
v 0.02271947 0.02353172 -0.06979222
v 0.00963441 0.04192878 0.02555360
v 0.02271947 0.11443946 0.02111552
v -0.03788569 -0.02192215 -0.03948964
v 0.01797571 -0.00832329 0.00421370
v 0.05482841 0.03085917 -0.05966044
v 0.06894655 0.11939512 -0.00361998
v -0.03846164 0.10370028 -0.01836546
v -0.03775737 0.07039676 0.00760864
v 0.06662345 0.10450603 0.00995653
v 0.00756818 0.09928817 0.02111552
v -0.03664443 -0.02397759 -0.05746780
f 9 5 2
f 9 8 1
f 9 2 8
f 10 8 2
f 10 3 8
f 11 6 5
f 12 6 2
f 12 2 5
f 12 5 6
f 14 4 7
f 14 13 3
f 16 8 3
f 16 1 8
f 16 13 1
f 16 3 13
f 17 10 2
f 17 2 6
f 17 6 10
f 18 10 6
f 18 6 11
f 18 11 4
f 18 4 14
f 19 7 4
f 19 4 11
f 19 11 5
f 20 13 7
f 20 1 13
f 20 15 1
f 20 19 15
f 20 7 19
f 21 14 3
f 21 3 10
f 21 18 14
f 21 10 18
f 22 14 7
f 22 7 13
f 22 13 14
f 23 9 1
f 23 1 15
f 23 5 9
f 23 19 5
f 23 15 19

