# https://github.com/mikedh/trimesh
v -0.03223869 -0.31091098 0.30770324
v -0.03788569 -0.30979664 0.18777970
v -0.04810801 -0.19747400 0.25433366
v -0.08333956 -0.18858633 0.26353614
v -0.11523453 -0.31400976 0.24549506
v -0.07561746 -0.18837276 0.17198852
v -0.05303698 -0.20373762 0.27868743
v -0.03736740 -0.28997916 0.18873257
v -0.08333956 -0.32494793 0.21808228
v -0.09849085 -0.26434278 0.29383872
v -0.05937934 -0.17978457 0.22437084
v -0.09849085 -0.20373762 0.18777970
v -0.03260277 -0.29514207 0.30509805
v -0.06608340 -0.23808940 0.16874105
v -0.09849085 -0.32494793 0.26353614
v -0.08333956 -0.23404020 0.29383872
v -0.09849085 -0.20373762 0.26353614
v -0.11364214 -0.29464536 0.18777970
v -0.04995860 -0.28408821 0.17642924
v -0.08333956 -0.32494793 0.26353614
v -0.11543333 -0.31192023 0.22275676
v -0.09849085 -0.29464536 0.29383872
v -0.06818827 -0.20373762 0.27868743
v -0.05303698 -0.29464536 0.30899001
v -0.09849085 -0.21888891 0.27868743
v -0.11479717 -0.26156641 0.21246420
v -0.11364214 -0.26434278 0.18777970
v -0.08333956 -0.29464536 0.17262841
v -0.05303698 -0.30979664 0.30899001
v -0.05303698 -0.30979664 0.18777970
v -0.08333956 -0.30979664 0.29383872
f 8 1 2
f 9 2 1
f 11 6 4
f 11 8 6
f 11 3 8
f 11 7 3
f 11 4 7
f 12 4 6
f 13 3 7
f 13 8 3
f 13 1 8
f 14 6 8
f 17 4 12
f 19 14 8
f 19 8 2
f 20 15 9
f 20 9 1
f 20 1 15
f 21 15 5
f 21 9 15
f 21 18 9
f 22 10 5
f 22 5 15
f 23 16 7
f 23 7 4
f 23 4 16
f 24 13 7
f 24 7 16
f 24 1 13
f 24 16 10
f 24 10 22
f 25 16 4
f 25 4 17
f 25 10 16
f 25 5 10
f 26 17 12
f 26 21 5
f 26 25 17
f 26 5 25
f 27 12 6
f 27 26 12
f 27 18 21
f 27 21 26
f 28 6 14
f 28 14 19
f 28 19 2
f 28 9 18
f 28 27 6
f 28 18 27
f 29 15 1
f 29 24 22
f 29 1 24
f 30 28 2
f 30 2 9
f 30 9 28
f 31 29 22
f 31 22 15
f 31 15 29

