# https://github.com/mikedh/trimesh
v 0.05302205 -0.24919149 0.11202325
v 0.06817334 -0.18858633 0.02111552
v 0.07785857 -0.18091988 0.07662480
v 0.00756818 -0.14313246 0.02111552
v -0.02273440 -0.23404020 0.06656938
v 0.05302205 -0.14313246 -0.00918706
v 0.00756818 -0.21888891 0.11202325
v 0.06817334 -0.23404020 0.09687196
v 0.03787076 -0.23404020 0.06656938
v 0.07425462 -0.16250433 0.04664759
v -0.00758311 -0.18858633 0.00596423
v 0.07369809 -0.20920404 0.10895565
v 0.05302205 -0.17343504 0.08172067
v 0.00712582 -0.24576038 0.11471626
v -0.03052142 -0.18103711 0.04358517
v 0.06817334 -0.21888891 0.06656938
v 0.05302205 -0.24919149 0.09687196
v 0.05302205 -0.14313246 0.03626680
v 0.00802433 -0.13911092 -0.00146112
v 0.05302205 -0.15828375 -0.00918706
v 0.02271947 -0.20373762 0.02111552
v 0.06171129 -0.22542203 0.11752680
v 0.03787076 -0.20373762 0.11202325
v -0.02225627 -0.23212496 0.09840523
v -0.02273440 -0.18858633 0.02111552
v 0.05302205 -0.21888891 0.05141809
v 0.03787076 -0.14313246 0.03626680
v 0.00756818 -0.15828375 -0.00918706
v -0.00758311 -0.20373762 0.02111552
v 0.00756818 -0.18858633 0.00596423
v -0.02476563 -0.22633851 0.09167696
v -0.01976541 -0.16954934 0.02645282
f 10 3 2
f 10 2 6
f 12 8 3
f 13 12 3
f 15 7 4
f 16 2 3
f 16 3 8
f 17 5 9
f 17 14 5
f 17 1 14
f 17 2 16
f 17 16 8
f 17 8 1
f 18 10 6
f 18 13 3
f 18 3 10
f 19 18 6
f 19 15 4
f 20 6 2
f 21 9 5
f 21 20 2
f 22 1 8
f 22 8 12
f 22 14 1
f 22 7 14
f 23 4 7
f 23 12 13
f 23 22 12
f 23 7 22
f 24 14 7
f 24 5 14
f 25 11 5
f 25 5 15
f 26 17 9
f 26 2 17
f 26 21 2
f 26 9 21
f 27 13 18
f 27 23 13
f 27 4 23
f 27 19 4
f 27 18 19
f 28 19 6
f 28 6 20
f 28 20 11
f 28 25 19
f 28 11 25
f 29 21 5
f 29 5 11
f 29 11 21
f 30 21 11
f 30 11 20
f 30 20 21
f 31 15 5
f 31 5 24
f 31 24 7
f 31 7 15
f 32 25 15
f 32 15 19
f 32 19 25

