# https://github.com/mikedh/trimesh
v 0.06714392 -0.21787036 0.11259483
v 0.11362720 -0.12798117 0.05141809
v 0.08867944 -0.20254427 0.15861940
v 0.08795104 -0.00524732 0.08462235
v 0.06882028 -0.05474620 0.00159761
v 0.11362720 -0.00677086 0.08172067
v 0.06817334 -0.18858633 0.12717454
v 0.09847591 -0.20373762 0.09687196
v 0.11362720 -0.12798117 0.11202325
v 0.08657183 -0.15767094 0.15837899
v 0.10502057 -0.00623767 0.00651503
v 0.08776197 -0.20479896 0.15633464
v 0.06120068 -0.13763276 0.01521209
v 0.06817334 -0.06737602 0.03626680
v 0.11362720 -0.14313246 0.08172067
v 0.11362720 -0.14313246 0.09687196
v 0.11362720 -0.09767859 0.11202325
v 0.08332462 -0.02192215 0.00596423
v 0.09427858 -0.00316359 0.07343967
v 0.11362720 -0.05222473 0.00596423
v 0.08332462 -0.21888891 0.08172067
v 0.06817334 -0.05222473 0.02111552
v 0.10490132 -0.00716892 0.00555301
v 0.08332462 -0.17343504 0.02111552
v 0.06817334 -0.18858633 0.03626680
v 0.09847591 -0.15828375 0.03626680
v 0.08332462 -0.14313246 0.00596423
v 0.09847591 -0.18858633 0.06656938
v 0.06817334 -0.21888891 0.08172067
v 0.08332462 -0.18858633 0.03626680
v 0.11362720 -0.08252731 0.02111552
v 0.06817334 -0.17343504 0.02111552
f 9 2 6
f 10 6 4
f 10 7 3
f 10 4 7
f 12 7 1
f 12 3 7
f 12 8 3
f 13 1 7
f 14 7 4
f 14 13 7
f 15 2 9
f 16 9 3
f 16 3 8
f 16 15 9
f 16 8 15
f 17 9 6
f 17 6 10
f 17 10 3
f 17 3 9
f 18 4 11
f 19 11 4
f 19 4 6
f 19 6 11
f 20 11 6
f 20 6 2
f 21 12 1
f 21 8 12
f 22 14 4
f 22 5 13
f 22 13 14
f 22 18 5
f 22 4 18
f 23 18 11
f 23 5 18
f 23 20 5
f 23 11 20
f 27 13 5
f 27 5 20
f 27 20 24
f 28 8 21
f 28 26 2
f 28 15 8
f 28 2 15
f 29 25 21
f 29 21 1
f 29 1 13
f 29 13 25
f 30 25 24
f 30 21 25
f 30 28 21
f 30 24 26
f 30 26 28
f 31 20 2
f 31 2 26
f 31 26 24
f 31 24 20
f 32 25 13
f 32 13 27
f 32 27 24
f 32 24 25

