# https://github.com/mikedh/trimesh
v 0.10490132 -0.00716892 0.00555301
v 0.11362720 -0.00677086 -0.03948964
v 0.09856203 0.06901404 0.00599723
v 0.03055813 0.07506784 -0.07427307
v 0.05302205 -0.00677086 -0.05464093
v 0.11362720 0.06898559 -0.06979222
v 0.05284338 -0.01031082 -0.02916235
v 0.08332462 0.03868301 -0.08494351
v 0.10165073 0.06502849 0.00137413
v 0.09847591 -0.00677086 -0.05464093
v 0.10502057 -0.00623767 0.00651503
v 0.02602594 0.07108612 -0.06698082
v 0.02271947 0.05383430 -0.08494351
v 0.06817334 0.00838043 -0.06979222
v 0.09847591 0.05383430 -0.08494351
v 0.03787076 0.03868301 -0.08494351
v 0.11362720 0.05383430 -0.06979222
v 0.09847591 0.06898559 -0.08494351
v 0.05302205 0.00838043 -0.06979222
f 6 4 3
f 7 2 1
f 9 2 6
f 9 6 3
f 10 7 5
f 10 2 7
f 11 7 1
f 11 3 7
f 11 9 3
f 11 1 2
f 11 2 9
f 12 7 3
f 12 3 4
f 13 12 4
f 13 5 7
f 13 7 12
f 14 10 5
f 14 8 10
f 15 10 8
f 15 2 10
f 15 8 13
f 16 13 8
f 16 8 14
f 16 5 13
f 17 15 6
f 17 6 2
f 17 2 15
f 18 15 13
f 18 13 4
f 18 4 6
f 18 6 15
f 19 16 14
f 19 14 5
f 19 5 16

