# https://github.com/mikedh/trimesh
v 0.06925158 0.14330138 -0.11711038
v 0.06817334 0.14474203 -0.14554867
v 0.06900305 0.23311116 -0.17875635
v 0.05303000 0.25301887 -0.11126081
v -0.00095769 0.14659404 -0.13737627
v 0.06817334 0.22049848 -0.14554867
v 0.00798263 0.14389176 -0.11584932
v 0.03787076 0.20534719 -0.17585125
v 0.06817334 0.23564977 -0.16069996
v 0.06817334 0.17504461 -0.11524609
v 0.00756818 0.22049848 -0.11524609
v 0.02864371 0.25331478 -0.17295545
v 0.02271947 0.22049848 -0.17585125
v 0.03084818 0.24763299 -0.12209726
v 0.04982779 0.24286641 -0.18495456
v 0.00756818 0.22049848 -0.13039738
f 1 2 3
f 6 1 3
f 7 5 2
f 7 2 1
f 8 3 2
f 8 2 5
f 9 6 3
f 9 3 4
f 9 4 6
f 10 6 4
f 10 1 6
f 10 7 1
f 10 4 7
f 11 7 4
f 11 5 7
f 13 8 5
f 14 12 11
f 14 11 4
f 14 4 12
f 15 12 4
f 15 4 3
f 15 13 12
f 15 3 8
f 15 8 13
f 16 13 5
f 16 5 11
f 16 11 12
f 16 12 13

