# https://github.com/mikedh/trimesh
v 0.09608635 -0.22157917 0.25166898
v 0.08867944 -0.20254427 0.15861940
v 0.09847591 -0.09767859 0.14232583
v 0.05395005 -0.09412613 0.14604333
v 0.05302205 -0.18858633 0.23323357
v 0.09279356 -0.14376865 0.12582742
v 0.06817334 -0.21888891 0.18777970
v 0.06817334 -0.15828375 0.26353614
v 0.08998864 -0.09855172 0.12105852
v 0.08662944 -0.21963536 0.18581837
v 0.06817334 -0.21888891 0.24838486
v 0.05302205 -0.12798117 0.14232583
v 0.09847591 -0.18858633 0.24838486
v 0.06817334 -0.11282988 0.20293099
v 0.05302205 -0.15828375 0.26353614
v 0.07556355 -0.09428535 0.13546112
v 0.08776197 -0.20479896 0.15633464
v 0.05302205 -0.17343504 0.20293099
v 0.06817334 -0.12798117 0.12717454
v 0.08332462 -0.15828375 0.24838486
v 0.06817334 -0.09767859 0.17262841
v 0.05213720 -0.17761590 0.26042733
v 0.05302205 -0.11282988 0.20293099
v 0.08332462 -0.11282988 0.18777970
v 0.06525009 -0.18115652 0.26145665
v 0.05001338 -0.10966712 0.16431969
f 6 1 2
f 6 3 1
f 9 3 6
f 10 1 7
f 11 7 1
f 11 5 7
f 13 8 1
f 13 1 3
f 15 8 14
f 16 9 4
f 16 3 9
f 17 10 7
f 17 2 1
f 17 1 10
f 17 7 12
f 17 6 2
f 18 12 7
f 18 7 5
f 19 9 6
f 19 17 12
f 19 6 17
f 19 12 4
f 19 4 9
f 20 13 3
f 20 8 13
f 21 16 4
f 21 3 16
f 22 5 11
f 23 15 14
f 23 21 4
f 23 14 21
f 24 20 3
f 24 14 8
f 24 8 20
f 24 21 14
f 24 3 21
f 25 22 11
f 25 11 1
f 25 1 8
f 25 8 15
f 25 15 22
f 26 18 5
f 26 5 22
f 26 12 18
f 26 22 15
f 26 15 23
f 26 23 4
f 26 4 12

