# https://github.com/mikedh/trimesh
v 0.00511052 -0.30320964 0.23856674
v 0.00756818 -0.26434278 0.11202325
v 0.00756818 -0.21888891 0.11202325
v -0.06529976 -0.21802310 0.14287191
v -0.06818827 -0.29464536 0.15747712
v -0.05303698 -0.23404020 0.09687196
v -0.03788569 -0.21888891 0.14232583
v 0.01086894 -0.29259794 0.21507947
v -0.00758311 -0.30979664 0.18777970
v -0.05303698 -0.27949407 0.21808228
v 0.00766632 -0.22908435 0.09004923
v -0.04868173 -0.21444245 0.10008941
v -0.06818827 -0.23404020 0.11202325
v -0.05303698 -0.27949407 0.12717454
v 0.00842396 -0.29800604 0.23236670
v -0.03881954 -0.30282352 0.23329297
v 0.00756818 -0.30979664 0.20293099
v -0.06559582 -0.24815471 0.17437973
v -0.03788569 -0.24919149 0.09687196
v -0.05703621 -0.21372585 0.11754126
v -0.06818827 -0.26434278 0.12717454
v -0.00758311 -0.29464536 0.14232583
v -0.03788569 -0.30979664 0.18777970
v -0.05312540 -0.29943435 0.21643440
v 0.00756818 -0.29464536 0.15747712
v -0.06818827 -0.29464536 0.17262841
v -0.05303698 -0.29464536 0.14232583
v 0.00756818 -0.27949407 0.12717454
f 10 7 4
f 11 8 2
f 11 3 8
f 12 11 6
f 12 3 11
f 13 12 6
f 15 3 7
f 15 8 3
f 15 10 1
f 15 7 10
f 16 1 10
f 17 1 16
f 17 15 1
f 17 8 15
f 18 10 4
f 18 4 13
f 19 11 2
f 19 6 11
f 19 2 14
f 20 7 3
f 20 3 12
f 20 4 7
f 20 13 4
f 20 12 13
f 21 13 6
f 21 19 14
f 21 6 19
f 21 5 13
f 22 14 2
f 22 17 9
f 23 17 16
f 23 9 17
f 23 22 9
f 24 16 10
f 24 23 16
f 25 8 17
f 25 17 22
f 26 18 13
f 26 13 5
f 26 5 23
f 26 23 24
f 26 24 10
f 26 10 18
f 27 14 22
f 27 21 14
f 27 5 21
f 27 23 5
f 27 22 23
f 28 2 8
f 28 8 25
f 28 25 22
f 28 22 2

