# https://github.com/mikedh/trimesh
v 0.00841820 -0.02227986 0.11025670
v 0.10598362 -0.00624929 0.02157788
v 0.09847591 0.03868301 0.08172067
v 0.02271947 0.09928817 0.03626680
v -0.08574455 0.02034661 0.00314888
v 0.09847591 0.08413688 0.03626680
v -0.00758311 0.00838043 0.11202325
v 0.11362720 -0.00677086 0.08172067
v -0.00758311 -0.02192215 0.00596423
v 0.08332462 0.05383430 0.08172067
v -0.01510430 0.07740628 -0.00357464
v -0.08333956 -0.02192215 0.09687196
v 0.11362720 0.00838043 0.08172067
v 0.02271947 -0.02192215 0.02111552
v 0.08332462 0.09928817 0.03626680
v 0.02271947 0.05383430 0.08172067
v -0.06818827 0.08413688 0.02111552
v 0.08897440 0.07859346 0.01383306
v 0.02121002 -0.01236308 -0.00153653
v -0.05303698 -0.00677086 0.11202325
v -0.04894019 -0.02701900 0.09875910
v -0.08000297 -0.02275176 0.06508092
v 0.11362720 0.05383430 0.03626680
v 0.07708803 0.09282784 0.01345482
v -0.08333956 0.06898559 0.00596423
v -0.06818827 0.08413688 0.00596423
v 0.10126783 0.04953152 0.01570911
v -0.08333956 -0.00677086 0.09687196
v -0.06818827 0.00838043 0.09687196
v -0.09849085 0.02353172 0.02111552
v -0.09849085 0.03868301 0.00596423
v 0.02884982 0.09230431 0.01275732
v -0.08333956 0.06898559 0.02111552
v -0.09849085 0.03868301 0.02111552
f 10 3 6
f 10 7 3
f 13 7 1
f 13 1 8
f 13 3 7
f 13 6 3
f 14 8 1
f 14 9 2
f 14 2 8
f 15 10 6
f 15 4 10
f 16 10 4
f 16 7 10
f 17 16 4
f 19 9 5
f 19 5 11
f 19 2 9
f 19 11 18
f 20 1 7
f 21 20 12
f 21 1 20
f 21 14 1
f 21 9 14
f 22 5 9
f 22 21 12
f 22 9 21
f 23 13 8
f 23 8 2
f 23 6 13
f 23 18 6
f 24 4 15
f 24 18 11
f 24 15 6
f 24 6 18
f 26 17 4
f 26 25 17
f 26 11 25
f 27 19 18
f 27 2 19
f 27 23 2
f 27 18 23
f 28 12 20
f 29 20 7
f 29 7 16
f 29 16 17
f 29 28 20
f 30 22 12
f 30 5 22
f 30 12 28
f 31 25 11
f 31 11 5
f 31 5 30
f 32 24 11
f 32 11 26
f 32 26 4
f 32 4 24
f 33 17 25
f 33 25 31
f 33 29 17
f 33 28 29
f 34 33 31
f 34 31 30
f 34 30 28
f 34 28 33

