# https://github.com/mikedh/trimesh
v -0.08455148 -0.06750900 0.06699110
v -0.05214739 -0.06655373 -0.02328272
v -0.05020233 0.01780542 0.06221432
v -0.09849085 0.05383430 0.00596423
v -0.09849085 -0.02192215 -0.03948964
v -0.05617637 0.03527993 -0.09054460
v -0.09849085 -0.00677086 0.06656938
v -0.06818827 -0.05222473 0.06656938
v -0.09849085 -0.06737602 0.00596423
v -0.05322804 0.02333757 -0.08529311
v -0.06866694 0.05416796 0.00643065
v -0.09849085 0.02353172 -0.06979222
v -0.08333956 0.02353172 0.06656938
v -0.05303698 -0.06737602 0.00596423
v -0.08333956 -0.06737602 -0.02433835
v -0.05303698 0.03868301 -0.06979222
v -0.07785795 0.05540022 -0.08211890
v -0.08333956 0.02353172 -0.08494351
v -0.06047493 0.00000979 0.07478473
v -0.08508947 0.05668817 -0.06470614
v -0.07180401 0.05224836 -0.08795258
f 7 4 5
f 9 7 5
f 9 1 7
f 10 3 2
f 12 5 4
f 13 4 7
f 13 11 4
f 13 3 11
f 14 8 1
f 14 2 3
f 14 3 8
f 15 9 5
f 15 2 14
f 15 14 1
f 15 1 9
f 15 10 2
f 15 5 12
f 16 10 6
f 16 3 10
f 16 11 3
f 18 6 10
f 18 15 12
f 18 10 15
f 18 12 17
f 19 8 3
f 19 3 13
f 19 1 8
f 19 13 7
f 19 7 1
f 20 4 11
f 20 11 17
f 20 17 12
f 20 12 4
f 21 16 6
f 21 18 17
f 21 6 18
f 21 17 11
f 21 11 16

