# https://github.com/mikedh/trimesh
v 0.03787076 -0.44615825 0.35444388
v 0.05302205 -0.40070438 0.26353614
v 0.05302205 -0.35525051 0.38474646
v -0.02273440 -0.29464536 0.33929259
v -0.05303698 -0.41585567 0.30899001
v 0.05183905 -0.28756926 0.26211869
v 0.05302205 -0.43100696 0.35444388
v -0.02273440 -0.44615825 0.29383872
v -0.03788569 -0.37040180 0.39989775
v 0.02271947 -0.29464536 0.33929259
v -0.03881954 -0.30282352 0.23329297
v 0.05302205 -0.43100696 0.29383872
v 0.03787076 -0.37040180 0.39989775
v -0.03788569 -0.44615825 0.35444388
v 0.04853407 -0.28396852 0.29186636
v 0.02271947 -0.34009922 0.39989775
v -0.06818827 -0.35525051 0.33929259
v -0.03788569 -0.40070438 0.26353614
v 0.02271947 -0.30979664 0.20293099
v 0.03787076 -0.41585567 0.26353614
v 0.03787076 -0.44615825 0.30899001
v 0.05302205 -0.38555309 0.38474646
v -0.03788569 -0.44615825 0.32414130
v 0.02165479 -0.28760823 0.20504159
v 0.03787076 -0.32494793 0.36959517
v 0.02271947 -0.32494793 0.38474646
v -0.03788569 -0.34009922 0.39989775
v 0.03787076 -0.35525051 0.39989775
v -0.03788569 -0.29464536 0.32414130
v -0.06818827 -0.37040180 0.30899001
v -0.05303698 -0.38555309 0.38474646
v -0.03788569 -0.43100696 0.29383872
v 0.03787076 -0.30979664 0.21808228
v 0.00756818 -0.30979664 0.20293099
v 0.03787076 -0.40070438 0.24838486
v 0.02271947 -0.44615825 0.29383872
v 0.03648696 -0.28863493 0.21913796
v 0.03787076 -0.29464536 0.32414130
v -0.03788569 -0.32494793 0.38474646
v -0.06818827 -0.35525051 0.30899001
v 0.00640129 -0.29091310 0.20388614
v -0.06818827 -0.38555309 0.33929259
v -0.05303698 -0.34009922 0.38474646
v -0.00758311 -0.40070438 0.24838486
v -0.06818827 -0.38555309 0.32414130
v -0.05303698 -0.41585567 0.35444388
v -0.02273440 -0.38555309 0.24838486
v -0.02273440 -0.41585567 0.26353614
f 6 3 2
f 7 2 3
f 12 7 1
f 12 2 7
f 13 9 1
f 14 8 1
f 14 1 9
f 15 4 10
f 15 3 6
f 16 9 13
f 20 2 12
f 21 12 1
f 21 1 8
f 22 7 3
f 22 3 13
f 22 13 1
f 22 1 7
f 23 8 14
f 25 3 15
f 26 10 4
f 26 25 10
f 26 3 25
f 27 9 16
f 27 16 26
f 28 16 13
f 28 13 3
f 28 26 16
f 28 3 26
f 29 4 15
f 29 15 24
f 30 18 5
f 30 11 18
f 31 14 9
f 31 9 27
f 32 18 8
f 32 5 18
f 32 23 5
f 32 8 23
f 33 6 2
f 33 2 19
f 34 18 11
f 35 19 2
f 35 2 20
f 35 34 19
f 35 20 8
f 36 20 12
f 36 12 21
f 36 21 8
f 36 8 20
f 37 24 15
f 37 15 6
f 37 6 33
f 37 33 19
f 37 19 24
f 38 25 15
f 38 15 10
f 38 10 25
f 39 27 26
f 39 26 4
f 39 4 29
f 40 29 11
f 40 17 29
f 40 30 17
f 40 11 30
f 41 29 24
f 41 11 29
f 41 34 11
f 41 24 19
f 41 19 34
f 42 31 17
f 42 17 30
f 42 23 14
f 43 31 27
f 43 17 31
f 43 27 39
f 43 39 29
f 43 29 17
f 44 34 35
f 44 35 8
f 45 42 30
f 45 30 5
f 45 5 23
f 45 23 42
f 46 42 14
f 46 14 31
f 46 31 42
f 47 18 34
f 47 34 44
f 48 44 8
f 48 8 18
f 48 47 44
f 48 18 47

