# https://github.com/mikedh/trimesh
v 0.00822826 -0.18115282 0.02799763
v 0.00756818 -0.15828375 -0.00918706
v 0.00916681 -0.08266705 -0.01715320
v -0.08455148 -0.06750900 0.06699110
v -0.06818827 -0.17343504 0.03626680
v 0.00756818 -0.15828375 0.03626680
v -0.03788569 -0.17343504 0.00596423
v 0.00756818 -0.09767859 0.00596423
v -0.05880798 -0.16875469 0.07001370
v -0.04516789 -0.18140255 0.06029848
v -0.05303698 -0.08252731 -0.03948964
v -0.06818827 -0.06737602 0.05141809
v -0.03788569 -0.15828375 0.06656938
v -0.09849085 -0.09767859 0.06656938
v -0.08333956 -0.15828375 0.06656938
v 0.00756818 -0.12798117 -0.02433835
v -0.02273440 -0.15828375 -0.00918706
v -0.06818827 -0.09767859 -0.02433835
v -0.05116269 -0.05954451 -0.02930523
v -0.08231944 -0.08748114 0.06777341
v -0.02273440 -0.08252731 -0.03948964
v -0.00758311 -0.12798117 -0.02433835
v -0.06818827 -0.15828375 0.02111552
v -0.09849085 -0.08252731 0.02111552
v -0.02805536 -0.05906779 -0.02832205
v -0.05303698 -0.15828375 0.00596423
v -0.09849085 -0.09767859 0.03626680
v -0.09849085 -0.06737602 0.02111552
v -0.08333956 -0.11282988 0.00596423
v -0.08333956 -0.15828375 0.05141809
v -0.07308849 -0.06218531 -0.00285494
v -0.08333956 -0.08252731 -0.00918706
v -0.08492503 -0.06734458 0.06473500
f 1 2 3
f 6 1 3
f 7 2 1
f 8 6 3
f 8 4 6
f 10 7 1
f 10 5 7
f 12 8 3
f 12 4 8
f 13 6 4
f 13 4 9
f 13 9 10
f 13 10 1
f 13 1 6
f 15 10 9
f 15 5 10
f 15 9 14
f 16 3 2
f 17 2 7
f 17 16 2
f 18 17 7
f 18 11 17
f 20 14 9
f 20 9 4
f 20 4 14
f 21 16 11
f 21 3 16
f 21 11 19
f 22 17 11
f 22 11 16
f 22 16 17
f 23 7 5
f 25 4 12
f 25 12 3
f 25 21 19
f 25 3 21
f 26 23 18
f 26 18 7
f 26 7 23
f 27 15 14
f 27 14 24
f 28 24 14
f 28 14 4
f 29 18 23
f 29 23 5
f 29 27 24
f 30 5 15
f 30 15 27
f 30 29 5
f 30 27 29
f 31 19 28
f 32 28 19
f 32 19 11
f 32 11 18
f 32 24 28
f 32 29 24
f 32 18 29
f 33 31 28
f 33 28 4
f 33 19 31
f 33 25 19
f 33 4 25

