# https://github.com/mikedh/trimesh
v -0.09849085 -0.32494793 0.26353614
v -0.09718104 -0.26536875 0.20532552
v -0.09427520 -0.22694412 0.25608116
v -0.11364214 -0.21888891 0.26353614
v -0.35882198 -0.34485607 0.18049730
v -0.12879343 -0.21888891 0.21808228
v -0.09515212 -0.24129354 0.26802782
v -0.08989211 -0.23538354 0.21248438
v -0.11364214 -0.32494793 0.20293099
v -0.35606277 -0.34009922 0.23323357
v -0.09325242 -0.22206898 0.22144002
v -0.25000374 -0.29464536 0.17262841
v -0.25000374 -0.35525051 0.20293099
v -0.35606277 -0.29464536 0.17262841
v -0.18939858 -0.26434278 0.27868743
v -0.11364214 -0.23404020 0.20293099
v -0.32576019 -0.35525051 0.17262841
v -0.14394472 -0.30979664 0.18777970
v -0.17424729 -0.34009922 0.21808228
v -0.25000374 -0.35525051 0.23323357
v -0.35606277 -0.29464536 0.23323357
v -0.12879343 -0.23404020 0.27868743
v -0.17424729 -0.30979664 0.27868743
v -0.26515503 -0.35525051 0.18777970
v -0.35606277 -0.35525051 0.21808228
v -0.25000374 -0.32494793 0.17262841
v -0.14394472 -0.27949407 0.18777970
v -0.25000374 -0.27949407 0.26353614
v -0.23485245 -0.24919149 0.23323357
v -0.17424729 -0.24919149 0.27868743
v -0.09838467 -0.30094688 0.26713994
v -0.29545761 -0.34009922 0.24838486
v -0.17424729 -0.32494793 0.18777970
v -0.15909600 -0.26434278 0.18777970
v -0.25000374 -0.30979664 0.26353614
v -0.12879343 -0.21888891 0.24838486
v -0.32576019 -0.27949407 0.18777970
v -0.20454987 -0.24919149 0.26353614
v -0.31060890 -0.35525051 0.23323357
v -0.28030632 -0.34009922 0.17262841
v -0.18939858 -0.29464536 0.27868743
v -0.23485245 -0.24919149 0.21808228
v -0.32576019 -0.27949407 0.21808228
f 7 3 4
f 8 1 2
f 8 7 1
f 8 3 7
f 9 2 1
f 11 6 4
f 11 4 3
f 11 3 8
f 16 11 8
f 16 6 11
f 16 8 2
f 16 14 6
f 16 12 14
f 17 14 12
f 17 5 14
f 18 2 9
f 19 13 9
f 19 9 1
f 20 17 13
f 20 19 1
f 20 13 19
f 21 14 5
f 21 5 10
f 22 7 4
f 23 22 15
f 24 9 13
f 24 13 17
f 25 10 5
f 25 5 17
f 25 17 20
f 26 17 12
f 26 12 18
f 27 16 2
f 27 2 18
f 27 18 12
f 28 21 10
f 30 15 22
f 30 28 15
f 30 21 28
f 31 1 7
f 31 7 22
f 31 23 1
f 31 22 23
f 32 20 1
f 32 1 23
f 33 26 18
f 33 18 9
f 34 27 12
f 34 12 16
f 34 16 27
f 35 15 28
f 35 32 23
f 35 28 10
f 35 10 32
f 36 29 4
f 36 4 6
f 36 6 29
f 37 6 14
f 37 14 21
f 38 29 21
f 38 21 30
f 38 4 29
f 38 30 22
f 38 22 4
f 39 25 20
f 39 20 32
f 39 32 10
f 39 10 25
f 40 17 26
f 40 26 33
f 40 33 9
f 40 24 17
f 40 9 24
f 41 35 23
f 41 23 15
f 41 15 35
f 42 37 29
f 42 29 6
f 42 6 37
f 43 37 21
f 43 21 29
f 43 29 37

