# https://github.com/mikedh/trimesh
v 0.08332462 0.34170880 -0.35766672
v 0.11362720 0.35686009 -0.37281801
v 0.09847591 0.38716266 -0.29706156
v 0.02271947 0.43261653 -0.31221285
v 0.05302205 0.37201137 -0.38796930
v 0.08332462 0.43261653 -0.32736414
v 0.02271947 0.37201137 -0.29706156
v 0.08332462 0.35686009 -0.29706156
v 0.08332462 0.34170880 -0.38796930
v 0.11362720 0.40231395 -0.32736414
v 0.08332462 0.43261653 -0.29706156
v 0.06817334 0.40231395 -0.37281801
v 0.03787076 0.35686009 -0.37281801
v 0.11362720 0.35686009 -0.35766672
v 0.05302205 0.34170880 -0.35766672
v 0.03275798 0.42816093 -0.28880971
v 0.09847591 0.37201137 -0.38796930
v 0.09847591 0.41746524 -0.29706156
v 0.03787076 0.38716266 -0.37281801
v 0.03787076 0.43261653 -0.32736414
v 0.02271947 0.37201137 -0.31221285
v 0.05302205 0.34170880 -0.38796930
v 0.11362720 0.38716266 -0.32736414
v 0.04629088 0.36431579 -0.28935368
v 0.09847591 0.35686009 -0.38796930
v 0.09847591 0.40231395 -0.37281801
v 0.11362720 0.40231395 -0.35766672
v 0.11362720 0.38716266 -0.37281801
f 9 2 1
f 11 6 4
f 11 10 6
f 14 8 1
f 14 1 2
f 14 2 10
f 15 1 8
f 15 9 1
f 16 11 4
f 16 4 7
f 17 9 5
f 17 5 12
f 18 3 10
f 18 10 11
f 18 11 16
f 19 12 5
f 19 13 4
f 19 5 13
f 20 4 6
f 20 6 12
f 20 19 4
f 20 12 19
f 21 7 4
f 21 4 13
f 21 15 7
f 22 13 5
f 22 5 9
f 22 9 15
f 22 21 13
f 22 15 21
f 23 14 10
f 23 10 3
f 23 3 8
f 23 8 14
f 24 15 8
f 24 7 15
f 24 16 7
f 24 8 3
f 24 18 16
f 24 3 18
f 25 17 2
f 25 2 9
f 25 9 17
f 26 17 12
f 26 12 6
f 27 26 6
f 27 6 10
f 27 10 2
f 28 27 2
f 28 2 17
f 28 17 26
f 28 26 27

