# https://github.com/mikedh/trimesh
v 0.09847591 -0.09767859 0.14232583
v 0.11362720 -0.09767859 0.11202325
v 0.09847591 0.02353172 0.09687196
v 0.00756818 0.03868301 0.09687196
v 0.00756818 -0.08252731 0.11202325
v 0.06817334 0.00838043 0.12717454
v 0.11362720 -0.02192215 0.09687196
v 0.00994835 -0.10224823 0.15368688
v 0.08332462 -0.08252731 0.15747712
v 0.08332462 0.03868301 0.09687196
v 0.09847591 -0.08252731 0.14232583
v 0.08332462 -0.09767859 0.08172067
v 0.02271947 0.00838043 0.12717454
v -0.00119739 -0.00362127 0.08437533
v 0.08332462 -0.00677086 0.12717454
v 0.08332462 -0.09767859 0.15747712
v 0.11362720 -0.08252731 0.11202325
v 0.09847591 -0.03707344 0.12717454
v 0.09977855 -0.09868845 0.08158291
v 0.00756818 -0.08252731 0.15747712
v 0.08332462 0.03868301 0.08172067
v 0.11362720 -0.02192215 0.08172067
v 0.00756818 0.02353172 0.11202325
v 0.00316263 -0.08946131 0.13810312
v 0.00756818 0.03868301 0.08172067
v 0.09847591 0.02353172 0.08172067
v 0.00756818 -0.00677086 0.12717454
f 8 2 1
f 11 1 2
f 11 9 1
f 12 8 5
f 13 9 6
f 14 12 5
f 15 6 9
f 15 10 6
f 15 3 10
f 16 8 1
f 16 1 9
f 17 11 2
f 17 2 7
f 17 7 11
f 18 11 7
f 18 7 3
f 18 3 15
f 18 15 9
f 18 9 11
f 19 2 8
f 19 8 12
f 20 9 13
f 20 16 9
f 20 8 16
f 21 4 10
f 21 10 3
f 22 7 2
f 22 2 19
f 22 3 7
f 23 4 14
f 23 13 6
f 23 10 4
f 23 6 10
f 24 20 14
f 24 14 5
f 24 5 8
f 24 8 20
f 25 14 4
f 25 4 21
f 25 12 14
f 25 21 19
f 25 19 12
f 26 21 3
f 26 3 22
f 26 22 19
f 26 19 21
f 27 20 13
f 27 13 23
f 27 23 14
f 27 14 20

