# https://github.com/mikedh/trimesh
v -0.01846490 0.26621999 -0.24581179
v -0.00758311 0.31140622 -0.29706156
v -0.00758311 0.38716266 -0.25160769
v -0.05303698 0.43261653 -0.28191027
v -0.06818827 0.26595235 -0.26675898
v -0.00758311 0.43261653 -0.31221285
v -0.00758311 0.28110364 -0.26675898
v -0.06818827 0.38716266 -0.25160769
v -0.02273440 0.43261653 -0.28191027
v -0.06818827 0.34170880 -0.31221285
v -0.02273440 0.26595235 -0.26675898
v -0.05858394 0.27223737 -0.24215846
v -0.02273440 0.40231395 -0.25160769
v -0.00758311 0.43261653 -0.29706156
v -0.06818827 0.40231395 -0.31221285
v -0.00758311 0.32655751 -0.31221285
v -0.01824687 0.28733029 -0.24440488
v -0.05303698 0.40231395 -0.25160769
v -0.04683482 0.42119050 -0.30695875
v -0.06818827 0.40231395 -0.28191027
v -0.05303698 0.32655751 -0.31221285
v -0.03788569 0.28110364 -0.28191027
v -0.05303698 0.28110364 -0.28191027
f 6 3 2
f 7 2 3
f 7 3 1
f 9 6 4
f 10 5 8
f 11 2 7
f 11 7 1
f 11 1 5
f 12 8 5
f 12 5 1
f 13 9 4
f 13 3 9
f 14 9 3
f 14 3 6
f 14 6 9
f 15 6 10
f 15 10 8
f 16 10 6
f 16 6 2
f 16 2 11
f 17 12 1
f 17 1 3
f 17 13 12
f 17 3 13
f 18 13 4
f 18 4 8
f 18 8 12
f 18 12 13
f 19 15 4
f 19 4 6
f 19 6 15
f 20 15 8
f 20 8 4
f 20 4 15
f 21 5 10
f 21 10 16
f 22 16 11
f 22 11 5
f 22 21 16
f 23 22 5
f 23 5 21
f 23 21 22

