# https://github.com/mikedh/trimesh
v -0.43181921 -0.38555309 0.14232583
v -0.35606277 -0.35525051 0.15747712
v -0.35606277 -0.35525051 0.21808228
v -0.38636534 -0.29464536 0.20293099
v -0.44697050 -0.34009922 0.12717454
v -0.35606277 -0.29464536 0.17262841
v -0.50757566 -0.37040180 0.17262841
v -0.41666792 -0.37040180 0.12717454
v -0.35180279 -0.30594223 0.21008677
v -0.44697050 -0.30979664 0.15747712
v -0.44697050 -0.37040180 0.18777970
v -0.40151663 -0.30979664 0.21808228
v -0.43181921 -0.38555309 0.12717454
v -0.35606277 -0.30979664 0.15747712
v -0.37121405 -0.29464536 0.21808228
v -0.37121405 -0.29464536 0.17262841
v -0.50757566 -0.34009922 0.14232583
v -0.44697050 -0.38555309 0.14232583
v -0.40151663 -0.37040180 0.18777970
v -0.38636534 -0.35525051 0.21808228
v -0.49242437 -0.32494793 0.18777970
v -0.41666792 -0.34009922 0.12717454
v -0.38636534 -0.29464536 0.18777970
v -0.46212179 -0.32494793 0.14232583
v -0.50757566 -0.37040180 0.14232583
v -0.44697050 -0.30979664 0.18777970
v -0.49242437 -0.32494793 0.15747712
v -0.49242437 -0.35525051 0.18777970
v -0.44697050 -0.38555309 0.12717454
v -0.40151663 -0.34009922 0.21808228
f 1 2 3
f 9 3 2
f 10 6 5
f 13 8 2
f 13 2 1
f 13 5 8
f 14 2 8
f 14 9 2
f 14 6 9
f 14 5 6
f 15 9 6
f 15 6 4
f 15 12 3
f 15 3 9
f 16 4 6
f 16 6 10
f 18 11 7
f 18 1 11
f 18 13 1
f 19 11 1
f 19 1 3
f 19 3 11
f 20 11 3
f 20 7 11
f 20 3 12
f 21 17 7
f 21 12 15
f 22 14 8
f 22 8 5
f 22 5 14
f 23 16 10
f 23 10 4
f 23 4 16
f 24 17 10
f 24 10 5
f 24 5 17
f 25 7 17
f 25 18 7
f 25 17 5
f 26 4 10
f 26 10 21
f 26 21 15
f 26 15 4
f 27 21 10
f 27 10 17
f 27 17 21
f 28 12 21
f 28 21 7
f 28 7 20
f 29 13 18
f 29 18 25
f 29 25 5
f 29 5 13
f 30 28 20
f 30 20 12
f 30 12 28

