# https://github.com/mikedh/trimesh
v -0.05303698 -0.15828375 0.11202325
v 0.00756818 -0.11282988 0.12717454
v -0.05303698 -0.09767859 0.14232583
v -0.06818827 -0.02192215 0.11202325
v 0.00756818 -0.03707344 0.08172067
v 0.00756818 -0.02192215 0.12717454
v -0.09849085 -0.09767859 0.08172067
v 0.00490004 -0.10256101 0.15106071
v -0.05969597 -0.16197288 0.06374572
v -0.02273440 -0.06737602 0.14232583
v -0.00324760 -0.01811529 0.08219982
v 0.01229506 -0.07398904 0.13147624
v -0.06928795 -0.15847703 0.11303663
v -0.08333956 -0.06737602 0.11202325
v -0.00758311 -0.02192215 0.12717454
v -0.08000297 -0.02275176 0.06508092
v -0.04720047 -0.11780980 0.13840744
v -0.08333956 -0.15828375 0.06656938
v -0.07645257 -0.01988272 0.07080100
v -0.09849085 -0.03707344 0.08172067
v -0.06521345 -0.14898330 0.06255904
v -0.08333956 -0.02192215 0.09687196
v -0.09849085 -0.09767859 0.06656938
v -0.09849085 -0.03707344 0.06656938
f 8 1 2
f 9 5 2
f 9 2 1
f 10 4 3
f 10 8 6
f 10 3 8
f 11 6 5
f 12 2 5
f 12 5 6
f 12 8 2
f 12 6 8
f 13 1 8
f 13 9 1
f 14 3 4
f 14 13 3
f 14 7 13
f 15 10 6
f 15 4 10
f 15 11 4
f 15 6 11
f 16 11 5
f 17 13 8
f 17 8 3
f 17 3 13
f 18 13 7
f 18 9 13
f 19 4 11
f 19 11 16
f 20 7 14
f 21 16 5
f 21 5 9
f 21 9 18
f 22 20 14
f 22 14 4
f 22 4 19
f 22 19 16
f 23 18 7
f 23 7 20
f 23 21 18
f 24 22 16
f 24 20 22
f 24 23 20
f 24 16 21
f 24 21 23

