# https://github.com/mikedh/trimesh
v -0.00758311 0.34170880 -0.31221285
v 0.00378133 0.34788399 -0.39153270
v 0.00756818 0.38716266 -0.31221285
v -0.05303698 0.43261653 -0.32736414
v -0.05303698 0.34170880 -0.40312059
v 0.00756818 0.38716266 -0.38796930
v -0.04683482 0.42119050 -0.30695875
v 0.00756818 0.34170880 -0.32736414
v -0.02273440 0.43261653 -0.32736414
v -0.05303698 0.37201137 -0.40312059
v -0.04490579 0.34765189 -0.30207207
v 0.00756818 0.35686009 -0.31221285
v -0.05303698 0.40231395 -0.37281801
v -0.00758311 0.41746524 -0.34251543
v -0.02665023 0.42230696 -0.30581627
v -0.00758311 0.37201137 -0.40312059
v -0.05303698 0.34170880 -0.34251543
v -0.02273440 0.40231395 -0.37281801
f 8 6 3
f 8 2 6
f 8 5 2
f 8 1 5
f 10 5 4
f 11 7 4
f 12 8 3
f 12 1 8
f 12 11 1
f 12 3 11
f 13 4 9
f 13 10 4
f 13 6 10
f 14 9 3
f 14 3 6
f 14 6 9
f 15 3 9
f 15 11 3
f 15 7 11
f 15 9 4
f 15 4 7
f 16 10 6
f 16 6 2
f 16 2 5
f 16 5 10
f 17 5 1
f 17 1 11
f 17 11 4
f 17 4 5
f 18 13 9
f 18 9 6
f 18 6 13

