# https://github.com/mikedh/trimesh
v 0.08332462 0.22049848 -0.19100254
v 0.09847591 0.23564977 -0.19100254
v 0.02271947 0.28110364 -0.11524609
v 0.02271947 0.44776782 -0.26675898
v 0.08332462 0.35686009 -0.29706156
v 0.09847591 0.31140622 -0.14554867
v -0.00758311 0.25080106 -0.26675898
v 0.09847591 0.25080106 -0.11524609
v 0.03787076 0.23564977 -0.26675898
v 0.06817334 0.29625493 -0.11524609
v 0.08332462 0.43261653 -0.28191027
v 0.00756818 0.25080106 -0.13039738
v 0.02271947 0.44776782 -0.29706156
v 0.06817334 0.25080106 -0.25160769
v 0.03787076 0.34170880 -0.29706156
v 0.03787076 0.22049848 -0.19100254
v 0.06817334 0.44776782 -0.26675898
v 0.02271947 0.31140622 -0.13039738
v 0.09847591 0.26595235 -0.11524609
v 0.09847591 0.35686009 -0.25160769
v -0.01824687 0.28733029 -0.24440488
v 0.03084818 0.24763299 -0.12209726
v 0.08332462 0.43261653 -0.29706156
v 0.09847591 0.25080106 -0.20615382
v 0.05302205 0.23564977 -0.25160769
v 0.00756818 0.23564977 -0.26675898
v 0.06817334 0.34170880 -0.29706156
v 0.02271947 0.35686009 -0.29706156
v 0.08332462 0.37201137 -0.19100254
v 0.03787076 0.29625493 -0.11524609
v 0.00756818 0.29625493 -0.14554867
v 0.08332462 0.31140622 -0.13039738
v 0.09847591 0.35686009 -0.20615382
v -0.00746190 0.24828678 -0.25069386
v -0.00758311 0.28110364 -0.26675898
v 0.04338216 0.22699164 -0.16805747
v 0.06817334 0.44776782 -0.29706156
v 0.09847591 0.29625493 -0.23645640
v 0.08332462 0.41746524 -0.25160769
v 0.00756818 0.26595235 -0.13039738
v 0.00756818 0.32655751 -0.17585125
v 0.07643138 0.22579857 -0.16924432
v 0.09847591 0.32655751 -0.25160769
f 8 1 2
f 8 2 6
f 10 3 8
f 14 9 5
f 14 2 1
f 15 13 5
f 16 9 1
f 17 4 10
f 17 13 4
f 18 10 4
f 19 10 8
f 19 8 6
f 20 6 2
f 21 4 13
f 22 8 3
f 22 3 12
f 23 5 13
f 23 20 5
f 23 11 20
f 23 17 11
f 24 2 14
f 24 20 2
f 25 14 1
f 25 1 9
f 25 9 14
f 26 15 9
f 26 7 15
f 26 9 16
f 27 15 5
f 27 5 9
f 27 9 15
f 28 15 7
f 28 7 13
f 28 13 15
f 29 17 10
f 30 18 3
f 30 3 10
f 30 10 18
f 31 3 18
f 31 18 4
f 32 19 6
f 32 10 19
f 32 29 10
f 32 6 29
f 33 20 11
f 33 6 20
f 33 29 6
f 34 21 7
f 34 12 21
f 34 7 26
f 34 26 16
f 34 16 12
f 35 21 13
f 35 13 7
f 35 7 21
f 36 22 12
f 36 12 16
f 37 23 13
f 37 13 17
f 37 17 23
f 38 24 14
f 38 14 5
f 38 20 24
f 39 11 17
f 39 17 29
f 39 33 11
f 39 29 33
f 40 12 3
f 40 3 31
f 40 31 21
f 40 21 12
f 41 31 4
f 41 4 21
f 41 21 31
f 42 36 16
f 42 16 1
f 42 1 8
f 42 8 22
f 42 22 36
f 43 38 5
f 43 5 20
f 43 20 38

