# https://github.com/mikedh/trimesh
v 0.10585867 -0.00727463 0.02066892
v 0.11362720 0.06898559 -0.06979222
v 0.11362720 0.08413688 0.02111552
v 0.06851498 0.25138070 -0.11424749
v 0.06817334 0.06898559 -0.10009480
v 0.09847591 0.25080106 -0.11524609
v 0.06662345 0.10450603 0.00995653
v 0.10598362 -0.00624929 0.02157788
v 0.10490132 -0.00716892 0.00555301
v 0.11362720 0.12959075 -0.08494351
v 0.07105239 0.24199227 -0.18593175
v 0.06817334 0.06898559 0.00596423
v 0.06693695 0.21384548 -0.16432985
v 0.08332462 0.11443946 0.02111552
v 0.08332462 0.06898559 -0.10009480
v 0.11362720 0.12959075 -0.02433835
v 0.08889959 0.25299853 -0.17319643
v 0.07337380 0.07588020 0.02993512
v 0.06817334 0.22049848 -0.06979222
v 0.06817334 0.17504461 -0.16069996
v 0.09847591 0.14474203 -0.00918706
v 0.09847591 0.22049848 -0.17585125
v 0.08332462 0.22049848 -0.06979222
v 0.11362720 0.09928817 -0.08494351
v 0.09847591 0.08413688 -0.10009480
v 0.08332462 0.17504461 -0.16069996
v 0.08332462 0.20534719 -0.17585125
f 8 1 2
f 8 2 3
f 9 2 1
f 10 3 2
f 12 7 5
f 12 9 1
f 12 5 9
f 13 5 7
f 13 4 11
f 15 9 5
f 15 2 9
f 16 10 6
f 16 6 3
f 16 3 10
f 17 11 4
f 17 4 6
f 18 7 12
f 18 14 7
f 18 8 3
f 18 3 14
f 18 12 1
f 18 1 8
f 19 13 7
f 19 4 13
f 19 7 14
f 20 13 11
f 20 5 13
f 20 15 5
f 21 14 3
f 21 3 6
f 22 17 6
f 22 6 10
f 22 11 17
f 23 6 4
f 23 4 19
f 23 21 6
f 23 19 14
f 23 14 21
f 24 22 10
f 24 10 2
f 24 2 22
f 25 22 2
f 25 2 15
f 26 15 20
f 26 25 15
f 26 22 25
f 27 26 20
f 27 20 11
f 27 11 22
f 27 22 26

