# https://github.com/mikedh/trimesh
v 0.05755243 -0.16345386 0.02998589
v 0.11362720 -0.02192215 -0.02433835
v 0.10502057 -0.00623767 0.00651503
v 0.00807084 -0.00753618 0.00619851
v 0.00756818 -0.12798117 -0.02433835
v 0.00474108 -0.00609406 -0.03839636
v 0.05302205 -0.12798117 0.03626680
v 0.06848184 -0.15849196 0.03601329
v 0.06817334 -0.14313246 -0.00918706
v 0.09847591 -0.00677086 -0.03948964
v 0.00736885 -0.14553133 0.00209758
v 0.05302205 -0.05222473 0.02111552
v 0.11362720 -0.03707344 -0.00918706
v 0.06817334 -0.15828375 0.00596423
v 0.11362720 -0.00677086 -0.02433835
v 0.09847591 -0.02192215 -0.03948964
v 0.00347251 -0.01827678 -0.03325894
v 0.06817334 -0.05222473 0.02111552
v 0.10029250 -0.03247606 0.01107597
v 0.05302205 -0.12798117 -0.02433835
v 0.07692797 -0.13115958 0.02962961
f 6 4 3
f 8 7 1
f 8 3 7
f 10 6 3
f 11 7 4
f 11 1 7
f 12 3 4
f 12 4 7
f 13 9 2
f 14 8 1
f 14 1 11
f 14 11 5
f 14 5 9
f 14 13 8
f 14 9 13
f 15 10 3
f 15 2 10
f 15 13 2
f 15 3 13
f 16 5 6
f 16 6 10
f 16 10 2
f 16 2 9
f 17 6 5
f 17 5 11
f 17 11 4
f 17 4 6
f 18 12 7
f 18 7 3
f 18 3 12
f 19 13 3
f 19 3 8
f 20 16 9
f 20 9 5
f 20 5 16
f 21 19 8
f 21 8 13
f 21 13 19

